<svg xmlns="http://www.w3.org/2000/svg" xmlns:xlink="http://www.w3.org/1999/xlink" xmlns:lucid="lucid" width="1004" height="951"><g transform="translate(-721 8)" lucid:page-tab-id="CjGP8H-T8vD5"><path d="M741-.66a5 5 0 0 1 5-5h949a5 5 0 0 1 5 5v130a5 5 0 0 1-5 5H746a5 5 0 0 1-5-5z" stroke="#000" stroke-opacity="0" stroke-width="2" fill="#fff" fill-opacity="0"/><use xlink:href="#a" transform="matrix(1,0,0,1,745.9999457460949,-0.662184928987358) translate(152.19753086419757 86.34722222222221)"/><path d="M741 146a5 5 0 0 1 5-5h950.96a5 5 0 0 1 5 5v769.64a5 5 0 0 1-5 5H746a5 5 0 0 1-5-5z" stroke="#979ea8" stroke-width="2" fill="#f7f4e4"/><path d="M1701.96 563.56h-3m-4 0h-6m-4 0h-6.02m-4 0h-6m-4 0h-6.02m-4 0h-6m-4 0h-6.02m-4 0h-6m-4 0h-6.02m-4 0h-6m-4 0h-6.02m-4 0h-6m-4 0h-6.02m-4 0h-6m-4 0h-6.02m-4 0h-6m-4 0h-6.02m-4 0h-6m-4 0h-6.02m-4 0h-6m-4 0h-6.02m-4 0h-6m-4 0h-6.02m-4 0h-6m-4 0h-6.02m-4 0h-6m-4 0h-6.02m-4 0h-6m-4 0h-6.02m-4 0h-6m-4 0h-6.02m-4 0h-6m-4 0h-6.02m-4 0h-6m-4 0h-6.02m-4 0h-6m-4 0h-6.02m-4 0h-6m-4 0h-6.02m-4 0h-6m-4 0h-6.02m-4 0h-6m-4 0h-6.02m-4 0h-6m-4 0h-6.02m-4 0h-6m-4 0h-6.02m-4 0h-6m-4.02 0h-6m-4 0h-6m-4.02 0h-6m-4 0h-6m-4.02 0h-6m-4 0h-6m-4.02 0h-6m-4 0h-6m-4.02 0h-6m-4 0h-6m-4.02 0h-6m-4 0h-6m-4.02 0h-6m-4 0h-6m-4 0h-6.02m-4 0h-6m-4.02 0h-6m-4 0h-6m-4.02 0h-6m-4 0h-6m-4.02 0h-6m-4 0h-6m-4.02 0h-6m-4 0h-6m-4.02 0h-6m-4 0h-6m-4.02 0h-6m-4 0h-6m-4.02 0h-6m-4 0h-6m-4.02 0h-6m-4 0h-6m-4.02 0h-6m-4 0h-6m-4.02 0h-6m-4 0h-6m-4.02 0h-6m-4 0h-6m-4.02 0h-6m-4 0h-6m-4.02 0h-6m-4 0h-6m-4.02 0h-6m-4 0h-6m-4.02 0h-6m-4 0h-6m-4.02 0h-6m-4 0h-6m-4.02 0h-3" stroke="#979ea8" stroke-width="2" fill="none"/><path d="M1702.96 564.54h-1.02v-1.95h1.02zM741.03 564.54H740v-1.95h1.03z" stroke="#979ea8" stroke-width=".05" fill="#979ea8"/><path d="M1183.2 920.64v-3m0-4v-6m0-4v-6m0-3.98v-6m0-4v-6m0-4v-6m0-4v-6m0-4v-5.98m0-4v-6m0-4v-6m0-4v-6m0-4v-5.98m0-4v-6m0-4v-6m0-4v-6m0-4v-6m0-3.98v-6m0-4v-6m0-4v-6m0-4v-6m0-4v-5.98m0-4v-6m0-4v-6m0-4v-6m0-4v-6m0-3.98v-6m0-4v-6m0-4v-6m0-4v-6m0-4v-5.98m0-4v-6m0-4v-6m0-4v-6m0-4v-5.98m0-4v-6m0-4v-6m0-4v-6m0-4v-5.98m0-4v-6m0-4v-6m0-4v-6m0-4v-6m0-4v-5.98m0-4v-6m0-4v-6m0-4v-6m0-4v-5.98m0-4v-6m0-4v-6m0-4v-6m0-4v-6m0-3.98v-6m0-4v-6m0-4v-6m0-4v-6m0-4v-5.98m0-4v-6m0-4v-6m0-4v-6m0-4v-5.98m0-4v-6m0-4v-6m0-4v-6m0-4v-6m0-4v-5.98m0-4v-6m0-4v-6m0-4v-6m0-4v-5.98m0-4v-6m0-4v-6m0-4v-6m0-4v-6m0-3.98v-6m0-4v-6m0-4v-6m0-4v-6m0-4V148m0-4v-3" stroke="#979ea8" stroke-width="2" fill="none"/><path d="M1184.17 921.64h-1.95v-1.02h1.95zM1184.17 141.03h-1.95V140h1.95z" stroke="#979ea8" stroke-width=".05" fill="#979ea8"/><path d="M1045.7 511.27a5 5 0 0 1 5-5h288.4a5 5 0 0 1 5.02 5v104.8a5 5 0 0 1-5 5H1050.7a5 5 0 0 1-5-5z" stroke="#979ea8" stroke-width="2" fill="#c1e4f7"/><use xlink:href="#b" transform="matrix(1,0,0,1,1050.6966040932332,511.26897312832966) translate(2.5123456790124123 24.88888888888888)"/><use xlink:href="#c" transform="matrix(1,0,0,1,1050.6966040932332,511.26897312832966) translate(11.154320987654383 24.88888888888888)"/><use xlink:href="#d" transform="matrix(1,0,0,1,1050.6966040932332,511.26897312832966) translate(174.40123456790124 24.88888888888888)"/><use xlink:href="#e" transform="matrix(1,0,0,1,1050.6966040932332,511.26897312832966) translate(-3.1913580246913114 62.22222222222219)"/><use xlink:href="#f" transform="matrix(1,0,0,1,1050.6966040932332,511.26897312832966) translate(73.80864197530867 99.55555555555551)"/><path d="M752.3 200.86a5 5 0 0 1 5-5h284.85a5 5 0 0 1 5 5v60.73a5 5 0 0 1-5 5H757.3a5 5 0 0 1-5-5zM1332.3 685.43a5 5 0 0 1 5-5h304.84a5 5 0 0 1 5 5v60.74a5 5 0 0 1-5 5H1337.3a5 5 0 0 1-5-5zM1332.3 603.44a5 5 0 0 1 5-5h304.84a5 5 0 0 1 5 5v60.73a5 5 0 0 1-5 5H1337.3a5 5 0 0 1-5-5z" stroke="#1071e5" stroke-width="2" fill="#edf5ff"/><path d="M1347.53 607.7a5 5 0 0 1 5-5h178.5a5 5 0 0 1 5 5v53.34a5 5 0 0 1-5 5h-178.5a5 5 0 0 1-5-5z" stroke="#979ea8" stroke-width="2" fill="#ffbbb1"/><use xlink:href="#g" transform="matrix(1,0,0,1,1352.5334506646966,607.703455176388) translate(12.197530864197532 31.638888888888893)"/><path d="M1347.53 689.13a5 5 0 0 1 5-5h178.5a5 5 0 0 1 5 5v53.34a5 5 0 0 1-5 5h-178.5a5 5 0 0 1-5-5z" stroke="#979ea8" stroke-width="2" fill="#ffbbb1"/><use xlink:href="#g" transform="matrix(1,0,0,1,1352.5334506646966,689.1346772157614) translate(12.197530864197532 31.638888888888893)"/><path d="M767.53 207.23a5 5 0 0 1 5-5h178.5a5 5 0 0 1 5 5v48a5 5 0 0 1-5 5h-178.5a5 5 0 0 1-5-5z" stroke="#979ea8" stroke-width="2" fill="#fc9432"/><use xlink:href="#h" transform="matrix(1,0,0,1,772.5334506646964,207.22569735326283) translate(-9.925925925925938 29.77777777777778)"/><path d="M750.86 360.1a5 5 0 0 1 5-5h284.84a5 5 0 0 1 5 5v60.75a5 5 0 0 1-5 5H755.86a5 5 0 0 1-5-5z" stroke="#1071e5" stroke-width="2" fill="#edf5ff"/><path d="M771.48 368.35a5 5 0 0 1 5-5h245.3a5 5 0 0 1 5.02 5v44.25a5 5 0 0 1-5 5H776.47a5 5 0 0 1-5-5z" stroke="#979ea8" stroke-width="2" fill="#ff8f8f"/><use xlink:href="#i" transform="matrix(1,0,0,1,776.4772131423892,368.3510248763772) translate(6.061728395061692 31.256944444444446)"/><use xlink:href="#j" transform="matrix(1,0,0,1,776.4772131423892,368.3510248763772) translate(145.9135802469136 31.256944444444446)"/><path d="M755.44 665.02a5 5 0 0 1 5-5h384.84a5 5 0 0 1 5 5v60.74a5 5 0 0 1-5 5H760.44a5 5 0 0 1-5-5z" stroke="#1071e5" stroke-width="2" fill="#edf5ff"/><path d="M770.66 669.3a5 5 0 0 1 5-5h178.5a5 5 0 0 1 5 5v53.32a5 5 0 0 1-5 5h-178.5a5 5 0 0 1-5-5z" stroke="#979ea8" stroke-width="2" fill="#ffbbb1"/><use xlink:href="#k" transform="matrix(1,0,0,1,775.6647962981815,669.2901848630339) translate(12.197530864197546 31.638888888888886)"/><path d="M1058.2 672.74a5 5 0 0 1 5-5h70.8a5 5 0 0 1 5 5v41.8a5 5 0 0 1-5 5h-70.8a5 5 0 0 1-5-5z" stroke="#979ea8" stroke-width="2" fill="#fff7a1"/><use xlink:href="#l" transform="matrix(1,0,0,1,1063.2003859507258,672.7350444027472) translate(-1.351851851851798 27.666666666666657)"/><path d="M1219.2 316.6a5 5 0 0 1 5-5h405.63a5 5 0 0 1 5 5v55.48a5 5 0 0 1-5 5H1224.2a5 5 0 0 1-5-5zM1219.2 234.62a5 5 0 0 1 5-5h405.63a5 5 0 0 1 5 5v60.73a5 5 0 0 1-5 5H1224.2a5 5 0 0 1-5-5zM1219.2 152.62a5 5 0 0 1 5-5h405.63a5 5 0 0 1 5 5v60.74a5 5 0 0 1-5 5H1224.2a5 5 0 0 1-5-5z" stroke="#1071e5" stroke-width="2" fill="#edf5ff"/><path d="M1234.4 156.9a5 5 0 0 1 5-5h178.5a5 5 0 0 1 5 5v53.32a5 5 0 0 1-5 5h-178.5a5 5 0 0 1-5-5z" stroke="#979ea8" stroke-width="2" fill="#ffbbb1"/><use xlink:href="#g" transform="matrix(1,0,0,1,1239.413514239425,156.88885255481748) translate(12.197530864197532 31.638888888888893)"/><path d="M1234.4 238.32a5 5 0 0 1 5-5h178.5a5 5 0 0 1 5 5v53.33a5 5 0 0 1-5 5h-178.5a5 5 0 0 1-5-5z" stroke="#979ea8" stroke-width="2" fill="#ffbbb1"/><use xlink:href="#g" transform="matrix(1,0,0,1,1239.413514239425,238.3200745941908) translate(12.197530864197532 31.638888888888893)"/><path d="M1466.25 160.96a5 5 0 0 1 5-5h50.9a5 5 0 0 1 5 5v41.8a5 5 0 0 1-5 5h-50.9a5 5 0 0 1-5-5z" stroke="#979ea8" stroke-width="2" fill="#fff7a1"/><use xlink:href="#m" transform="matrix(1,0,0,1,1471.251688548115,160.9572735110945) translate(3.895061728395092 27.513888888888857)"/><path d="M1234.4 320.32a5 5 0 0 1 5-5h178.5a5 5 0 0 1 5 5v53.33a5 5 0 0 1-5 5h-178.5a5 5 0 0 1-5-5z" stroke="#979ea8" stroke-width="2" fill="#ffbbb1"/><use xlink:href="#g" transform="matrix(1,0,0,1,1239.413514239425,320.31554285651094) translate(12.197530864197532 31.638888888888893)"/><path d="M1219.2 475.87a5 5 0 0 1 5-5h462.08a5 5 0 0 1 5 5v60.73a5 5 0 0 1-5 5h-462.1a5 5 0 0 1-5-5z" stroke="#1071e5" stroke-width="2" fill="#edf5ff"/><path d="M1234.4 484.1a5 5 0 0 1 5-5h431.66a5 5 0 0 1 5 5v44.26a5 5 0 0 1-5 5H1239.4a5 5 0 0 1-5-5z" stroke="#979ea8" stroke-width="2" fill="#ff8f8f"/><use xlink:href="#n" transform="matrix(1,0,0,1,1239.413514239422,484.1075370462903) translate(99.06172839506178 31.256944444444436)"/><use xlink:href="#o" transform="matrix(1,0,0,1,1239.413514239422,484.1075370462903) translate(238.91358024691357 31.256944444444436)"/><path d="M1425.4 183.47l38.35-2.2" stroke="#3a414a" stroke-width="3" fill="none"/><path d="M1425.53 184.94l-1.62.1v-2.96l1.46-.1zM1465.25 182.67l-1.45.08-.17-2.94 1.62-.08z" stroke="#3a414a" stroke-width=".05" fill="#3a414a"/><path d="M1424.58 263.64l40-80.44" stroke="#3a414a" stroke-width="3" fill="none"/><path d="M1425.92 264.27l-2 4.03v-5.03zM1465.25 183.57l-2-1 2-4.03z" stroke="#3a414a" stroke-width=".05" fill="#3a414a"/><path d="M1424.28 345.53l40.6-162.22" stroke="#3a414a" stroke-width="3" fill="none"/><path d="M1425.72 345.85l-1.1 4.4-.7-.18v-4.67zM1465.25 178.76v4.68l-1.8-.45 1.1-4.4z" stroke="#3a414a" stroke-width=".05" fill="#3a414a"/><path d="M1497.87 551.1a6 6 0 0 1 6 6v16.85a6 6 0 0 0 6 6h11.27a2.3 2.3 0 0 1 1.54 4l-37.62 33.87a6.67 6.67 0 0 1-8.92 0l-37.62-33.86a2.3 2.3 0 0 1 1.54-4h11.27a6 6 0 0 0 6-6V557.1a6 6 0 0 1 6-6zM884.3 570.7a6 6 0 0 1-6-6v-82.02a6 6 0 0 0-6-6h-8a2.3 2.3 0 0 1-1.54-4.02l31.06-27.95a6.67 6.67 0 0 1 8.92 0l31.05 27.96a2.3 2.3 0 0 1-1.55 4.02h-7.98a6 6 0 0 0-6 6v82.02a6 6 0 0 1-6 6zM1070.28 330.1a6 6 0 0 1 6-6h94.6a6 6 0 0 0 6-6v-9.58a2.3 2.3 0 0 1 4-1.54l30.84 34.25a6.67 6.67 0 0 1 0 8.92l-30.83 34.26a2.3 2.3 0 0 1-4.02-1.53v-9.6a6 6 0 0 0-6-6h-94.6a6 6 0 0 1-6-6zM1309.57 744.56a6 6 0 0 1-6 6h-94.6a6 6 0 0 0-6 6v9.6a2.3 2.3 0 0 1-4 1.53l-30.84-34.26a6.67 6.67 0 0 1 0-8.92l30.83-34.26a2.3 2.3 0 0 1 4 1.54v9.6a6 6 0 0 0 6 6h94.6a6 6 0 0 1 6 6z" stroke="#000" stroke-opacity="0" stroke-width="3" fill="#ff8f8f"/><path d="M756.9 750.8a5 5 0 0 1 5-5h384.83a5 5 0 0 1 5 5v60.74a5 5 0 0 1-5 5H761.9a5 5 0 0 1-5-5z" stroke="#1071e5" stroke-width="2" fill="#edf5ff"/><path d="M769.63 759.04a5 5 0 0 1 5-5H1134a5 5 0 0 1 5 5v44.25a5 5 0 0 1-5 5H774.63a5 5 0 0 1-5-5z" stroke="#979ea8" stroke-width="2" fill="#ff8f8f"/><use xlink:href="#n" transform="matrix(1,0,0,1,774.6261028330425,759.0433558003859) translate(63.06172839506178 31.256944444444436)"/><use xlink:href="#o" transform="matrix(1,0,0,1,774.6261028330425,759.0433558003859) translate(202.91358024691357 31.256944444444436)"/><path d="M1332.3 766.33a5 5 0 0 1 5-5h304.84a5 5 0 0 1 5 5v60.73a5 5 0 0 1-5 5H1337.3a5 5 0 0 1-5-5z" stroke="#1071e5" stroke-width="2" fill="#edf5ff"/><path d="M1347.53 772.7a5 5 0 0 1 5-5h178.5a5 5 0 0 1 5 5v48a5 5 0 0 1-5 5h-178.5a5 5 0 0 1-5-5z" stroke="#979ea8" stroke-width="2" fill="#fc9432"/><use xlink:href="#h" transform="matrix(1,0,0,1,1352.5334506646964,772.6943917010283) translate(-9.925925925925938 29.77777777777778)"/><path d="M1332.3 847.22a5 5 0 0 1 5-5h304.84a5 5 0 0 1 5 5v60.74a5 5 0 0 1-5 5H1337.3a5 5 0 0 1-5-5z" stroke="#1071e5" stroke-width="2" fill="#edf5ff"/><path d="M1352.93 855.46a5 5 0 0 1 5-5h245.32a5 5 0 0 1 5 5v44.25a5 5 0 0 1-5 5h-245.32a5 5 0 0 1-5-5z" stroke="#979ea8" stroke-width="2" fill="#ff8f8f"/><use xlink:href="#i" transform="matrix(1,0,0,1,1357.9294058951573,855.4616966354216) translate(6.061728395061692 31.256944444444446)"/><use xlink:href="#j" transform="matrix(1,0,0,1,1357.9294058951573,855.4616966354216) translate(145.9135802469136 31.256944444444446)"/><path d="M752.3 280.34a5 5 0 0 1 5-5h284.85a5 5 0 0 1 5 5v60.74a5 5 0 0 1-5 5H757.3a5 5 0 0 1-5-5z" stroke="#1071e5" stroke-width="2" fill="#edf5ff"/><path d="M774.05 290.44a5 5 0 0 1 5-5h65.66a5 5 0 0 1 5 5v42.84a5 5 0 0 1-5 5h-65.65a5 5 0 0 1-5-5z" stroke="#979ea8" stroke-width="2" fill="#fff7a1"/><use xlink:href="#l" transform="matrix(1,0,0,1,779.0491986128568,290.4370135714209) translate(-3.851851851851798 28.166666666666657)"/><path d="M862.6 291.58a5 5 0 0 1 5-5h65.65a5 5 0 0 1 5 5v40.55a5 5 0 0 1-5 5H867.6a5 5 0 0 1-5-5z" stroke="#979ea8" stroke-width="2" fill="#a7a6ff"/><use xlink:href="#p" transform="matrix(1,0,0,1,867.5909618050716,291.58155537937455) translate(7.111111111111111 26.458333333333332)"/><path d="M951.13 291.58a5 5 0 0 1 5-5h65.66a5 5 0 0 1 5 5v40.55a5 5 0 0 1-5 5h-65.67a5 5 0 0 1-5-5z" stroke="#979ea8" stroke-width="2" fill="#a7a6ff"/><use xlink:href="#p" transform="matrix(1,0,0,1,956.1327249972865,291.58155537937455) translate(7.111111111111111 26.458333333333332)"/><path d="M1219.2 393.87a5 5 0 0 1 5-5h405.63a5 5 0 0 1 5 5v60.74a5 5 0 0 1-5 5H1224.2a5 5 0 0 1-5-5z" stroke="#1071e5" stroke-width="2" fill="#edf5ff"/><path d="M1234.4 398.13a5 5 0 0 1 5-5h178.5a5 5 0 0 1 5 5v53.34a5 5 0 0 1-5 5h-178.5a5 5 0 0 1-5-5z" stroke="#979ea8" stroke-width="2" fill="#ffbbb1"/><use xlink:href="#k" transform="matrix(1,0,0,1,1239.4135142394261,398.1353912244609) translate(12.197530864197546 31.638888888888886)"/><path d="M1543.63 402.24a5 5 0 0 1 5-5h70.8a5 5 0 0 1 5 5v41.8a5 5 0 0 1-5 5h-70.8a5 5 0 0 1-5-5z" stroke="#979ea8" stroke-width="2" fill="#fff7a1"/><use xlink:href="#l" transform="matrix(1,0,0,1,1548.6284127565546,402.2364985987884) translate(-1.351851851851798 27.666666666666657)"/><path d="M1554.03 775.8a5 5 0 0 1 5-5h70.8a5 5 0 0 1 5 5v41.8a5 5 0 0 1-5 5h-70.8a5 5 0 0 1-5-5z" stroke="#979ea8" stroke-width="2" fill="#fff7a1"/><use xlink:href="#l" transform="matrix(1,0,0,1,1559.0288604207321,775.7954990753562) translate(-1.351851851851798 27.666666666666657)"/><path d="M1026.8 231.23c0 16.56-13.44 30-30 30-16.57 0-30-13.44-30-30 0-16.57 13.43-30 30-30 16.56 0 30 13.43 30 30z" stroke="#000" stroke-width="2" fill="#fff"/><use xlink:href="#q" transform="matrix(1,0,0,1,971.7949610873416,206.22569735326329) translate(4.259259259259256 42.66666666666667)"/><path d="M1494.06 185.96c0 16.57-13.43 30-30 30s-30-13.43-30-30 13.43-30 30-30 30 13.43 30 30z" stroke="#000" stroke-width="2" fill="#fff"/><use xlink:href="#r" transform="matrix(1,0,0,1,1439.0590154669817,160.9572735110945) translate(5.814814814814813 42.66666666666667)"/><path d="M1494.06 263.12c0 16.57-13.43 30-30 30s-30-13.43-30-30c0-16.56 13.43-30 30-30s30 13.44 30 30z" stroke="#000" stroke-width="2" fill="#fff"/><use xlink:href="#r" transform="matrix(1,0,0,1,1439.0590154669817,238.1231611920192) translate(5.814814814814813 42.66666666666667)"/><path d="M1494.06 344.02c0 16.56-13.43 30-30 30s-30-13.44-30-30c0-16.57 13.43-30 30-30s30 13.43 30 30z" stroke="#000" stroke-width="2" fill="#fff"/><use xlink:href="#r" transform="matrix(1,0,0,1,1439.0590154669817,319.0162090106204) translate(5.814814814814813 42.66666666666667)"/><path d="M1624.43 796.7c0 16.56-13.43 30-30 30s-30-13.44-30-30c0-16.57 13.43-30 30-30s30 13.43 30 30z" stroke="#000" stroke-width="2" fill="#fff"/><use xlink:href="#s" transform="matrix(1,0,0,1,1569.42930808491,771.6943917010287) translate(11.666666666666664 42.66666666666667)"/><path d="M1494.06 423.13c0 16.57-13.43 30-30 30s-30-13.43-30-30c0-16.56 13.43-30 30-30s30 13.44 30 30z" stroke="#000" stroke-width="2" fill="#fff"/><use xlink:href="#t" transform="matrix(1,0,0,1,1439.059015466982,398.1353912244609) translate(17.59759259259259 45.79166666666667)"/><path d="M1038.68 691.4c0 16.58-13.43 30-30 30s-30-13.42-30-30c0-16.56 13.43-30 30-30s30 13.44 30 30z" stroke="#000" stroke-width="2" fill="#fff"/><g><use xlink:href="#u" transform="matrix(1,0,0,1,983.6815774575223,666.4127998834107) translate(7.222222222222221 42.66666666666667)"/></g><path d="M1624.43 636.04c0 16.57-13.43 30-30 30s-30-13.43-30-30 13.43-30 30-30 30 13.43 30 30z" stroke="#000" stroke-width="2" fill="#fff"/><g><use xlink:href="#v" transform="matrix(1,0,0,1,1569.42930808491,611.0367885097214) translate(10.185185185185183 42.66666666666667)"/></g><path d="M1624.43 711.44c0 16.57-13.43 30-30 30s-30-13.43-30-30 13.43-30 30-30 30 13.43 30 30z" stroke="#000" stroke-width="2" fill="#fff"/><g><use xlink:href="#v" transform="matrix(1,0,0,1,1569.42930808491,686.4393021937939) translate(10.185185185185183 42.66666666666667)"/></g><path d="M1543.63 160.96a5 5 0 0 1 5-5h70.8a5 5 0 0 1 5 5v41.8a5 5 0 0 1-5 5h-70.8a5 5 0 0 1-5-5z" stroke="#979ea8" stroke-width="2" fill="#fff7a1"/><g><use xlink:href="#l" transform="matrix(1,0,0,1,1548.6284127565546,160.9572735110945) translate(-1.351851851851798 27.666666666666657)"/></g><defs><path d="M143 4C61 4 22-44 18-125c-5-107 100-154 193-111 17 8 29 25 37 43l-32 9c-13-25-37-40-76-40-61 0-88 39-88 99 0 61 29 100 91 101 35 0 62-11 79-27v-45h-74v-28h105v86C228-13 192 4 143 4" id="w"/><path d="M114-163C36-179 61-72 57 0H25l-1-190h30c1 12-1 29 2 39 6-27 23-49 58-41v29" id="x"/><path d="M141-36C126-15 110 5 73 4 37 3 15-17 15-53c-1-64 63-63 125-63 3-35-9-54-41-54-24 1-41 7-42 31l-33-3c5-37 33-52 76-52 45 0 72 20 72 64v82c-1 20 7 32 28 27v20c-31 9-61-2-59-35zM48-53c0 20 12 33 32 33 41-3 63-29 60-74-43 2-92-5-92 41" id="y"/><path d="M115-194c55 1 70 41 70 98S169 2 115 4C84 4 66-9 55-30l1 105H24l-1-265h31l2 30c10-21 28-34 59-34zm-8 174c40 0 45-34 45-75s-6-73-45-74c-42 0-51 32-51 76 0 43 10 73 51 73" id="z"/><path d="M106-169C34-169 62-67 57 0H25v-261h32l-1 103c12-21 28-36 61-36 89 0 53 116 60 194h-32v-121c2-32-8-49-39-48" id="A"/><path d="M160-131c35 5 61 23 61 61C221 17 115-2 30 0v-248c76 3 177-17 177 60 0 33-19 50-47 57zm-97-11c50-1 110 9 110-42 0-47-63-36-110-37v79zm0 115c55-2 124 14 124-45 0-56-70-42-124-44v89" id="B"/><path d="M24 0v-261h32V0H24" id="C"/><path d="M100-194c62-1 85 37 85 99 1 63-27 99-86 99S16-35 15-95c0-66 28-99 85-99zM99-20c44 1 53-31 53-75 0-43-8-75-51-75s-53 32-53 75 10 74 51 75" id="D"/><path d="M141 0L90-78 38 0H4l68-98-65-92h35l48 74 47-74h35l-64 92 68 98h-35" id="E"/><path d="M33 0v-38h34V0H33" id="F"/><path d="M30 0v-248h33v221h125V0H30" id="G"/><path d="M24-231v-30h32v30H24zM24 0v-190h32V0H24" id="H"/><path d="M59-47c-2 24 18 29 38 22v24C64 9 27 4 27-40v-127H5v-23h24l9-43h21v43h35v23H59v120" id="I"/><path d="M100-194c63 0 86 42 84 106H49c0 40 14 67 53 68 26 1 43-12 49-29l28 8c-11 28-37 45-77 45C44 4 14-33 15-96c1-61 26-98 85-98zm52 81c6-60-76-77-97-28-3 7-6 17-6 28h103" id="J"/><g id="a"><use transform="matrix(0.27160493827160487,0,0,0.27160493827160487,0,0)" xlink:href="#w"/><use transform="matrix(0.27160493827160487,0,0,0.27160493827160487,76.04938271604937,0)" xlink:href="#x"/><use transform="matrix(0.27160493827160487,0,0,0.27160493827160487,108.37037037037035,0)" xlink:href="#y"/><use transform="matrix(0.27160493827160487,0,0,0.27160493827160487,162.69135802469134,0)" xlink:href="#z"/><use transform="matrix(0.27160493827160487,0,0,0.27160493827160487,217.0123456790123,0)" xlink:href="#A"/><use transform="matrix(0.27160493827160487,0,0,0.27160493827160487,271.33333333333326,0)" xlink:href="#B"/><use transform="matrix(0.27160493827160487,0,0,0.27160493827160487,336.5185185185184,0)" xlink:href="#C"/><use transform="matrix(0.27160493827160487,0,0,0.27160493827160487,357.9753086419752,0)" xlink:href="#D"/><use transform="matrix(0.27160493827160487,0,0,0.27160493827160487,412.29629629629613,0)" xlink:href="#E"/><use transform="matrix(0.27160493827160487,0,0,0.27160493827160487,461.185185185185,0)" xlink:href="#F"/><use transform="matrix(0.27160493827160487,0,0,0.27160493827160487,488.3456790123455,0)" xlink:href="#G"/><use transform="matrix(0.27160493827160487,0,0,0.27160493827160487,542.6666666666665,0)" xlink:href="#H"/><use transform="matrix(0.27160493827160487,0,0,0.27160493827160487,564.1234567901233,0)" xlink:href="#I"/><use transform="matrix(0.27160493827160487,0,0,0.27160493827160487,591.2839506172838,0)" xlink:href="#J"/></g><path d="M233-177c-1 41-23 64-60 70L243 0h-38l-65-103H63V0H30v-248c88 3 205-21 203 71zM63-129c60-2 137 13 137-47 0-61-80-42-137-45v92" id="K"/><path d="M85-194c31 0 48 13 60 33l-1-100h32l1 261h-30c-2-10 0-23-3-31C134-8 116 4 85 4 32 4 16-35 15-94c0-66 23-100 70-100zm9 24c-40 0-46 34-46 75 0 40 6 74 45 74 42 0 51-32 51-76 0-42-9-74-50-73" id="L"/><path d="M0 4l72-265h28L28 4H0" id="M"/><path d="M266 0h-40l-56-210L115 0H75L2-248h35L96-30l15-64 43-154h32l59 218 59-218h35" id="N"/><g id="c"><use transform="matrix(0.0864197530864197,0,0,0.0864197530864197,0,0)" xlink:href="#K"/><use transform="matrix(0.0864197530864197,0,0,0.0864197530864197,22.382716049382704,0)" xlink:href="#J"/><use transform="matrix(0.0864197530864197,0,0,0.0864197530864197,39.66666666666664,0)" xlink:href="#y"/><use transform="matrix(0.0864197530864197,0,0,0.0864197530864197,56.950617283950585,0)" xlink:href="#L"/><use transform="matrix(0.0864197530864197,0,0,0.0864197530864197,74.23456790123453,0)" xlink:href="#M"/><use transform="matrix(0.0864197530864197,0,0,0.0864197530864197,82.8765432098765,0)" xlink:href="#N"/><use transform="matrix(0.0864197530864197,0,0,0.0864197530864197,111.56790123456784,0)" xlink:href="#x"/><use transform="matrix(0.0864197530864197,0,0,0.0864197530864197,121.85185185185179,0)" xlink:href="#H"/><use transform="matrix(0.0864197530864197,0,0,0.0864197530864197,128.67901234567896,0)" xlink:href="#I"/><use transform="matrix(0.0864197530864197,0,0,0.0864197530864197,137.32098765432093,0)" xlink:href="#J"/></g><path d="M240 0l2-218c-23 76-54 145-80 218h-23L58-218 59 0H30v-248h44l77 211c21-75 51-140 76-211h43V0h-30" id="O"/><path d="M210-169c-67 3-38 105-44 169h-31v-121c0-29-5-50-35-48C34-165 62-65 56 0H25l-1-190h30c1 10-1 24 2 32 10-44 99-50 107 0 11-21 27-35 58-36 85-2 47 119 55 194h-31v-121c0-29-5-49-35-48" id="P"/><path d="M179-190L93 31C79 59 56 82 12 73V49c39 6 53-20 64-50L1-190h34L92-34l54-156h33" id="Q"/><g id="d"><use transform="matrix(0.0864197530864197,0,0,0.0864197530864197,0,0)" xlink:href="#O"/><use transform="matrix(0.0864197530864197,0,0,0.0864197530864197,25.839506172839492,0)" xlink:href="#J"/><use transform="matrix(0.0864197530864197,0,0,0.0864197530864197,43.123456790123434,0)" xlink:href="#P"/><use transform="matrix(0.0864197530864197,0,0,0.0864197530864197,68.96296296296293,0)" xlink:href="#D"/><use transform="matrix(0.0864197530864197,0,0,0.0864197530864197,86.24691358024688,0)" xlink:href="#x"/><use transform="matrix(0.0864197530864197,0,0,0.0864197530864197,96.53086419753083,0)" xlink:href="#Q"/></g><path d="M145-31C134-9 116 4 85 4 32 4 16-35 15-94c0-59 17-99 70-100 32-1 48 14 60 33 0-11-1-24 2-32h30l-1 268h-32zM93-21c41 0 51-33 51-76s-8-73-50-73c-40 0-46 35-46 75s5 74 45 74" id="R"/><path d="M84 4C-5 8 30-112 23-190h32v120c0 31 7 50 39 49 72-2 45-101 50-169h31l1 190h-30c-1-10 1-25-2-33-11 22-28 36-60 37" id="S"/><path d="M135-143c-3-34-86-38-87 0 15 53 115 12 119 90S17 21 10-45l28-5c4 36 97 45 98 0-10-56-113-15-118-90-4-57 82-63 122-42 12 7 21 19 24 35" id="T"/><path d="M117-194c89-4 53 116 60 194h-32v-121c0-31-8-49-39-48C34-167 62-67 57 0H25l-1-190h30c1 10-1 24 2 32 11-22 29-35 61-36" id="U"/><g id="e"><use transform="matrix(0.0864197530864197,0,0,0.0864197530864197,0,0)" xlink:href="#K"/><use transform="matrix(0.0864197530864197,0,0,0.0864197530864197,22.382716049382704,0)" xlink:href="#J"/><use transform="matrix(0.0864197530864197,0,0,0.0864197530864197,39.66666666666664,0)" xlink:href="#R"/><use transform="matrix(0.0864197530864197,0,0,0.0864197530864197,56.950617283950585,0)" xlink:href="#S"/><use transform="matrix(0.0864197530864197,0,0,0.0864197530864197,74.23456790123453,0)" xlink:href="#J"/><use transform="matrix(0.0864197530864197,0,0,0.0864197530864197,91.51851851851848,0)" xlink:href="#T"/><use transform="matrix(0.0864197530864197,0,0,0.0864197530864197,107.07407407407402,0)" xlink:href="#I"/><use transform="matrix(0.0864197530864197,0,0,0.0864197530864197,115.716049382716,0)" xlink:href="#T"/><use transform="matrix(0.0864197530864197,0,0,0.0864197530864197,131.27160493827154,0)" xlink:href="#M"/><use transform="matrix(0.0864197530864197,0,0,0.0864197530864197,139.9135802469135,0)" xlink:href="#K"/><use transform="matrix(0.0864197530864197,0,0,0.0864197530864197,162.29629629629622,0)" xlink:href="#J"/><use transform="matrix(0.0864197530864197,0,0,0.0864197530864197,179.58024691358014,0)" xlink:href="#T"/><use transform="matrix(0.0864197530864197,0,0,0.0864197530864197,195.1358024691357,0)" xlink:href="#z"/><use transform="matrix(0.0864197530864197,0,0,0.0864197530864197,212.4197530864197,0)" xlink:href="#D"/><use transform="matrix(0.0864197530864197,0,0,0.0864197530864197,229.7037037037036,0)" xlink:href="#U"/><use transform="matrix(0.0864197530864197,0,0,0.0864197530864197,246.98765432098756,0)" xlink:href="#T"/><use transform="matrix(0.0864197530864197,0,0,0.0864197530864197,262.54320987654313,0)" xlink:href="#J"/><use transform="matrix(0.0864197530864197,0,0,0.0864197530864197,279.8271604938271,0)" xlink:href="#T"/></g><path d="M205 0l-28-72H64L36 0H1l101-248h38L239 0h-34zm-38-99l-47-123c-12 45-31 82-46 123h93" id="V"/><path d="M115-194c53 0 69 39 70 98 0 66-23 100-70 100C84 3 66-7 56-30L54 0H23l1-261h32v101c10-23 28-34 59-34zm-8 174c40 0 45-34 45-75 0-40-5-75-45-74-42 0-51 32-51 76 0 43 10 73 51 73" id="W"/><g id="f"><use transform="matrix(0.0864197530864197,0,0,0.0864197530864197,0,0)" xlink:href="#V"/><use transform="matrix(0.0864197530864197,0,0,0.0864197530864197,20.74074074074073,0)" xlink:href="#x"/><use transform="matrix(0.0864197530864197,0,0,0.0864197530864197,31.024691358024675,0)" xlink:href="#W"/><use transform="matrix(0.0864197530864197,0,0,0.0864197530864197,48.30864197530862,0)" xlink:href="#H"/><use transform="matrix(0.0864197530864197,0,0,0.0864197530864197,55.135802469135776,0)" xlink:href="#I"/><use transform="matrix(0.0864197530864197,0,0,0.0864197530864197,63.77777777777774,0)" xlink:href="#x"/><use transform="matrix(0.0864197530864197,0,0,0.0864197530864197,74.06172839506169,0)" xlink:href="#y"/><use transform="matrix(0.0864197530864197,0,0,0.0864197530864197,91.34567901234566,0)" xlink:href="#I"/><use transform="matrix(0.0864197530864197,0,0,0.0864197530864197,99.98765432098762,0)" xlink:href="#H"/><use transform="matrix(0.0864197530864197,0,0,0.0864197530864197,106.81481481481475,0)" xlink:href="#D"/><use transform="matrix(0.0864197530864197,0,0,0.0864197530864197,124.0987654320987,0)" xlink:href="#U"/></g><g id="g"><use transform="matrix(0.08641975308641976,0,0,0.08641975308641976,0,0)" xlink:href="#K"/><use transform="matrix(0.08641975308641976,0,0,0.08641975308641976,22.38271604938272,0)" xlink:href="#J"/><use transform="matrix(0.08641975308641976,0,0,0.08641975308641976,39.66666666666667,0)" xlink:href="#y"/><use transform="matrix(0.08641975308641976,0,0,0.08641975308641976,56.95061728395062,0)" xlink:href="#L"/><use transform="matrix(0.08641975308641976,0,0,0.08641975308641976,74.23456790123457,0)" xlink:href="#M"/><use transform="matrix(0.08641975308641976,0,0,0.08641975308641976,82.87654320987654,0)" xlink:href="#N"/><use transform="matrix(0.08641975308641976,0,0,0.08641975308641976,111.5679012345679,0)" xlink:href="#x"/><use transform="matrix(0.08641975308641976,0,0,0.08641975308641976,121.85185185185185,0)" xlink:href="#H"/><use transform="matrix(0.08641975308641976,0,0,0.08641975308641976,128.679012345679,0)" xlink:href="#I"/><use transform="matrix(0.08641975308641976,0,0,0.08641975308641976,137.320987654321,0)" xlink:href="#J"/></g><path d="M212-179c-10-28-35-45-73-45-59 0-87 40-87 99 0 60 29 101 89 101 43 0 62-24 78-52l27 14C228-24 195 4 139 4 59 4 22-46 18-125c-6-104 99-153 187-111 19 9 31 26 39 46" id="X"/><path d="M185-189c-5-48-123-54-124 2 14 75 158 14 163 119 3 78-121 87-175 55-17-10-28-26-33-46l33-7c5 56 141 63 141-1 0-78-155-14-162-118-5-82 145-84 179-34 5 7 8 16 11 25" id="Y"/><path d="M96-169c-40 0-48 33-48 73s9 75 48 75c24 0 41-14 43-38l32 2c-6 37-31 61-74 61-59 0-76-41-82-99-10-93 101-131 147-64 4 7 5 14 7 22l-32 3c-4-21-16-35-41-35" id="Z"/><g id="h"><use transform="matrix(0.08024691358024691,0,0,0.08024691358024691,0,0)" xlink:href="#X"/><use transform="matrix(0.08024691358024691,0,0,0.08024691358024691,20.78395061728395,0)" xlink:href="#Y"/><use transform="matrix(0.08024691358024691,0,0,0.08024691358024691,40.04320987654321,0)" xlink:href="#K"/><use transform="matrix(0.08024691358024691,0,0,0.08024691358024691,60.82716049382716,0)" xlink:href="#M"/><use transform="matrix(0.08024691358024691,0,0,0.08024691358024691,68.85185185185185,0)" xlink:href="#Y"/><use transform="matrix(0.08024691358024691,0,0,0.08024691358024691,88.1111111111111,0)" xlink:href="#J"/><use transform="matrix(0.08024691358024691,0,0,0.08024691358024691,104.1604938271605,0)" xlink:href="#R"/><use transform="matrix(0.08024691358024691,0,0,0.08024691358024691,120.20987654320987,0)" xlink:href="#S"/><use transform="matrix(0.08024691358024691,0,0,0.08024691358024691,136.25925925925927,0)" xlink:href="#J"/><use transform="matrix(0.08024691358024691,0,0,0.08024691358024691,152.30864197530866,0)" xlink:href="#U"/><use transform="matrix(0.08024691358024691,0,0,0.08024691358024691,168.35802469135805,0)" xlink:href="#Z"/><use transform="matrix(0.08024691358024691,0,0,0.08024691358024691,182.80246913580248,0)" xlink:href="#J"/></g><path d="M63-220v92h138v28H63V0H30v-248h175v28H63" id="aa"/><path d="M206 0h-36l-40-164L89 0H53L-1-190h32L70-26l43-164h34l41 164 42-164h31" id="ab"/><g id="i"><use transform="matrix(0.09876543209876544,0,0,0.09876543209876544,0,0)" xlink:href="#aa"/><use transform="matrix(0.09876543209876544,0,0,0.09876543209876544,21.62962962962963,0)" xlink:href="#D"/><use transform="matrix(0.09876543209876544,0,0,0.09876543209876544,41.38271604938272,0)" xlink:href="#x"/><use transform="matrix(0.09876543209876544,0,0,0.09876543209876544,53.135802469135804,0)" xlink:href="#ab"/><use transform="matrix(0.09876543209876544,0,0,0.09876543209876544,78.71604938271606,0)" xlink:href="#y"/><use transform="matrix(0.09876543209876544,0,0,0.09876543209876544,98.46913580246915,0)" xlink:href="#x"/><use transform="matrix(0.09876543209876544,0,0,0.09876543209876544,110.22222222222223,0)" xlink:href="#L"/></g><path d="M101-234c-31-9-42 10-38 44h38v23H63V0H32v-167H5v-23h27c-7-52 17-82 69-68v24" id="ac"/><g id="j"><use transform="matrix(0.09876543209876544,0,0,0.09876543209876544,0,0)" xlink:href="#B"/><use transform="matrix(0.09876543209876544,0,0,0.09876543209876544,23.703703703703706,0)" xlink:href="#S"/><use transform="matrix(0.09876543209876544,0,0,0.09876543209876544,43.4567901234568,0)" xlink:href="#ac"/><use transform="matrix(0.09876543209876544,0,0,0.09876543209876544,52.64197530864198,0)" xlink:href="#ac"/><use transform="matrix(0.09876543209876544,0,0,0.09876543209876544,62.518518518518526,0)" xlink:href="#J"/><use transform="matrix(0.09876543209876544,0,0,0.09876543209876544,82.27160493827162,0)" xlink:href="#x"/></g><g id="k"><use transform="matrix(0.08641975308641973,0,0,0.08641975308641973,0,0)" xlink:href="#K"/><use transform="matrix(0.08641975308641973,0,0,0.08641975308641973,22.38271604938271,0)" xlink:href="#J"/><use transform="matrix(0.08641975308641973,0,0,0.08641975308641973,39.66666666666666,0)" xlink:href="#y"/><use transform="matrix(0.08641975308641973,0,0,0.08641975308641973,56.950617283950606,0)" xlink:href="#L"/><use transform="matrix(0.08641975308641973,0,0,0.08641975308641973,74.23456790123456,0)" xlink:href="#M"/><use transform="matrix(0.08641975308641973,0,0,0.08641975308641973,82.87654320987653,0)" xlink:href="#N"/><use transform="matrix(0.08641975308641973,0,0,0.08641975308641973,111.56790123456788,0)" xlink:href="#x"/><use transform="matrix(0.08641975308641973,0,0,0.08641975308641973,121.85185185185182,0)" xlink:href="#H"/><use transform="matrix(0.08641975308641973,0,0,0.08641975308641973,128.67901234567898,0)" xlink:href="#I"/><use transform="matrix(0.08641975308641973,0,0,0.08641975308641973,137.32098765432096,0)" xlink:href="#J"/></g><g id="l"><use transform="matrix(0.09259259259259246,0,0,0.09259259259259246,0,0)" xlink:href="#aa"/><use transform="matrix(0.09259259259259246,0,0,0.09259259259259246,20.27777777777775,0)" xlink:href="#H"/><use transform="matrix(0.09259259259259246,0,0,0.09259259259259246,27.592592592592553,0)" xlink:href="#C"/><use transform="matrix(0.09259259259259246,0,0,0.09259259259259246,34.907407407407355,0)" xlink:href="#I"/><use transform="matrix(0.09259259259259246,0,0,0.09259259259259246,44.1666666666666,0)" xlink:href="#J"/><use transform="matrix(0.09259259259259246,0,0,0.09259259259259246,62.685185185185084,0)" xlink:href="#x"/></g><path d="M126-127c33 6 58 20 58 59 0 88-139 92-164 29-3-8-5-16-6-25l32-3c6 27 21 44 54 44 32 0 52-15 52-46 0-38-36-46-79-43v-28c39 1 72-4 72-42 0-27-17-43-46-43-28 0-47 15-49 41l-32-3c6-42 35-63 81-64 48-1 79 21 79 65 0 36-21 52-52 59" id="ad"/><path d="M33-154v-36h34v36H33zM33 0v-36h34V0H33" id="ae"/><path d="M27 0v-27h64v-190l-56 39v-29l58-41h29v221h61V0H27" id="af"/><g id="m"><use transform="matrix(0.08641975308641964,0,0,0.08641975308641964,0,0)" xlink:href="#ad"/><use transform="matrix(0.08641975308641964,0,0,0.08641975308641964,17.283950617283928,0)" xlink:href="#ae"/><use transform="matrix(0.08641975308641964,0,0,0.08641975308641964,25.925925925925892,0)" xlink:href="#af"/></g><g id="n"><use transform="matrix(0.0987654320987654,0,0,0.0987654320987654,0,0)" xlink:href="#aa"/><use transform="matrix(0.0987654320987654,0,0,0.0987654320987654,21.629629629629623,0)" xlink:href="#D"/><use transform="matrix(0.0987654320987654,0,0,0.0987654320987654,41.3827160493827,0)" xlink:href="#x"/><use transform="matrix(0.0987654320987654,0,0,0.0987654320987654,53.13580246913578,0)" xlink:href="#ab"/><use transform="matrix(0.0987654320987654,0,0,0.0987654320987654,78.71604938271602,0)" xlink:href="#y"/><use transform="matrix(0.0987654320987654,0,0,0.0987654320987654,98.4691358024691,0)" xlink:href="#x"/><use transform="matrix(0.0987654320987654,0,0,0.0987654320987654,110.22222222222216,0)" xlink:href="#L"/></g><g id="o"><use transform="matrix(0.0987654320987654,0,0,0.0987654320987654,0,0)" xlink:href="#B"/><use transform="matrix(0.0987654320987654,0,0,0.0987654320987654,23.703703703703695,0)" xlink:href="#S"/><use transform="matrix(0.0987654320987654,0,0,0.0987654320987654,43.45679012345677,0)" xlink:href="#ac"/><use transform="matrix(0.0987654320987654,0,0,0.0987654320987654,52.641975308641946,0)" xlink:href="#ac"/><use transform="matrix(0.0987654320987654,0,0,0.0987654320987654,62.51851851851848,0)" xlink:href="#J"/><use transform="matrix(0.0987654320987654,0,0,0.0987654320987654,82.27160493827157,0)" xlink:href="#x"/></g><path d="M232-93c-1 65-40 97-104 97C67 4 28-28 28-90v-158h33c8 89-33 224 67 224 102 0 64-133 71-224h33v155" id="ag"/><g id="p"><use transform="matrix(0.07407407407407407,0,0,0.07407407407407407,0,0)" xlink:href="#V"/><use transform="matrix(0.07407407407407407,0,0,0.07407407407407407,17.77777777777778,0)" xlink:href="#G"/><use transform="matrix(0.07407407407407407,0,0,0.07407407407407407,32.592592592592595,0)" xlink:href="#ag"/></g><path fill="#ba23f6" d="M143 4C61 4 22-44 18-125c-5-107 100-154 193-111 17 8 29 25 37 43l-32 9c-13-25-37-40-76-40-61 0-88 39-88 99 0 61 29 100 91 101 35 0 62-11 79-27v-45h-74v-28h105v86C228-13 192 4 143 4" id="ah"/><use transform="matrix(0.14814814814814817,0,0,0.14814814814814817,0,0)" xlink:href="#ah" id="q"/><path fill="#c92d39" d="M197 0v-115H63V0H30v-248h33v105h134v-105h34V0h-34" id="ai"/><use transform="matrix(0.14814814814814817,0,0,0.14814814814814817,0,0)" xlink:href="#ai" id="r"/><path fill="#19967d" d="M153-248C145-148 188 4 80 4 36 3 13-21 6-62l32-5c4 25 16 42 43 43 27 0 39-20 39-49v-147H72v-28h81" id="aj"/><use transform="matrix(0.14814814814814817,0,0,0.14814814814814817,0,0)" xlink:href="#aj" id="s"/><path fill="#fcc438" d="M33 0v-248h34V0H33" id="ak"/><use transform="matrix(0.14814814814814817,0,0,0.14814814814814817,0,0)" xlink:href="#ak" id="t"/><path fill="#0c7cba" d="M194 0L95-120 63-95V0H30v-248h33v124l119-124h40L117-140 236 0h-42" id="al"/><use transform="matrix(0.14814814814814817,0,0,0.14814814814814817,0,0)" xlink:href="#al" id="u"/><path fill="#de5f85" d="M30 0v-248h33v221h125V0H30" id="am"/><use transform="matrix(0.14814814814814817,0,0,0.14814814814814817,0,0)" xlink:href="#am" id="v"/></defs></g></svg>