<svg xmlns="http://www.w3.org/2000/svg" xmlns:xlink="http://www.w3.org/1999/xlink" xmlns:lucid="lucid" width="2478" height="1636"><g transform="translate(337 -26)" lucid:page-tab-id="2QfOLreYwXxJ"><path d="M679.18 225a5 5 0 0 1 5-5h486.92a5 5 0 0 1 5 5v110a5 5 0 0 1-5 5H684.18a5 5 0 0 1-5-5z" stroke="#000" stroke-opacity="0" stroke-width="2" fill="#fff" fill-opacity="0"/><use xlink:href="#a" transform="matrix(1,0,0,1,684.1839988740178,225) translate(0 76.32638888888874)"/><use xlink:href="#b" transform="matrix(1,0,0,1,684.1839988740178,225) translate(202.21604938271565 76.32638888888874)"/><path d="M549.14 420h879.34v79.33H549.14z" fill="#ffdda6"/><path d="M549.14 499.33H938.4v79.34H549.14zM938.4 499.33h490.08v79.34H938.4z" fill="#e3fae3"/><path d="M549.14 578.67H938.4V658H549.14zM938.4 578.67h490.08V658H938.4z" fill="#ffd9d9"/><path d="M549.14 658H938.4v79.33H549.14zM938.4 658h490.08v79.33H938.4z" fill="#e3fae3"/><path d="M549.14 737.33H938.4v79.34H549.14zM938.4 737.33h490.08v79.34H938.4z" fill="#ffd9d9"/><path d="M549.14 420v79.33M1428.48 420v79.33M549.14 499.33v79.34M938.4 499.33v79.34M1428.48 499.33v79.34M549.14 578.67V658M938.4 578.67V658M1428.48 578.67V658M549.14 658v79.33M938.4 658v79.33M1428.48 658v79.33M549.14 737.33v79.34M938.4 737.33v79.34M1428.48 737.33v79.34M549.14 420h879.34M549.14 499.33H938.4M938.4 499.33h490.08M549.14 578.67H938.4M938.4 578.67h490.08M549.14 658H938.4M938.4 658h490.08M549.14 737.33H938.4M549.14 816.67H938.4M938.4 737.33h490.08M938.4 816.67h490.08" stroke="#5e5e5e" fill="none"/><use xlink:href="#c" transform="matrix(1,0,0,1,554.1407846771012,425) translate(256.814814814815 60.44444444444437)"/><use xlink:href="#d" transform="matrix(1,0,0,1,554.1407846771012,425) translate(424.5061728395061 60.44444444444437)"/><use xlink:href="#e" transform="matrix(1,0,0,1,554.1407846771012,504.33333333333314) translate(0 42.55555555555556)"/><use xlink:href="#f" transform="matrix(1,0,0,1,554.1407846771012,504.33333333333314) translate(188.46913580246917 42.55555555555556)"/><use xlink:href="#g" transform="matrix(1,0,0,1,554.1407846771012,504.33333333333314) translate(219.95061728395063 42.55555555555556)"/><use xlink:href="#h" transform="matrix(1,0,0,1,943.4017151626988,504.33333333333314) translate(153.81922743055566 50.375434027777764)"/><use xlink:href="#i" transform="matrix(1,0,0,1,554.1407846771012,583.6666666666663) translate(0 43.44444444444444)"/><use xlink:href="#j" transform="matrix(1,0,0,1,554.1407846771012,583.6666666666663) translate(210.75925925925915 43.44444444444444)"/><use xlink:href="#k" transform="matrix(1,0,0,1,554.1407846771012,583.6666666666663) translate(269.4012345679011 43.44444444444444)"/><use xlink:href="#l" transform="matrix(1,0,0,1,943.4017151626988,583.6666666666663) translate(220.49674479166669 55.501302083333265)"/><use xlink:href="#m" transform="matrix(1,0,0,1,554.1407846771012,662.9999999999995) translate(0 43.44444444444444)"/><use xlink:href="#n" transform="matrix(1,0,0,1,554.1407846771012,662.9999999999995) translate(201.25925925925912 43.44444444444444)"/><use xlink:href="#o" transform="matrix(1,0,0,1,554.1407846771012,662.9999999999995) translate(259.90123456790104 43.44444444444444)"/><use xlink:href="#p" transform="matrix(1,0,0,1,943.4017151626988,662.9999999999995) translate(0.4609375000002558 55.501302083333265)"/><use xlink:href="#q" transform="matrix(1,0,0,1,554.1407846771012,742.3333333333327) translate(0 43.44444444444444)"/><use xlink:href="#r" transform="matrix(1,0,0,1,554.1407846771012,742.3333333333327) translate(140.3888888888888 43.44444444444444)"/><use xlink:href="#o" transform="matrix(1,0,0,1,554.1407846771012,742.3333333333327) translate(175.57407407407396 43.44444444444444)"/><use xlink:href="#s" transform="matrix(1,0,0,1,943.4017151626988,742.3333333333327) translate(180.49023437500006 55.501302083333265)"/><path d="M840.32 1404.63a5 5 0 0 1 5-5h310a5 5 0 0 1 5 5v70a5 5 0 0 1-5 5h-310a5 5 0 0 1-5-5z" stroke="#000" stroke-opacity="0" stroke-width="2" fill="#fff" fill-opacity="0"/><use xlink:href="#t" transform="matrix(1,0,0,1,845.3146835790794,1404.6288141302866) translate(87.15123456790161 44.87152777777759)"/><path d="M740 1404.63a5 5 0 0 1 5-5h190a5 5 0 0 1 5 5v70a5 5 0 0 1-5 5H745a5 5 0 0 1-5-5z" stroke="#000" stroke-opacity="0" stroke-width="2" fill="#fff" fill-opacity="0"/><use xlink:href="#u" transform="matrix(1,0,0,1,745,1404.6288141302866) translate(18.941358024691795 44.87152777777759)"/><path d="M220 999.3a5 5 0 0 1 5-5h1390a5 5 0 0 1 5 5v235.7a5 5 0 0 1-5 5H225a5 5 0 0 1-5-5z" stroke="#6db1ff" stroke-width="9" fill-opacity="0"/><path d="M640 880h679.68v100H640z" stroke="#000" stroke-opacity="0" stroke-width="2" fill="#fff" fill-opacity="0"/><use xlink:href="#v" transform="matrix(1,0,0,1,645,885) translate(0 63.938802083333314)"/><path d="M366.97 1520H1488.3l.02 95.62H366.97z" fill="#fff" fill-opacity="0"/><path d="M377.55 1534.95h17.47c10.65 0 15.8 3.77 15.8 10.73 0 3.9-1.96 7.9-4.93 10.36-3.35 2.76-8.42 4.13-14.87 4.13-3.04 0-4.64-.14-6.52-.58l-3.83 13.98c-.5 1.96-1.02 3.48-1.02 4.57 0 1.66 1.1 2.53 5 2.97v1.16h-17.68v-1.16c4.13-.58 4.78-1.23 6.08-5.94l8.4-30c.95-3.42 1.25-4.94 1.25-6.03 0-1.95-1.02-2.53-5.15-3.04v-1.15m12.6 4.42l-5 17.76c2.1.36 2.47.36 3.78.36 4.5 0 7.03-.44 9.27-1.75 3.2-1.8 5.15-5 5.15-9.7 0-6.46-3.48-8.92-9.42-8.92-2.03 0-3.33.57-3.77 2.24M420.82 1534.95h18.26c9.57 0 14.8 4.06 14.8 10.22 0 3.48-1.82 7.03-4.8 9.28-2.24 1.74-4.63 2.6-9.5 3.7l6.46 17.03c1.6 4.27 3.05 5.94 6.3 5.94v1.16H441.7l-8.92-23.48-4.8-.37-3.97 14.72c-.8 2.82-.93 3.84-.93 4.56 0 2.2.72 2.98 4.85 3.42v1.16h-17.6v-1.16c3.98-.5 5-1.88 6.15-6.16l8.63-31.24c.5-1.96.86-3.33.86-4.57 0-.8-.5-1.66-1-2.03-.8-.5-1.1-.57-4.14-1v-1.17m12.6 4.35l-4.56 16.45c1.82.3 2.4.37 3.7.37 8.63 0 13.7-4.14 13.7-10.88 0-5-3.05-8.12-8.7-8.12-2.25 0-3.77.8-4.13 2.18M459.38 1534.92l3.43-11.32c.37-1.23.78-2.36 2.26-2.36.98 0 1.44.82 1.44 1.7 0 .7-.4 1.38-.72 2l-5.43 10.44M499.68 1593.95l-.87 1.16c-11.44-6.5-17.68-18.76-17.68-31.08 0-13.4 6.3-23.85 17.9-30.74l.66 1.16c-10.08 8.63-12.32 15.37-12.32 29.36 0 13.48 2.17 21.67 12.32 30.15M516.85 1577.2l2.25-2.3c5.22-5.38 9.93-13.35 9.93-16.76 0-.72-.36-1.23-1.3-2.1-1.3-1.16-1.82-2.1-1.82-3.26 0-1.52 1.25-2.46 2.77-2.46 2.4 0 4.06 2.32 4.06 4.27 0 3.1-2.03 7.3-4.57 11.23-3.26 5.07-7.32 9.7-8.62 11.1-4 4.26-5.95 6.65-7.18 6.65-.44 0-.65-.72-.65-1.95v-1.74c0-5-.8-14.65-1.73-20.16-.94-5.5-1.74-6.74-4.42-6.74-.73 0-1.45 0-2.25.07v-.94c3.26-.5 5.8-1.02 8.12-1.52.58-.2 1.08-.28 1.45-.28.65 0 .65.43 2.17 8.26.94 4.86 1.38 8.84 1.8 18.63M536.13 1534.44l.87-1.16c11.1 6.67 17.7 18.78 17.7 31.1 0 13.4-6.4 23.7-17.9 30.73l-.67-1.15c10.3-8.48 12.33-15.3 12.33-29.36 0-13.56-1.82-21.9-12.33-30.16M592.23 1553.07c0 2.17-1.8 4-3.98 4-2.18 0-4.06-1.83-4.06-4 0-2.32 1.73-4.06 4.05-4.06 2.17 0 3.98 1.9 3.98 4.07m0 26.02c0 2.17-1.8 3.98-3.98 3.98-2.18 0-4.06-1.8-4.06-4 0-2.3 1.73-4.05 4.05-4.05 2.17 0 3.98 1.9 3.98 4.06M644.63 1559.1h-42.7v-4.8h42.7v4.8m0 14.48h-42.7v-4.78h42.7v4.78M730.38 1579.53l-3.84 21.67h-54l28.4-36.97-26.6-37.1h54.15v18.18l-2.18.02c-1.52-9.8-4.28-13.4-13.92-13.4h-23.2l21.03 28.33-24.36 31.45h30c8.13 0 10.74-4.93 12.33-12.17h2.18M758.2 1597.78l.72.46c-3.33 5.08-4.66 6.1-7.07 6.1-1.53 0-2.46-.87-2.46-2.46 0-1.13.66-4.56 2.3-10.1-6.05 9.95-8.6 12.66-12.25 12.66-1.8 0-2.72-.82-2.72-2.7 0-1 .47-2.83 1.4-6.57l1.78-7.13c.42-1.7.73-3.02.73-3.43 0-.35-.26-.76-.56-.9-.47-.27-.62-.32-2.57-.32v-.72c2.92-.36 4.77-.72 7.7-1.38l.2.15-4.57 18.2c-.05.15-.15.6-.15.8 0 .78.26 1.3 1.03 1.3 1.75 0 4.1-2.72 7.28-7.54 2.4-3.65 3.13-5.6 5.64-12.46h3.8l-4.06 15.32c-.25.98-.97 3.38-.97 4 0 .56.2.87.55.87.82 0 1.64-.72 4.26-4.15M792.24 1605.26h-14.92c-8.2 0-14.04-6.7-14.04-14.3 0-7.58 5.74-14.3 13.9-14.3h15.06v3.4h-14.87c-5.27 0-9.68 4.34-10.55 9.2h25.42v3.4h-25.47c.87 4.86 5.27 9.22 10.55 9.22h14.92v3.38M808.9 1573.18c0 1.43-1.18 2.6-2.52 2.6-1.48 0-2.46-1.06-2.46-2.7 0-1.6 1.03-2.72 2.4-2.72 1.4 0 2.57 1.33 2.57 2.82m-2.16 24.86l.67.56c-2.8 4.3-4.45 5.84-7 5.84-1.7 0-2.52-.92-2.52-2.82 0-1.02.35-2.8 1.12-5.68l2.46-9.08c.26-.92.46-1.84.46-2.25 0-1.02-.5-1.17-3.28-1.22v-.82c2-.16 3.03-.3 8.2-1.28l.2.15-4.8 17.58c-.26.88-.52 1.55-.52 2.27 0 .5.3.76.72.76.87 0 2.1-1.07 4.3-4M833.2 1597.88l.7.67c-3.48 4.77-4.76 5.8-7.17 5.8-1.28 0-2.4-.83-2.4-2.78 0-.5.1-1.18.8-3.84l2.27-8.3c.4-1.6.7-3.44.7-4.05 0-.93-.45-1.5-1.22-1.5-2.05 0-4.35 2.52-7.58 7.3-2.3 3.42-2.72 4.6-5.13 12.7h-3.84l4.92-17.94c.05-.26.1-.56.1-.87 0-1.03-.72-1.33-3.33-1.38v-.83c4.15-.82 5.6-1.03 8.3-1.6l.2.1-3.42 11.18c5.12-8.2 8.55-11.27 11.83-11.27 2.2 0 3.34 1.28 3.34 3.12 0 .93-.2 2-.52 3.08l-2.87 10.4c-.5 1.85-.72 2.72-.72 3.13 0 .47.2.93.83.93.7 0 1.63-.82 3.1-2.72.37-.4.73-.86 1.1-1.32M872.5 1570.4v.83c-3.23.72-3.34.82-5.23 7.43l-7.48 26h-.94l-11.78-28.2-5.85 21.63c-.3 1.06-.46 2.1-.46 2.76 0 1.43.93 2 3.6 2.2v.82H834.2v-.82c2.88-.4 3.6-1.23 5.44-7.8l6-21.26c-.77-1.8-2-2.77-4.4-2.77v-.82h8.2l10.6 25.6 5.44-19.9c.3-1.08.4-1.64.4-2.25 0-1.85-.6-2.36-3.53-2.62v-.82h10.15M890.9 1598.3l.6.6c-2.9 3.6-6.2 5.54-10.45 5.54-4.15 0-6.9-2.77-6.9-7.02 0-7.94 7.62-16.14 15.3-16.14 2.73 0 4.2 1.33 4.2 3.48 0 4.4-5.37 8.4-14.54 9.6-.5 1-.5 2.34-.5 3.1 0 2.83 1.9 4.68 4.76 4.68 2.26 0 3.85-.82 7.53-3.85m-10.56-7.34l-.87 2.26c4.4-1.08 6.35-2 8.25-3.8 1.6-1.53 2.56-3.38 2.56-4.97 0-1.23-.36-2-1.8-2-2.9 0-6.4 3.95-8.14 8.5M908.83 1573.18c0 1.43-1.18 2.6-2.5 2.6-1.5 0-2.47-1.06-2.47-2.7 0-1.6 1.03-2.72 2.4-2.72 1.4 0 2.57 1.33 2.57 2.82m-2.15 24.86l.67.56c-2.82 4.3-4.46 5.84-7.02 5.84-1.7 0-2.52-.92-2.52-2.82 0-1.02.37-2.8 1.14-5.68l2.46-9.08c.26-.92.46-1.84.46-2.25 0-1.02-.5-1.17-3.28-1.22v-.82c2-.16 3.03-.3 8.2-1.28l.2.15-4.8 17.58c-.27.88-.52 1.55-.52 2.27 0 .5.3.76.72.76.87 0 2.1-1.07 4.3-4M933.74 1585.12h-2.5c.45.92.45 1.74.45 2.6 0 4.32-4.72 8.42-9.5 8.42-.55 0-1.12-.05-1.58-.15-.15-.07-.26-.07-.36-.07-.87 0-1.84 1.03-1.84 2.1 0 .93 1.38 1.6 3.64 2.16 4.92 1.17 7.27 3.42 7.27 6.5 0 4.46-3.94 7.74-10.76 7.74-5.23 0-8.56-1.85-8.56-5.54 0-2.6 1-4 6-7.02-.9-.56-1.38-1.33-1.38-2 0-1.5 1.18-3.02 3.95-4.3-2.87-1.03-4.05-2.87-4.05-5.54 0-5.23 5.13-8.76 10.3-8.76 1.95 0 3.64.46 5.03 1.43.4.32.66.42.82.42h3.07v2m-6.1.92c0-2.7-.97-3.64-2.87-3.64-3.18 0-6.25 3.75-6.25 8.82 0 2.4 1.13 3.84 3.07 3.84 1.74 0 3.12-.92 4.35-3.02 1.03-1.74 1.7-3.84 1.7-6m-1.4 22.45c0-2.37-1.84-3.8-7.32-5.5-.67-.2-1.18-.35-1.74-.56-.47 0-2.63 1.75-3.34 2.67-.77.98-1.03 1.8-1.03 2.98 0 3.6 2.4 5.23 6.5 5.23 4.16 0 6.93-2.2 6.93-4.8M959.1 1597.83l.68.67c-3.13 4.46-4.87 5.84-7.5 5.84-1.37 0-2.24-.82-2.24-2.15 0-.63.36-2.22 1.02-4.73l2.82-10.6c.2-.83.36-1.5.36-1.7 0-.77-.25-1.28-1.43-1.28-1.84 0-5.12 3.12-7.78 7.17-2.05 3.12-2.87 4.92-4.92 12.8h-3.85l7.5-28.38c.4-1.6.65-2.47.65-3.2 0-.86-1.18-1.27-2.1-1.27h-1.38v-.77c3.07-.36 5.07-.72 8.04-1.4l.36.32-6.2 22.9c4.6-7.47 8.6-10.8 11.8-10.8 2.35 0 3.32 1.53 3.32 3.43 0 1.3-.92 5.08-2.46 9.9-.87 2.67-1.7 5.85-1.7 6.4 0 .52.37.93.83.93.83 0 1.44-.6 4.2-4.1M969.26 1589.02h.05c3.5-5.8 6.3-7.74 9.9-7.74 3.43 0 5.94 2.2 5.94 6.15 0 8.1-8.45 17-16.4 17-2.92 0-6.66-1.17-6.66-2.7v-.3l7.28-26.82c.3-1.22.46-1.93.46-2.4 0-1.12-.25-1.17-3.28-1.28v-.87c3.44-.4 5.28-.7 7.84-1.18l.26.26-1.08 4.2m7.23 14.87c0-3.13-1.34-4.4-3.6-4.4-2.46 0-4.82 2.14-7.02 5.88-2.25 3.8-3.7 8.77-3.7 11.84 0 1.18.78 1.74 2.37 1.74 2.2 0 4.4-1.07 6.3-3.02 3.08-3.18 5.64-8.25 5.64-12.04M1010.57 1588.45c0 3.9-2.06 8.4-5.44 11.74-2.97 2.96-6.25 4.24-9.63 4.24-4.82 0-7.54-2.66-7.54-7.12 0-5.74 3.85-11.64 9.23-14.5 2-1.08 4.04-1.54 6.14-1.54 4.15 0 7.23 2.66 7.23 7.17m-4.3-1.28c0-3.13-1.44-4.82-3.65-4.82-2.25 0-4.5 1.6-6.56 4.67-2.36 3.58-3.8 7.63-3.8 11.68 0 3.08 1.6 4.67 4 4.67 2.26 0 4.2-1.5 6.2-4.26 2.37-3.22 3.8-8.03 3.8-11.93M1021.23 1592.45l.8-1.8c1-2.15 2.73-4.86 4.83-7.07 1.34-1.38 2.87-2.3 4.05-2.3 1.45 0 2.42 1.07 2.42 2.6 0 1.55-.87 2.78-2.4 2.78-.93 0-1.34-.57-1.8-1.33-.3-.52-.46-.72-.82-.72-.92 0-2.36 1.7-4.2 4.83-2.2 3.8-3.13 5.84-5.7 14.45h-3.9l4.16-14.97c.72-2.65.82-3.1.82-4.2 0-1.07-.92-1.32-1.95-1.32-.4 0-.8.05-1.58.15v-.87l7.94-1.38.14.1M1048.95 1612.13l-.6.82c-8.1-4.6-12.52-13.27-12.52-22 0-9.47 4.46-16.85 12.66-21.72l.45.82c-7.12 6.1-8.7 10.87-8.7 20.76 0 9.54 1.53 15.33 8.7 21.33M1061.05 1600.3l1.6-1.65c3.68-3.8 7-9.43 7-11.84 0-.5-.25-.86-.92-1.47-.92-.82-1.28-1.5-1.28-2.3 0-1.1.88-1.75 1.95-1.75 1.7 0 2.87 1.64 2.87 3.02 0 2.2-1.43 5.18-3.23 7.94-2.3 3.6-5.17 6.87-6.1 7.85-2.82 3-4.2 4.7-5.07 4.7-.3 0-.46-.5-.46-1.38v-1.23c0-3.55-.56-10.37-1.22-14.26-.67-3.9-1.23-4.77-3.13-4.77-.5 0-1.02 0-1.6.05v-.66c2.32-.36 4.1-.72 5.75-1.08.4-.15.77-.2 1.03-.2.46 0 .46.3 1.54 5.84.66 3.43.97 6.25 1.28 13.17M1074.73 1570.05l.62-.82c7.84 4.72 12.5 13.28 12.5 22 0 9.47-4.5 16.75-12.66 21.72l-.47-.82c7.28-6 8.7-10.8 8.7-20.76 0-9.58-1.27-15.47-8.7-21.32M1147.5 1532.78l.43.43-2.83 11.03-4.34 15.87c-2.25 8.26-4.72 16.67-4.72 17.83 0 .87.37 1.45 1.3 1.45 1.24 0 2.04-.65 5.95-5.15l.86.73c-3.55 5.3-7.03 8.26-10.65 8.26-1.88 0-2.96-1.3-2.96-3.26 0-1.67.14-2.83.94-6.45-4.28 7.18-7.98 9.58-12.9 9.58-4.7 0-7.76-2.97-7.76-8.48 0-11.74 11.74-24.28 21.16-24.28 3.05 0 4.28 1.37 4.72 4.2h.07l3.26-11.8c1.1-3.86 1-4.14 1-5.16 0-1.52-.64-1.74-4.62-1.88v-1.24c4.64-.43 7.25-.87 11.1-1.66m-11.96 23.34c0-2.6-1.74-4.14-3.4-4.14-2.04 0-4.58 1.23-6.6 3.34-4.8 5.07-8.4 12.97-8.4 19 0 3.32 1.65 5.28 4.2 5.28 6.66 0 14.2-12.47 14.2-23.48M1167.06 1538.87c0 2.02-1.66 3.7-3.55 3.7-2.1 0-3.47-1.53-3.47-3.85 0-2.25 1.45-3.84 3.4-3.84 1.97 0 3.63 1.88 3.63 3.98m-3.04 35.16l.94.8c-3.98 6.08-6.3 8.26-9.93 8.26-2.4 0-3.55-1.3-3.55-4 0-1.44.5-3.98 1.6-8.03l3.48-12.83c.36-1.3.65-2.6.65-3.2 0-1.44-.72-1.66-4.63-1.73v-1.17c2.83-.22 4.28-.44 11.6-1.8l.28.2-6.8 24.86c-.37 1.23-.73 2.17-.73 3.18 0 .73.43 1.1 1 1.1 1.24 0 2.98-1.53 6.1-5.66M1183.15 1577.2l2.25-2.3c5.22-5.38 9.93-13.35 9.93-16.76 0-.72-.36-1.23-1.3-2.1-1.3-1.16-1.82-2.1-1.82-3.26 0-1.52 1.25-2.46 2.77-2.46 2.4 0 4.06 2.32 4.06 4.27 0 3.1-2.03 7.3-4.57 11.23-3.26 5.07-7.32 9.7-8.62 11.1-4 4.26-5.95 6.65-7.18 6.65-.43 0-.65-.72-.65-1.95v-1.74c0-5-.8-14.65-1.73-20.16-.94-5.5-1.74-6.74-4.42-6.74-.73 0-1.45 0-2.25.07v-.94c3.26-.5 5.8-1.02 8.12-1.52.58-.2 1.1-.28 1.45-.28.65 0 .65.43 2.17 8.26.95 4.86 1.38 8.84 1.82 18.63M1250.27 1534.15l-2.68 14.5-1.32-.22c-.87-7.75-4.42-11.8-10.8-11.8-5.36 0-10.43 2.74-14.42 7.02-5.22 5.58-7.83 13.84-7.83 21.8 0 10.16 4.64 14.87 12.7 14.87 5.93 0 10.28-2.1 16.6-8.62l1.3 1.1c-6.53 7.67-12.33 10.78-19.8 10.78-11.1 0-18.9-6.95-18.9-18.9 0-10.23 5.57-19.73 13.54-25.38 4.64-3.34 10.15-5.3 15.87-5.3 2.4 0 5.44.15 8.48 1.24 1.45.5 2.32.5 2.97.5 1.44 0 2.17-.43 2.75-1.6h1.52M1270.57 1533.14l-11.1 42.4c-.36 1.3-.57 2.54-.57 3.12 0 .87.5 1.3 1.23 1.3 1.08 0 2.75-1.16 4.85-4.13l1.82-2.54 1 .72c-4.34 6.88-7.02 9.06-10.93 9.06-2.32 0-3.55-1.38-3.55-4.06 0-.58.07-1.45.3-2.18l9.9-37.97c.23-.73.23-1.16.23-1.38 0-.88-1.23-1.6-3.55-1.6h-1.3v-1.17c4.27-.5 6.95-1 11.23-1.95M1304.12 1574.23l.95.8c-5.44 6.6-7.18 7.97-10.08 7.97-2.04 0-2.9-.87-2.9-2.97 0-1.8.14-2.4 1.66-8.33-5.44 8.2-9.64 11.38-14.7 11.38-4.07 0-7.26-2.9-7.26-8.4 0-11.25 11.1-24.36 20.73-24.36 3.1 0 5.2 1.52 5.8 4.2l.8-3.48.2-.22 4.43-.5.5.2c-.14.67-.2.8-.43 1.54-3.4 12.4-6.45 24.86-6.45 26.3 0 .5.44.95 1.02.95.65 0 1.6-.57 3.77-2.96m-5.15-20.22c0-2.54-1.52-4.2-4.06-4.2-3.26 0-6.45 2.24-9.5 6.66-3.04 4.57-5.58 11.02-5.58 15.58 0 4 1.74 5.37 4.35 5.37 3.63 0 7.03-4 9.2-7.1 3.4-4.94 5.6-11.17 5.6-16.32M1340.36 1573.65l1.02.66c-4.7 7.18-6.6 8.63-10 8.63-2.18 0-3.48-1.23-3.48-3.48 0-1.6.94-6.45 3.26-14.28-8.56 14.06-12.18 17.9-17.33 17.9-2.53 0-3.84-1.15-3.84-3.84 0-1.37.65-3.98 1.95-9.27l2.54-10.08c.57-2.4 1-4.27 1-4.85 0-.5-.36-1.1-.8-1.3-.65-.37-.87-.44-3.62-.44v-1.03c4.13-.5 6.74-1 10.87-1.95l.3.2-6.46 25.74c-.08.22-.23.87-.23 1.16 0 1.1.37 1.8 1.45 1.8 2.47 0 5.8-3.83 10.3-10.64 3.4-5.14 4.42-7.9 7.97-17.6h5.35l-5.72 21.66c-.37 1.38-1.38 4.78-1.38 5.65 0 .8.3 1.23.8 1.23 1.16 0 2.32-1.02 6-5.88M1369.72 1550.24l-1.45 10.15h-1.16c-.72-6.03-2.9-8.42-6.44-8.42-2.54 0-4.28 1.45-4.28 4.13 0 1.97 1.1 4.07 3.9 7.4 3.64 4.2 4.94 7.04 4.94 9.87 0 6-4.42 9.7-10.43 9.7-1.25 0-2.33-.07-4-.72-1.38-.58-2.4-.65-3.2-.65-.8 0-1.58.36-2.1 1.52h-1.15l1.45-11.52h1.16c1 6.88 3.48 9.86 7.25 9.86 3.4 0 5.5-2.03 5.5-5.6 0-2.3-1.22-4.77-4.05-8.32-3.1-3.92-4.56-7.18-4.56-9.5 0-4.78 3.4-7.82 8.76-7.82 1.23 0 2.25.2 4.06.72 1.38.44 2.03.5 2.6.5 1.1 0 1.6-.28 2.18-1.3h1.02M1397.4 1574.38l.87.87c-4.13 5.07-8.77 7.83-14.78 7.83-5.88 0-9.8-3.92-9.8-9.93 0-11.24 10.8-22.83 21.67-22.83 3.85 0 5.95 1.88 5.95 4.92 0 6.24-7.6 11.9-20.6 13.56-.7 1.45-.7 3.33-.7 4.42 0 4 2.67 6.6 6.73 6.6 3.2 0 5.43-1.16 10.65-5.44m-14.93-10.37l-1.23 3.2c6.23-1.52 9-2.82 11.67-5.36 2.26-2.17 3.63-4.78 3.63-7.03 0-1.73-.5-2.82-2.53-2.82-4.13 0-9.06 5.58-11.53 12.04M1425.67 1593.95l-.87 1.16c-11.45-6.5-17.68-18.76-17.68-31.08 0-13.4 6.3-23.85 17.9-30.74l.65 1.16c-10.07 8.63-12.32 15.37-12.32 29.36 0 13.48 2.17 21.67 12.32 30.15M1461.26 1573.65l1 .66c-4.7 7.18-6.58 8.63-10 8.63-2.16 0-3.47-1.23-3.47-3.48 0-1.6.93-6.45 3.25-14.28-8.55 14.06-12.17 17.9-17.32 17.9-2.54 0-3.84-1.15-3.84-3.84 0-1.37.64-3.98 1.95-9.27l2.53-10.08c.58-2.4 1.02-4.27 1.02-4.85 0-.5-.37-1.1-.8-1.3-.65-.37-.87-.44-3.62-.44v-1.03c4.13-.5 6.74-1 10.87-1.95l.3.2-6.46 25.74c-.1.22-.23.87-.23 1.16 0 1.1.36 1.8 1.45 1.8 2.46 0 5.8-3.83 10.3-10.64 3.4-5.14 4.4-7.9 7.96-17.6h5.37l-5.73 21.66c-.36 1.38-1.38 4.78-1.38 5.65 0 .8.3 1.23.8 1.23 1.16 0 2.32-1.02 6.02-5.88M1466.2 1534.44l.86-1.16c11.1 6.67 17.68 18.78 17.68 31.1 0 13.4-6.38 23.7-17.9 30.73l-.65-1.15c10.28-8.48 12.3-15.3 12.3-29.36 0-13.56-1.8-21.9-12.3-30.16"/><path d="M1080.63 1265.9h540v100h-540z" fill-opacity="0"/><path d="M1092.54 1265.9h7.94m7.94 0h7.94m7.95 0h7.95m7.94 0h7.93m7.94 0h7.94m7.95 0h7.94m7.93 0h7.95m7.94 0h7.94m7.94 0h7.94m7.94 0h7.94m7.94 0h7.95m7.95 0h7.94m7.93 0h7.94m7.94 0h7.95m7.94 0h7.93m7.95 0h7.94m7.94 0h7.94m7.94 0h7.94m7.94 0h7.94m7.95 0h7.95m7.94 0h7.93m7.94 0h7.94m7.95 0h7.94m7.93 0h7.95m7.94 0h7.94m7.94 0h7.94m7.94 0h7.94m7.94 0h7.95m7.95 0h7.94m7.93 0h7.94m7.94 0h7.95m7.94 0h7.93m7.95 0h7.94m7.94 0h3.97v4.17m0 8.33v8.34m0 8.33v8.33m0 8.34v8.33m0 8.33v8.34m0 8.33v8.33m0 8.34v4.16h-3.97m-7.94 0h-7.94m-7.94 0h-7.95m-7.95 0H1569m-7.93 0h-7.94m-7.94 0h-7.95m-7.94 0h-7.93m-7.95 0h-7.94m-7.94 0h-7.94m-7.94 0h-7.94m-7.94 0h-7.94m-7.95 0h-7.95m-7.94 0h-7.93m-7.94 0h-7.94m-7.95 0h-7.94m-7.93 0h-7.95m-7.94 0h-7.94m-7.94 0h-7.94m-7.94 0h-7.94m-7.94 0h-7.95m-7.95 0H1299m-7.93 0h-7.94m-7.94 0h-7.95m-7.94 0h-7.93m-7.95 0h-7.94m-7.94 0h-7.94m-7.94 0h-7.94m-7.94 0h-7.94m-7.95 0h-7.95m-7.94 0h-7.93m-7.94 0h-7.94m-7.95 0h-7.94m-7.93 0h-7.95m-7.94 0h-7.94m-7.94 0h-3.97v-4.16m0-8.34v-8.33m0-8.33v-8.34m0-8.33v-8.33m0-8.34v-8.33m0-8.33v-8.34m0-8.33v-4.17h3.97" stroke="#0c7cba" stroke-width="2" fill="none"/><path d="M380 1103.14a6 6 0 0 1 6-6h112a6 6 0 0 0 6-6v-8a2.3 2.3 0 0 1 4-1.54l28 31.08a6.67 6.67 0 0 1 0 8.92l-28 31.08a2.3 2.3 0 0 1-4-1.54v-8a6 6 0 0 0-6-6H386a6 6 0 0 1-6-6z" stroke="#3a414a" fill="#6db1ff"/><path d="M716.4 1042.14a5 5 0 0 1 5-5h391.26a5 5 0 0 1 5 5v150a5 5 0 0 1-5 5H721.4a5 5 0 0 1-5-5z" stroke="#979ea8" stroke-width="2" fill="#a7a6ff"/><use xlink:href="#w" transform="matrix(1,0,0,1,721.4067568334658,1042.1423416551659) translate(131.27777777777789 86.14583333333326)"/><path d="M260 1006a6 6 0 0 1 6-6h382.06a6 6 0 0 1 6 6v88a6 6 0 0 1-6 6H266a6 6 0 0 1-6-6z" fill="#fff" fill-opacity="0"/><use xlink:href="#x" transform="matrix(1,0,0,1,265,1005) translate(0.4687500000000284 58.46354166666667)"/><path d="M1180 1103.14a6 6 0 0 1 6-6h112a6 6 0 0 0 6-6v-8a2.3 2.3 0 0 1 4-1.54l28 31.08a6.67 6.67 0 0 1 0 8.92l-28 31.08a2.3 2.3 0 0 1-4-1.54v-8a6 6 0 0 0-6-6h-112a6 6 0 0 1-6-6z" stroke="#3a414a" fill="#6db1ff"/><path d="M1180 1000h139.68v80H1180z" stroke="#000" stroke-opacity="0" stroke-width="2" fill="#fff" fill-opacity="0"/><use xlink:href="#y" transform="matrix(1,0,0,1,1185.0000000000005,1005) translate(16.9921875 48.83854166666667)"/><path d="M1664.5 1595.5c0 2.48-2 4.5-4.5 4.5-2.47 0-4.5-2.02-4.5-4.5s2.03-4.5 4.5-4.5c2.5 0 4.5 2.02 4.5 4.5zm.07-17.92c0 2.5-2.02 4.5-4.5 4.5-2.5 0-4.5-2-4.5-4.5 0-2.48 2-4.5 4.5-4.5 2.48 0 4.5 2.02 4.5 4.5zm.05-17.9c0 2.47-2 4.48-4.5 4.48-2.48 0-4.5-2-4.5-4.5 0-2.48 2.02-4.5 4.5-4.5 2.5 0 4.5 2.02 4.5 4.5zm.06-17.93c0 2.48-2.02 4.5-4.5 4.5-2.5 0-4.5-2.02-4.5-4.5 0-2.5 2-4.5 4.5-4.5 2.48 0 4.5 2 4.5 4.5zm.05-17.92c0 2.5-2 4.5-4.5 4.5-2.48 0-4.5-2-4.5-4.5s2.02-4.5 4.5-4.5c2.5 0 4.5 2 4.5 4.5zm.06-17.92c0 2.5-2.03 4.5-4.5 4.5-2.5 0-4.5-2-4.5-4.5 0-2.47 2-4.5 4.5-4.5 2.47 0 4.5 2.03 4.5 4.5zm.04-17.9c0 2.48-2 4.5-4.5 4.5-2.48 0-4.5-2.02-4.5-4.5 0-2.5 2.02-4.5 4.5-4.5 2.5 0 4.5 2 4.5 4.5zm.06-17.92c0 2.48-2.02 4.5-4.5 4.5-2.5 0-4.5-2.02-4.5-4.5 0-2.5 2-4.5 4.5-4.5 2.48 0 4.5 2 4.5 4.5zm.05-17.92c0 2.48-2 4.5-4.5 4.5-2.48 0-4.5-2.02-4.5-4.5 0-2.5 2.02-4.5 4.5-4.5 2.5 0 4.5 2 4.5 4.5zm.06-17.92c0 2.5-2 4.5-4.5 4.5-2.48 0-4.5-2-4.5-4.5 0-2.48 2.02-4.5 4.5-4.5 2.5 0 4.5 2.02 4.5 4.5zm.06-17.92c0 2.5-2 4.5-4.5 4.5-2.48 0-4.5-2-4.5-4.5 0-2.48 2.02-4.5 4.5-4.5 2.5 0 4.5 2.02 4.5 4.5zm.06-17.9c0 2.47-2.02 4.5-4.5 4.5-2.5 0-4.5-2.03-4.5-4.5 0-2.5 2-4.5 4.5-4.5 2.48 0 4.5 2 4.5 4.5zm.05-17.93c0 2.47-2 4.5-4.5 4.5-2.48 0-4.5-2.03-4.5-4.5 0-2.5 2.02-4.5 4.5-4.5 2.5 0 4.5 2 4.5 4.5zm.06-17.93c0 2.5-2.02 4.5-4.5 4.5-2.5 0-4.5-2-4.5-4.5 0-2.48 2-4.5 4.5-4.5 2.48 0 4.5 2.02 4.5 4.5zm.05-17.92c0 2.5-2 4.5-4.5 4.5-2.48 0-4.5-2-4.5-4.5 0-2.48 2.02-4.5 4.5-4.5 2.5 0 4.5 2.02 4.5 4.5zm.06-17.9c0 2.47-2.02 4.5-4.5 4.5-2.5 0-4.5-2.03-4.5-4.5 0-2.5 2-4.5 4.5-4.5 2.48 0 4.5 2 4.5 4.5zm.05-17.93c0 2.48-2.02 4.5-4.5 4.5-2.5 0-4.5-2.02-4.5-4.5 0-2.5 2-4.5 4.5-4.5 2.48 0 4.5 2 4.5 4.5zm.05-17.92c0 2.5-2.02 4.5-4.5 4.5-2.5 0-4.5-2-4.5-4.5 0-2.48 2-4.5 4.5-4.5 2.48 0 4.5 2.02 4.5 4.5zm.05-17.92c0 2.5-2 4.5-4.5 4.5-2.48 0-4.5-2-4.5-4.5 0-2.48 2.02-4.5 4.5-4.5 2.5 0 4.5 2.02 4.5 4.5zm.06-17.9c0 2.47-2.02 4.5-4.5 4.5-2.5 0-4.5-2.03-4.5-4.5 0-2.5 2-4.5 4.5-4.5 2.48 0 4.5 2 4.5 4.5zm.05-17.93c0 2.48-2 4.5-4.5 4.5-2.47 0-4.5-2.02-4.5-4.5 0-2.5 2.03-4.5 4.5-4.5 2.5 0 4.5 2 4.5 4.5zm.07-17.92c0 2.5-2.02 4.5-4.5 4.5-2.5 0-4.5-2-4.5-4.5 0-2.48 2-4.5 4.5-4.5 2.48 0 4.5 2.02 4.5 4.5zm.05-17.92c0 2.5-2.02 4.5-4.5 4.5-2.5 0-4.5-2-4.5-4.5 0-2.47 2-4.5 4.5-4.5 2.48 0 4.5 2.03 4.5 4.5zm.06-17.9c0 2.48-2.02 4.5-4.5 4.5-2.5 0-4.5-2.02-4.5-4.5 0-2.5 2-4.5 4.5-4.5 2.48 0 4.5 2 4.5 4.5zm.05-17.92c0 2.48-2 4.5-4.5 4.5s-4.5-2.02-4.5-4.5c0-2.5 2-4.5 4.5-4.5s4.5 2 4.5 4.5zm.05-17.92c0 2.5-2 4.5-4.5 4.5-2.48 0-4.5-2-4.5-4.5 0-2.48 2.02-4.5 4.5-4.5 2.5 0 4.5 2.02 4.5 4.5zm.06-17.92c0 2.5-2.02 4.5-4.5 4.5-2.5 0-4.5-2-4.5-4.5 0-2.48 2-4.5 4.5-4.5 2.48 0 4.5 2.02 4.5 4.5zm.05-17.92c0 2.5-2.02 4.5-4.5 4.5-2.5 0-4.5-2-4.5-4.5 0-2.48 2-4.5 4.5-4.5 2.48 0 4.5 2.02 4.5 4.5zm.05-17.9c0 2.47-2.02 4.5-4.5 4.5-2.5 0-4.5-2.03-4.5-4.5 0-2.5 2-4.5 4.5-4.5 2.48 0 4.5 2 4.5 4.5zm.05-17.93c0 2.48-2 4.5-4.5 4.5-2.48 0-4.5-2.02-4.5-4.5 0-2.5 2.02-4.5 4.5-4.5 2.5 0 4.5 2 4.5 4.5zm.06-17.93c0 2.5-2.02 4.5-4.5 4.5-2.5 0-4.5-2-4.5-4.5 0-2.48 2-4.5 4.5-4.5 2.48 0 4.5 2.02 4.5 4.5zm.05-17.9c0 2.47-2 4.5-4.5 4.5-2.47 0-4.5-2.03-4.5-4.5 0-2.5 2.03-4.5 4.5-4.5 2.5 0 4.5 2 4.5 4.5zm.07-17.93c0 2.48-2.02 4.5-4.5 4.5-2.5 0-4.5-2.02-4.5-4.5 0-2.5 2-4.5 4.5-4.5 2.48 0 4.5 2 4.5 4.5zm.05-17.92c0 2.5-2 4.5-4.5 4.5-2.48 0-4.5-2-4.5-4.5s2.02-4.5 4.5-4.5c2.5 0 4.5 2 4.5 4.5zm.06-17.92c0 2.5-2.02 4.5-4.5 4.5-2.5 0-4.5-2-4.5-4.5 0-2.48 2-4.5 4.5-4.5 2.48 0 4.5 2.02 4.5 4.5zm.05-17.9c0 2.47-2 4.5-4.5 4.5-2.48 0-4.5-2.03-4.5-4.5 0-2.5 2.02-4.5 4.5-4.5 2.5 0 4.5 2 4.5 4.5zm.06-17.93c0 2.48-2.03 4.5-4.5 4.5-2.5 0-4.5-2.02-4.5-4.5 0-2.5 2-4.5 4.5-4.5 2.47 0 4.5 2 4.5 4.5zm.04-17.92c0 2.5-2 4.5-4.5 4.5-2.48 0-4.5-2-4.5-4.5s2.02-4.5 4.5-4.5c2.5 0 4.5 2 4.5 4.5zm.06-17.92c0 2.5-2.02 4.5-4.5 4.5-2.5 0-4.5-2-4.5-4.5 0-2.48 2-4.5 4.5-4.5 2.48 0 4.5 2.02 4.5 4.5zm.05-17.9c0 2.47-2 4.5-4.5 4.5-2.48 0-4.5-2.03-4.5-4.5 0-2.5 2.02-4.5 4.5-4.5 2.5 0 4.5 2 4.5 4.5zm.06-17.93c0 2.48-2 4.5-4.5 4.5-2.48 0-4.5-2.02-4.5-4.5 0-2.5 2.02-4.5 4.5-4.5 2.5 0 4.5 2 4.5 4.5zm.06-17.92c0 2.5-2 4.5-4.5 4.5-2.48 0-4.5-2-4.5-4.5s2.02-4.5 4.5-4.5c2.5 0 4.5 2 4.5 4.5zm.06-17.92c0 2.5-2.02 4.5-4.5 4.5-2.5 0-4.5-2-4.5-4.5 0-2.48 2-4.5 4.5-4.5 2.48 0 4.5 2.02 4.5 4.5zm.05-17.92c0 2.5-2 4.5-4.5 4.5-2.48 0-4.5-2-4.5-4.5 0-2.48 2.02-4.5 4.5-4.5 2.5 0 4.5 2.02 4.5 4.5zm.06-17.9c0 2.47-2.02 4.5-4.5 4.5-2.5 0-4.5-2.03-4.5-4.5 0-2.5 2-4.5 4.5-4.5 2.48 0 4.5 2 4.5 4.5zm.05-17.93c0 2.5-2 4.5-4.5 4.5s-4.5-2-4.5-4.5c0-2.48 2-4.5 4.5-4.5s4.5 2.02 4.5 4.5zm.06-17.9c0 2.48-2.02 4.5-4.5 4.5-2.5 0-4.5-2.02-4.5-4.5 0-2.5 2-4.5 4.5-4.5 2.48 0 4.5 2 4.5 4.5zm.05-17.93c0 2.5-2.02 4.5-4.5 4.5-2.5 0-4.5-2-4.5-4.5 0-2.48 2-4.5 4.5-4.5 2.48 0 4.5 2.02 4.5 4.5zm.05-17.9c0 2.47-2.02 4.5-4.5 4.5-2.5 0-4.5-2.03-4.5-4.5 0-2.5 2-4.5 4.5-4.5 2.48 0 4.5 2 4.5 4.5zm.05-17.93c0 2.48-2.02 4.5-4.5 4.5-2.5 0-4.5-2.02-4.5-4.5 0-2.5 2-4.5 4.5-4.5 2.48 0 4.5 2 4.5 4.5zm.06-17.92c0 2.5-2.02 4.5-4.5 4.5-2.5 0-4.5-2-4.5-4.5 0-2.48 2-4.5 4.5-4.5 2.48 0 4.5 2.02 4.5 4.5zm.05-17.92c0 2.5-2 4.5-4.5 4.5-2.48 0-4.5-2-4.5-4.5 0-2.48 2.02-4.5 4.5-4.5 2.5 0 4.5 2.02 4.5 4.5zm.06-17.9c0 2.47-2 4.5-4.5 4.5-2.48 0-4.5-2.03-4.5-4.5 0-2.5 2.02-4.5 4.5-4.5 2.5 0 4.5 2 4.5 4.5zm.06-17.93c0 2.48-2.02 4.5-4.5 4.5-2.5 0-4.5-2.02-4.5-4.5 0-2.5 2-4.5 4.5-4.5 2.48 0 4.5 2 4.5 4.5zm.05-17.92c0 2.5-2 4.5-4.5 4.5-2.48 0-4.5-2-4.5-4.5 0-2.48 2.02-4.5 4.5-4.5 2.5 0 4.5 2.02 4.5 4.5zm.06-17.92c0 2.5-2.02 4.5-4.5 4.5-2.5 0-4.5-2-4.5-4.5 0-2.48 2-4.5 4.5-4.5 2.48 0 4.5 2.02 4.5 4.5zm.05-17.9c0 2.47-2 4.5-4.5 4.5-2.48 0-4.5-2.03-4.5-4.5 0-2.5 2.02-4.5 4.5-4.5 2.5 0 4.5 2 4.5 4.5zm.06-17.93c0 2.48-2.02 4.5-4.5 4.5-2.5 0-4.5-2.02-4.5-4.5 0-2.5 2-4.5 4.5-4.5 2.48 0 4.5 2 4.5 4.5zm.05-17.92c0 2.5-2.02 4.5-4.5 4.5-2.5 0-4.5-2-4.5-4.5s2-4.5 4.5-4.5c2.48 0 4.5 2 4.5 4.5zm.05-17.92c0 2.5-2.02 4.5-4.5 4.5-2.5 0-4.5-2-4.5-4.5 0-2.48 2-4.5 4.5-4.5 2.48 0 4.5 2.02 4.5 4.5zm.05-17.9c0 2.47-2 4.5-4.5 4.5-2.48 0-4.5-2.03-4.5-4.5 0-2.5 2.02-4.5 4.5-4.5 2.5 0 4.5 2 4.5 4.5zm.06-17.93c0 2.48-2.02 4.5-4.5 4.5-2.5 0-4.5-2.02-4.5-4.5 0-2.5 2-4.5 4.5-4.5 2.48 0 4.5 2 4.5 4.5zm.05-17.92c0 2.5-2 4.5-4.5 4.5-2.47 0-4.5-2-4.5-4.5 0-2.48 2.03-4.5 4.5-4.5 2.5 0 4.5 2.02 4.5 4.5zm.07-17.9c0 2.48-2.02 4.5-4.5 4.5-2.5 0-4.5-2.02-4.5-4.5 0-2.5 2-4.5 4.5-4.5 2.48 0 4.5 2 4.5 4.5zm.05-17.93c0 2.5-2 4.5-4.5 4.5-2.48 0-4.5-2-4.5-4.5 0-2.48 2.02-4.5 4.5-4.5 2.5 0 4.5 2.02 4.5 4.5zm.06-17.9c0 2.47-2.02 4.5-4.5 4.5-2.5 0-4.5-2.03-4.5-4.5 0-2.5 2-4.5 4.5-4.5 2.48 0 4.5 2 4.5 4.5zm.05-17.93c0 2.5-2 4.5-4.5 4.5-2.48 0-4.5-2-4.5-4.5s2.02-4.5 4.5-4.5c2.5 0 4.5 2 4.5 4.5zm.06-17.92c0 2.5-2.03 4.5-4.5 4.5-2.5 0-4.5-2-4.5-4.5 0-2.48 2-4.5 4.5-4.5 2.47 0 4.5 2.02 4.5 4.5zm.04-17.9c0 2.47-2 4.5-4.5 4.5-2.48 0-4.5-2.03-4.5-4.5 0-2.5 2.02-4.5 4.5-4.5 2.5 0 4.5 2 4.5 4.5zm.06-17.93c0 2.47-2.02 4.5-4.5 4.5-2.5 0-4.5-2.03-4.5-4.5 0-2.5 2-4.5 4.5-4.5 2.48 0 4.5 2 4.5 4.5zm.05-17.93c0 2.5-2 4.5-4.5 4.5-2.48 0-4.5-2-4.5-4.5s2.02-4.5 4.5-4.5c2.5 0 4.5 2 4.5 4.5zm.06-17.92c0 2.5-2 4.5-4.5 4.5-2.48 0-4.5-2-4.5-4.5 0-2.48 2.02-4.5 4.5-4.5 2.5 0 4.5 2.02 4.5 4.5zm.06-17.92c0 2.5-2 4.5-4.5 4.5s-4.5-2-4.5-4.5c0-2.48 2-4.5 4.5-4.5s4.5 2.02 4.5 4.5zm.06-17.9c0 2.47-2.02 4.5-4.5 4.5-2.5 0-4.5-2.03-4.5-4.5 0-2.5 2-4.5 4.5-4.5 2.48 0 4.5 2 4.5 4.5zm.05-17.93c0 2.48-2 4.5-4.5 4.5-2.48 0-4.5-2.02-4.5-4.5 0-2.5 2.02-4.5 4.5-4.5 2.5 0 4.5 2 4.5 4.5zm.06-17.92c0 2.5-2.02 4.5-4.5 4.5-2.5 0-4.5-2-4.5-4.5 0-2.48 2-4.5 4.5-4.5 2.48 0 4.5 2.02 4.5 4.5zm.05-17.92c0 2.5-2.02 4.5-4.5 4.5-2.5 0-4.5-2-4.5-4.5 0-2.48 2-4.5 4.5-4.5 2.48 0 4.5 2.02 4.5 4.5zm.05-17.9c0 2.47-2 4.5-4.5 4.5-2.48 0-4.5-2.03-4.5-4.5 0-2.5 2.02-4.5 4.5-4.5 2.5 0 4.5 2 4.5 4.5zm.06-17.93c0 2.48-2.02 4.5-4.5 4.5-2.5 0-4.5-2.02-4.5-4.5 0-2.5 2-4.5 4.5-4.5 2.48 0 4.5 2 4.5 4.5zm.04-17.92c0 2.5-2 4.5-4.5 4.5-2.48 0-4.5-2-4.5-4.5 0-2.47 2.02-4.5 4.5-4.5 2.5 0 4.5 2.03 4.5 4.5z" fill="#00c2a8"/><path d="M1660 1595.38v4.62M1664.4 162.2v-4.6" stroke="#00c2a8" stroke-width="9" fill="none"/><path d="M660 5a5 5 0 0 1 5-5h510a5 5 0 0 1 5 5v250a5 5 0 0 1-5 5H665a5 5 0 0 1-5-5z" stroke="#000" stroke-opacity="0" stroke-width="2" fill="#fff" fill-opacity="0"/><use xlink:href="#z" transform="matrix(1,0,0,1,665.0000000000001,5) translate(45.27777777777777 147.83333333333334)"/><use xlink:href="#A" transform="matrix(1,0,0,1,665.0000000000001,5) translate(406.46296296296293 147.83333333333334)"/><path d="M1640 5a5 5 0 0 1 5-5h510a5 5 0 0 1 5 5v250a5 5 0 0 1-5 5h-510a5 5 0 0 1-5-5z" stroke="#000" stroke-opacity="0" stroke-width="2" fill="#fff" fill-opacity="0"/><use xlink:href="#B" transform="matrix(1,0,0,1,1645,5) translate(45.27777777777777 147.83333333333334)"/><use xlink:href="#C" transform="matrix(1,0,0,1,1645,5) translate(406.46296296296293 147.83333333333334)"/><path d="M1080.63 1271.9a6 6 0 0 1 6-6h508a6 6 0 0 1 6 6v88a6 6 0 0 1-6 6h-508a6 6 0 0 1-6-6z" fill="#fff" fill-opacity="0"/><use xlink:href="#D" transform="matrix(1,0,0,1,1085.6293671581593,1270.9026999539983) translate(15.4609375 58.46354166666667)"/><use xlink:href="#E" transform="matrix(1,0,0,1,1085.6293671581593,1270.9026999539983) translate(143.48177083333334 58.46354166666667)"/><use xlink:href="#F" transform="matrix(1,0,0,1,1085.6293671581593,1270.9026999539983) translate(239.49739583333334 58.46354166666667)"/><path d="M144.5 1595.5c0 2.48-2 4.5-4.5 4.5s-4.5-2.02-4.5-4.5 2-4.5 4.5-4.5 4.5 2.02 4.5 4.5zm0-17.9c0 2.5-2 4.5-4.5 4.5s-4.5-2-4.5-4.5c0-2.47 2-4.5 4.5-4.5s4.5 2.03 4.5 4.5zm0-17.88c0 2.5-2 4.5-4.5 4.5s-4.5-2-4.5-4.5c0-2.48 2-4.5 4.5-4.5s4.5 2.02 4.5 4.5zm0-17.88c0 2.48-2 4.5-4.5 4.5s-4.5-2.02-4.5-4.5c0-2.5 2-4.5 4.5-4.5s4.5 2 4.5 4.5zm0-17.9c0 2.5-2 4.5-4.5 4.5s-4.5-2-4.5-4.5c0-2.48 2-4.5 4.5-4.5s4.5 2.02 4.5 4.5zm0-17.88c0 2.5-2 4.5-4.5 4.5s-4.5-2-4.5-4.5c0-2.48 2-4.5 4.5-4.5s4.5 2.02 4.5 4.5zm0-17.88c0 2.48-2 4.5-4.5 4.5s-4.5-2.02-4.5-4.5c0-2.5 2-4.5 4.5-4.5s4.5 2 4.5 4.5zm0-17.9c0 2.5-2 4.5-4.5 4.5s-4.5-2-4.5-4.5c0-2.48 2-4.5 4.5-4.5s4.5 2.02 4.5 4.5zm0-17.88c0 2.48-2 4.5-4.5 4.5s-4.5-2.02-4.5-4.5c0-2.5 2-4.5 4.5-4.5s4.5 2 4.5 4.5zm0-17.9c0 2.5-2 4.5-4.5 4.5s-4.5-2-4.5-4.5c0-2.47 2-4.5 4.5-4.5s4.5 2.03 4.5 4.5zm0-17.88c0 2.5-2 4.5-4.5 4.5s-4.5-2-4.5-4.5c0-2.48 2-4.5 4.5-4.5s4.5 2.02 4.5 4.5zm0-17.88c0 2.48-2 4.5-4.5 4.5s-4.5-2.02-4.5-4.5c0-2.5 2-4.5 4.5-4.5s4.5 2 4.5 4.5zm0-17.9c0 2.5-2 4.5-4.5 4.5s-4.5-2-4.5-4.5c0-2.47 2-4.5 4.5-4.5s4.5 2.03 4.5 4.5zm0-17.88c0 2.5-2 4.5-4.5 4.5s-4.5-2-4.5-4.5c0-2.48 2-4.5 4.5-4.5s4.5 2.02 4.5 4.5zm0-17.88c0 2.48-2 4.5-4.5 4.5s-4.5-2.02-4.5-4.5c0-2.5 2-4.5 4.5-4.5s4.5 2 4.5 4.5zm0-17.9c0 2.5-2 4.5-4.5 4.5s-4.5-2-4.5-4.5c0-2.48 2-4.5 4.5-4.5s4.5 2.02 4.5 4.5zm0-17.88c0 2.5-2 4.5-4.5 4.5s-4.5-2-4.5-4.5c0-2.48 2-4.5 4.5-4.5s4.5 2.02 4.5 4.5zm0-17.9c0 2.5-2 4.5-4.5 4.5s-4.5-2-4.5-4.5c0-2.47 2-4.5 4.5-4.5s4.5 2.03 4.5 4.5zm0-17.88c0 2.5-2 4.5-4.5 4.5s-4.5-2-4.5-4.5c0-2.48 2-4.5 4.5-4.5s4.5 2.02 4.5 4.5zm0-17.88c0 2.48-2 4.5-4.5 4.5s-4.5-2.02-4.5-4.5c0-2.5 2-4.5 4.5-4.5s4.5 2 4.5 4.5zm0-17.9c0 2.5-2 4.5-4.5 4.5s-4.5-2-4.5-4.5c0-2.47 2-4.5 4.5-4.5s4.5 2.03 4.5 4.5zm0-17.88c0 2.5-2 4.5-4.5 4.5s-4.5-2-4.5-4.5c0-2.48 2-4.5 4.5-4.5s4.5 2.02 4.5 4.5zm0-17.88c0 2.48-2 4.5-4.5 4.5s-4.5-2.02-4.5-4.5c0-2.5 2-4.5 4.5-4.5s4.5 2 4.5 4.5zm0-17.9c0 2.5-2 4.5-4.5 4.5s-4.5-2-4.5-4.5c0-2.48 2-4.5 4.5-4.5s4.5 2.02 4.5 4.5zm0-17.88c0 2.48-2 4.5-4.5 4.5s-4.5-2.02-4.5-4.5c0-2.5 2-4.5 4.5-4.5s4.5 2 4.5 4.5zm0-17.9c0 2.5-2 4.5-4.5 4.5s-4.5-2-4.5-4.5c0-2.47 2-4.5 4.5-4.5s4.5 2.03 4.5 4.5zm0-17.88c0 2.5-2 4.5-4.5 4.5s-4.5-2-4.5-4.5c0-2.48 2-4.5 4.5-4.5s4.5 2.02 4.5 4.5zm0-17.88c0 2.48-2 4.5-4.5 4.5s-4.5-2.02-4.5-4.5c0-2.5 2-4.5 4.5-4.5s4.5 2 4.5 4.5zm0-17.9c0 2.5-2 4.5-4.5 4.5s-4.5-2-4.5-4.5c0-2.48 2-4.5 4.5-4.5s4.5 2.02 4.5 4.5zm0-17.88c0 2.5-2 4.5-4.5 4.5s-4.5-2-4.5-4.5c0-2.48 2-4.5 4.5-4.5s4.5 2.02 4.5 4.5zm0-17.88c0 2.48-2 4.5-4.5 4.5s-4.5-2.02-4.5-4.5c0-2.5 2-4.5 4.5-4.5s4.5 2 4.5 4.5zm0-17.9c0 2.5-2 4.5-4.5 4.5s-4.5-2-4.5-4.5c0-2.48 2-4.5 4.5-4.5s4.5 2.02 4.5 4.5zm0-17.88c0 2.5-2 4.5-4.5 4.5s-4.5-2-4.5-4.5 2-4.5 4.5-4.5 4.5 2 4.5 4.5zm0-17.9c0 2.5-2 4.5-4.5 4.5s-4.5-2-4.5-4.5c0-2.47 2-4.5 4.5-4.5s4.5 2.03 4.5 4.5zm0-17.88c0 2.5-2 4.5-4.5 4.5s-4.5-2-4.5-4.5c0-2.48 2-4.5 4.5-4.5s4.5 2.02 4.5 4.5zm0-17.88c0 2.48-2 4.5-4.5 4.5s-4.5-2.02-4.5-4.5c0-2.5 2-4.5 4.5-4.5s4.5 2 4.5 4.5zm0-17.9c0 2.5-2 4.5-4.5 4.5s-4.5-2-4.5-4.5c0-2.47 2-4.5 4.5-4.5s4.5 2.03 4.5 4.5zm0-17.88c0 2.5-2 4.5-4.5 4.5s-4.5-2-4.5-4.5c0-2.48 2-4.5 4.5-4.5s4.5 2.02 4.5 4.5zm0-17.88c0 2.48-2 4.5-4.5 4.5s-4.5-2.02-4.5-4.5c0-2.5 2-4.5 4.5-4.5s4.5 2 4.5 4.5zm0-17.9c0 2.5-2 4.5-4.5 4.5s-4.5-2-4.5-4.5c0-2.48 2-4.5 4.5-4.5s4.5 2.02 4.5 4.5zm0-17.88c0 2.5-2 4.5-4.5 4.5s-4.5-2-4.5-4.5 2-4.5 4.5-4.5 4.5 2 4.5 4.5zm0-17.9c0 2.5-2 4.5-4.5 4.5s-4.5-2-4.5-4.5c0-2.47 2-4.5 4.5-4.5s4.5 2.03 4.5 4.5zm0-17.88c0 2.5-2 4.5-4.5 4.5s-4.5-2-4.5-4.5c0-2.48 2-4.5 4.5-4.5s4.5 2.02 4.5 4.5zm0-17.88c0 2.48-2 4.5-4.5 4.5s-4.5-2.02-4.5-4.5c0-2.5 2-4.5 4.5-4.5s4.5 2 4.5 4.5zm0-17.9c0 2.5-2 4.5-4.5 4.5s-4.5-2-4.5-4.5c0-2.48 2-4.5 4.5-4.5s4.5 2.02 4.5 4.5zm0-17.88c0 2.5-2 4.5-4.5 4.5s-4.5-2-4.5-4.5c0-2.48 2-4.5 4.5-4.5s4.5 2.02 4.5 4.5zm0-17.88c0 2.48-2 4.5-4.5 4.5s-4.5-2.02-4.5-4.5c0-2.5 2-4.5 4.5-4.5s4.5 2 4.5 4.5zm0-17.9c0 2.5-2 4.5-4.5 4.5s-4.5-2-4.5-4.5c0-2.48 2-4.5 4.5-4.5s4.5 2.02 4.5 4.5zm0-17.88c0 2.5-2 4.5-4.5 4.5s-4.5-2-4.5-4.5 2-4.5 4.5-4.5 4.5 2 4.5 4.5zm0-17.9c0 2.5-2 4.5-4.5 4.5s-4.5-2-4.5-4.5c0-2.47 2-4.5 4.5-4.5s4.5 2.03 4.5 4.5zm0-17.88c0 2.5-2 4.5-4.5 4.5s-4.5-2-4.5-4.5c0-2.48 2-4.5 4.5-4.5s4.5 2.02 4.5 4.5zm0-17.88c0 2.48-2 4.5-4.5 4.5s-4.5-2.02-4.5-4.5c0-2.5 2-4.5 4.5-4.5s4.5 2 4.5 4.5zm0-17.9c0 2.5-2 4.5-4.5 4.5s-4.5-2-4.5-4.5c0-2.48 2-4.5 4.5-4.5s4.5 2.02 4.5 4.5zm0-17.88c0 2.5-2 4.5-4.5 4.5s-4.5-2-4.5-4.5c0-2.48 2-4.5 4.5-4.5s4.5 2.02 4.5 4.5zm0-17.88c0 2.48-2 4.5-4.5 4.5s-4.5-2.02-4.5-4.5c0-2.5 2-4.5 4.5-4.5s4.5 2 4.5 4.5zm0-17.9c0 2.5-2 4.5-4.5 4.5s-4.5-2-4.5-4.5c0-2.48 2-4.5 4.5-4.5s4.5 2.02 4.5 4.5zm0-17.88c0 2.5-2 4.5-4.5 4.5s-4.5-2-4.5-4.5c0-2.48 2-4.5 4.5-4.5s4.5 2.02 4.5 4.5zm0-17.9c0 2.5-2 4.5-4.5 4.5s-4.5-2-4.5-4.5c0-2.47 2-4.5 4.5-4.5s4.5 2.03 4.5 4.5zm0-17.88c0 2.5-2 4.5-4.5 4.5s-4.5-2-4.5-4.5c0-2.48 2-4.5 4.5-4.5s4.5 2.02 4.5 4.5zm0-17.88c0 2.48-2 4.5-4.5 4.5s-4.5-2.02-4.5-4.5c0-2.5 2-4.5 4.5-4.5s4.5 2 4.5 4.5zm0-17.9c0 2.5-2 4.5-4.5 4.5s-4.5-2-4.5-4.5c0-2.48 2-4.5 4.5-4.5s4.5 2.02 4.5 4.5zm0-17.88c0 2.5-2 4.5-4.5 4.5s-4.5-2-4.5-4.5c0-2.48 2-4.5 4.5-4.5s4.5 2.02 4.5 4.5zm0-17.88c0 2.48-2 4.5-4.5 4.5s-4.5-2.02-4.5-4.5c0-2.5 2-4.5 4.5-4.5s4.5 2 4.5 4.5zm0-17.9c0 2.5-2 4.5-4.5 4.5s-4.5-2-4.5-4.5c0-2.48 2-4.5 4.5-4.5s4.5 2.02 4.5 4.5zm0-17.88c0 2.5-2 4.5-4.5 4.5s-4.5-2-4.5-4.5 2-4.5 4.5-4.5 4.5 2 4.5 4.5zm0-17.9c0 2.5-2 4.5-4.5 4.5s-4.5-2-4.5-4.5c0-2.47 2-4.5 4.5-4.5s4.5 2.03 4.5 4.5zm0-17.88c0 2.5-2 4.5-4.5 4.5s-4.5-2-4.5-4.5c0-2.48 2-4.5 4.5-4.5s4.5 2.02 4.5 4.5zm0-17.88c0 2.48-2 4.5-4.5 4.5s-4.5-2.02-4.5-4.5c0-2.5 2-4.5 4.5-4.5s4.5 2 4.5 4.5zm0-17.9c0 2.5-2 4.5-4.5 4.5s-4.5-2-4.5-4.5c0-2.47 2-4.5 4.5-4.5s4.5 2.03 4.5 4.5zm0-17.88c0 2.5-2 4.5-4.5 4.5s-4.5-2-4.5-4.5c0-2.48 2-4.5 4.5-4.5s4.5 2.02 4.5 4.5zm0-17.88c0 2.48-2 4.5-4.5 4.5s-4.5-2.02-4.5-4.5c0-2.5 2-4.5 4.5-4.5s4.5 2 4.5 4.5zm0-17.9c0 2.5-2 4.5-4.5 4.5s-4.5-2-4.5-4.5c0-2.48 2-4.5 4.5-4.5s4.5 2.02 4.5 4.5zm0-17.88c0 2.48-2 4.5-4.5 4.5s-4.5-2.02-4.5-4.5c0-2.5 2-4.5 4.5-4.5s4.5 2 4.5 4.5zm0-17.9c0 2.5-2 4.5-4.5 4.5s-4.5-2-4.5-4.5c0-2.47 2-4.5 4.5-4.5s4.5 2.03 4.5 4.5zm0-17.88c0 2.5-2 4.5-4.5 4.5s-4.5-2-4.5-4.5c0-2.48 2-4.5 4.5-4.5s4.5 2.02 4.5 4.5zm0-17.88c0 2.48-2 4.5-4.5 4.5s-4.5-2.02-4.5-4.5c0-2.5 2-4.5 4.5-4.5s4.5 2 4.5 4.5zm0-17.9c0 2.5-2 4.5-4.5 4.5s-4.5-2-4.5-4.5c0-2.47 2-4.5 4.5-4.5s4.5 2.03 4.5 4.5zm0-17.88c0 2.5-2 4.5-4.5 4.5s-4.5-2-4.5-4.5c0-2.48 2-4.5 4.5-4.5s4.5 2.02 4.5 4.5zm0-17.88c0 2.48-2 4.5-4.5 4.5s-4.5-2.02-4.5-4.5c0-2.5 2-4.5 4.5-4.5s4.5 2 4.5 4.5zm0-17.9c0 2.5-2 4.5-4.5 4.5s-4.5-2-4.5-4.5c0-2.48 2-4.5 4.5-4.5s4.5 2.02 4.5 4.5z" fill="#0c7cba"/><path d="M140 1595.38v4.62M140 164.62V160" stroke="#0c7cba" stroke-width="9" fill="none"/><path d="M-360 5a5 5 0 0 1 5-5h510a5 5 0 0 1 5 5v250a5 5 0 0 1-5 5h-510a5 5 0 0 1-5-5z" stroke="#000" stroke-opacity="0" stroke-width="2" fill="#fff" fill-opacity="0"/><use xlink:href="#G" transform="matrix(1,0,0,1,-354.9999999999999,5) translate(45.27777777777777 147.83333333333334)"/><use xlink:href="#H" transform="matrix(1,0,0,1,-354.9999999999999,5) translate(406.46296296296293 147.83333333333334)"/><path d="M996.07 1240.15a6 6 0 0 1 8.5 0l27.06 27.07a2.48 2.48 0 0 1-1.76 4.24h-5.78a6 6 0 0 0-6 6v76.9a6 6 0 0 0 6 6h5.77a2.48 2.48 0 0 1 1.76 4.23l-27.07 27.06a6 6 0 0 1-8.5 0L969 1364.6a2.48 2.48 0 0 1 1.76-4.25h5.78a6 6 0 0 0 6-6v-76.9a6 6 0 0 0-6-6h-5.78a2.48 2.48 0 0 1-1.76-4.23z" stroke="#3a414a" fill="#54c45e"/><path d="M835.76 1240.15a6 6 0 0 1 8.48 0l31.52 31.5a2.48 2.48 0 0 1-1.76 4.25h-8a6 6 0 0 0-6 6v68a6 6 0 0 0 6 6h8a2.48 2.48 0 0 1 1.76 4.25l-31.52 31.5a6 6 0 0 1-8.48 0l-31.52-31.5a2.48 2.48 0 0 1 1.76-4.25h8a6 6 0 0 0 6-6v-68a6 6 0 0 0-6-6h-8a2.48 2.48 0 0 1-1.76-4.24z" stroke="#3a414a" fill="#fe7070"/><path d="M-260 985a5 5 0 0 1 5-5H75a5 5 0 0 1 5 5v269.74a5 5 0 0 1-5 5h-330a5 5 0 0 1-5-5zM1740 980.9a5 5 0 0 1 5-5h290a5 5 0 0 1 5 5v280a5 5 0 0 1-5 5h-290a5 5 0 0 1-5-5z" stroke="#6db1ff" stroke-width="9" fill-opacity="0"/><path d="M1340.63 1082.14a5 5 0 0 1 5-5h250a5 5 0 0 1 5 5v70a5 5 0 0 1-5 5h-250a5 5 0 0 1-5-5z" stroke="#000" stroke-opacity="0" stroke-width="2" fill="#fff" fill-opacity="0"/><g><use xlink:href="#I" transform="matrix(1,0,0,1,1345.6293671581595,1082.1423416551659) translate(21.8888888888892 53.33333333333317)"/></g><path d="M-202.28 1024.8a5 5 0 0 1 5-5H17.28a5 5 0 0 1 5 5v190.15a5 5 0 0 1-5 5h-214.56a5 5 0 0 1-5-5z" stroke="#979ea8" stroke-width="2" fill="#ffbbb1"/><g><use xlink:href="#J" transform="matrix(1,0,0,1,-197.28362170964428,1024.791666666666) translate(12.055555555555543 111.75)"/></g><path d="M1778.75 1030.9a5 5 0 0 1 5-5h214.57a5 5 0 0 1 5 5v185.9a5 5 0 0 1-5 5h-214.57a5 5 0 0 1-5-5z" stroke="#979ea8" stroke-width="2" fill="#ffbbb1"/><g><use xlink:href="#K" transform="matrix(1,0,0,1,1783.7510136669312,1030.9026999539983) translate(15.277777777777771 110.5)"/></g><path d="M401.34 560c0 44.18-35.81 80-80 80-44.18 0-80-35.82-80-80s35.82-80 80-80c44.19 0 80 35.82 80 80z" stroke="#000" stroke-width="6" fill="#fff"/><g><use xlink:href="#L" transform="matrix(1,0,0,1,246.34265821046074,485) translate(39.449444444444445 102.04501333333334)"/></g><path d="M-10 560c0 44.18-35.82 80-80 80s-80-35.82-80-80 35.82-80 80-80 80 35.82 80 80z" stroke="#000" stroke-width="6" fill="#fff"/><g><use xlink:href="#M" transform="matrix(1,0,0,1,-164.99999999999955,485) translate(36.63462962962962 102.04501333333334)"/></g><path d="M1970 560c0 44.18-35.82 80-80 80s-80-35.82-80-80 35.82-80 80-80 80 35.82 80 80z" stroke="#000" stroke-width="6" fill="#fff"/><g><use xlink:href="#N" transform="matrix(1,0,0,1,1815.0000000000002,485) translate(42.560555555555545 104.92213333333333)"/></g><defs><path d="M205 0l-28-72H64L36 0H1l101-248h38L239 0h-34zm-38-99l-47-123c-12 45-31 82-46 123h93" id="O"/><path d="M30 0v-248h33v221h125V0H30" id="P"/><path d="M232-93c-1 65-40 97-104 97C67 4 28-28 28-90v-158h33c8 89-33 224 67 224 102 0 64-133 71-224h33v155" id="Q"/><g id="a"><use transform="matrix(0.25308641975308593,0,0,0.25308641975308593,0,0)" xlink:href="#O"/><use transform="matrix(0.25308641975308593,0,0,0.25308641975308593,60.74074074074063,0)" xlink:href="#P"/><use transform="matrix(0.25308641975308593,0,0,0.25308641975308593,111.35802469135781,0)" xlink:href="#Q"/></g><path d="M30 0v-248h187v28H63v79h144v27H63v87h162V0H30" id="R"/><path d="M117-194c89-4 53 116 60 194h-32v-121c0-31-8-49-39-48C34-167 62-67 57 0H25l-1-190h30c1 10-1 24 2 32 11-22 29-35 61-36" id="S"/><path d="M177-190C167-65 218 103 67 71c-23-6-38-20-44-43l32-5c15 47 100 32 89-28v-30C133-14 115 1 83 1 29 1 15-40 15-95c0-56 16-97 71-98 29-1 48 16 59 35 1-10 0-23 2-32h30zM94-22c36 0 50-32 50-73 0-42-14-75-50-75-39 0-46 34-46 75s6 73 46 73" id="T"/><path d="M24-231v-30h32v30H24zM24 0v-190h32V0H24" id="U"/><path d="M100-194c63 0 86 42 84 106H49c0 40 14 67 53 68 26 1 43-12 49-29l28 8c-11 28-37 45-77 45C44 4 14-33 15-96c1-61 26-98 85-98zm52 81c6-60-76-77-97-28-3 7-6 17-6 28h103" id="V"/><g id="b"><use transform="matrix(0.25308641975308593,0,0,0.25308641975308593,0,0)" xlink:href="#R"/><use transform="matrix(0.25308641975308593,0,0,0.25308641975308593,60.74074074074063,0)" xlink:href="#S"/><use transform="matrix(0.25308641975308593,0,0,0.25308641975308593,111.35802469135781,0)" xlink:href="#T"/><use transform="matrix(0.25308641975308593,0,0,0.25308641975308593,161.975308641975,0)" xlink:href="#U"/><use transform="matrix(0.25308641975308593,0,0,0.25308641975308593,181.9691358024688,0)" xlink:href="#S"/><use transform="matrix(0.25308641975308593,0,0,0.25308641975308593,232.58641975308598,0)" xlink:href="#V"/></g><path fill="#3a414a" d="M205 0l-28-72H64L36 0H1l101-248h38L239 0h-34zm-38-99l-47-123c-12 45-31 82-46 123h93" id="W"/><path fill="#3a414a" d="M30 0v-248h33v221h125V0H30" id="X"/><path fill="#3a414a" d="M232-93c-1 65-40 97-104 97C67 4 28-28 28-90v-158h33c8 89-33 224 67 224 102 0 64-133 71-224h33v155" id="Y"/><g id="c"><use transform="matrix(0.20987654320987628,0,0,0.20987654320987628,0,0)" xlink:href="#W"/><use transform="matrix(0.20987654320987628,0,0,0.20987654320987628,50.37037037037031,0)" xlink:href="#X"/><use transform="matrix(0.20987654320987628,0,0,0.20987654320987628,92.34567901234556,0)" xlink:href="#Y"/></g><path fill="#3a414a" d="M240 0l2-218c-23 76-54 145-80 218h-23L58-218 59 0H30v-248h44l77 211c21-75 51-140 76-211h43V0h-30" id="Z"/><path fill="#3a414a" d="M100-194c62-1 85 37 85 99 1 63-27 99-86 99S16-35 15-95c0-66 28-99 85-99zM99-20c44 1 53-31 53-75 0-43-8-75-51-75s-53 32-53 75 10 74 51 75" id="aa"/><path fill="#3a414a" d="M85-194c31 0 48 13 60 33l-1-100h32l1 261h-30c-2-10 0-23-3-31C134-8 116 4 85 4 32 4 16-35 15-94c0-66 23-100 70-100zm9 24c-40 0-46 34-46 75 0 40 6 74 45 74 42 0 51-32 51-76 0-42-9-74-50-73" id="ab"/><path fill="#3a414a" d="M100-194c63 0 86 42 84 106H49c0 40 14 67 53 68 26 1 43-12 49-29l28 8c-11 28-37 45-77 45C44 4 14-33 15-96c1-61 26-98 85-98zm52 81c6-60-76-77-97-28-3 7-6 17-6 28h103" id="ac"/><g id="d"><use transform="matrix(0.20987654320987628,0,0,0.20987654320987628,0,0)" xlink:href="#Z"/><use transform="matrix(0.20987654320987628,0,0,0.20987654320987628,62.75308641975301,0)" xlink:href="#aa"/><use transform="matrix(0.20987654320987628,0,0,0.20987654320987628,104.72839506172826,0)" xlink:href="#ab"/><use transform="matrix(0.20987654320987628,0,0,0.20987654320987628,146.70370370370352,0)" xlink:href="#ac"/></g><path fill="#3a414a" d="M140-251c80 0 125 45 125 126S219 4 139 4C58 4 15-44 15-125s44-126 125-126zm-1 214c52 0 73-35 73-88 0-50-21-86-72-86-52 0-73 35-73 86s22 88 72 88" id="ad"/><path fill="#3a414a" d="M135-194c53 0 70 44 70 98 0 56-19 98-73 100-31 1-45-17-59-34 3 33 2 69 2 105H25l-1-265h48c2 10 0 23 3 31 11-24 29-35 60-35zM114-30c33 0 39-31 40-66 0-38-9-64-40-64-56 0-55 130 0 130" id="ae"/><path fill="#3a414a" d="M185-48c-13 30-37 53-82 52C43 2 14-33 14-96s30-98 90-98c62 0 83 45 84 108H66c0 31 8 55 39 56 18 0 30-7 34-22zm-45-69c5-46-57-63-70-21-2 6-4 13-4 21h74" id="af"/><path fill="#3a414a" d="M135-150c-39-12-60 13-60 57V0H25l-1-190h47c2 13-1 29 3 40 6-28 27-53 61-41v41" id="ag"/><path fill="#3a414a" d="M133-34C117-15 103 5 69 4 32 3 11-16 11-54c-1-60 55-63 116-61 1-26-3-47-28-47-18 1-26 9-28 27l-52-2c7-38 36-58 82-57s74 22 75 68l1 82c-1 14 12 18 25 15v27c-30 8-71 5-69-32zm-48 3c29 0 43-24 42-57-32 0-66-3-65 30 0 17 8 27 23 27" id="ah"/><path fill="#3a414a" d="M115-3C79 11 28 4 28-45v-112H4v-33h27l15-45h31v45h36v33H77v99c-1 23 16 31 38 25v30" id="ai"/><path fill="#3a414a" d="M25-224v-37h50v37H25zM25 0v-190h50V0H25" id="aj"/><path fill="#3a414a" d="M110-194c64 0 96 36 96 99 0 64-35 99-97 99-61 0-95-36-95-99 0-62 34-99 96-99zm-1 164c35 0 45-28 45-65 0-40-10-65-43-65-34 0-45 26-45 65 0 36 10 65 43 65" id="ak"/><path fill="#3a414a" d="M135-194c87-1 58 113 63 194h-50c-7-57 23-157-34-157-59 0-34 97-39 157H25l-1-190h47c2 12-1 28 3 38 12-26 28-41 61-42" id="al"/><g id="e"><use transform="matrix(0.10493827160493828,0,0,0.10493827160493828,0,0)" xlink:href="#ad"/><use transform="matrix(0.10493827160493828,0,0,0.10493827160493828,29.38271604938272,0)" xlink:href="#ae"/><use transform="matrix(0.10493827160493828,0,0,0.10493827160493828,52.3641975308642,0)" xlink:href="#af"/><use transform="matrix(0.10493827160493828,0,0,0.10493827160493828,73.35185185185186,0)" xlink:href="#ag"/><use transform="matrix(0.10493827160493828,0,0,0.10493827160493828,88.04320987654322,0)" xlink:href="#ah"/><use transform="matrix(0.10493827160493828,0,0,0.10493827160493828,109.03086419753087,0)" xlink:href="#ai"/><use transform="matrix(0.10493827160493828,0,0,0.10493827160493828,121.51851851851853,0)" xlink:href="#aj"/><use transform="matrix(0.10493827160493828,0,0,0.10493827160493828,132.01234567901236,0)" xlink:href="#ak"/><use transform="matrix(0.10493827160493828,0,0,0.10493827160493828,154.99382716049385,0)" xlink:href="#al"/></g><path fill="#3a414a" d="M52 0c1-96 47-148 87-207H15v-41h169v40c-36 62-79 113-81 208H52" id="am"/><use transform="matrix(0.10493827160493828,0,0,0.10493827160493828,0,0)" xlink:href="#am" id="f"/><path fill="#3a414a" d="M182-130c37 4 62 22 62 59C244 23 116-4 24 0v-248c84 5 203-23 205 63 0 31-19 50-47 55zM76-148c40-3 101 13 101-30 0-44-60-28-101-31v61zm0 110c48-3 116 14 116-37 0-48-69-32-116-35v72" id="an"/><path fill="#3a414a" d="M137-138c1-29-70-34-71-4 15 46 118 7 119 86 1 83-164 76-172 9l43-7c4 19 20 25 44 25 33 8 57-30 24-41C81-84 22-81 20-136c-2-80 154-74 161-7" id="ao"/><g id="g"><use transform="matrix(0.10493827160493828,0,0,0.10493827160493828,0,0)" xlink:href="#an"/><use transform="matrix(0.10493827160493828,0,0,0.10493827160493828,27.179012345679013,0)" xlink:href="#aj"/><use transform="matrix(0.10493827160493828,0,0,0.10493827160493828,37.67283950617284,0)" xlink:href="#ai"/><use transform="matrix(0.10493827160493828,0,0,0.10493827160493828,50.160493827160494,0)" xlink:href="#ao"/></g><path d="M1034 0L896-382H333L196 0H0l510-1349h217L1228 0h-194zM847-531c-77-225-157-447-231-674-69 231-154 451-232 674h463" id="ap"/><path d="M650-1214c-281 0-336 244-336 533 0 295 60 546 347 546 188 0 263-142 322-282l159 65C1058-155 935 20 659 20c-401 0-546-295-546-701 0-407 135-689 536-689 264 0 391 146 466 335l-168 65c-47-129-127-244-297-244" id="aq"/><path d="M604-135c236 0 291-142 291-376v-838h190v859c5 340-142 510-480 510-326 0-463-164-463-492v-877h191v851c-3 222 46 363 271 363" id="ar"/><path d="M285-1169c8 382 2 780 4 1169H129v-1349h237c86 239 188 461 253 720 69-258 169-481 255-720h225V0H937c2-390-5-788 6-1169-75 255-170 488-259 729H547c-90-240-185-475-262-729" id="as"/><g id="h"><use transform="matrix(0.028211805555555528,0,0,0.028211805555555528,0,0)" xlink:href="#ap"/><use transform="matrix(0.028211805555555528,0,0,0.028211805555555528,34.67230902777774,0)" xlink:href="#aq"/><use transform="matrix(0.028211805555555528,0,0,0.028211805555555528,69.34461805555549,0)" xlink:href="#aq"/><use transform="matrix(0.028211805555555528,0,0,0.028211805555555528,104.01692708333323,0)" xlink:href="#ar"/><use transform="matrix(0.028211805555555528,0,0,0.028211805555555528,138.68923611111097,0)" xlink:href="#as"/></g><path fill="#3a414a" d="M169-182c-1-43-94-46-97-3 18 66 151 10 154 114 3 95-165 93-204 36-6-8-10-19-12-30l50-8c3 46 112 56 116 5-17-69-150-10-154-114-4-87 153-88 188-35 5 8 8 18 10 28" id="at"/><path fill="#3a414a" d="M84 4C32 4 15-41 15-95c0-55 18-99 73-99 29 0 47 12 58 34l2-30h48l-1 265h-49V-32C136-9 114 4 84 4zm21-34c32 0 41-29 41-66 0-36-9-64-40-64-33 0-39 30-40 65 0 43 13 65 39 65" id="au"/><path fill="#3a414a" d="M85 4C-2 5 27-109 22-190h50c7 57-23 150 33 157 60-5 35-97 40-157h50l1 190h-47c-2-12 1-28-3-38-12 25-28 42-61 42" id="av"/><path fill="#3a414a" d="M190-63c-7 42-38 67-86 67-59 0-84-38-90-98-12-110 154-137 174-36l-49 2c-2-19-15-32-35-32-30 0-35 28-38 64-6 74 65 87 74 30" id="aw"/><g id="i"><use transform="matrix(0.11728395061728389,0,0,0.11728395061728389,0,0)" xlink:href="#at"/><use transform="matrix(0.11728395061728389,0,0,0.11728395061728389,28.148148148148135,0)" xlink:href="#af"/><use transform="matrix(0.11728395061728389,0,0,0.11728395061728389,51.60493827160491,0)" xlink:href="#au"/><use transform="matrix(0.11728395061728389,0,0,0.11728395061728389,77.29012345679008,0)" xlink:href="#av"/><use transform="matrix(0.11728395061728389,0,0,0.11728395061728389,102.97530864197526,0)" xlink:href="#af"/><use transform="matrix(0.11728395061728389,0,0,0.11728395061728389,126.43209876543203,0)" xlink:href="#al"/><use transform="matrix(0.11728395061728389,0,0,0.11728395061728389,152.1172839506172,0)" xlink:href="#aw"/><use transform="matrix(0.11728395061728389,0,0,0.11728395061728389,175.574074074074,0)" xlink:href="#af"/></g><path fill="#3a414a" d="M23 0v-37h61v-169l-59 37v-38l62-41h46v211h57V0H23" id="ax"/><path fill="#3a414a" d="M115-159c48 0 72 30 72 78 0 54-30 85-83 85-64 0-91-50-91-122 0-98 58-163 141-120 15 8 21 24 27 44l-47 6c-5-31-48-31-61-4-7 14-11 33-11 60 9-17 28-27 53-27zM102-35c24 0 36-20 36-45s-11-43-37-43c-23 0-36 14-36 38 0 27 11 50 37 50" id="ay"/><g id="j"><use transform="matrix(0.11728395061728389,0,0,0.11728395061728389,0,0)" xlink:href="#ax"/><use transform="matrix(0.11728395061728389,0,0,0.11728395061728389,23.456790123456777,0)" xlink:href="#ay"/></g><g id="k"><use transform="matrix(0.11728395061728389,0,0,0.11728395061728389,0,0)" xlink:href="#an"/><use transform="matrix(0.11728395061728389,0,0,0.11728395061728389,30.376543209876527,0)" xlink:href="#aj"/><use transform="matrix(0.11728395061728389,0,0,0.11728395061728389,42.104938271604915,0)" xlink:href="#ai"/><use transform="matrix(0.11728395061728389,0,0,0.11728395061728389,56.0617283950617,0)" xlink:href="#ao"/></g><path fill="#0c7cba" d="M528 20c-247 0-343-132-343-381v-721h180v686c-4 177 45 284 224 277 194-8 279-136 279-336v-627h181c3 360-6 732 6 1082H885c-4-54-7-126-8-185h-3C809-64 714 20 528 20" id="az"/><use transform="matrix(0.032552083333333294,0,0,0.032552083333333294,0,0)" xlink:href="#az" id="l"/><path fill="#3a414a" d="M88-194c31-1 46 15 58 34l-1-101h50l1 261h-48c-2-10 0-23-3-31C134-8 116 4 84 4 32 4 16-41 15-95c0-56 19-97 73-99zm17 164c33 0 40-30 41-66 1-37-9-64-41-64s-38 30-39 65c0 43 13 65 39 65" id="aA"/><g id="m"><use transform="matrix(0.11728395061728389,0,0,0.11728395061728389,0,0)" xlink:href="#ak"/><use transform="matrix(0.11728395061728389,0,0,0.11728395061728389,25.685185185185173,0)" xlink:href="#ae"/><use transform="matrix(0.11728395061728389,0,0,0.11728395061728389,51.370370370370345,0)" xlink:href="#af"/><use transform="matrix(0.11728395061728389,0,0,0.11728395061728389,74.82716049382712,0)" xlink:href="#ag"/><use transform="matrix(0.11728395061728389,0,0,0.11728395061728389,91.24691358024687,0)" xlink:href="#ah"/><use transform="matrix(0.11728395061728389,0,0,0.11728395061728389,114.70370370370364,0)" xlink:href="#al"/><use transform="matrix(0.11728395061728389,0,0,0.11728395061728389,140.3888888888888,0)" xlink:href="#aA"/><use transform="matrix(0.11728395061728389,0,0,0.11728395061728389,166.07407407407396,0)" xlink:href="#ao"/></g><path fill="#3a414a" d="M128-127c34 4 56 21 59 58 7 91-148 94-172 28-4-9-6-17-7-26l51-5c1 24 16 35 40 36 23 0 39-12 38-36-1-31-31-36-65-34v-40c32 2 59-3 59-33 0-20-13-33-34-33s-33 13-35 32l-50-3c6-44 37-68 86-68 50 0 83 20 83 66 0 35-22 52-53 58" id="aB"/><path fill="#3a414a" d="M182-182c0 78-84 86-111 141h115V0H12c-6-101 99-100 120-180 1-22-12-31-33-32-23 0-32 14-35 34l-49-3c5-45 32-70 84-70 51 0 83 22 83 69" id="aC"/><g id="n"><use transform="matrix(0.11728395061728389,0,0,0.11728395061728389,0,0)" xlink:href="#aB"/><use transform="matrix(0.11728395061728389,0,0,0.11728395061728389,23.456790123456777,0)" xlink:href="#aC"/></g><path fill="#3a414a" d="M123 10C108 53 80 86 19 72V37c35 8 53-11 59-39L3-190h52l48 148c12-52 28-100 44-148h51" id="aD"/><g id="o"><use transform="matrix(0.11728395061728389,0,0,0.11728395061728389,0,0)" xlink:href="#an"/><use transform="matrix(0.11728395061728389,0,0,0.11728395061728389,30.376543209876527,0)" xlink:href="#aD"/><use transform="matrix(0.11728395061728389,0,0,0.11728395061728389,53.8333333333333,0)" xlink:href="#ai"/><use transform="matrix(0.11728395061728389,0,0,0.11728395061728389,67.79012345679008,0)" xlink:href="#af"/><use transform="matrix(0.11728395061728389,0,0,0.11728395061728389,91.24691358024685,0)" xlink:href="#ao"/></g><path fill="#0c7cba" d="M865-914c-3-187-2-380-2-570h180v1261c0 76 1 155 6 223H877c-8-49-9-116-10-174h-5C801-44 708 26 530 26c-135 0-234-46-297-139s-95-232-95-419c0-377 131-566 392-566 176 0 271 63 335 184zm-286-51c-222 0-255 197-255 427 0 229 31 425 253 425 237 0 286-195 286-441 0-238-52-411-284-411" id="aE"/><path fill="#0c7cba" d="M745-142h380V0H143v-142h422v-798H246v-142h499v940zM545-1292v-192h200v192H545" id="aF"/><path fill="#0c7cba" d="M715 0H502L69-1082h202c94 253 197 500 285 758 19 57 36 126 52 183 96-335 234-626 350-941h201" id="aG"/><path fill="#0c7cba" d="M650-1214c-281 0-336 244-336 533 0 295 60 546 347 546 188 0 263-142 322-282l159 65C1058-155 935 20 659 20c-401 0-546-295-546-701 0-407 135-689 536-689 264 0 391 146 466 335l-168 65c-47-129-127-244-297-244" id="aH"/><path fill="#0c7cba" d="M736-142h380V0H134v-142h422v-1200H267v-142h469v1342" id="aI"/><path fill="#0c7cba" d="M1000-272c3 95 12 159 101 161 21 0 41-3 59-7V-6c-44 10-86 16-139 16-141 2-191-84-197-217h-6C748-76 648 20 446 20c-207 0-318-120-318-322 0-266 194-348 454-354l236-4c12-191-40-305-222-305-140 0-220 47-232 172l-188-17c33-204 181-292 423-292 255 0 401 118 401 364v466zm-683-27c0 109 63 184 175 182 166-3 259-96 306-217 24-65 20-120 20-200-232 7-501-28-501 235" id="aJ"/><path fill="#0c7cba" d="M873-819c-18-114-119-146-250-146-163 0-245 50-245 151 0 151 170 148 294 185 182 54 388 94 388 320 0 240-189 325-439 329-245 4-410-69-454-268l159-31c24 133 136 168 295 165 144-2 270-31 270-171 0-164-195-160-331-202-167-52-350-87-350-299 0-218 173-315 413-313 220 2 373 77 412 260" id="aK"/><path fill="#0c7cba" d="M617-1102c355 0 481 238 477 599H322c5 222 84 388 301 388 144 0 244-59 284-166l158 45C1002-72 854 20 623 20c-342 0-490-220-490-568 0-346 151-554 484-554zm291 461c-18-192-90-328-289-328-194 0-287 128-295 328h584" id="aL"/><path d="M410 425v-1909h547v139H590V286h367v139H410" id="aM"/><path d="M270 425V286h367v-1631H270v-139h547V425H270" id="aN"/><g id="p"><use transform="matrix(0.032552083333333294,0,0,0.032552083333333294,0,0)" xlink:href="#aE"/><use transform="matrix(0.032552083333333294,0,0,0.032552083333333294,40.00651041666662,0)" xlink:href="#aF"/><use transform="matrix(0.032552083333333294,0,0,0.032552083333333294,80.01302083333324,0)" xlink:href="#aG"/><use transform="matrix(0.032552083333333294,0,0,0.032552083333333294,120.01953124999986,0)" xlink:href="#aH"/><use transform="matrix(0.032552083333333294,0,0,0.032552083333333294,160.0260416666665,0)" xlink:href="#aI"/><use transform="matrix(0.032552083333333294,0,0,0.032552083333333294,200.03255208333312,0)" xlink:href="#aJ"/><use transform="matrix(0.032552083333333294,0,0,0.032552083333333294,240.03906249999974,0)" xlink:href="#az"/><use transform="matrix(0.032552083333333294,0,0,0.032552083333333294,280.04557291666634,0)" xlink:href="#aK"/><use transform="matrix(0.032552083333333294,0,0,0.032552083333333294,320.052083333333,0)" xlink:href="#aL"/><use transform="matrix(0.032552083333333294,0,0,0.032552083333333294,360.0585937499996,0)" xlink:href="#aM"/><use transform="matrix(0.032552083333333294,0,0,0.032552083333333294,400.06510416666623,0)" xlink:href="#az"/><use transform="matrix(0.032552083333333294,0,0,0.032552083333333294,440.07161458333286,0)" xlink:href="#aN"/></g><path fill="#3a414a" d="M240-174c0 40-23 61-54 70L253 0h-59l-57-94H76V0H24v-248c93 4 217-23 216 74zM76-134c48-2 112 12 112-38 0-48-66-32-112-35v73" id="aO"/><path fill="#3a414a" d="M25 0v-261h50V0H25" id="aP"/><g id="q"><use transform="matrix(0.11728395061728389,0,0,0.11728395061728389,0,0)" xlink:href="#aO"/><use transform="matrix(0.11728395061728389,0,0,0.11728395061728389,30.376543209876527,0)" xlink:href="#af"/><use transform="matrix(0.11728395061728389,0,0,0.11728395061728389,53.8333333333333,0)" xlink:href="#ao"/><use transform="matrix(0.11728395061728389,0,0,0.11728395061728389,77.29012345679007,0)" xlink:href="#av"/><use transform="matrix(0.11728395061728389,0,0,0.11728395061728389,102.97530864197525,0)" xlink:href="#aP"/><use transform="matrix(0.11728395061728389,0,0,0.11728395061728389,114.70370370370364,0)" xlink:href="#ai"/></g><path fill="#3a414a" d="M165-50V0h-47v-50H5v-38l105-160h55v161h33v37h-33zm-47-37l2-116L46-87h72" id="aQ"/><use transform="matrix(0.11728395061728389,0,0,0.11728395061728389,0,0)" xlink:href="#aQ" id="r"/><path d="M614-1226c-167 1-283 53-283 213 0 183 186 193 334 234 230 63 463 120 463 409 0 286-219 387-518 390C309 23 131-98 79-338l185-37c34 165 149 248 351 246 184-2 324-58 324-238 0-203-207-221-372-266-210-57-422-111-422-377 0-267 201-356 470-360 279-5 430 101 480 324l-188 33c-28-141-121-215-293-213" id="aR"/><path d="M528 20c-247 0-343-132-343-381v-721h180v686c-4 177 45 284 224 277 194-8 279-136 279-336v-627h181c3 360-6 732 6 1082H885c-4-54-7-126-8-185h-3C809-64 714 20 528 20" id="aS"/><path d="M904-1102c199 0 220 177 220 381V0H956v-686c-3-114 0-215-60-264-70-33-125-4-158 71-26 56-39 140-39 252V0H531v-686c-3-114-1-215-61-264-78-41-136 24-157 84-24 69-39 159-39 259V0H105c-3-360 6-732-6-1082h149c6 50 3 123 8 175 36-100 83-195 216-195 135 0 166 79 196 196 42-105 93-196 236-196" id="aT"/><g id="s"><use transform="matrix(0.032552083333333294,0,0,0.032552083333333294,0,0)" xlink:href="#aR"/><use transform="matrix(0.032552083333333294,0,0,0.032552083333333294,40.00651041666662,0)" xlink:href="#aS"/><use transform="matrix(0.032552083333333294,0,0,0.032552083333333294,80.01302083333324,0)" xlink:href="#aT"/></g><path fill="#008a0e" d="M212-179c-10-28-35-45-73-45-59 0-87 40-87 99 0 60 29 101 89 101 43 0 62-24 78-52l27 14C228-24 195 4 139 4 59 4 22-46 18-125c-6-104 99-153 187-111 19 9 31 26 39 46" id="aU"/><path fill="#008a0e" d="M100-194c62-1 85 37 85 99 1 63-27 99-86 99S16-35 15-95c0-66 28-99 85-99zM99-20c44 1 53-31 53-75 0-43-8-75-51-75s-53 32-53 75 10 74 51 75" id="aV"/><path fill="#008a0e" d="M117-194c89-4 53 116 60 194h-32v-121c0-31-8-49-39-48C34-167 62-67 57 0H25l-1-190h30c1 10-1 24 2 32 11-22 29-35 61-36" id="aW"/><path fill="#008a0e" d="M59-47c-2 24 18 29 38 22v24C64 9 27 4 27-40v-127H5v-23h24l9-43h21v43h35v23H59v120" id="aX"/><path fill="#008a0e" d="M114-163C36-179 61-72 57 0H25l-1-190h30c1 12-1 29 2 39 6-27 23-49 58-41v29" id="aY"/><path fill="#008a0e" d="M24 0v-261h32V0H24" id="aZ"/><g id="t"><use transform="matrix(0.11728395061728328,0,0,0.11728395061728328,0,0)" xlink:href="#aU"/><use transform="matrix(0.11728395061728328,0,0,0.11728395061728328,30.37654320987637,0)" xlink:href="#aV"/><use transform="matrix(0.11728395061728328,0,0,0.11728395061728328,53.83333333333303,0)" xlink:href="#aW"/><use transform="matrix(0.11728395061728328,0,0,0.11728395061728328,77.29012345678969,0)" xlink:href="#aX"/><use transform="matrix(0.11728395061728328,0,0,0.11728395061728328,89.01851851851802,0)" xlink:href="#aY"/><use transform="matrix(0.11728395061728328,0,0,0.11728395061728328,102.97530864197473,0)" xlink:href="#aV"/><use transform="matrix(0.11728395061728328,0,0,0.11728395061728328,126.4320987654314,0)" xlink:href="#aZ"/></g><path fill="#e81313" d="M240 0l2-218c-23 76-54 145-80 218h-23L58-218 59 0H30v-248h44l77 211c21-75 51-140 76-211h43V0h-30" id="ba"/><path fill="#e81313" d="M100-194c63 0 86 42 84 106H49c0 40 14 67 53 68 26 1 43-12 49-29l28 8c-11 28-37 45-77 45C44 4 14-33 15-96c1-61 26-98 85-98zm52 81c6-60-76-77-97-28-3 7-6 17-6 28h103" id="bb"/><path fill="#e81313" d="M210-169c-67 3-38 105-44 169h-31v-121c0-29-5-50-35-48C34-165 62-65 56 0H25l-1-190h30c1 10-1 24 2 32 10-44 99-50 107 0 11-21 27-35 58-36 85-2 47 119 55 194h-31v-121c0-29-5-49-35-48" id="bc"/><path fill="#e81313" d="M100-194c62-1 85 37 85 99 1 63-27 99-86 99S16-35 15-95c0-66 28-99 85-99zM99-20c44 1 53-31 53-75 0-43-8-75-51-75s-53 32-53 75 10 74 51 75" id="bd"/><path fill="#e81313" d="M114-163C36-179 61-72 57 0H25l-1-190h30c1 12-1 29 2 39 6-27 23-49 58-41v29" id="be"/><path fill="#e81313" d="M179-190L93 31C79 59 56 82 12 73V49c39 6 53-20 64-50L1-190h34L92-34l54-156h33" id="bf"/><g id="u"><use transform="matrix(0.11728395061728328,0,0,0.11728395061728328,0,0)" xlink:href="#ba"/><use transform="matrix(0.11728395061728328,0,0,0.11728395061728328,35.0679012345677,0)" xlink:href="#bb"/><use transform="matrix(0.11728395061728328,0,0,0.11728395061728328,58.524691358024356,0)" xlink:href="#bc"/><use transform="matrix(0.11728395061728328,0,0,0.11728395061728328,93.59259259259206,0)" xlink:href="#bd"/><use transform="matrix(0.11728395061728328,0,0,0.11728395061728328,117.04938271604871,0)" xlink:href="#be"/><use transform="matrix(0.11728395061728328,0,0,0.11728395061728328,131.0061728395054,0)" xlink:href="#bf"/></g><path d="M687-608v428H540v-428H116v-146h424v-428h147v428h424v146H687" id="bg"/><g id="v"><use transform="matrix(0.03255208333333332,0,0,0.03255208333333332,0,0)" xlink:href="#aR"/><use transform="matrix(0.03255208333333332,0,0,0.03255208333333332,40.00651041666665,0)" xlink:href="#aS"/><use transform="matrix(0.03255208333333332,0,0,0.03255208333333332,80.0130208333333,0)" xlink:href="#aT"/><use transform="matrix(0.03255208333333332,0,0,0.03255208333333332,120.01953124999994,0)" xlink:href="#bg"/><use transform="matrix(0.03255208333333332,0,0,0.03255208333333332,160.0260416666666,0)" xlink:href="#aE"/><use transform="matrix(0.03255208333333332,0,0,0.03255208333333332,200.03255208333326,0)" xlink:href="#aF"/><use transform="matrix(0.03255208333333332,0,0,0.03255208333333332,240.03906249999991,0)" xlink:href="#aG"/><use transform="matrix(0.03255208333333332,0,0,0.03255208333333332,280.0455729166666,0)" xlink:href="#aH"/><use transform="matrix(0.03255208333333332,0,0,0.03255208333333332,320.0520833333332,0)" xlink:href="#aI"/><use transform="matrix(0.03255208333333332,0,0,0.03255208333333332,360.05859374999983,0)" xlink:href="#aJ"/><use transform="matrix(0.03255208333333332,0,0,0.03255208333333332,400.06510416666646,0)" xlink:href="#az"/><use transform="matrix(0.03255208333333332,0,0,0.03255208333333332,440.07161458333303,0)" xlink:href="#aK"/><use transform="matrix(0.03255208333333332,0,0,0.03255208333333332,480.0781249999997,0)" xlink:href="#aL"/><use transform="matrix(0.03255208333333332,0,0,0.03255208333333332,520.0846354166664,0)" xlink:href="#aM"/><use transform="matrix(0.03255208333333332,0,0,0.03255208333333332,560.091145833333,0)" xlink:href="#az"/><use transform="matrix(0.03255208333333332,0,0,0.03255208333333332,600.0976562499997,0)" xlink:href="#aN"/></g><g id="w"><use transform="matrix(0.18518518518518487,0,0,0.18518518518518487,0,0)" xlink:href="#O"/><use transform="matrix(0.18518518518518487,0,0,0.18518518518518487,44.44444444444437,0)" xlink:href="#P"/><use transform="matrix(0.18518518518518487,0,0,0.18518518518518487,81.48148148148135,0)" xlink:href="#Q"/></g><g id="x"><use transform="matrix(0.026041666666666668,0,0,0.026041666666666668,0,0)" xlink:href="#aE"/><use transform="matrix(0.026041666666666668,0,0,0.026041666666666668,32.005208333333336,0)" xlink:href="#aF"/><use transform="matrix(0.026041666666666668,0,0,0.026041666666666668,64.01041666666667,0)" xlink:href="#aG"/><use transform="matrix(0.026041666666666668,0,0,0.026041666666666668,96.015625,0)" xlink:href="#aH"/><use transform="matrix(0.026041666666666668,0,0,0.026041666666666668,128.02083333333334,0)" xlink:href="#aI"/><use transform="matrix(0.026041666666666668,0,0,0.026041666666666668,160.02604166666669,0)" xlink:href="#aJ"/><use transform="matrix(0.026041666666666668,0,0,0.026041666666666668,192.03125000000003,0)" xlink:href="#az"/><use transform="matrix(0.026041666666666668,0,0,0.026041666666666668,224.0364583333334,0)" xlink:href="#aK"/><use transform="matrix(0.026041666666666668,0,0,0.026041666666666668,256.0416666666667,0)" xlink:href="#aL"/><use transform="matrix(0.026041666666666668,0,0,0.026041666666666668,288.046875,0)" xlink:href="#aM"/><use transform="matrix(0.026041666666666668,0,0,0.026041666666666668,320.0520833333333,0)" xlink:href="#az"/><use transform="matrix(0.026041666666666668,0,0,0.026041666666666668,352.05729166666663,0)" xlink:href="#aN"/></g><g id="y"><use transform="matrix(0.026041666666666668,0,0,0.026041666666666668,0,0)" xlink:href="#aR"/><use transform="matrix(0.026041666666666668,0,0,0.026041666666666668,32.005208333333336,0)" xlink:href="#aS"/><use transform="matrix(0.026041666666666668,0,0,0.026041666666666668,64.01041666666667,0)" xlink:href="#aT"/></g><path fill="#0c7cba" d="M160-131c35 5 61 23 61 61C221 17 115-2 30 0v-248c76 3 177-17 177 60 0 33-19 50-47 57zm-97-11c50-1 110 9 110-42 0-47-63-36-110-37v79zm0 115c55-2 124 14 124-45 0-56-70-42-124-44v89" id="bh"/><path fill="#0c7cba" d="M84 4C-5 8 30-112 23-190h32v120c0 31 7 50 39 49 72-2 45-101 50-169h31l1 190h-30c-1-10 1-25-2-33-11 22-28 36-60 37" id="bi"/><path fill="#0c7cba" d="M117-194c89-4 53 116 60 194h-32v-121c0-31-8-49-39-48C34-167 62-67 57 0H25l-1-190h30c1 10-1 24 2 32 11-22 29-35 61-36" id="bj"/><path fill="#0c7cba" d="M85-194c31 0 48 13 60 33l-1-100h32l1 261h-30c-2-10 0-23-3-31C134-8 116 4 85 4 32 4 16-35 15-94c0-66 23-100 70-100zm9 24c-40 0-46 34-46 75 0 40 6 74 45 74 42 0 51-32 51-76 0-42-9-74-50-73" id="bk"/><path fill="#0c7cba" d="M24 0v-261h32V0H24" id="bl"/><path fill="#0c7cba" d="M100-194c63 0 86 42 84 106H49c0 40 14 67 53 68 26 1 43-12 49-29l28 8c-11 28-37 45-77 45C44 4 14-33 15-96c1-61 26-98 85-98zm52 81c6-60-76-77-97-28-3 7-6 17-6 28h103" id="bm"/><g id="z"><use transform="matrix(0.29629629629629634,0,0,0.29629629629629634,0,0)" xlink:href="#bh"/><use transform="matrix(0.29629629629629634,0,0,0.29629629629629634,71.11111111111111,0)" xlink:href="#bi"/><use transform="matrix(0.29629629629629634,0,0,0.29629629629629634,130.37037037037038,0)" xlink:href="#bj"/><use transform="matrix(0.29629629629629634,0,0,0.29629629629629634,189.62962962962965,0)" xlink:href="#bk"/><use transform="matrix(0.29629629629629634,0,0,0.29629629629629634,248.8888888888889,0)" xlink:href="#bl"/><use transform="matrix(0.29629629629629634,0,0,0.29629629629629634,272.2962962962963,0)" xlink:href="#bm"/></g><path fill="#0c7cba" d="M101-251c68 0 85 55 85 127S166 4 100 4C33 4 14-52 14-124c0-73 17-127 87-127zm-1 229c47 0 54-49 54-102s-4-102-53-102c-51 0-55 48-55 102 0 53 5 102 54 102" id="bn"/><use transform="matrix(0.29629629629629634,0,0,0.29629629629629634,0,0)" xlink:href="#bn" id="A"/><path fill="#008573" d="M160-131c35 5 61 23 61 61C221 17 115-2 30 0v-248c76 3 177-17 177 60 0 33-19 50-47 57zm-97-11c50-1 110 9 110-42 0-47-63-36-110-37v79zm0 115c55-2 124 14 124-45 0-56-70-42-124-44v89" id="bo"/><path fill="#008573" d="M84 4C-5 8 30-112 23-190h32v120c0 31 7 50 39 49 72-2 45-101 50-169h31l1 190h-30c-1-10 1-25-2-33-11 22-28 36-60 37" id="bp"/><path fill="#008573" d="M117-194c89-4 53 116 60 194h-32v-121c0-31-8-49-39-48C34-167 62-67 57 0H25l-1-190h30c1 10-1 24 2 32 11-22 29-35 61-36" id="bq"/><path fill="#008573" d="M85-194c31 0 48 13 60 33l-1-100h32l1 261h-30c-2-10 0-23-3-31C134-8 116 4 85 4 32 4 16-35 15-94c0-66 23-100 70-100zm9 24c-40 0-46 34-46 75 0 40 6 74 45 74 42 0 51-32 51-76 0-42-9-74-50-73" id="br"/><path fill="#008573" d="M24 0v-261h32V0H24" id="bs"/><path fill="#008573" d="M100-194c63 0 86 42 84 106H49c0 40 14 67 53 68 26 1 43-12 49-29l28 8c-11 28-37 45-77 45C44 4 14-33 15-96c1-61 26-98 85-98zm52 81c6-60-76-77-97-28-3 7-6 17-6 28h103" id="bt"/><g id="B"><use transform="matrix(0.29629629629629634,0,0,0.29629629629629634,0,0)" xlink:href="#bo"/><use transform="matrix(0.29629629629629634,0,0,0.29629629629629634,71.11111111111111,0)" xlink:href="#bp"/><use transform="matrix(0.29629629629629634,0,0,0.29629629629629634,130.37037037037038,0)" xlink:href="#bq"/><use transform="matrix(0.29629629629629634,0,0,0.29629629629629634,189.62962962962965,0)" xlink:href="#br"/><use transform="matrix(0.29629629629629634,0,0,0.29629629629629634,248.8888888888889,0)" xlink:href="#bs"/><use transform="matrix(0.29629629629629634,0,0,0.29629629629629634,272.2962962962963,0)" xlink:href="#bt"/></g><path fill="#008573" d="M27 0v-27h64v-190l-56 39v-29l58-41h29v221h61V0H27" id="bu"/><use transform="matrix(0.29629629629629634,0,0,0.29629629629629634,0,0)" xlink:href="#bu" id="C"/><path d="M873-819c-18-114-119-146-250-146-163 0-245 50-245 151 0 151 170 148 294 185 182 54 388 94 388 320 0 240-189 325-439 329-245 4-410-69-454-268l159-31c24 133 136 168 295 165 144-2 270-31 270-171 0-164-195-160-331-202-167-52-350-87-350-299 0-218 173-315 413-313 220 2 373 77 412 260" id="bv"/><path d="M617-1102c355 0 481 238 477 599H322c5 222 84 388 301 388 144 0 244-59 284-166l158 45C1002-72 854 20 623 20c-342 0-490-220-490-568 0-346 151-554 484-554zm291 461c-18-192-90-328-289-328-194 0-287 128-295 328h584" id="bw"/><path d="M530 26c-303-6-392-228-392-558 0-187 33-329 98-424s162-142 293-142c178 0 273 69 334 184 1-56 3-122 12-169h175c-6 88-6 180-6 282V425H863c1-202-4-411 4-607h-2C805-59 713 29 530 26zm47-139c234 0 286-193 286-441 0-238-55-411-284-411-223 0-255 198-255 427 0 227 33 425 253 425" id="bx"/><g id="D"><use transform="matrix(0.026041666666666668,0,0,0.026041666666666668,0,0)" xlink:href="#bv"/><use transform="matrix(0.026041666666666668,0,0,0.026041666666666668,32.005208333333336,0)" xlink:href="#bw"/><use transform="matrix(0.026041666666666668,0,0,0.026041666666666668,64.01041666666667,0)" xlink:href="#bx"/></g><path d="M689-397H541l-24-951h196zM515 0v-201h194V0H515" id="by"/><path d="M116-856v-148h995v148H116zm0 512v-148h995v148H116" id="bz"/><g id="E"><use transform="matrix(0.026041666666666668,0,0,0.026041666666666668,0,0)" xlink:href="#by"/><use transform="matrix(0.026041666666666668,0,0,0.026041666666666668,32.005208333333336,0)" xlink:href="#bz"/></g><path d="M698-1104c312 3 392 244 392 558 0 315-82 566-392 566-169 0-277-65-331-184h-5c8 188 2 394 4 589H185V-858c0-76-1-156-6-224h175c6 52 9 120 10 178h4c58-122 150-202 330-200zm-49 991c225 0 255-203 255-433 0-225-32-419-253-419-236 0-285 192-285 441 0 237 53 411 283 411" id="bA"/><path d="M839-1102c70 0 148 7 206 17v167c-112-18-268-36-363 15-129 69-208 203-208 395V0H294c-10-367 32-789-52-1082h171c21 75 41 161 48 250h5c67-152 152-270 373-270" id="bB"/><path d="M715 0H502L69-1082h202c94 253 197 500 285 758 19 57 36 126 52 183 96-335 234-626 350-941h201" id="bC"/><path d="M-5 220v-96h1238v96H-5" id="bD"/><g id="F"><use transform="matrix(0.026041666666666668,0,0,0.026041666666666668,0,0)" xlink:href="#bA"/><use transform="matrix(0.026041666666666668,0,0,0.026041666666666668,32.005208333333336,0)" xlink:href="#bB"/><use transform="matrix(0.026041666666666668,0,0,0.026041666666666668,64.01041666666667,0)" xlink:href="#bw"/><use transform="matrix(0.026041666666666668,0,0,0.026041666666666668,96.015625,0)" xlink:href="#bC"/><use transform="matrix(0.026041666666666668,0,0,0.026041666666666668,128.02083333333334,0)" xlink:href="#bD"/><use transform="matrix(0.026041666666666668,0,0,0.026041666666666668,160.02604166666669,0)" xlink:href="#bv"/><use transform="matrix(0.026041666666666668,0,0,0.026041666666666668,192.03125000000003,0)" xlink:href="#bw"/><use transform="matrix(0.026041666666666668,0,0,0.026041666666666668,224.0364583333334,0)" xlink:href="#bx"/></g><path fill="#fe7070" d="M160-131c35 5 61 23 61 61C221 17 115-2 30 0v-248c76 3 177-17 177 60 0 33-19 50-47 57zm-97-11c50-1 110 9 110-42 0-47-63-36-110-37v79zm0 115c55-2 124 14 124-45 0-56-70-42-124-44v89" id="bE"/><path fill="#fe7070" d="M84 4C-5 8 30-112 23-190h32v120c0 31 7 50 39 49 72-2 45-101 50-169h31l1 190h-30c-1-10 1-25-2-33-11 22-28 36-60 37" id="bF"/><path fill="#fe7070" d="M117-194c89-4 53 116 60 194h-32v-121c0-31-8-49-39-48C34-167 62-67 57 0H25l-1-190h30c1 10-1 24 2 32 11-22 29-35 61-36" id="bG"/><path fill="#fe7070" d="M85-194c31 0 48 13 60 33l-1-100h32l1 261h-30c-2-10 0-23-3-31C134-8 116 4 85 4 32 4 16-35 15-94c0-66 23-100 70-100zm9 24c-40 0-46 34-46 75 0 40 6 74 45 74 42 0 51-32 51-76 0-42-9-74-50-73" id="bH"/><path fill="#fe7070" d="M24 0v-261h32V0H24" id="bI"/><path fill="#fe7070" d="M100-194c63 0 86 42 84 106H49c0 40 14 67 53 68 26 1 43-12 49-29l28 8c-11 28-37 45-77 45C44 4 14-33 15-96c1-61 26-98 85-98zm52 81c6-60-76-77-97-28-3 7-6 17-6 28h103" id="bJ"/><g id="G"><use transform="matrix(0.29629629629629634,0,0,0.29629629629629634,0,0)" xlink:href="#bE"/><use transform="matrix(0.29629629629629634,0,0,0.29629629629629634,71.11111111111111,0)" xlink:href="#bF"/><use transform="matrix(0.29629629629629634,0,0,0.29629629629629634,130.37037037037038,0)" xlink:href="#bG"/><use transform="matrix(0.29629629629629634,0,0,0.29629629629629634,189.62962962962965,0)" xlink:href="#bH"/><use transform="matrix(0.29629629629629634,0,0,0.29629629629629634,248.8888888888889,0)" xlink:href="#bI"/><use transform="matrix(0.29629629629629634,0,0,0.29629629629629634,272.2962962962963,0)" xlink:href="#bJ"/></g><path fill="#fe7070" d="M126-127c33 6 58 20 58 59 0 88-139 92-164 29-3-8-5-16-6-25l32-3c6 27 21 44 54 44 32 0 52-15 52-46 0-38-36-46-79-43v-28c39 1 72-4 72-42 0-27-17-43-46-43-28 0-47 15-49 41l-32-3c6-42 35-63 81-64 48-1 79 21 79 65 0 36-21 52-52 59" id="bK"/><use transform="matrix(0.29629629629629634,0,0,0.29629629629629634,0,0)" xlink:href="#bK" id="H"/><path fill="#6db1ff" d="M30 0v-248h187v28H63v79h144v27H63v87h162V0H30" id="bL"/><path fill="#6db1ff" d="M117-194c89-4 53 116 60 194h-32v-121c0-31-8-49-39-48C34-167 62-67 57 0H25l-1-190h30c1 10-1 24 2 32 11-22 29-35 61-36" id="bM"/><path fill="#6db1ff" d="M177-190C167-65 218 103 67 71c-23-6-38-20-44-43l32-5c15 47 100 32 89-28v-30C133-14 115 1 83 1 29 1 15-40 15-95c0-56 16-97 71-98 29-1 48 16 59 35 1-10 0-23 2-32h30zM94-22c36 0 50-32 50-73 0-42-14-75-50-75-39 0-46 34-46 75s6 73 46 73" id="bN"/><path fill="#6db1ff" d="M24-231v-30h32v30H24zM24 0v-190h32V0H24" id="bO"/><path fill="#6db1ff" d="M100-194c63 0 86 42 84 106H49c0 40 14 67 53 68 26 1 43-12 49-29l28 8c-11 28-37 45-77 45C44 4 14-33 15-96c1-61 26-98 85-98zm52 81c6-60-76-77-97-28-3 7-6 17-6 28h103" id="bP"/><g id="I"><use transform="matrix(0.18518518518518462,0,0,0.18518518518518462,0,0)" xlink:href="#bL"/><use transform="matrix(0.18518518518518462,0,0,0.18518518518518462,44.44444444444431,0)" xlink:href="#bM"/><use transform="matrix(0.18518518518518462,0,0,0.18518518518518462,81.48148148148124,0)" xlink:href="#bN"/><use transform="matrix(0.18518518518518462,0,0,0.18518518518518462,118.51851851851816,0)" xlink:href="#bO"/><use transform="matrix(0.18518518518518462,0,0,0.18518518518518462,133.14814814814775,0)" xlink:href="#bM"/><use transform="matrix(0.18518518518518462,0,0,0.18518518518518462,170.18518518518468,0)" xlink:href="#bP"/></g><path d="M233-177c-1 41-23 64-60 70L243 0h-38l-65-103H63V0H30v-248c88 3 205-21 203 71zM63-129c60-2 137 13 137-47 0-61-80-42-137-45v92" id="bQ"/><path d="M141-36C126-15 110 5 73 4 37 3 15-17 15-53c-1-64 63-63 125-63 3-35-9-54-41-54-24 1-41 7-42 31l-33-3c5-37 33-52 76-52 45 0 72 20 72 64v82c-1 20 7 32 28 27v20c-31 9-61-2-59-35zM48-53c0 20 12 33 32 33 41-3 63-29 60-74-43 2-92-5-92 41" id="bR"/><path d="M85-194c31 0 48 13 60 33l-1-100h32l1 261h-30c-2-10 0-23-3-31C134-8 116 4 85 4 32 4 16-35 15-94c0-66 23-100 70-100zm9 24c-40 0-46 34-46 75 0 40 6 74 45 74 42 0 51-32 51-76 0-42-9-74-50-73" id="bS"/><g id="J"><use transform="matrix(0.2222222222222222,0,0,0.2222222222222222,0,0)" xlink:href="#bQ"/><use transform="matrix(0.2222222222222222,0,0,0.2222222222222222,57.55555555555555,0)" xlink:href="#V"/><use transform="matrix(0.2222222222222222,0,0,0.2222222222222222,102,0)" xlink:href="#bR"/><use transform="matrix(0.2222222222222222,0,0,0.2222222222222222,146.44444444444446,0)" xlink:href="#bS"/></g><path d="M266 0h-40l-56-210L115 0H75L2-248h35L96-30l15-64 43-154h32l59 218 59-218h35" id="bT"/><path d="M114-163C36-179 61-72 57 0H25l-1-190h30c1 12-1 29 2 39 6-27 23-49 58-41v29" id="bU"/><path d="M59-47c-2 24 18 29 38 22v24C64 9 27 4 27-40v-127H5v-23h24l9-43h21v43h35v23H59v120" id="bV"/><g id="K"><use transform="matrix(0.2222222222222222,0,0,0.2222222222222222,0,0)" xlink:href="#bT"/><use transform="matrix(0.2222222222222222,0,0,0.2222222222222222,73.77777777777777,0)" xlink:href="#bU"/><use transform="matrix(0.2222222222222222,0,0,0.2222222222222222,100.22222222222221,0)" xlink:href="#U"/><use transform="matrix(0.2222222222222222,0,0,0.2222222222222222,117.77777777777777,0)" xlink:href="#bV"/><use transform="matrix(0.2222222222222222,0,0,0.2222222222222222,140,0)" xlink:href="#V"/></g><path fill="#1071e5" d="M30 0v-248h187v28H63v79h144v27H63v87h162V0H30" id="bW"/><use transform="matrix(0.29629629629629634,0,0,0.29629629629629634,0,0)" xlink:href="#bW" id="L"/><path fill="#1071e5" d="M30-248c118-7 216 8 213 122C240-48 200 0 122 0H30v-248zM63-27c89 8 146-16 146-99s-60-101-146-95v194" id="bX"/><use transform="matrix(0.29629629629629634,0,0,0.29629629629629634,0,0)" xlink:href="#bX" id="M"/><path fill="#1071e5" d="M63-220v92h138v28H63V0H30v-248h175v28H63" id="bY"/><use transform="matrix(0.29629629629629634,0,0,0.29629629629629634,0,0)" xlink:href="#bY" id="N"/></defs></g></svg>