<svg xmlns="http://www.w3.org/2000/svg" xmlns:xlink="http://www.w3.org/1999/xlink" xmlns:lucid="lucid" width="2845" height="1622"><g transform="translate(-377 -2232)" lucid:page-tab-id="BkjOL_X4jPGi"><path d="M1940 2525a5 5 0 0 1 5-5h770a5 5 0 0 1 5 5v90a5 5 0 0 1-5 5h-770a5 5 0 0 1-5-5z" stroke="#000" stroke-opacity="0" stroke-width="2" fill="#fff" fill-opacity="0"/><use xlink:href="#a" transform="matrix(1,0,0,1,1945,2525) translate(4.358024691358764 75.73263888888874)"/><use xlink:href="#b" transform="matrix(1,0,0,1,1945,2525) translate(247.06790123456815 75.73263888888874)"/><use xlink:href="#c" transform="matrix(1,0,0,1,1945,2525) translate(482.4382716049381 75.73263888888874)"/><path d="M1920 2640h820v80.4h-820z" fill="#ffdda6"/><path d="M1920 2720.4h453.98v80.4H1920zM2373.98 2720.4H2740v80.4h-366.02z" fill="#e3fae3"/><path d="M1920 2800.8h453.98v80.4H1920zM2373.98 2800.8H2740v80.4h-366.02z" fill="#ffd9d9"/><path d="M1920 2881.2h453.98v80.4H1920zM2373.98 2881.2H2740v80.4h-366.02z" fill="#e3fae3"/><path d="M1920 2961.6h453.98v80.4H1920zM2373.98 2961.6H2740v80.4h-366.02z" fill="#ffd9d9"/><path d="M1920 2640v80.4M2740 2640v80.4M1920 2720.4v80.4M2373.98 2720.4v80.4M2740 2720.4v80.4M1920 2800.8v80.4M2373.98 2800.8v80.4M2740 2800.8v80.4M1920 2881.2v80.4M2373.98 2881.2v80.4M2740 2881.2v80.4M1920 2961.6v80.4M2373.98 2961.6v80.4M2740 2961.6v80.4M1920 2640h820M1920 2720.4h453.98M2373.98 2720.4H2740M1920 2800.8h453.98M2373.98 2800.8H2740M1920 2881.2h453.98M2373.98 2881.2H2740M1920 2961.6h453.98M1920 3042h453.98M2373.98 2961.6H2740M2373.98 3042H2740" stroke="#5e5e5e" fill="none"/><use xlink:href="#d" transform="matrix(1,0,0,1,1925,2645) translate(210.02469135802494 60.44444444444437)"/><use xlink:href="#e" transform="matrix(1,0,0,1,1925,2645) translate(411.2962962962963 60.44444444444437)"/><use xlink:href="#f" transform="matrix(1,0,0,1,1925,2725.4) translate(0 43.5)"/><use xlink:href="#g" transform="matrix(1,0,0,1,1925,2725.4) translate(199.55555555555557 43.5)"/><use xlink:href="#h" transform="matrix(1,0,0,1,1925,2725.4) translate(232.8888888888889 43.5)"/><use xlink:href="#i" transform="matrix(1,0,0,1,2378.9827373612825,2725.4) translate(50.47916666666666 49.692708333333336)"/><use xlink:href="#j" transform="matrix(1,0,0,1,1925,2805.8) translate(0 44.388888888888886)"/><use xlink:href="#k" transform="matrix(1,0,0,1,1925,2805.8) translate(221.85185185185173 44.388888888888886)"/><use xlink:href="#l" transform="matrix(1,0,0,1,1925,2805.8) translate(283.5802469135801 44.388888888888886)"/><use xlink:href="#m" transform="matrix(1,0,0,1,2378.9827373612825,2805.8) translate(146.49479166666666 49.692708333333336)"/><use xlink:href="#n" transform="matrix(1,0,0,1,1925,2886.2) translate(0 44.388888888888886)"/><use xlink:href="#o" transform="matrix(1,0,0,1,1925,2886.2) translate(295.80246913580226 44.388888888888886)"/><use xlink:href="#l" transform="matrix(1,0,0,1,1925,2886.2) translate(357.5308641975306 44.388888888888886)"/><use xlink:href="#p" transform="matrix(1,0,0,1,2378.9827373612825,2886.2) translate(50.47916666666666 49.692708333333336)"/><use xlink:href="#q" transform="matrix(1,0,0,1,1925,2966.6) translate(0 44.388888888888886)"/><use xlink:href="#r" transform="matrix(1,0,0,1,1925,2966.6) translate(147.77777777777771 44.388888888888886)"/><use xlink:href="#s" transform="matrix(1,0,0,1,1925,2966.6) translate(184.81481481481472 44.388888888888886)"/><use xlink:href="#t" transform="matrix(1,0,0,1,2378.9827373612825,2966.6) translate(2.4713541666666856 49.692708333333336)"/><path d="M1680 3265a5 5 0 0 1 5-5h1340.64a5 5 0 0 1 5 5v250a5 5 0 0 1-5 5H1685a5 5 0 0 1-5-5z" stroke="#6db1ff" stroke-width="9" fill-opacity="0"/><path d="M1940 3353.74a5 5 0 0 1 5-5h228.33a5 5 0 0 1 5 5v68.1a5 5 0 0 1-5 5H1945a5 5 0 0 1-5-5z" stroke="#000" stroke-opacity="0" stroke-width="2" fill="#fff" fill-opacity="0"/><use xlink:href="#u" transform="matrix(1,0,0,1,1945,3353.7453648554756) translate(10.888888888889198 55.48958333333317)"/><path d="M1780 3374.27a6 6 0 0 1 6-6h112.85a6 6 0 0 0 6-6v-7.53a2.3 2.3 0 0 1 4.02-1.53l27.12 30.14a6.67 6.67 0 0 1 0 8.92l-27.13 30.13a2.3 2.3 0 0 1-4.02-1.55v-7.52a6 6 0 0 0-6-6H1786a6 6 0 0 1-6-6zM2800 3374.27a6 6 0 0 1 6-6h112.85a6 6 0 0 0 6-6v-7.53a2.3 2.3 0 0 1 4-1.53l27.14 30.14a6.67 6.67 0 0 1 0 8.92l-27.14 30.13a2.3 2.3 0 0 1-4-1.55v-7.52a6 6 0 0 0-6-6H2806a6 6 0 0 1-6-6z" stroke="#3a414a" fill="#6db1ff"/><path d="M3079.26 3755.5c0 2.5-2 4.5-4.5 4.5-2.48 0-4.5-2-4.5-4.5s2.02-4.5 4.5-4.5c2.5 0 4.5 2 4.5 4.5zm0-17.94c0 2.5-2 4.5-4.5 4.5-2.48 0-4.5-2-4.5-4.5 0-2.48 2.02-4.5 4.5-4.5 2.5 0 4.5 2.02 4.5 4.5zm0-17.94c0 2.5-2 4.5-4.5 4.5-2.48 0-4.5-2-4.5-4.5 0-2.48 2.02-4.5 4.5-4.5 2.5 0 4.5 2.02 4.5 4.5zm0-17.94c0 2.5-2 4.5-4.5 4.5-2.48 0-4.5-2-4.5-4.5 0-2.48 2.02-4.5 4.5-4.5 2.5 0 4.5 2.02 4.5 4.5zm0-17.93c0 2.48-2 4.5-4.5 4.5-2.48 0-4.5-2.02-4.5-4.5 0-2.5 2.02-4.5 4.5-4.5 2.5 0 4.5 2 4.5 4.5zm0-17.94c0 2.5-2 4.5-4.5 4.5-2.48 0-4.5-2-4.5-4.5 0-2.48 2.02-4.5 4.5-4.5 2.5 0 4.5 2.02 4.5 4.5zm0-17.93c0 2.48-2 4.5-4.5 4.5-2.48 0-4.5-2.02-4.5-4.5 0-2.5 2.02-4.5 4.5-4.5 2.5 0 4.5 2 4.5 4.5zm0-17.94c0 2.48-2 4.5-4.5 4.5-2.48 0-4.5-2.02-4.5-4.5 0-2.5 2.02-4.5 4.5-4.5 2.5 0 4.5 2 4.5 4.5zm0-17.94c0 2.48-2 4.5-4.5 4.5-2.48 0-4.5-2.02-4.5-4.5 0-2.5 2.02-4.5 4.5-4.5 2.5 0 4.5 2 4.5 4.5zm0-17.95c0 2.5-2 4.5-4.5 4.5-2.48 0-4.5-2-4.5-4.5 0-2.48 2.02-4.5 4.5-4.5 2.5 0 4.5 2.02 4.5 4.5zm0-17.94c0 2.5-2 4.5-4.5 4.5-2.48 0-4.5-2-4.5-4.5 0-2.47 2.02-4.5 4.5-4.5 2.5 0 4.5 2.03 4.5 4.5zm0-17.93c0 2.5-2 4.5-4.5 4.5-2.48 0-4.5-2-4.5-4.5 0-2.48 2.02-4.5 4.5-4.5 2.5 0 4.5 2.02 4.5 4.5zm0-17.93c0 2.48-2 4.5-4.5 4.5-2.48 0-4.5-2.02-4.5-4.5 0-2.5 2.02-4.5 4.5-4.5 2.5 0 4.5 2 4.5 4.5zm0-17.94c0 2.48-2 4.5-4.5 4.5-2.48 0-4.5-2.02-4.5-4.5 0-2.5 2.02-4.5 4.5-4.5 2.5 0 4.5 2 4.5 4.5zm0-17.94c0 2.48-2 4.5-4.5 4.5-2.48 0-4.5-2.02-4.5-4.5 0-2.5 2.02-4.5 4.5-4.5 2.5 0 4.5 2 4.5 4.5zm0-17.94c0 2.5-2 4.5-4.5 4.5-2.48 0-4.5-2-4.5-4.5s2.02-4.5 4.5-4.5c2.5 0 4.5 2 4.5 4.5zm0-17.94c0 2.5-2 4.5-4.5 4.5-2.48 0-4.5-2-4.5-4.5 0-2.48 2.02-4.5 4.5-4.5 2.5 0 4.5 2.02 4.5 4.5zm0-17.94c0 2.5-2 4.5-4.5 4.5-2.48 0-4.5-2-4.5-4.5 0-2.48 2.02-4.5 4.5-4.5 2.5 0 4.5 2.02 4.5 4.5zm0-17.94c0 2.5-2 4.5-4.5 4.5-2.48 0-4.5-2-4.5-4.5 0-2.48 2.02-4.5 4.5-4.5 2.5 0 4.5 2.02 4.5 4.5zm0-17.93c0 2.48-2 4.5-4.5 4.5-2.48 0-4.5-2.02-4.5-4.5 0-2.5 2.02-4.5 4.5-4.5 2.5 0 4.5 2 4.5 4.5zm0-17.94c0 2.48-2 4.5-4.5 4.5-2.48 0-4.5-2.02-4.5-4.5 0-2.5 2.02-4.5 4.5-4.5 2.5 0 4.5 2 4.5 4.5zm0-17.94c0 2.47-2 4.5-4.5 4.5-2.48 0-4.5-2.03-4.5-4.5 0-2.5 2.02-4.5 4.5-4.5 2.5 0 4.5 2 4.5 4.5zm0-17.95c0 2.48-2 4.5-4.5 4.5-2.48 0-4.5-2.02-4.5-4.5 0-2.5 2.02-4.5 4.5-4.5 2.5 0 4.5 2 4.5 4.5zm0-17.94c0 2.5-2 4.5-4.5 4.5-2.48 0-4.5-2-4.5-4.5 0-2.47 2.02-4.5 4.5-4.5 2.5 0 4.5 2.03 4.5 4.5zm0-17.93c0 2.5-2 4.5-4.5 4.5-2.48 0-4.5-2-4.5-4.5 0-2.48 2.02-4.5 4.5-4.5 2.5 0 4.5 2.02 4.5 4.5zm0-17.94c0 2.5-2 4.5-4.5 4.5-2.48 0-4.5-2-4.5-4.5 0-2.48 2.02-4.5 4.5-4.5 2.5 0 4.5 2.02 4.5 4.5zm0-17.94c0 2.48-2 4.5-4.5 4.5-2.48 0-4.5-2.02-4.5-4.5 0-2.5 2.02-4.5 4.5-4.5 2.5 0 4.5 2 4.5 4.5zm0-17.94c0 2.48-2 4.5-4.5 4.5-2.48 0-4.5-2.02-4.5-4.5 0-2.5 2.02-4.5 4.5-4.5 2.5 0 4.5 2 4.5 4.5zm0-17.94c0 2.48-2 4.5-4.5 4.5-2.48 0-4.5-2.02-4.5-4.5 0-2.5 2.02-4.5 4.5-4.5 2.5 0 4.5 2 4.5 4.5zm0-17.94c0 2.48-2 4.5-4.5 4.5-2.48 0-4.5-2.02-4.5-4.5 0-2.5 2.02-4.5 4.5-4.5 2.5 0 4.5 2 4.5 4.5zm0-17.94c0 2.48-2 4.5-4.5 4.5-2.48 0-4.5-2.02-4.5-4.5 0-2.5 2.02-4.5 4.5-4.5 2.5 0 4.5 2 4.5 4.5zm0-17.94c0 2.5-2 4.5-4.5 4.5-2.48 0-4.5-2-4.5-4.5s2.02-4.5 4.5-4.5c2.5 0 4.5 2 4.5 4.5zm0-17.94c0 2.5-2 4.5-4.5 4.5-2.48 0-4.5-2-4.5-4.5 0-2.48 2.02-4.5 4.5-4.5 2.5 0 4.5 2.02 4.5 4.5zm0-17.94c0 2.5-2 4.5-4.5 4.5-2.48 0-4.5-2-4.5-4.5 0-2.48 2.02-4.5 4.5-4.5 2.5 0 4.5 2.02 4.5 4.5zm0-17.93c0 2.47-2 4.5-4.5 4.5-2.48 0-4.5-2.03-4.5-4.5 0-2.5 2.02-4.5 4.5-4.5 2.5 0 4.5 2 4.5 4.5zm0-17.95c0 2.48-2 4.5-4.5 4.5-2.48 0-4.5-2.02-4.5-4.5 0-2.5 2.02-4.5 4.5-4.5 2.5 0 4.5 2 4.5 4.5zm0-17.94c0 2.5-2 4.5-4.5 4.5-2.48 0-4.5-2-4.5-4.5 0-2.48 2.02-4.5 4.5-4.5 2.5 0 4.5 2.02 4.5 4.5zm0-17.93c0 2.48-2 4.5-4.5 4.5-2.48 0-4.5-2.02-4.5-4.5 0-2.5 2.02-4.5 4.5-4.5 2.5 0 4.5 2 4.5 4.5zm0-17.94c0 2.5-2 4.5-4.5 4.5-2.48 0-4.5-2-4.5-4.5s2.02-4.5 4.5-4.5c2.5 0 4.5 2 4.5 4.5zm0-17.94c0 2.48-2 4.5-4.5 4.5-2.48 0-4.5-2.02-4.5-4.5 0-2.5 2.02-4.5 4.5-4.5 2.5 0 4.5 2 4.5 4.5zm0-17.95c0 2.5-2 4.5-4.5 4.5-2.48 0-4.5-2-4.5-4.5 0-2.48 2.02-4.5 4.5-4.5 2.5 0 4.5 2.02 4.5 4.5zm0-17.94c0 2.5-2 4.5-4.5 4.5-2.48 0-4.5-2-4.5-4.5 0-2.47 2.02-4.5 4.5-4.5 2.5 0 4.5 2.03 4.5 4.5zm0-17.93c0 2.5-2 4.5-4.5 4.5-2.48 0-4.5-2-4.5-4.5 0-2.48 2.02-4.5 4.5-4.5 2.5 0 4.5 2.02 4.5 4.5zm0-17.93c0 2.48-2 4.5-4.5 4.5-2.48 0-4.5-2.02-4.5-4.5 0-2.5 2.02-4.5 4.5-4.5 2.5 0 4.5 2 4.5 4.5zm0-17.94c0 2.48-2 4.5-4.5 4.5-2.48 0-4.5-2.02-4.5-4.5 0-2.5 2.02-4.5 4.5-4.5 2.5 0 4.5 2 4.5 4.5zm0-17.94c0 2.48-2 4.5-4.5 4.5-2.48 0-4.5-2.02-4.5-4.5 0-2.5 2.02-4.5 4.5-4.5 2.5 0 4.5 2 4.5 4.5zm0-17.94c0 2.5-2 4.5-4.5 4.5-2.48 0-4.5-2-4.5-4.5s2.02-4.5 4.5-4.5c2.5 0 4.5 2 4.5 4.5zm0-17.94c0 2.5-2 4.5-4.5 4.5-2.48 0-4.5-2-4.5-4.5 0-2.48 2.02-4.5 4.5-4.5 2.5 0 4.5 2.02 4.5 4.5zm0-17.94c0 2.5-2 4.5-4.5 4.5-2.48 0-4.5-2-4.5-4.5 0-2.48 2.02-4.5 4.5-4.5 2.5 0 4.5 2.02 4.5 4.5zm0-17.94c0 2.5-2 4.5-4.5 4.5-2.48 0-4.5-2-4.5-4.5 0-2.48 2.02-4.5 4.5-4.5 2.5 0 4.5 2.02 4.5 4.5zm0-17.93c0 2.48-2 4.5-4.5 4.5-2.48 0-4.5-2.02-4.5-4.5 0-2.5 2.02-4.5 4.5-4.5 2.5 0 4.5 2 4.5 4.5zm0-17.94c0 2.48-2 4.5-4.5 4.5-2.48 0-4.5-2.02-4.5-4.5 0-2.5 2.02-4.5 4.5-4.5 2.5 0 4.5 2 4.5 4.5zm0-17.94c0 2.47-2 4.5-4.5 4.5-2.48 0-4.5-2.03-4.5-4.5 0-2.5 2.02-4.5 4.5-4.5 2.5 0 4.5 2 4.5 4.5zm0-17.95c0 2.5-2 4.5-4.5 4.5-2.48 0-4.5-2-4.5-4.5s2.02-4.5 4.5-4.5c2.5 0 4.5 2 4.5 4.5zm0-17.94c0 2.5-2 4.5-4.5 4.5-2.48 0-4.5-2-4.5-4.5 0-2.47 2.02-4.5 4.5-4.5 2.5 0 4.5 2.03 4.5 4.5zm0-17.93c0 2.5-2 4.5-4.5 4.5-2.48 0-4.5-2-4.5-4.5 0-2.48 2.02-4.5 4.5-4.5 2.5 0 4.5 2.02 4.5 4.5zm0-17.94c0 2.5-2 4.5-4.5 4.5-2.48 0-4.5-2-4.5-4.5 0-2.48 2.02-4.5 4.5-4.5 2.5 0 4.5 2.02 4.5 4.5zm0-17.93c0 2.48-2 4.5-4.5 4.5-2.48 0-4.5-2.02-4.5-4.5 0-2.5 2.02-4.5 4.5-4.5 2.5 0 4.5 2 4.5 4.5zm0-17.94c0 2.48-2 4.5-4.5 4.5-2.48 0-4.5-2.02-4.5-4.5 0-2.5 2.02-4.5 4.5-4.5 2.5 0 4.5 2 4.5 4.5zm0-17.94c0 2.48-2 4.5-4.5 4.5-2.48 0-4.5-2.02-4.5-4.5 0-2.5 2.02-4.5 4.5-4.5 2.5 0 4.5 2 4.5 4.5zm0-17.94c0 2.48-2 4.5-4.5 4.5-2.48 0-4.5-2.02-4.5-4.5 0-2.5 2.02-4.5 4.5-4.5 2.5 0 4.5 2 4.5 4.5zm0-17.94c0 2.5-2 4.5-4.5 4.5-2.48 0-4.5-2-4.5-4.5 0-2.48 2.02-4.5 4.5-4.5 2.5 0 4.5 2.02 4.5 4.5zm0-17.94c0 2.5-2 4.5-4.5 4.5-2.48 0-4.5-2-4.5-4.5 0-2.48 2.02-4.5 4.5-4.5 2.5 0 4.5 2.02 4.5 4.5zm0-17.94c0 2.5-2 4.5-4.5 4.5-2.48 0-4.5-2-4.5-4.5 0-2.48 2.02-4.5 4.5-4.5 2.5 0 4.5 2.02 4.5 4.5zm0-17.94c0 2.5-2 4.5-4.5 4.5-2.48 0-4.5-2-4.5-4.5 0-2.48 2.02-4.5 4.5-4.5 2.5 0 4.5 2.02 4.5 4.5zm0-17.93c0 2.47-2 4.5-4.5 4.5-2.48 0-4.5-2.03-4.5-4.5 0-2.5 2.02-4.5 4.5-4.5 2.5 0 4.5 2 4.5 4.5zm0-17.95c0 2.48-2 4.5-4.5 4.5-2.48 0-4.5-2.02-4.5-4.5 0-2.5 2.02-4.5 4.5-4.5 2.5 0 4.5 2 4.5 4.5zm0-17.94c0 2.5-2 4.5-4.5 4.5-2.48 0-4.5-2-4.5-4.5 0-2.48 2.02-4.5 4.5-4.5 2.5 0 4.5 2.02 4.5 4.5zm0-17.93c0 2.48-2 4.5-4.5 4.5-2.48 0-4.5-2.02-4.5-4.5 0-2.5 2.02-4.5 4.5-4.5 2.5 0 4.5 2 4.5 4.5zm0-17.94c0 2.5-2 4.5-4.5 4.5-2.48 0-4.5-2-4.5-4.5s2.02-4.5 4.5-4.5c2.5 0 4.5 2 4.5 4.5zm0-17.94c0 2.48-2 4.5-4.5 4.5-2.48 0-4.5-2.02-4.5-4.5 0-2.5 2.02-4.5 4.5-4.5 2.5 0 4.5 2 4.5 4.5zm0-17.95c0 2.5-2 4.5-4.5 4.5-2.48 0-4.5-2-4.5-4.5 0-2.48 2.02-4.5 4.5-4.5 2.5 0 4.5 2.02 4.5 4.5zm0-17.94c0 2.5-2 4.5-4.5 4.5-2.48 0-4.5-2-4.5-4.5 0-2.47 2.02-4.5 4.5-4.5 2.5 0 4.5 2.03 4.5 4.5zm0-17.92c0 2.48-2 4.5-4.5 4.5-2.48 0-4.5-2.02-4.5-4.5 0-2.5 2.02-4.5 4.5-4.5 2.5 0 4.5 2 4.5 4.5zm0-17.94c0 2.48-2 4.5-4.5 4.5-2.48 0-4.5-2.02-4.5-4.5 0-2.5 2.02-4.5 4.5-4.5 2.5 0 4.5 2 4.5 4.5zm0-17.94c0 2.48-2 4.5-4.5 4.5-2.48 0-4.5-2.02-4.5-4.5 0-2.5 2.02-4.5 4.5-4.5 2.5 0 4.5 2 4.5 4.5z" fill="#00c2a8"/><path d="M3074.76 3755.4v4.6M3074.76 2410.2v-4.6" stroke="#00c2a8" stroke-width="9" fill="none"/><path d="M920 2285a5 5 0 0 1 5-5h429.1a5 5 0 0 1 5 5v110a5 5 0 0 1-5 5H925a5 5 0 0 1-5-5z" stroke="#000" stroke-opacity="0" stroke-width="2" fill="#fff" fill-opacity="0"/><use xlink:href="#v" transform="matrix(1,0,0,1,925,2285) translate(4.7777777777777715 88.77083333333334)"/><use xlink:href="#w" transform="matrix(1,0,0,1,925,2285) translate(365.96296296296293 88.77083333333334)"/><path d="M1655.14 3755.5c0 2.5-2.02 4.5-4.5 4.5-2.5 0-4.5-2-4.5-4.5s2-4.5 4.5-4.5c2.48 0 4.5 2 4.5 4.5zm0-18c0 2.47-2.02 4.5-4.5 4.5-2.5 0-4.5-2.03-4.5-4.5 0-2.5 2-4.5 4.5-4.5 2.48 0 4.5 2 4.5 4.5zm0-18.03c0 2.5-2.02 4.5-4.5 4.5-2.5 0-4.5-2-4.5-4.5 0-2.48 2-4.5 4.5-4.5 2.48 0 4.5 2.02 4.5 4.5zm0-18c0 2.48-2.02 4.5-4.5 4.5-2.5 0-4.5-2.02-4.5-4.5 0-2.5 2-4.5 4.5-4.5 2.48 0 4.5 2 4.5 4.5zm0-18.02c0 2.48-2.02 4.5-4.5 4.5-2.5 0-4.5-2.02-4.5-4.5 0-2.5 2-4.5 4.5-4.5 2.48 0 4.5 2 4.5 4.5zm0-18.02c0 2.5-2.02 4.5-4.5 4.5-2.5 0-4.5-2-4.5-4.5 0-2.48 2-4.5 4.5-4.5 2.48 0 4.5 2.02 4.5 4.5zm0-18c0 2.48-2.02 4.5-4.5 4.5-2.5 0-4.5-2.02-4.5-4.5 0-2.5 2-4.5 4.5-4.5 2.48 0 4.5 2 4.5 4.5zm0-18.02c0 2.5-2.02 4.5-4.5 4.5-2.5 0-4.5-2-4.5-4.5 0-2.48 2-4.5 4.5-4.5 2.48 0 4.5 2.02 4.5 4.5zm0-18c0 2.48-2.02 4.5-4.5 4.5-2.5 0-4.5-2.02-4.5-4.5 0-2.5 2-4.5 4.5-4.5 2.48 0 4.5 2 4.5 4.5zm0-18.02c0 2.48-2.02 4.5-4.5 4.5-2.5 0-4.5-2.02-4.5-4.5 0-2.5 2-4.5 4.5-4.5 2.48 0 4.5 2 4.5 4.5zm0-18c0 2.47-2.02 4.5-4.5 4.5-2.5 0-4.5-2.03-4.5-4.5 0-2.5 2-4.5 4.5-4.5 2.48 0 4.5 2 4.5 4.5zm0-18.03c0 2.5-2.02 4.5-4.5 4.5-2.5 0-4.5-2-4.5-4.5 0-2.48 2-4.5 4.5-4.5 2.48 0 4.5 2.02 4.5 4.5zm0-18c0 2.47-2.02 4.5-4.5 4.5-2.5 0-4.5-2.03-4.5-4.5 0-2.5 2-4.5 4.5-4.5 2.48 0 4.5 2 4.5 4.5zm0-18.02c0 2.48-2.02 4.5-4.5 4.5-2.5 0-4.5-2.02-4.5-4.5 0-2.5 2-4.5 4.5-4.5 2.48 0 4.5 2 4.5 4.5zm0-18.02c0 2.5-2.02 4.5-4.5 4.5-2.5 0-4.5-2-4.5-4.5 0-2.47 2-4.5 4.5-4.5 2.48 0 4.5 2.03 4.5 4.5zm0-18c0 2.48-2.02 4.5-4.5 4.5-2.5 0-4.5-2.02-4.5-4.5 0-2.5 2-4.5 4.5-4.5 2.48 0 4.5 2 4.5 4.5zm0-18c0 2.47-2.02 4.5-4.5 4.5-2.5 0-4.5-2.03-4.5-4.5 0-2.5 2-4.5 4.5-4.5 2.48 0 4.5 2 4.5 4.5zm0-18.03c0 2.5-2.02 4.5-4.5 4.5-2.5 0-4.5-2-4.5-4.5 0-2.48 2-4.5 4.5-4.5 2.48 0 4.5 2.02 4.5 4.5zm0-18c0 2.47-2.02 4.5-4.5 4.5-2.5 0-4.5-2.03-4.5-4.5 0-2.5 2-4.5 4.5-4.5 2.48 0 4.5 2 4.5 4.5zm0-18.02c0 2.48-2.02 4.5-4.5 4.5-2.5 0-4.5-2.02-4.5-4.5 0-2.5 2-4.5 4.5-4.5 2.48 0 4.5 2 4.5 4.5zm0-18.02c0 2.5-2.02 4.5-4.5 4.5-2.5 0-4.5-2-4.5-4.5 0-2.48 2-4.5 4.5-4.5 2.48 0 4.5 2.02 4.5 4.5zm0-18c0 2.47-2.02 4.5-4.5 4.5-2.5 0-4.5-2.03-4.5-4.5 0-2.5 2-4.5 4.5-4.5 2.48 0 4.5 2 4.5 4.5zm0-18.02c0 2.5-2.02 4.5-4.5 4.5-2.5 0-4.5-2-4.5-4.5 0-2.48 2-4.5 4.5-4.5 2.48 0 4.5 2.02 4.5 4.5zm0-18c0 2.48-2.02 4.5-4.5 4.5-2.5 0-4.5-2.02-4.5-4.5 0-2.5 2-4.5 4.5-4.5 2.48 0 4.5 2 4.5 4.5zm0-18.02c0 2.5-2.02 4.5-4.5 4.5-2.5 0-4.5-2-4.5-4.5 0-2.48 2-4.5 4.5-4.5 2.48 0 4.5 2.02 4.5 4.5zm0-18c0 2.47-2.02 4.5-4.5 4.5-2.5 0-4.5-2.03-4.5-4.5 0-2.5 2-4.5 4.5-4.5 2.48 0 4.5 2 4.5 4.5zm0-18.03c0 2.5-2.02 4.5-4.5 4.5-2.5 0-4.5-2-4.5-4.5 0-2.48 2-4.5 4.5-4.5 2.48 0 4.5 2.02 4.5 4.5zm0-18c0 2.47-2.02 4.5-4.5 4.5-2.5 0-4.5-2.03-4.5-4.5 0-2.5 2-4.5 4.5-4.5 2.48 0 4.5 2 4.5 4.5zm0-18.02c0 2.48-2.02 4.5-4.5 4.5-2.5 0-4.5-2.02-4.5-4.5 0-2.5 2-4.5 4.5-4.5 2.48 0 4.5 2 4.5 4.5zm0-18.02c0 2.5-2.02 4.5-4.5 4.5-2.5 0-4.5-2-4.5-4.5 0-2.47 2-4.5 4.5-4.5 2.48 0 4.5 2.03 4.5 4.5zm0-18c0 2.5-2.02 4.5-4.5 4.5-2.5 0-4.5-2-4.5-4.5s2-4.5 4.5-4.5c2.48 0 4.5 2 4.5 4.5zm0-18c0 2.47-2.02 4.5-4.5 4.5-2.5 0-4.5-2.03-4.5-4.5 0-2.5 2-4.5 4.5-4.5 2.48 0 4.5 2 4.5 4.5zm0-18.03c0 2.5-2.02 4.5-4.5 4.5-2.5 0-4.5-2-4.5-4.5 0-2.48 2-4.5 4.5-4.5 2.48 0 4.5 2.02 4.5 4.5zm0-18c0 2.47-2.02 4.5-4.5 4.5-2.5 0-4.5-2.03-4.5-4.5 0-2.5 2-4.5 4.5-4.5 2.48 0 4.5 2 4.5 4.5zm0-18.02c0 2.48-2.02 4.5-4.5 4.5-2.5 0-4.5-2.02-4.5-4.5 0-2.5 2-4.5 4.5-4.5 2.48 0 4.5 2 4.5 4.5zm0-18.02c0 2.5-2.02 4.5-4.5 4.5-2.5 0-4.5-2-4.5-4.5 0-2.48 2-4.5 4.5-4.5 2.48 0 4.5 2.02 4.5 4.5zm0-18c0 2.47-2.02 4.5-4.5 4.5-2.5 0-4.5-2.03-4.5-4.5 0-2.5 2-4.5 4.5-4.5 2.48 0 4.5 2 4.5 4.5zm0-18.02c0 2.5-2.02 4.5-4.5 4.5-2.5 0-4.5-2-4.5-4.5 0-2.48 2-4.5 4.5-4.5 2.48 0 4.5 2.02 4.5 4.5zm0-18c0 2.48-2.02 4.5-4.5 4.5-2.5 0-4.5-2.02-4.5-4.5 0-2.5 2-4.5 4.5-4.5 2.48 0 4.5 2 4.5 4.5zm0-18.02c0 2.5-2.02 4.5-4.5 4.5-2.5 0-4.5-2-4.5-4.5s2-4.5 4.5-4.5c2.48 0 4.5 2 4.5 4.5zm0-18c0 2.47-2.02 4.5-4.5 4.5-2.5 0-4.5-2.03-4.5-4.5 0-2.5 2-4.5 4.5-4.5 2.48 0 4.5 2 4.5 4.5zm0-18.03c0 2.5-2.02 4.5-4.5 4.5-2.5 0-4.5-2-4.5-4.5 0-2.48 2-4.5 4.5-4.5 2.48 0 4.5 2.02 4.5 4.5zm0-18c0 2.48-2.02 4.5-4.5 4.5-2.5 0-4.5-2.02-4.5-4.5 0-2.5 2-4.5 4.5-4.5 2.48 0 4.5 2 4.5 4.5zm0-18.02c0 2.48-2.02 4.5-4.5 4.5-2.5 0-4.5-2.02-4.5-4.5 0-2.5 2-4.5 4.5-4.5 2.48 0 4.5 2 4.5 4.5zm0-18.02c0 2.5-2.02 4.5-4.5 4.5-2.5 0-4.5-2-4.5-4.5 0-2.47 2-4.5 4.5-4.5 2.48 0 4.5 2.03 4.5 4.5zm0-18c0 2.5-2.02 4.5-4.5 4.5-2.5 0-4.5-2-4.5-4.5s2-4.5 4.5-4.5c2.48 0 4.5 2 4.5 4.5zm0-18c0 2.47-2.02 4.5-4.5 4.5-2.5 0-4.5-2.03-4.5-4.5 0-2.5 2-4.5 4.5-4.5 2.48 0 4.5 2 4.5 4.5zm0-18.03c0 2.5-2.02 4.5-4.5 4.5-2.5 0-4.5-2-4.5-4.5 0-2.48 2-4.5 4.5-4.5 2.48 0 4.5 2.02 4.5 4.5zm0-18c0 2.47-2.02 4.5-4.5 4.5-2.5 0-4.5-2.03-4.5-4.5 0-2.5 2-4.5 4.5-4.5 2.48 0 4.5 2 4.5 4.5zm0-18.02c0 2.48-2.02 4.5-4.5 4.5-2.5 0-4.5-2.02-4.5-4.5 0-2.5 2-4.5 4.5-4.5 2.48 0 4.5 2 4.5 4.5zm0-18.02c0 2.5-2.02 4.5-4.5 4.5-2.5 0-4.5-2-4.5-4.5 0-2.48 2-4.5 4.5-4.5 2.48 0 4.5 2.02 4.5 4.5zm0-18c0 2.47-2.02 4.5-4.5 4.5-2.5 0-4.5-2.03-4.5-4.5 0-2.5 2-4.5 4.5-4.5 2.48 0 4.5 2 4.5 4.5zm0-18.02c0 2.5-2.02 4.5-4.5 4.5-2.5 0-4.5-2-4.5-4.5 0-2.48 2-4.5 4.5-4.5 2.48 0 4.5 2.02 4.5 4.5zm0-18c0 2.48-2.02 4.5-4.5 4.5-2.5 0-4.5-2.02-4.5-4.5 0-2.5 2-4.5 4.5-4.5 2.48 0 4.5 2 4.5 4.5zm0-18.02c0 2.48-2.02 4.5-4.5 4.5-2.5 0-4.5-2.02-4.5-4.5 0-2.5 2-4.5 4.5-4.5 2.48 0 4.5 2 4.5 4.5zm0-18c0 2.47-2.02 4.5-4.5 4.5-2.5 0-4.5-2.03-4.5-4.5 0-2.5 2-4.5 4.5-4.5 2.48 0 4.5 2 4.5 4.5zm0-18.03c0 2.5-2.02 4.5-4.5 4.5-2.5 0-4.5-2-4.5-4.5 0-2.48 2-4.5 4.5-4.5 2.48 0 4.5 2.02 4.5 4.5zm0-18c0 2.47-2.02 4.5-4.5 4.5-2.5 0-4.5-2.03-4.5-4.5 0-2.5 2-4.5 4.5-4.5 2.48 0 4.5 2 4.5 4.5zm0-18.02c0 2.48-2.02 4.5-4.5 4.5-2.5 0-4.5-2.02-4.5-4.5 0-2.5 2-4.5 4.5-4.5 2.48 0 4.5 2 4.5 4.5zm0-18.02c0 2.5-2.02 4.5-4.5 4.5-2.5 0-4.5-2-4.5-4.5 0-2.47 2-4.5 4.5-4.5 2.48 0 4.5 2.03 4.5 4.5zm0-18c0 2.5-2.02 4.5-4.5 4.5-2.5 0-4.5-2-4.5-4.5 0-2.48 2-4.5 4.5-4.5 2.48 0 4.5 2.02 4.5 4.5zm0-18c0 2.47-2.02 4.5-4.5 4.5-2.5 0-4.5-2.03-4.5-4.5 0-2.5 2-4.5 4.5-4.5 2.48 0 4.5 2 4.5 4.5zm0-18.03c0 2.5-2.02 4.5-4.5 4.5-2.5 0-4.5-2-4.5-4.5 0-2.48 2-4.5 4.5-4.5 2.48 0 4.5 2.02 4.5 4.5zm0-18c0 2.47-2.02 4.5-4.5 4.5-2.5 0-4.5-2.03-4.5-4.5 0-2.5 2-4.5 4.5-4.5 2.48 0 4.5 2 4.5 4.5zm0-18.02c0 2.48-2.02 4.5-4.5 4.5-2.5 0-4.5-2.02-4.5-4.5 0-2.5 2-4.5 4.5-4.5 2.48 0 4.5 2 4.5 4.5zm0-18.02c0 2.5-2.02 4.5-4.5 4.5-2.5 0-4.5-2-4.5-4.5 0-2.48 2-4.5 4.5-4.5 2.48 0 4.5 2.02 4.5 4.5zm0-18c0 2.47-2.02 4.5-4.5 4.5-2.5 0-4.5-2.03-4.5-4.5 0-2.5 2-4.5 4.5-4.5 2.48 0 4.5 2 4.5 4.5zm0-18.02c0 2.5-2.02 4.5-4.5 4.5-2.5 0-4.5-2-4.5-4.5 0-2.48 2-4.5 4.5-4.5 2.48 0 4.5 2.02 4.5 4.5zm0-18c0 2.48-2.02 4.5-4.5 4.5-2.5 0-4.5-2.02-4.5-4.5 0-2.5 2-4.5 4.5-4.5 2.48 0 4.5 2 4.5 4.5zm0-18.02c0 2.5-2.02 4.5-4.5 4.5-2.5 0-4.5-2-4.5-4.5s2-4.5 4.5-4.5c2.48 0 4.5 2 4.5 4.5zm0-18c0 2.47-2.02 4.5-4.5 4.5-2.5 0-4.5-2.03-4.5-4.5 0-2.5 2-4.5 4.5-4.5 2.48 0 4.5 2 4.5 4.5zm0-18.03c0 2.5-2.02 4.5-4.5 4.5-2.5 0-4.5-2-4.5-4.5 0-2.48 2-4.5 4.5-4.5 2.48 0 4.5 2.02 4.5 4.5zm0-18c0 2.47-2.02 4.5-4.5 4.5-2.5 0-4.5-2.03-4.5-4.5 0-2.5 2-4.5 4.5-4.5 2.48 0 4.5 2 4.5 4.5zm0-18.02c0 2.48-2.02 4.5-4.5 4.5-2.5 0-4.5-2.02-4.5-4.5 0-2.5 2-4.5 4.5-4.5 2.48 0 4.5 2 4.5 4.5zm0-18.02c0 2.5-2.02 4.5-4.5 4.5-2.5 0-4.5-2-4.5-4.5 0-2.47 2-4.5 4.5-4.5 2.48 0 4.5 2.03 4.5 4.5zm0-18c0 2.5-2.02 4.5-4.5 4.5-2.5 0-4.5-2-4.5-4.5s2-4.5 4.5-4.5c2.48 0 4.5 2 4.5 4.5z" fill="#0c7cba"/><path d="M1650.64 3755.4v4.6M1650.64 2404.6v-4.6" stroke="#0c7cba" stroke-width="9" fill="none"/><path d="M2221.06 3505.74a6 6 0 0 1 8.5 0l31.5 31.52a2.48 2.48 0 0 1-1.76 4.24h-8a6 6 0 0 0-6 6v68a6 6 0 0 0 6 6h8a2.48 2.48 0 0 1 1.76 4.24l-31.5 31.52a6 6 0 0 1-8.5 0l-31.5-31.52a2.48 2.48 0 0 1 1.74-4.24h8a6 6 0 0 0 6-6v-68a6 6 0 0 0-6-6h-8a2.48 2.48 0 0 1-1.75-4.24z" stroke="#3a414a" fill="#fe7070"/><path d="M1402.4 2285a5 5 0 0 1 5-5h429.13a5 5 0 0 1 5 5v110a5 5 0 0 1-5 5h-429.1a5 5 0 0 1-5.02-5z" stroke="#000" stroke-opacity="0" stroke-width="2" fill="#fff" fill-opacity="0"/><use xlink:href="#x" transform="matrix(1,0,0,1,1407.414768776872,2285) translate(4.7777777777777715 88.77083333333334)"/><use xlink:href="#y" transform="matrix(1,0,0,1,1407.414768776872,2285) translate(365.96296296296293 88.77083333333334)"/><path d="M2980 2720c0 44.18-35.82 80-80 80s-80-35.82-80-80 35.82-80 80-80 80 35.82 80 80z" stroke="#000" stroke-width="6" fill="#fff"/><use xlink:href="#z" transform="matrix(1,0,0,1,2825,2645) translate(39.449444444444445 102.04501333333334)"/><path d="M1201.6 2720c0 44.18-35.83 80-80 80-44.2 0-80-35.82-80-80s35.8-80 80-80c44.17 0 80 35.82 80 80z" stroke="#000" stroke-width="6" fill="#fff"/><use xlink:href="#A" transform="matrix(1,0,0,1,1046.5864473676488,2645) translate(60.19018518518519 94.70833333333331)"/><path d="M460 2285a5 5 0 0 1 5-5h430a5 5 0 0 1 5 5v110a5 5 0 0 1-5 5H465a5 5 0 0 1-5-5z" stroke="#000" stroke-opacity="0" stroke-width="2" fill="#fff" fill-opacity="0"/><use xlink:href="#B" transform="matrix(1,0,0,1,465,2285) translate(4.7777777777777715 88.77083333333334)"/><use xlink:href="#C" transform="matrix(1,0,0,1,465,2285) translate(365.96296296296293 88.77083333333334)"/><path d="M2080.9 2285a5 5 0 0 1 5-5H2515a5 5 0 0 1 5 5v110a5 5 0 0 1-5 5h-429.1a5 5 0 0 1-5-5z" stroke="#000" stroke-opacity="0" stroke-width="2" fill="#fff" fill-opacity="0"/><use xlink:href="#D" transform="matrix(1,0,0,1,2085.8895416794558,2285) translate(4.7777777777777715 88.77083333333334)"/><use xlink:href="#E" transform="matrix(1,0,0,1,2085.8895416794558,2285) translate(365.96296296296293 88.77083333333334)"/><path d="M1304.5 3755.5c0 2.5-2.02 4.5-4.5 4.5s-4.5-2-4.5-4.5 2.02-4.5 4.5-4.5 4.5 2 4.5 4.5zm0-18c0 2.47-2.02 4.5-4.5 4.5s-4.5-2.03-4.5-4.5c0-2.5 2.02-4.5 4.5-4.5s4.5 2 4.5 4.5zm0-18.03c0 2.5-2.02 4.5-4.5 4.5s-4.5-2-4.5-4.5c0-2.48 2.02-4.5 4.5-4.5s4.5 2.02 4.5 4.5zm0-18c0 2.48-2.02 4.5-4.5 4.5s-4.5-2.02-4.5-4.5c0-2.5 2.02-4.5 4.5-4.5s4.5 2 4.5 4.5zm0-18.02c0 2.48-2.02 4.5-4.5 4.5s-4.5-2.02-4.5-4.5c0-2.5 2.02-4.5 4.5-4.5s4.5 2 4.5 4.5zm0-18.02c0 2.5-2.02 4.5-4.5 4.5s-4.5-2-4.5-4.5c0-2.48 2.02-4.5 4.5-4.5s4.5 2.02 4.5 4.5zm0-18c0 2.48-2.02 4.5-4.5 4.5s-4.5-2.02-4.5-4.5c0-2.5 2.02-4.5 4.5-4.5s4.5 2 4.5 4.5zm0-18.02c0 2.5-2.02 4.5-4.5 4.5s-4.5-2-4.5-4.5c0-2.48 2.02-4.5 4.5-4.5s4.5 2.02 4.5 4.5zm0-18c0 2.48-2.02 4.5-4.5 4.5s-4.5-2.02-4.5-4.5c0-2.5 2.02-4.5 4.5-4.5s4.5 2 4.5 4.5zm0-18.02c0 2.48-2.02 4.5-4.5 4.5s-4.5-2.02-4.5-4.5c0-2.5 2.02-4.5 4.5-4.5s4.5 2 4.5 4.5zm0-18c0 2.47-2.02 4.5-4.5 4.5s-4.5-2.03-4.5-4.5c0-2.5 2.02-4.5 4.5-4.5s4.5 2 4.5 4.5zm0-18.03c0 2.5-2.02 4.5-4.5 4.5s-4.5-2-4.5-4.5c0-2.48 2.02-4.5 4.5-4.5s4.5 2.02 4.5 4.5zm0-18c0 2.47-2.02 4.5-4.5 4.5s-4.5-2.03-4.5-4.5c0-2.5 2.02-4.5 4.5-4.5s4.5 2 4.5 4.5zm0-18.02c0 2.48-2.02 4.5-4.5 4.5s-4.5-2.02-4.5-4.5c0-2.5 2.02-4.5 4.5-4.5s4.5 2 4.5 4.5zm0-18.02c0 2.5-2.02 4.5-4.5 4.5s-4.5-2-4.5-4.5c0-2.47 2.02-4.5 4.5-4.5s4.5 2.03 4.5 4.5zm0-18c0 2.48-2.02 4.5-4.5 4.5s-4.5-2.02-4.5-4.5c0-2.5 2.02-4.5 4.5-4.5s4.5 2 4.5 4.5zm0-18c0 2.47-2.02 4.5-4.5 4.5s-4.5-2.03-4.5-4.5c0-2.5 2.02-4.5 4.5-4.5s4.5 2 4.5 4.5zm0-18.03c0 2.5-2.02 4.5-4.5 4.5s-4.5-2-4.5-4.5c0-2.48 2.02-4.5 4.5-4.5s4.5 2.02 4.5 4.5zm0-18c0 2.47-2.02 4.5-4.5 4.5s-4.5-2.03-4.5-4.5c0-2.5 2.02-4.5 4.5-4.5s4.5 2 4.5 4.5zm0-18.02c0 2.48-2.02 4.5-4.5 4.5s-4.5-2.02-4.5-4.5c0-2.5 2.02-4.5 4.5-4.5s4.5 2 4.5 4.5zm0-18.02c0 2.5-2.02 4.5-4.5 4.5s-4.5-2-4.5-4.5c0-2.48 2.02-4.5 4.5-4.5s4.5 2.02 4.5 4.5zm0-18c0 2.47-2.02 4.5-4.5 4.5s-4.5-2.03-4.5-4.5c0-2.5 2.02-4.5 4.5-4.5s4.5 2 4.5 4.5zm0-18.02c0 2.5-2.02 4.5-4.5 4.5s-4.5-2-4.5-4.5c0-2.48 2.02-4.5 4.5-4.5s4.5 2.02 4.5 4.5zm0-18c0 2.48-2.02 4.5-4.5 4.5s-4.5-2.02-4.5-4.5c0-2.5 2.02-4.5 4.5-4.5s4.5 2 4.5 4.5zm0-18.02c0 2.5-2.02 4.5-4.5 4.5s-4.5-2-4.5-4.5c0-2.48 2.02-4.5 4.5-4.5s4.5 2.02 4.5 4.5zm0-18c0 2.47-2.02 4.5-4.5 4.5s-4.5-2.03-4.5-4.5c0-2.5 2.02-4.5 4.5-4.5s4.5 2 4.5 4.5zm0-18.03c0 2.5-2.02 4.5-4.5 4.5s-4.5-2-4.5-4.5c0-2.48 2.02-4.5 4.5-4.5s4.5 2.02 4.5 4.5zm0-18c0 2.47-2.02 4.5-4.5 4.5s-4.5-2.03-4.5-4.5c0-2.5 2.02-4.5 4.5-4.5s4.5 2 4.5 4.5zm0-18.02c0 2.48-2.02 4.5-4.5 4.5s-4.5-2.02-4.5-4.5c0-2.5 2.02-4.5 4.5-4.5s4.5 2 4.5 4.5zm0-18.02c0 2.5-2.02 4.5-4.5 4.5s-4.5-2-4.5-4.5c0-2.47 2.02-4.5 4.5-4.5s4.5 2.03 4.5 4.5zm0-18c0 2.5-2.02 4.5-4.5 4.5s-4.5-2-4.5-4.5 2.02-4.5 4.5-4.5 4.5 2 4.5 4.5zm0-18c0 2.47-2.02 4.5-4.5 4.5s-4.5-2.03-4.5-4.5c0-2.5 2.02-4.5 4.5-4.5s4.5 2 4.5 4.5zm0-18.03c0 2.5-2.02 4.5-4.5 4.5s-4.5-2-4.5-4.5c0-2.48 2.02-4.5 4.5-4.5s4.5 2.02 4.5 4.5zm0-18c0 2.47-2.02 4.5-4.5 4.5s-4.5-2.03-4.5-4.5c0-2.5 2.02-4.5 4.5-4.5s4.5 2 4.5 4.5zm0-18.02c0 2.48-2.02 4.5-4.5 4.5s-4.5-2.02-4.5-4.5c0-2.5 2.02-4.5 4.5-4.5s4.5 2 4.5 4.5zm0-18.02c0 2.5-2.02 4.5-4.5 4.5s-4.5-2-4.5-4.5c0-2.48 2.02-4.5 4.5-4.5s4.5 2.02 4.5 4.5zm0-18c0 2.47-2.02 4.5-4.5 4.5s-4.5-2.03-4.5-4.5c0-2.5 2.02-4.5 4.5-4.5s4.5 2 4.5 4.5zm0-18.02c0 2.5-2.02 4.5-4.5 4.5s-4.5-2-4.5-4.5c0-2.48 2.02-4.5 4.5-4.5s4.5 2.02 4.5 4.5zm0-18c0 2.48-2.02 4.5-4.5 4.5s-4.5-2.02-4.5-4.5c0-2.5 2.02-4.5 4.5-4.5s4.5 2 4.5 4.5zm0-18.02c0 2.5-2.02 4.5-4.5 4.5s-4.5-2-4.5-4.5 2.02-4.5 4.5-4.5 4.5 2 4.5 4.5zm0-18c0 2.47-2.02 4.5-4.5 4.5s-4.5-2.03-4.5-4.5c0-2.5 2.02-4.5 4.5-4.5s4.5 2 4.5 4.5zm0-18.03c0 2.5-2.02 4.5-4.5 4.5s-4.5-2-4.5-4.5c0-2.48 2.02-4.5 4.5-4.5s4.5 2.02 4.5 4.5zm0-18c0 2.48-2.02 4.5-4.5 4.5s-4.5-2.02-4.5-4.5c0-2.5 2.02-4.5 4.5-4.5s4.5 2 4.5 4.5zm0-18.02c0 2.48-2.02 4.5-4.5 4.5s-4.5-2.02-4.5-4.5c0-2.5 2.02-4.5 4.5-4.5s4.5 2 4.5 4.5zm0-18.02c0 2.5-2.02 4.5-4.5 4.5s-4.5-2-4.5-4.5c0-2.47 2.02-4.5 4.5-4.5s4.5 2.03 4.5 4.5zm0-18c0 2.5-2.02 4.5-4.5 4.5s-4.5-2-4.5-4.5 2.02-4.5 4.5-4.5 4.5 2 4.5 4.5zm0-18c0 2.47-2.02 4.5-4.5 4.5s-4.5-2.03-4.5-4.5c0-2.5 2.02-4.5 4.5-4.5s4.5 2 4.5 4.5zm0-18.03c0 2.5-2.02 4.5-4.5 4.5s-4.5-2-4.5-4.5c0-2.48 2.02-4.5 4.5-4.5s4.5 2.02 4.5 4.5zm0-18c0 2.47-2.02 4.5-4.5 4.5s-4.5-2.03-4.5-4.5c0-2.5 2.02-4.5 4.5-4.5s4.5 2 4.5 4.5zm0-18.02c0 2.48-2.02 4.5-4.5 4.5s-4.5-2.02-4.5-4.5c0-2.5 2.02-4.5 4.5-4.5s4.5 2 4.5 4.5zm0-18.02c0 2.5-2.02 4.5-4.5 4.5s-4.5-2-4.5-4.5c0-2.48 2.02-4.5 4.5-4.5s4.5 2.02 4.5 4.5zm0-18c0 2.47-2.02 4.5-4.5 4.5s-4.5-2.03-4.5-4.5c0-2.5 2.02-4.5 4.5-4.5s4.5 2 4.5 4.5zm0-18.02c0 2.5-2.02 4.5-4.5 4.5s-4.5-2-4.5-4.5c0-2.48 2.02-4.5 4.5-4.5s4.5 2.02 4.5 4.5zm0-18c0 2.48-2.02 4.5-4.5 4.5s-4.5-2.02-4.5-4.5c0-2.5 2.02-4.5 4.5-4.5s4.5 2 4.5 4.5zm0-18.02c0 2.48-2.02 4.5-4.5 4.5s-4.5-2.02-4.5-4.5c0-2.5 2.02-4.5 4.5-4.5s4.5 2 4.5 4.5zm0-18c0 2.47-2.02 4.5-4.5 4.5s-4.5-2.03-4.5-4.5c0-2.5 2.02-4.5 4.5-4.5s4.5 2 4.5 4.5zm0-18.03c0 2.5-2.02 4.5-4.5 4.5s-4.5-2-4.5-4.5c0-2.48 2.02-4.5 4.5-4.5s4.5 2.02 4.5 4.5zm0-18c0 2.47-2.02 4.5-4.5 4.5s-4.5-2.03-4.5-4.5c0-2.5 2.02-4.5 4.5-4.5s4.5 2 4.5 4.5zm0-18.02c0 2.48-2.02 4.5-4.5 4.5s-4.5-2.02-4.5-4.5c0-2.5 2.02-4.5 4.5-4.5s4.5 2 4.5 4.5zm0-18.02c0 2.5-2.02 4.5-4.5 4.5s-4.5-2-4.5-4.5c0-2.47 2.02-4.5 4.5-4.5s4.5 2.03 4.5 4.5zm0-18c0 2.5-2.02 4.5-4.5 4.5s-4.5-2-4.5-4.5c0-2.48 2.02-4.5 4.5-4.5s4.5 2.02 4.5 4.5zm0-18c0 2.47-2.02 4.5-4.5 4.5s-4.5-2.03-4.5-4.5c0-2.5 2.02-4.5 4.5-4.5s4.5 2 4.5 4.5zm0-18.03c0 2.5-2.02 4.5-4.5 4.5s-4.5-2-4.5-4.5c0-2.48 2.02-4.5 4.5-4.5s4.5 2.02 4.5 4.5zm0-18c0 2.47-2.02 4.5-4.5 4.5s-4.5-2.03-4.5-4.5c0-2.5 2.02-4.5 4.5-4.5s4.5 2 4.5 4.5zm0-18.02c0 2.48-2.02 4.5-4.5 4.5s-4.5-2.02-4.5-4.5c0-2.5 2.02-4.5 4.5-4.5s4.5 2 4.5 4.5zm0-18.02c0 2.5-2.02 4.5-4.5 4.5s-4.5-2-4.5-4.5c0-2.48 2.02-4.5 4.5-4.5s4.5 2.02 4.5 4.5zm0-18c0 2.47-2.02 4.5-4.5 4.5s-4.5-2.03-4.5-4.5c0-2.5 2.02-4.5 4.5-4.5s4.5 2 4.5 4.5zm0-18.02c0 2.5-2.02 4.5-4.5 4.5s-4.5-2-4.5-4.5c0-2.48 2.02-4.5 4.5-4.5s4.5 2.02 4.5 4.5zm0-18c0 2.48-2.02 4.5-4.5 4.5s-4.5-2.02-4.5-4.5c0-2.5 2.02-4.5 4.5-4.5s4.5 2 4.5 4.5zm0-18.02c0 2.5-2.02 4.5-4.5 4.5s-4.5-2-4.5-4.5 2.02-4.5 4.5-4.5 4.5 2 4.5 4.5zm0-18c0 2.47-2.02 4.5-4.5 4.5s-4.5-2.03-4.5-4.5c0-2.5 2.02-4.5 4.5-4.5s4.5 2 4.5 4.5zm0-18.03c0 2.5-2.02 4.5-4.5 4.5s-4.5-2-4.5-4.5c0-2.48 2.02-4.5 4.5-4.5s4.5 2.02 4.5 4.5zm0-18c0 2.47-2.02 4.5-4.5 4.5s-4.5-2.03-4.5-4.5c0-2.5 2.02-4.5 4.5-4.5s4.5 2 4.5 4.5zm0-18.02c0 2.48-2.02 4.5-4.5 4.5s-4.5-2.02-4.5-4.5c0-2.5 2.02-4.5 4.5-4.5s4.5 2 4.5 4.5zm0-18.02c0 2.5-2.02 4.5-4.5 4.5s-4.5-2-4.5-4.5c0-2.47 2.02-4.5 4.5-4.5s4.5 2.03 4.5 4.5zm0-18c0 2.5-2.02 4.5-4.5 4.5s-4.5-2-4.5-4.5 2.02-4.5 4.5-4.5 4.5 2 4.5 4.5z" fill="#0c7cba"/><path d="M1300 3755.4v4.6M1300 2404.6v-4.6" stroke="#0c7cba" stroke-width="9" fill="none"/><path d="M447.22 3035.5a6 6 0 0 1 6 6v759.28a6 6 0 0 1-6 6H426a6 6 0 0 1-6-6V3041.5a6 6 0 0 1 6-6z" stroke="#000" stroke-opacity="0" fill="#6db1ff"/><path d="M420.3 3034.67a6 6 0 0 1 6.02-5.97l137.1.5a6 6 0 0 0 6.03-5.97l.02-4.94a2.3 2.3 0 0 1 4.02-1.54l22.37 25.06a6.67 6.67 0 0 1-.03 8.92l-22.57 24.88a2.3 2.3 0 0 1-4-1.55v-4.95a6 6 0 0 0-5.97-6.02l-137.1-.5a6 6 0 0 1-6-6.03zM3180 3800.78a6 6 0 0 1-6 6H426a6 6 0 0 1-6-6v-21.22a6 6 0 0 1 6-6h2748a6 6 0 0 1 6 6z" stroke="#000" stroke-opacity="0" fill="#6db1ff"/><path d="M3174 3041.94a6 6 0 0 1 6 6v728a6 6 0 0 1-6 6h-21.22a6 6 0 0 1-6-6v-728a6 6 0 0 1 6-6z" stroke="#000" stroke-opacity="0" fill="#6db1ff"/><path d="M3180 3054a6 6 0 0 1-6 6h-88a6 6 0 0 1-6-6v-21.46a6 6 0 0 1 6-6h88a6 6 0 0 1 6 6z" stroke="#000" stroke-opacity="0" fill="#6db1ff"/><path d="M2520 3333.68a5 5 0 0 1 5-5h214.57a5 5 0 0 1 5 5v108.23a5 5 0 0 1-5 5H2525a5 5 0 0 1-5-5z" stroke="#979ea8" stroke-width="2" fill="#fff7a1"/><use xlink:href="#F" transform="matrix(1,0,0,1,2525,3333.684388149678) translate(9.228395061728477 74.51736111111106)"/><path d="M1330 2841.54a5 5 0 0 1 5-5h270a5 5 0 0 1 5 5V3355a5 5 0 0 1-5 5h-270a5 5 0 0 1-5-5z" stroke="#6db1ff" stroke-width="9" fill-opacity="0"/><path d="M1550 2720c0 44.18-35.82 80-80 80s-80-35.82-80-80 35.82-80 80-80 80 35.82 80 80z" stroke="#000" stroke-width="6" fill="#fff"/><use xlink:href="#G" transform="matrix(1,0,0,1,1395.0000000000002,2645) translate(48.33833333333333 107.02165333333335)"/><path d="M1350 3013.27a5 5 0 0 1 5-5h230a5 5 0 0 1 5 5v170a5 5 0 0 1-5 5h-230a5 5 0 0 1-5-5z" stroke="#979ea8" stroke-width="2" fill="#fc9432"/><use xlink:href="#H" transform="matrix(1,0,0,1,1355,3013.267952701195) translate(30.777777777777786 101.1875)"/><path d="M2480 3189.34h47.82v41.32H2480z" fill="#fff" fill-opacity="0"/><path d="M2523.6 3229.46h-20.3c-11.16 0-19.12-9.14-19.12-19.46s7.82-19.46 18.9-19.46h20.52v4.6h-20.23c-7.2 0-13.2 5.93-14.37 12.56h34.6v4.6h-34.67c1.18 6.63 7.18 12.56 14.37 12.56h20.3v4.6"/><path d="M1660 3560h525.3v80H1660z" stroke="#000" stroke-opacity="0" stroke-width="2" fill="#fff" fill-opacity="0"/><use xlink:href="#I" transform="matrix(1,0,0,1,1665,3565) translate(0 48.77604166666667)"/><use xlink:href="#J" transform="matrix(1,0,0,1,1665,3565) translate(160.02604166666669 48.77604166666667)"/><path d="M2320 3180h720v60h-720z" stroke="#000" stroke-opacity="0" stroke-width="2" fill="#fff" fill-opacity="0"/><use xlink:href="#K" transform="matrix(1,0,0,1,2325,3185) translate(0 47.52604166666667)"/><use xlink:href="#L" transform="matrix(1,0,0,1,2325,3185) translate(96.015625 47.52604166666667)"/><use xlink:href="#M" transform="matrix(1,0,0,1,2325,3185) translate(224.03645833333334 47.52604166666667)"/><use xlink:href="#N" transform="matrix(1,0,0,1,2325,3185) translate(512.0833333333334 47.52604166666667)"/><path d="M620 2841.54a5 5 0 0 1 5-5h270a5 5 0 0 1 5 5V3355a5 5 0 0 1-5 5H625a5 5 0 0 1-5-5z" stroke="#6db1ff" stroke-width="9" fill-opacity="0"/><path d="M840 2720c0 44.18-35.82 80-80 80s-80-35.82-80-80 35.82-80 80-80 80 35.82 80 80z" stroke="#000" stroke-width="6" fill="#fff"/><use xlink:href="#O" transform="matrix(1,0,0,1,685.0000000000005,2645) translate(45.37537037037037 107.02165333333335)"/><path d="M640 2865a5 5 0 0 1 5-5h230a5 5 0 0 1 5 5v190a5 5 0 0 1-5 5H645a5 5 0 0 1-5-5z" stroke="#979ea8" stroke-width="2" fill="#ffbbb1"/><use xlink:href="#P" transform="matrix(1,0,0,1,645,2865) translate(23.27777777777777 111.5)"/><path d="M640 3123.1a5 5 0 0 1 5-5h230a5 5 0 0 1 5 5v210a5 5 0 0 1-5 5H645a5 5 0 0 1-5-5z" stroke="#979ea8" stroke-width="2" fill="#ffbbb1"/><g><use xlink:href="#P" transform="matrix(1,0,0,1,645.0000000000002,3123.1076388888887) translate(23.27777777777777 123.0625)"/></g><path d="M944.5 3755.5c0 2.5-2 4.5-4.5 4.5s-4.5-2-4.5-4.5 2-4.5 4.5-4.5 4.5 2 4.5 4.5zm0-18c0 2.47-2 4.5-4.5 4.5s-4.5-2.03-4.5-4.5c0-2.5 2-4.5 4.5-4.5s4.5 2 4.5 4.5zm0-18.03c0 2.5-2 4.5-4.5 4.5s-4.5-2-4.5-4.5c0-2.48 2-4.5 4.5-4.5s4.5 2.02 4.5 4.5zm0-18c0 2.48-2 4.5-4.5 4.5s-4.5-2.02-4.5-4.5c0-2.5 2-4.5 4.5-4.5s4.5 2 4.5 4.5zm0-18.02c0 2.48-2 4.5-4.5 4.5s-4.5-2.02-4.5-4.5c0-2.5 2-4.5 4.5-4.5s4.5 2 4.5 4.5zm0-18.02c0 2.5-2 4.5-4.5 4.5s-4.5-2-4.5-4.5c0-2.48 2-4.5 4.5-4.5s4.5 2.02 4.5 4.5zm0-18c0 2.48-2 4.5-4.5 4.5s-4.5-2.02-4.5-4.5c0-2.5 2-4.5 4.5-4.5s4.5 2 4.5 4.5zm0-18.02c0 2.5-2 4.5-4.5 4.5s-4.5-2-4.5-4.5c0-2.48 2-4.5 4.5-4.5s4.5 2.02 4.5 4.5zm0-18c0 2.48-2 4.5-4.5 4.5s-4.5-2.02-4.5-4.5c0-2.5 2-4.5 4.5-4.5s4.5 2 4.5 4.5zm0-18.02c0 2.48-2 4.5-4.5 4.5s-4.5-2.02-4.5-4.5c0-2.5 2-4.5 4.5-4.5s4.5 2 4.5 4.5zm0-18c0 2.47-2 4.5-4.5 4.5s-4.5-2.03-4.5-4.5c0-2.5 2-4.5 4.5-4.5s4.5 2 4.5 4.5zm0-18.03c0 2.5-2 4.5-4.5 4.5s-4.5-2-4.5-4.5c0-2.48 2-4.5 4.5-4.5s4.5 2.02 4.5 4.5zm0-18c0 2.47-2 4.5-4.5 4.5s-4.5-2.03-4.5-4.5c0-2.5 2-4.5 4.5-4.5s4.5 2 4.5 4.5zm0-18.02c0 2.48-2 4.5-4.5 4.5s-4.5-2.02-4.5-4.5c0-2.5 2-4.5 4.5-4.5s4.5 2 4.5 4.5zm0-18.02c0 2.5-2 4.5-4.5 4.5s-4.5-2-4.5-4.5c0-2.47 2-4.5 4.5-4.5s4.5 2.03 4.5 4.5zm0-18c0 2.48-2 4.5-4.5 4.5s-4.5-2.02-4.5-4.5c0-2.5 2-4.5 4.5-4.5s4.5 2 4.5 4.5zm0-18c0 2.47-2 4.5-4.5 4.5s-4.5-2.03-4.5-4.5c0-2.5 2-4.5 4.5-4.5s4.5 2 4.5 4.5zm0-18.03c0 2.5-2 4.5-4.5 4.5s-4.5-2-4.5-4.5c0-2.48 2-4.5 4.5-4.5s4.5 2.02 4.5 4.5zm0-18c0 2.47-2 4.5-4.5 4.5s-4.5-2.03-4.5-4.5c0-2.5 2-4.5 4.5-4.5s4.5 2 4.5 4.5zm0-18.02c0 2.48-2 4.5-4.5 4.5s-4.5-2.02-4.5-4.5c0-2.5 2-4.5 4.5-4.5s4.5 2 4.5 4.5zm0-18.02c0 2.5-2 4.5-4.5 4.5s-4.5-2-4.5-4.5c0-2.48 2-4.5 4.5-4.5s4.5 2.02 4.5 4.5zm0-18c0 2.47-2 4.5-4.5 4.5s-4.5-2.03-4.5-4.5c0-2.5 2-4.5 4.5-4.5s4.5 2 4.5 4.5zm0-18.02c0 2.5-2 4.5-4.5 4.5s-4.5-2-4.5-4.5c0-2.48 2-4.5 4.5-4.5s4.5 2.02 4.5 4.5zm0-18c0 2.48-2 4.5-4.5 4.5s-4.5-2.02-4.5-4.5c0-2.5 2-4.5 4.5-4.5s4.5 2 4.5 4.5zm0-18.02c0 2.5-2 4.5-4.5 4.5s-4.5-2-4.5-4.5c0-2.48 2-4.5 4.5-4.5s4.5 2.02 4.5 4.5zm0-18c0 2.47-2 4.5-4.5 4.5s-4.5-2.03-4.5-4.5c0-2.5 2-4.5 4.5-4.5s4.5 2 4.5 4.5zm0-18.03c0 2.5-2 4.5-4.5 4.5s-4.5-2-4.5-4.5c0-2.48 2-4.5 4.5-4.5s4.5 2.02 4.5 4.5zm0-18c0 2.47-2 4.5-4.5 4.5s-4.5-2.03-4.5-4.5c0-2.5 2-4.5 4.5-4.5s4.5 2 4.5 4.5zm0-18.02c0 2.48-2 4.5-4.5 4.5s-4.5-2.02-4.5-4.5c0-2.5 2-4.5 4.5-4.5s4.5 2 4.5 4.5zm0-18.02c0 2.5-2 4.5-4.5 4.5s-4.5-2-4.5-4.5c0-2.47 2-4.5 4.5-4.5s4.5 2.03 4.5 4.5zm0-18c0 2.5-2 4.5-4.5 4.5s-4.5-2-4.5-4.5 2-4.5 4.5-4.5 4.5 2 4.5 4.5zm0-18c0 2.47-2 4.5-4.5 4.5s-4.5-2.03-4.5-4.5c0-2.5 2-4.5 4.5-4.5s4.5 2 4.5 4.5zm0-18.03c0 2.5-2 4.5-4.5 4.5s-4.5-2-4.5-4.5c0-2.48 2-4.5 4.5-4.5s4.5 2.02 4.5 4.5zm0-18c0 2.47-2 4.5-4.5 4.5s-4.5-2.03-4.5-4.5c0-2.5 2-4.5 4.5-4.5s4.5 2 4.5 4.5zm0-18.02c0 2.48-2 4.5-4.5 4.5s-4.5-2.02-4.5-4.5c0-2.5 2-4.5 4.5-4.5s4.5 2 4.5 4.5zm0-18.02c0 2.5-2 4.5-4.5 4.5s-4.5-2-4.5-4.5c0-2.48 2-4.5 4.5-4.5s4.5 2.02 4.5 4.5zm0-18c0 2.47-2 4.5-4.5 4.5s-4.5-2.03-4.5-4.5c0-2.5 2-4.5 4.5-4.5s4.5 2 4.5 4.5zm0-18.02c0 2.5-2 4.5-4.5 4.5s-4.5-2-4.5-4.5c0-2.48 2-4.5 4.5-4.5s4.5 2.02 4.5 4.5zm0-18c0 2.48-2 4.5-4.5 4.5s-4.5-2.02-4.5-4.5c0-2.5 2-4.5 4.5-4.5s4.5 2 4.5 4.5zm0-18.02c0 2.5-2 4.5-4.5 4.5s-4.5-2-4.5-4.5 2-4.5 4.5-4.5 4.5 2 4.5 4.5zm0-18c0 2.47-2 4.5-4.5 4.5s-4.5-2.03-4.5-4.5c0-2.5 2-4.5 4.5-4.5s4.5 2 4.5 4.5zm0-18.03c0 2.5-2 4.5-4.5 4.5s-4.5-2-4.5-4.5c0-2.48 2-4.5 4.5-4.5s4.5 2.02 4.5 4.5zm0-18c0 2.48-2 4.5-4.5 4.5s-4.5-2.02-4.5-4.5c0-2.5 2-4.5 4.5-4.5s4.5 2 4.5 4.5zm0-18.02c0 2.48-2 4.5-4.5 4.5s-4.5-2.02-4.5-4.5c0-2.5 2-4.5 4.5-4.5s4.5 2 4.5 4.5zm0-18.02c0 2.5-2 4.5-4.5 4.5s-4.5-2-4.5-4.5c0-2.47 2-4.5 4.5-4.5s4.5 2.03 4.5 4.5zm0-18c0 2.5-2 4.5-4.5 4.5s-4.5-2-4.5-4.5 2-4.5 4.5-4.5 4.5 2 4.5 4.5zm0-18c0 2.47-2 4.5-4.5 4.5s-4.5-2.03-4.5-4.5c0-2.5 2-4.5 4.5-4.5s4.5 2 4.5 4.5zm0-18.03c0 2.5-2 4.5-4.5 4.5s-4.5-2-4.5-4.5c0-2.48 2-4.5 4.5-4.5s4.5 2.02 4.5 4.5zm0-18c0 2.47-2 4.5-4.5 4.5s-4.5-2.03-4.5-4.5c0-2.5 2-4.5 4.5-4.5s4.5 2 4.5 4.5zm0-18.02c0 2.48-2 4.5-4.5 4.5s-4.5-2.02-4.5-4.5c0-2.5 2-4.5 4.5-4.5s4.5 2 4.5 4.5zm0-18.02c0 2.5-2 4.5-4.5 4.5s-4.5-2-4.5-4.5c0-2.48 2-4.5 4.5-4.5s4.5 2.02 4.5 4.5zm0-18c0 2.47-2 4.5-4.5 4.5s-4.5-2.03-4.5-4.5c0-2.5 2-4.5 4.5-4.5s4.5 2 4.5 4.5zm0-18.02c0 2.5-2 4.5-4.5 4.5s-4.5-2-4.5-4.5c0-2.48 2-4.5 4.5-4.5s4.5 2.02 4.5 4.5zm0-18c0 2.48-2 4.5-4.5 4.5s-4.5-2.02-4.5-4.5c0-2.5 2-4.5 4.5-4.5s4.5 2 4.5 4.5zm0-18.02c0 2.48-2 4.5-4.5 4.5s-4.5-2.02-4.5-4.5c0-2.5 2-4.5 4.5-4.5s4.5 2 4.5 4.5zm0-18c0 2.47-2 4.5-4.5 4.5s-4.5-2.03-4.5-4.5c0-2.5 2-4.5 4.5-4.5s4.5 2 4.5 4.5zm0-18.03c0 2.5-2 4.5-4.5 4.5s-4.5-2-4.5-4.5c0-2.48 2-4.5 4.5-4.5s4.5 2.02 4.5 4.5zm0-18c0 2.47-2 4.5-4.5 4.5s-4.5-2.03-4.5-4.5c0-2.5 2-4.5 4.5-4.5s4.5 2 4.5 4.5zm0-18.02c0 2.48-2 4.5-4.5 4.5s-4.5-2.02-4.5-4.5c0-2.5 2-4.5 4.5-4.5s4.5 2 4.5 4.5zm0-18.02c0 2.5-2 4.5-4.5 4.5s-4.5-2-4.5-4.5c0-2.47 2-4.5 4.5-4.5s4.5 2.03 4.5 4.5zm0-18c0 2.5-2 4.5-4.5 4.5s-4.5-2-4.5-4.5c0-2.48 2-4.5 4.5-4.5s4.5 2.02 4.5 4.5zm0-18c0 2.47-2 4.5-4.5 4.5s-4.5-2.03-4.5-4.5c0-2.5 2-4.5 4.5-4.5s4.5 2 4.5 4.5zm0-18.03c0 2.5-2 4.5-4.5 4.5s-4.5-2-4.5-4.5c0-2.48 2-4.5 4.5-4.5s4.5 2.02 4.5 4.5zm0-18c0 2.47-2 4.5-4.5 4.5s-4.5-2.03-4.5-4.5c0-2.5 2-4.5 4.5-4.5s4.5 2 4.5 4.5zm0-18.02c0 2.48-2 4.5-4.5 4.5s-4.5-2.02-4.5-4.5c0-2.5 2-4.5 4.5-4.5s4.5 2 4.5 4.5zm0-18.02c0 2.5-2 4.5-4.5 4.5s-4.5-2-4.5-4.5c0-2.48 2-4.5 4.5-4.5s4.5 2.02 4.5 4.5zm0-18c0 2.47-2 4.5-4.5 4.5s-4.5-2.03-4.5-4.5c0-2.5 2-4.5 4.5-4.5s4.5 2 4.5 4.5zm0-18.02c0 2.5-2 4.5-4.5 4.5s-4.5-2-4.5-4.5c0-2.48 2-4.5 4.5-4.5s4.5 2.02 4.5 4.5zm0-18c0 2.48-2 4.5-4.5 4.5s-4.5-2.02-4.5-4.5c0-2.5 2-4.5 4.5-4.5s4.5 2 4.5 4.5zm0-18.02c0 2.5-2 4.5-4.5 4.5s-4.5-2-4.5-4.5 2-4.5 4.5-4.5 4.5 2 4.5 4.5zm0-18c0 2.47-2 4.5-4.5 4.5s-4.5-2.03-4.5-4.5c0-2.5 2-4.5 4.5-4.5s4.5 2 4.5 4.5zm0-18.03c0 2.5-2 4.5-4.5 4.5s-4.5-2-4.5-4.5c0-2.48 2-4.5 4.5-4.5s4.5 2.02 4.5 4.5zm0-18c0 2.47-2 4.5-4.5 4.5s-4.5-2.03-4.5-4.5c0-2.5 2-4.5 4.5-4.5s4.5 2 4.5 4.5zm0-18.02c0 2.48-2 4.5-4.5 4.5s-4.5-2.02-4.5-4.5c0-2.5 2-4.5 4.5-4.5s4.5 2 4.5 4.5zm0-18.02c0 2.5-2 4.5-4.5 4.5s-4.5-2-4.5-4.5c0-2.47 2-4.5 4.5-4.5s4.5 2.03 4.5 4.5zm0-18c0 2.5-2 4.5-4.5 4.5s-4.5-2-4.5-4.5 2-4.5 4.5-4.5 4.5 2 4.5 4.5z" fill="#0c7cba"/><path d="M940 3755.4v4.6" stroke="#0c7cba" stroke-width="9" fill="none"/><path d="M944.48 2404.6h-8.96v-4.6h8.96z" stroke="#0c7cba" stroke-width=".05" fill="#0c7cba"/><path d="M980 2841.54a5 5 0 0 1 5-5h270a5 5 0 0 1 5 5V3355a5 5 0 0 1-5 5H985a5 5 0 0 1-5-5z" stroke="#6db1ff" stroke-width="9" fill-opacity="0"/><path d="M1000.84 2865a5 5 0 0 1 5-5h228.32a5 5 0 0 1 5 5v193.46a5 5 0 0 1-5 5h-228.32a5 5 0 0 1-5-5z" stroke="#979ea8" stroke-width="2" fill="#ffbbb1"/><g><use xlink:href="#Q" transform="matrix(1,0,0,1,1005.8359567941584,2865) translate(19.055555555555543 112.5)"/></g><path d="M1023.17 3163.8a5 5 0 0 1 5-5H1215a5 5 0 0 1 5 5v128.63a5 5 0 0 1-5 5h-186.83a5 5 0 0 1-5-5z" stroke="#979ea8" stroke-width="2" fill="#fff7a1"/><g><use xlink:href="#R" transform="matrix(1,0,0,1,1028.1728947352972,3163.787862203677) translate(47.2037037037037 77.52083333333334)"/></g><path d="M1700 3344.1a6 6 0 0 1 6-6h48a6 6 0 0 1 6 6v88.13a6 6 0 0 1-6 6h-48a6 6 0 0 1-6-6z" fill="#fff" fill-opacity="0"/><g><use xlink:href="#S" transform="matrix(1,0,0,1,1705,3343.1076388888887) translate(0 64.75151909722219)"/></g><path d="M2660 3444.23a6 6 0 0 1 6-6h348a6 6 0 0 1 6 6v65.37a6 6 0 0 1-6 6h-348a6 6 0 0 1-6-6z" fill="#fff" fill-opacity="0"/><g><use xlink:href="#T" transform="matrix(1,0,0,1,2665,3443.2295923004835) translate(0 44.40104166666667)"/></g><path d="M2060 3666.5a5 5 0 0 1 5-5h310a5 5 0 0 1 5 5v88.5a5 5 0 0 1-5 5h-310a5 5 0 0 1-5-5z" stroke="#000" stroke-opacity="0" stroke-width="2" fill="#fff" fill-opacity="0"/><g><use xlink:href="#U" transform="matrix(1,0,0,1,2065,3666.5010685538373) translate(18.895061728395632 63.22569444444419)"/></g><path d="M2200 3291.07a5 5 0 0 1 5-5h228.33a5 5 0 0 1 5 5v193.46a5 5 0 0 1-5 5H2205a5 5 0 0 1-5-5z" stroke="#979ea8" stroke-width="2" fill="#ffbbb1"/><g><use xlink:href="#Q" transform="matrix(1,0,0,1,2205,3291.067137001115) translate(19.055555555555543 112.5)"/></g><defs><path d="M233-177c-1 41-23 64-60 70L243 0h-38l-65-103H63V0H30v-248c88 3 205-21 203 71zM63-129c60-2 137 13 137-47 0-61-80-42-137-45v92" id="V"/><path d="M100-194c63 0 86 42 84 106H49c0 40 14 67 53 68 26 1 43-12 49-29l28 8c-11 28-37 45-77 45C44 4 14-33 15-96c1-61 26-98 85-98zm52 81c6-60-76-77-97-28-3 7-6 17-6 28h103" id="W"/><path d="M141-36C126-15 110 5 73 4 37 3 15-17 15-53c-1-64 63-63 125-63 3-35-9-54-41-54-24 1-41 7-42 31l-33-3c5-37 33-52 76-52 45 0 72 20 72 64v82c-1 20 7 32 28 27v20c-31 9-61-2-59-35zM48-53c0 20 12 33 32 33 41-3 63-29 60-74-43 2-92-5-92 41" id="X"/><path d="M85-194c31 0 48 13 60 33l-1-100h32l1 261h-30c-2-10 0-23-3-31C134-8 116 4 85 4 32 4 16-35 15-94c0-66 23-100 70-100zm9 24c-40 0-46 34-46 75 0 40 6 74 45 74 42 0 51-32 51-76 0-42-9-74-50-73" id="Y"/><g id="a"><use transform="matrix(0.25308641975308593,0,0,0.25308641975308593,0,0)" xlink:href="#V"/><use transform="matrix(0.25308641975308593,0,0,0.25308641975308593,65.54938271604925,0)" xlink:href="#W"/><use transform="matrix(0.25308641975308593,0,0,0.25308641975308593,116.16666666666643,0)" xlink:href="#X"/><use transform="matrix(0.25308641975308593,0,0,0.25308641975308593,166.7839506172836,0)" xlink:href="#Y"/></g><path d="M266 0h-40l-56-210L115 0H75L2-248h35L96-30l15-64 43-154h32l59 218 59-218h35" id="Z"/><path d="M114-163C36-179 61-72 57 0H25l-1-190h30c1 12-1 29 2 39 6-27 23-49 58-41v29" id="aa"/><path d="M24-231v-30h32v30H24zM24 0v-190h32V0H24" id="ab"/><path d="M59-47c-2 24 18 29 38 22v24C64 9 27 4 27-40v-127H5v-23h24l9-43h21v43h35v23H59v120" id="ac"/><g id="b"><use transform="matrix(0.25308641975308593,0,0,0.25308641975308593,0,0)" xlink:href="#Z"/><use transform="matrix(0.25308641975308593,0,0,0.25308641975308593,84.02469135802453,0)" xlink:href="#aa"/><use transform="matrix(0.25308641975308593,0,0,0.25308641975308593,114.14197530864175,0)" xlink:href="#ab"/><use transform="matrix(0.25308641975308593,0,0,0.25308641975308593,134.13580246913554,0)" xlink:href="#ac"/><use transform="matrix(0.25308641975308593,0,0,0.25308641975308593,159.44444444444414,0)" xlink:href="#W"/></g><path d="M30 0v-248h187v28H63v79h144v27H63v87h162V0H30" id="ad"/><path d="M117-194c89-4 53 116 60 194h-32v-121c0-31-8-49-39-48C34-167 62-67 57 0H25l-1-190h30c1 10-1 24 2 32 11-22 29-35 61-36" id="ae"/><path d="M177-190C167-65 218 103 67 71c-23-6-38-20-44-43l32-5c15 47 100 32 89-28v-30C133-14 115 1 83 1 29 1 15-40 15-95c0-56 16-97 71-98 29-1 48 16 59 35 1-10 0-23 2-32h30zM94-22c36 0 50-32 50-73 0-42-14-75-50-75-39 0-46 34-46 75s6 73 46 73" id="af"/><g id="c"><use transform="matrix(0.25308641975308593,0,0,0.25308641975308593,0,0)" xlink:href="#ad"/><use transform="matrix(0.25308641975308593,0,0,0.25308641975308593,60.74074074074063,0)" xlink:href="#ae"/><use transform="matrix(0.25308641975308593,0,0,0.25308641975308593,111.35802469135781,0)" xlink:href="#af"/><use transform="matrix(0.25308641975308593,0,0,0.25308641975308593,161.975308641975,0)" xlink:href="#ab"/><use transform="matrix(0.25308641975308593,0,0,0.25308641975308593,181.9691358024688,0)" xlink:href="#ae"/><use transform="matrix(0.25308641975308593,0,0,0.25308641975308593,232.58641975308598,0)" xlink:href="#W"/></g><path fill="#e81313" d="M233-177c-1 41-23 64-60 70L243 0h-38l-65-103H63V0H30v-248c88 3 205-21 203 71zM63-129c60-2 137 13 137-47 0-61-80-42-137-45v92" id="ag"/><path fill="#e81313" d="M100-194c63 0 86 42 84 106H49c0 40 14 67 53 68 26 1 43-12 49-29l28 8c-11 28-37 45-77 45C44 4 14-33 15-96c1-61 26-98 85-98zm52 81c6-60-76-77-97-28-3 7-6 17-6 28h103" id="ah"/><path fill="#e81313" d="M141-36C126-15 110 5 73 4 37 3 15-17 15-53c-1-64 63-63 125-63 3-35-9-54-41-54-24 1-41 7-42 31l-33-3c5-37 33-52 76-52 45 0 72 20 72 64v82c-1 20 7 32 28 27v20c-31 9-61-2-59-35zM48-53c0 20 12 33 32 33 41-3 63-29 60-74-43 2-92-5-92 41" id="ai"/><path fill="#e81313" d="M85-194c31 0 48 13 60 33l-1-100h32l1 261h-30c-2-10 0-23-3-31C134-8 116 4 85 4 32 4 16-35 15-94c0-66 23-100 70-100zm9 24c-40 0-46 34-46 75 0 40 6 74 45 74 42 0 51-32 51-76 0-42-9-74-50-73" id="aj"/><g id="d"><use transform="matrix(0.20987654320987628,0,0,0.20987654320987628,0,0)" xlink:href="#ag"/><use transform="matrix(0.20987654320987628,0,0,0.20987654320987628,54.358024691357954,0)" xlink:href="#ah"/><use transform="matrix(0.20987654320987628,0,0,0.20987654320987628,96.3333333333332,0)" xlink:href="#ai"/><use transform="matrix(0.20987654320987628,0,0,0.20987654320987628,138.30864197530846,0)" xlink:href="#aj"/></g><path fill="#3a414a" d="M240 0l2-218c-23 76-54 145-80 218h-23L58-218 59 0H30v-248h44l77 211c21-75 51-140 76-211h43V0h-30" id="ak"/><path fill="#3a414a" d="M100-194c62-1 85 37 85 99 1 63-27 99-86 99S16-35 15-95c0-66 28-99 85-99zM99-20c44 1 53-31 53-75 0-43-8-75-51-75s-53 32-53 75 10 74 51 75" id="al"/><path fill="#3a414a" d="M85-194c31 0 48 13 60 33l-1-100h32l1 261h-30c-2-10 0-23-3-31C134-8 116 4 85 4 32 4 16-35 15-94c0-66 23-100 70-100zm9 24c-40 0-46 34-46 75 0 40 6 74 45 74 42 0 51-32 51-76 0-42-9-74-50-73" id="am"/><path fill="#3a414a" d="M100-194c63 0 86 42 84 106H49c0 40 14 67 53 68 26 1 43-12 49-29l28 8c-11 28-37 45-77 45C44 4 14-33 15-96c1-61 26-98 85-98zm52 81c6-60-76-77-97-28-3 7-6 17-6 28h103" id="an"/><g id="e"><use transform="matrix(0.20987654320987628,0,0,0.20987654320987628,0,0)" xlink:href="#ak"/><use transform="matrix(0.20987654320987628,0,0,0.20987654320987628,62.75308641975301,0)" xlink:href="#al"/><use transform="matrix(0.20987654320987628,0,0,0.20987654320987628,104.72839506172826,0)" xlink:href="#am"/><use transform="matrix(0.20987654320987628,0,0,0.20987654320987628,146.70370370370352,0)" xlink:href="#an"/></g><path fill="#3a414a" d="M140-251c80 0 125 45 125 126S219 4 139 4C58 4 15-44 15-125s44-126 125-126zm-1 214c52 0 73-35 73-88 0-50-21-86-72-86-52 0-73 35-73 86s22 88 72 88" id="ao"/><path fill="#3a414a" d="M135-194c53 0 70 44 70 98 0 56-19 98-73 100-31 1-45-17-59-34 3 33 2 69 2 105H25l-1-265h48c2 10 0 23 3 31 11-24 29-35 60-35zM114-30c33 0 39-31 40-66 0-38-9-64-40-64-56 0-55 130 0 130" id="ap"/><path fill="#3a414a" d="M185-48c-13 30-37 53-82 52C43 2 14-33 14-96s30-98 90-98c62 0 83 45 84 108H66c0 31 8 55 39 56 18 0 30-7 34-22zm-45-69c5-46-57-63-70-21-2 6-4 13-4 21h74" id="aq"/><path fill="#3a414a" d="M135-150c-39-12-60 13-60 57V0H25l-1-190h47c2 13-1 29 3 40 6-28 27-53 61-41v41" id="ar"/><path fill="#3a414a" d="M133-34C117-15 103 5 69 4 32 3 11-16 11-54c-1-60 55-63 116-61 1-26-3-47-28-47-18 1-26 9-28 27l-52-2c7-38 36-58 82-57s74 22 75 68l1 82c-1 14 12 18 25 15v27c-30 8-71 5-69-32zm-48 3c29 0 43-24 42-57-32 0-66-3-65 30 0 17 8 27 23 27" id="as"/><path fill="#3a414a" d="M115-3C79 11 28 4 28-45v-112H4v-33h27l15-45h31v45h36v33H77v99c-1 23 16 31 38 25v30" id="at"/><path fill="#3a414a" d="M25-224v-37h50v37H25zM25 0v-190h50V0H25" id="au"/><path fill="#3a414a" d="M110-194c64 0 96 36 96 99 0 64-35 99-97 99-61 0-95-36-95-99 0-62 34-99 96-99zm-1 164c35 0 45-28 45-65 0-40-10-65-43-65-34 0-45 26-45 65 0 36 10 65 43 65" id="av"/><path fill="#3a414a" d="M135-194c87-1 58 113 63 194h-50c-7-57 23-157-34-157-59 0-34 97-39 157H25l-1-190h47c2 12-1 28 3 38 12-26 28-41 61-42" id="aw"/><g id="f"><use transform="matrix(0.1111111111111111,0,0,0.1111111111111111,0,0)" xlink:href="#ao"/><use transform="matrix(0.1111111111111111,0,0,0.1111111111111111,31.11111111111111,0)" xlink:href="#ap"/><use transform="matrix(0.1111111111111111,0,0,0.1111111111111111,55.44444444444444,0)" xlink:href="#aq"/><use transform="matrix(0.1111111111111111,0,0,0.1111111111111111,77.66666666666666,0)" xlink:href="#ar"/><use transform="matrix(0.1111111111111111,0,0,0.1111111111111111,93.22222222222221,0)" xlink:href="#as"/><use transform="matrix(0.1111111111111111,0,0,0.1111111111111111,115.44444444444444,0)" xlink:href="#at"/><use transform="matrix(0.1111111111111111,0,0,0.1111111111111111,128.66666666666666,0)" xlink:href="#au"/><use transform="matrix(0.1111111111111111,0,0,0.1111111111111111,139.77777777777777,0)" xlink:href="#av"/><use transform="matrix(0.1111111111111111,0,0,0.1111111111111111,164.11111111111111,0)" xlink:href="#aw"/></g><path fill="#3a414a" d="M52 0c1-96 47-148 87-207H15v-41h169v40c-36 62-79 113-81 208H52" id="ax"/><use transform="matrix(0.1111111111111111,0,0,0.1111111111111111,0,0)" xlink:href="#ax" id="g"/><path fill="#3a414a" d="M182-130c37 4 62 22 62 59C244 23 116-4 24 0v-248c84 5 203-23 205 63 0 31-19 50-47 55zM76-148c40-3 101 13 101-30 0-44-60-28-101-31v61zm0 110c48-3 116 14 116-37 0-48-69-32-116-35v72" id="ay"/><path fill="#3a414a" d="M137-138c1-29-70-34-71-4 15 46 118 7 119 86 1 83-164 76-172 9l43-7c4 19 20 25 44 25 33 8 57-30 24-41C81-84 22-81 20-136c-2-80 154-74 161-7" id="az"/><g id="h"><use transform="matrix(0.1111111111111111,0,0,0.1111111111111111,0,0)" xlink:href="#ay"/><use transform="matrix(0.1111111111111111,0,0,0.1111111111111111,28.777777777777775,0)" xlink:href="#au"/><use transform="matrix(0.1111111111111111,0,0,0.1111111111111111,39.888888888888886,0)" xlink:href="#at"/><use transform="matrix(0.1111111111111111,0,0,0.1111111111111111,53.11111111111111,0)" xlink:href="#az"/></g><path d="M285-1169c8 382 2 780 4 1169H129v-1349h237c86 239 188 461 253 720 69-258 169-481 255-720h225V0H937c2-390-5-788 6-1169-75 255-170 488-259 729H547c-90-240-185-475-262-729" id="aA"/><path d="M162 0v-1349h919v156H353v422h668v154H353v461h769V0H162" id="aB"/><path d="M-5 220v-96h1238v96H-5" id="aC"/><path d="M1121-976c0 225-142 341-344 379L1177 0H957L591-575H353V0H162v-1349h482c281 3 477 100 477 373zM633-726c181-1 296-73 296-247 0-149-101-223-304-223H353v470h280" id="aD"/><path d="M1034 0L896-382H333L196 0H0l510-1349h217L1228 0h-194zM847-531c-77-225-157-447-231-674-69 231-154 451-232 674h463" id="aE"/><path d="M473-1349c438-1 655 221 652 661C1122-268 945-8 532 0H162v-1349h311zm42 1193c308-4 416-205 418-532 2-330-131-509-459-505H353v1037h162" id="aF"/><g id="i"><use transform="matrix(0.026041666666666668,0,0,0.026041666666666668,0,0)" xlink:href="#aA"/><use transform="matrix(0.026041666666666668,0,0,0.026041666666666668,32.005208333333336,0)" xlink:href="#aB"/><use transform="matrix(0.026041666666666668,0,0,0.026041666666666668,64.01041666666667,0)" xlink:href="#aA"/><use transform="matrix(0.026041666666666668,0,0,0.026041666666666668,96.015625,0)" xlink:href="#aC"/><use transform="matrix(0.026041666666666668,0,0,0.026041666666666668,128.02083333333334,0)" xlink:href="#aD"/><use transform="matrix(0.026041666666666668,0,0,0.026041666666666668,160.02604166666669,0)" xlink:href="#aB"/><use transform="matrix(0.026041666666666668,0,0,0.026041666666666668,192.03125000000003,0)" xlink:href="#aE"/><use transform="matrix(0.026041666666666668,0,0,0.026041666666666668,224.0364583333334,0)" xlink:href="#aF"/></g><path fill="#3a414a" d="M169-182c-1-43-94-46-97-3 18 66 151 10 154 114 3 95-165 93-204 36-6-8-10-19-12-30l50-8c3 46 112 56 116 5-17-69-150-10-154-114-4-87 153-88 188-35 5 8 8 18 10 28" id="aG"/><path fill="#3a414a" d="M84 4C32 4 15-41 15-95c0-55 18-99 73-99 29 0 47 12 58 34l2-30h48l-1 265h-49V-32C136-9 114 4 84 4zm21-34c32 0 41-29 41-66 0-36-9-64-40-64-33 0-39 30-40 65 0 43 13 65 39 65" id="aH"/><path fill="#3a414a" d="M85 4C-2 5 27-109 22-190h50c7 57-23 150 33 157 60-5 35-97 40-157h50l1 190h-47c-2-12 1-28-3-38-12 25-28 42-61 42" id="aI"/><path fill="#3a414a" d="M190-63c-7 42-38 67-86 67-59 0-84-38-90-98-12-110 154-137 174-36l-49 2c-2-19-15-32-35-32-30 0-35 28-38 64-6 74 65 87 74 30" id="aJ"/><g id="j"><use transform="matrix(0.12345679012345673,0,0,0.12345679012345673,0,0)" xlink:href="#aG"/><use transform="matrix(0.12345679012345673,0,0,0.12345679012345673,29.629629629629616,0)" xlink:href="#aq"/><use transform="matrix(0.12345679012345673,0,0,0.12345679012345673,54.32098765432096,0)" xlink:href="#aH"/><use transform="matrix(0.12345679012345673,0,0,0.12345679012345673,81.35802469135798,0)" xlink:href="#aI"/><use transform="matrix(0.12345679012345673,0,0,0.12345679012345673,108.395061728395,0)" xlink:href="#aq"/><use transform="matrix(0.12345679012345673,0,0,0.12345679012345673,133.08641975308635,0)" xlink:href="#aw"/><use transform="matrix(0.12345679012345673,0,0,0.12345679012345673,160.12345679012338,0)" xlink:href="#aJ"/><use transform="matrix(0.12345679012345673,0,0,0.12345679012345673,184.81481481481472,0)" xlink:href="#aq"/></g><path fill="#3a414a" d="M23 0v-37h61v-169l-59 37v-38l62-41h46v211h57V0H23" id="aK"/><path fill="#3a414a" d="M115-159c48 0 72 30 72 78 0 54-30 85-83 85-64 0-91-50-91-122 0-98 58-163 141-120 15 8 21 24 27 44l-47 6c-5-31-48-31-61-4-7 14-11 33-11 60 9-17 28-27 53-27zM102-35c24 0 36-20 36-45s-11-43-37-43c-23 0-36 14-36 38 0 27 11 50 37 50" id="aL"/><g id="k"><use transform="matrix(0.12345679012345673,0,0,0.12345679012345673,0,0)" xlink:href="#aK"/><use transform="matrix(0.12345679012345673,0,0,0.12345679012345673,24.691358024691347,0)" xlink:href="#aL"/></g><g id="l"><use transform="matrix(0.12345679012345673,0,0,0.12345679012345673,0,0)" xlink:href="#ay"/><use transform="matrix(0.12345679012345673,0,0,0.12345679012345673,31.975308641975293,0)" xlink:href="#au"/><use transform="matrix(0.12345679012345673,0,0,0.12345679012345673,44.320987654320966,0)" xlink:href="#at"/><use transform="matrix(0.12345679012345673,0,0,0.12345679012345673,59.01234567901231,0)" xlink:href="#az"/></g><path fill="#0c7cba" d="M713 0H515L10-1349h201C345-955 498-579 615-168c116-411 269-787 402-1181h201" id="aM"/><path fill="#0c7cba" d="M684-845H543l-41-639h224" id="aN"/><g id="m"><use transform="matrix(0.026041666666666668,0,0,0.026041666666666668,0,0)" xlink:href="#aM"/><use transform="matrix(0.026041666666666668,0,0,0.026041666666666668,32.005208333333336,0)" xlink:href="#aN"/></g><path fill="#3a414a" d="M123 10C108 53 80 86 19 72V37c35 8 53-11 59-39L3-190h52l48 148c12-52 28-100 44-148h51" id="aO"/><path fill="#3a414a" d="M-4 44V30h207v14H-4" id="aP"/><g id="n"><use transform="matrix(0.12345679012345673,0,0,0.12345679012345673,0,0)" xlink:href="#as"/><use transform="matrix(0.12345679012345673,0,0,0.12345679012345673,24.691358024691347,0)" xlink:href="#ar"/><use transform="matrix(0.12345679012345673,0,0,0.12345679012345673,41.97530864197529,0)" xlink:href="#ar"/><use transform="matrix(0.12345679012345673,0,0,0.12345679012345673,59.25925925925923,0)" xlink:href="#as"/><use transform="matrix(0.12345679012345673,0,0,0.12345679012345673,83.95061728395058,0)" xlink:href="#aO"/><use transform="matrix(0.12345679012345673,0,0,0.12345679012345673,108.64197530864192,0)" xlink:href="#aP"/><use transform="matrix(0.12345679012345673,0,0,0.12345679012345673,133.33333333333326,0)" xlink:href="#ap"/><use transform="matrix(0.12345679012345673,0,0,0.12345679012345673,160.37037037037027,0)" xlink:href="#av"/><use transform="matrix(0.12345679012345673,0,0,0.12345679012345673,187.40740740740728,0)" xlink:href="#au"/><use transform="matrix(0.12345679012345673,0,0,0.12345679012345673,199.75308641975295,0)" xlink:href="#aw"/><use transform="matrix(0.12345679012345673,0,0,0.12345679012345673,226.79012345678996,0)" xlink:href="#at"/><use transform="matrix(0.12345679012345673,0,0,0.12345679012345673,241.4814814814813,0)" xlink:href="#aq"/><use transform="matrix(0.12345679012345673,0,0,0.12345679012345673,266.17283950617264,0)" xlink:href="#ar"/></g><path fill="#3a414a" d="M165-50V0h-47v-50H5v-38l105-160h55v161h33v37h-33zm-47-37l2-116L46-87h72" id="aQ"/><g id="o"><use transform="matrix(0.12345679012345673,0,0,0.12345679012345673,0,0)" xlink:href="#aL"/><use transform="matrix(0.12345679012345673,0,0,0.12345679012345673,24.691358024691347,0)" xlink:href="#aQ"/></g><path d="M839-1335c-182-6-269 67-259 253h491v142H580V0H400v-940H138v-142h262c-15-293 132-408 418-402 94 2 200 7 281 21v145c-75-10-177-14-260-17" id="aR"/><path d="M839-1102c70 0 148 7 206 17v167c-112-18-268-36-363 15-129 69-208 203-208 395V0H294c-10-367 32-789-52-1082h171c21 75 41 161 48 250h5c67-152 152-270 373-270" id="aS"/><path d="M615-1102c343 0 484 203 482 560-1 347-147 562-488 562-336 0-475-219-479-562-4-349 156-560 485-560zm-8 989c240 0 301-180 301-429 0-245-55-427-290-427-236 0-299 181-299 427 0 243 61 429 288 429" id="aT"/><path d="M706-1102c241 0 344 136 343 381V0H868v-695c1-168-57-273-220-268-190 6-283 138-283 336V0H185c-3-360 6-732-6-1082h170c4 54 7 126 8 185h3c63-121 164-204 346-205" id="aU"/><path d="M682 16c-209 0-323-80-324-285v-671H190v-142h170l58-282h120v282h432v142H538v652c2 114 60 155 182 155 106 0 209-16 297-34v137C921-4 806 16 682 16" id="aV"/><path d="M745-142h380V0H143v-142h422v-798H246v-142h499v940zM545-1292v-192h200v192H545" id="aW"/><path d="M617-1102c355 0 481 238 477 599H322c5 222 84 388 301 388 144 0 244-59 284-166l158 45C1002-72 854 20 623 20c-342 0-490-220-490-568 0-346 151-554 484-554zm291 461c-18-192-90-328-289-328-194 0-287 128-295 328h584" id="aX"/><g id="p"><use transform="matrix(0.026041666666666668,0,0,0.026041666666666668,0,0)" xlink:href="#aR"/><use transform="matrix(0.026041666666666668,0,0,0.026041666666666668,32.005208333333336,0)" xlink:href="#aS"/><use transform="matrix(0.026041666666666668,0,0,0.026041666666666668,64.01041666666667,0)" xlink:href="#aT"/><use transform="matrix(0.026041666666666668,0,0,0.026041666666666668,96.015625,0)" xlink:href="#aU"/><use transform="matrix(0.026041666666666668,0,0,0.026041666666666668,128.02083333333334,0)" xlink:href="#aV"/><use transform="matrix(0.026041666666666668,0,0,0.026041666666666668,160.02604166666669,0)" xlink:href="#aW"/><use transform="matrix(0.026041666666666668,0,0,0.026041666666666668,192.03125000000003,0)" xlink:href="#aX"/><use transform="matrix(0.026041666666666668,0,0,0.026041666666666668,224.0364583333334,0)" xlink:href="#aS"/></g><path fill="#3a414a" d="M240-174c0 40-23 61-54 70L253 0h-59l-57-94H76V0H24v-248c93 4 217-23 216 74zM76-134c48-2 112 12 112-38 0-48-66-32-112-35v73" id="aY"/><path fill="#3a414a" d="M25 0v-261h50V0H25" id="aZ"/><g id="q"><use transform="matrix(0.12345679012345673,0,0,0.12345679012345673,0,0)" xlink:href="#aY"/><use transform="matrix(0.12345679012345673,0,0,0.12345679012345673,31.975308641975293,0)" xlink:href="#aq"/><use transform="matrix(0.12345679012345673,0,0,0.12345679012345673,56.66666666666664,0)" xlink:href="#az"/><use transform="matrix(0.12345679012345673,0,0,0.12345679012345673,81.358024691358,0)" xlink:href="#aI"/><use transform="matrix(0.12345679012345673,0,0,0.12345679012345673,108.39506172839502,0)" xlink:href="#aZ"/><use transform="matrix(0.12345679012345673,0,0,0.12345679012345673,120.74074074074069,0)" xlink:href="#at"/></g><use transform="matrix(0.12345679012345673,0,0,0.12345679012345673,0,0)" xlink:href="#aQ" id="r"/><g id="s"><use transform="matrix(0.12345679012345673,0,0,0.12345679012345673,0,0)" xlink:href="#ay"/><use transform="matrix(0.12345679012345673,0,0,0.12345679012345673,31.975308641975293,0)" xlink:href="#aO"/><use transform="matrix(0.12345679012345673,0,0,0.12345679012345673,56.66666666666664,0)" xlink:href="#at"/><use transform="matrix(0.12345679012345673,0,0,0.12345679012345673,71.358024691358,0)" xlink:href="#aq"/><use transform="matrix(0.12345679012345673,0,0,0.12345679012345673,96.04938271604934,0)" xlink:href="#az"/></g><path fill="#0c7cba" d="M839-1335c-182-6-269 67-259 253h491v142H580V0H400v-940H138v-142h262c-15-293 132-408 418-402 94 2 200 7 281 21v145c-75-10-177-14-260-17" id="ba"/><path fill="#0c7cba" d="M839-1102c70 0 148 7 206 17v167c-112-18-268-36-363 15-129 69-208 203-208 395V0H294c-10-367 32-789-52-1082h171c21 75 41 161 48 250h5c67-152 152-270 373-270" id="bb"/><path fill="#0c7cba" d="M615-1102c343 0 484 203 482 560-1 347-147 562-488 562-336 0-475-219-479-562-4-349 156-560 485-560zm-8 989c240 0 301-180 301-429 0-245-55-427-290-427-236 0-299 181-299 427 0 243 61 429 288 429" id="bc"/><path fill="#0c7cba" d="M706-1102c241 0 344 136 343 381V0H868v-695c1-168-57-273-220-268-190 6-283 138-283 336V0H185c-3-360 6-732-6-1082h170c4 54 7 126 8 185h3c63-121 164-204 346-205" id="bd"/><path fill="#0c7cba" d="M682 16c-209 0-323-80-324-285v-671H190v-142h170l58-282h120v282h432v142H538v652c2 114 60 155 182 155 106 0 209-16 297-34v137C921-4 806 16 682 16" id="be"/><path fill="#0c7cba" d="M745-142h380V0H143v-142h422v-798H246v-142h499v940zM545-1292v-192h200v192H545" id="bf"/><path fill="#0c7cba" d="M617-1102c355 0 481 238 477 599H322c5 222 84 388 301 388 144 0 244-59 284-166l158 45C1002-72 854 20 623 20c-342 0-490-220-490-568 0-346 151-554 484-554zm291 461c-18-192-90-328-289-328-194 0-287 128-295 328h584" id="bg"/><path d="M410 425v-1909h547v139H590V286h367v139H410" id="bh"/><path d="M270 425V286h367v-1631H270v-139h547V425H270" id="bi"/><g id="t"><use transform="matrix(0.026041666666666668,0,0,0.026041666666666668,0,0)" xlink:href="#ba"/><use transform="matrix(0.026041666666666668,0,0,0.026041666666666668,32.005208333333336,0)" xlink:href="#bb"/><use transform="matrix(0.026041666666666668,0,0,0.026041666666666668,64.01041666666667,0)" xlink:href="#bc"/><use transform="matrix(0.026041666666666668,0,0,0.026041666666666668,96.015625,0)" xlink:href="#bd"/><use transform="matrix(0.026041666666666668,0,0,0.026041666666666668,128.02083333333334,0)" xlink:href="#be"/><use transform="matrix(0.026041666666666668,0,0,0.026041666666666668,160.02604166666669,0)" xlink:href="#bf"/><use transform="matrix(0.026041666666666668,0,0,0.026041666666666668,192.03125000000003,0)" xlink:href="#bg"/><use transform="matrix(0.026041666666666668,0,0,0.026041666666666668,224.0364583333334,0)" xlink:href="#bb"/><use transform="matrix(0.026041666666666668,0,0,0.026041666666666668,256.0416666666667,0)" xlink:href="#bh"/><use transform="matrix(0.026041666666666668,0,0,0.026041666666666668,288.046875,0)" xlink:href="#aU"/><use transform="matrix(0.026041666666666668,0,0,0.026041666666666668,320.0520833333333,0)" xlink:href="#bi"/></g><path fill="#6db1ff" d="M30 0v-248h187v28H63v79h144v27H63v87h162V0H30" id="bj"/><path fill="#6db1ff" d="M117-194c89-4 53 116 60 194h-32v-121c0-31-8-49-39-48C34-167 62-67 57 0H25l-1-190h30c1 10-1 24 2 32 11-22 29-35 61-36" id="bk"/><path fill="#6db1ff" d="M177-190C167-65 218 103 67 71c-23-6-38-20-44-43l32-5c15 47 100 32 89-28v-30C133-14 115 1 83 1 29 1 15-40 15-95c0-56 16-97 71-98 29-1 48 16 59 35 1-10 0-23 2-32h30zM94-22c36 0 50-32 50-73 0-42-14-75-50-75-39 0-46 34-46 75s6 73 46 73" id="bl"/><path fill="#6db1ff" d="M24-231v-30h32v30H24zM24 0v-190h32V0H24" id="bm"/><path fill="#6db1ff" d="M100-194c63 0 86 42 84 106H49c0 40 14 67 53 68 26 1 43-12 49-29l28 8c-11 28-37 45-77 45C44 4 14-33 15-96c1-61 26-98 85-98zm52 81c6-60-76-77-97-28-3 7-6 17-6 28h103" id="bn"/><g id="u"><use transform="matrix(0.18518518518518462,0,0,0.18518518518518462,0,0)" xlink:href="#bj"/><use transform="matrix(0.18518518518518462,0,0,0.18518518518518462,44.44444444444431,0)" xlink:href="#bk"/><use transform="matrix(0.18518518518518462,0,0,0.18518518518518462,81.48148148148124,0)" xlink:href="#bl"/><use transform="matrix(0.18518518518518462,0,0,0.18518518518518462,118.51851851851816,0)" xlink:href="#bm"/><use transform="matrix(0.18518518518518462,0,0,0.18518518518518462,133.14814814814775,0)" xlink:href="#bk"/><use transform="matrix(0.18518518518518462,0,0,0.18518518518518462,170.18518518518468,0)" xlink:href="#bn"/></g><path fill="#008573" d="M160-131c35 5 61 23 61 61C221 17 115-2 30 0v-248c76 3 177-17 177 60 0 33-19 50-47 57zm-97-11c50-1 110 9 110-42 0-47-63-36-110-37v79zm0 115c55-2 124 14 124-45 0-56-70-42-124-44v89" id="bo"/><path fill="#008573" d="M84 4C-5 8 30-112 23-190h32v120c0 31 7 50 39 49 72-2 45-101 50-169h31l1 190h-30c-1-10 1-25-2-33-11 22-28 36-60 37" id="bp"/><path fill="#008573" d="M117-194c89-4 53 116 60 194h-32v-121c0-31-8-49-39-48C34-167 62-67 57 0H25l-1-190h30c1 10-1 24 2 32 11-22 29-35 61-36" id="bq"/><path fill="#008573" d="M85-194c31 0 48 13 60 33l-1-100h32l1 261h-30c-2-10 0-23-3-31C134-8 116 4 85 4 32 4 16-35 15-94c0-66 23-100 70-100zm9 24c-40 0-46 34-46 75 0 40 6 74 45 74 42 0 51-32 51-76 0-42-9-74-50-73" id="br"/><path fill="#008573" d="M24 0v-261h32V0H24" id="bs"/><path fill="#008573" d="M100-194c63 0 86 42 84 106H49c0 40 14 67 53 68 26 1 43-12 49-29l28 8c-11 28-37 45-77 45C44 4 14-33 15-96c1-61 26-98 85-98zm52 81c6-60-76-77-97-28-3 7-6 17-6 28h103" id="bt"/><g id="v"><use transform="matrix(0.29629629629629634,0,0,0.29629629629629634,0,0)" xlink:href="#bo"/><use transform="matrix(0.29629629629629634,0,0,0.29629629629629634,71.11111111111111,0)" xlink:href="#bp"/><use transform="matrix(0.29629629629629634,0,0,0.29629629629629634,130.37037037037038,0)" xlink:href="#bq"/><use transform="matrix(0.29629629629629634,0,0,0.29629629629629634,189.62962962962965,0)" xlink:href="#br"/><use transform="matrix(0.29629629629629634,0,0,0.29629629629629634,248.8888888888889,0)" xlink:href="#bs"/><use transform="matrix(0.29629629629629634,0,0,0.29629629629629634,272.2962962962963,0)" xlink:href="#bt"/></g><path fill="#008573" d="M27 0v-27h64v-190l-56 39v-29l58-41h29v221h61V0H27" id="bu"/><use transform="matrix(0.29629629629629634,0,0,0.29629629629629634,0,0)" xlink:href="#bu" id="w"/><path fill="#1071e5" d="M160-131c35 5 61 23 61 61C221 17 115-2 30 0v-248c76 3 177-17 177 60 0 33-19 50-47 57zm-97-11c50-1 110 9 110-42 0-47-63-36-110-37v79zm0 115c55-2 124 14 124-45 0-56-70-42-124-44v89" id="bv"/><path fill="#1071e5" d="M84 4C-5 8 30-112 23-190h32v120c0 31 7 50 39 49 72-2 45-101 50-169h31l1 190h-30c-1-10 1-25-2-33-11 22-28 36-60 37" id="bw"/><path fill="#1071e5" d="M117-194c89-4 53 116 60 194h-32v-121c0-31-8-49-39-48C34-167 62-67 57 0H25l-1-190h30c1 10-1 24 2 32 11-22 29-35 61-36" id="bx"/><path fill="#1071e5" d="M85-194c31 0 48 13 60 33l-1-100h32l1 261h-30c-2-10 0-23-3-31C134-8 116 4 85 4 32 4 16-35 15-94c0-66 23-100 70-100zm9 24c-40 0-46 34-46 75 0 40 6 74 45 74 42 0 51-32 51-76 0-42-9-74-50-73" id="by"/><path fill="#1071e5" d="M24 0v-261h32V0H24" id="bz"/><path fill="#1071e5" d="M100-194c63 0 86 42 84 106H49c0 40 14 67 53 68 26 1 43-12 49-29l28 8c-11 28-37 45-77 45C44 4 14-33 15-96c1-61 26-98 85-98zm52 81c6-60-76-77-97-28-3 7-6 17-6 28h103" id="bA"/><g id="x"><use transform="matrix(0.29629629629629634,0,0,0.29629629629629634,0,0)" xlink:href="#bv"/><use transform="matrix(0.29629629629629634,0,0,0.29629629629629634,71.11111111111111,0)" xlink:href="#bw"/><use transform="matrix(0.29629629629629634,0,0,0.29629629629629634,130.37037037037038,0)" xlink:href="#bx"/><use transform="matrix(0.29629629629629634,0,0,0.29629629629629634,189.62962962962965,0)" xlink:href="#by"/><use transform="matrix(0.29629629629629634,0,0,0.29629629629629634,248.8888888888889,0)" xlink:href="#bz"/><use transform="matrix(0.29629629629629634,0,0,0.29629629629629634,272.2962962962963,0)" xlink:href="#bA"/></g><path fill="#1071e5" d="M101-251c82-7 93 87 43 132L82-64C71-53 59-42 53-27h129V0H18c2-99 128-94 128-182 0-28-16-43-45-43s-46 15-49 41l-32-3c6-41 34-60 81-64" id="bB"/><use transform="matrix(0.29629629629629634,0,0,0.29629629629629634,0,0)" xlink:href="#bB" id="y"/><path fill="#1071e5" d="M194 0L95-120 63-95V0H30v-248h33v124l119-124h40L117-140 236 0h-42" id="bC"/><use transform="matrix(0.29629629629629634,0,0,0.29629629629629634,0,0)" xlink:href="#bC" id="z"/><path fill="#fcce14" d="M33 0v-248h34V0H33" id="bD"/><use transform="matrix(0.29629629629629617,0,0,0.29629629629629617,0,0)" xlink:href="#bD" id="A"/><path fill="#0c7cba" d="M160-131c35 5 61 23 61 61C221 17 115-2 30 0v-248c76 3 177-17 177 60 0 33-19 50-47 57zm-97-11c50-1 110 9 110-42 0-47-63-36-110-37v79zm0 115c55-2 124 14 124-45 0-56-70-42-124-44v89" id="bE"/><path fill="#0c7cba" d="M84 4C-5 8 30-112 23-190h32v120c0 31 7 50 39 49 72-2 45-101 50-169h31l1 190h-30c-1-10 1-25-2-33-11 22-28 36-60 37" id="bF"/><path fill="#0c7cba" d="M117-194c89-4 53 116 60 194h-32v-121c0-31-8-49-39-48C34-167 62-67 57 0H25l-1-190h30c1 10-1 24 2 32 11-22 29-35 61-36" id="bG"/><path fill="#0c7cba" d="M85-194c31 0 48 13 60 33l-1-100h32l1 261h-30c-2-10 0-23-3-31C134-8 116 4 85 4 32 4 16-35 15-94c0-66 23-100 70-100zm9 24c-40 0-46 34-46 75 0 40 6 74 45 74 42 0 51-32 51-76 0-42-9-74-50-73" id="bH"/><path fill="#0c7cba" d="M24 0v-261h32V0H24" id="bI"/><path fill="#0c7cba" d="M100-194c63 0 86 42 84 106H49c0 40 14 67 53 68 26 1 43-12 49-29l28 8c-11 28-37 45-77 45C44 4 14-33 15-96c1-61 26-98 85-98zm52 81c6-60-76-77-97-28-3 7-6 17-6 28h103" id="bJ"/><g id="B"><use transform="matrix(0.29629629629629634,0,0,0.29629629629629634,0,0)" xlink:href="#bE"/><use transform="matrix(0.29629629629629634,0,0,0.29629629629629634,71.11111111111111,0)" xlink:href="#bF"/><use transform="matrix(0.29629629629629634,0,0,0.29629629629629634,130.37037037037038,0)" xlink:href="#bG"/><use transform="matrix(0.29629629629629634,0,0,0.29629629629629634,189.62962962962965,0)" xlink:href="#bH"/><use transform="matrix(0.29629629629629634,0,0,0.29629629629629634,248.8888888888889,0)" xlink:href="#bI"/><use transform="matrix(0.29629629629629634,0,0,0.29629629629629634,272.2962962962963,0)" xlink:href="#bJ"/></g><path fill="#0c7cba" d="M101-251c68 0 85 55 85 127S166 4 100 4C33 4 14-52 14-124c0-73 17-127 87-127zm-1 229c47 0 54-49 54-102s-4-102-53-102c-51 0-55 48-55 102 0 53 5 102 54 102" id="bK"/><use transform="matrix(0.29629629629629634,0,0,0.29629629629629634,0,0)" xlink:href="#bK" id="C"/><path fill="#fe7070" d="M160-131c35 5 61 23 61 61C221 17 115-2 30 0v-248c76 3 177-17 177 60 0 33-19 50-47 57zm-97-11c50-1 110 9 110-42 0-47-63-36-110-37v79zm0 115c55-2 124 14 124-45 0-56-70-42-124-44v89" id="bL"/><path fill="#fe7070" d="M84 4C-5 8 30-112 23-190h32v120c0 31 7 50 39 49 72-2 45-101 50-169h31l1 190h-30c-1-10 1-25-2-33-11 22-28 36-60 37" id="bM"/><path fill="#fe7070" d="M117-194c89-4 53 116 60 194h-32v-121c0-31-8-49-39-48C34-167 62-67 57 0H25l-1-190h30c1 10-1 24 2 32 11-22 29-35 61-36" id="bN"/><path fill="#fe7070" d="M85-194c31 0 48 13 60 33l-1-100h32l1 261h-30c-2-10 0-23-3-31C134-8 116 4 85 4 32 4 16-35 15-94c0-66 23-100 70-100zm9 24c-40 0-46 34-46 75 0 40 6 74 45 74 42 0 51-32 51-76 0-42-9-74-50-73" id="bO"/><path fill="#fe7070" d="M24 0v-261h32V0H24" id="bP"/><path fill="#fe7070" d="M100-194c63 0 86 42 84 106H49c0 40 14 67 53 68 26 1 43-12 49-29l28 8c-11 28-37 45-77 45C44 4 14-33 15-96c1-61 26-98 85-98zm52 81c6-60-76-77-97-28-3 7-6 17-6 28h103" id="bQ"/><g id="D"><use transform="matrix(0.29629629629629634,0,0,0.29629629629629634,0,0)" xlink:href="#bL"/><use transform="matrix(0.29629629629629634,0,0,0.29629629629629634,71.11111111111111,0)" xlink:href="#bM"/><use transform="matrix(0.29629629629629634,0,0,0.29629629629629634,130.37037037037038,0)" xlink:href="#bN"/><use transform="matrix(0.29629629629629634,0,0,0.29629629629629634,189.62962962962965,0)" xlink:href="#bO"/><use transform="matrix(0.29629629629629634,0,0,0.29629629629629634,248.8888888888889,0)" xlink:href="#bP"/><use transform="matrix(0.29629629629629634,0,0,0.29629629629629634,272.2962962962963,0)" xlink:href="#bQ"/></g><path fill="#fe7070" d="M126-127c33 6 58 20 58 59 0 88-139 92-164 29-3-8-5-16-6-25l32-3c6 27 21 44 54 44 32 0 52-15 52-46 0-38-36-46-79-43v-28c39 1 72-4 72-42 0-27-17-43-46-43-28 0-47 15-49 41l-32-3c6-42 35-63 81-64 48-1 79 21 79 65 0 36-21 52-52 59" id="bR"/><use transform="matrix(0.29629629629629634,0,0,0.29629629629629634,0,0)" xlink:href="#bR" id="E"/><path d="M63-220v92h138v28H63V0H30v-248h175v28H63" id="bS"/><path d="M24 0v-261h32V0H24" id="bT"/><g id="F"><use transform="matrix(0.24691358024691337,0,0,0.24691358024691337,0,0)" xlink:href="#bS"/><use transform="matrix(0.24691358024691337,0,0,0.24691358024691337,54.074074074074026,0)" xlink:href="#ab"/><use transform="matrix(0.24691358024691337,0,0,0.24691358024691337,73.58024691358018,0)" xlink:href="#bT"/><use transform="matrix(0.24691358024691337,0,0,0.24691358024691337,93.08641975308635,0)" xlink:href="#ac"/><use transform="matrix(0.24691358024691337,0,0,0.24691358024691337,117.77777777777769,0)" xlink:href="#W"/><use transform="matrix(0.24691358024691337,0,0,0.24691358024691337,167.16049382716037,0)" xlink:href="#aa"/></g><path fill="#19967d" d="M153-248C145-148 188 4 80 4 36 3 13-21 6-62l32-5c4 25 16 42 43 43 27 0 39-20 39-49v-147H72v-28h81" id="bU"/><use transform="matrix(0.29629629629629634,0,0,0.29629629629629634,0,0)" xlink:href="#bU" id="G"/><path d="M212-179c-10-28-35-45-73-45-59 0-87 40-87 99 0 60 29 101 89 101 43 0 62-24 78-52l27 14C228-24 195 4 139 4 59 4 22-46 18-125c-6-104 99-153 187-111 19 9 31 26 39 46" id="bV"/><path d="M185-189c-5-48-123-54-124 2 14 75 158 14 163 119 3 78-121 87-175 55-17-10-28-26-33-46l33-7c5 56 141 63 141-1 0-78-155-14-162-118-5-82 145-84 179-34 5 7 8 16 11 25" id="bW"/><g id="H"><use transform="matrix(0.2222222222222222,0,0,0.2222222222222222,0,0)" xlink:href="#bV"/><use transform="matrix(0.2222222222222222,0,0,0.2222222222222222,57.55555555555555,0)" xlink:href="#bW"/><use transform="matrix(0.2222222222222222,0,0,0.2222222222222222,110.88888888888889,0)" xlink:href="#V"/></g><path fill="#19967d" d="M1121-976c0 225-142 341-344 379L1177 0H957L591-575H353V0H162v-1349h482c281 3 477 100 477 373zM633-726c181-1 296-73 296-247 0-149-101-223-304-223H353v470h280" id="bX"/><path fill="#19967d" d="M162 0v-1349h919v156H353v422h668v154H353v461h769V0H162" id="bY"/><path fill="#19967d" d="M1034 0L896-382H333L196 0H0l510-1349h217L1228 0h-194zM847-531c-77-225-157-447-231-674-69 231-154 451-232 674h463" id="bZ"/><path fill="#19967d" d="M473-1349c438-1 655 221 652 661C1122-268 945-8 532 0H162v-1349h311zm42 1193c308-4 416-205 418-532 2-330-131-509-459-505H353v1037h162" id="ca"/><g id="I"><use transform="matrix(0.026041666666666668,0,0,0.026041666666666668,0,0)" xlink:href="#bX"/><use transform="matrix(0.026041666666666668,0,0,0.026041666666666668,32.005208333333336,0)" xlink:href="#bY"/><use transform="matrix(0.026041666666666668,0,0,0.026041666666666668,64.01041666666667,0)" xlink:href="#bZ"/><use transform="matrix(0.026041666666666668,0,0,0.026041666666666668,96.015625,0)" xlink:href="#ca"/></g><g id="J"><use transform="matrix(0.026041666666666668,0,0,0.026041666666666668,0,0)" xlink:href="#ba"/><use transform="matrix(0.026041666666666668,0,0,0.026041666666666668,32.005208333333336,0)" xlink:href="#bb"/><use transform="matrix(0.026041666666666668,0,0,0.026041666666666668,64.01041666666667,0)" xlink:href="#bc"/><use transform="matrix(0.026041666666666668,0,0,0.026041666666666668,96.015625,0)" xlink:href="#bd"/><use transform="matrix(0.026041666666666668,0,0,0.026041666666666668,128.02083333333334,0)" xlink:href="#be"/><use transform="matrix(0.026041666666666668,0,0,0.026041666666666668,160.02604166666669,0)" xlink:href="#bf"/><use transform="matrix(0.026041666666666668,0,0,0.026041666666666668,192.03125000000003,0)" xlink:href="#bg"/><use transform="matrix(0.026041666666666668,0,0,0.026041666666666668,224.0364583333334,0)" xlink:href="#bb"/><use transform="matrix(0.026041666666666668,0,0,0.026041666666666668,256.0416666666667,0)" xlink:href="#bh"/><use transform="matrix(0.026041666666666668,0,0,0.026041666666666668,288.046875,0)" xlink:href="#bd"/><use transform="matrix(0.026041666666666668,0,0,0.026041666666666668,320.0520833333333,0)" xlink:href="#bi"/></g><path d="M794-190h353V0H118v-190h395v-702H223v-190h571v892zM513-1277v-207h281v207H513" id="cb"/><path d="M844-1321c-130 0-195 53-191 182v57h443v190H653V0H373v-892H117v-190h256v-83c5-247 162-348 422-349 120-1 232 13 327 28v184c-84-10-183-19-278-19" id="cc"/><g id="K"><use transform="matrix(0.026041666666666668,0,0,0.026041666666666668,0,0)" xlink:href="#cb"/><use transform="matrix(0.026041666666666668,0,0,0.026041666666666668,32.005208333333336,0)" xlink:href="#cc"/></g><use transform="matrix(0.026041666666666668,0,0,0.026041666666666668,0,0)" xlink:href="#aU" id="L"/><g id="M"><use transform="matrix(0.026041666666666668,0,0,0.026041666666666668,0,0)" xlink:href="#aR"/><use transform="matrix(0.026041666666666668,0,0,0.026041666666666668,32.005208333333336,0)" xlink:href="#aS"/><use transform="matrix(0.026041666666666668,0,0,0.026041666666666668,64.01041666666667,0)" xlink:href="#aT"/><use transform="matrix(0.026041666666666668,0,0,0.026041666666666668,96.015625,0)" xlink:href="#aU"/><use transform="matrix(0.026041666666666668,0,0,0.026041666666666668,128.02083333333334,0)" xlink:href="#aV"/><use transform="matrix(0.026041666666666668,0,0,0.026041666666666668,160.02604166666669,0)" xlink:href="#aW"/><use transform="matrix(0.026041666666666668,0,0,0.026041666666666668,192.03125000000003,0)" xlink:href="#aX"/><use transform="matrix(0.026041666666666668,0,0,0.026041666666666668,224.0364583333334,0)" xlink:href="#aS"/></g><path d="M802-909c-3-189-2-383-2-575h281v1248c-1 83 4 168 8 236H817c-9-50-14-117-15-176h-4C735-49 651 20 482 20 191 20 97-238 97-539c0-243 66-432 221-519 50-28 108-42 175-42 162 2 253 78 309 191zm-70 658c91-113 93-462 2-584-46-61-145-100-224-53-96 56-119 190-120 349 0 123 17 214 52 275 46 82 130 115 222 74 25-12 46-33 68-61" id="cd"/><path d="M616-1102c361 0 521 202 521 560 0 354-171 562-527 562C259 20 92-192 92-542c0-351 169-560 524-560zm-9 930c200-2 236-165 236-370 0-199-27-367-223-367-195 0-233 146-233 367 0 129 18 223 55 282s92 88 165 88" id="ce"/><g id="N"><use transform="matrix(0.026041666666666668,0,0,0.026041666666666668,0,0)" xlink:href="#cd"/><use transform="matrix(0.026041666666666668,0,0,0.026041666666666668,32.005208333333336,0)" xlink:href="#ce"/></g><path fill="#fe7070" d="M30 0v-248h33v221h125V0H30" id="cf"/><use transform="matrix(0.29629629629629634,0,0,0.29629629629629634,0,0)" xlink:href="#cf" id="O"/><g id="P"><use transform="matrix(0.2222222222222222,0,0,0.2222222222222222,0,0)" xlink:href="#Z"/><use transform="matrix(0.2222222222222222,0,0,0.2222222222222222,73.77777777777777,0)" xlink:href="#aa"/><use transform="matrix(0.2222222222222222,0,0,0.2222222222222222,100.22222222222221,0)" xlink:href="#ab"/><use transform="matrix(0.2222222222222222,0,0,0.2222222222222222,117.77777777777777,0)" xlink:href="#ac"/><use transform="matrix(0.2222222222222222,0,0,0.2222222222222222,140,0)" xlink:href="#W"/></g><g id="Q"><use transform="matrix(0.2222222222222222,0,0,0.2222222222222222,0,0)" xlink:href="#V"/><use transform="matrix(0.2222222222222222,0,0,0.2222222222222222,57.55555555555555,0)" xlink:href="#W"/><use transform="matrix(0.2222222222222222,0,0,0.2222222222222222,102,0)" xlink:href="#X"/><use transform="matrix(0.2222222222222222,0,0,0.2222222222222222,146.44444444444446,0)" xlink:href="#Y"/></g><path d="M155-56V0h-30v-56H8v-25l114-167h33v167h35v25h-35zm-30-156c-27 46-58 90-88 131h88v-131" id="cg"/><path d="M33-154v-36h34v36H33zM33 0v-36h34V0H33" id="ch"/><path d="M27 0v-27h64v-190l-56 39v-29l58-41h29v221h61V0H27" id="ci"/><g id="R"><use transform="matrix(0.1851851851851852,0,0,0.1851851851851852,0,0)" xlink:href="#cg"/><use transform="matrix(0.1851851851851852,0,0,0.1851851851851852,37.03703703703704,0)" xlink:href="#ch"/><use transform="matrix(0.1851851851851852,0,0,0.1851851851851852,55.555555555555564,0)" xlink:href="#ci"/></g><use transform="matrix(0.03797743055555553,0,0,0.03797743055555553,0,0)" xlink:href="#bd" id="S"/><g id="T"><use transform="matrix(0.026041666666666668,0,0,0.026041666666666668,0,0)" xlink:href="#ba"/><use transform="matrix(0.026041666666666668,0,0,0.026041666666666668,32.005208333333336,0)" xlink:href="#bb"/><use transform="matrix(0.026041666666666668,0,0,0.026041666666666668,64.01041666666667,0)" xlink:href="#bc"/><use transform="matrix(0.026041666666666668,0,0,0.026041666666666668,96.015625,0)" xlink:href="#bd"/><use transform="matrix(0.026041666666666668,0,0,0.026041666666666668,128.02083333333334,0)" xlink:href="#be"/><use transform="matrix(0.026041666666666668,0,0,0.026041666666666668,160.02604166666669,0)" xlink:href="#bf"/><use transform="matrix(0.026041666666666668,0,0,0.026041666666666668,192.03125000000003,0)" xlink:href="#bg"/><use transform="matrix(0.026041666666666668,0,0,0.026041666666666668,224.0364583333334,0)" xlink:href="#bb"/><use transform="matrix(0.026041666666666668,0,0,0.026041666666666668,256.0416666666667,0)" xlink:href="#bh"/><use transform="matrix(0.026041666666666668,0,0,0.026041666666666668,288.046875,0)" xlink:href="#bd"/><use transform="matrix(0.026041666666666668,0,0,0.026041666666666668,320.0520833333333,0)" xlink:href="#bi"/></g><path fill="#e81313" d="M240 0l2-218c-23 76-54 145-80 218h-23L58-218 59 0H30v-248h44l77 211c21-75 51-140 76-211h43V0h-30" id="cj"/><path fill="#e81313" d="M210-169c-67 3-38 105-44 169h-31v-121c0-29-5-50-35-48C34-165 62-65 56 0H25l-1-190h30c1 10-1 24 2 32 10-44 99-50 107 0 11-21 27-35 58-36 85-2 47 119 55 194h-31v-121c0-29-5-49-35-48" id="ck"/><path fill="#e81313" d="M100-194c62-1 85 37 85 99 1 63-27 99-86 99S16-35 15-95c0-66 28-99 85-99zM99-20c44 1 53-31 53-75 0-43-8-75-51-75s-53 32-53 75 10 74 51 75" id="cl"/><path fill="#e81313" d="M114-163C36-179 61-72 57 0H25l-1-190h30c1 12-1 29 2 39 6-27 23-49 58-41v29" id="cm"/><path fill="#e81313" d="M179-190L93 31C79 59 56 82 12 73V49c39 6 53-20 64-50L1-190h34L92-34l54-156h33" id="cn"/><g id="U"><use transform="matrix(0.20987654320987564,0,0,0.20987654320987564,0,0)" xlink:href="#cj"/><use transform="matrix(0.20987654320987564,0,0,0.20987654320987564,62.75308641975282,0)" xlink:href="#ah"/><use transform="matrix(0.20987654320987564,0,0,0.20987654320987564,104.72839506172795,0)" xlink:href="#ck"/><use transform="matrix(0.20987654320987564,0,0,0.20987654320987564,167.48148148148078,0)" xlink:href="#cl"/><use transform="matrix(0.20987654320987564,0,0,0.20987654320987564,209.4567901234559,0)" xlink:href="#cm"/><use transform="matrix(0.20987654320987564,0,0,0.20987654320987564,234.4320987654311,0)" xlink:href="#cn"/></g></defs></g></svg>