<svg xmlns="http://www.w3.org/2000/svg" xmlns:xlink="http://www.w3.org/1999/xlink" xmlns:lucid="lucid" width="2972" height="1689"><g transform="translate(-373 257)" lucid:page-tab-id="skeOI-FbLgd_"><path d="M1971.5 525a5 5 0 0 1 5-5h661.4a5 5 0 0 1 5 5v250a5 5 0 0 1-5 5h-661.4a5 5 0 0 1-5-5zM1002.2 1149.3a5 5 0 0 1 5-5H1915a5 5 0 0 1 5 5v124.5a5 5 0 0 1-5 5h-907.8a5 5 0 0 1-5-5z" stroke="#6db1ff" stroke-width="9" fill-opacity="0"/><path d="M2787.4 1355.5c0 2.48-2.02 4.5-4.5 4.5-2.5 0-4.5-2.02-4.5-4.5s2-4.5 4.5-4.5c2.48 0 4.5 2.02 4.5 4.5zm0-17.9c0 2.5-2.02 4.5-4.5 4.5-2.5 0-4.5-2-4.5-4.5 0-2.47 2-4.5 4.5-4.5 2.48 0 4.5 2.03 4.5 4.5zm0-17.88c0 2.5-2.02 4.5-4.5 4.5-2.5 0-4.5-2-4.5-4.5 0-2.48 2-4.5 4.5-4.5 2.48 0 4.5 2.02 4.5 4.5zm0-17.88c0 2.48-2.02 4.5-4.5 4.5-2.5 0-4.5-2.02-4.5-4.5 0-2.5 2-4.5 4.5-4.5 2.48 0 4.5 2 4.5 4.5zm0-17.9c0 2.5-2.02 4.5-4.5 4.5-2.5 0-4.5-2-4.5-4.5 0-2.48 2-4.5 4.5-4.5 2.48 0 4.5 2.02 4.5 4.5zm0-17.88c0 2.5-2.02 4.5-4.5 4.5-2.5 0-4.5-2-4.5-4.5 0-2.48 2-4.5 4.5-4.5 2.48 0 4.5 2.02 4.5 4.5zm0-17.88c0 2.48-2.02 4.5-4.5 4.5-2.5 0-4.5-2.02-4.5-4.5 0-2.5 2-4.5 4.5-4.5 2.48 0 4.5 2 4.5 4.5zm0-17.9c0 2.5-2.02 4.5-4.5 4.5-2.5 0-4.5-2-4.5-4.5 0-2.48 2-4.5 4.5-4.5 2.48 0 4.5 2.02 4.5 4.5zm0-17.88c0 2.48-2.02 4.5-4.5 4.5-2.5 0-4.5-2.02-4.5-4.5 0-2.5 2-4.5 4.5-4.5 2.48 0 4.5 2 4.5 4.5zm0-17.9c0 2.5-2.02 4.5-4.5 4.5-2.5 0-4.5-2-4.5-4.5 0-2.47 2-4.5 4.5-4.5 2.48 0 4.5 2.03 4.5 4.5zm0-17.88c0 2.5-2.02 4.5-4.5 4.5-2.5 0-4.5-2-4.5-4.5 0-2.48 2-4.5 4.5-4.5 2.48 0 4.5 2.02 4.5 4.5zm0-17.88c0 2.48-2.02 4.5-4.5 4.5-2.5 0-4.5-2.02-4.5-4.5 0-2.5 2-4.5 4.5-4.5 2.48 0 4.5 2 4.5 4.5zm0-17.9c0 2.5-2.02 4.5-4.5 4.5-2.5 0-4.5-2-4.5-4.5 0-2.47 2-4.5 4.5-4.5 2.48 0 4.5 2.03 4.5 4.5zm0-17.88c0 2.5-2.02 4.5-4.5 4.5-2.5 0-4.5-2-4.5-4.5 0-2.48 2-4.5 4.5-4.5 2.48 0 4.5 2.02 4.5 4.5zm0-17.88c0 2.48-2.02 4.5-4.5 4.5-2.5 0-4.5-2.02-4.5-4.5 0-2.5 2-4.5 4.5-4.5 2.48 0 4.5 2 4.5 4.5zm0-17.9c0 2.5-2.02 4.5-4.5 4.5-2.5 0-4.5-2-4.5-4.5 0-2.48 2-4.5 4.5-4.5 2.48 0 4.5 2.02 4.5 4.5zm0-17.88c0 2.5-2.02 4.5-4.5 4.5-2.5 0-4.5-2-4.5-4.5 0-2.48 2-4.5 4.5-4.5 2.48 0 4.5 2.02 4.5 4.5zm0-17.9c0 2.5-2.02 4.5-4.5 4.5-2.5 0-4.5-2-4.5-4.5 0-2.47 2-4.5 4.5-4.5 2.48 0 4.5 2.03 4.5 4.5zm0-17.88c0 2.5-2.02 4.5-4.5 4.5-2.5 0-4.5-2-4.5-4.5 0-2.48 2-4.5 4.5-4.5 2.48 0 4.5 2.02 4.5 4.5zm0-17.88c0 2.48-2.02 4.5-4.5 4.5-2.5 0-4.5-2.02-4.5-4.5 0-2.5 2-4.5 4.5-4.5 2.48 0 4.5 2 4.5 4.5zm0-17.9c0 2.5-2.02 4.5-4.5 4.5-2.5 0-4.5-2-4.5-4.5 0-2.48 2-4.5 4.5-4.5 2.48 0 4.5 2.02 4.5 4.5zm0-17.88c0 2.5-2.02 4.5-4.5 4.5-2.5 0-4.5-2-4.5-4.5 0-2.48 2-4.5 4.5-4.5 2.48 0 4.5 2.02 4.5 4.5zm0-17.88c0 2.48-2.02 4.5-4.5 4.5-2.5 0-4.5-2.02-4.5-4.5 0-2.5 2-4.5 4.5-4.5 2.48 0 4.5 2 4.5 4.5zm0-17.9c0 2.5-2.02 4.5-4.5 4.5-2.5 0-4.5-2-4.5-4.5 0-2.48 2-4.5 4.5-4.5 2.48 0 4.5 2.02 4.5 4.5zm0-17.88c0 2.48-2.02 4.5-4.5 4.5-2.5 0-4.5-2.02-4.5-4.5 0-2.5 2-4.5 4.5-4.5 2.48 0 4.5 2 4.5 4.5zm0-17.9c0 2.5-2.02 4.5-4.5 4.5-2.5 0-4.5-2-4.5-4.5 0-2.47 2-4.5 4.5-4.5 2.48 0 4.5 2.03 4.5 4.5zm0-17.88c0 2.5-2.02 4.5-4.5 4.5-2.5 0-4.5-2-4.5-4.5 0-2.48 2-4.5 4.5-4.5 2.48 0 4.5 2.02 4.5 4.5zm0-17.88c0 2.48-2.02 4.5-4.5 4.5-2.5 0-4.5-2.02-4.5-4.5 0-2.5 2-4.5 4.5-4.5 2.48 0 4.5 2 4.5 4.5zm0-17.9c0 2.5-2.02 4.5-4.5 4.5-2.5 0-4.5-2-4.5-4.5 0-2.48 2-4.5 4.5-4.5 2.48 0 4.5 2.02 4.5 4.5zm0-17.88c0 2.5-2.02 4.5-4.5 4.5-2.5 0-4.5-2-4.5-4.5 0-2.48 2-4.5 4.5-4.5 2.48 0 4.5 2.02 4.5 4.5zm0-17.88c0 2.48-2.02 4.5-4.5 4.5-2.5 0-4.5-2.02-4.5-4.5 0-2.5 2-4.5 4.5-4.5 2.48 0 4.5 2 4.5 4.5zm0-17.9c0 2.5-2.02 4.5-4.5 4.5-2.5 0-4.5-2-4.5-4.5 0-2.48 2-4.5 4.5-4.5 2.48 0 4.5 2.02 4.5 4.5zm0-17.88c0 2.5-2.02 4.5-4.5 4.5-2.5 0-4.5-2-4.5-4.5s2-4.5 4.5-4.5c2.48 0 4.5 2 4.5 4.5zm0-17.9c0 2.5-2.02 4.5-4.5 4.5-2.5 0-4.5-2-4.5-4.5 0-2.47 2-4.5 4.5-4.5 2.48 0 4.5 2.03 4.5 4.5zm0-17.88c0 2.5-2.02 4.5-4.5 4.5-2.5 0-4.5-2-4.5-4.5 0-2.48 2-4.5 4.5-4.5 2.48 0 4.5 2.02 4.5 4.5zm0-17.88c0 2.48-2.02 4.5-4.5 4.5-2.5 0-4.5-2.02-4.5-4.5 0-2.5 2-4.5 4.5-4.5 2.48 0 4.5 2 4.5 4.5zm0-17.9c0 2.5-2.02 4.5-4.5 4.5-2.5 0-4.5-2-4.5-4.5 0-2.47 2-4.5 4.5-4.5 2.48 0 4.5 2.03 4.5 4.5zm0-17.88c0 2.5-2.02 4.5-4.5 4.5-2.5 0-4.5-2-4.5-4.5 0-2.48 2-4.5 4.5-4.5 2.48 0 4.5 2.02 4.5 4.5zm0-17.88c0 2.48-2.02 4.5-4.5 4.5-2.5 0-4.5-2.02-4.5-4.5 0-2.5 2-4.5 4.5-4.5 2.48 0 4.5 2 4.5 4.5zm0-17.9c0 2.5-2.02 4.5-4.5 4.5-2.5 0-4.5-2-4.5-4.5 0-2.48 2-4.5 4.5-4.5 2.48 0 4.5 2.02 4.5 4.5zm0-17.88c0 2.5-2.02 4.5-4.5 4.5-2.5 0-4.5-2-4.5-4.5s2-4.5 4.5-4.5c2.48 0 4.5 2 4.5 4.5zm0-17.9c0 2.5-2.02 4.5-4.5 4.5-2.5 0-4.5-2-4.5-4.5 0-2.47 2-4.5 4.5-4.5 2.48 0 4.5 2.03 4.5 4.5zm0-17.88c0 2.5-2.02 4.5-4.5 4.5-2.5 0-4.5-2-4.5-4.5 0-2.48 2-4.5 4.5-4.5 2.48 0 4.5 2.02 4.5 4.5zm0-17.88c0 2.48-2.02 4.5-4.5 4.5-2.5 0-4.5-2.02-4.5-4.5 0-2.5 2-4.5 4.5-4.5 2.48 0 4.5 2 4.5 4.5zm0-17.9c0 2.5-2.02 4.5-4.5 4.5-2.5 0-4.5-2-4.5-4.5 0-2.48 2-4.5 4.5-4.5 2.48 0 4.5 2.02 4.5 4.5zm0-17.88c0 2.5-2.02 4.5-4.5 4.5-2.5 0-4.5-2-4.5-4.5 0-2.48 2-4.5 4.5-4.5 2.48 0 4.5 2.02 4.5 4.5zm0-17.88c0 2.48-2.02 4.5-4.5 4.5-2.5 0-4.5-2.02-4.5-4.5 0-2.5 2-4.5 4.5-4.5 2.48 0 4.5 2 4.5 4.5zm0-17.9c0 2.5-2.02 4.5-4.5 4.5-2.5 0-4.5-2-4.5-4.5 0-2.48 2-4.5 4.5-4.5 2.48 0 4.5 2.02 4.5 4.5zm0-17.88c0 2.5-2.02 4.5-4.5 4.5-2.5 0-4.5-2-4.5-4.5 0-2.48 2-4.5 4.5-4.5 2.48 0 4.5 2.02 4.5 4.5zm0-17.9c0 2.5-2.02 4.5-4.5 4.5-2.5 0-4.5-2-4.5-4.5 0-2.47 2-4.5 4.5-4.5 2.48 0 4.5 2.03 4.5 4.5zm0-17.88c0 2.5-2.02 4.5-4.5 4.5-2.5 0-4.5-2-4.5-4.5 0-2.48 2-4.5 4.5-4.5 2.48 0 4.5 2.02 4.5 4.5zm0-17.88c0 2.48-2.02 4.5-4.5 4.5-2.5 0-4.5-2.02-4.5-4.5 0-2.5 2-4.5 4.5-4.5 2.48 0 4.5 2 4.5 4.5zm0-17.9c0 2.5-2.02 4.5-4.5 4.5-2.5 0-4.5-2-4.5-4.5 0-2.47 2-4.5 4.5-4.5 2.48 0 4.5 2.03 4.5 4.5zm0-17.88c0 2.5-2.02 4.5-4.5 4.5-2.5 0-4.5-2-4.5-4.5 0-2.48 2-4.5 4.5-4.5 2.48 0 4.5 2.02 4.5 4.5zm0-17.88c0 2.48-2.02 4.5-4.5 4.5-2.5 0-4.5-2.02-4.5-4.5 0-2.5 2-4.5 4.5-4.5 2.48 0 4.5 2 4.5 4.5zm0-17.9c0 2.5-2.02 4.5-4.5 4.5-2.5 0-4.5-2-4.5-4.5 0-2.48 2-4.5 4.5-4.5 2.48 0 4.5 2.02 4.5 4.5zm0-17.88c0 2.5-2.02 4.5-4.5 4.5-2.5 0-4.5-2-4.5-4.5s2-4.5 4.5-4.5c2.48 0 4.5 2 4.5 4.5zm0-17.9c0 2.5-2.02 4.5-4.5 4.5-2.5 0-4.5-2-4.5-4.5 0-2.47 2-4.5 4.5-4.5 2.48 0 4.5 2.03 4.5 4.5zm0-17.88c0 2.5-2.02 4.5-4.5 4.5-2.5 0-4.5-2-4.5-4.5 0-2.48 2-4.5 4.5-4.5 2.48 0 4.5 2.02 4.5 4.5zm0-17.88c0 2.48-2.02 4.5-4.5 4.5-2.5 0-4.5-2.02-4.5-4.5 0-2.5 2-4.5 4.5-4.5 2.48 0 4.5 2 4.5 4.5zm0-17.9c0 2.5-2.02 4.5-4.5 4.5-2.5 0-4.5-2-4.5-4.5 0-2.48 2-4.5 4.5-4.5 2.48 0 4.5 2.02 4.5 4.5zm0-17.88c0 2.5-2.02 4.5-4.5 4.5-2.5 0-4.5-2-4.5-4.5 0-2.48 2-4.5 4.5-4.5 2.48 0 4.5 2.02 4.5 4.5zm0-17.9c0 2.5-2.02 4.5-4.5 4.5-2.5 0-4.5-2-4.5-4.5 0-2.47 2-4.5 4.5-4.5 2.48 0 4.5 2.03 4.5 4.5zm0-17.87c0 2.47-2.02 4.5-4.5 4.5-2.5 0-4.5-2.03-4.5-4.5 0-2.5 2-4.5 4.5-4.5 2.48 0 4.5 2 4.5 4.5zm0-17.9c0 2.5-2.02 4.5-4.5 4.5-2.5 0-4.5-2-4.5-4.5 0-2.48 2-4.5 4.5-4.5 2.48 0 4.5 2.02 4.5 4.5zm0-17.9c0 2.5-2.02 4.5-4.5 4.5-2.5 0-4.5-2-4.5-4.5 0-2.47 2-4.5 4.5-4.5 2.48 0 4.5 2.03 4.5 4.5zm0-17.88c0 2.5-2.02 4.5-4.5 4.5-2.5 0-4.5-2-4.5-4.5 0-2.48 2-4.5 4.5-4.5 2.48 0 4.5 2.02 4.5 4.5zm0-17.88c0 2.48-2.02 4.5-4.5 4.5-2.5 0-4.5-2.02-4.5-4.5 0-2.5 2-4.5 4.5-4.5 2.48 0 4.5 2 4.5 4.5zm0-17.9c0 2.5-2.02 4.5-4.5 4.5-2.5 0-4.5-2-4.5-4.5 0-2.47 2-4.5 4.5-4.5 2.48 0 4.5 2.03 4.5 4.5zm0-17.88c0 2.5-2.02 4.5-4.5 4.5-2.5 0-4.5-2-4.5-4.5 0-2.48 2-4.5 4.5-4.5 2.48 0 4.5 2.02 4.5 4.5zm0-17.9c0 2.5-2.02 4.52-4.5 4.52-2.5 0-4.5-2.02-4.5-4.5 0-2.5 2-4.5 4.5-4.5 2.48 0 4.5 2 4.5 4.5zm0-17.87c0 2.47-2.02 4.5-4.5 4.5-2.5 0-4.5-2.03-4.5-4.5 0-2.5 2-4.5 4.5-4.5 2.48 0 4.5 2 4.5 4.5zm0-17.9c0 2.48-2.02 4.5-4.5 4.5-2.5 0-4.5-2.02-4.5-4.5s2-4.5 4.5-4.5c2.48 0 4.5 2 4.5 4.5zm0-17.9c0 2.5-2.02 4.5-4.5 4.5-2.5 0-4.5-2-4.5-4.5 0-2.47 2-4.5 4.5-4.5 2.48 0 4.5 2.03 4.5 4.5zm0-17.88c0 2.5-2.02 4.5-4.5 4.5-2.5 0-4.5-2-4.5-4.5 0-2.48 2-4.5 4.5-4.5 2.48 0 4.5 2.02 4.5 4.5zm0-17.88c0 2.48-2.02 4.5-4.5 4.5-2.5 0-4.5-2.02-4.5-4.5 0-2.5 2-4.5 4.5-4.5 2.48 0 4.5 2 4.5 4.5zm0-17.9c0 2.5-2.02 4.5-4.5 4.5-2.5 0-4.5-2-4.5-4.5 0-2.47 2-4.5 4.5-4.5 2.48 0 4.5 2.03 4.5 4.5zm0-17.88c0 2.5-2.02 4.5-4.5 4.5-2.5 0-4.5-2-4.5-4.5 0-2.48 2-4.5 4.5-4.5 2.48 0 4.5 2.02 4.5 4.5zm0-17.9c0 2.5-2.02 4.52-4.5 4.52-2.5 0-4.5-2.02-4.5-4.5 0-2.5 2-4.5 4.5-4.5 2.48 0 4.5 2 4.5 4.5zm0-17.87c0 2.47-2.02 4.5-4.5 4.5-2.5 0-4.5-2.03-4.5-4.5 0-2.5 2-4.5 4.5-4.5 2.48 0 4.5 2 4.5 4.5z" fill="#1071e5"/><path d="M2782.9 1355.38v4.62M2782.9-75.39v-4.6" stroke="#1071e5" stroke-width="9" fill="none"/><path d="M1000 980.86a5 5 0 0 1 5-5h912.2a5 5 0 0 1 5 5v126.67a5 5 0 0 1-5 5H1005a5 5 0 0 1-5-5zM1002.2 814.6a5 5 0 0 1 5-5h910a5 5 0 0 1 5 5v126.66a5 5 0 0 1-5 5h-910a5 5 0 0 1-5-5zM1000 525a5 5 0 0 1 5-5h910a5 5 0 0 1 5 5v250a5 5 0 0 1-5 5h-910a5 5 0 0 1-5-5z" stroke="#6db1ff" stroke-width="9" fill-opacity="0"/><path d="M1040 602.35a5 5 0 0 1 5-5h286.9a5 5 0 0 1 5 5v146.9a5 5 0 0 1-5 5H1045a5 5 0 0 1-5-5z" stroke="#979ea8" stroke-width="2" fill="#ffbbb1"/><use xlink:href="#a" transform="matrix(1,0,0,1,1045,602.3483102505766) translate(87.8240740740741 83.27083333333331)"/><path d="M1040 838.33a5 5 0 0 1 5-5h286.9a5 5 0 0 1 5 5v72.76a5 5 0 0 1-5 5H1045a5 5 0 0 1-5-5z" stroke="#979ea8" stroke-width="2" fill="#ffbbb1"/><use xlink:href="#b" transform="matrix(1,0,0,1,1045,838.3333333333344) translate(90.47530864197533 44.68055555555554)"/><path d="M2020 604.5a5 5 0 0 1 5-5h405.58a5 5 0 0 1 5 5v111a5 5 0 0 1-5 5H2025a5 5 0 0 1-5-5z" stroke="#979ea8" stroke-width="2" fill="#fc9432"/><use xlink:href="#c" transform="matrix(1,0,0,1,2025,604.5064281385486) translate(118.77777777777791 70.9374999999999)"/><path d="M1483.4 611.44a5 5 0 0 1 5-5h170a5 5 0 0 1 5 5V738.1a5 5 0 0 1-5 5h-170a5 5 0 0 1-5-5z" stroke="#979ea8" stroke-width="2" fill="#fff7a1"/><use xlink:href="#d" transform="matrix(1,0,0,1,1488.386246590981,611.4406533509847) translate(38.7037037037037 77.14583333333334)"/><path d="M1700 625.93a5 5 0 0 1 5-5h170a5 5 0 0 1 5 5v97.7a5 5 0 0 1-5 5h-170a5 5 0 0 1-5-5z" stroke="#979ea8" stroke-width="2" fill="#fff7a1"/><use xlink:href="#e" transform="matrix(1,0,0,1,1705,625.9329640092242) translate(26.537037037037024 61.04166666666667)"/><path d="M1040 1005a5 5 0 0 1 5-5h286.9a5 5 0 0 1 5 5v72.76a5 5 0 0 1-5 5H1045a5 5 0 0 1-5-5z" stroke="#979ea8" stroke-width="2" fill="#ffbbb1"/><use xlink:href="#b" transform="matrix(1,0,0,1,1045,1005) translate(90.47530864197533 44.68055555555554)"/><path d="M2139.8 345a5 5 0 0 1 5-5h310a5 5 0 0 1 5 5v70a5 5 0 0 1-5 5h-310a5 5 0 0 1-5-5z" stroke="#000" stroke-opacity="0" stroke-width="2" fill="#fff" fill-opacity="0"/><use xlink:href="#f" transform="matrix(1,0,0,1,2144.810799885263,345) translate(69.29629629629673 47.10416666666646)"/><path d="M2283.4 434.24a6 6 0 0 1 8.47 0l27.07 27.07a2.48 2.48 0 0 1-1.75 4.26h-5.8a6 6 0 0 0-6 6v76.88a6 6 0 0 0 6 6h5.8a2.48 2.48 0 0 1 1.74 4.25l-27.07 27.06a6 6 0 0 1-8.48 0l-27.08-27.07a2.48 2.48 0 0 1 1.76-4.26h5.77a6 6 0 0 0 6-6v-76.88a6 6 0 0 0-6-6h-5.77a2.48 2.48 0 0 1-1.76-4.25z" stroke="#3a414a" fill="#54c45e"/><path d="M1002.2 520H1920v77.35h-917.8z" stroke="#000" stroke-opacity="0" stroke-width="2" fill="#fff" fill-opacity="0"/><use xlink:href="#g" transform="matrix(1,0,0,1,1007.2098765432102,525) translate(0 48.65104166666667)"/><use xlink:href="#h" transform="matrix(1,0,0,1,1007.2098765432102,525) translate(160.02604166666669 48.65104166666667)"/><path d="M1461.5 809.6h440v136.66h-440z" stroke="#000" stroke-opacity="0" stroke-width="2" fill="#fff" fill-opacity="0"/><use xlink:href="#i" transform="matrix(1,0,0,1,1466.4879027930936,814.5957252588332) translate(0 48.36979166666667)"/><use xlink:href="#j" transform="matrix(1,0,0,1,1466.4879027930936,814.5957252588332) translate(0 108.78645833333334)"/><path d="M1452.12 979.7h440v128.97h-440z" stroke="#000" stroke-opacity="0" stroke-width="2" fill="#fff" fill-opacity="0"/><use xlink:href="#k" transform="matrix(1,0,0,1,1457.1204172783202,984.7094121944722) translate(0 48.11979166666667)"/><use xlink:href="#l" transform="matrix(1,0,0,1,1457.1204172783202,984.7094121944722) translate(0 108.53645833333334)"/><path d="M1339.38 1037.66l141.54-359.17" stroke="#3a414a" stroke-width="8" fill="none"/><path d="M1343.12 1039.02l-2.6 6.6-2.6-1.02v-7.63zM1482.4 671.55v7.63l-5.22-2.05 2.6-6.6z" stroke="#3a414a" stroke-width=".05" fill="#3a414a"/><path d="M1340.18 881.53l139.94-203.46" stroke="#3a414a" stroke-width="8" fill="none"/><path d="M1343.5 883.7l-4 5.85-1.6-1.08v-8.62zM1482.4 671.13v8.62l-5.6-3.85 4-5.85z" stroke="#3a414a" stroke-width=".05" fill="#3a414a"/><path d="M1341.9 675.77l136.5-.97" stroke="#3a414a" stroke-width="8" fill="none"/><path d="M1342.04 679.74l-4.13.03v-7.95l4.1-.03zM1482.4 678.75l-4.1.03-.04-7.95 4.13-.03z" stroke="#3a414a" stroke-width=".05" fill="#3a414a"/><path d="M1960-95a5 5 0 0 1 5-5h790a5 5 0 0 1 5 5V55a5 5 0 0 1-5 5h-790a5 5 0 0 1-5-5z" stroke="#000" stroke-opacity="0" stroke-width="2" fill="#fff" fill-opacity="0"/><use xlink:href="#m" transform="matrix(1,0,0,1,1965,-95) translate(153.27160493827208 94.54861111111097)"/><use xlink:href="#n" transform="matrix(1,0,0,1,1965,-95) translate(360.4320987654322 94.54861111111097)"/><path d="M2007.32 345a5 5 0 0 1 5-5h190a5 5 0 0 1 5 5v70a5 5 0 0 1-5 5h-190a5 5 0 0 1-5-5z" stroke="#000" stroke-opacity="0" stroke-width="2" fill="#fff" fill-opacity="0"/><use xlink:href="#o" transform="matrix(1,0,0,1,2012.3169813655163,345.0000000000001) translate(-1.074074074073593 46.166666666666615)"/><path d="M2103.07 432.58a6 6 0 0 1 8.5 0l31.5 31.5a2.48 2.48 0 0 1-1.75 4.25h-8a6 6 0 0 0-6 6v68a6 6 0 0 0 6 6h8a2.48 2.48 0 0 1 1.75 4.25l-31.5 31.5a6 6 0 0 1-8.5 0l-31.5-31.5a2.48 2.48 0 0 1 1.75-4.25h8a6 6 0 0 0 6-6v-68a6 6 0 0 0-6-6h-8a2.48 2.48 0 0 1-1.76-4.24z" stroke="#3a414a" fill="#fe7070"/><path d="M1515.62 70h345.1v79.33h-345.1z" fill="#ffdda6"/><path d="M1515.62 149.33h205v79.34h-205zM1720.62 149.33h140.1v79.34h-140.1z" fill="#e3fae3"/><path d="M1515.62 228.67h205V308h-205zM1720.62 228.67h140.1V308h-140.1z" fill="#ffd9d9"/><path d="M1515.62 308h205v79.33h-205zM1720.62 308h140.1v79.33h-140.1z" fill="#e3fae3"/><path d="M1515.62 387.33h205v79.34h-205zM1720.62 387.33h140.1v79.34h-140.1z" fill="#ffd9d9"/><path d="M1515.62 70v79.33M1860.72 70v79.33M1515.62 149.33v79.34M1720.62 149.33v79.34M1860.72 149.33v79.34M1515.62 228.67V308M1720.62 228.67V308M1860.72 228.67V308M1515.62 308v79.33M1720.62 308v79.33M1860.72 308v79.33M1515.62 387.33v79.34M1720.62 387.33v79.34M1860.72 387.33v79.34M1515.62 70h345.1M1515.62 149.33h205M1720.62 149.33h140.1M1515.62 228.67h205M1720.62 228.67h140.1M1515.62 308h205M1720.62 308h140.1M1515.62 387.33h205M1515.62 466.67h205M1720.62 387.33h140.1M1720.62 466.67h140.1" stroke="#5e5e5e" fill="none"/><use xlink:href="#p" transform="matrix(1,0,0,1,1520.6204172783202,74.99999999999977) translate(40.814814814814795 45.66666666666667)"/><use xlink:href="#q" transform="matrix(1,0,0,1,1520.6204172783202,74.99999999999977) translate(206.44444444444446 45.66666666666667)"/><use xlink:href="#r" transform="matrix(1,0,0,1,1520.6204172783202,154.33333333333294) translate(0 45.66666666666667)"/><use xlink:href="#s" transform="matrix(1,0,0,1,1520.6204172783202,154.33333333333294) translate(133.33333333333334 45.66666666666667)"/><use xlink:href="#t" transform="matrix(1,0,0,1,1725.6204172783202,154.33333333333294) translate(49.49739583333333 49.192708333333336)"/><use xlink:href="#r" transform="matrix(1,0,0,1,1520.6204172783202,233.66666666666612) translate(0 45.66666666666667)"/><use xlink:href="#u" transform="matrix(1,0,0,1,1520.6204172783202,233.66666666666612) translate(133.33333333333334 45.66666666666667)"/><use xlink:href="#t" transform="matrix(1,0,0,1,1725.6204172783202,233.66666666666612) translate(49.49739583333333 49.192708333333336)"/><use xlink:href="#r" transform="matrix(1,0,0,1,1520.6204172783202,312.9999999999993) translate(0 45.66666666666667)"/><use xlink:href="#v" transform="matrix(1,0,0,1,1520.6204172783202,312.9999999999993) translate(133.33333333333334 45.66666666666667)"/><use xlink:href="#w" transform="matrix(1,0,0,1,1725.6204172783202,312.9999999999993) translate(49.49739583333333 49.192708333333336)"/><use xlink:href="#r" transform="matrix(1,0,0,1,1520.6204172783202,392.33333333333246) translate(0 45.66666666666667)"/><use xlink:href="#x" transform="matrix(1,0,0,1,1520.6204172783202,392.33333333333246) translate(133.33333333333334 45.66666666666667)"/><use xlink:href="#y" transform="matrix(1,0,0,1,1725.6204172783202,392.33333333333246) translate(49.49739583333333 49.192708333333336)"/><path d="M1342.95 1206.6c0 2.2-1.8 4-4 4s-4-1.8-4-4c0-2.22 1.8-4 4-4s4 1.78 4 4zm4.2-15.54c0 2.2-1.8 4-4 4-2.22 0-4-1.8-4-4s1.78-4 4-4c2.2 0 4 1.8 4 4zm4.18-15.52c0 2.2-1.8 4-4 4s-4-1.8-4-4 1.8-4 4-4 4 1.8 4 4zm4.2-15.53c0 2.22-1.8 4-4 4-2.22 0-4-1.78-4-4 0-2.2 1.78-4 4-4 2.2 0 4 1.8 4 4zm4.18-15.52c0 2.2-1.78 4-4 4-2.2 0-4-1.8-4-4s1.8-4 4-4c2.22 0 4 1.8 4 4zm4.2-15.53c0 2.2-1.8 4-4 4s-4-1.8-4-4 1.8-4 4-4 4 1.8 4 4zm4.18-15.53c0 2.2-1.8 4-4 4s-4-1.8-4-4 1.8-4 4-4 4 1.8 4 4zm4.2-15.53c0 2.2-1.8 4-4 4-2.22 0-4-1.8-4-4s1.78-4 4-4c2.2 0 4 1.8 4 4zm4.18-15.53c0 2.2-1.8 4-4 4s-4-1.8-4-4 1.8-4 4-4 4 1.8 4 4zm4.2-15.53c0 2.2-1.8 4-4 4-2.22 0-4-1.8-4-4s1.78-4 4-4c2.2 0 4 1.8 4 4zm4.17-15.53c0 2.22-1.8 4-4 4s-4-1.78-4-4c0-2.2 1.8-4 4-4s4 1.8 4 4zm4.2-15.52c0 2.2-1.8 4-4 4-2.22 0-4-1.8-4-4s1.78-4 4-4c2.2 0 4 1.8 4 4zm4.18-15.53c0 2.2-1.78 4-4 4-2.2 0-4-1.8-4-4s1.8-4 4-4c2.22 0 4 1.8 4 4zm4.2-15.52c0 2.2-1.8 4-4 4s-4-1.8-4-4 1.8-4 4-4 4 1.8 4 4zm4.2-15.53c0 2.2-1.8 4-4 4-2.22 0-4-1.8-4-4s1.78-4 4-4c2.2 0 4 1.8 4 4zm4.17-15.53c0 2.2-1.8 4-4 4s-4-1.8-4-4 1.8-4 4-4 4 1.8 4 4zm4.2-15.53c0 2.2-1.8 4-4 4-2.22 0-4-1.8-4-4s1.78-4 4-4c2.2 0 4 1.8 4 4zm4.18-15.53c0 2.22-1.8 4-4 4s-4-1.78-4-4c0-2.2 1.8-4 4-4s4 1.8 4 4zm4.2-15.5c0 2.2-1.8 4-4 4-2.22 0-4-1.8-4-4 0-2.22 1.78-4 4-4 2.2 0 4 1.78 4 4zm4.18-15.54c0 2.2-1.8 4-4 4s-4-1.8-4-4 1.8-4 4-4 4 1.8 4 4zm4.18-15.53c0 2.2-1.78 4-4 4-2.2 0-4-1.8-4-4s1.8-4 4-4c2.22 0 4 1.8 4 4zm4.2-15.53c0 2.2-1.8 4-4 4s-4-1.8-4-4 1.8-4 4-4 4 1.8 4 4zm4.2-15.53c0 2.2-1.8 4-4 4-2.22 0-4-1.8-4-4s1.78-4 4-4c2.2 0 4 1.8 4 4zm4.18-15.52c0 2.2-1.8 4-4 4s-4-1.8-4-4 1.8-4 4-4 4 1.8 4 4zm4.18-15.53c0 2.2-1.8 4-4 4s-4-1.8-4-4 1.8-4 4-4 4 1.8 4 4zm4.2-15.53c0 2.2-1.8 4-4 4-2.22 0-4-1.8-4-4 0-2.22 1.78-4 4-4 2.2 0 4 1.78 4 4zm4.18-15.54c0 2.2-1.8 4-4 4s-4-1.8-4-4 1.8-4 4-4 4 1.8 4 4zm4.2-15.53c0 2.2-1.8 4-4 4-2.22 0-4-1.8-4-4s1.78-4 4-4c2.2 0 4 1.8 4 4zm4.18-15.53c0 2.2-1.8 4-4 4s-4-1.8-4-4 1.8-4 4-4 4 1.8 4 4zm4.18-15.52c0 2.2-1.8 4-4 4s-4-1.8-4-4 1.8-4 4-4 4 1.8 4 4zm4.2-15.53c0 2.2-1.8 4-4 4-2.22 0-4-1.8-4-4s1.78-4 4-4c2.2 0 4 1.8 4 4zm4.18-15.53c0 2.2-1.8 4-4 4s-4-1.8-4-4 1.8-4 4-4 4 1.8 4 4zm4.2-15.53c0 2.2-1.8 4-4 4-2.22 0-4-1.8-4-4 0-2.22 1.78-4 4-4 2.2 0 4 1.78 4 4zm4.18-15.54c0 2.2-1.8 4-4 4s-4-1.8-4-4 1.8-4 4-4 4 1.8 4 4z" fill="#3a414a"/><path d="M1342.82 1207.53l-1.85 6.86-3.06-.84v-7.36zM1482.4 671.67v7.35l-4.92-1.32 1.85-6.86z" stroke="#3a414a" stroke-width=".05" fill="#3a414a"/><path d="M1040 1174.08a5 5 0 0 1 5-5h286.9a5 5 0 0 1 5 5v72.75a5 5 0 0 1-5 5H1045a5 5 0 0 1-5-5z" stroke="#979ea8" stroke-width="2" fill="#dfe3e8"/><use xlink:href="#z" transform="matrix(1,0,0,1,1045,1174.076305565428) translate(33.06790123456797 44.68055555555554)"/><path d="M1325.15 1104.24a6 6 0 0 1 8.48 0l55.67 55.67a6 6 0 0 1 0 8.5l-.9.9a6 6 0 0 1-8.5 0l-55.66-55.67a6 6 0 0 1 0-8.48z" stroke="#000" stroke-opacity="0" fill="#cc4e00"/><path d="M1389.3 1105.15a6 6 0 0 1 0 8.48l-55.67 55.67a6 6 0 0 1-8.48 0l-.9-.9a6 6 0 0 1 0-8.5l55.66-55.66a6 6 0 0 1 8.5 0z" stroke="#000" stroke-opacity="0" fill="#cc4e00"/><path d="M2459.8 652.94a6 6 0 0 1 6-6h112a6 6 0 0 0 6-6v-8a2.3 2.3 0 0 1 4.02-1.54l27.98 31.08a6.67 6.67 0 0 1 0 8.92l-27.98 31.08a2.3 2.3 0 0 1-4-1.54v-8a6 6 0 0 0-6-6h-112a6 6 0 0 1-6-6z" stroke="#3a414a" fill="#6db1ff"/><path d="M890 1355.5c0 2.5-2.03 4.5-4.5 4.5-2.5 0-4.5-2-4.5-4.5 0-2.48 2-4.5 4.5-4.5 2.47 0 4.5 2.02 4.5 4.5zm.17-17.9c0 2.5-2.02 4.5-4.5 4.5-2.5 0-4.5-2-4.5-4.5 0-2.47 2-4.5 4.5-4.5 2.48 0 4.5 2.03 4.5 4.5zm.18-17.88c0 2.5-2 4.5-4.5 4.5s-4.5-2-4.5-4.5c0-2.48 2-4.5 4.5-4.5s4.5 2.02 4.5 4.5zm.18-17.88c0 2.48-2 4.5-4.5 4.5s-4.5-2.02-4.5-4.5c0-2.5 2-4.5 4.5-4.5s4.5 2 4.5 4.5zm.18-17.9c0 2.5-2 4.5-4.5 4.5-2.47 0-4.5-2-4.5-4.5 0-2.48 2.03-4.5 4.5-4.5 2.5 0 4.5 2.02 4.5 4.5zm.2-17.88c0 2.5-2.02 4.5-4.5 4.5-2.5 0-4.5-2-4.5-4.5 0-2.48 2-4.5 4.5-4.5 2.48 0 4.5 2.02 4.5 4.5zm.17-17.88c0 2.48-2 4.5-4.5 4.5-2.48 0-4.5-2.02-4.5-4.5 0-2.5 2.02-4.5 4.5-4.5 2.5 0 4.5 2 4.5 4.5zm.18-17.9c0 2.5-2 4.5-4.5 4.5-2.48 0-4.5-2-4.5-4.5 0-2.48 2.02-4.5 4.5-4.5 2.5 0 4.5 2.02 4.5 4.5zm.18-17.88c0 2.48-2 4.5-4.5 4.5-2.48 0-4.5-2.02-4.5-4.5 0-2.5 2.02-4.5 4.5-4.5 2.5 0 4.5 2 4.5 4.5zm.2-17.9c0 2.5-2.03 4.5-4.5 4.5-2.5 0-4.5-2-4.5-4.5 0-2.47 2-4.5 4.5-4.5 2.47 0 4.5 2.03 4.5 4.5zm.17-17.88c0 2.5-2.02 4.5-4.5 4.5-2.5 0-4.5-2-4.5-4.5 0-2.48 2-4.5 4.5-4.5 2.48 0 4.5 2.02 4.5 4.5zm.18-17.88c0 2.48-2.02 4.5-4.5 4.5-2.5 0-4.5-2.02-4.5-4.5 0-2.5 2-4.5 4.5-4.5 2.48 0 4.5 2 4.5 4.5zm.18-17.9c0 2.5-2.02 4.5-4.5 4.5-2.5 0-4.5-2-4.5-4.5 0-2.47 2-4.5 4.5-4.5 2.48 0 4.5 2.03 4.5 4.5zm.18-17.88c0 2.5-2.02 4.5-4.5 4.5-2.5 0-4.5-2-4.5-4.5 0-2.48 2-4.5 4.5-4.5 2.48 0 4.5 2.02 4.5 4.5zm.18-17.88c0 2.48-2 4.5-4.5 4.5s-4.5-2.02-4.5-4.5c0-2.5 2-4.5 4.5-4.5s4.5 2 4.5 4.5zm.18-17.9c0 2.5-2 4.5-4.5 4.5s-4.5-2-4.5-4.5c0-2.48 2-4.5 4.5-4.5s4.5 2.02 4.5 4.5zm.18-17.88c0 2.5-2 4.5-4.5 4.5-2.48 0-4.5-2-4.5-4.5 0-2.48 2.02-4.5 4.5-4.5 2.5 0 4.5 2.02 4.5 4.5zm.18-17.9c0 2.5-2 4.5-4.5 4.5-2.48 0-4.5-2-4.5-4.5 0-2.47 2.02-4.5 4.5-4.5 2.5 0 4.5 2.03 4.5 4.5zm.18-17.88c0 2.5-2 4.5-4.5 4.5-2.48 0-4.5-2-4.5-4.5 0-2.48 2.02-4.5 4.5-4.5 2.5 0 4.5 2.02 4.5 4.5zm.18-17.88c0 2.48-2 4.5-4.5 4.5-2.48 0-4.5-2.02-4.5-4.5 0-2.5 2.02-4.5 4.5-4.5 2.5 0 4.5 2 4.5 4.5zm.2-17.9c0 2.5-2.03 4.5-4.5 4.5-2.5 0-4.5-2-4.5-4.5 0-2.48 2-4.5 4.5-4.5 2.47 0 4.5 2.02 4.5 4.5zm.17-17.88c0 2.5-2.03 4.5-4.5 4.5-2.5 0-4.5-2-4.5-4.5 0-2.48 2-4.5 4.5-4.5 2.47 0 4.5 2.02 4.5 4.5zm.17-17.88c0 2.48-2.02 4.5-4.5 4.5-2.5 0-4.5-2.02-4.5-4.5 0-2.5 2-4.5 4.5-4.5 2.48 0 4.5 2 4.5 4.5zm.18-17.9c0 2.5-2.02 4.5-4.5 4.5-2.5 0-4.5-2-4.5-4.5 0-2.48 2-4.5 4.5-4.5 2.48 0 4.5 2.02 4.5 4.5zm.18-17.88c0 2.48-2.02 4.5-4.5 4.5-2.5 0-4.5-2.02-4.5-4.5 0-2.5 2-4.5 4.5-4.5 2.48 0 4.5 2 4.5 4.5zm.18-17.9c0 2.5-2 4.5-4.5 4.5-2.48 0-4.5-2-4.5-4.5 0-2.47 2.02-4.5 4.5-4.5 2.5 0 4.5 2.03 4.5 4.5zm.2-17.88c0 2.5-2.03 4.5-4.5 4.5-2.5 0-4.5-2-4.5-4.5 0-2.48 2-4.5 4.5-4.5 2.47 0 4.5 2.02 4.5 4.5zm.17-17.88c0 2.48-2 4.5-4.5 4.5s-4.5-2.02-4.5-4.5c0-2.5 2-4.5 4.5-4.5s4.5 2 4.5 4.5zm.18-17.9c0 2.5-2 4.5-4.5 4.5-2.48 0-4.5-2-4.5-4.5 0-2.48 2.02-4.5 4.5-4.5 2.5 0 4.5 2.02 4.5 4.5zm.18-17.88c0 2.5-2 4.5-4.5 4.5-2.48 0-4.5-2-4.5-4.5 0-2.48 2.02-4.5 4.5-4.5 2.5 0 4.5 2.02 4.5 4.5zm.18-17.88c0 2.48-2 4.5-4.5 4.5-2.47 0-4.5-2.02-4.5-4.5 0-2.5 2.03-4.5 4.5-4.5 2.5 0 4.5 2 4.5 4.5zm.2-17.9c0 2.5-2.02 4.5-4.5 4.5-2.5 0-4.5-2-4.5-4.5 0-2.48 2-4.5 4.5-4.5 2.48 0 4.5 2.02 4.5 4.5zm.17-17.88c0 2.5-2 4.5-4.5 4.5-2.48 0-4.5-2-4.5-4.5s2.02-4.5 4.5-4.5c2.5 0 4.5 2 4.5 4.5zm.2-17.9c0 2.5-2.03 4.5-4.5 4.5-2.5 0-4.5-2-4.5-4.5 0-2.47 2-4.5 4.5-4.5 2.47 0 4.5 2.03 4.5 4.5zm.17-17.88c0 2.5-2.02 4.5-4.5 4.5-2.5 0-4.5-2-4.5-4.5 0-2.48 2-4.5 4.5-4.5 2.48 0 4.5 2.02 4.5 4.5zm.18-17.88c0 2.48-2.02 4.5-4.5 4.5-2.5 0-4.5-2.02-4.5-4.5 0-2.5 2-4.5 4.5-4.5 2.48 0 4.5 2 4.5 4.5zm.18-17.9c0 2.5-2.02 4.5-4.5 4.5-2.5 0-4.5-2-4.5-4.5 0-2.47 2-4.5 4.5-4.5 2.48 0 4.5 2.03 4.5 4.5zm.18-17.88c0 2.5-2.02 4.5-4.5 4.5-2.5 0-4.5-2-4.5-4.5 0-2.48 2-4.5 4.5-4.5 2.48 0 4.5 2.02 4.5 4.5zm.18-17.88c0 2.48-2 4.5-4.5 4.5s-4.5-2.02-4.5-4.5c0-2.5 2-4.5 4.5-4.5s4.5 2 4.5 4.5zm.18-17.9c0 2.5-2 4.5-4.5 4.5s-4.5-2-4.5-4.5c0-2.48 2-4.5 4.5-4.5s4.5 2.02 4.5 4.5zm.18-17.88c0 2.5-2 4.5-4.5 4.5-2.48 0-4.5-2-4.5-4.5s2.02-4.5 4.5-4.5c2.5 0 4.5 2 4.5 4.5zm.18-17.9c0 2.5-2 4.5-4.5 4.5-2.48 0-4.5-2-4.5-4.5 0-2.47 2.02-4.5 4.5-4.5 2.5 0 4.5 2.03 4.5 4.5zm.18-17.88c0 2.5-2 4.5-4.5 4.5-2.48 0-4.5-2-4.5-4.5 0-2.48 2.02-4.5 4.5-4.5 2.5 0 4.5 2.02 4.5 4.5zm.18-17.88c0 2.48-2 4.5-4.5 4.5-2.48 0-4.5-2.02-4.5-4.5 0-2.5 2.02-4.5 4.5-4.5 2.5 0 4.5 2 4.5 4.5zm.2-17.9c0 2.5-2.03 4.5-4.5 4.5-2.5 0-4.5-2-4.5-4.5 0-2.48 2-4.5 4.5-4.5 2.47 0 4.5 2.02 4.5 4.5zm.16-17.88c0 2.5-2 4.5-4.5 4.5-2.48 0-4.5-2-4.5-4.5 0-2.48 2.02-4.5 4.5-4.5 2.5 0 4.5 2.02 4.5 4.5zm.2-17.88c0 2.48-2.03 4.5-4.5 4.5-2.5 0-4.5-2.02-4.5-4.5 0-2.5 2-4.5 4.5-4.5 2.47 0 4.5 2 4.5 4.5zm.17-17.9c0 2.5-2.03 4.5-4.5 4.5-2.5 0-4.5-2-4.5-4.5 0-2.48 2-4.5 4.5-4.5 2.47 0 4.5 2.02 4.5 4.5zm.17-17.88c0 2.5-2.02 4.5-4.5 4.5-2.5 0-4.5-2-4.5-4.5 0-2.48 2-4.5 4.5-4.5 2.48 0 4.5 2.02 4.5 4.5zm.18-17.9c0 2.5-2.02 4.5-4.5 4.5-2.5 0-4.5-2-4.5-4.5 0-2.47 2-4.5 4.5-4.5 2.48 0 4.5 2.03 4.5 4.5zm.18-17.88c0 2.5-2 4.5-4.5 4.5s-4.5-2-4.5-4.5c0-2.48 2-4.5 4.5-4.5s4.5 2.02 4.5 4.5zm.18-17.88c0 2.48-2 4.5-4.5 4.5-2.48 0-4.5-2.02-4.5-4.5 0-2.5 2.02-4.5 4.5-4.5 2.5 0 4.5 2 4.5 4.5zm.2-17.9c0 2.5-2.02 4.5-4.5 4.5-2.5 0-4.5-2-4.5-4.5 0-2.47 2-4.5 4.5-4.5 2.48 0 4.5 2.03 4.5 4.5zm.17-17.88c0 2.5-2 4.5-4.5 4.5-2.48 0-4.5-2-4.5-4.5 0-2.48 2.02-4.5 4.5-4.5 2.5 0 4.5 2.02 4.5 4.5zm.18-17.88c0 2.48-2 4.5-4.5 4.5-2.48 0-4.5-2.02-4.5-4.5 0-2.5 2.02-4.5 4.5-4.5 2.5 0 4.5 2 4.5 4.5zm.18-17.9c0 2.5-2 4.5-4.5 4.5-2.48 0-4.5-2-4.5-4.5 0-2.48 2.02-4.5 4.5-4.5 2.5 0 4.5 2.02 4.5 4.5zm.2-17.88c0 2.5-2.03 4.5-4.5 4.5-2.5 0-4.5-2-4.5-4.5s2-4.5 4.5-4.5c2.47 0 4.5 2 4.5 4.5zm.16-17.9c0 2.5-2.02 4.5-4.5 4.5-2.5 0-4.5-2-4.5-4.5 0-2.47 2-4.5 4.5-4.5 2.48 0 4.5 2.03 4.5 4.5zm.18-17.88c0 2.5-2.02 4.5-4.5 4.5-2.5 0-4.5-2-4.5-4.5 0-2.48 2-4.5 4.5-4.5 2.48 0 4.5 2.02 4.5 4.5zm.18-17.88c0 2.48-2.02 4.5-4.5 4.5-2.5 0-4.5-2.02-4.5-4.5 0-2.5 2-4.5 4.5-4.5 2.48 0 4.5 2 4.5 4.5zm.18-17.9c0 2.5-2.02 4.5-4.5 4.5-2.5 0-4.5-2-4.5-4.5 0-2.48 2-4.5 4.5-4.5 2.48 0 4.5 2.02 4.5 4.5zm.18-17.88c0 2.5-2.02 4.5-4.5 4.5-2.5 0-4.5-2-4.5-4.5 0-2.48 2-4.5 4.5-4.5 2.48 0 4.5 2.02 4.5 4.5zm.18-17.9c0 2.5-2.02 4.5-4.5 4.5-2.5 0-4.5-2-4.5-4.5 0-2.47 2-4.5 4.5-4.5 2.48 0 4.5 2.03 4.5 4.5zm.18-17.87c0 2.47-2 4.5-4.5 4.5s-4.5-2.03-4.5-4.5c0-2.5 2-4.5 4.5-4.5s4.5 2 4.5 4.5zm.18-17.9c0 2.5-2 4.5-4.5 4.5-2.48 0-4.5-2-4.5-4.5 0-2.48 2.02-4.5 4.5-4.5 2.5 0 4.5 2.02 4.5 4.5zm.18-17.9c0 2.5-2 4.5-4.5 4.5-2.48 0-4.5-2-4.5-4.5 0-2.47 2.02-4.5 4.5-4.5 2.5 0 4.5 2.03 4.5 4.5zm.18-17.88c0 2.5-2 4.5-4.5 4.5-2.48 0-4.5-2-4.5-4.5 0-2.48 2.02-4.5 4.5-4.5 2.5 0 4.5 2.02 4.5 4.5zm.18-17.88c0 2.48-2 4.5-4.5 4.5-2.48 0-4.5-2.02-4.5-4.5 0-2.5 2.02-4.5 4.5-4.5 2.5 0 4.5 2 4.5 4.5zm.18-17.9c0 2.5-2 4.5-4.5 4.5-2.48 0-4.5-2-4.5-4.5 0-2.47 2.02-4.5 4.5-4.5 2.5 0 4.5 2.03 4.5 4.5zm.2-17.88c0 2.5-2.03 4.5-4.5 4.5-2.5 0-4.5-2-4.5-4.5 0-2.48 2-4.5 4.5-4.5 2.47 0 4.5 2.02 4.5 4.5zm.17-17.9c0 2.5-2.02 4.52-4.5 4.52-2.5 0-4.5-2.02-4.5-4.5 0-2.5 2-4.5 4.5-4.5 2.48 0 4.5 2 4.5 4.5zm.18-17.87c0 2.47-2.02 4.5-4.5 4.5-2.5 0-4.5-2.03-4.5-4.5 0-2.5 2-4.5 4.5-4.5 2.48 0 4.5 2 4.5 4.5zm.18-17.9c0 2.48-2 4.5-4.5 4.5-2.48 0-4.5-2.02-4.5-4.5s2.02-4.5 4.5-4.5c2.5 0 4.5 2 4.5 4.5zm.2-17.9c0 2.5-2.03 4.5-4.5 4.5-2.5 0-4.5-2-4.5-4.5 0-2.47 2-4.5 4.5-4.5 2.47 0 4.5 2.03 4.5 4.5zm.17-17.88c0 2.5-2 4.5-4.5 4.5s-4.5-2-4.5-4.5c0-2.48 2-4.5 4.5-4.5s4.5 2.02 4.5 4.5zm.18-17.88c0 2.48-2 4.5-4.5 4.5-2.48 0-4.5-2.02-4.5-4.5 0-2.5 2.02-4.5 4.5-4.5 2.5 0 4.5 2 4.5 4.5zm.18-17.9c0 2.5-2 4.5-4.5 4.5-2.48 0-4.5-2-4.5-4.5 0-2.47 2.02-4.5 4.5-4.5 2.5 0 4.5 2.03 4.5 4.5zm.18-17.88c0 2.5-2 4.5-4.5 4.5-2.47 0-4.5-2-4.5-4.5 0-2.48 2.03-4.5 4.5-4.5 2.5 0 4.5 2.02 4.5 4.5zm.2-17.9c0 2.5-2.02 4.52-4.5 4.52-2.5 0-4.5-2.02-4.5-4.5 0-2.5 2-4.5 4.5-4.5 2.48 0 4.5 2 4.5 4.5zm.17-17.87c0 2.47-2 4.5-4.5 4.5-2.48 0-4.5-2.03-4.5-4.5 0-2.5 2.02-4.5 4.5-4.5 2.5 0 4.5 2 4.5 4.5zm.2-17.9c0 2.48-2.03 4.5-4.5 4.5-2.5 0-4.5-2.02-4.5-4.5 0-2.5 2-4.5 4.5-4.5 2.47 0 4.5 2 4.5 4.5z" fill="#1071e5"/><path d="M885.5 1355.38l-.06 4.62M899.95-75.39l.05-4.6" stroke="#1071e5" stroke-width="9" fill="none"/><path d="M2690.7 627.28a5 5 0 0 1 5-5h170a5 5 0 0 1 5 5V751.9a5 5 0 0 1-5 5h-170a5 5 0 0 1-5-5z" stroke="#979ea8" stroke-width="2" fill="#fc9432"/><use xlink:href="#A" transform="matrix(1,0,0,1,2695.687351735886,627.2790884339704) translate(38.7037037037037 76.77083333333334)"/><path d="M2875.06 687.17l494.46-315.02" stroke="#3a414a" stroke-width="8" fill="none"/><path d="M2877.28 690.47l-5.6 3.56v-9.42l1.33-.84z" stroke="#3a414a" stroke-width=".05" fill="#3a414a"/><path d="M3369.44 372.2l3.46-2.2M2875.5 688.38l493.6-157.17" stroke="#3a414a" stroke-width="8" fill="none"/><path d="M2876.8 692.13l-5.1 1.63v-8.34l2.7-.86z" stroke="#3a414a" stroke-width=".05" fill="#3a414a"/><path d="M3369 531.25l3.9-1.25M2875.67 689.9l493.24 39.78" stroke="#3a414a" stroke-width="8" fill="none"/><path d="M2876.1 685.96l-.64 7.92-3.77-.3v-7.98z" stroke="#3a414a" stroke-width=".05" fill="#3a414a"/><path d="M3368.8 729.67l4.1.33M2875.35 691.2l493.9 217.2" stroke="#3a414a" stroke-width="8" fill="none"/><path d="M2877.04 687.6l-3.2 7.28-2.15-.95v-8.68z" stroke="#3a414a" stroke-width=".05" fill="#3a414a"/><path d="M3369.14 908.35l3.76 1.65" stroke="#3a414a" stroke-width="8" fill="none"/><path d="M3198.05 817.47a6 6 0 0 1 8.48 0l55.67 55.67a6 6 0 0 1 0 8.48l-.9.9a6 6 0 0 1-8.5 0l-55.66-55.66a6 6 0 0 1 0-8.48z" stroke="#000" stroke-opacity="0" fill="#cc4e00"/><path d="M3262.2 818.38a6 6 0 0 1 0 8.48l-55.67 55.67a6 6 0 0 1-8.48 0l-.9-.9a6 6 0 0 1 0-8.5l55.66-55.66a6 6 0 0 1 8.5 0zM3198.05 547.47a6 6 0 0 1 8.48 0l55.67 55.67a6 6 0 0 1 0 8.48l-.9.9a6 6 0 0 1-8.5 0l-55.66-55.66a6 6 0 0 1 0-8.48z" stroke="#000" stroke-opacity="0" fill="#cc4e00"/><path d="M3262.2 548.38a6 6 0 0 1 0 8.48l-55.67 55.67a6 6 0 0 1-8.48 0l-.9-.9a6 6 0 0 1 0-8.5l55.66-55.66a6 6 0 0 1 8.5 0z" stroke="#000" stroke-opacity="0" fill="#cc4e00"/><path d="M980 1313.38a5 5 0 0 1 5-5h902.12a5 5 0 0 1 5 5v90a5 5 0 0 1-5 5H985a5 5 0 0 1-5-5z" stroke="#000" stroke-opacity="0" stroke-width="2" fill="#fff" fill-opacity="0"/><use xlink:href="#B" transform="matrix(1,0,0,1,985,1313.3829010353304) translate(114.30864197531002 67.55555555555527)"/><use xlink:href="#C" transform="matrix(1,0,0,1,985,1313.3829010353304) translate(137.76543209876672 67.55555555555527)"/><use xlink:href="#D" transform="matrix(1,0,0,1,985,1313.3829010353304) translate(400.0123456790126 67.55555555555527)"/><use xlink:href="#E" transform="matrix(1,0,0,1,985,1313.3829010353304) translate(611.1234567901229 67.55555555555527)"/><use xlink:href="#F" transform="matrix(1,0,0,1,985,1313.3829010353304) translate(451.5 168.88888888888818)"/><path d="M3198.05 684.94a6 6 0 0 1 8.48 0l55.67 55.67a6 6 0 0 1 0 8.5l-.9.9a6 6 0 0 1-8.5 0l-55.66-55.66a6 6 0 0 1 0-8.5z" stroke="#000" stroke-opacity="0" fill="#cc4e00"/><path d="M3262.2 685.85a6 6 0 0 1 0 8.5L3206.53 750a6 6 0 0 1-8.48 0l-.9-.9a6 6 0 0 1 0-8.5l55.66-55.65a6 6 0 0 1 8.5 0z" stroke="#000" stroke-opacity="0" fill="#cc4e00"/><path d="M1426.77 676.94c0 16.57-13.43 30-30 30s-30-13.43-30-30 13.43-30 30-30 30 13.43 30 30z" stroke="#000" stroke-width="2" fill="#fff"/><use xlink:href="#G" transform="matrix(1,0,0,1,1371.772493181962,651.9371314595915) translate(5.814814814814813 42.66666666666667)"/><path d="M1433.55 873.33c0 16.57-13.44 30-30 30-16.57 0-30-13.43-30-30s13.43-30 30-30c16.56 0 30 13.43 30 30z" stroke="#000" stroke-width="2" fill="#fff"/><use xlink:href="#G" transform="matrix(1,0,0,1,1378.544986363924,848.3333333333342) translate(5.814814814814813 42.66666666666667)"/><path d="M1433.55 1044.2c0 16.56-13.44 30-30 30-16.57 0-30-13.44-30-30 0-16.58 13.43-30 30-30 16.56 0 30 13.42 30 30z" stroke="#000" stroke-width="2" fill="#fff"/><use xlink:href="#G" transform="matrix(1,0,0,1,1378.544986363924,1019.1914505176652) translate(5.814814814814813 42.66666666666667)"/><path d="M1280 290c0 44.18-35.82 80-80 80s-80-35.82-80-80 35.82-80 80-80 80 35.82 80 80z" stroke="#000" stroke-width="6" fill="#fff"/><use xlink:href="#H" transform="matrix(1,0,0,1,1125,215) translate(36.63462962962962 102.04501333333334)"/><path d="M2546 290c0 44.18-35.8 80-80 80-44.17 0-80-35.82-80-80s35.83-80 80-80c44.2 0 80 35.82 80 80z" stroke="#000" stroke-width="6" fill="#fff"/><use xlink:href="#I" transform="matrix(1,0,0,1,2391.0135454527126,215) translate(48.33833333333333 107.02165333333335)"/><path d="M2620.4 70h328.1v79.33h-328.1z" fill="#ffdda6"/><path d="M2620.4 149.33h188v79.34h-188zM2808.4 149.33h140.1v79.34h-140.1z" fill="#e3fae3"/><path d="M2620.4 228.67h188V308h-188zM2808.4 228.67h140.1V308h-140.1z" fill="#ffd9d9"/><path d="M2620.4 308h188v79.33h-188zM2808.4 308h140.1v79.33h-140.1z" fill="#e3fae3"/><path d="M2620.4 387.33h188v79.34h-188zM2808.4 387.33h140.1v79.34h-140.1z" fill="#ffd9d9"/><path d="M2620.4 70v79.33M2948.5 70v79.33M2620.4 149.33v79.34M2808.4 149.33v79.34M2948.5 149.33v79.34M2620.4 228.67V308M2808.4 228.67V308M2948.5 228.67V308M2620.4 308v79.33M2808.4 308v79.33M2948.5 308v79.33M2620.4 387.33v79.34M2808.4 387.33v79.34M2948.5 387.33v79.34M2620.4 70h328.1M2620.4 149.33h188M2808.4 149.33h140.1M2620.4 228.67h188M2808.4 228.67h140.1M2620.4 308h188M2808.4 308h140.1M2620.4 387.33h188M2620.4 466.67h188M2808.4 387.33h140.1M2808.4 466.67h140.1" stroke="#5e5e5e" fill="none"/><use xlink:href="#J" transform="matrix(1,0,0,1,2625.403303532571,74.99999999999994) translate(52.98148148148147 45.66666666666667)"/><use xlink:href="#q" transform="matrix(1,0,0,1,2625.403303532571,74.99999999999994) translate(177.27777777777777 45.66666666666667)"/><use xlink:href="#r" transform="matrix(1,0,0,1,2625.403303532571,154.33333333333312) translate(0 45.66666666666667)"/><use xlink:href="#s" transform="matrix(1,0,0,1,2625.403303532571,154.33333333333312) translate(133.33333333333334 45.66666666666667)"/><use xlink:href="#t" transform="matrix(1,0,0,1,2813.403303532571,154.33333333333312) translate(49.49739583333333 49.192708333333336)"/><use xlink:href="#r" transform="matrix(1,0,0,1,2625.403303532571,233.6666666666663) translate(0 45.66666666666667)"/><use xlink:href="#u" transform="matrix(1,0,0,1,2625.403303532571,233.6666666666663) translate(133.33333333333334 45.66666666666667)"/><use xlink:href="#K" transform="matrix(1,0,0,1,2813.403303532571,233.6666666666663) translate(49.49739583333333 49.192708333333336)"/><use xlink:href="#r" transform="matrix(1,0,0,1,2625.403303532571,312.99999999999943) translate(0 45.66666666666667)"/><use xlink:href="#v" transform="matrix(1,0,0,1,2625.403303532571,312.99999999999943) translate(133.33333333333334 45.66666666666667)"/><use xlink:href="#y" transform="matrix(1,0,0,1,2813.403303532571,312.99999999999943) translate(49.49739583333333 49.192708333333336)"/><use xlink:href="#r" transform="matrix(1,0,0,1,2625.403303532571,392.33333333333263) translate(0 45.66666666666667)"/><use xlink:href="#x" transform="matrix(1,0,0,1,2625.403303532571,392.33333333333263) translate(133.33333333333334 45.66666666666667)"/><use xlink:href="#y" transform="matrix(1,0,0,1,2813.403303532571,392.33333333333263) translate(49.49739583333333 49.192708333333336)"/><path d="M385.6-235a5 5 0 0 1 5-5H875a5 5 0 0 1 5 5v150a5 5 0 0 1-5 5H390.6a5 5 0 0 1-5-5z" stroke="#000" stroke-opacity="0" stroke-width="2" fill="#fff" fill-opacity="0"/><use xlink:href="#L" transform="matrix(1,0,0,1,390.6020699347537,-235) translate(32.27777777777777 94.70833333333334)"/><use xlink:href="#M" transform="matrix(1,0,0,1,390.6020699347537,-235) translate(393.46296296296293 94.70833333333334)"/><path d="M1192.8-235a5 5 0 0 1 5-5H1695a5 5 0 0 1 5 5v150a5 5 0 0 1-5 5h-497.2a5 5 0 0 1-5-5z" stroke="#000" stroke-opacity="0" stroke-width="2" fill="#fff" fill-opacity="0"/><use xlink:href="#N" transform="matrix(1,0,0,1,1197.8010349673766,-235) translate(38.77777777777777 94.70833333333334)"/><use xlink:href="#O" transform="matrix(1,0,0,1,1197.8010349673766,-235) translate(399.96296296296293 94.70833333333334)"/><path d="M2120-235a5 5 0 0 1 5-5h510a5 5 0 0 1 5 5v150a5 5 0 0 1-5 5h-510a5 5 0 0 1-5-5z" stroke="#000" stroke-opacity="0" stroke-width="2" fill="#fff" fill-opacity="0"/><use xlink:href="#P" transform="matrix(1,0,0,1,2125,-235) translate(45.27777777777777 94.70833333333334)"/><use xlink:href="#Q" transform="matrix(1,0,0,1,2125,-235) translate(406.46296296296293 94.70833333333334)"/><path d="M2800 1206.72a5 5 0 0 1 5-5h590a5 5 0 0 1 5 5v196.66a5 5 0 0 1-5 5h-590a5 5 0 0 1-5-5z" stroke="#000" stroke-opacity="0" stroke-width="2" fill="#fff" fill-opacity="0"/><use xlink:href="#B" transform="matrix(1,0,0,1,2805,1206.7162343686646) translate(91.04320987654404 67.55555555555527)"/><use xlink:href="#R" transform="matrix(1,0,0,1,2805,1206.7162343686646) translate(114.50000000000074 67.55555555555527)"/><use xlink:href="#S" transform="matrix(1,0,0,1,2805,1206.7162343686646) translate(311.3024691358024 67.55555555555527)"/><use xlink:href="#E" transform="matrix(1,0,0,1,2805,1206.7162343686646) translate(206.21604938271642 168.88888888888818)"/><use xlink:href="#F" transform="matrix(1,0,0,1,2805,1206.7162343686646) translate(295 270.2222222222211)"/><path d="M3182.9 290c0 44.18-35.82 80-80 80-44.2 0-80-35.82-80-80s35.8-80 80-80c44.18 0 80 35.82 80 80z" stroke="#000" stroke-width="6" fill="#fff"/><use xlink:href="#T" transform="matrix(1,0,0,1,3027.8972282790965,215) translate(39.449444444444445 102.04501333333334)"/><path d="M2800-235a5 5 0 0 1 5-5h450a5 5 0 0 1 5 5v150a5 5 0 0 1-5 5h-450a5 5 0 0 1-5-5z" stroke="#000" stroke-opacity="0" stroke-width="2" fill="#fff" fill-opacity="0"/><use xlink:href="#U" transform="matrix(1,0,0,1,2805,-235) translate(15.277777777777771 94.70833333333334)"/><use xlink:href="#V" transform="matrix(1,0,0,1,2805,-235) translate(376.46296296296293 94.70833333333334)"/><path d="M780 737.28a5 5 0 0 1 5-5h170a5 5 0 0 1 5 5V861.9a5 5 0 0 1-5 5H785a5 5 0 0 1-5-5z" stroke="#979ea8" stroke-width="2" fill="#fc9432"/><use xlink:href="#A" transform="matrix(1,0,0,1,785,737.27908843397) translate(38.7037037037037 76.77083333333334)"/><path d="M963.14 795.94l73.72-116.76" stroke="#3a414a" stroke-width="8" fill="none"/><path d="M966.55 797.97l-3.8 6-1.75-1.1v-8.4zM1039 672.25v8.4l-5.55-3.5 3.8-6z" stroke="#3a414a" stroke-width=".05" fill="#3a414a"/><path d="M963.83 802.4l72.34 72.23" stroke="#3a414a" stroke-width="8" fill="none"/><path d="M966.7 799.67l-5.6 5.63-.1-.1v-9.86l.68-.68zM1039 871.84v9.86l-.68.7-5.03-5.03 5.6-5.62z" stroke="#3a414a" stroke-width=".05" fill="#3a414a"/><path d="M962.23 803.4l75.54 234.17" stroke="#3a414a" stroke-width="8" fill="none"/><path d="M966.04 802.27L961 803.9v-7.46l2.86-.93zM1039 1044.53l-2.86.92-2.18-6.76 5.04-1.63z" stroke="#3a414a" stroke-width=".05" fill="#3a414a"/><path d="M961.75 803.52l76.5 403" stroke="#3a414a" stroke-width="8" fill="none"/><path d="M965.67 802.88l-4.67.88v-7.23l3.35-.63zM1039 1213.5l-3.35.64-1.32-6.98 4.67-.88z" stroke="#3a414a" stroke-width=".05" fill="#3a414a"/><path d="M720 70h328.1v79.33H720z" fill="#ffdda6"/><path d="M720 149.33h188v79.34H720zM908 149.33h140.1v79.34H908z" fill="#e3fae3"/><path d="M720 228.67h188V308H720zM908 228.67h140.1V308H908z" fill="#ffd9d9"/><path d="M720 308h188v79.33H720zM908 308h140.1v79.33H908z" fill="#e3fae3"/><path d="M720 387.33h188v79.34H720zM908 387.33h140.1v79.34H908z" fill="#ffd9d9"/><path d="M720 70v79.33M1048.1 70v79.33M720 149.33v79.34M908 149.33v79.34M1048.1 149.33v79.34M720 228.67V308M908 228.67V308M1048.1 228.67V308M720 308v79.33M908 308v79.33M1048.1 308v79.33M720 387.33v79.34M908 387.33v79.34M1048.1 387.33v79.34M720 70h328.1M720 149.33h188M908 149.33h140.1M720 228.67h188M908 228.67h140.1M720 308h188M908 308h140.1M720 387.33h188M720 466.67h188M908 387.33h140.1M908 466.67h140.1" stroke="#5e5e5e" fill="none"/><g><use xlink:href="#J" transform="matrix(1,0,0,1,725,74.99999999999977) translate(52.98148148148147 45.66666666666667)"/><use xlink:href="#q" transform="matrix(1,0,0,1,725,74.99999999999977) translate(177.27777777777777 45.66666666666667)"/></g><g><use xlink:href="#r" transform="matrix(1,0,0,1,725,154.33333333333294) translate(0 45.66666666666667)"/><use xlink:href="#s" transform="matrix(1,0,0,1,725,154.33333333333294) translate(133.33333333333334 45.66666666666667)"/></g><g><use xlink:href="#t" transform="matrix(1,0,0,1,913,154.33333333333294) translate(49.49739583333333 49.192708333333336)"/></g><g><use xlink:href="#r" transform="matrix(1,0,0,1,725,233.66666666666612) translate(0 45.66666666666667)"/><use xlink:href="#u" transform="matrix(1,0,0,1,725,233.66666666666612) translate(133.33333333333334 45.66666666666667)"/></g><g><use xlink:href="#t" transform="matrix(1,0,0,1,913,233.66666666666612) translate(49.49739583333333 49.192708333333336)"/></g><g><use xlink:href="#r" transform="matrix(1,0,0,1,725,312.9999999999993) translate(0 45.66666666666667)"/><use xlink:href="#v" transform="matrix(1,0,0,1,725,312.9999999999993) translate(133.33333333333334 45.66666666666667)"/></g><g><use xlink:href="#w" transform="matrix(1,0,0,1,913,312.9999999999993) translate(49.49739583333333 49.192708333333336)"/></g><g><use xlink:href="#r" transform="matrix(1,0,0,1,725,392.33333333333246) translate(0 45.66666666666667)"/><use xlink:href="#x" transform="matrix(1,0,0,1,725,392.33333333333246) translate(133.33333333333334 45.66666666666667)"/></g><g><use xlink:href="#y" transform="matrix(1,0,0,1,913,392.33333333333246) translate(49.49739583333333 49.192708333333336)"/></g><path d="M440 676.35a5 5 0 0 1 5-5h270a5 5 0 0 1 5 5v246.48a5 5 0 0 1-5 5H445a5 5 0 0 1-5-5z" stroke="#6db1ff" stroke-width="9" fill-opacity="0"/><path d="M469.14 724.6a5 5 0 0 1 5-5h213.14a5 5 0 0 1 5 5v150a5 5 0 0 1-5 5H474.14a5 5 0 0 1-5-5z" stroke="#979ea8" stroke-width="2" fill="#fc9432"/><g><use xlink:href="#W" transform="matrix(1,0,0,1,474.1364043432004,724.5888212090144) translate(35.888888888888886 92.125)"/></g><path d="M660.7 290c0 44.18-35.8 80-80 80-44.17 0-80-35.82-80-80s35.83-80 80-80c44.2 0 80 35.82 80 80z" stroke="#000" stroke-width="6" fill="#fff"/><g><use xlink:href="#X" transform="matrix(1,0,0,1,505.7100130264231,215) translate(33.52351851851851 100.64533333333334)"/></g><path d="M1951.35 1355.5c0 2.48-2 4.5-4.5 4.5-2.48 0-4.5-2.02-4.5-4.5s2.02-4.5 4.5-4.5c2.5 0 4.5 2.02 4.5 4.5zm0-17.9c0 2.5-2 4.5-4.5 4.5-2.48 0-4.5-2-4.5-4.5 0-2.47 2.02-4.5 4.5-4.5 2.5 0 4.5 2.03 4.5 4.5zm0-17.88c0 2.5-2 4.5-4.5 4.5-2.48 0-4.5-2-4.5-4.5 0-2.48 2.02-4.5 4.5-4.5 2.5 0 4.5 2.02 4.5 4.5zm0-17.88c0 2.48-2 4.5-4.5 4.5-2.48 0-4.5-2.02-4.5-4.5 0-2.5 2.02-4.5 4.5-4.5 2.5 0 4.5 2 4.5 4.5zm0-17.9c0 2.5-2 4.5-4.5 4.5-2.48 0-4.5-2-4.5-4.5 0-2.48 2.02-4.5 4.5-4.5 2.5 0 4.5 2.02 4.5 4.5zm0-17.88c0 2.5-2 4.5-4.5 4.5-2.48 0-4.5-2-4.5-4.5 0-2.48 2.02-4.5 4.5-4.5 2.5 0 4.5 2.02 4.5 4.5zm0-17.88c0 2.48-2 4.5-4.5 4.5-2.48 0-4.5-2.02-4.5-4.5 0-2.5 2.02-4.5 4.5-4.5 2.5 0 4.5 2 4.5 4.5zm0-17.9c0 2.5-2 4.5-4.5 4.5-2.48 0-4.5-2-4.5-4.5 0-2.48 2.02-4.5 4.5-4.5 2.5 0 4.5 2.02 4.5 4.5zm0-17.88c0 2.48-2 4.5-4.5 4.5-2.48 0-4.5-2.02-4.5-4.5 0-2.5 2.02-4.5 4.5-4.5 2.5 0 4.5 2 4.5 4.5zm0-17.9c0 2.5-2 4.5-4.5 4.5-2.48 0-4.5-2-4.5-4.5 0-2.47 2.02-4.5 4.5-4.5 2.5 0 4.5 2.03 4.5 4.5zm0-17.88c0 2.5-2 4.5-4.5 4.5-2.48 0-4.5-2-4.5-4.5 0-2.48 2.02-4.5 4.5-4.5 2.5 0 4.5 2.02 4.5 4.5zm0-17.88c0 2.48-2 4.5-4.5 4.5-2.48 0-4.5-2.02-4.5-4.5 0-2.5 2.02-4.5 4.5-4.5 2.5 0 4.5 2 4.5 4.5zm0-17.9c0 2.5-2 4.5-4.5 4.5-2.48 0-4.5-2-4.5-4.5 0-2.47 2.02-4.5 4.5-4.5 2.5 0 4.5 2.03 4.5 4.5zm0-17.88c0 2.5-2 4.5-4.5 4.5-2.48 0-4.5-2-4.5-4.5 0-2.48 2.02-4.5 4.5-4.5 2.5 0 4.5 2.02 4.5 4.5zm0-17.88c0 2.48-2 4.5-4.5 4.5-2.48 0-4.5-2.02-4.5-4.5 0-2.5 2.02-4.5 4.5-4.5 2.5 0 4.5 2 4.5 4.5zm0-17.9c0 2.5-2 4.5-4.5 4.5-2.48 0-4.5-2-4.5-4.5 0-2.48 2.02-4.5 4.5-4.5 2.5 0 4.5 2.02 4.5 4.5zm0-17.88c0 2.5-2 4.5-4.5 4.5-2.48 0-4.5-2-4.5-4.5 0-2.48 2.02-4.5 4.5-4.5 2.5 0 4.5 2.02 4.5 4.5zm0-17.9c0 2.5-2 4.5-4.5 4.5-2.48 0-4.5-2-4.5-4.5 0-2.47 2.02-4.5 4.5-4.5 2.5 0 4.5 2.03 4.5 4.5zm0-17.88c0 2.5-2 4.5-4.5 4.5-2.48 0-4.5-2-4.5-4.5 0-2.48 2.02-4.5 4.5-4.5 2.5 0 4.5 2.02 4.5 4.5zm0-17.88c0 2.48-2 4.5-4.5 4.5-2.48 0-4.5-2.02-4.5-4.5 0-2.5 2.02-4.5 4.5-4.5 2.5 0 4.5 2 4.5 4.5zm0-17.9c0 2.5-2 4.5-4.5 4.5-2.48 0-4.5-2-4.5-4.5 0-2.48 2.02-4.5 4.5-4.5 2.5 0 4.5 2.02 4.5 4.5zm0-17.88c0 2.5-2 4.5-4.5 4.5-2.48 0-4.5-2-4.5-4.5 0-2.48 2.02-4.5 4.5-4.5 2.5 0 4.5 2.02 4.5 4.5zm0-17.88c0 2.48-2 4.5-4.5 4.5-2.48 0-4.5-2.02-4.5-4.5 0-2.5 2.02-4.5 4.5-4.5 2.5 0 4.5 2 4.5 4.5zm0-17.9c0 2.5-2 4.5-4.5 4.5-2.48 0-4.5-2-4.5-4.5 0-2.48 2.02-4.5 4.5-4.5 2.5 0 4.5 2.02 4.5 4.5zm0-17.88c0 2.48-2 4.5-4.5 4.5-2.48 0-4.5-2.02-4.5-4.5 0-2.5 2.02-4.5 4.5-4.5 2.5 0 4.5 2 4.5 4.5zm0-17.9c0 2.5-2 4.5-4.5 4.5-2.48 0-4.5-2-4.5-4.5 0-2.47 2.02-4.5 4.5-4.5 2.5 0 4.5 2.03 4.5 4.5zm0-17.88c0 2.5-2 4.5-4.5 4.5-2.48 0-4.5-2-4.5-4.5 0-2.48 2.02-4.5 4.5-4.5 2.5 0 4.5 2.02 4.5 4.5zm0-17.88c0 2.48-2 4.5-4.5 4.5-2.48 0-4.5-2.02-4.5-4.5 0-2.5 2.02-4.5 4.5-4.5 2.5 0 4.5 2 4.5 4.5zm0-17.9c0 2.5-2 4.5-4.5 4.5-2.48 0-4.5-2-4.5-4.5 0-2.48 2.02-4.5 4.5-4.5 2.5 0 4.5 2.02 4.5 4.5zm0-17.88c0 2.5-2 4.5-4.5 4.5-2.48 0-4.5-2-4.5-4.5 0-2.48 2.02-4.5 4.5-4.5 2.5 0 4.5 2.02 4.5 4.5zm0-17.88c0 2.48-2 4.5-4.5 4.5-2.48 0-4.5-2.02-4.5-4.5 0-2.5 2.02-4.5 4.5-4.5 2.5 0 4.5 2 4.5 4.5zm0-17.9c0 2.5-2 4.5-4.5 4.5-2.48 0-4.5-2-4.5-4.5 0-2.48 2.02-4.5 4.5-4.5 2.5 0 4.5 2.02 4.5 4.5zm0-17.88c0 2.5-2 4.5-4.5 4.5-2.48 0-4.5-2-4.5-4.5s2.02-4.5 4.5-4.5c2.5 0 4.5 2 4.5 4.5zm0-17.9c0 2.5-2 4.5-4.5 4.5-2.48 0-4.5-2-4.5-4.5 0-2.47 2.02-4.5 4.5-4.5 2.5 0 4.5 2.03 4.5 4.5zm0-17.88c0 2.5-2 4.5-4.5 4.5-2.48 0-4.5-2-4.5-4.5 0-2.48 2.02-4.5 4.5-4.5 2.5 0 4.5 2.02 4.5 4.5zm0-17.88c0 2.48-2 4.5-4.5 4.5-2.48 0-4.5-2.02-4.5-4.5 0-2.5 2.02-4.5 4.5-4.5 2.5 0 4.5 2 4.5 4.5zm0-17.9c0 2.5-2 4.5-4.5 4.5-2.48 0-4.5-2-4.5-4.5 0-2.47 2.02-4.5 4.5-4.5 2.5 0 4.5 2.03 4.5 4.5zm0-17.88c0 2.5-2 4.5-4.5 4.5-2.48 0-4.5-2-4.5-4.5 0-2.48 2.02-4.5 4.5-4.5 2.5 0 4.5 2.02 4.5 4.5zm0-17.88c0 2.48-2 4.5-4.5 4.5-2.48 0-4.5-2.02-4.5-4.5 0-2.5 2.02-4.5 4.5-4.5 2.5 0 4.5 2 4.5 4.5zm0-17.9c0 2.5-2 4.5-4.5 4.5-2.48 0-4.5-2-4.5-4.5 0-2.48 2.02-4.5 4.5-4.5 2.5 0 4.5 2.02 4.5 4.5zm0-17.88c0 2.5-2 4.5-4.5 4.5-2.48 0-4.5-2-4.5-4.5s2.02-4.5 4.5-4.5c2.5 0 4.5 2 4.5 4.5zm0-17.9c0 2.5-2 4.5-4.5 4.5-2.48 0-4.5-2-4.5-4.5 0-2.47 2.02-4.5 4.5-4.5 2.5 0 4.5 2.03 4.5 4.5zm0-17.88c0 2.5-2 4.5-4.5 4.5-2.48 0-4.5-2-4.5-4.5 0-2.48 2.02-4.5 4.5-4.5 2.5 0 4.5 2.02 4.5 4.5zm0-17.88c0 2.48-2 4.5-4.5 4.5-2.48 0-4.5-2.02-4.5-4.5 0-2.5 2.02-4.5 4.5-4.5 2.5 0 4.5 2 4.5 4.5zm0-17.9c0 2.5-2 4.5-4.5 4.5-2.48 0-4.5-2-4.5-4.5 0-2.48 2.02-4.5 4.5-4.5 2.5 0 4.5 2.02 4.5 4.5zm0-17.88c0 2.5-2 4.5-4.5 4.5-2.48 0-4.5-2-4.5-4.5 0-2.48 2.02-4.5 4.5-4.5 2.5 0 4.5 2.02 4.5 4.5zm0-17.88c0 2.48-2 4.5-4.5 4.5-2.48 0-4.5-2.02-4.5-4.5 0-2.5 2.02-4.5 4.5-4.5 2.5 0 4.5 2 4.5 4.5zm0-17.9c0 2.5-2 4.5-4.5 4.5-2.48 0-4.5-2-4.5-4.5 0-2.48 2.02-4.5 4.5-4.5 2.5 0 4.5 2.02 4.5 4.5zm0-17.88c0 2.5-2 4.5-4.5 4.5-2.48 0-4.5-2-4.5-4.5 0-2.48 2.02-4.5 4.5-4.5 2.5 0 4.5 2.02 4.5 4.5zm0-17.9c0 2.5-2 4.5-4.5 4.5-2.48 0-4.5-2-4.5-4.5 0-2.47 2.02-4.5 4.5-4.5 2.5 0 4.5 2.03 4.5 4.5zm0-17.88c0 2.5-2 4.5-4.5 4.5-2.48 0-4.5-2-4.5-4.5 0-2.48 2.02-4.5 4.5-4.5 2.5 0 4.5 2.02 4.5 4.5zm0-17.88c0 2.48-2 4.5-4.5 4.5-2.48 0-4.5-2.02-4.5-4.5 0-2.5 2.02-4.5 4.5-4.5 2.5 0 4.5 2 4.5 4.5zm0-17.9c0 2.5-2 4.5-4.5 4.5-2.48 0-4.5-2-4.5-4.5 0-2.47 2.02-4.5 4.5-4.5 2.5 0 4.5 2.03 4.5 4.5zm0-17.88c0 2.5-2 4.5-4.5 4.5-2.48 0-4.5-2-4.5-4.5 0-2.48 2.02-4.5 4.5-4.5 2.5 0 4.5 2.02 4.5 4.5zm0-17.88c0 2.48-2 4.5-4.5 4.5-2.48 0-4.5-2.02-4.5-4.5 0-2.5 2.02-4.5 4.5-4.5 2.5 0 4.5 2 4.5 4.5zm0-17.9c0 2.5-2 4.5-4.5 4.5-2.48 0-4.5-2-4.5-4.5 0-2.48 2.02-4.5 4.5-4.5 2.5 0 4.5 2.02 4.5 4.5zm0-17.88c0 2.5-2 4.5-4.5 4.5-2.48 0-4.5-2-4.5-4.5s2.02-4.5 4.5-4.5c2.5 0 4.5 2 4.5 4.5zm0-17.9c0 2.5-2 4.5-4.5 4.5-2.48 0-4.5-2-4.5-4.5 0-2.47 2.02-4.5 4.5-4.5 2.5 0 4.5 2.03 4.5 4.5zm0-17.88c0 2.5-2 4.5-4.5 4.5-2.48 0-4.5-2-4.5-4.5 0-2.48 2.02-4.5 4.5-4.5 2.5 0 4.5 2.02 4.5 4.5zm0-17.88c0 2.48-2 4.5-4.5 4.5-2.48 0-4.5-2.02-4.5-4.5 0-2.5 2.02-4.5 4.5-4.5 2.5 0 4.5 2 4.5 4.5zm0-17.9c0 2.5-2 4.5-4.5 4.5-2.48 0-4.5-2-4.5-4.5 0-2.48 2.02-4.5 4.5-4.5 2.5 0 4.5 2.02 4.5 4.5zm0-17.88c0 2.5-2 4.5-4.5 4.5-2.48 0-4.5-2-4.5-4.5 0-2.48 2.02-4.5 4.5-4.5 2.5 0 4.5 2.02 4.5 4.5zm0-17.9c0 2.5-2 4.5-4.5 4.5-2.48 0-4.5-2-4.5-4.5 0-2.47 2.02-4.5 4.5-4.5 2.5 0 4.5 2.03 4.5 4.5zm0-17.87c0 2.47-2 4.5-4.5 4.5-2.48 0-4.5-2.03-4.5-4.5 0-2.5 2.02-4.5 4.5-4.5 2.5 0 4.5 2 4.5 4.5zm0-17.9c0 2.5-2 4.5-4.5 4.5-2.48 0-4.5-2-4.5-4.5 0-2.48 2.02-4.5 4.5-4.5 2.5 0 4.5 2.02 4.5 4.5zm0-17.9c0 2.5-2 4.5-4.5 4.5-2.48 0-4.5-2-4.5-4.5 0-2.47 2.02-4.5 4.5-4.5 2.5 0 4.5 2.03 4.5 4.5zm0-17.88c0 2.5-2 4.5-4.5 4.5-2.48 0-4.5-2-4.5-4.5 0-2.48 2.02-4.5 4.5-4.5 2.5 0 4.5 2.02 4.5 4.5zm0-17.88c0 2.48-2 4.5-4.5 4.5-2.48 0-4.5-2.02-4.5-4.5 0-2.5 2.02-4.5 4.5-4.5 2.5 0 4.5 2 4.5 4.5zm0-17.9c0 2.5-2 4.5-4.5 4.5-2.48 0-4.5-2-4.5-4.5 0-2.47 2.02-4.5 4.5-4.5 2.5 0 4.5 2.03 4.5 4.5zm0-17.88c0 2.5-2 4.5-4.5 4.5-2.48 0-4.5-2-4.5-4.5 0-2.48 2.02-4.5 4.5-4.5 2.5 0 4.5 2.02 4.5 4.5zm0-17.9c0 2.5-2 4.52-4.5 4.52-2.48 0-4.5-2.02-4.5-4.5 0-2.5 2.02-4.5 4.5-4.5 2.5 0 4.5 2 4.5 4.5zm0-17.87c0 2.47-2 4.5-4.5 4.5-2.48 0-4.5-2.03-4.5-4.5 0-2.5 2.02-4.5 4.5-4.5 2.5 0 4.5 2 4.5 4.5zm0-17.9c0 2.48-2 4.5-4.5 4.5-2.48 0-4.5-2.02-4.5-4.5s2.02-4.5 4.5-4.5c2.5 0 4.5 2 4.5 4.5zm0-17.9c0 2.5-2 4.5-4.5 4.5-2.48 0-4.5-2-4.5-4.5 0-2.47 2.02-4.5 4.5-4.5 2.5 0 4.5 2.03 4.5 4.5zm0-17.88c0 2.5-2 4.5-4.5 4.5-2.48 0-4.5-2-4.5-4.5 0-2.48 2.02-4.5 4.5-4.5 2.5 0 4.5 2.02 4.5 4.5zm0-17.88c0 2.48-2 4.5-4.5 4.5-2.48 0-4.5-2.02-4.5-4.5 0-2.5 2.02-4.5 4.5-4.5 2.5 0 4.5 2 4.5 4.5zm0-17.9c0 2.5-2 4.5-4.5 4.5-2.48 0-4.5-2-4.5-4.5 0-2.47 2.02-4.5 4.5-4.5 2.5 0 4.5 2.03 4.5 4.5zm0-17.88c0 2.5-2 4.5-4.5 4.5-2.48 0-4.5-2-4.5-4.5 0-2.48 2.02-4.5 4.5-4.5 2.5 0 4.5 2.02 4.5 4.5zm0-17.9c0 2.5-2 4.52-4.5 4.52-2.48 0-4.5-2.02-4.5-4.5 0-2.5 2.02-4.5 4.5-4.5 2.5 0 4.5 2 4.5 4.5zm0-17.87c0 2.47-2 4.5-4.5 4.5-2.48 0-4.5-2.03-4.5-4.5 0-2.5 2.02-4.5 4.5-4.5 2.5 0 4.5 2 4.5 4.5z" fill="#00c2a8"/><path d="M1946.85 1355.38v4.62M1946.85-75.39v-4.6" stroke="#00c2a8" stroke-width="9" fill="none"/><g><path d="M985.15 1087a6 6 0 0 1 8.48 0l55.67 55.67a6 6 0 0 1 0 8.48l-.9.9a6 6 0 0 1-8.5 0l-55.66-55.66a6 6 0 0 1 0-8.5z" stroke="#000" stroke-opacity="0" fill="#cc4e00"/></g><g><path d="M1049.3 1087.9a6 6 0 0 1 0 8.5l-55.67 55.66a6 6 0 0 1-8.48 0l-.9-.9a6 6 0 0 1 0-8.5l55.66-55.66a6 6 0 0 1 8.5 0z" stroke="#000" stroke-opacity="0" fill="#cc4e00"/></g><path d="M980-95a5 5 0 0 1 5-5h926.9a5 5 0 0 1 5 5V55a5 5 0 0 1-5 5H985a5 5 0 0 1-5-5z" stroke="#000" stroke-opacity="0" stroke-width="2" fill="#fff" fill-opacity="0"/><g><use xlink:href="#Y" transform="matrix(1,0,0,1,985,-95) translate(187.3271604938277 94.54861111111097)"/><use xlink:href="#n" transform="matrix(1,0,0,1,985,-95) translate(463.3765432098765 94.54861111111097)"/></g><defs><path d="M233-177c-1 41-23 64-60 70L243 0h-38l-65-103H63V0H30v-248c88 3 205-21 203 71zM63-129c60-2 137 13 137-47 0-61-80-42-137-45v92" id="Z"/><path d="M100-194c63 0 86 42 84 106H49c0 40 14 67 53 68 26 1 43-12 49-29l28 8c-11 28-37 45-77 45C44 4 14-33 15-96c1-61 26-98 85-98zm52 81c6-60-76-77-97-28-3 7-6 17-6 28h103" id="aa"/><path d="M141-36C126-15 110 5 73 4 37 3 15-17 15-53c-1-64 63-63 125-63 3-35-9-54-41-54-24 1-41 7-42 31l-33-3c5-37 33-52 76-52 45 0 72 20 72 64v82c-1 20 7 32 28 27v20c-31 9-61-2-59-35zM48-53c0 20 12 33 32 33 41-3 63-29 60-74-43 2-92-5-92 41" id="ab"/><path d="M85-194c31 0 48 13 60 33l-1-100h32l1 261h-30c-2-10 0-23-3-31C134-8 116 4 85 4 32 4 16-35 15-94c0-66 23-100 70-100zm9 24c-40 0-46 34-46 75 0 40 6 74 45 74 42 0 51-32 51-76 0-42-9-74-50-73" id="ac"/><g id="a"><use transform="matrix(0.12962962962962954,0,0,0.12962962962962954,0,0)" xlink:href="#Z"/><use transform="matrix(0.12962962962962954,0,0,0.12962962962962954,33.57407407407405,0)" xlink:href="#aa"/><use transform="matrix(0.12962962962962954,0,0,0.12962962962962954,59.49999999999996,0)" xlink:href="#ab"/><use transform="matrix(0.12962962962962954,0,0,0.12962962962962954,85.42592592592587,0)" xlink:href="#ac"/></g><g id="b"><use transform="matrix(0.12345679012345674,0,0,0.12345679012345674,0,0)" xlink:href="#Z"/><use transform="matrix(0.12345679012345674,0,0,0.12345679012345674,31.975308641975296,0)" xlink:href="#aa"/><use transform="matrix(0.12345679012345674,0,0,0.12345679012345674,56.66666666666664,0)" xlink:href="#ab"/><use transform="matrix(0.12345679012345674,0,0,0.12345679012345674,81.358024691358,0)" xlink:href="#ac"/></g><path d="M212-179c-10-28-35-45-73-45-59 0-87 40-87 99 0 60 29 101 89 101 43 0 62-24 78-52l27 14C228-24 195 4 139 4 59 4 22-46 18-125c-6-104 99-153 187-111 19 9 31 26 39 46" id="ad"/><path d="M185-189c-5-48-123-54-124 2 14 75 158 14 163 119 3 78-121 87-175 55-17-10-28-26-33-46l33-7c5 56 141 63 141-1 0-78-155-14-162-118-5-82 145-84 179-34 5 7 8 16 11 25" id="ae"/><g id="c"><use transform="matrix(0.22222222222222188,0,0,0.22222222222222188,0,0)" xlink:href="#ad"/><use transform="matrix(0.22222222222222188,0,0,0.22222222222222188,57.555555555555465,0)" xlink:href="#ae"/><use transform="matrix(0.22222222222222188,0,0,0.22222222222222188,110.88888888888872,0)" xlink:href="#Z"/></g><path d="M155-56V0h-30v-56H8v-25l114-167h33v167h35v25h-35zm-30-156c-27 46-58 90-88 131h88v-131" id="af"/><path d="M33-154v-36h34v36H33zM33 0v-36h34V0H33" id="ag"/><path d="M27 0v-27h64v-190l-56 39v-29l58-41h29v221h61V0H27" id="ah"/><g id="d"><use transform="matrix(0.1851851851851852,0,0,0.1851851851851852,0,0)" xlink:href="#af"/><use transform="matrix(0.1851851851851852,0,0,0.1851851851851852,37.03703703703704,0)" xlink:href="#ag"/><use transform="matrix(0.1851851851851852,0,0,0.1851851851851852,55.555555555555564,0)" xlink:href="#ah"/></g><path d="M63-220v92h138v28H63V0H30v-248h175v28H63" id="ai"/><path d="M24-231v-30h32v30H24zM24 0v-190h32V0H24" id="aj"/><path d="M24 0v-261h32V0H24" id="ak"/><path d="M59-47c-2 24 18 29 38 22v24C64 9 27 4 27-40v-127H5v-23h24l9-43h21v43h35v23H59v120" id="al"/><path d="M114-163C36-179 61-72 57 0H25l-1-190h30c1 12-1 29 2 39 6-27 23-49 58-41v29" id="am"/><g id="e"><use transform="matrix(0.14814814814814817,0,0,0.14814814814814817,0,0)" xlink:href="#ai"/><use transform="matrix(0.14814814814814817,0,0,0.14814814814814817,32.44444444444445,0)" xlink:href="#aj"/><use transform="matrix(0.14814814814814817,0,0,0.14814814814814817,44.14814814814815,0)" xlink:href="#ak"/><use transform="matrix(0.14814814814814817,0,0,0.14814814814814817,55.85185185185186,0)" xlink:href="#al"/><use transform="matrix(0.14814814814814817,0,0,0.14814814814814817,70.66666666666669,0)" xlink:href="#aa"/><use transform="matrix(0.14814814814814817,0,0,0.14814814814814817,100.29629629629633,0)" xlink:href="#am"/></g><path fill="#008a0e" d="M212-179c-10-28-35-45-73-45-59 0-87 40-87 99 0 60 29 101 89 101 43 0 62-24 78-52l27 14C228-24 195 4 139 4 59 4 22-46 18-125c-6-104 99-153 187-111 19 9 31 26 39 46" id="an"/><path fill="#008a0e" d="M100-194c62-1 85 37 85 99 1 63-27 99-86 99S16-35 15-95c0-66 28-99 85-99zM99-20c44 1 53-31 53-75 0-43-8-75-51-75s-53 32-53 75 10 74 51 75" id="ao"/><path fill="#008a0e" d="M117-194c89-4 53 116 60 194h-32v-121c0-31-8-49-39-48C34-167 62-67 57 0H25l-1-190h30c1 10-1 24 2 32 11-22 29-35 61-36" id="ap"/><path fill="#008a0e" d="M59-47c-2 24 18 29 38 22v24C64 9 27 4 27-40v-127H5v-23h24l9-43h21v43h35v23H59v120" id="aq"/><path fill="#008a0e" d="M114-163C36-179 61-72 57 0H25l-1-190h30c1 12-1 29 2 39 6-27 23-49 58-41v29" id="ar"/><path fill="#008a0e" d="M24 0v-261h32V0H24" id="as"/><g id="f"><use transform="matrix(0.14814814814814742,0,0,0.14814814814814742,0,0)" xlink:href="#an"/><use transform="matrix(0.14814814814814742,0,0,0.14814814814814742,38.37037037037018,0)" xlink:href="#ao"/><use transform="matrix(0.14814814814814742,0,0,0.14814814814814742,67.99999999999966,0)" xlink:href="#ap"/><use transform="matrix(0.14814814814814742,0,0,0.14814814814814742,97.62962962962914,0)" xlink:href="#aq"/><use transform="matrix(0.14814814814814742,0,0,0.14814814814814742,112.44444444444387,0)" xlink:href="#ar"/><use transform="matrix(0.14814814814814742,0,0,0.14814814814814742,130.07407407407342,0)" xlink:href="#ao"/><use transform="matrix(0.14814814814814742,0,0,0.14814814814814742,159.70370370370287,0)" xlink:href="#as"/></g><path fill="#19967d" d="M1121-976c0 225-142 341-344 379L1177 0H957L591-575H353V0H162v-1349h482c281 3 477 100 477 373zM633-726c181-1 296-73 296-247 0-149-101-223-304-223H353v470h280" id="at"/><path fill="#19967d" d="M162 0v-1349h919v156H353v422h668v154H353v461h769V0H162" id="au"/><path fill="#19967d" d="M1034 0L896-382H333L196 0H0l510-1349h217L1228 0h-194zM847-531c-77-225-157-447-231-674-69 231-154 451-232 674h463" id="av"/><path fill="#19967d" d="M473-1349c438-1 655 221 652 661C1122-268 945-8 532 0H162v-1349h311zm42 1193c308-4 416-205 418-532 2-330-131-509-459-505H353v1037h162" id="aw"/><g id="g"><use transform="matrix(0.026041666666666668,0,0,0.026041666666666668,0,0)" xlink:href="#at"/><use transform="matrix(0.026041666666666668,0,0,0.026041666666666668,32.005208333333336,0)" xlink:href="#au"/><use transform="matrix(0.026041666666666668,0,0,0.026041666666666668,64.01041666666667,0)" xlink:href="#av"/><use transform="matrix(0.026041666666666668,0,0,0.026041666666666668,96.015625,0)" xlink:href="#aw"/></g><path fill="#0c7cba" d="M1048-32c-2 300-135 456-433 456-222-1-358-88-400-267l184-25c22 99 100 157 222 156 184-2 248-125 248-315 0-64 3-133-2-194C807-100 706-13 524-12c-306 0-381-228-381-537 0-318 85-550 400-550 164 0 271 83 325 202h3c1-60 3-134 12-185h171c-13 339-4 702-6 1050zM585-145c210-8 284-178 284-406 0-192-52-331-177-392-33-16-69-22-104-22-223 2-259 184-259 414 0 229 31 415 256 406" id="ax"/><path fill="#0c7cba" d="M839-1102c70 0 148 7 206 17v167c-112-18-268-36-363 15-129 69-208 203-208 395V0H294c-10-367 32-789-52-1082h171c21 75 41 161 48 250h5c67-152 152-270 373-270" id="ay"/><path fill="#0c7cba" d="M1000-272c3 95 12 159 101 161 21 0 41-3 59-7V-6c-44 10-86 16-139 16-141 2-191-84-197-217h-6C748-76 648 20 446 20c-207 0-318-120-318-322 0-266 194-348 454-354l236-4c12-191-40-305-222-305-140 0-220 47-232 172l-188-17c33-204 181-292 423-292 255 0 401 118 401 364v466zm-683-27c0 109 63 184 175 182 166-3 259-96 306-217 24-65 20-120 20-200-232 7-501-28-501 235" id="az"/><path fill="#0c7cba" d="M698-1104c312 3 392 244 392 558 0 315-82 566-392 566-169 0-277-65-331-184h-5c8 188 2 394 4 589H185V-858c0-76-1-156-6-224h175c6 52 9 120 10 178h4c58-122 150-202 330-200zm-49 991c225 0 255-203 255-433 0-225-32-419-253-419-236 0-285 192-285 441 0 237 53 411 283 411" id="aA"/><path fill="#0c7cba" d="M648-963c-190 6-283 138-283 336V0H185v-1484h181c-2 197 6 404-9 587h3c62-120 159-205 339-205 242 0 351 135 350 381V0H868v-695c1-168-57-273-220-268" id="aB"/><path fill="#0c7cba" d="M650-1214c-281 0-336 244-336 533 0 295 60 546 347 546 188 0 263-142 322-282l159 65C1058-155 935 20 659 20c-401 0-546-295-546-701 0-407 135-689 536-689 264 0 391 146 466 335l-168 65c-47-129-127-244-297-244" id="aC"/><path fill="#0c7cba" d="M614-1226c-167 1-283 53-283 213 0 183 186 193 334 234 230 63 463 120 463 409 0 286-219 387-518 390C309 23 131-98 79-338l185-37c34 165 149 248 351 246 184-2 324-58 324-238 0-203-207-221-372-266-210-57-422-111-422-377 0-267 201-356 470-360 279-5 430 101 480 324l-188 33c-28-141-121-215-293-213" id="aD"/><path fill="#0c7cba" d="M1121-976c0 225-142 341-344 379L1177 0H957L591-575H353V0H162v-1349h482c281 3 477 100 477 373zM633-726c181-1 296-73 296-247 0-149-101-223-304-223H353v470h280" id="aE"/><path fill="#0c7cba" d="M334-464v-160h560v160H334" id="aF"/><path fill="#0c7cba" d="M116-154v-153l858-367-858-366v-154l995 418v205" id="aG"/><path d="M745-142h380V0H143v-142h422v-798H246v-142h499v940zM545-1292v-192h200v192H545" id="aH"/><path d="M706-1102c241 0 344 136 343 381V0H868v-695c1-168-57-273-220-268-190 6-283 138-283 336V0H185c-3-360 6-732-6-1082h170c4 54 7 126 8 185h3c63-121 164-204 346-205" id="aI"/><path d="M473-1349c438-1 655 221 652 661C1122-268 945-8 532 0H162v-1349h311zm42 1193c308-4 416-205 418-532 2-330-131-509-459-505H353v1037h162" id="aJ"/><path d="M617-1102c355 0 481 238 477 599H322c5 222 84 388 301 388 144 0 244-59 284-166l158 45C1002-72 854 20 623 20c-342 0-490-220-490-568 0-346 151-554 484-554zm291 461c-18-192-90-328-289-328-194 0-287 128-295 328h584" id="aK"/><path d="M1048-32c-2 300-135 456-433 456-222-1-358-88-400-267l184-25c22 99 100 157 222 156 184-2 248-125 248-315 0-64 3-133-2-194C807-100 706-13 524-12c-306 0-381-228-381-537 0-318 85-550 400-550 164 0 271 83 325 202h3c1-60 3-134 12-185h171c-13 339-4 702-6 1050zM585-145c210-8 284-178 284-406 0-192-52-331-177-392-33-16-69-22-104-22-223 2-259 184-259 414 0 229 31 415 256 406" id="aL"/><path d="M839-1102c70 0 148 7 206 17v167c-112-18-268-36-363 15-129 69-208 203-208 395V0H294c-10-367 32-789-52-1082h171c21 75 41 161 48 250h5c67-152 152-270 373-270" id="aM"/><path d="M410 425v-1909h547v139H590V286h367v139H410" id="aN"/><path fill="#0c7cba" d="M715 0H502L69-1082h202c94 253 197 500 285 758 19 57 36 126 52 183 96-335 234-626 350-941h201" id="aO"/><path d="M270 425V286h367v-1631H270v-139h547V425H270" id="aP"/><g id="h"><use transform="matrix(0.026041666666666668,0,0,0.026041666666666668,0,0)" xlink:href="#ax"/><use transform="matrix(0.026041666666666668,0,0,0.026041666666666668,32.005208333333336,0)" xlink:href="#ay"/><use transform="matrix(0.026041666666666668,0,0,0.026041666666666668,64.01041666666667,0)" xlink:href="#az"/><use transform="matrix(0.026041666666666668,0,0,0.026041666666666668,96.015625,0)" xlink:href="#aA"/><use transform="matrix(0.026041666666666668,0,0,0.026041666666666668,128.02083333333334,0)" xlink:href="#aB"/><use transform="matrix(0.026041666666666668,0,0,0.026041666666666668,160.02604166666669,0)" xlink:href="#aC"/><use transform="matrix(0.026041666666666668,0,0,0.026041666666666668,192.03125000000003,0)" xlink:href="#aD"/><use transform="matrix(0.026041666666666668,0,0,0.026041666666666668,224.0364583333334,0)" xlink:href="#aE"/><use transform="matrix(0.026041666666666668,0,0,0.026041666666666668,256.0416666666667,0)" xlink:href="#aF"/><use transform="matrix(0.026041666666666668,0,0,0.026041666666666668,288.046875,0)" xlink:href="#aG"/><use transform="matrix(0.026041666666666668,0,0,0.026041666666666668,320.0520833333333,0)" xlink:href="#aH"/><use transform="matrix(0.026041666666666668,0,0,0.026041666666666668,352.05729166666663,0)" xlink:href="#aI"/><use transform="matrix(0.026041666666666668,0,0,0.026041666666666668,384.06249999999994,0)" xlink:href="#aJ"/><use transform="matrix(0.026041666666666668,0,0,0.026041666666666668,416.06770833333326,0)" xlink:href="#aK"/><use transform="matrix(0.026041666666666668,0,0,0.026041666666666668,448.0729166666666,0)" xlink:href="#aL"/><use transform="matrix(0.026041666666666668,0,0,0.026041666666666668,480.07812499999994,0)" xlink:href="#aM"/><use transform="matrix(0.026041666666666668,0,0,0.026041666666666668,512.0833333333333,0)" xlink:href="#aK"/><use transform="matrix(0.026041666666666668,0,0,0.026041666666666668,544.0885416666666,0)" xlink:href="#aK"/><use transform="matrix(0.026041666666666668,0,0,0.026041666666666668,576.09375,0)" xlink:href="#aN"/><use transform="matrix(0.026041666666666668,0,0,0.026041666666666668,608.0989583333334,0)" xlink:href="#aO"/><use transform="matrix(0.026041666666666668,0,0,0.026041666666666668,640.1041666666667,0)" xlink:href="#aP"/></g><g id="i"><use transform="matrix(0.026041666666666668,0,0,0.026041666666666668,0,0)" xlink:href="#at"/><use transform="matrix(0.026041666666666668,0,0,0.026041666666666668,32.005208333333336,0)" xlink:href="#au"/><use transform="matrix(0.026041666666666668,0,0,0.026041666666666668,64.01041666666667,0)" xlink:href="#av"/><use transform="matrix(0.026041666666666668,0,0,0.026041666666666668,96.015625,0)" xlink:href="#aw"/></g><path d="M865-914c-3-187-2-380-2-570h180v1261c0 76 1 155 6 223H877c-8-49-9-116-10-174h-5C801-44 708 26 530 26c-135 0-234-46-297-139s-95-232-95-419c0-377 131-566 392-566 176 0 271 63 335 184zm-286-51c-222 0-255 197-255 427 0 229 31 425 253 425 237 0 286-195 286-441 0-238-52-411-284-411" id="aQ"/><path d="M202-1349h823v156H709v1037h316V0H202v-156h316v-1037H202v-156" id="aR"/><path d="M932 0L611-444 288 0H94l415-556-397-526h199l300 421 298-421h201L713-558 1133 0H932" id="aS"/><g id="j"><use transform="matrix(0.026041666666666668,0,0,0.026041666666666668,0,0)" xlink:href="#aK"/><use transform="matrix(0.026041666666666668,0,0,0.026041666666666668,32.005208333333336,0)" xlink:href="#aQ"/><use transform="matrix(0.026041666666666668,0,0,0.026041666666666668,64.01041666666667,0)" xlink:href="#aL"/><use transform="matrix(0.026041666666666668,0,0,0.026041666666666668,96.015625,0)" xlink:href="#aK"/><use transform="matrix(0.026041666666666668,0,0,0.026041666666666668,128.02083333333334,0)" xlink:href="#aR"/><use transform="matrix(0.026041666666666668,0,0,0.026041666666666668,160.02604166666669,0)" xlink:href="#aQ"/><use transform="matrix(0.026041666666666668,0,0,0.026041666666666668,192.03125000000003,0)" xlink:href="#aS"/><use transform="matrix(0.026041666666666668,0,0,0.026041666666666668,224.0364583333334,0)" xlink:href="#aN"/><use transform="matrix(0.026041666666666668,0,0,0.026041666666666668,256.0416666666667,0)" xlink:href="#aO"/><use transform="matrix(0.026041666666666668,0,0,0.026041666666666668,288.046875,0)" xlink:href="#aP"/></g><g id="k"><use transform="matrix(0.026041666666666668,0,0,0.026041666666666668,0,0)" xlink:href="#at"/><use transform="matrix(0.026041666666666668,0,0,0.026041666666666668,32.005208333333336,0)" xlink:href="#au"/><use transform="matrix(0.026041666666666668,0,0,0.026041666666666668,64.01041666666667,0)" xlink:href="#av"/><use transform="matrix(0.026041666666666668,0,0,0.026041666666666668,96.015625,0)" xlink:href="#aw"/></g><path fill="#0c7cba" d="M617-1102c355 0 481 238 477 599H322c5 222 84 388 301 388 144 0 244-59 284-166l158 45C1002-72 854 20 623 20c-342 0-490-220-490-568 0-346 151-554 484-554zm291 461c-18-192-90-328-289-328-194 0-287 128-295 328h584" id="aT"/><path fill="#0c7cba" d="M706-1102c241 0 344 136 343 381V0H868v-695c1-168-57-273-220-268-190 6-283 138-283 336V0H185c-3-360 6-732-6-1082h170c4 54 7 126 8 185h3c63-121 164-204 346-205" id="aU"/><path fill="#0c7cba" d="M682 16c-209 0-323-80-324-285v-671H190v-142h170l58-282h120v282h432v142H538v652c2 114 60 155 182 155 106 0 209-16 297-34v137C921-4 806 16 682 16" id="aV"/><path fill="#0c7cba" d="M873-819c-18-114-119-146-250-146-163 0-245 50-245 151 0 151 170 148 294 185 182 54 388 94 388 320 0 240-189 325-439 329-245 4-410-69-454-268l159-31c24 133 136 168 295 165 144-2 270-31 270-171 0-164-195-160-331-202-167-52-350-87-350-299 0-218 173-315 413-313 220 2 373 77 412 260" id="aW"/><g id="l"><use transform="matrix(0.026041666666666668,0,0,0.026041666666666668,0,0)" xlink:href="#aA"/><use transform="matrix(0.026041666666666668,0,0,0.026041666666666668,32.005208333333336,0)" xlink:href="#az"/><use transform="matrix(0.026041666666666668,0,0,0.026041666666666668,64.01041666666667,0)" xlink:href="#ay"/><use transform="matrix(0.026041666666666668,0,0,0.026041666666666668,96.015625,0)" xlink:href="#aT"/><use transform="matrix(0.026041666666666668,0,0,0.026041666666666668,128.02083333333334,0)" xlink:href="#aU"/><use transform="matrix(0.026041666666666668,0,0,0.026041666666666668,160.02604166666669,0)" xlink:href="#aV"/><use transform="matrix(0.026041666666666668,0,0,0.026041666666666668,192.03125000000003,0)" xlink:href="#aW"/><use transform="matrix(0.026041666666666668,0,0,0.026041666666666668,224.0364583333334,0)" xlink:href="#aN"/><use transform="matrix(0.026041666666666668,0,0,0.026041666666666668,256.0416666666667,0)" xlink:href="#aO"/><use transform="matrix(0.026041666666666668,0,0,0.026041666666666668,288.046875,0)" xlink:href="#aP"/></g><path d="M135-143c-3-34-86-38-87 0 15 53 115 12 119 90S17 21 10-45l28-5c4 36 97 45 98 0-10-56-113-15-118-90-4-57 82-63 122-42 12 7 21 19 24 35" id="aX"/><g id="m"><use transform="matrix(0.2469135802469131,0,0,0.2469135802469131,0,0)" xlink:href="#ad"/><use transform="matrix(0.2469135802469131,0,0,0.2469135802469131,63.95061728395049,0)" xlink:href="#ab"/><use transform="matrix(0.2469135802469131,0,0,0.2469135802469131,113.33333333333312,0)" xlink:href="#aX"/><use transform="matrix(0.2469135802469131,0,0,0.2469135802469131,157.7777777777775,0)" xlink:href="#al"/></g><path d="M30 0v-248h187v28H63v79h144v27H63v87h162V0H30" id="aY"/><path d="M117-194c89-4 53 116 60 194h-32v-121c0-31-8-49-39-48C34-167 62-67 57 0H25l-1-190h30c1 10-1 24 2 32 11-22 29-35 61-36" id="aZ"/><path d="M177-190C167-65 218 103 67 71c-23-6-38-20-44-43l32-5c15 47 100 32 89-28v-30C133-14 115 1 83 1 29 1 15-40 15-95c0-56 16-97 71-98 29-1 48 16 59 35 1-10 0-23 2-32h30zM94-22c36 0 50-32 50-73 0-42-14-75-50-75-39 0-46 34-46 75s6 73 46 73" id="ba"/><g id="n"><use transform="matrix(0.2469135802469131,0,0,0.2469135802469131,0,0)" xlink:href="#aY"/><use transform="matrix(0.2469135802469131,0,0,0.2469135802469131,59.259259259259146,0)" xlink:href="#aZ"/><use transform="matrix(0.2469135802469131,0,0,0.2469135802469131,108.64197530864176,0)" xlink:href="#ba"/><use transform="matrix(0.2469135802469131,0,0,0.2469135802469131,158.02469135802437,0)" xlink:href="#aj"/><use transform="matrix(0.2469135802469131,0,0,0.2469135802469131,177.5308641975305,0)" xlink:href="#aZ"/><use transform="matrix(0.2469135802469131,0,0,0.2469135802469131,226.9135802469131,0)" xlink:href="#aa"/></g><path fill="#e81313" d="M240 0l2-218c-23 76-54 145-80 218h-23L58-218 59 0H30v-248h44l77 211c21-75 51-140 76-211h43V0h-30" id="bb"/><path fill="#e81313" d="M100-194c63 0 86 42 84 106H49c0 40 14 67 53 68 26 1 43-12 49-29l28 8c-11 28-37 45-77 45C44 4 14-33 15-96c1-61 26-98 85-98zm52 81c6-60-76-77-97-28-3 7-6 17-6 28h103" id="bc"/><path fill="#e81313" d="M210-169c-67 3-38 105-44 169h-31v-121c0-29-5-50-35-48C34-165 62-65 56 0H25l-1-190h30c1 10-1 24 2 32 10-44 99-50 107 0 11-21 27-35 58-36 85-2 47 119 55 194h-31v-121c0-29-5-49-35-48" id="bd"/><path fill="#e81313" d="M100-194c62-1 85 37 85 99 1 63-27 99-86 99S16-35 15-95c0-66 28-99 85-99zM99-20c44 1 53-31 53-75 0-43-8-75-51-75s-53 32-53 75 10 74 51 75" id="be"/><path fill="#e81313" d="M114-163C36-179 61-72 57 0H25l-1-190h30c1 12-1 29 2 39 6-27 23-49 58-41v29" id="bf"/><path fill="#e81313" d="M179-190L93 31C79 59 56 82 12 73V49c39 6 53-20 64-50L1-190h34L92-34l54-156h33" id="bg"/><g id="o"><use transform="matrix(0.14814814814814742,0,0,0.14814814814814742,0,0)" xlink:href="#bb"/><use transform="matrix(0.14814814814814742,0,0,0.14814814814814742,44.29629629629608,0)" xlink:href="#bc"/><use transform="matrix(0.14814814814814742,0,0,0.14814814814814742,73.92592592592555,0)" xlink:href="#bd"/><use transform="matrix(0.14814814814814742,0,0,0.14814814814814742,118.22222222222165,0)" xlink:href="#be"/><use transform="matrix(0.14814814814814742,0,0,0.14814814814814742,147.8518518518511,0)" xlink:href="#bf"/><use transform="matrix(0.14814814814814742,0,0,0.14814814814814742,165.48148148148064,0)" xlink:href="#bg"/></g><path fill="#3a414a" d="M240 0l2-218c-23 76-54 145-80 218h-23L58-218 59 0H30v-248h44l77 211c21-75 51-140 76-211h43V0h-30" id="bh"/><path fill="#3a414a" d="M100-194c63 0 86 42 84 106H49c0 40 14 67 53 68 26 1 43-12 49-29l28 8c-11 28-37 45-77 45C44 4 14-33 15-96c1-61 26-98 85-98zm52 81c6-60-76-77-97-28-3 7-6 17-6 28h103" id="bi"/><path fill="#3a414a" d="M114-163C36-179 61-72 57 0H25l-1-190h30c1 12-1 29 2 39 6-27 23-49 58-41v29" id="bj"/><path fill="#3a414a" d="M177-190C167-65 218 103 67 71c-23-6-38-20-44-43l32-5c15 47 100 32 89-28v-30C133-14 115 1 83 1 29 1 15-40 15-95c0-56 16-97 71-98 29-1 48 16 59 35 1-10 0-23 2-32h30zM94-22c36 0 50-32 50-73 0-42-14-75-50-75-39 0-46 34-46 75s6 73 46 73" id="bk"/><g id="p"><use transform="matrix(0.14814814814814817,0,0,0.14814814814814817,0,0)" xlink:href="#bh"/><use transform="matrix(0.14814814814814817,0,0,0.14814814814814817,44.296296296296305,0)" xlink:href="#bi"/><use transform="matrix(0.14814814814814817,0,0,0.14814814814814817,73.92592592592594,0)" xlink:href="#bj"/><use transform="matrix(0.14814814814814817,0,0,0.14814814814814817,91.55555555555557,0)" xlink:href="#bk"/><use transform="matrix(0.14814814814814817,0,0,0.14814814814814817,121.1851851851852,0)" xlink:href="#bi"/></g><path fill="#3a414a" d="M160-131c35 5 61 23 61 61C221 17 115-2 30 0v-248c76 3 177-17 177 60 0 33-19 50-47 57zm-97-11c50-1 110 9 110-42 0-47-63-36-110-37v79zm0 115c55-2 124 14 124-45 0-56-70-42-124-44v89" id="bl"/><path fill="#3a414a" d="M24-231v-30h32v30H24zM24 0v-190h32V0H24" id="bm"/><path fill="#3a414a" d="M59-47c-2 24 18 29 38 22v24C64 9 27 4 27-40v-127H5v-23h24l9-43h21v43h35v23H59v120" id="bn"/><path fill="#3a414a" d="M135-143c-3-34-86-38-87 0 15 53 115 12 119 90S17 21 10-45l28-5c4 36 97 45 98 0-10-56-113-15-118-90-4-57 82-63 122-42 12 7 21 19 24 35" id="bo"/><g id="q"><use transform="matrix(0.14814814814814817,0,0,0.14814814814814817,0,0)" xlink:href="#bl"/><use transform="matrix(0.14814814814814817,0,0,0.14814814814814817,35.55555555555556,0)" xlink:href="#bm"/><use transform="matrix(0.14814814814814817,0,0,0.14814814814814817,47.25925925925927,0)" xlink:href="#bn"/><use transform="matrix(0.14814814814814817,0,0,0.14814814814814817,62.07407407407408,0)" xlink:href="#bo"/></g><path fill="#3a414a" d="M30 0v-248h33v221h125V0H30" id="bp"/><path fill="#3a414a" d="M141-36C126-15 110 5 73 4 37 3 15-17 15-53c-1-64 63-63 125-63 3-35-9-54-41-54-24 1-41 7-42 31l-33-3c5-37 33-52 76-52 45 0 72 20 72 64v82c-1 20 7 32 28 27v20c-31 9-61-2-59-35zM48-53c0 20 12 33 32 33 41-3 63-29 60-74-43 2-92-5-92 41" id="bq"/><path fill="#3a414a" d="M117-194c89-4 53 116 60 194h-32v-121c0-31-8-49-39-48C34-167 62-67 57 0H25l-1-190h30c1 10-1 24 2 32 11-22 29-35 61-36" id="br"/><g id="r"><use transform="matrix(0.14814814814814817,0,0,0.14814814814814817,0,0)" xlink:href="#bp"/><use transform="matrix(0.14814814814814817,0,0,0.14814814814814817,29.629629629629633,0)" xlink:href="#bq"/><use transform="matrix(0.14814814814814817,0,0,0.14814814814814817,59.25925925925927,0)" xlink:href="#br"/><use transform="matrix(0.14814814814814817,0,0,0.14814814814814817,88.8888888888889,0)" xlink:href="#bi"/></g><path fill="#3a414a" d="M101-251c68 0 85 55 85 127S166 4 100 4C33 4 14-52 14-124c0-73 17-127 87-127zm-1 229c47 0 54-49 54-102s-4-102-53-102c-51 0-55 48-55 102 0 53 5 102 54 102" id="bs"/><use transform="matrix(0.14814814814814817,0,0,0.14814814814814817,0,0)" xlink:href="#bs" id="s"/><path d="M148-1120c216-7 379-89 463-229h166v1204h353V0H157v-145h439v-1021c-79 124-254 184-448 194v-148" id="bt"/><use transform="matrix(0.026041666666666668,0,0,0.026041666666666668,0,0)" xlink:href="#bt" id="t"/><path fill="#3a414a" d="M27 0v-27h64v-190l-56 39v-29l58-41h29v221h61V0H27" id="bu"/><use transform="matrix(0.14814814814814817,0,0,0.14814814814814817,0,0)" xlink:href="#bu" id="u"/><path fill="#3a414a" d="M101-251c82-7 93 87 43 132L82-64C71-53 59-42 53-27h129V0H18c2-99 128-94 128-182 0-28-16-43-45-43s-46 15-49 41l-32-3c6-41 34-60 81-64" id="bv"/><use transform="matrix(0.14814814814814817,0,0,0.14814814814814817,0,0)" xlink:href="#bv" id="v"/><use transform="matrix(0.026041666666666668,0,0,0.026041666666666668,0,0)" xlink:href="#bt" id="w"/><path fill="#3a414a" d="M126-127c33 6 58 20 58 59 0 88-139 92-164 29-3-8-5-16-6-25l32-3c6 27 21 44 54 44 32 0 52-15 52-46 0-38-36-46-79-43v-28c39 1 72-4 72-42 0-27-17-43-46-43-28 0-47 15-49 41l-32-3c6-42 35-63 81-64 48-1 79 21 79 65 0 36-21 52-52 59" id="bw"/><use transform="matrix(0.14814814814814817,0,0,0.14814814814814817,0,0)" xlink:href="#bw" id="x"/><path fill="#e81313" d="M1065-1013c47 164 49 500-1 665C999-130 875 20 611 20c-377 0-484-300-487-695-2-245 41-425 141-551 77-98 191-144 352-144 261 0 386 140 448 357zM741-155c199-92 203-504 159-785-26-168-96-284-283-284-281 0-308 256-311 549-2 181 18 324 80 428 46 77 115 118 227 120 47 0 90-10 128-28" id="bx"/><use transform="matrix(0.026041666666666668,0,0,0.026041666666666668,0,0)" xlink:href="#bx" id="y"/><path d="M0 4l72-265h28L28 4H0" id="by"/><path d="M266 0h-40l-56-210L115 0H75L2-248h35L96-30l15-64 43-154h32l59 218 59-218h35" id="bz"/><g id="z"><use transform="matrix(0.12345679012345674,0,0,0.12345679012345674,0,0)" xlink:href="#Z"/><use transform="matrix(0.12345679012345674,0,0,0.12345679012345674,31.975308641975296,0)" xlink:href="#aa"/><use transform="matrix(0.12345679012345674,0,0,0.12345679012345674,56.66666666666664,0)" xlink:href="#ab"/><use transform="matrix(0.12345679012345674,0,0,0.12345679012345674,81.358024691358,0)" xlink:href="#ac"/><use transform="matrix(0.12345679012345674,0,0,0.12345679012345674,106.04938271604934,0)" xlink:href="#by"/><use transform="matrix(0.12345679012345674,0,0,0.12345679012345674,118.395061728395,0)" xlink:href="#bz"/><use transform="matrix(0.12345679012345674,0,0,0.12345679012345674,159.38271604938262,0)" xlink:href="#am"/><use transform="matrix(0.12345679012345674,0,0,0.12345679012345674,174.07407407407396,0)" xlink:href="#aj"/><use transform="matrix(0.12345679012345674,0,0,0.12345679012345674,183.82716049382705,0)" xlink:href="#al"/><use transform="matrix(0.12345679012345674,0,0,0.12345679012345674,196.17283950617272,0)" xlink:href="#aa"/></g><g id="A"><use transform="matrix(0.1851851851851852,0,0,0.1851851851851852,0,0)" xlink:href="#ah"/><use transform="matrix(0.1851851851851852,0,0,0.1851851851851852,37.03703703703704,0)" xlink:href="#ag"/><use transform="matrix(0.1851851851851852,0,0,0.1851851851851852,55.555555555555564,0)" xlink:href="#af"/></g><path d="M240 0l2-218c-23 76-54 145-80 218h-23L58-218 59 0H30v-248h44l77 211c21-75 51-140 76-211h43V0h-30" id="bA"/><g id="C"><use transform="matrix(0.23456790123456692,0,0,0.23456790123456692,0,0)" xlink:href="#bA"/><use transform="matrix(0.23456790123456692,0,0,0.23456790123456692,70.13580246913551,0)" xlink:href="#aa"/><use transform="matrix(0.23456790123456692,0,0,0.23456790123456692,117.0493827160489,0)" xlink:href="#am"/><use transform="matrix(0.23456790123456692,0,0,0.23456790123456692,144.96296296296237,0)" xlink:href="#ba"/><use transform="matrix(0.23456790123456692,0,0,0.23456790123456692,191.87654320987576,0)" xlink:href="#aa"/></g><path d="M30 0v-248h33v221h125V0H30" id="bB"/><g id="D"><use transform="matrix(0.23456790123456692,0,0,0.23456790123456692,0,0)" xlink:href="#bB"/><use transform="matrix(0.23456790123456692,0,0,0.23456790123456692,46.913580246913384,0)" xlink:href="#ab"/><use transform="matrix(0.23456790123456692,0,0,0.23456790123456692,93.82716049382677,0)" xlink:href="#aZ"/><use transform="matrix(0.23456790123456692,0,0,0.23456790123456692,140.74074074074014,0)" xlink:href="#aa"/></g><path d="M100-194c62-1 85 37 85 99 1 63-27 99-86 99S16-35 15-95c0-66 28-99 85-99zM99-20c44 1 53-31 53-75 0-43-8-75-51-75s-53 32-53 75 10 74 51 75" id="bC"/><path d="M206 0h-36l-40-164L89 0H53L-1-190h32L70-26l43-164h34l41 164 42-164h31" id="bD"/><g id="E"><use transform="matrix(0.23456790123456692,0,0,0.23456790123456692,0,0)" xlink:href="#ai"/><use transform="matrix(0.23456790123456692,0,0,0.23456790123456692,51.37037037037015,0)" xlink:href="#ak"/><use transform="matrix(0.23456790123456692,0,0,0.23456790123456692,69.90123456790094,0)" xlink:href="#bC"/><use transform="matrix(0.23456790123456692,0,0,0.23456790123456692,116.81481481481433,0)" xlink:href="#bD"/></g><path fill="#c92d39" d="M197 0v-115H63V0H30v-248h33v105h134v-105h34V0h-34" id="bE"/><use transform="matrix(0.14814814814814817,0,0,0.14814814814814817,0,0)" xlink:href="#bE" id="G"/><path fill="#fe7070" d="M197 0v-115H63V0H30v-248h33v105h134v-105h34V0h-34" id="bF"/><use transform="matrix(0.29629629629629634,0,0,0.29629629629629634,0,0)" xlink:href="#bF" id="H"/><path fill="#008573" d="M153-248C145-148 188 4 80 4 36 3 13-21 6-62l32-5c4 25 16 42 43 43 27 0 39-20 39-49v-147H72v-28h81" id="bG"/><use transform="matrix(0.29629629629629634,0,0,0.29629629629629634,0,0)" xlink:href="#bG" id="I"/><path fill="#3a414a" d="M212-179c-10-28-35-45-73-45-59 0-87 40-87 99 0 60 29 101 89 101 43 0 62-24 78-52l27 14C228-24 195 4 139 4 59 4 22-46 18-125c-6-104 99-153 187-111 19 9 31 26 39 46" id="bH"/><g id="J"><use transform="matrix(0.14814814814814817,0,0,0.14814814814814817,0,0)" xlink:href="#bH"/><use transform="matrix(0.14814814814814817,0,0,0.14814814814814817,38.370370370370374,0)" xlink:href="#bq"/><use transform="matrix(0.14814814814814817,0,0,0.14814814814814817,68,0)" xlink:href="#bo"/><use transform="matrix(0.14814814814814817,0,0,0.14814814814814817,94.66666666666669,0)" xlink:href="#bn"/></g><use transform="matrix(0.026041666666666668,0,0,0.026041666666666668,0,0)" xlink:href="#bx" id="K"/><path fill="#0c7cba" d="M160-131c35 5 61 23 61 61C221 17 115-2 30 0v-248c76 3 177-17 177 60 0 33-19 50-47 57zm-97-11c50-1 110 9 110-42 0-47-63-36-110-37v79zm0 115c55-2 124 14 124-45 0-56-70-42-124-44v89" id="bI"/><path fill="#0c7cba" d="M84 4C-5 8 30-112 23-190h32v120c0 31 7 50 39 49 72-2 45-101 50-169h31l1 190h-30c-1-10 1-25-2-33-11 22-28 36-60 37" id="bJ"/><path fill="#0c7cba" d="M117-194c89-4 53 116 60 194h-32v-121c0-31-8-49-39-48C34-167 62-67 57 0H25l-1-190h30c1 10-1 24 2 32 11-22 29-35 61-36" id="bK"/><path fill="#0c7cba" d="M85-194c31 0 48 13 60 33l-1-100h32l1 261h-30c-2-10 0-23-3-31C134-8 116 4 85 4 32 4 16-35 15-94c0-66 23-100 70-100zm9 24c-40 0-46 34-46 75 0 40 6 74 45 74 42 0 51-32 51-76 0-42-9-74-50-73" id="bL"/><path fill="#0c7cba" d="M24 0v-261h32V0H24" id="bM"/><path fill="#0c7cba" d="M100-194c63 0 86 42 84 106H49c0 40 14 67 53 68 26 1 43-12 49-29l28 8c-11 28-37 45-77 45C44 4 14-33 15-96c1-61 26-98 85-98zm52 81c6-60-76-77-97-28-3 7-6 17-6 28h103" id="bN"/><g id="L"><use transform="matrix(0.29629629629629634,0,0,0.29629629629629634,0,0)" xlink:href="#bI"/><use transform="matrix(0.29629629629629634,0,0,0.29629629629629634,71.11111111111111,0)" xlink:href="#bJ"/><use transform="matrix(0.29629629629629634,0,0,0.29629629629629634,130.37037037037038,0)" xlink:href="#bK"/><use transform="matrix(0.29629629629629634,0,0,0.29629629629629634,189.62962962962965,0)" xlink:href="#bL"/><use transform="matrix(0.29629629629629634,0,0,0.29629629629629634,248.8888888888889,0)" xlink:href="#bM"/><use transform="matrix(0.29629629629629634,0,0,0.29629629629629634,272.2962962962963,0)" xlink:href="#bN"/></g><path fill="#0c7cba" d="M101-251c68 0 85 55 85 127S166 4 100 4C33 4 14-52 14-124c0-73 17-127 87-127zm-1 229c47 0 54-49 54-102s-4-102-53-102c-51 0-55 48-55 102 0 53 5 102 54 102" id="bO"/><use transform="matrix(0.29629629629629634,0,0,0.29629629629629634,0,0)" xlink:href="#bO" id="M"/><path fill="#008573" d="M160-131c35 5 61 23 61 61C221 17 115-2 30 0v-248c76 3 177-17 177 60 0 33-19 50-47 57zm-97-11c50-1 110 9 110-42 0-47-63-36-110-37v79zm0 115c55-2 124 14 124-45 0-56-70-42-124-44v89" id="bP"/><path fill="#008573" d="M84 4C-5 8 30-112 23-190h32v120c0 31 7 50 39 49 72-2 45-101 50-169h31l1 190h-30c-1-10 1-25-2-33-11 22-28 36-60 37" id="bQ"/><path fill="#008573" d="M117-194c89-4 53 116 60 194h-32v-121c0-31-8-49-39-48C34-167 62-67 57 0H25l-1-190h30c1 10-1 24 2 32 11-22 29-35 61-36" id="bR"/><path fill="#008573" d="M85-194c31 0 48 13 60 33l-1-100h32l1 261h-30c-2-10 0-23-3-31C134-8 116 4 85 4 32 4 16-35 15-94c0-66 23-100 70-100zm9 24c-40 0-46 34-46 75 0 40 6 74 45 74 42 0 51-32 51-76 0-42-9-74-50-73" id="bS"/><path fill="#008573" d="M24 0v-261h32V0H24" id="bT"/><path fill="#008573" d="M100-194c63 0 86 42 84 106H49c0 40 14 67 53 68 26 1 43-12 49-29l28 8c-11 28-37 45-77 45C44 4 14-33 15-96c1-61 26-98 85-98zm52 81c6-60-76-77-97-28-3 7-6 17-6 28h103" id="bU"/><g id="N"><use transform="matrix(0.29629629629629634,0,0,0.29629629629629634,0,0)" xlink:href="#bP"/><use transform="matrix(0.29629629629629634,0,0,0.29629629629629634,71.11111111111111,0)" xlink:href="#bQ"/><use transform="matrix(0.29629629629629634,0,0,0.29629629629629634,130.37037037037038,0)" xlink:href="#bR"/><use transform="matrix(0.29629629629629634,0,0,0.29629629629629634,189.62962962962965,0)" xlink:href="#bS"/><use transform="matrix(0.29629629629629634,0,0,0.29629629629629634,248.8888888888889,0)" xlink:href="#bT"/><use transform="matrix(0.29629629629629634,0,0,0.29629629629629634,272.2962962962963,0)" xlink:href="#bU"/></g><path fill="#008573" d="M27 0v-27h64v-190l-56 39v-29l58-41h29v221h61V0H27" id="bV"/><use transform="matrix(0.29629629629629634,0,0,0.29629629629629634,0,0)" xlink:href="#bV" id="O"/><path fill="#1071e5" d="M160-131c35 5 61 23 61 61C221 17 115-2 30 0v-248c76 3 177-17 177 60 0 33-19 50-47 57zm-97-11c50-1 110 9 110-42 0-47-63-36-110-37v79zm0 115c55-2 124 14 124-45 0-56-70-42-124-44v89" id="bW"/><path fill="#1071e5" d="M84 4C-5 8 30-112 23-190h32v120c0 31 7 50 39 49 72-2 45-101 50-169h31l1 190h-30c-1-10 1-25-2-33-11 22-28 36-60 37" id="bX"/><path fill="#1071e5" d="M117-194c89-4 53 116 60 194h-32v-121c0-31-8-49-39-48C34-167 62-67 57 0H25l-1-190h30c1 10-1 24 2 32 11-22 29-35 61-36" id="bY"/><path fill="#1071e5" d="M85-194c31 0 48 13 60 33l-1-100h32l1 261h-30c-2-10 0-23-3-31C134-8 116 4 85 4 32 4 16-35 15-94c0-66 23-100 70-100zm9 24c-40 0-46 34-46 75 0 40 6 74 45 74 42 0 51-32 51-76 0-42-9-74-50-73" id="bZ"/><path fill="#1071e5" d="M24 0v-261h32V0H24" id="ca"/><path fill="#1071e5" d="M100-194c63 0 86 42 84 106H49c0 40 14 67 53 68 26 1 43-12 49-29l28 8c-11 28-37 45-77 45C44 4 14-33 15-96c1-61 26-98 85-98zm52 81c6-60-76-77-97-28-3 7-6 17-6 28h103" id="cb"/><g id="P"><use transform="matrix(0.29629629629629634,0,0,0.29629629629629634,0,0)" xlink:href="#bW"/><use transform="matrix(0.29629629629629634,0,0,0.29629629629629634,71.11111111111111,0)" xlink:href="#bX"/><use transform="matrix(0.29629629629629634,0,0,0.29629629629629634,130.37037037037038,0)" xlink:href="#bY"/><use transform="matrix(0.29629629629629634,0,0,0.29629629629629634,189.62962962962965,0)" xlink:href="#bZ"/><use transform="matrix(0.29629629629629634,0,0,0.29629629629629634,248.8888888888889,0)" xlink:href="#ca"/><use transform="matrix(0.29629629629629634,0,0,0.29629629629629634,272.2962962962963,0)" xlink:href="#cb"/></g><path fill="#1071e5" d="M101-251c82-7 93 87 43 132L82-64C71-53 59-42 53-27h129V0H18c2-99 128-94 128-182 0-28-16-43-45-43s-46 15-49 41l-32-3c6-41 34-60 81-64" id="cc"/><use transform="matrix(0.29629629629629634,0,0,0.29629629629629634,0,0)" xlink:href="#cc" id="Q"/><g id="R"><use transform="matrix(0.23456790123456692,0,0,0.23456790123456692,0,0)" xlink:href="#ad"/><use transform="matrix(0.23456790123456692,0,0,0.23456790123456692,60.75308641975283,0)" xlink:href="#ab"/><use transform="matrix(0.23456790123456692,0,0,0.23456790123456692,107.66666666666622,0)" xlink:href="#aX"/><use transform="matrix(0.23456790123456692,0,0,0.23456790123456692,149.88888888888826,0)" xlink:href="#al"/></g><g id="S"><use transform="matrix(0.23456790123456692,0,0,0.23456790123456692,0,0)" xlink:href="#bB"/><use transform="matrix(0.23456790123456692,0,0,0.23456790123456692,46.913580246913384,0)" xlink:href="#ab"/><use transform="matrix(0.23456790123456692,0,0,0.23456790123456692,93.82716049382677,0)" xlink:href="#aZ"/><use transform="matrix(0.23456790123456692,0,0,0.23456790123456692,140.74074074074014,0)" xlink:href="#aa"/></g><path fill="#1071e5" d="M194 0L95-120 63-95V0H30v-248h33v124l119-124h40L117-140 236 0h-42" id="cd"/><use transform="matrix(0.29629629629629634,0,0,0.29629629629629634,0,0)" xlink:href="#cd" id="T"/><path fill="#fe7070" d="M160-131c35 5 61 23 61 61C221 17 115-2 30 0v-248c76 3 177-17 177 60 0 33-19 50-47 57zm-97-11c50-1 110 9 110-42 0-47-63-36-110-37v79zm0 115c55-2 124 14 124-45 0-56-70-42-124-44v89" id="ce"/><path fill="#fe7070" d="M84 4C-5 8 30-112 23-190h32v120c0 31 7 50 39 49 72-2 45-101 50-169h31l1 190h-30c-1-10 1-25-2-33-11 22-28 36-60 37" id="cf"/><path fill="#fe7070" d="M117-194c89-4 53 116 60 194h-32v-121c0-31-8-49-39-48C34-167 62-67 57 0H25l-1-190h30c1 10-1 24 2 32 11-22 29-35 61-36" id="cg"/><path fill="#fe7070" d="M85-194c31 0 48 13 60 33l-1-100h32l1 261h-30c-2-10 0-23-3-31C134-8 116 4 85 4 32 4 16-35 15-94c0-66 23-100 70-100zm9 24c-40 0-46 34-46 75 0 40 6 74 45 74 42 0 51-32 51-76 0-42-9-74-50-73" id="ch"/><path fill="#fe7070" d="M24 0v-261h32V0H24" id="ci"/><path fill="#fe7070" d="M100-194c63 0 86 42 84 106H49c0 40 14 67 53 68 26 1 43-12 49-29l28 8c-11 28-37 45-77 45C44 4 14-33 15-96c1-61 26-98 85-98zm52 81c6-60-76-77-97-28-3 7-6 17-6 28h103" id="cj"/><g id="U"><use transform="matrix(0.29629629629629634,0,0,0.29629629629629634,0,0)" xlink:href="#ce"/><use transform="matrix(0.29629629629629634,0,0,0.29629629629629634,71.11111111111111,0)" xlink:href="#cf"/><use transform="matrix(0.29629629629629634,0,0,0.29629629629629634,130.37037037037038,0)" xlink:href="#cg"/><use transform="matrix(0.29629629629629634,0,0,0.29629629629629634,189.62962962962965,0)" xlink:href="#ch"/><use transform="matrix(0.29629629629629634,0,0,0.29629629629629634,248.8888888888889,0)" xlink:href="#ci"/><use transform="matrix(0.29629629629629634,0,0,0.29629629629629634,272.2962962962963,0)" xlink:href="#cj"/></g><path fill="#fe7070" d="M126-127c33 6 58 20 58 59 0 88-139 92-164 29-3-8-5-16-6-25l32-3c6 27 21 44 54 44 32 0 52-15 52-46 0-38-36-46-79-43v-28c39 1 72-4 72-42 0-27-17-43-46-43-28 0-47 15-49 41l-32-3c6-42 35-63 81-64 48-1 79 21 79 65 0 36-21 52-52 59" id="ck"/><use transform="matrix(0.29629629629629634,0,0,0.29629629629629634,0,0)" xlink:href="#ck" id="V"/><path d="M145-31C134-9 116 4 85 4 32 4 16-35 15-94c0-59 17-99 70-100 32-1 48 14 60 33 0-11-1-24 2-32h30l-1 268h-32zM93-21c41 0 51-33 51-76s-8-73-50-73c-40 0-46 35-46 75s5 74 45 74" id="cl"/><g id="W"><use transform="matrix(0.2222222222222222,0,0,0.2222222222222222,0,0)" xlink:href="#ae"/><use transform="matrix(0.2222222222222222,0,0,0.2222222222222222,53.33333333333333,0)" xlink:href="#aa"/><use transform="matrix(0.2222222222222222,0,0,0.2222222222222222,97.77777777777777,0)" xlink:href="#cl"/></g><path fill="#635dff" d="M143 4C61 4 22-44 18-125c-5-107 100-154 193-111 17 8 29 25 37 43l-32 9c-13-25-37-40-76-40-61 0-88 39-88 99 0 61 29 100 91 101 35 0 62-11 79-27v-45h-74v-28h105v86C228-13 192 4 143 4" id="cm"/><use transform="matrix(0.29629629629629634,0,0,0.29629629629629634,0,0)" xlink:href="#cm" id="X"/><g id="Y"><use transform="matrix(0.2469135802469131,0,0,0.2469135802469131,0,0)" xlink:href="#bA"/><use transform="matrix(0.2469135802469131,0,0,0.2469135802469131,73.82716049382701,0)" xlink:href="#aa"/><use transform="matrix(0.2469135802469131,0,0,0.2469135802469131,123.20987654320962,0)" xlink:href="#am"/><use transform="matrix(0.2469135802469131,0,0,0.2469135802469131,152.59259259259227,0)" xlink:href="#ba"/><use transform="matrix(0.2469135802469131,0,0,0.2469135802469131,201.9753086419749,0)" xlink:href="#aa"/></g></defs></g></svg>