<svg xmlns="http://www.w3.org/2000/svg" xmlns:xlink="http://www.w3.org/1999/xlink" xmlns:lucid="lucid" width="3366" height="988"><g transform="translate(-872 -652)" lucid:page-tab-id="QxitQcPHaoC8"><path d="M921 848.14a5 5 0 0 1 5-5h670a5 5 0 0 1 5 5v512.56a5 5 0 0 1-5 5H926a5 5 0 0 1-5-5z" stroke="#979ea8" stroke-width="2" fill="#f7f4e4"/><path d="M1601 1153.8h-3m-4 0h-6m-4 0h-6m-4 0h-6m-4 0h-6m-4 0h-6m-4 0h-6m-4 0h-6m-4 0h-6m-4 0h-6m-4 0h-6m-4 0h-6m-4 0h-6m-4 0h-6m-4 0h-6m-4 0h-6m-4 0h-6m-4 0h-6m-4 0h-6m-4 0h-6m-4 0h-6m-4 0h-6m-4 0h-6m-4 0h-6m-4 0h-6m-4 0h-6m-4 0h-6m-4 0h-6m-4 0h-6m-4 0h-6m-4 0h-6m-4 0h-6m-4 0h-6m-4 0h-6m-4 0h-6m-4 0h-6m-4 0h-6m-4 0h-6m-4 0h-6m-4 0h-6m-4 0h-6m-4 0h-6m-4 0h-6m-4 0h-6m-4 0h-6m-4 0h-6m-4 0h-6m-4 0h-6m-4 0h-6m-4 0h-6m-4 0h-6m-4 0h-6m-4 0h-6m-4 0h-6m-4 0h-6m-4 0h-6m-4 0h-6m-4 0h-6m-4 0h-6m-4 0h-6m-4 0h-6m-4 0h-6m-4 0h-6m-4 0h-6m-4 0h-6m-4 0h-6m-4 0h-6m-4 0h-6m-4 0h-3" stroke="#979ea8" stroke-width="2" fill="none"/><path d="M1602 1154.78h-1.03v-1.95h1.03zM921.03 1154.78H920v-1.95h1.03z" stroke="#979ea8" stroke-width=".05" fill="#979ea8"/><path d="M1233.88 1365.7v-3m0-4.03v-6.03m0-4.02v-6.03m0-4.03v-6.03m0-4.02v-6.03m0-4.03v-6.03m0-4.02v-6.03m0-4.03v-6.03m0-4.02v-6.03m0-4.03v-6.03m0-4.02v-6.03m0-4.03v-6.03m0-4.02v-6.02m0-4.02v-6.03m0-4.02V1222m0-4.02v-6.03m0-4.02v-6.03m0-4.02v-6.03m0-4.02v-6.03m0-4.02v-6.03m0-4.02v-6.03m0-4.02v-6.03m0-4.02v-6.03m0-4.02v-6.03m0-4.02v-6.03m0-4.02v-6.03m0-4.02v-6.03m0-4.02v-6.02m0-4.02v-6.03m0-4v-6.04m0-4.02v-6.03m0-4v-6.04m0-4.02v-6.03m0-4v-6.04m0-4.02V1021m0-4v-6.04m0-4.02v-6.03m0-4v-6.04m0-4.02v-6.03m0-4v-6.04m0-4v-6.04m0-4.02v-6.03m0-4.02v-6.03m0-4.02v-6.03m0-4.02v-6.03m0-4.02v-6.03m0-4.02v-6.03m0-4.02v-6.03m0-4.02v-6.03m0-4.02v-6.03m0-4.02v-6.03m0-4.02v-6.03m0-4.02v-3" stroke="#979ea8" stroke-width="2" fill="none"/><path d="M1234.85 1366.7h-1.95v-1.03h1.95zM1234.85 843.16h-1.95v-1.02h1.95z" stroke="#979ea8" stroke-width=".05" fill="#979ea8"/><path d="M937.17 704.68a5 5 0 0 1 5-5h637.66a5 5 0 0 1 5 5v115.97a5 5 0 0 1-5 5H942.17a5 5 0 0 1-5-5z" stroke="#000" stroke-opacity="0" stroke-width="2" fill="#fff" fill-opacity="0"/><use xlink:href="#a" transform="matrix(1,0,0,1,942.1743191268081,704.6755450107737) translate(257.39506172839526 74.73611111111089)"/><path d="M1121 1088.94a5 5 0 0 1 5-5h285.2a5 5 0 0 1 5 5v112a5 5 0 0 1-5 5H1126a5 5 0 0 1-5-5z" stroke="#979ea8" stroke-width="2" fill="#c1e4f7"/><use xlink:href="#b" transform="matrix(1,0,0,1,1125.9999500000008,1088.9383966252392) translate(1.0123456790124123 24.8888888888889)"/><use xlink:href="#c" transform="matrix(1,0,0,1,1125.9999500000008,1088.9383966252392) translate(9.654320987654383 24.8888888888889)"/><use xlink:href="#d" transform="matrix(1,0,0,1,1125.9999500000008,1088.9383966252392) translate(172.90123456790124 24.8888888888889)"/><use xlink:href="#e" transform="matrix(1,0,0,1,1125.9999500000008,1088.9383966252392) translate(-4.691358024691311 62.222222222222214)"/><use xlink:href="#f" transform="matrix(1,0,0,1,1125.9999500000008,1088.9383966252392) translate(72.30864197530867 99.55555555555554)"/><path d="M937.17 937.25a5 5 0 0 1 5-5H1176a5 5 0 0 1 5 5v59.63a5 5 0 0 1-5 5H942.17a5 5 0 0 1-5-5zM937.17 861.35a5 5 0 0 1 5-5H1176a5 5 0 0 1 5 5v55.14a5 5 0 0 1-5 5H942.17a5 5 0 0 1-5-5z" stroke="#1071e5" stroke-width="2" fill="#edf5ff"/><path d="M952.4 943.62a5 5 0 0 1 5-5h208.3a5 5 0 0 1 5 5v46.8a5 5 0 0 1-5 5H957.4a5 5 0 0 1-5-5z" stroke="#979ea8" stroke-width="2" fill="#fc9432"/><use xlink:href="#g" transform="matrix(1,0,0,1,957.3962592978892,943.6177256335859) translate(5.074074074074062 28.98611111111111)"/><path d="M937.17 1018.14a5 5 0 0 1 5-5H1176a5 5 0 0 1 5 5v62.44a5 5 0 0 1-5 5H942.17a5 5 0 0 1-5-5z" stroke="#1071e5" stroke-width="2" fill="#edf5ff"/><path d="M947.48 1025.47a5 5 0 0 1 5-5h213.2a5 5 0 0 1 5 5v47.78a5 5 0 0 1-5 5H952.5a5 5 0 0 1-5-5z" stroke="#979ea8" stroke-width="2" fill="#ff8f8f"/><use xlink:href="#h" transform="matrix(1,0,0,1,952.4832668275791,1025.4702794001546) translate(4.679012345679027 30.888888888888886)"/><use xlink:href="#i" transform="matrix(1,0,0,1,952.4832668275791,1025.4702794001546) translate(127.04938271604938 30.888888888888886)"/><path d="M937.17 1193.9a5 5 0 0 1 5-5H1176a5 5 0 0 1 5 5v62.74a5 5 0 0 1-5 5H942.17a5 5 0 0 1-5-5z" stroke="#1071e5" stroke-width="2" fill="#edf5ff"/><path d="M953.96 1198.15a5 5 0 0 1 5-5h200.26a5 5 0 0 1 5 5v53.88a5 5 0 0 1-5 5H958.96a5 5 0 0 1-5-5z" stroke="#979ea8" stroke-width="2" fill="#ffbbb1"/><use xlink:href="#j" transform="matrix(1,0,0,1,958.9565923514564,1198.1532118199373) translate(6.632716049382751 33.597222222222214)"/><path d="M1044.24 1175.93a6 6 0 0 1-6-6v-38.53a6 6 0 0 0-6-6H1027a2.3 2.3 0 0 1-1.54-4l25.56-23.02a6.67 6.67 0 0 1 8.92 0l25.56 23a2.3 2.3 0 0 1-1.54 4.02h-5.24a6 6 0 0 0-6 6v38.53a6 6 0 0 1-6 6z" stroke="#000" stroke-opacity="0" stroke-width="3" fill="#ff8f8f"/><path d="M952.4 867.94a5 5 0 0 1 5-5h208.3a5 5 0 0 1 5 5v41.2a5 5 0 0 1-5 5H957.4a5 5 0 0 1-5-5z" stroke="#979ea8" stroke-width="2" fill="#a7a6ff"/><use xlink:href="#k" transform="matrix(1,0,0,1,957.3962592978892,867.941363411789) translate(69.9814814814815 31.069444444444436)"/><path d="M1341 1018.6a5 5 0 0 1 5-5h233.83a5 5 0 0 1 5 5v62.44a5 5 0 0 1-5 5H1346a5 5 0 0 1-5-5z" stroke="#1071e5" stroke-width="2" fill="#edf5ff"/><path d="M1351.3 1025.93a5 5 0 0 1 5-5h213.22a5 5 0 0 1 5 5v47.78a5 5 0 0 1-5 5h-213.2a5 5 0 0 1-5-5z" stroke="#979ea8" stroke-width="2" fill="#ff8f8f"/><use xlink:href="#h" transform="matrix(1,0,0,1,1356.308897700772,1025.9273630840414) translate(4.679012345679027 30.888888888888886)"/><use xlink:href="#i" transform="matrix(1,0,0,1,1356.308897700772,1025.9273630840414) translate(127.04938271604938 30.888888888888886)"/><path d="M1341 933.4a5 5 0 0 1 5-5h233.83a5 5 0 0 1 5 5v62.75a5 5 0 0 1-5 5H1346a5 5 0 0 1-5-5z" stroke="#1071e5" stroke-width="2" fill="#edf5ff"/><path d="M1357.78 937.66a5 5 0 0 1 5-5h200.26a5 5 0 0 1 5 5v53.88a5 5 0 0 1-5 5h-200.26a5 5 0 0 1-5-5z" stroke="#979ea8" stroke-width="2" fill="#ffbbb1"/><use xlink:href="#j" transform="matrix(1,0,0,1,1362.7822232246494,937.6646097458814) translate(6.632716049382751 33.597222222222214)"/><path d="M1341 1193.9a5 5 0 0 1 5-5h233.83a5 5 0 0 1 5 5v59.62a5 5 0 0 1-5 5H1346a5 5 0 0 1-5-5z" stroke="#1071e5" stroke-width="2" fill="#edf5ff"/><path d="M1356.22 1200.26a5 5 0 0 1 5-5h208.3a5 5 0 0 1 5 5v46.8a5 5 0 0 1-5 5h-208.3a5 5 0 0 1-5-5z" stroke="#979ea8" stroke-width="2" fill="#fc9432"/><use xlink:href="#g" transform="matrix(1,0,0,1,1361.2218901710821,1200.2556322636551) translate(5.074074074074062 28.98611111111111)"/><path d="M1220.22 955.9a6 6 0 0 1 6-6h38.53a6 6 0 0 0 6-6v-5.24a2.3 2.3 0 0 1 4-1.54l23.02 25.57a6.67 6.67 0 0 1 0 8.9l-23 25.57a2.3 2.3 0 0 1-4.02-1.54v-5.24a6 6 0 0 0-6-6h-38.53a6 6 0 0 1-6-6zM1486.72 1098.5a6 6 0 0 1 6 6V1143a6 6 0 0 0 6 6h5.24a2.3 2.3 0 0 1 1.54 4l-25.56 23.02a6.67 6.67 0 0 1-8.92 0l-25.56-23a2.3 2.3 0 0 1 1.54-4.02h5.24a6 6 0 0 0 6-6v-38.53a6 6 0 0 1 6-6zM1301.78 1281.88a6 6 0 0 1-6 6h-38.53a6 6 0 0 0-6 6v5.24a2.3 2.3 0 0 1-4 1.54l-23.02-25.56a6.67 6.67 0 0 1 0-8.92l23-25.56a2.3 2.3 0 0 1 4.02 1.54v5.24a6 6 0 0 0 6 6h38.53a6 6 0 0 1 6 6z" stroke="#000" stroke-opacity="0" stroke-width="3" fill="#ff8f8f"/><path d="M1341 1277.1a5 5 0 0 1 5-5h233.83a5 5 0 0 1 5 5v62.43a5 5 0 0 1-5 5H1346a5 5 0 0 1-5-5z" stroke="#1071e5" stroke-width="2" fill="#edf5ff"/><path d="M1351.3 1284.42a5 5 0 0 1 5-5h213.22a5 5 0 0 1 5 5v47.78a5 5 0 0 1-5 5h-213.2a5 5 0 0 1-5-5z" stroke="#979ea8" stroke-width="2" fill="#ff8f8f"/><use xlink:href="#h" transform="matrix(1,0,0,1,1356.308897700771,1284.4209247401513) translate(4.679012345679027 30.888888888888886)"/><use xlink:href="#i" transform="matrix(1,0,0,1,1356.308897700771,1284.4209247401513) translate(127.04938271604938 30.888888888888886)"/><path d="M937.17 1277.1a5 5 0 0 1 5-5H1176a5 5 0 0 1 5 5v62.43a5 5 0 0 1-5 5H942.17a5 5 0 0 1-5-5z" stroke="#1071e5" stroke-width="2" fill="#edf5ff"/><path d="M947.48 1284.42a5 5 0 0 1 5-5h213.2a5 5 0 0 1 5 5v47.78a5 5 0 0 1-5 5H952.5a5 5 0 0 1-5-5z" stroke="#979ea8" stroke-width="2" fill="#ff8f8f"/><use xlink:href="#h" transform="matrix(1,0,0,1,952.483266827578,1284.4209247401513) translate(4.679012345679027 30.888888888888886)"/><use xlink:href="#i" transform="matrix(1,0,0,1,952.483266827578,1284.4209247401513) translate(127.04938271604938 30.888888888888886)"/><path d="M1681 849.14a5 5 0 0 1 5-5h760.4a5 5 0 0 1 5 5v512.56a5 5 0 0 1-5 5H1686a5 5 0 0 1-5-5z" stroke="#979ea8" stroke-width="2" fill="#f7f4e4"/><path d="M2451.4 1154.78h-3m-4 0h-6m-4 0h-6m-4 0h-6m-4 0h-6m-4 0h-6m-4.02 0h-6m-4 0h-6m-4 0h-6m-4 0h-6.02m-4 0h-6m-4 0h-6m-4 0h-6m-4 0h-6.02m-4 0h-6m-4 0h-6m-4 0h-6m-4.02 0h-6m-4 0h-6m-4 0h-6m-4 0h-6.02m-4 0h-6m-4 0h-6m-4 0h-6m-4 0h-6.02m-4 0h-6m-4 0h-6m-4 0h-6m-4.02 0h-6m-4 0h-6m-4 0h-6m-4 0h-6m-4.02 0h-6m-4 0h-6m-4 0h-6m-4 0h-6.02m-4 0h-6m-4 0h-6m-4 0h-6m-4 0h-6.02m-4 0h-6m-4 0h-6m-4 0h-6m-4.02 0h-6m-4 0h-6m-4 0h-6m-4 0h-6.02m-4 0h-6m-4 0h-6m-4 0h-6m-4 0h-6.02m-4 0h-6m-4 0h-6m-4 0h-6m-4.02 0h-6m-4 0h-6m-4 0h-6m-4 0h-6m-4.02 0h-6m-4 0h-6m-4 0h-6m-4 0h-6.02m-4 0h-6m-4 0h-6m-4 0h-6m-4 0h-6.02m-4 0h-6m-4 0h-6m-4 0h-6m-4 0h-6.02m-4 0h-6m-4 0h-6m-4 0h-6m-4.02 0h-6m-4 0h-6m-4 0h-6m-4 0H1688m-4 0h-3" stroke="#979ea8" stroke-width="2" fill="none"/><path d="M2452.4 1155.76h-1v-1.95h1zM1681.03 1155.76H1680v-1.95h1.03z" stroke="#979ea8" stroke-width=".05" fill="#979ea8"/><path d="M2035.48 1366.7v-3m0-4.03v-6.03m0-4.02v-6.03m0-4.03v-6.03m0-4.02v-6.03m0-4.03v-6.03m0-4.02v-6.03m0-4.03v-6.03m0-4.02v-6.03m0-4.03v-6.03m0-4.02v-6.03m0-4.03v-6.03m0-4.02v-6.02m0-4.02v-6.03m0-4.02V1223m0-4.02v-6.03m0-4.02v-6.03m0-4.02v-6.03m0-4.02v-6.03m0-4.02v-6.03m0-4.02v-6.03m0-4.02v-6.03m0-4.02v-6.03m0-4.02v-6.03m0-4.02v-6.03m0-4.02v-6.03m0-4.02v-6.03m0-4.02v-6.02m0-4.02v-6.03m0-4v-6.04m0-4.02v-6.03m0-4v-6.04m0-4.02v-6.03m0-4v-6.04m0-4.02V1022m0-4v-6.04m0-4.02v-6.03m0-4v-6.04m0-4.02v-6.03m0-4v-6.04m0-4v-6.04m0-4.02v-6.03m0-4.02v-6.03m0-4.02v-6.03m0-4.02v-6.03m0-4.02v-6.03m0-4.02v-6.03m0-4.02v-6.03m0-4.02v-6.03m0-4.02v-6.03m0-4.02v-6.03m0-4.02v-6.03m0-4.02v-3" stroke="#979ea8" stroke-width="2" fill="none"/><path d="M2036.45 1367.7h-1.95v-1.03h1.95zM2036.45 844.16h-1.95v-1.02h1.95z" stroke="#979ea8" stroke-width=".05" fill="#979ea8"/><path d="M1744.66 709.4a5 5 0 0 1 5-5h637.65a5 5 0 0 1 5 5v115.96a5 5 0 0 1-5 5h-637.64a5 5 0 0 1-5-5z" stroke="#000" stroke-opacity="0" stroke-width="2" fill="#fff" fill-opacity="0"/><use xlink:href="#l" transform="matrix(1,0,0,1,1749.65697252109,709.3886136579151) translate(232.70370370370398 74.73611111111089)"/><path d="M1873.4 1093.08a5 5 0 0 1 5-5h285.2a5 5 0 0 1 5 5v112a5 5 0 0 1-5 5h-285.2a5 5 0 0 1-5-5z" stroke="#979ea8" stroke-width="2" fill="#c1e4f7"/><use xlink:href="#b" transform="matrix(1,0,0,1,1878.3955210732925,1093.0811630710778) translate(1.0123456790124123 24.8888888888889)"/><use xlink:href="#c" transform="matrix(1,0,0,1,1878.3955210732925,1093.0811630710778) translate(9.654320987654383 24.8888888888889)"/><use xlink:href="#d" transform="matrix(1,0,0,1,1878.3955210732925,1093.0811630710778) translate(172.90123456790124 24.8888888888889)"/><use xlink:href="#e" transform="matrix(1,0,0,1,1878.3955210732925,1093.0811630710778) translate(-4.691358024691311 62.222222222222214)"/><use xlink:href="#f" transform="matrix(1,0,0,1,1878.3955210732925,1093.0811630710778) translate(72.30864197530867 99.55555555555554)"/><path d="M1689.57 941.4a5 5 0 0 1 5-5h233.83a5 5 0 0 1 5 5v59.63a5 5 0 0 1-5 5h-233.83a5 5 0 0 1-5-5zM1689.57 865.5a5 5 0 0 1 5-5h233.83a5 5 0 0 1 5 5v55.13a5 5 0 0 1-5 5h-233.83a5 5 0 0 1-5-5z" stroke="#1071e5" stroke-width="2" fill="#edf5ff"/><path d="M1704.8 947.76a5 5 0 0 1 5-5h208.3a5 5 0 0 1 5 5v46.82a5 5 0 0 1-5 5h-208.3a5 5 0 0 1-5-5z" stroke="#979ea8" stroke-width="2" fill="#fc9432"/><use xlink:href="#g" transform="matrix(1,0,0,1,1709.791830371181,947.7604920794248) translate(5.074074074074062 28.98611111111111)"/><path d="M1689.57 1022.3a5 5 0 0 1 5-5h233.83a5 5 0 0 1 5 5v62.42a5 5 0 0 1-5 5h-233.83a5 5 0 0 1-5-5z" stroke="#1071e5" stroke-width="2" fill="#edf5ff"/><path d="M1699.88 1029.6a5 5 0 0 1 5-5h213.2a5 5 0 0 1 5 5v47.8a5 5 0 0 1-5 5h-213.2a5 5 0 0 1-5-5z" stroke="#979ea8" stroke-width="2" fill="#ff8f8f"/><use xlink:href="#h" transform="matrix(1,0,0,1,1704.8788379008708,1029.6130458459932) translate(4.679012345679027 30.888888888888886)"/><use xlink:href="#i" transform="matrix(1,0,0,1,1704.8788379008708,1029.6130458459932) translate(127.04938271604938 30.888888888888886)"/><path d="M1689.57 1198.03a5 5 0 0 1 5-5h316.64a5 5 0 0 1 5 5v62.75a5 5 0 0 1-5 5h-316.63a5 5 0 0 1-5-5z" stroke="#1071e5" stroke-width="2" fill="#edf5ff"/><path d="M1706.35 1202.3a5 5 0 0 1 5-5h200.26a5 5 0 0 1 5 5v53.88a5 5 0 0 1-5 5h-200.25a5 5 0 0 1-5-5z" stroke="#979ea8" stroke-width="2" fill="#ffbbb1"/><use xlink:href="#j" transform="matrix(1,0,0,1,1711.3521634247481,1202.295978265776) translate(6.632716049382751 33.597222222222214)"/><path d="M1796.64 1180.07a6 6 0 0 1-6-6v-38.53a6 6 0 0 0-6-6h-5.24a2.3 2.3 0 0 1-1.54-4l25.56-23.02a6.67 6.67 0 0 1 8.92 0l25.56 23a2.3 2.3 0 0 1-1.54 4.02h-5.24a6 6 0 0 0-6 6v38.53a6 6 0 0 1-6 6z" stroke="#000" stroke-opacity="0" stroke-width="3" fill="#ff8f8f"/><path d="M2093.4 1022.74a5 5 0 0 1 5-5h233.82a5 5 0 0 1 5 5v62.44a5 5 0 0 1-5 5H2098.4a5 5 0 0 1-5-5z" stroke="#1071e5" stroke-width="2" fill="#edf5ff"/><path d="M2103.7 1030.07a5 5 0 0 1 5-5h213.2a5 5 0 0 1 5 5v47.78a5 5 0 0 1-5 5h-213.2a5 5 0 0 1-5-5z" stroke="#979ea8" stroke-width="2" fill="#ff8f8f"/><use xlink:href="#h" transform="matrix(1,0,0,1,2108.704468774064,1030.0701295298802) translate(4.679012345679027 30.888888888888886)"/><use xlink:href="#i" transform="matrix(1,0,0,1,2108.704468774064,1030.0701295298802) translate(127.04938271604938 30.888888888888886)"/><path d="M2095.34 940.54a5 5 0 0 1 5-5h327.06a5 5 0 0 1 5 5v62.75a5 5 0 0 1-5 5h-327.06a5 5 0 0 1-5-5z" stroke="#1071e5" stroke-width="2" fill="#edf5ff"/><path d="M2112.12 944.8a5 5 0 0 1 5-5h200.26a5 5 0 0 1 5 5v53.9a5 5 0 0 1-5 5h-200.26a5 5 0 0 1-5-5z" stroke="#979ea8" stroke-width="2" fill="#ffbbb1"/><use xlink:href="#j" transform="matrix(1,0,0,1,2117.1217521648045,944.8050948534305) translate(6.632716049382751 33.597222222222214)"/><path d="M2093.4 1198.03a5 5 0 0 1 5-5h329a5 5 0 0 1 5 5v62.75a5 5 0 0 1-5 5h-329a5 5 0 0 1-5-5z" stroke="#1071e5" stroke-width="2" fill="#edf5ff"/><path d="M2108.62 1204.4a5 5 0 0 1 5-5h208.3a5 5 0 0 1 5 5v46.8a5 5 0 0 1-5 5h-208.3a5 5 0 0 1-5-5z" stroke="#979ea8" stroke-width="2" fill="#fc9432"/><use xlink:href="#g" transform="matrix(1,0,0,1,2113.6174612443738,1204.398398709494) translate(5.074074074074062 28.98611111111111)"/><path d="M1972.6 960.05a6 6 0 0 1 6-6h38.54a6 6 0 0 0 6-6v-5.24a2.3 2.3 0 0 1 4.02-1.53l23 25.56a6.67 6.67 0 0 1 0 8.92l-23 25.56a2.3 2.3 0 0 1-4.02-1.53v-5.24a6 6 0 0 0-6-6h-38.53a6 6 0 0 1-6-6zM2239.12 1102.63a6 6 0 0 1 6 6v38.53a6 6 0 0 0 6 6h5.24a2.3 2.3 0 0 1 1.54 4l-25.56 23.02a6.67 6.67 0 0 1-8.92 0l-25.56-23a2.3 2.3 0 0 1 1.54-4.02h5.24a6 6 0 0 0 6-6v-38.53a6 6 0 0 1 6-6zM2054.18 1323.7a6 6 0 0 1-6 6h-38.53a6 6 0 0 0-6 6v5.24a2.3 2.3 0 0 1-4.02 1.54l-23-25.57a6.67 6.67 0 0 1 0-8.9l23-25.57a2.3 2.3 0 0 1 4.02 1.54v5.24a6 6 0 0 0 6 6h38.53a6 6 0 0 1 6 6z" stroke="#000" stroke-opacity="0" stroke-width="3" fill="#ff8f8f"/><path d="M2093.4 1281.24a5 5 0 0 1 5-5h233.82a5 5 0 0 1 5 5v62.43a5 5 0 0 1-5 5H2098.4a5 5 0 0 1-5-5z" stroke="#1071e5" stroke-width="2" fill="#edf5ff"/><path d="M2103.7 1288.56a5 5 0 0 1 5-5h213.2a5 5 0 0 1 5 5v47.8a5 5 0 0 1-5 5h-213.2a5 5 0 0 1-5-5z" stroke="#979ea8" stroke-width="2" fill="#ff8f8f"/><use xlink:href="#h" transform="matrix(1,0,0,1,2108.704468774063,1288.56369118599) translate(4.679012345679027 30.888888888888886)"/><use xlink:href="#i" transform="matrix(1,0,0,1,2108.704468774063,1288.56369118599) translate(127.04938271604938 30.888888888888886)"/><path d="M1689.57 1281.24a5 5 0 0 1 5-5h233.83a5 5 0 0 1 5 5v62.43a5 5 0 0 1-5 5h-233.83a5 5 0 0 1-5-5z" stroke="#1071e5" stroke-width="2" fill="#edf5ff"/><path d="M1699.88 1288.56a5 5 0 0 1 5-5h213.2a5 5 0 0 1 5 5v47.8a5 5 0 0 1-5 5h-213.2a5 5 0 0 1-5-5z" stroke="#979ea8" stroke-width="2" fill="#ff8f8f"/><use xlink:href="#h" transform="matrix(1,0,0,1,1704.8788379008697,1288.56369118599) translate(4.679012345679027 30.888888888888886)"/><use xlink:href="#i" transform="matrix(1,0,0,1,1704.8788379008697,1288.56369118599) translate(127.04938271604938 30.888888888888886)"/><path d="M2093.4 862.23a5 5 0 0 1 5-5h233.82a5 5 0 0 1 5 5v59.63a5 5 0 0 1-5 5H2098.4a5 5 0 0 1-5-5z" stroke="#1071e5" stroke-width="2" fill="#edf5ff"/><path d="M2108.62 868.6a5 5 0 0 1 5-5h208.3a5 5 0 0 1 5 5v46.8a5 5 0 0 1-5 5h-208.3a5 5 0 0 1-5-5z" stroke="#979ea8" stroke-width="2" fill="#fc9432"/><use xlink:href="#g" transform="matrix(1,0,0,1,2113.617461244373,868.5957830948067) translate(5.074074074074062 28.98611111111111)"/><path d="M2337.22 1208.34a5 5 0 0 1 5-5h70.8a5 5 0 0 1 5 5v41.8a5 5 0 0 1-5 5h-70.8a5 5 0 0 1-5-5z" stroke="#979ea8" stroke-width="2" fill="#fff7a1"/><use xlink:href="#m" transform="matrix(1,0,0,1,2342.221151946486,1208.337474525778) translate(-1.351851851851798 27.666666666666657)"/><path d="M1925.64 1208.7a5 5 0 0 1 5-5h70.8a5 5 0 0 1 5 5v41.8a5 5 0 0 1-5 5h-70.8a5 5 0 0 1-5-5z" stroke="#979ea8" stroke-width="2" fill="#fff7a1"/><use xlink:href="#m" transform="matrix(1,0,0,1,1930.6359658968033,1208.7098243500309) translate(-1.351851851851798 27.666666666666657)"/><path d="M2337.22 949.96a5 5 0 0 1 5-5h70.8a5 5 0 0 1 5 5v41.8a5 5 0 0 1-5 5h-70.8a5 5 0 0 1-5-5z" stroke="#979ea8" stroke-width="2" fill="#fff7a1"/><use xlink:href="#m" transform="matrix(1,0,0,1,2342.2211519464845,949.9590061592962) translate(-1.351851851851798 27.666666666666657)"/><path d="M1644.54 1595.5c0 2.48-2 4.5-4.5 4.5-2.48 0-4.5-2.02-4.5-4.5s2.02-4.5 4.5-4.5c2.5 0 4.5 2.02 4.5 4.5zm.17-17.94c0 2.48-2 4.5-4.5 4.5-2.48 0-4.5-2.02-4.5-4.5 0-2.5 2.02-4.5 4.5-4.5 2.5 0 4.5 2 4.5 4.5zm.18-17.95c0 2.5-2.02 4.5-4.5 4.5-2.5 0-4.5-2-4.5-4.5 0-2.47 2-4.5 4.5-4.5 2.48 0 4.5 2.03 4.5 4.5zm.16-17.93c0 2.48-2 4.5-4.5 4.5-2.48 0-4.5-2.02-4.5-4.5 0-2.5 2.02-4.5 4.5-4.5 2.5 0 4.5 2 4.5 4.5zm.17-17.94c0 2.48-2 4.5-4.5 4.5-2.47 0-4.5-2.02-4.5-4.5 0-2.5 2.03-4.5 4.5-4.5 2.5 0 4.5 2 4.5 4.5zm.18-17.95c0 2.5-2.02 4.5-4.5 4.5-2.5 0-4.5-2-4.5-4.5 0-2.48 2-4.5 4.5-4.5 2.48 0 4.5 2.02 4.5 4.5zm.17-17.94c0 2.5-2.02 4.5-4.5 4.5-2.5 0-4.5-2-4.5-4.5s2-4.5 4.5-4.5c2.48 0 4.5 2 4.5 4.5zm.16-17.94c0 2.48-2 4.5-4.5 4.5-2.47 0-4.5-2.02-4.5-4.5 0-2.5 2.03-4.5 4.5-4.5 2.5 0 4.5 2 4.5 4.5zm.18-17.95c0 2.5-2 4.5-4.5 4.5-2.48 0-4.5-2-4.5-4.5 0-2.48 2.02-4.5 4.5-4.5 2.5 0 4.5 2.02 4.5 4.5zm.17-17.94c0 2.5-2 4.5-4.5 4.5-2.48 0-4.5-2-4.5-4.5 0-2.48 2.02-4.5 4.5-4.5 2.5 0 4.5 2.02 4.5 4.5zm.17-17.93c0 2.48-2.02 4.5-4.5 4.5-2.5 0-4.5-2.02-4.5-4.5 0-2.5 2-4.5 4.5-4.5 2.48 0 4.5 2 4.5 4.5zm.16-17.95c0 2.5-2 4.5-4.5 4.5-2.48 0-4.5-2-4.5-4.5 0-2.48 2.02-4.5 4.5-4.5 2.5 0 4.5 2.02 4.5 4.5zm.17-17.94c0 2.48-2 4.5-4.5 4.5-2.48 0-4.5-2.02-4.5-4.5 0-2.5 2.02-4.5 4.5-4.5 2.5 0 4.5 2 4.5 4.5zm.17-17.94c0 2.48-2.02 4.5-4.5 4.5-2.5 0-4.5-2.02-4.5-4.5 0-2.5 2-4.5 4.5-4.5 2.48 0 4.5 2 4.5 4.5zm.17-17.95c0 2.48-2.03 4.5-4.5 4.5-2.5 0-4.5-2.02-4.5-4.5 0-2.5 2-4.5 4.5-4.5 2.47 0 4.5 2 4.5 4.5zm.15-17.95c0 2.48-2 4.5-4.5 4.5-2.48 0-4.5-2.02-4.5-4.5 0-2.5 2.02-4.5 4.5-4.5 2.5 0 4.5 2 4.5 4.5zm.17-17.94c0 2.5-2 4.5-4.5 4.5-2.48 0-4.5-2-4.5-4.5 0-2.48 2.02-4.5 4.5-4.5 2.5 0 4.5 2.02 4.5 4.5zm.17-17.94c0 2.5-2.03 4.5-4.5 4.5-2.5 0-4.5-2-4.5-4.5 0-2.48 2-4.5 4.5-4.5 2.47 0 4.5 2.02 4.5 4.5zm.16-17.94c0 2.48-2.02 4.5-4.5 4.5-2.5 0-4.5-2.02-4.5-4.5 0-2.5 2-4.5 4.5-4.5 2.48 0 4.5 2 4.5 4.5zm.16-17.94c0 2.48-2 4.5-4.5 4.5-2.48 0-4.5-2.02-4.5-4.5 0-2.5 2.02-4.5 4.5-4.5 2.5 0 4.5 2 4.5 4.5zm.17-17.95c0 2.5-2.02 4.5-4.5 4.5-2.5 0-4.5-2-4.5-4.5 0-2.48 2-4.5 4.5-4.5 2.48 0 4.5 2.02 4.5 4.5zm.16-17.94c0 2.47-2 4.5-4.5 4.5-2.48 0-4.5-2.03-4.5-4.5 0-2.5 2.02-4.5 4.5-4.5 2.5 0 4.5 2 4.5 4.5zm.17-17.96c0 2.5-2.02 4.5-4.5 4.5-2.5 0-4.5-2-4.5-4.5 0-2.48 2-4.5 4.5-4.5 2.48 0 4.5 2.02 4.5 4.5zm.16-17.94c0 2.5-2.02 4.5-4.5 4.5-2.5 0-4.5-2-4.5-4.5 0-2.48 2-4.5 4.5-4.5 2.48 0 4.5 2.02 4.5 4.5zm.16-17.94c0 2.48-2 4.5-4.5 4.5-2.48 0-4.5-2.02-4.5-4.5 0-2.5 2.02-4.5 4.5-4.5 2.5 0 4.5 2 4.5 4.5zm.17-17.94c0 2.48-2 4.5-4.5 4.5s-4.5-2.02-4.5-4.5c0-2.5 2-4.5 4.5-4.5s4.5 2 4.5 4.5zm.17-17.95c0 2.5-2.02 4.5-4.5 4.5-2.5 0-4.5-2-4.5-4.5 0-2.48 2-4.5 4.5-4.5 2.48 0 4.5 2.02 4.5 4.5zm.17-17.94c0 2.48-2.02 4.5-4.5 4.5-2.5 0-4.5-2.02-4.5-4.5 0-2.5 2-4.5 4.5-4.5 2.48 0 4.5 2 4.5 4.5zm.16-17.94c0 2.47-2 4.5-4.5 4.5-2.48 0-4.5-2.03-4.5-4.5 0-2.5 2.02-4.5 4.5-4.5 2.5 0 4.5 2 4.5 4.5zm.17-17.96c0 2.5-2 4.5-4.5 4.5s-4.5-2-4.5-4.5c0-2.48 2-4.5 4.5-4.5s4.5 2.02 4.5 4.5zm.17-17.94c0 2.48-2.02 4.5-4.5 4.5-2.5 0-4.5-2.02-4.5-4.5 0-2.5 2-4.5 4.5-4.5 2.48 0 4.5 2 4.5 4.5zm.17-17.94c0 2.48-2.02 4.5-4.5 4.5-2.5 0-4.5-2.02-4.5-4.5 0-2.5 2-4.5 4.5-4.5 2.48 0 4.5 2 4.5 4.5zm.16-17.95c0 2.5-2 4.5-4.5 4.5-2.48 0-4.5-2-4.5-4.5 0-2.47 2.02-4.5 4.5-4.5 2.5 0 4.5 2.03 4.5 4.5zm.17-17.93c0 2.48-2 4.5-4.5 4.5-2.48 0-4.5-2.02-4.5-4.5 0-2.5 2.02-4.5 4.5-4.5 2.5 0 4.5 2 4.5 4.5zm.17-17.95c0 2.5-2.02 4.5-4.5 4.5-2.5 0-4.5-2-4.5-4.5 0-2.48 2-4.5 4.5-4.5 2.48 0 4.5 2.02 4.5 4.5zm.17-17.94c0 2.5-2 4.5-4.5 4.5-2.48 0-4.5-2-4.5-4.5 0-2.48 2.02-4.5 4.5-4.5 2.5 0 4.5 2.02 4.5 4.5zm.17-17.94c0 2.48-2 4.5-4.5 4.5-2.48 0-4.5-2.02-4.5-4.5 0-2.5 2.02-4.5 4.5-4.5 2.5 0 4.5 2 4.5 4.5zm.17-17.95c0 2.48-2 4.5-4.5 4.5-2.48 0-4.5-2.02-4.5-4.5 0-2.5 2.02-4.5 4.5-4.5 2.5 0 4.5 2 4.5 4.5zm.17-17.95c0 2.5-2 4.5-4.5 4.5-2.48 0-4.5-2-4.5-4.5 0-2.48 2.02-4.5 4.5-4.5 2.5 0 4.5 2.02 4.5 4.5zm.18-17.94c0 2.5-2.02 4.5-4.5 4.5-2.5 0-4.5-2-4.5-4.5 0-2.48 2-4.5 4.5-4.5 2.48 0 4.5 2.02 4.5 4.5zm.16-17.94c0 2.5-2 4.5-4.5 4.5-2.48 0-4.5-2-4.5-4.5 0-2.48 2.02-4.5 4.5-4.5 2.5 0 4.5 2.02 4.5 4.5zm.17-17.94c0 2.5-2 4.5-4.5 4.5-2.47 0-4.5-2-4.5-4.5s2.03-4.5 4.5-4.5c2.5 0 4.5 2 4.5 4.5zm.18-17.94c0 2.48-2.02 4.5-4.5 4.5-2.5 0-4.5-2.02-4.5-4.5 0-2.5 2-4.5 4.5-4.5 2.48 0 4.5 2 4.5 4.5zm.17-17.95c0 2.5-2.02 4.5-4.5 4.5-2.5 0-4.5-2-4.5-4.5 0-2.48 2-4.5 4.5-4.5 2.48 0 4.5 2.02 4.5 4.5zm.16-17.94c0 2.48-2 4.5-4.5 4.5-2.47 0-4.5-2.02-4.5-4.5 0-2.5 2.03-4.5 4.5-4.5 2.5 0 4.5 2 4.5 4.5zm.18-17.95c0 2.48-2 4.5-4.5 4.5-2.48 0-4.5-2.02-4.5-4.5 0-2.5 2.02-4.5 4.5-4.5 2.5 0 4.5 2 4.5 4.5zm.17-17.95c0 2.5-2.02 4.5-4.5 4.5-2.5 0-4.5-2-4.5-4.5 0-2.48 2-4.5 4.5-4.5 2.48 0 4.5 2.02 4.5 4.5zm.17-17.94c0 2.5-2.02 4.5-4.5 4.5-2.5 0-4.5-2-4.5-4.5s2-4.5 4.5-4.5c2.48 0 4.5 2 4.5 4.5zm.16-17.94c0 2.48-2 4.5-4.5 4.5-2.48 0-4.5-2.02-4.5-4.5 0-2.5 2.02-4.5 4.5-4.5 2.5 0 4.5 2 4.5 4.5zm.17-17.95c0 2.5-2 4.5-4.5 4.5-2.48 0-4.5-2-4.5-4.5 0-2.48 2.02-4.5 4.5-4.5 2.5 0 4.5 2.02 4.5 4.5zm.17-17.94c0 2.5-2.02 4.5-4.5 4.5-2.5 0-4.5-2-4.5-4.5s2-4.5 4.5-4.5c2.48 0 4.5 2 4.5 4.5zm.17-17.94c0 2.47-2.03 4.5-4.5 4.5-2.5 0-4.5-2.03-4.5-4.5 0-2.5 2-4.5 4.5-4.5 2.47 0 4.5 2 4.5 4.5zm.15-17.96c0 2.5-2 4.5-4.5 4.5-2.48 0-4.5-2-4.5-4.5 0-2.48 2.02-4.5 4.5-4.5 2.5 0 4.5 2.02 4.5 4.5zm.17-17.94c0 2.5-2 4.5-4.5 4.5-2.48 0-4.5-2-4.5-4.5s2.02-4.5 4.5-4.5c2.5 0 4.5 2 4.5 4.5z" fill="#0c7cba"/><path d="M1640.04 1595.38l-.04 4.62M1648.92 644.6l.04-4.6" stroke="#0c7cba" stroke-width="9" fill="none"/><path d="M2505.22 813.87a5 5 0 0 1 5-5h779.52a5 5 0 0 1 5 5v591.5a5 5 0 0 1-5 5h-779.52a5 5 0 0 1-5-5z" stroke="#979ea8" stroke-width="2" fill="#f7f4e4"/><path d="M3294.74 1166.43h-3m-4 0h-6m-4 0h-6m-4 0h-5.98m-4 0h-6m-4 0h-6m-4 0h-6m-3.98 0h-6m-4 0h-6m-4 0h-6m-3.98 0h-6m-4 0h-6m-4 0h-6m-4 0h-5.98m-4 0h-6m-4 0h-6m-4 0h-5.98m-4 0h-6m-4 0h-6m-4 0h-6m-3.98 0h-6m-4 0h-6m-4 0h-6m-4 0h-5.98m-4 0h-6m-4 0h-6m-4 0h-5.98m-4 0h-6m-4 0h-6m-4 0h-6m-3.98 0h-6m-4 0h-6m-4 0h-6m-3.98 0h-6m-4 0h-6m-4 0h-6m-4 0h-5.98m-4 0h-6m-4 0h-6m-4 0H2902m-4 0h-6m-4 0h-6m-4 0h-6m-3.98 0h-6m-4 0h-6m-4 0h-6m-4 0h-5.98m-4 0h-6m-4 0h-6m-4 0h-5.98m-4 0h-6m-4 0h-6m-4 0h-6m-3.98 0h-6m-4 0h-6m-4 0h-6m-3.98 0h-6m-4 0h-6m-4 0h-6m-4 0h-5.98m-4 0h-6m-4 0h-6m-4 0h-5.98m-4 0h-6m-4 0h-6m-4 0h-6m-3.98 0h-6m-4 0h-6m-4 0h-6m-3.98 0h-6m-4 0h-6m-4 0h-6m-4 0h-5.98m-4 0h-6m-4 0h-6m-4 0h-5.98m-4 0h-6m-4 0h-6m-4 0h-6m-3.98 0h-3" stroke="#979ea8" stroke-width="2" fill="none"/><path d="M3295.74 1167.4h-1.03v-1.95h1.04zM2505.24 1167.4h-1.02v-1.95h1.02z" stroke="#979ea8" stroke-width=".05" fill="#979ea8"/><path d="M2868.5 1410.36v-3m0-4.02v-6.02m0-4v-6.02m0-4v-6.03m0-4v-6.02m0-4v-6.03m0-4v-6.02m0-4v-6.03m0-4v-6.02m0-4v-6.03m0-4v-6.02m0-4v-6.02m0-4v-6.03m0-4v-6.02m0-4V1267m0-4v-6.02m0-4v-6.03m0-4v-6.02m0-4v-6.03m0-4v-6.02m0-4v-6.03m0-4v-6.02m0-4v-6.03m0-4v-6.02m0-4v-6.03m0-4v-6.02m0-4v-6.03m0-4v-6.02m0-4v-6.03m0-4v-6.02m0-4v-6.03m0-4v-6.02m0-4v-6.03m0-4v-6.02m0-4v-6.03m0-4v-6.02m0-4v-6.03m0-4v-6.02m0-4v-6.03m0-4v-6.02m0-4v-6.03m0-4v-6.02m0-4v-6.03m0-4v-6.02m0-4v-6.02m0-4v-6.03m0-4v-6.02m0-4v-6.02m0-4v-6.02m0-4v-6.03m0-4v-6.02m0-4v-6.02m0-4v-6.02m0-4v-6.03m0-4V866m0-4v-6.02m0-4v-6.02m0-4v-6.03m0-4v-6.02m0-4v-6.02m0-4v-3" stroke="#979ea8" stroke-width="2" fill="none"/><path d="M2869.47 1411.36h-1.94v-1.03h1.94zM2869.47 808.9h-1.94v-1.03h1.94z" stroke="#979ea8" stroke-width=".05" fill="#979ea8"/><path d="M2581.82 686.2a5 5 0 0 1 5-5h637.65a5 5 0 0 1 5 5v115.97a5 5 0 0 1-5 5h-637.65a5 5 0 0 1-5-5z" stroke="#000" stroke-opacity="0" stroke-width="2" fill="#fff" fill-opacity="0"/><use xlink:href="#n" transform="matrix(1,0,0,1,2586.8239256336738,686.2033942084154) translate(255.0493827160496 74.73611111111089)"/><path d="M2710.26 1051.8a5 5 0 0 1 5-5h285.2a5 5 0 0 1 5 5v112a5 5 0 0 1-5 5h-285.2a5 5 0 0 1-5-5z" stroke="#979ea8" stroke-width="2" fill="#c1e4f7"/><use xlink:href="#b" transform="matrix(1,0,0,1,2715.257894730532,1051.8063772467299) translate(1.0123456790124123 24.8888888888889)"/><use xlink:href="#c" transform="matrix(1,0,0,1,2715.257894730532,1051.8063772467299) translate(9.654320987654383 24.8888888888889)"/><use xlink:href="#d" transform="matrix(1,0,0,1,2715.257894730532,1051.8063772467299) translate(172.90123456790124 24.8888888888889)"/><use xlink:href="#e" transform="matrix(1,0,0,1,2715.257894730532,1051.8063772467299) translate(-4.691358024691311 62.222222222222214)"/><use xlink:href="#f" transform="matrix(1,0,0,1,2715.257894730532,1051.8063772467299) translate(72.30864197530867 99.55555555555554)"/><path d="M2526.74 905.35a5 5 0 0 1 5-5h233.82a5 5 0 0 1 5 5v59.63a5 5 0 0 1-5 5h-233.82a5 5 0 0 1-5-5zM2526.74 829.44a5 5 0 0 1 5-5h233.82a5 5 0 0 1 5 5v55.15a5 5 0 0 1-5 5h-233.82a5 5 0 0 1-5-5z" stroke="#1071e5" stroke-width="2" fill="#edf5ff"/><path d="M2541.96 911.7a5 5 0 0 1 5-5h208.3a5 5 0 0 1 5 5v46.83a5 5 0 0 1-5 5h-208.3a5 5 0 0 1-5-5z" stroke="#979ea8" stroke-width="2" fill="#fc9432"/><use xlink:href="#g" transform="matrix(1,0,0,1,2546.9587834837644,911.7134848604) translate(5.074074074074062 28.98611111111111)"/><path d="M2526.74 986.24a5 5 0 0 1 5-5h233.82a5 5 0 0 1 5 5v62.44a5 5 0 0 1-5 5h-233.82a5 5 0 0 1-5-5z" stroke="#1071e5" stroke-width="2" fill="#edf5ff"/><path d="M2537.05 993.57a5 5 0 0 1 5-5h213.2a5 5 0 0 1 5 5v47.78a5 5 0 0 1-5 5h-213.2a5 5 0 0 1-5-5z" stroke="#979ea8" stroke-width="2" fill="#ff8f8f"/><use xlink:href="#h" transform="matrix(1,0,0,1,2542.045791013454,993.5660386269681) translate(4.679012345679027 30.888888888888886)"/><use xlink:href="#i" transform="matrix(1,0,0,1,2542.045791013454,993.5660386269681) translate(127.04938271604938 30.888888888888886)"/><path d="M2526.74 1161.98a5 5 0 0 1 5-5h316.64a5 5 0 0 1 5 5v62.76a5 5 0 0 1-5 5h-316.64a5 5 0 0 1-5-5z" stroke="#1071e5" stroke-width="2" fill="#edf5ff"/><path d="M2543.52 1166.25a5 5 0 0 1 5-5h200.26a5 5 0 0 1 5 5v53.88a5 5 0 0 1-5 5h-200.26a5 5 0 0 1-5-5z" stroke="#979ea8" stroke-width="2" fill="#ffbbb1"/><use xlink:href="#j" transform="matrix(1,0,0,1,2548.5191165373317,1166.248971046751) translate(6.632716049382751 33.597222222222214)"/><path d="M2633.8 1144.03a6 6 0 0 1-6-6v-38.53a6 6 0 0 0-6-6h-5.24a2.3 2.3 0 0 1-1.54-4.02l25.56-23a6.67 6.67 0 0 1 8.92 0l25.57 23a2.3 2.3 0 0 1-1.54 4.02h-5.25a6 6 0 0 0-6 6v38.53a6 6 0 0 1-6 6z" stroke="#000" stroke-opacity="0" stroke-width="3" fill="#ff8f8f"/><path d="M2930.56 986.7a5 5 0 0 1 5-5h233.83a5 5 0 0 1 5 5v62.43a5 5 0 0 1-5 5h-233.84a5 5 0 0 1-5-5z" stroke="#1071e5" stroke-width="2" fill="#edf5ff"/><path d="M2940.87 994.02a5 5 0 0 1 5-5h213.2a5 5 0 0 1 5 5v47.8a5 5 0 0 1-5 5h-213.2a5 5 0 0 1-5-5z" stroke="#979ea8" stroke-width="2" fill="#ff8f8f"/><use xlink:href="#h" transform="matrix(1,0,0,1,2945.8714218866476,994.0231223108551) translate(4.679012345679027 30.888888888888886)"/><use xlink:href="#i" transform="matrix(1,0,0,1,2945.8714218866476,994.0231223108551) translate(127.04938271604938 30.888888888888886)"/><path d="M2932.5 904.5a5 5 0 0 1 5-5h327.06a5 5 0 0 1 5 5v62.75a5 5 0 0 1-5 5H2937.5a5 5 0 0 1-5-5z" stroke="#1071e5" stroke-width="2" fill="#edf5ff"/><path d="M2949.3 908.76a5 5 0 0 1 5-5h200.25a5 5 0 0 1 5 5v53.88a5 5 0 0 1-5 5H2954.3a5 5 0 0 1-5-5z" stroke="#979ea8" stroke-width="2" fill="#ffbbb1"/><use xlink:href="#j" transform="matrix(1,0,0,1,2954.288705277388,908.7580876344057) translate(6.632716049382751 33.597222222222214)"/><path d="M2931.53 1240.2a5 5 0 0 1 5-5h329a5 5 0 0 1 5 5v62.74a5 5 0 0 1-5 5h-329a5 5 0 0 1-5-5z" stroke="#1071e5" stroke-width="2" fill="#edf5ff"/><path d="M2946.76 1246.56a5 5 0 0 1 5-5h208.3a5 5 0 0 1 5 5v46.8a5 5 0 0 1-5 5h-208.3a5 5 0 0 1-5-5z" stroke="#979ea8" stroke-width="2" fill="#fc9432"/><use xlink:href="#g" transform="matrix(1,0,0,1,2951.756393290389,1246.5560342952153) translate(5.074074074074062 28.98611111111111)"/><path d="M2809.78 924a6 6 0 0 1 6-6h38.53a6 6 0 0 0 6-6v-5.24a2.3 2.3 0 0 1 4.02-1.54l23 25.56a6.67 6.67 0 0 1 0 8.92l-23 25.56a2.3 2.3 0 0 1-4-1.54v-5.24a6 6 0 0 0-6-6h-38.54a6 6 0 0 1-6-6zM3076.3 1066.58a6 6 0 0 1 6 6v38.53a6 6 0 0 0 6 6h5.23a2.3 2.3 0 0 1 1.54 4.03l-25.57 23a6.67 6.67 0 0 1-8.92 0l-25.56-23a2.3 2.3 0 0 1 1.54-4.02h5.24a6 6 0 0 0 6-6v-38.52a6 6 0 0 1 6-6zM2891.75 1360.1a6 6 0 0 1-6 6h-38.53a6 6 0 0 0-6 6v5.23a2.3 2.3 0 0 1-4 1.54l-23.02-25.56a6.67 6.67 0 0 1 0-8.9l23-25.58a2.3 2.3 0 0 1 4.02 1.54v5.25a6 6 0 0 0 6 6h38.53a6 6 0 0 1 6 6z" stroke="#000" stroke-opacity="0" stroke-width="3" fill="#ff8f8f"/><path d="M2931.53 1321.8a5 5 0 0 1 5-5h233.83a5 5 0 0 1 5 5v62.45a5 5 0 0 1-5 5h-233.83a5 5 0 0 1-5-5z" stroke="#1071e5" stroke-width="2" fill="#edf5ff"/><path d="M2941.84 1329.14a5 5 0 0 1 5-5h213.2a5 5 0 0 1 5 5v47.78a5 5 0 0 1-5 5h-213.2a5 5 0 0 1-5-5z" stroke="#979ea8" stroke-width="2" fill="#ff8f8f"/><use xlink:href="#h" transform="matrix(1,0,0,1,2946.8434008200784,1329.1400972000595) translate(4.679012345679027 30.888888888888886)"/><use xlink:href="#i" transform="matrix(1,0,0,1,2946.8434008200784,1329.1400972000595) translate(127.04938271604938 30.888888888888886)"/><path d="M2527.15 1317.63a5 5 0 0 1 5-5h233.82a5 5 0 0 1 5 5v62.43a5 5 0 0 1-5 5h-233.82a5 5 0 0 1-5-5z" stroke="#1071e5" stroke-width="2" fill="#edf5ff"/><path d="M2537.45 1324.95a5 5 0 0 1 5-5h213.2a5 5 0 0 1 5 5v47.8a5 5 0 0 1-5 5h-213.2a5 5 0 0 1-5-5z" stroke="#979ea8" stroke-width="2" fill="#ff8f8f"/><use xlink:href="#h" transform="matrix(1,0,0,1,2542.4544825322996,1324.9544604031078) translate(4.679012345679027 30.888888888888886)"/><use xlink:href="#i" transform="matrix(1,0,0,1,2542.4544825322996,1324.9544604031078) translate(127.04938271604938 30.888888888888886)"/><path d="M2930.56 826.18a5 5 0 0 1 5-5h233.83a5 5 0 0 1 5 5v59.63a5 5 0 0 1-5 5h-233.84a5 5 0 0 1-5-5z" stroke="#1071e5" stroke-width="2" fill="#edf5ff"/><path d="M2945.78 832.55a5 5 0 0 1 5-5h208.3a5 5 0 0 1 5 5v46.82a5 5 0 0 1-5 5h-208.3a5 5 0 0 1-5-5z" stroke="#979ea8" stroke-width="2" fill="#fc9432"/><use xlink:href="#g" transform="matrix(1,0,0,1,2950.7844143569564,832.5487758757816) translate(5.074074074074062 28.98611111111111)"/><path d="M3175.36 1250.5a5 5 0 0 1 5-5h70.8a5 5 0 0 1 5 5v41.8a5 5 0 0 1-5 5h-70.8a5 5 0 0 1-5-5z" stroke="#979ea8" stroke-width="2" fill="#fff7a1"/><use xlink:href="#m" transform="matrix(1,0,0,1,3180.360083992501,1250.4951101114993) translate(-1.351851851851798 27.666666666666657)"/><path d="M2762.8 1172.66a5 5 0 0 1 5-5h70.8a5 5 0 0 1 5 5v41.8a5 5 0 0 1-5 5h-70.8a5 5 0 0 1-5-5z" stroke="#979ea8" stroke-width="2" fill="#fff7a1"/><use xlink:href="#m" transform="matrix(1,0,0,1,2767.802919009387,1172.6628171310058) translate(-1.351851851851798 27.666666666666657)"/><path d="M3174.4 913.9a5 5 0 0 1 5-5h70.8a5 5 0 0 1 5 5v41.8a5 5 0 0 1-5 5h-70.8a5 5 0 0 1-5-5z" stroke="#979ea8" stroke-width="2" fill="#fff7a1"/><use xlink:href="#m" transform="matrix(1,0,0,1,3179.388105059068,913.9119989402714) translate(-1.351851851851798 27.666666666666657)"/><path d="M2526.74 1242.93a5 5 0 0 1 5-5h316.64a5 5 0 0 1 5 5v55.68a5 5 0 0 1-5 5h-316.64a5 5 0 0 1-5-5z" stroke="#1071e5" stroke-width="2" fill="#edf5ff"/><path d="M2543.52 1251.04a5 5 0 0 1 5-5h200.26a5 5 0 0 1 5 5v40.28a5 5 0 0 1-5 5h-200.26a5 5 0 0 1-5-5z" stroke="#979ea8" stroke-width="2" fill="#a7a6ff"/><use xlink:href="#k" transform="matrix(1,0,0,1,2548.5191165373317,1251.0411352310534) translate(65.9814814814815 31.006944444444436)"/><path d="M2762.8 1249.52a5 5 0 0 1 5-5h70.8a5 5 0 0 1 5 5v41.8a5 5 0 0 1-5 5h-70.8a5 5 0 0 1-5-5z" stroke="#979ea8" stroke-width="2" fill="#fff7a1"/><use xlink:href="#m" transform="matrix(1,0,0,1,2767.802919009387,1249.5242987120396) translate(-1.351851851851798 27.666666666666657)"/><path d="M2543.52 836.87a5 5 0 0 1 5-5h200.26a5 5 0 0 1 5 5v40.28a5 5 0 0 1-5 5h-200.26a5 5 0 0 1-5-5z" stroke="#979ea8" stroke-width="2" fill="#a7a6ff"/><use xlink:href="#k" transform="matrix(1,0,0,1,2548.5191165373317,836.8743020221742) translate(65.9814814814815 31.006944444444436)"/><path d="M1706.35 874.33a5 5 0 0 1 5-5h200.26a5 5 0 0 1 5 5v40.28a5 5 0 0 1-5 5h-200.25a5 5 0 0 1-5-5z" stroke="#979ea8" stroke-width="2" fill="#a7a6ff"/><use xlink:href="#k" transform="matrix(1,0,0,1,1711.3521634247484,874.3321404786232) translate(65.9814814814815 31.006944444444436)"/><path d="M2931.53 1159.58a5 5 0 0 1 5-5h233.83a5 5 0 0 1 5 5v62.75a5 5 0 0 1-5 5h-233.83a5 5 0 0 1-5-5z" stroke="#1071e5" stroke-width="2" fill="#edf5ff"/><path d="M2948.32 1163.84a5 5 0 0 1 5-5h200.26a5 5 0 0 1 5 5v53.88a5 5 0 0 1-5 5h-200.26a5 5 0 0 1-5-5z" stroke="#979ea8" stroke-width="2" fill="#ffbbb1"/><use xlink:href="#j" transform="matrix(1,0,0,1,2953.316726343956,1163.842139150687) translate(6.632716049382751 33.597222222222214)"/><path d="M3388.54 773.74a5 5 0 0 1 5-5h789a5 5 0 0 1 5 5v695.7a5 5 0 0 1-5 5h-789a5 5 0 0 1-5-5z" stroke="#979ea8" stroke-width="2" fill="#f7f4e4"/><path d="M4187.54 1188.24h-3m-4 0h-5.98m-4 0h-6m-4 0h-5.98m-4 0h-6m-3.98 0h-6m-4 0h-5.98m-4 0h-6m-3.98 0h-6m-4 0h-5.98m-4 0h-6m-4 0h-5.98m-4 0h-6m-3.98 0h-6m-4 0h-5.98m-4 0h-6m-3.98 0h-6m-4 0h-5.98m-4 0h-6m-4 0h-5.98m-4 0h-6m-3.98 0h-6m-4 0h-5.98m-4 0h-6m-3.98 0h-6m-4 0h-5.98m-4 0h-6m-4 0h-5.98m-4 0h-6m-3.98 0h-6m-4 0h-5.98m-4 0h-6m-3.98 0h-6m-4 0h-5.98m-4 0h-6m-4 0H3835m-4 0h-6m-3.98 0h-6m-4 0h-5.98m-4 0h-6m-3.98 0h-6m-4 0h-5.98m-4 0h-6m-4 0h-5.98m-4 0h-6m-3.98 0h-6m-4 0h-5.98m-4 0h-6m-3.98 0h-6m-4 0h-5.98m-4 0h-6m-4 0h-5.98m-4 0h-6m-3.98 0h-6m-4 0h-5.98m-4 0h-6m-3.98 0h-6m-4 0h-5.98m-4 0h-6m-4 0h-5.98m-4 0h-6m-3.98 0h-6m-4 0h-5.98m-4 0h-6m-3.98 0h-6m-4 0h-5.98m-4 0h-6m-4 0h-5.98m-4 0h-6m-3.98 0h-6m-4 0h-5.98m-4 0h-6m-3.98 0h-6m-4 0h-5.98m-4 0h-6m-4 0h-5.98m-4 0h-6m-3.98 0h-6m-4 0h-5.98m-4 0h-6m-3.98 0h-3" stroke="#979ea8" stroke-width="2" fill="none"/><path d="M4188.54 1189.22h-1.02v-1.95h1.02zM3388.57 1189.22h-1.03v-1.95h1.03z" stroke="#979ea8" stroke-width=".05" fill="#979ea8"/><path d="M3756.2 1474.43v-2.98m0-3.98v-5.96m0-3.96v-5.97m0-3.97v-5.97m0-3.97v-5.97m0-3.98v-5.97m0-3.97v-5.97m0-3.96v-5.97m0-3.97v-5.97m0-3.97V1382m0-3.98v-5.96m0-3.98v-5.96m0-3.98v-5.96m0-3.98v-5.96m0-3.98v-5.96m0-3.98v-5.96m0-3.98v-5.96m0-3.98v-5.96m0-3.97v-5.96m0-3.97v-5.97m0-3.97v-5.97m0-3.97v-5.98m0-3.97v-5.97m0-3.97v-5.95m0-3.98v-5.96m0-3.97v-5.96m0-3.98v-5.97m0-3.98v-5.96m0-4v-5.95m0-3.98v-5.96m0-3.97v-5.96m0-3.98v-5.97m0-3.98v-5.96m0-4v-5.95m0-3.98v-5.96m0-3.96v-5.97m0-3.97v-5.97m0-3.97v-5.97m0-3.98v-5.97m0-3.97v-5.96m0-3.98v-5.96m0-3.98v-5.96m0-3.98V1054m0-3.98v-5.96m0-3.98v-5.96m0-3.98v-5.96m0-3.98v-5.96m0-3.98v-5.96m0-3.98v-5.96m0-3.98v-5.96m0-3.97v-5.97m0-3.97v-5.96m0-3.97v-5.97m0-3.97v-5.97m0-3.97v-5.98m0-3.97v-5.97m0-3.97v-5.95m0-3.98v-5.96m0-3.97v-5.96m0-3.98v-5.97m0-3.98v-5.96m0-4v-5.95m0-3.98v-5.96m0-3.97v-5.96m0-3.98v-5.97m0-3.98v-5.96m0-3.98v-5.97m0-3.97v-5.97m0-3.96v-5.97m0-3.97v-5.97m0-3.97v-5.96m0-3.98v-2.98" stroke="#979ea8" stroke-width="2" fill="none"/><path d="M3757.18 1475.43h-1.95v-1.02h1.95zM3757.18 768.76h-1.95v-1.02h1.95z" stroke="#979ea8" stroke-width=".05" fill="#979ea8"/><path d="M3465.15 665a5 5 0 0 1 5-5h637.65a5 5 0 0 1 5 5v115.97a5 5 0 0 1-5 5h-637.65a5 5 0 0 1-5-5z" stroke="#000" stroke-opacity="0" stroke-width="2" fill="#fff" fill-opacity="0"/><use xlink:href="#o" transform="matrix(1,0,0,1,3470.1462449486376,665) translate(259.9876543209879 74.73611111111089)"/><path d="M3593.58 1030.6a5 5 0 0 1 5-5h285.2a5 5 0 0 1 5 5v112a5 5 0 0 1-5 5h-285.2a5 5 0 0 1-5-5z" stroke="#979ea8" stroke-width="2" fill="#c1e4f7"/><use xlink:href="#b" transform="matrix(1,0,0,1,3598.5802140454953,1030.6029830383145) translate(1.0123456790124123 24.8888888888889)"/><use xlink:href="#c" transform="matrix(1,0,0,1,3598.5802140454953,1030.6029830383145) translate(9.654320987654383 24.8888888888889)"/><use xlink:href="#d" transform="matrix(1,0,0,1,3598.5802140454953,1030.6029830383145) translate(172.90123456790124 24.8888888888889)"/><use xlink:href="#e" transform="matrix(1,0,0,1,3598.5802140454953,1030.6029830383145) translate(-4.691358024691311 62.222222222222214)"/><use xlink:href="#f" transform="matrix(1,0,0,1,3598.5802140454953,1030.6029830383145) translate(72.30864197530867 99.55555555555554)"/><path d="M3410.06 884.14a5 5 0 0 1 5-5h233.83a5 5 0 0 1 5 5v59.63a5 5 0 0 1-5 5h-233.84a5 5 0 0 1-5-5zM3410.06 808.24a5 5 0 0 1 5-5h233.83a5 5 0 0 1 5 5v55.14a5 5 0 0 1-5 5h-233.84a5 5 0 0 1-5-5z" stroke="#1071e5" stroke-width="2" fill="#edf5ff"/><path d="M3425.28 890.5a5 5 0 0 1 5-5h208.3a5 5 0 0 1 5 5v46.83a5 5 0 0 1-5 5h-208.3a5 5 0 0 1-5-5z" stroke="#979ea8" stroke-width="2" fill="#fc9432"/><use xlink:href="#g" transform="matrix(1,0,0,1,3430.281102798728,890.5100906519848) translate(5.074074074074062 28.98611111111111)"/><path d="M3410.06 965.03a5 5 0 0 1 5-5h233.83a5 5 0 0 1 5 5v62.44a5 5 0 0 1-5 5h-233.84a5 5 0 0 1-5-5z" stroke="#1071e5" stroke-width="2" fill="#edf5ff"/><path d="M3420.37 972.36a5 5 0 0 1 5-5h213.2a5 5 0 0 1 5 5v47.8a5 5 0 0 1-5 5h-213.2a5 5 0 0 1-5-5z" stroke="#979ea8" stroke-width="2" fill="#ff8f8f"/><use xlink:href="#h" transform="matrix(1,0,0,1,3425.368110328418,972.3626444185522) translate(4.679012345679027 30.888888888888886)"/><use xlink:href="#i" transform="matrix(1,0,0,1,3425.368110328418,972.3626444185522) translate(127.04938271604938 30.888888888888886)"/><path d="M3410.06 1140.78a5 5 0 0 1 5-5h316.64a5 5 0 0 1 5 5v62.75a5 5 0 0 1-5 5h-316.64a5 5 0 0 1-5-5z" stroke="#1071e5" stroke-width="2" fill="#edf5ff"/><path d="M3426.84 1145.05a5 5 0 0 1 5-5h200.26a5 5 0 0 1 5 5v53.88a5 5 0 0 1-5 5h-200.26a5 5 0 0 1-5-5z" stroke="#979ea8" stroke-width="2" fill="#ffbbb1"/><use xlink:href="#j" transform="matrix(1,0,0,1,3431.8414358522955,1145.045576838336) translate(6.632716049382751 33.597222222222214)"/><path d="M3517.13 1122.82a6 6 0 0 1-6-6v-38.53a6 6 0 0 0-6-6h-5.25a2.3 2.3 0 0 1-1.54-4.02l25.57-23a6.67 6.67 0 0 1 8.93 0l25.56 23a2.3 2.3 0 0 1-1.55 4h-5.24a6 6 0 0 0-6 6v38.54a6 6 0 0 1-6 6z" stroke="#000" stroke-opacity="0" stroke-width="3" fill="#ff8f8f"/><path d="M3813.9 965.5a5 5 0 0 1 5-5h233.8a5 5 0 0 1 5 5v62.43a5 5 0 0 1-5 5h-233.8a5 5 0 0 1-5-5z" stroke="#1071e5" stroke-width="2" fill="#edf5ff"/><path d="M3824.2 972.82a5 5 0 0 1 5-5h213.2a5 5 0 0 1 5 5v47.78a5 5 0 0 1-5 5h-213.2a5 5 0 0 1-5-5z" stroke="#979ea8" stroke-width="2" fill="#ff8f8f"/><use xlink:href="#h" transform="matrix(1,0,0,1,3829.1937412016114,972.81972810244) translate(4.679012345679027 30.888888888888886)"/><use xlink:href="#i" transform="matrix(1,0,0,1,3829.1937412016114,972.81972810244) translate(127.04938271604938 30.888888888888886)"/><path d="M3815.83 883.3a5 5 0 0 1 5-5h316.64a5 5 0 0 1 5 5v62.43a5 5 0 0 1-5 5h-316.64a5 5 0 0 1-5-5z" stroke="#1071e5" stroke-width="2" fill="#edf5ff"/><path d="M3832.6 887.55a5 5 0 0 1 5-5h200.27a5 5 0 0 1 5 5v53.88a5 5 0 0 1-5 5H3837.6a5 5 0 0 1-5-5z" stroke="#979ea8" stroke-width="2" fill="#ffbbb1"/><use xlink:href="#j" transform="matrix(1,0,0,1,3837.611024592352,887.554693425991) translate(6.632716049382751 33.597222222222214)"/><path d="M3814.86 1218.98a5 5 0 0 1 5-5h329a5 5 0 0 1 5 5v62.76a5 5 0 0 1-5 5h-329a5 5 0 0 1-5-5z" stroke="#1071e5" stroke-width="2" fill="#edf5ff"/><path d="M3830.08 1225.35a5 5 0 0 1 5-5h208.3a5 5 0 0 1 5 5v46.82a5 5 0 0 1-5 5h-208.3a5 5 0 0 1-5-5z" stroke="#979ea8" stroke-width="2" fill="#fc9432"/><use xlink:href="#g" transform="matrix(1,0,0,1,3835.078712605353,1225.3526400868) translate(5.074074074074062 28.98611111111111)"/><path d="M3693.1 902.8a6 6 0 0 1 6-6h38.53a6 6 0 0 0 6-6v-5.24a2.3 2.3 0 0 1 4.02-1.54l23 25.56a6.67 6.67 0 0 1 0 8.92l-23 25.56a2.3 2.3 0 0 1-4.02-1.54v-5.24a6 6 0 0 0-6-6h-38.53a6 6 0 0 1-6-6zM3959.6 1045.38a6 6 0 0 1 6 6v38.53a6 6 0 0 0 6 6h5.25a2.3 2.3 0 0 1 1.54 4.02l-25.57 23a6.67 6.67 0 0 1-8.92 0l-25.56-23a2.3 2.3 0 0 1 1.55-4h5.23a6 6 0 0 0 6-6v-38.54a6 6 0 0 1 6-6zM3808.5 1424.28a6 6 0 0 1-6 6h-38.54a6 6 0 0 0-6 6v5.24a2.3 2.3 0 0 1-4 1.54l-23.02-25.56a6.67 6.67 0 0 1 0-8.92l23-25.56a2.3 2.3 0 0 1 4.02 1.54v5.24a6 6 0 0 0 6 6h38.53a6 6 0 0 1 6 6z" stroke="#000" stroke-opacity="0" stroke-width="3" fill="#ff8f8f"/><path d="M3814.86 1300.6a5 5 0 0 1 5-5h233.82a5 5 0 0 1 5 5v62.45a5 5 0 0 1-5 5h-233.82a5 5 0 0 1-5-5z" stroke="#1071e5" stroke-width="2" fill="#edf5ff"/><path d="M3825.17 1307.94a5 5 0 0 1 5-5h213.2a5 5 0 0 1 5 5v47.78a5 5 0 0 1-5 5h-213.2a5 5 0 0 1-5-5z" stroke="#979ea8" stroke-width="2" fill="#ff8f8f"/><use xlink:href="#h" transform="matrix(1,0,0,1,3830.1657201350417,1307.936702991644) translate(4.679012345679027 30.888888888888886)"/><use xlink:href="#i" transform="matrix(1,0,0,1,3830.1657201350417,1307.936702991644) translate(127.04938271604938 30.888888888888886)"/><path d="M3412.52 1376.23a5 5 0 0 1 5-5h233.82a5 5 0 0 1 5 5v62.44a5 5 0 0 1-5 5h-233.82a5 5 0 0 1-5-5z" stroke="#1071e5" stroke-width="2" fill="#edf5ff"/><path d="M3422.82 1383.56a5 5 0 0 1 5-5h213.2a5 5 0 0 1 5 5v47.78a5 5 0 0 1-5 5h-213.2a5 5 0 0 1-5-5z" stroke="#979ea8" stroke-width="2" fill="#ff8f8f"/><use xlink:href="#h" transform="matrix(1,0,0,1,3427.8246065635735,1383.5552934320174) translate(4.679012345679027 30.888888888888886)"/><use xlink:href="#i" transform="matrix(1,0,0,1,3427.8246065635735,1383.5552934320174) translate(127.04938271604938 30.888888888888886)"/><path d="M4058.68 1229.3a5 5 0 0 1 5-5h70.8a5 5 0 0 1 5 5v41.8a5 5 0 0 1-5 5h-70.8a5 5 0 0 1-5-5z" stroke="#979ea8" stroke-width="2" fill="#fff7a1"/><use xlink:href="#m" transform="matrix(1,0,0,1,4063.6824033074654,1229.291715903084) translate(-1.351851851851798 27.666666666666657)"/><path d="M3646.13 1151.46a5 5 0 0 1 5-5h70.8a5 5 0 0 1 5 5v41.8a5 5 0 0 1-5 5h-70.8a5 5 0 0 1-5-5z" stroke="#979ea8" stroke-width="2" fill="#fff7a1"/><use xlink:href="#m" transform="matrix(1,0,0,1,3651.125238324351,1151.4594229225906) translate(-1.351851851851798 27.666666666666657)"/><path d="M4051.9 890.65a5 5 0 0 1 5-5h70.8a5 5 0 0 1 5 5v41.8a5 5 0 0 1-5 5h-70.8a5 5 0 0 1-5-5z" stroke="#979ea8" stroke-width="2" fill="#fff7a1"/><use xlink:href="#m" transform="matrix(1,0,0,1,4056.8948270644073,890.6512481291309) translate(-1.351851851851798 27.666666666666657)"/><path d="M3410.06 1221.73a5 5 0 0 1 5-5h316.64a5 5 0 0 1 5 5v55.67a5 5 0 0 1-5 5h-316.64a5 5 0 0 1-5-5z" stroke="#1071e5" stroke-width="2" fill="#edf5ff"/><path d="M3426.84 1229.84a5 5 0 0 1 5-5h200.26a5 5 0 0 1 5 5v40.28a5 5 0 0 1-5 5h-200.26a5 5 0 0 1-5-5z" stroke="#979ea8" stroke-width="2" fill="#a7a6ff"/><use xlink:href="#k" transform="matrix(1,0,0,1,3431.8414358522955,1229.837741022638) translate(65.9814814814815 31.006944444444436)"/><path d="M3646.13 1228.32a5 5 0 0 1 5-5h70.8a5 5 0 0 1 5 5v41.8a5 5 0 0 1-5 5h-70.8a5 5 0 0 1-5-5z" stroke="#979ea8" stroke-width="2" fill="#fff7a1"/><g><use xlink:href="#m" transform="matrix(1,0,0,1,3651.125238324351,1228.3209045036242) translate(-1.351851851851798 27.666666666666657)"/></g><path d="M3426.84 815.67a5 5 0 0 1 5-5h200.26a5 5 0 0 1 5 5v40.28a5 5 0 0 1-5 5h-200.26a5 5 0 0 1-5-5z" stroke="#979ea8" stroke-width="2" fill="#a7a6ff"/><g><use xlink:href="#k" transform="matrix(1,0,0,1,3431.8414358522955,815.6709078137588) translate(65.9814814814815 31.006944444444436)"/></g><path d="M3814.86 1138.37a5 5 0 0 1 5-5h233.82a5 5 0 0 1 5 5v62.76a5 5 0 0 1-5 5h-233.82a5 5 0 0 1-5-5z" stroke="#1071e5" stroke-width="2" fill="#edf5ff"/><path d="M3831.64 1142.64a5 5 0 0 1 5-5h200.26a5 5 0 0 1 5 5v53.88a5 5 0 0 1-5 5h-200.26a5 5 0 0 1-5-5z" stroke="#979ea8" stroke-width="2" fill="#ffbbb1"/><g><use xlink:href="#j" transform="matrix(1,0,0,1,3836.6390456589197,1142.6387449422716) translate(6.632716049382751 33.597222222222214)"/></g><path d="M3410.06 1295.6a5 5 0 0 1 5-5h316.64a5 5 0 0 1 5 5v62.44a5 5 0 0 1-5 5h-316.64a5 5 0 0 1-5-5z" stroke="#1071e5" stroke-width="2" fill="#edf5ff"/><path d="M3425.28 1301.96a5 5 0 0 1 5-5h201.82a5 5 0 0 1 5 5v45.74a5 5 0 0 1-5 5h-201.82a5 5 0 0 1-5-5z" stroke="#979ea8" stroke-width="2" fill="#fc9432"/><g><use xlink:href="#g" transform="matrix(1,0,0,1,3430.281102798729,1301.964533082527) translate(1.574074074074062 28.86111111111111)"/></g><path d="M3646.13 1303.93a5 5 0 0 1 5-5h70.8a5 5 0 0 1 5 5v41.8a5 5 0 0 1-5 5h-70.8a5 5 0 0 1-5-5z" stroke="#979ea8" stroke-width="2" fill="#fff7a1"/><g><use xlink:href="#m" transform="matrix(1,0,0,1,3651.125238324351,1303.934070990669) translate(-1.351851851851798 27.666666666666657)"/></g><path d="M3815.83 804.6a5 5 0 0 1 5-5h316.64a5 5 0 0 1 5 5v62.43a5 5 0 0 1-5 5h-316.64a5 5 0 0 1-5-5z" stroke="#1071e5" stroke-width="2" fill="#edf5ff"/><path d="M3831.05 810.96a5 5 0 0 1 5-5h201.82a5 5 0 0 1 5 5v45.74a5 5 0 0 1-5 5h-201.82a5 5 0 0 1-5-5z" stroke="#979ea8" stroke-width="2" fill="#fc9432"/><g><use xlink:href="#g" transform="matrix(1,0,0,1,3836.0506915387855,810.9602487640195) translate(1.574074074074062 28.86111111111111)"/></g><path d="M4051.9 812.93a5 5 0 0 1 5-5h70.8a5 5 0 0 1 5 5v41.8a5 5 0 0 1-5 5h-70.8a5 5 0 0 1-5-5z" stroke="#979ea8" stroke-width="2" fill="#fff7a1"/><g><use xlink:href="#m" transform="matrix(1,0,0,1,4056.8948270644073,812.9297866721615) translate(-1.351851851851798 27.666666666666657)"/></g><path d="M3380 1485a5 5 0 0 1 5-5h809a5 5 0 0 1 5 5v110a5 5 0 0 1-5 5h-809a5 5 0 0 1-5-5z" stroke="#000" stroke-opacity="0" stroke-width="2" fill="#fff" fill-opacity="0"/><g><use xlink:href="#p" transform="matrix(1,0,0,1,3385,1485) translate(0 72.65277777777774)"/><use xlink:href="#q" transform="matrix(1,0,0,1,3385,1485) translate(207.61111111111097 72.65277777777774)"/><use xlink:href="#r" transform="matrix(1,0,0,1,3385,1485) translate(412.938271604938 72.65277777777774)"/><use xlink:href="#s" transform="matrix(1,0,0,1,3385,1485) translate(576.9259259259255 72.65277777777774)"/></g><path d="M2489.72 1595.5c0 2.48-2.02 4.5-4.5 4.5-2.5 0-4.5-2.02-4.5-4.5s2-4.5 4.5-4.5c2.48 0 4.5 2.02 4.5 4.5zm0-17.94c0 2.48-2.02 4.5-4.5 4.5-2.5 0-4.5-2.02-4.5-4.5 0-2.5 2-4.5 4.5-4.5 2.48 0 4.5 2 4.5 4.5zm0-17.95c0 2.5-2.02 4.5-4.5 4.5-2.5 0-4.5-2-4.5-4.5 0-2.47 2-4.5 4.5-4.5 2.48 0 4.5 2.03 4.5 4.5zm0-17.93c0 2.48-2.02 4.5-4.5 4.5-2.5 0-4.5-2.02-4.5-4.5 0-2.5 2-4.5 4.5-4.5 2.48 0 4.5 2 4.5 4.5zm0-17.94c0 2.48-2.02 4.5-4.5 4.5-2.5 0-4.5-2.02-4.5-4.5 0-2.5 2-4.5 4.5-4.5 2.48 0 4.5 2 4.5 4.5zm0-17.95c0 2.5-2.02 4.5-4.5 4.5-2.5 0-4.5-2-4.5-4.5 0-2.48 2-4.5 4.5-4.5 2.48 0 4.5 2.02 4.5 4.5zm0-17.94c0 2.5-2.02 4.5-4.5 4.5-2.5 0-4.5-2-4.5-4.5s2-4.5 4.5-4.5c2.48 0 4.5 2 4.5 4.5zm0-17.94c0 2.48-2.02 4.5-4.5 4.5-2.5 0-4.5-2.02-4.5-4.5 0-2.5 2-4.5 4.5-4.5 2.48 0 4.5 2 4.5 4.5zm0-17.95c0 2.5-2.02 4.5-4.5 4.5-2.5 0-4.5-2-4.5-4.5 0-2.48 2-4.5 4.5-4.5 2.48 0 4.5 2.02 4.5 4.5zm0-17.94c0 2.5-2.02 4.5-4.5 4.5-2.5 0-4.5-2-4.5-4.5 0-2.48 2-4.5 4.5-4.5 2.48 0 4.5 2.02 4.5 4.5zm0-17.93c0 2.48-2.02 4.5-4.5 4.5-2.5 0-4.5-2.02-4.5-4.5 0-2.5 2-4.5 4.5-4.5 2.48 0 4.5 2 4.5 4.5zm0-17.95c0 2.5-2.02 4.5-4.5 4.5-2.5 0-4.5-2-4.5-4.5 0-2.48 2-4.5 4.5-4.5 2.48 0 4.5 2.02 4.5 4.5zm0-17.94c0 2.48-2.02 4.5-4.5 4.5-2.5 0-4.5-2.02-4.5-4.5 0-2.5 2-4.5 4.5-4.5 2.48 0 4.5 2 4.5 4.5zm0-17.94c0 2.48-2.02 4.5-4.5 4.5-2.5 0-4.5-2.02-4.5-4.5 0-2.5 2-4.5 4.5-4.5 2.48 0 4.5 2 4.5 4.5zm0-17.95c0 2.48-2.02 4.5-4.5 4.5-2.5 0-4.5-2.02-4.5-4.5 0-2.5 2-4.5 4.5-4.5 2.48 0 4.5 2 4.5 4.5zm0-17.95c0 2.48-2.02 4.5-4.5 4.5-2.5 0-4.5-2.02-4.5-4.5 0-2.5 2-4.5 4.5-4.5 2.48 0 4.5 2 4.5 4.5zm0-17.94c0 2.5-2.02 4.5-4.5 4.5-2.5 0-4.5-2-4.5-4.5 0-2.48 2-4.5 4.5-4.5 2.48 0 4.5 2.02 4.5 4.5zm0-17.94c0 2.5-2.02 4.5-4.5 4.5-2.5 0-4.5-2-4.5-4.5 0-2.48 2-4.5 4.5-4.5 2.48 0 4.5 2.02 4.5 4.5zm0-17.94c0 2.48-2.02 4.5-4.5 4.5-2.5 0-4.5-2.02-4.5-4.5 0-2.5 2-4.5 4.5-4.5 2.48 0 4.5 2 4.5 4.5zm0-17.94c0 2.48-2.02 4.5-4.5 4.5-2.5 0-4.5-2.02-4.5-4.5 0-2.5 2-4.5 4.5-4.5 2.48 0 4.5 2 4.5 4.5zm0-17.95c0 2.5-2.02 4.5-4.5 4.5-2.5 0-4.5-2-4.5-4.5 0-2.48 2-4.5 4.5-4.5 2.48 0 4.5 2.02 4.5 4.5zm0-17.94c0 2.47-2.02 4.5-4.5 4.5-2.5 0-4.5-2.03-4.5-4.5 0-2.5 2-4.5 4.5-4.5 2.48 0 4.5 2 4.5 4.5zm0-17.96c0 2.5-2.02 4.5-4.5 4.5-2.5 0-4.5-2-4.5-4.5 0-2.48 2-4.5 4.5-4.5 2.48 0 4.5 2.02 4.5 4.5zm0-17.94c0 2.5-2.02 4.5-4.5 4.5-2.5 0-4.5-2-4.5-4.5 0-2.48 2-4.5 4.5-4.5 2.48 0 4.5 2.02 4.5 4.5zm0-17.94c0 2.48-2.02 4.5-4.5 4.5-2.5 0-4.5-2.02-4.5-4.5 0-2.5 2-4.5 4.5-4.5 2.48 0 4.5 2 4.5 4.5zm0-17.94c0 2.48-2.02 4.5-4.5 4.5-2.5 0-4.5-2.02-4.5-4.5 0-2.5 2-4.5 4.5-4.5 2.48 0 4.5 2 4.5 4.5zm0-17.95c0 2.5-2.02 4.5-4.5 4.5-2.5 0-4.5-2-4.5-4.5 0-2.48 2-4.5 4.5-4.5 2.48 0 4.5 2.02 4.5 4.5zm0-17.94c0 2.48-2.02 4.5-4.5 4.5-2.5 0-4.5-2.02-4.5-4.5 0-2.5 2-4.5 4.5-4.5 2.48 0 4.5 2 4.5 4.5zm0-17.94c0 2.47-2.02 4.5-4.5 4.5-2.5 0-4.5-2.03-4.5-4.5 0-2.5 2-4.5 4.5-4.5 2.48 0 4.5 2 4.5 4.5zm0-17.96c0 2.5-2.02 4.5-4.5 4.5-2.5 0-4.5-2-4.5-4.5 0-2.48 2-4.5 4.5-4.5 2.48 0 4.5 2.02 4.5 4.5zm0-17.94c0 2.48-2.02 4.5-4.5 4.5-2.5 0-4.5-2.02-4.5-4.5 0-2.5 2-4.5 4.5-4.5 2.48 0 4.5 2 4.5 4.5zm0-17.94c0 2.48-2.02 4.5-4.5 4.5-2.5 0-4.5-2.02-4.5-4.5 0-2.5 2-4.5 4.5-4.5 2.48 0 4.5 2 4.5 4.5zm0-17.95c0 2.5-2.02 4.5-4.5 4.5-2.5 0-4.5-2-4.5-4.5 0-2.47 2-4.5 4.5-4.5 2.48 0 4.5 2.03 4.5 4.5zm0-17.93c0 2.48-2.02 4.5-4.5 4.5-2.5 0-4.5-2.02-4.5-4.5 0-2.5 2-4.5 4.5-4.5 2.48 0 4.5 2 4.5 4.5zm0-17.95c0 2.5-2.02 4.5-4.5 4.5-2.5 0-4.5-2-4.5-4.5 0-2.48 2-4.5 4.5-4.5 2.48 0 4.5 2.02 4.5 4.5zm0-17.94c0 2.5-2.02 4.5-4.5 4.5-2.5 0-4.5-2-4.5-4.5 0-2.48 2-4.5 4.5-4.5 2.48 0 4.5 2.02 4.5 4.5zm0-17.94c0 2.48-2.02 4.5-4.5 4.5-2.5 0-4.5-2.02-4.5-4.5 0-2.5 2-4.5 4.5-4.5 2.48 0 4.5 2 4.5 4.5zm0-17.95c0 2.48-2.02 4.5-4.5 4.5-2.5 0-4.5-2.02-4.5-4.5 0-2.5 2-4.5 4.5-4.5 2.48 0 4.5 2 4.5 4.5zm0-17.95c0 2.5-2.02 4.5-4.5 4.5-2.5 0-4.5-2-4.5-4.5 0-2.48 2-4.5 4.5-4.5 2.48 0 4.5 2.02 4.5 4.5zm0-17.94c0 2.5-2.02 4.5-4.5 4.5-2.5 0-4.5-2-4.5-4.5 0-2.48 2-4.5 4.5-4.5 2.48 0 4.5 2.02 4.5 4.5zm0-17.94c0 2.5-2.02 4.5-4.5 4.5-2.5 0-4.5-2-4.5-4.5 0-2.48 2-4.5 4.5-4.5 2.48 0 4.5 2.02 4.5 4.5zm0-17.94c0 2.5-2.02 4.5-4.5 4.5-2.5 0-4.5-2-4.5-4.5s2-4.5 4.5-4.5c2.48 0 4.5 2 4.5 4.5zm0-17.94c0 2.48-2.02 4.5-4.5 4.5-2.5 0-4.5-2.02-4.5-4.5 0-2.5 2-4.5 4.5-4.5 2.48 0 4.5 2 4.5 4.5zm0-17.95c0 2.5-2.02 4.5-4.5 4.5-2.5 0-4.5-2-4.5-4.5 0-2.48 2-4.5 4.5-4.5 2.48 0 4.5 2.02 4.5 4.5zm0-17.94c0 2.48-2.02 4.5-4.5 4.5-2.5 0-4.5-2.02-4.5-4.5 0-2.5 2-4.5 4.5-4.5 2.48 0 4.5 2 4.5 4.5zm0-17.95c0 2.48-2.02 4.5-4.5 4.5-2.5 0-4.5-2.02-4.5-4.5 0-2.5 2-4.5 4.5-4.5 2.48 0 4.5 2 4.5 4.5zm0-17.95c0 2.5-2.02 4.5-4.5 4.5-2.5 0-4.5-2-4.5-4.5 0-2.48 2-4.5 4.5-4.5 2.48 0 4.5 2.02 4.5 4.5zm0-17.94c0 2.5-2.02 4.5-4.5 4.5-2.5 0-4.5-2-4.5-4.5s2-4.5 4.5-4.5c2.48 0 4.5 2 4.5 4.5zm0-17.94c0 2.48-2.02 4.5-4.5 4.5-2.5 0-4.5-2.02-4.5-4.5 0-2.5 2-4.5 4.5-4.5 2.48 0 4.5 2 4.5 4.5zm0-17.95c0 2.5-2.02 4.5-4.5 4.5-2.5 0-4.5-2-4.5-4.5 0-2.48 2-4.5 4.5-4.5 2.48 0 4.5 2.02 4.5 4.5zm0-17.94c0 2.5-2.02 4.5-4.5 4.5-2.5 0-4.5-2-4.5-4.5s2-4.5 4.5-4.5c2.48 0 4.5 2 4.5 4.5zm0-17.94c0 2.47-2.02 4.5-4.5 4.5-2.5 0-4.5-2.03-4.5-4.5 0-2.5 2-4.5 4.5-4.5 2.48 0 4.5 2 4.5 4.5zm0-17.96c0 2.5-2.02 4.5-4.5 4.5-2.5 0-4.5-2-4.5-4.5 0-2.48 2-4.5 4.5-4.5 2.48 0 4.5 2.02 4.5 4.5zm0-17.94c0 2.5-2.02 4.5-4.5 4.5-2.5 0-4.5-2-4.5-4.5s2-4.5 4.5-4.5c2.48 0 4.5 2 4.5 4.5z" fill="#0c7cba"/><path d="M2485.22 1595.38v4.62M2485.22 644.6V640" stroke="#0c7cba" stroke-width="9" fill="none"/><path d="M3344.5 1595.5c0 2.48-2 4.5-4.5 4.5s-4.5-2.02-4.5-4.5 2-4.5 4.5-4.5 4.5 2.02 4.5 4.5zm0-17.94c0 2.48-2 4.5-4.5 4.5s-4.5-2.02-4.5-4.5c0-2.5 2-4.5 4.5-4.5s4.5 2 4.5 4.5zm0-17.95c0 2.5-2 4.5-4.5 4.5s-4.5-2-4.5-4.5c0-2.47 2-4.5 4.5-4.5s4.5 2.03 4.5 4.5zm0-17.93c0 2.48-2 4.5-4.5 4.5s-4.5-2.02-4.5-4.5c0-2.5 2-4.5 4.5-4.5s4.5 2 4.5 4.5zm0-17.94c0 2.48-2 4.5-4.5 4.5s-4.5-2.02-4.5-4.5c0-2.5 2-4.5 4.5-4.5s4.5 2 4.5 4.5zm0-17.95c0 2.5-2 4.5-4.5 4.5s-4.5-2-4.5-4.5c0-2.48 2-4.5 4.5-4.5s4.5 2.02 4.5 4.5zm0-17.94c0 2.5-2 4.5-4.5 4.5s-4.5-2-4.5-4.5 2-4.5 4.5-4.5 4.5 2 4.5 4.5zm0-17.94c0 2.48-2 4.5-4.5 4.5s-4.5-2.02-4.5-4.5c0-2.5 2-4.5 4.5-4.5s4.5 2 4.5 4.5zm0-17.95c0 2.5-2 4.5-4.5 4.5s-4.5-2-4.5-4.5c0-2.48 2-4.5 4.5-4.5s4.5 2.02 4.5 4.5zm0-17.94c0 2.5-2 4.5-4.5 4.5s-4.5-2-4.5-4.5c0-2.48 2-4.5 4.5-4.5s4.5 2.02 4.5 4.5zm0-17.93c0 2.48-2 4.5-4.5 4.5s-4.5-2.02-4.5-4.5c0-2.5 2-4.5 4.5-4.5s4.5 2 4.5 4.5zm0-17.95c0 2.5-2 4.5-4.5 4.5s-4.5-2-4.5-4.5c0-2.48 2-4.5 4.5-4.5s4.5 2.02 4.5 4.5zm0-17.94c0 2.48-2 4.5-4.5 4.5s-4.5-2.02-4.5-4.5c0-2.5 2-4.5 4.5-4.5s4.5 2 4.5 4.5zm0-17.94c0 2.48-2 4.5-4.5 4.5s-4.5-2.02-4.5-4.5c0-2.5 2-4.5 4.5-4.5s4.5 2 4.5 4.5zm0-17.95c0 2.48-2 4.5-4.5 4.5s-4.5-2.02-4.5-4.5c0-2.5 2-4.5 4.5-4.5s4.5 2 4.5 4.5zm0-17.95c0 2.48-2 4.5-4.5 4.5s-4.5-2.02-4.5-4.5c0-2.5 2-4.5 4.5-4.5s4.5 2 4.5 4.5zm0-17.94c0 2.5-2 4.5-4.5 4.5s-4.5-2-4.5-4.5c0-2.48 2-4.5 4.5-4.5s4.5 2.02 4.5 4.5zm0-17.94c0 2.5-2 4.5-4.5 4.5s-4.5-2-4.5-4.5c0-2.48 2-4.5 4.5-4.5s4.5 2.02 4.5 4.5zm0-17.94c0 2.48-2 4.5-4.5 4.5s-4.5-2.02-4.5-4.5c0-2.5 2-4.5 4.5-4.5s4.5 2 4.5 4.5zm0-17.94c0 2.48-2 4.5-4.5 4.5s-4.5-2.02-4.5-4.5c0-2.5 2-4.5 4.5-4.5s4.5 2 4.5 4.5zm0-17.95c0 2.5-2 4.5-4.5 4.5s-4.5-2-4.5-4.5c0-2.48 2-4.5 4.5-4.5s4.5 2.02 4.5 4.5zm0-17.94c0 2.47-2 4.5-4.5 4.5s-4.5-2.03-4.5-4.5c0-2.5 2-4.5 4.5-4.5s4.5 2 4.5 4.5zm0-17.96c0 2.5-2 4.5-4.5 4.5s-4.5-2-4.5-4.5c0-2.48 2-4.5 4.5-4.5s4.5 2.02 4.5 4.5zm0-17.94c0 2.5-2 4.5-4.5 4.5s-4.5-2-4.5-4.5c0-2.48 2-4.5 4.5-4.5s4.5 2.02 4.5 4.5zm0-17.94c0 2.48-2 4.5-4.5 4.5s-4.5-2.02-4.5-4.5c0-2.5 2-4.5 4.5-4.5s4.5 2 4.5 4.5zm0-17.94c0 2.48-2 4.5-4.5 4.5s-4.5-2.02-4.5-4.5c0-2.5 2-4.5 4.5-4.5s4.5 2 4.5 4.5zm0-17.95c0 2.5-2 4.5-4.5 4.5s-4.5-2-4.5-4.5c0-2.48 2-4.5 4.5-4.5s4.5 2.02 4.5 4.5zm0-17.94c0 2.48-2 4.5-4.5 4.5s-4.5-2.02-4.5-4.5c0-2.5 2-4.5 4.5-4.5s4.5 2 4.5 4.5zm0-17.94c0 2.47-2 4.5-4.5 4.5s-4.5-2.03-4.5-4.5c0-2.5 2-4.5 4.5-4.5s4.5 2 4.5 4.5zm0-17.96c0 2.5-2 4.5-4.5 4.5s-4.5-2-4.5-4.5c0-2.48 2-4.5 4.5-4.5s4.5 2.02 4.5 4.5zm0-17.94c0 2.48-2 4.5-4.5 4.5s-4.5-2.02-4.5-4.5c0-2.5 2-4.5 4.5-4.5s4.5 2 4.5 4.5zm0-17.94c0 2.48-2 4.5-4.5 4.5s-4.5-2.02-4.5-4.5c0-2.5 2-4.5 4.5-4.5s4.5 2 4.5 4.5zm0-17.95c0 2.5-2 4.5-4.5 4.5s-4.5-2-4.5-4.5c0-2.47 2-4.5 4.5-4.5s4.5 2.03 4.5 4.5zm0-17.93c0 2.48-2 4.5-4.5 4.5s-4.5-2.02-4.5-4.5c0-2.5 2-4.5 4.5-4.5s4.5 2 4.5 4.5zm0-17.95c0 2.5-2 4.5-4.5 4.5s-4.5-2-4.5-4.5c0-2.48 2-4.5 4.5-4.5s4.5 2.02 4.5 4.5zm0-17.94c0 2.5-2 4.5-4.5 4.5s-4.5-2-4.5-4.5c0-2.48 2-4.5 4.5-4.5s4.5 2.02 4.5 4.5zm0-17.94c0 2.48-2 4.5-4.5 4.5s-4.5-2.02-4.5-4.5c0-2.5 2-4.5 4.5-4.5s4.5 2 4.5 4.5zm0-17.95c0 2.48-2 4.5-4.5 4.5s-4.5-2.02-4.5-4.5c0-2.5 2-4.5 4.5-4.5s4.5 2 4.5 4.5zm0-17.95c0 2.5-2 4.5-4.5 4.5s-4.5-2-4.5-4.5c0-2.48 2-4.5 4.5-4.5s4.5 2.02 4.5 4.5zm0-17.94c0 2.5-2 4.5-4.5 4.5s-4.5-2-4.5-4.5c0-2.48 2-4.5 4.5-4.5s4.5 2.02 4.5 4.5zm0-17.94c0 2.5-2 4.5-4.5 4.5s-4.5-2-4.5-4.5c0-2.48 2-4.5 4.5-4.5s4.5 2.02 4.5 4.5zm0-17.94c0 2.5-2 4.5-4.5 4.5s-4.5-2-4.5-4.5 2-4.5 4.5-4.5 4.5 2 4.5 4.5zm0-17.94c0 2.48-2 4.5-4.5 4.5s-4.5-2.02-4.5-4.5c0-2.5 2-4.5 4.5-4.5s4.5 2 4.5 4.5zm0-17.95c0 2.5-2 4.5-4.5 4.5s-4.5-2-4.5-4.5c0-2.48 2-4.5 4.5-4.5s4.5 2.02 4.5 4.5zm0-17.94c0 2.48-2 4.5-4.5 4.5s-4.5-2.02-4.5-4.5c0-2.5 2-4.5 4.5-4.5s4.5 2 4.5 4.5zm0-17.95c0 2.48-2 4.5-4.5 4.5s-4.5-2.02-4.5-4.5c0-2.5 2-4.5 4.5-4.5s4.5 2 4.5 4.5zm0-17.95c0 2.5-2 4.5-4.5 4.5s-4.5-2-4.5-4.5c0-2.48 2-4.5 4.5-4.5s4.5 2.02 4.5 4.5zm0-17.94c0 2.5-2 4.5-4.5 4.5s-4.5-2-4.5-4.5 2-4.5 4.5-4.5 4.5 2 4.5 4.5zm0-17.94c0 2.48-2 4.5-4.5 4.5s-4.5-2.02-4.5-4.5c0-2.5 2-4.5 4.5-4.5s4.5 2 4.5 4.5zm0-17.95c0 2.5-2 4.5-4.5 4.5s-4.5-2-4.5-4.5c0-2.48 2-4.5 4.5-4.5s4.5 2.02 4.5 4.5zm0-17.94c0 2.5-2 4.5-4.5 4.5s-4.5-2-4.5-4.5 2-4.5 4.5-4.5 4.5 2 4.5 4.5zm0-17.94c0 2.47-2 4.5-4.5 4.5s-4.5-2.03-4.5-4.5c0-2.5 2-4.5 4.5-4.5s4.5 2 4.5 4.5zm0-17.96c0 2.5-2 4.5-4.5 4.5s-4.5-2-4.5-4.5c0-2.48 2-4.5 4.5-4.5s4.5 2.02 4.5 4.5zm0-17.94c0 2.5-2 4.5-4.5 4.5s-4.5-2-4.5-4.5 2-4.5 4.5-4.5 4.5 2 4.5 4.5z" fill="#0c7cba"/><path d="M3340 1595.38v4.62M3340 644.6V640" stroke="#0c7cba" stroke-width="9" fill="none"/><path d="M937.17 1392.26a5 5 0 0 1 5-5h637.66a5 5 0 0 1 5 5v213.33a5 5 0 0 1-5 5H942.17a5 5 0 0 1-5-5z" stroke="#3a414a" fill="#fff"/><g><use xlink:href="#t" transform="matrix(1,0,0,1,942.1743191268085,1392.2596901547915) translate(8.135802469136763 77.79861111111089)"/><use xlink:href="#u" transform="matrix(1,0,0,1,942.1743191268085,1392.2596901547915) translate(190.85185185185225 77.79861111111089)"/><use xlink:href="#v" transform="matrix(1,0,0,1,942.1743191268085,1392.2596901547915) translate(526.4074074074067 77.79861111111089)"/><use xlink:href="#w" transform="matrix(1,0,0,1,942.1743191268085,1392.2596901547915) translate(1.2222222222232517 184.4652777777772)"/><use xlink:href="#x" transform="matrix(1,0,0,1,942.1743191268085,1392.2596901547915) translate(227.8888888888892 184.4652777777772)"/></g><path d="M2505.22 1490.3a5 5 0 0 1 5-5h779.52a5 5 0 0 1 5 5v90a5 5 0 0 1-5 5h-779.52a5 5 0 0 1-5-5z" stroke="#000" stroke-opacity="0" stroke-width="2" fill="#fff" fill-opacity="0"/><g><use xlink:href="#p" transform="matrix(1,0,0,1,2510.217891318659,1490.2965117440622) translate(71.7314814814817 68.59027777777774)"/><use xlink:href="#q" transform="matrix(1,0,0,1,2510.217891318659,1490.2965117440622) translate(279.34259259259267 68.59027777777774)"/><use xlink:href="#s" transform="matrix(1,0,0,1,2510.217891318659,1490.2965117440622) translate(484.6697530864197 68.59027777777774)"/></g><path d="M1681 1485a5 5 0 0 1 5-5h760.4a5 5 0 0 1 5 5v90a5 5 0 0 1-5 5H1686a5 5 0 0 1-5-5z" stroke="#000" stroke-opacity="0" stroke-width="2" fill="#fff" fill-opacity="0"/><g><use xlink:href="#p" transform="matrix(1,0,0,1,1685.9999403690335,1485) translate(164.8950617283952 68.59027777777774)"/><use xlink:href="#s" transform="matrix(1,0,0,1,1685.9999403690335,1485) translate(372.5061728395062 68.59027777777774)"/></g><defs><path d="M30-248c87 1 191-15 191 75 0 78-77 80-158 76V0H30v-248zm33 125c57 0 124 11 124-50 0-59-68-47-124-48v98" id="y"/><path d="M233-177c-1 41-23 64-60 70L243 0h-38l-65-103H63V0H30v-248c88 3 205-21 203 71zM63-129c60-2 137 13 137-47 0-61-80-42-137-45v92" id="z"/><g id="a"><use transform="matrix(0.2469135802469128,0,0,0.2469135802469128,0,0)" xlink:href="#y"/><use transform="matrix(0.2469135802469128,0,0,0.2469135802469128,59.25925925925907,0)" xlink:href="#z"/></g><path d="M100-194c63 0 86 42 84 106H49c0 40 14 67 53 68 26 1 43-12 49-29l28 8c-11 28-37 45-77 45C44 4 14-33 15-96c1-61 26-98 85-98zm52 81c6-60-76-77-97-28-3 7-6 17-6 28h103" id="A"/><path d="M141-36C126-15 110 5 73 4 37 3 15-17 15-53c-1-64 63-63 125-63 3-35-9-54-41-54-24 1-41 7-42 31l-33-3c5-37 33-52 76-52 45 0 72 20 72 64v82c-1 20 7 32 28 27v20c-31 9-61-2-59-35zM48-53c0 20 12 33 32 33 41-3 63-29 60-74-43 2-92-5-92 41" id="B"/><path d="M85-194c31 0 48 13 60 33l-1-100h32l1 261h-30c-2-10 0-23-3-31C134-8 116 4 85 4 32 4 16-35 15-94c0-66 23-100 70-100zm9 24c-40 0-46 34-46 75 0 40 6 74 45 74 42 0 51-32 51-76 0-42-9-74-50-73" id="C"/><path d="M0 4l72-265h28L28 4H0" id="D"/><path d="M266 0h-40l-56-210L115 0H75L2-248h35L96-30l15-64 43-154h32l59 218 59-218h35" id="E"/><path d="M114-163C36-179 61-72 57 0H25l-1-190h30c1 12-1 29 2 39 6-27 23-49 58-41v29" id="F"/><path d="M24-231v-30h32v30H24zM24 0v-190h32V0H24" id="G"/><path d="M59-47c-2 24 18 29 38 22v24C64 9 27 4 27-40v-127H5v-23h24l9-43h21v43h35v23H59v120" id="H"/><g id="c"><use transform="matrix(0.0864197530864197,0,0,0.0864197530864197,0,0)" xlink:href="#z"/><use transform="matrix(0.0864197530864197,0,0,0.0864197530864197,22.382716049382704,0)" xlink:href="#A"/><use transform="matrix(0.0864197530864197,0,0,0.0864197530864197,39.66666666666664,0)" xlink:href="#B"/><use transform="matrix(0.0864197530864197,0,0,0.0864197530864197,56.950617283950585,0)" xlink:href="#C"/><use transform="matrix(0.0864197530864197,0,0,0.0864197530864197,74.23456790123453,0)" xlink:href="#D"/><use transform="matrix(0.0864197530864197,0,0,0.0864197530864197,82.8765432098765,0)" xlink:href="#E"/><use transform="matrix(0.0864197530864197,0,0,0.0864197530864197,111.56790123456784,0)" xlink:href="#F"/><use transform="matrix(0.0864197530864197,0,0,0.0864197530864197,121.85185185185179,0)" xlink:href="#G"/><use transform="matrix(0.0864197530864197,0,0,0.0864197530864197,128.67901234567896,0)" xlink:href="#H"/><use transform="matrix(0.0864197530864197,0,0,0.0864197530864197,137.32098765432093,0)" xlink:href="#A"/></g><path d="M240 0l2-218c-23 76-54 145-80 218h-23L58-218 59 0H30v-248h44l77 211c21-75 51-140 76-211h43V0h-30" id="I"/><path d="M210-169c-67 3-38 105-44 169h-31v-121c0-29-5-50-35-48C34-165 62-65 56 0H25l-1-190h30c1 10-1 24 2 32 10-44 99-50 107 0 11-21 27-35 58-36 85-2 47 119 55 194h-31v-121c0-29-5-49-35-48" id="J"/><path d="M100-194c62-1 85 37 85 99 1 63-27 99-86 99S16-35 15-95c0-66 28-99 85-99zM99-20c44 1 53-31 53-75 0-43-8-75-51-75s-53 32-53 75 10 74 51 75" id="K"/><path d="M179-190L93 31C79 59 56 82 12 73V49c39 6 53-20 64-50L1-190h34L92-34l54-156h33" id="L"/><g id="d"><use transform="matrix(0.0864197530864197,0,0,0.0864197530864197,0,0)" xlink:href="#I"/><use transform="matrix(0.0864197530864197,0,0,0.0864197530864197,25.839506172839492,0)" xlink:href="#A"/><use transform="matrix(0.0864197530864197,0,0,0.0864197530864197,43.123456790123434,0)" xlink:href="#J"/><use transform="matrix(0.0864197530864197,0,0,0.0864197530864197,68.96296296296293,0)" xlink:href="#K"/><use transform="matrix(0.0864197530864197,0,0,0.0864197530864197,86.24691358024688,0)" xlink:href="#F"/><use transform="matrix(0.0864197530864197,0,0,0.0864197530864197,96.53086419753083,0)" xlink:href="#L"/></g><path d="M145-31C134-9 116 4 85 4 32 4 16-35 15-94c0-59 17-99 70-100 32-1 48 14 60 33 0-11-1-24 2-32h30l-1 268h-32zM93-21c41 0 51-33 51-76s-8-73-50-73c-40 0-46 35-46 75s5 74 45 74" id="M"/><path d="M84 4C-5 8 30-112 23-190h32v120c0 31 7 50 39 49 72-2 45-101 50-169h31l1 190h-30c-1-10 1-25-2-33-11 22-28 36-60 37" id="N"/><path d="M135-143c-3-34-86-38-87 0 15 53 115 12 119 90S17 21 10-45l28-5c4 36 97 45 98 0-10-56-113-15-118-90-4-57 82-63 122-42 12 7 21 19 24 35" id="O"/><path d="M115-194c55 1 70 41 70 98S169 2 115 4C84 4 66-9 55-30l1 105H24l-1-265h31l2 30c10-21 28-34 59-34zm-8 174c40 0 45-34 45-75s-6-73-45-74c-42 0-51 32-51 76 0 43 10 73 51 73" id="P"/><path d="M117-194c89-4 53 116 60 194h-32v-121c0-31-8-49-39-48C34-167 62-67 57 0H25l-1-190h30c1 10-1 24 2 32 11-22 29-35 61-36" id="Q"/><g id="e"><use transform="matrix(0.0864197530864197,0,0,0.0864197530864197,0,0)" xlink:href="#z"/><use transform="matrix(0.0864197530864197,0,0,0.0864197530864197,22.382716049382704,0)" xlink:href="#A"/><use transform="matrix(0.0864197530864197,0,0,0.0864197530864197,39.66666666666664,0)" xlink:href="#M"/><use transform="matrix(0.0864197530864197,0,0,0.0864197530864197,56.950617283950585,0)" xlink:href="#N"/><use transform="matrix(0.0864197530864197,0,0,0.0864197530864197,74.23456790123453,0)" xlink:href="#A"/><use transform="matrix(0.0864197530864197,0,0,0.0864197530864197,91.51851851851848,0)" xlink:href="#O"/><use transform="matrix(0.0864197530864197,0,0,0.0864197530864197,107.07407407407402,0)" xlink:href="#H"/><use transform="matrix(0.0864197530864197,0,0,0.0864197530864197,115.716049382716,0)" xlink:href="#O"/><use transform="matrix(0.0864197530864197,0,0,0.0864197530864197,131.27160493827154,0)" xlink:href="#D"/><use transform="matrix(0.0864197530864197,0,0,0.0864197530864197,139.9135802469135,0)" xlink:href="#z"/><use transform="matrix(0.0864197530864197,0,0,0.0864197530864197,162.29629629629622,0)" xlink:href="#A"/><use transform="matrix(0.0864197530864197,0,0,0.0864197530864197,179.58024691358014,0)" xlink:href="#O"/><use transform="matrix(0.0864197530864197,0,0,0.0864197530864197,195.1358024691357,0)" xlink:href="#P"/><use transform="matrix(0.0864197530864197,0,0,0.0864197530864197,212.4197530864197,0)" xlink:href="#K"/><use transform="matrix(0.0864197530864197,0,0,0.0864197530864197,229.7037037037036,0)" xlink:href="#Q"/><use transform="matrix(0.0864197530864197,0,0,0.0864197530864197,246.98765432098756,0)" xlink:href="#O"/><use transform="matrix(0.0864197530864197,0,0,0.0864197530864197,262.54320987654313,0)" xlink:href="#A"/><use transform="matrix(0.0864197530864197,0,0,0.0864197530864197,279.8271604938271,0)" xlink:href="#O"/></g><path d="M205 0l-28-72H64L36 0H1l101-248h38L239 0h-34zm-38-99l-47-123c-12 45-31 82-46 123h93" id="R"/><path d="M115-194c53 0 69 39 70 98 0 66-23 100-70 100C84 3 66-7 56-30L54 0H23l1-261h32v101c10-23 28-34 59-34zm-8 174c40 0 45-34 45-75 0-40-5-75-45-74-42 0-51 32-51 76 0 43 10 73 51 73" id="S"/><g id="f"><use transform="matrix(0.0864197530864197,0,0,0.0864197530864197,0,0)" xlink:href="#R"/><use transform="matrix(0.0864197530864197,0,0,0.0864197530864197,20.74074074074073,0)" xlink:href="#F"/><use transform="matrix(0.0864197530864197,0,0,0.0864197530864197,31.024691358024675,0)" xlink:href="#S"/><use transform="matrix(0.0864197530864197,0,0,0.0864197530864197,48.30864197530862,0)" xlink:href="#G"/><use transform="matrix(0.0864197530864197,0,0,0.0864197530864197,55.135802469135776,0)" xlink:href="#H"/><use transform="matrix(0.0864197530864197,0,0,0.0864197530864197,63.77777777777774,0)" xlink:href="#F"/><use transform="matrix(0.0864197530864197,0,0,0.0864197530864197,74.06172839506169,0)" xlink:href="#B"/><use transform="matrix(0.0864197530864197,0,0,0.0864197530864197,91.34567901234566,0)" xlink:href="#H"/><use transform="matrix(0.0864197530864197,0,0,0.0864197530864197,99.98765432098762,0)" xlink:href="#G"/><use transform="matrix(0.0864197530864197,0,0,0.0864197530864197,106.81481481481475,0)" xlink:href="#K"/><use transform="matrix(0.0864197530864197,0,0,0.0864197530864197,124.0987654320987,0)" xlink:href="#Q"/></g><path d="M212-179c-10-28-35-45-73-45-59 0-87 40-87 99 0 60 29 101 89 101 43 0 62-24 78-52l27 14C228-24 195 4 139 4 59 4 22-46 18-125c-6-104 99-153 187-111 19 9 31 26 39 46" id="T"/><path d="M185-189c-5-48-123-54-124 2 14 75 158 14 163 119 3 78-121 87-175 55-17-10-28-26-33-46l33-7c5 56 141 63 141-1 0-78-155-14-162-118-5-82 145-84 179-34 5 7 8 16 11 25" id="U"/><path d="M96-169c-40 0-48 33-48 73s9 75 48 75c24 0 41-14 43-38l32 2c-6 37-31 61-74 61-59 0-76-41-82-99-10-93 101-131 147-64 4 7 5 14 7 22l-32 3c-4-21-16-35-41-35" id="V"/><g id="g"><use transform="matrix(0.08024691358024691,0,0,0.08024691358024691,0,0)" xlink:href="#T"/><use transform="matrix(0.08024691358024691,0,0,0.08024691358024691,20.78395061728395,0)" xlink:href="#U"/><use transform="matrix(0.08024691358024691,0,0,0.08024691358024691,40.04320987654321,0)" xlink:href="#z"/><use transform="matrix(0.08024691358024691,0,0,0.08024691358024691,60.82716049382716,0)" xlink:href="#D"/><use transform="matrix(0.08024691358024691,0,0,0.08024691358024691,68.85185185185185,0)" xlink:href="#U"/><use transform="matrix(0.08024691358024691,0,0,0.08024691358024691,88.1111111111111,0)" xlink:href="#A"/><use transform="matrix(0.08024691358024691,0,0,0.08024691358024691,104.1604938271605,0)" xlink:href="#M"/><use transform="matrix(0.08024691358024691,0,0,0.08024691358024691,120.20987654320987,0)" xlink:href="#N"/><use transform="matrix(0.08024691358024691,0,0,0.08024691358024691,136.25925925925927,0)" xlink:href="#A"/><use transform="matrix(0.08024691358024691,0,0,0.08024691358024691,152.30864197530866,0)" xlink:href="#Q"/><use transform="matrix(0.08024691358024691,0,0,0.08024691358024691,168.35802469135805,0)" xlink:href="#V"/><use transform="matrix(0.08024691358024691,0,0,0.08024691358024691,182.80246913580248,0)" xlink:href="#A"/></g><path d="M63-220v92h138v28H63V0H30v-248h175v28H63" id="W"/><path d="M206 0h-36l-40-164L89 0H53L-1-190h32L70-26l43-164h34l41 164 42-164h31" id="X"/><g id="h"><use transform="matrix(0.08641975308641973,0,0,0.08641975308641973,0,0)" xlink:href="#W"/><use transform="matrix(0.08641975308641973,0,0,0.08641975308641973,18.92592592592592,0)" xlink:href="#K"/><use transform="matrix(0.08641975308641973,0,0,0.08641975308641973,36.209876543209866,0)" xlink:href="#F"/><use transform="matrix(0.08641975308641973,0,0,0.08641975308641973,46.493827160493815,0)" xlink:href="#X"/><use transform="matrix(0.08641975308641973,0,0,0.08641975308641973,68.87654320987653,0)" xlink:href="#B"/><use transform="matrix(0.08641975308641973,0,0,0.08641975308641973,86.16049382716048,0)" xlink:href="#F"/><use transform="matrix(0.08641975308641973,0,0,0.08641975308641973,96.44444444444443,0)" xlink:href="#C"/></g><path d="M160-131c35 5 61 23 61 61C221 17 115-2 30 0v-248c76 3 177-17 177 60 0 33-19 50-47 57zm-97-11c50-1 110 9 110-42 0-47-63-36-110-37v79zm0 115c55-2 124 14 124-45 0-56-70-42-124-44v89" id="Y"/><path d="M101-234c-31-9-42 10-38 44h38v23H63V0H32v-167H5v-23h27c-7-52 17-82 69-68v24" id="Z"/><g id="i"><use transform="matrix(0.08641975308641973,0,0,0.08641975308641973,0,0)" xlink:href="#Y"/><use transform="matrix(0.08641975308641973,0,0,0.08641975308641973,20.740740740740737,0)" xlink:href="#N"/><use transform="matrix(0.08641975308641973,0,0,0.08641975308641973,38.02469135802468,0)" xlink:href="#Z"/><use transform="matrix(0.08641975308641973,0,0,0.08641975308641973,46.06172839506172,0)" xlink:href="#Z"/><use transform="matrix(0.08641975308641973,0,0,0.08641975308641973,54.703703703703695,0)" xlink:href="#A"/><use transform="matrix(0.08641975308641973,0,0,0.08641975308641973,71.98765432098764,0)" xlink:href="#F"/></g><g id="j"><use transform="matrix(0.10493827160493824,0,0,0.10493827160493824,0,0)" xlink:href="#z"/><use transform="matrix(0.10493827160493824,0,0,0.10493827160493824,27.179012345679002,0)" xlink:href="#A"/><use transform="matrix(0.10493827160493824,0,0,0.10493827160493824,48.16666666666665,0)" xlink:href="#B"/><use transform="matrix(0.10493827160493824,0,0,0.10493827160493824,69.1543209876543,0)" xlink:href="#C"/><use transform="matrix(0.10493827160493824,0,0,0.10493827160493824,90.14197530864195,0)" xlink:href="#D"/><use transform="matrix(0.10493827160493824,0,0,0.10493827160493824,100.63580246913577,0)" xlink:href="#E"/><use transform="matrix(0.10493827160493824,0,0,0.10493827160493824,135.47530864197526,0)" xlink:href="#F"/><use transform="matrix(0.10493827160493824,0,0,0.10493827160493824,147.9629629629629,0)" xlink:href="#G"/><use transform="matrix(0.10493827160493824,0,0,0.10493827160493824,156.25308641975303,0)" xlink:href="#H"/><use transform="matrix(0.10493827160493824,0,0,0.10493827160493824,166.74691358024685,0)" xlink:href="#A"/></g><path d="M30 0v-248h33v221h125V0H30" id="aa"/><path d="M232-93c-1 65-40 97-104 97C67 4 28-28 28-90v-158h33c8 89-33 224 67 224 102 0 64-133 71-224h33v155" id="ab"/><g id="k"><use transform="matrix(0.0987654320987654,0,0,0.0987654320987654,0,0)" xlink:href="#R"/><use transform="matrix(0.0987654320987654,0,0,0.0987654320987654,23.703703703703695,0)" xlink:href="#aa"/><use transform="matrix(0.0987654320987654,0,0,0.0987654320987654,43.45679012345677,0)" xlink:href="#ab"/></g><g id="l"><use transform="matrix(0.2469135802469128,0,0,0.2469135802469128,0,0)" xlink:href="#Y"/><use transform="matrix(0.2469135802469128,0,0,0.2469135802469128,59.25925925925907,0)" xlink:href="#W"/><use transform="matrix(0.2469135802469128,0,0,0.2469135802469128,113.33333333333297,0)" xlink:href="#U"/></g><path d="M24 0v-261h32V0H24" id="ac"/><g id="m"><use transform="matrix(0.09259259259259246,0,0,0.09259259259259246,0,0)" xlink:href="#W"/><use transform="matrix(0.09259259259259246,0,0,0.09259259259259246,20.27777777777775,0)" xlink:href="#G"/><use transform="matrix(0.09259259259259246,0,0,0.09259259259259246,27.592592592592553,0)" xlink:href="#ac"/><use transform="matrix(0.09259259259259246,0,0,0.09259259259259246,34.907407407407355,0)" xlink:href="#H"/><use transform="matrix(0.09259259259259246,0,0,0.09259259259259246,44.1666666666666,0)" xlink:href="#A"/><use transform="matrix(0.09259259259259246,0,0,0.09259259259259246,62.685185185185084,0)" xlink:href="#F"/></g><g id="n"><use transform="matrix(0.2469135802469128,0,0,0.2469135802469128,0,0)" xlink:href="#T"/><use transform="matrix(0.2469135802469128,0,0,0.2469135802469128,63.950617283950415,0)" xlink:href="#T"/></g><path d="M127-220V0H93v-220H8v-28h204v28h-85" id="ad"/><g id="o"><use transform="matrix(0.2469135802469128,0,0,0.2469135802469128,0,0)" xlink:href="#ad"/><use transform="matrix(0.2469135802469128,0,0,0.2469135802469128,54.0740740740739,0)" xlink:href="#T"/></g><path fill="#008a0e" d="M118-107v75H92v-75H18v-26h74v-75h26v75h74v26h-74" id="ae"/><path fill="#0c7cba" d="M30-248c87 1 191-15 191 75 0 78-77 80-158 76V0H30v-248zm33 125c57 0 124 11 124-50 0-59-68-47-124-48v98" id="af"/><path fill="#0c7cba" d="M233-177c-1 41-23 64-60 70L243 0h-38l-65-103H63V0H30v-248c88 3 205-21 203 71zM63-129c60-2 137 13 137-47 0-61-80-42-137-45v92" id="ag"/><path fill="#0c7cba" d="M68-38c1 34 0 65-14 84H32c9-13 17-26 17-46H33v-38h35" id="ah"/><g id="p"><use transform="matrix(0.2283950617283949,0,0,0.2283950617283949,0,0)" xlink:href="#ae"/><use transform="matrix(0.2283950617283949,0,0,0.2283950617283949,47.96296296296293,0)" xlink:href="#af"/><use transform="matrix(0.2283950617283949,0,0,0.2283950617283949,102.77777777777771,0)" xlink:href="#ag"/><use transform="matrix(0.2283950617283949,0,0,0.2283950617283949,161.932098765432,0)" xlink:href="#ah"/></g><path fill="#0c7cba" d="M160-131c35 5 61 23 61 61C221 17 115-2 30 0v-248c76 3 177-17 177 60 0 33-19 50-47 57zm-97-11c50-1 110 9 110-42 0-47-63-36-110-37v79zm0 115c55-2 124 14 124-45 0-56-70-42-124-44v89" id="ai"/><path fill="#0c7cba" d="M63-220v92h138v28H63V0H30v-248h175v28H63" id="aj"/><path fill="#0c7cba" d="M185-189c-5-48-123-54-124 2 14 75 158 14 163 119 3 78-121 87-175 55-17-10-28-26-33-46l33-7c5 56 141 63 141-1 0-78-155-14-162-118-5-82 145-84 179-34 5 7 8 16 11 25" id="ak"/><g id="q"><use transform="matrix(0.2283950617283949,0,0,0.2283950617283949,0,0)" xlink:href="#ai"/><use transform="matrix(0.2283950617283949,0,0,0.2283950617283949,54.81481481481478,0)" xlink:href="#aj"/><use transform="matrix(0.2283950617283949,0,0,0.2283950617283949,104.83333333333326,0)" xlink:href="#ak"/><use transform="matrix(0.2283950617283949,0,0,0.2283950617283949,159.64814814814804,0)" xlink:href="#ah"/></g><path fill="#0c7cba" d="M212-179c-10-28-35-45-73-45-59 0-87 40-87 99 0 60 29 101 89 101 43 0 62-24 78-52l27 14C228-24 195 4 139 4 59 4 22-46 18-125c-6-104 99-153 187-111 19 9 31 26 39 46" id="al"/><g id="r"><use transform="matrix(0.2283950617283949,0,0,0.2283950617283949,0,0)" xlink:href="#al"/><use transform="matrix(0.2283950617283949,0,0,0.2283950617283949,59.15432098765428,0)" xlink:href="#al"/><use transform="matrix(0.2283950617283949,0,0,0.2283950617283949,118.30864197530856,0)" xlink:href="#ah"/></g><path fill="#0c7cba" d="M115-194c55 1 70 41 70 98S169 2 115 4C84 4 66-9 55-30l1 105H24l-1-265h31l2 30c10-21 28-34 59-34zm-8 174c40 0 45-34 45-75s-6-73-45-74c-42 0-51 32-51 76 0 43 10 73 51 73" id="am"/><path fill="#0c7cba" d="M240 0l2-218c-23 76-54 145-80 218h-23L58-218 59 0H30v-248h44l77 211c21-75 51-140 76-211h43V0h-30" id="an"/><path fill="#0c7cba" d="M137 0h-34L2-248h35l83 218 83-218h36" id="ao"/><g id="s"><use transform="matrix(0.2283950617283949,0,0,0.2283950617283949,0,0)" xlink:href="#ak"/><use transform="matrix(0.2283950617283949,0,0,0.2283950617283949,54.81481481481478,0)" xlink:href="#am"/><use transform="matrix(0.2283950617283949,0,0,0.2283950617283949,100.49382716049377,0)" xlink:href="#an"/><use transform="matrix(0.2283950617283949,0,0,0.2283950617283949,168.78395061728384,0)" xlink:href="#ao"/></g><path fill="#3a414a" d="M205 0l-28-72H64L36 0H1l101-248h38L239 0h-34zm-38-99l-47-123c-12 45-31 82-46 123h93" id="ap"/><path fill="#3a414a" d="M85-194c31 0 48 13 60 33l-1-100h32l1 261h-30c-2-10 0-23-3-31C134-8 116 4 85 4 32 4 16-35 15-94c0-66 23-100 70-100zm9 24c-40 0-46 34-46 75 0 40 6 74 45 74 42 0 51-32 51-76 0-42-9-74-50-73" id="aq"/><g id="t"><use transform="matrix(0.2469135802469128,0,0,0.2469135802469128,0,0)" xlink:href="#ap"/><use transform="matrix(0.2469135802469128,0,0,0.2469135802469128,59.25925925925907,0)" xlink:href="#aq"/><use transform="matrix(0.2469135802469128,0,0,0.2469135802469128,108.64197530864163,0)" xlink:href="#aq"/></g><path fill="#3a414a" d="M100-194c63 0 86 42 84 106H49c0 40 14 67 53 68 26 1 43-12 49-29l28 8c-11 28-37 45-77 45C44 4 14-33 15-96c1-61 26-98 85-98zm52 81c6-60-76-77-97-28-3 7-6 17-6 28h103" id="ar"/><path fill="#3a414a" d="M117-194c89-4 53 116 60 194h-32v-121c0-31-8-49-39-48C34-167 62-67 57 0H25l-1-190h30c1 10-1 24 2 32 11-22 29-35 61-36" id="as"/><path fill="#3a414a" d="M177-190C167-65 218 103 67 71c-23-6-38-20-44-43l32-5c15 47 100 32 89-28v-30C133-14 115 1 83 1 29 1 15-40 15-95c0-56 16-97 71-98 29-1 48 16 59 35 1-10 0-23 2-32h30zM94-22c36 0 50-32 50-73 0-42-14-75-50-75-39 0-46 34-46 75s6 73 46 73" id="at"/><path fill="#3a414a" d="M24-231v-30h32v30H24zM24 0v-190h32V0H24" id="au"/><path fill="#3a414a" d="M135-143c-3-34-86-38-87 0 15 53 115 12 119 90S17 21 10-45l28-5c4 36 97 45 98 0-10-56-113-15-118-90-4-57 82-63 122-42 12 7 21 19 24 35" id="av"/><g id="u"><use transform="matrix(0.2469135802469128,0,0,0.2469135802469128,0,0)" xlink:href="#ar"/><use transform="matrix(0.2469135802469128,0,0,0.2469135802469128,49.38271604938256,0)" xlink:href="#as"/><use transform="matrix(0.2469135802469128,0,0,0.2469135802469128,98.76543209876512,0)" xlink:href="#at"/><use transform="matrix(0.2469135802469128,0,0,0.2469135802469128,148.14814814814767,0)" xlink:href="#au"/><use transform="matrix(0.2469135802469128,0,0,0.2469135802469128,167.6543209876538,0)" xlink:href="#as"/><use transform="matrix(0.2469135802469128,0,0,0.2469135802469128,217.03703703703636,0)" xlink:href="#ar"/><use transform="matrix(0.2469135802469128,0,0,0.2469135802469128,266.4197530864189,0)" xlink:href="#av"/></g><path fill="#3a414a" d="M101-234c-31-9-42 10-38 44h38v23H63V0H32v-167H5v-23h27c-7-52 17-82 69-68v24" id="aw"/><path fill="#3a414a" d="M100-194c62-1 85 37 85 99 1 63-27 99-86 99S16-35 15-95c0-66 28-99 85-99zM99-20c44 1 53-31 53-75 0-43-8-75-51-75s-53 32-53 75 10 74 51 75" id="ax"/><path fill="#3a414a" d="M114-163C36-179 61-72 57 0H25l-1-190h30c1 12-1 29 2 39 6-27 23-49 58-41v29" id="ay"/><g id="v"><use transform="matrix(0.2469135802469128,0,0,0.2469135802469128,0,0)" xlink:href="#aw"/><use transform="matrix(0.2469135802469128,0,0,0.2469135802469128,24.69135802469128,0)" xlink:href="#ax"/><use transform="matrix(0.2469135802469128,0,0,0.2469135802469128,74.07407407407383,0)" xlink:href="#ay"/></g><path fill="#3a414a" d="M210-169c-67 3-38 105-44 169h-31v-121c0-29-5-50-35-48C34-165 62-65 56 0H25l-1-190h30c1 10-1 24 2 32 10-44 99-50 107 0 11-21 27-35 58-36 85-2 47 119 55 194h-31v-121c0-29-5-49-35-48" id="az"/><g id="w"><use transform="matrix(0.2469135802469128,0,0,0.2469135802469128,0,0)" xlink:href="#az"/><use transform="matrix(0.2469135802469128,0,0,0.2469135802469128,73.82716049382692,0)" xlink:href="#ax"/><use transform="matrix(0.2469135802469128,0,0,0.2469135802469128,123.20987654320948,0)" xlink:href="#ay"/><use transform="matrix(0.2469135802469128,0,0,0.2469135802469128,152.5925925925921,0)" xlink:href="#ar"/></g><path fill="#3a414a" d="M141-36C126-15 110 5 73 4 37 3 15-17 15-53c-1-64 63-63 125-63 3-35-9-54-41-54-24 1-41 7-42 31l-33-3c5-37 33-52 76-52 45 0 72 20 72 64v82c-1 20 7 32 28 27v20c-31 9-61-2-59-35zM48-53c0 20 12 33 32 33 41-3 63-29 60-74-43 2-92-5-92 41" id="aA"/><path fill="#3a414a" d="M24 0v-261h32V0H24" id="aB"/><path fill="#3a414a" d="M59-47c-2 24 18 29 38 22v24C64 9 27 4 27-40v-127H5v-23h24l9-43h21v43h35v23H59v120" id="aC"/><path fill="#3a414a" d="M106-169C34-169 62-67 57 0H25v-261h32l-1 103c12-21 28-36 61-36 89 0 53 116 60 194h-32v-121c2-32-8-49-39-48" id="aD"/><g id="x"><use transform="matrix(0.2469135802469128,0,0,0.2469135802469128,0,0)" xlink:href="#aA"/><use transform="matrix(0.2469135802469128,0,0,0.2469135802469128,49.38271604938256,0)" xlink:href="#aB"/><use transform="matrix(0.2469135802469128,0,0,0.2469135802469128,68.88888888888867,0)" xlink:href="#at"/><use transform="matrix(0.2469135802469128,0,0,0.2469135802469128,118.27160493827122,0)" xlink:href="#ax"/><use transform="matrix(0.2469135802469128,0,0,0.2469135802469128,167.6543209876538,0)" xlink:href="#ay"/><use transform="matrix(0.2469135802469128,0,0,0.2469135802469128,197.0370370370364,0)" xlink:href="#au"/><use transform="matrix(0.2469135802469128,0,0,0.2469135802469128,216.54320987654253,0)" xlink:href="#aC"/><use transform="matrix(0.2469135802469128,0,0,0.2469135802469128,241.23456790123382,0)" xlink:href="#aD"/><use transform="matrix(0.2469135802469128,0,0,0.2469135802469128,290.61728395061635,0)" xlink:href="#az"/><use transform="matrix(0.2469135802469128,0,0,0.2469135802469128,364.44444444444326,0)" xlink:href="#av"/></g></defs></g></svg>