<svg xmlns="http://www.w3.org/2000/svg" xmlns:xlink="http://www.w3.org/1999/xlink" xmlns:lucid="lucid" width="1598" height="865"><g transform="translate(-170 -829)" lucid:page-tab-id="xtARVFl4C1~U"><path d="M1735 1308.36h-25.1v17.6h25.1v8.7h-25.1v17.6h25.1v8.9h-25.1v17.62h25.1v8.7h-25.1v17.6h25.1v8.7h-25.1v13.36c0 2.32-2.2 4.25-4.83 4.25h-15.18v22.05h-9.9v-22.06h-20.03v22.05h-9.9v-22.06h-20.02v22.05h-10.12v-22.06h-20.02v22.05h-9.9v-22.06h-20v22.05h-9.9v-22.06h-15.2c-2.63 0-4.83-1.94-4.83-4.26v-13.35H1515v-8.7h25.07v-17.62H1515v-8.7h25.07v-17.6H1515v-8.9h25.07v-17.6H1515v-8.72h25.07v-17.6H1515v-8.7h25.07v-13.35c0-2.3 2.2-4.25 4.84-4.25h15.2V1260h9.9v22.05h20V1260h9.9v22.05h20.03V1260h10.12v22.05h20.02V1260h9.9v22.05H1680V1260h9.9v22.05h15.17c2.64 0 4.84 1.94 4.84 4.26v13.36h25.1zm-185.03 114.33H1700v-131.94h-150.03z" stroke="#000" stroke-opacity="0" fill="#4c535d"/><path d="M355.26 1026a6 6 0 0 1 6-6h192.67a17.1 17.1 0 0 1 10.68 3.75l49.7 39.8a12.5 12.5 0 0 1 4.68 9.75v66.83a6 6 0 0 1-6 6H361.26a6 6 0 0 1-6-6z" stroke="#3a414a" fill="#ffd9d9"/><path d="M339.5 1041.77a6 6 0 0 1 6-6h192.66a17.1 17.1 0 0 1 10.7 3.75l49.67 39.8a12.5 12.5 0 0 1 4.7 9.75v66.83a6 6 0 0 1-6 6H345.48a6 6 0 0 1-6-6z" stroke="#3a414a" fill="#ffd9d9"/><path d="M323.72 1057.53a6 6 0 0 1 6-6H522.4a17.1 17.1 0 0 1 10.68 3.75l49.68 39.8a12.5 12.5 0 0 1 4.7 9.75v66.84a6 6 0 0 1-6 6H329.7a6 6 0 0 1-6-6z" stroke="#3a414a" fill="#ffd9d9"/><use xlink:href="#a" transform="matrix(1,0,0,1,323.72249864638945,1051.5333333333333) translate(14.361111111111143 72.83333333333333)"/><path d="M1143.4 1156.84a4.8 4.8 0 0 1 6.77 0l39.55 39.54a4.8 4.8 0 0 1 0 6.78 4.8 4.8 0 0 1-6.8 0l-39.53-39.54a4.8 4.8 0 0 1 0-6.78z" stroke="#000" stroke-opacity="0" fill="#cc4e00"/><path d="M1189.72 1156.84a4.8 4.8 0 0 1 0 6.78l-39.55 39.54a4.8 4.8 0 0 1-6.78 0 4.8 4.8 0 0 1 0-6.78l39.53-39.54a4.8 4.8 0 0 1 6.8 0z" stroke="#000" stroke-opacity="0" fill="#cc4e00"/><path d="M860 926a6 6 0 0 1 6-6h148a6 6 0 0 1 6 6v114c-26.72-20.04-43.36-20.04-53.44-20.04-16 0-37.28 20.04-53.28 20.04-9.92 0-26.72 0-53.28-20.04z" stroke="#3a414a" fill="#fff3d9"/><use xlink:href="#b" transform="matrix(1,0,0,1,865,925) translate(30.679012345679027 55.24305555555554)"/><path d="M320 1282.33c49.63 25.17 81.02 25.17 99.56 25.17 29.9 0 69.66-25.17 99.56-25.17 18.84 0 49.93 0 99.86 25.17v126.45c-49.93-25.32-81.02-25.32-99.86-25.32-29.9 0-69.66 25.32-99.56 25.32-18.54 0-49.93 0-99.56-25.32z" stroke="#3a414a" fill="#fcfcca"/><use xlink:href="#c" transform="matrix(1,0,0,1,325,1287.3333333333333) translate(58.944444444444485 81.70833333333331)"/><path d="M855.27 1126a6 6 0 0 1 6-6h148a6 6 0 0 1 6 6v114c-26.72-20.04-43.36-20.04-53.44-20.04-16 0-37.28 20.04-53.28 20.04-9.92 0-26.72 0-53.28-20.04z" stroke="#3a414a" fill="#fff3d9"/><use xlink:href="#d" transform="matrix(1,0,0,1,860.2729989643351,1125) translate(44.197530864197546 55.24305555555554)"/><path d="M628.36 1014.33a5 5 0 0 1 5-5h285.26a5 5 0 0 1 5 5v96a5 5 0 0 1-5 5H633.36a5 5 0 0 1-5-5z" stroke="#000" stroke-opacity="0" stroke-width="3" fill="#fff" fill-opacity="0"/><use xlink:href="#e" transform="matrix(1,0,0,1,633.362006213989,1014.3333333333333) translate(34.94444444444446 35)"/><use xlink:href="#f" transform="matrix(1,0,0,1,633.362006213989,1014.3333333333333) translate(14.333333333333371 82.99999999999999)"/><use xlink:href="#g" transform="matrix(1,0,0,1,633.362006213989,1014.3333333333333) translate(87.55555555555559 82.99999999999999)"/><path d="M615.7 1061.47l5.9-7 6.95-7.6 6.77-6.77 6.64-6.13 6.57-5.56 6.53-5.07 6.55-4.67 6.63-4.3 6.73-4 6.9-3.72 7.14-3.46 7.45-3.23 7.85-3.02 8.37-2.83 9.07-2.65 9.98-2.46 11.23-2.28 13.05-2.08 15.9-1.85 21.24-1.56 37.04-1.1 6.58-.04" stroke="#3a414a" stroke-width="4" stroke-linejoin="round" fill="none"/><path d="M617.25 1062.7l-1.38 1.63-.38-.4-.88-.76-1.75-1.4 1.36-1.6z" stroke="#3a414a" stroke-width=".05" fill="#3a414a"/><path d="M853.03 980.03l-14.25 4.7-.04-9.27z" stroke="#3a414a" stroke-width="4" fill="#3a414a"/><path d="M621.5 1098.87l8.1.17 9.08.57 8.26.88 7.6 1.12 7.1 1.35 6.7 1.57 6.4 1.8 6.22 2 6.1 2.28 6.16 2.6 6.33 2.97 6.8 3.55 7.78 4.5 10.8 6.9 35.2 23.5 7.78 4.5 6.8 3.55 6.33 2.98 6.15 2.58 6.12 2.28 6.2 2.03 6.4 1.78 6.7 1.58 7.1 1.36 7.62 1.12 4.75.5" stroke="#3a414a" stroke-width="4" stroke-linejoin="round" fill="none"/><path d="M621.58 1096.9l-.1 3.95-2-.04v-3.94z" stroke="#3a414a" stroke-width=".05" fill="#3a414a"/><path d="M848.3 1179.67l-14.47 3.92.46-9.27z" stroke="#3a414a" stroke-width="4" fill="#3a414a"/><path d="M620 1314.33a5 5 0 0 1 5-5h210a5 5 0 0 1 5 5v96a5 5 0 0 1-5 5H625a5 5 0 0 1-5-5z" stroke="#000" stroke-opacity="0" stroke-width="3" fill="#fff" fill-opacity="0"/><use xlink:href="#h" transform="matrix(1,0,0,1,625,1314.3333333333333) translate(-3.055555555555543 32)"/><use xlink:href="#i" transform="matrix(1,0,0,1,625,1314.3333333333333) translate(45.222222222222236 80)"/><path d="M840 1296.72a6 6 0 0 1 6-6h228a6 6 0 0 1 6 6v137.23c-40.08-23.92-65.04-23.92-80.16-23.92-24 0-55.92 23.92-79.92 23.92-14.88 0-40.08 0-79.92-23.92z" stroke="#3a414a" fill="#c3f7c8"/><use xlink:href="#j" transform="matrix(1,0,0,1,845,1295.7200564264801) translate(2.166666666666714 63.05555555555554)"/><path d="M621.5 1361.1l195.26 1.1" stroke="#3a414a" stroke-width="4" stroke-linejoin="round" fill="none"/><path d="M621.55 1359.12l-.02 3.95h-2.05v-3.97z" stroke="#3a414a" stroke-width=".05" fill="#3a414a"/><path d="M833.03 1362.3l-14.3 4.55.06-9.27z" stroke="#3a414a" stroke-width="4" fill="#3a414a"/><path d="M1260 843a5 5 0 0 1 5-5h270a5 5 0 0 1 5 5v112a5 5 0 0 1-5 5h-270a5 5 0 0 1-5-5z" stroke="#000" stroke-opacity="0" stroke-width="3" fill="#fff" fill-opacity="0"/><use xlink:href="#k" transform="matrix(1,0,0,1,1265,843) translate(18.722222222222243 40.83333333333332)"/><use xlink:href="#l" transform="matrix(1,0,0,1,1265,843) translate(79.45370370370372 96.83333333333331)"/><path d="M1220 1105a5 5 0 0 1 5-5h210a5 5 0 0 1 5 5v144a5 5 0 0 1-5 5h-210a5 5 0 0 1-5-5z" stroke="#000" stroke-opacity="0" stroke-width="3" fill="#fff" fill-opacity="0"/><use xlink:href="#m" transform="matrix(1,0,0,1,1225,1105) translate(-59.611111111111086 32.000000000000014)"/><use xlink:href="#n" transform="matrix(1,0,0,1,1225,1105) translate(73.94444444444446 80)"/><use xlink:href="#o" transform="matrix(1,0,0,1,1225,1105) translate(12.944444444444485 127.99999999999999)"/><path d="M340 845a5 5 0 0 1 5-5h285.26a5 5 0 0 1 5 5v112a5 5 0 0 1-5 5H345a5 5 0 0 1-5-5z" stroke="#000" stroke-opacity="0" stroke-width="3" fill="#fff" fill-opacity="0"/><use xlink:href="#p" transform="matrix(1,0,0,1,345,845) translate(44.67592592592595 40.83333333333332)"/><use xlink:href="#q" transform="matrix(1,0,0,1,345,845) translate(21.34259259259261 96.83333333333331)"/><path d="M1022.5 980.04l43.1.87 36.24 2.26 30.6 3.2 27.23 4.02 25.8 4.92 27.1 6.37 40.2 11.35 75.17 22.04 27.1 6.37 25.8 4.92 27.22 4 30.6 3.2 36.23 2.27 22.37.45" stroke="#3a414a" stroke-width="4" stroke-linejoin="round" fill="none"/><path d="M1022.6 978.07l-.08 3.95-2.02-.04V978z" stroke="#3a414a" stroke-width=".05" fill="#3a414a"/><path d="M1513.53 1056.6l-14.36 4.34.2-9.27z" stroke="#3a414a" stroke-width="4" fill="#3a414a"/><path d="M1017.77 1180H1178" stroke="#3a414a" stroke-width="4" stroke-linejoin="round" fill="none"/><path d="M1017.83 1181.97h-2.06v-3.94h2.06z" stroke="#3a414a" stroke-width=".05" fill="#3a414a"/><path d="M1177.95 1180h2.05" stroke="#3a414a" stroke-width="4" fill="none"/><path d="M1740 1008.36h-25.08v17.6H1740v8.7h-25.08v17.6H1740v8.9h-25.08v17.62H1740v8.7h-25.08v17.6H1740v8.7h-25.08v13.36c0 2.32-2.2 4.25-4.84 4.25h-15.18v22.05h-9.9v-22.06h-20.02v22.05h-9.9v-22.06h-20.02v22.05h-10.12v-22.06h-20.02v22.05h-9.9v-22.06H1575v22.05h-9.9v-22.06h-15.18c-2.64 0-4.84-1.94-4.84-4.26v-13.35H1520v-8.7h25.08v-17.62H1520v-8.7h25.08v-17.6H1520v-8.9h25.08v-17.6H1520v-8.72h25.08v-17.6H1520v-8.7h25.08V986.3c0-2.3 2.2-4.25 4.84-4.25h15.18V960h9.9v22.05h20.02V960h9.9v22.05h20.02V960h10.12v22.05h20.02V960h9.9v22.05H1685V960h9.9v22.05h15.18c2.64 0 4.84 1.94 4.84 4.26v13.36H1740zm-185.02 114.33h150.04V990.75h-150.04z" stroke="#000" stroke-opacity="0" fill="#4c535d"/><path d="M1579.56 1027.16a5 5 0 0 1 5-5h90.88a5 5 0 0 1 5 5v59.12a5 5 0 0 1-5 5h-90.88a5 5 0 0 1-5-5z" stroke="#000" stroke-opacity="0" stroke-width="3" fill="#fff" fill-opacity="0"/><use xlink:href="#r" transform="matrix(1,0,0,1,1584.5601545221546,1027.1619981743725) translate(-16.104938271604908 38.888888888888886)"/><path d="M1574.55 1305a5 5 0 0 1 5-5h90.88a5 5 0 0 1 5 5v59.12a5 5 0 0 1-5 5h-90.88a5 5 0 0 1-5-5z" stroke="#000" stroke-opacity="0" stroke-width="3" fill="#fff" fill-opacity="0"/><use xlink:href="#r" transform="matrix(1,0,0,1,1579.5512060059057,1305) translate(-16.104938271604908 38.888888888888886)"/><path d="M1082.5 1362.3l409.76-5.28" stroke="#3a414a" stroke-width="4" stroke-linejoin="round" fill="none"/><path d="M1082.58 1364.28l-2.08.03v-3.94l2.03-.03z" stroke="#3a414a" stroke-width=".05" fill="#3a414a"/><path d="M1508.52 1356.8l-14.2 4.83-.13-9.27z" stroke="#3a414a" stroke-width="4" fill="#3a414a"/><path d="M1120 1313a5 5 0 0 1 5-5h370a5 5 0 0 1 5 5v100a5 5 0 0 1-5 5h-370a5 5 0 0 1-5-5z" stroke="#000" stroke-opacity="0" stroke-width="3" fill="#fff" fill-opacity="0"/><use xlink:href="#s" transform="matrix(1,0,0,1,1125,1313) translate(14.833333333333343 35.125)"/><use xlink:href="#t" transform="matrix(1,0,0,1,1125,1313) translate(138.44444444444446 83.125)"/><path d="M780 1486a6 6 0 0 1 6-6h148a6 6 0 0 1 6 6v114c-26.72-20.04-43.36-20.04-53.44-20.04-16 0-37.28 20.04-53.28 20.04-9.92 0-26.72 0-53.28-20.04z" stroke="#3a414a" fill="#edf5ff"/><use xlink:href="#u" transform="matrix(1,0,0,1,785,1485) translate(41.75925925925927 51.97916666666666)"/><path d="M940 1486a6 6 0 0 1 6-6h148a6 6 0 0 1 6 6v114c-26.72-20.04-43.36-20.04-53.44-20.04-16 0-37.28 20.04-53.28 20.04-9.92 0-26.72 0-53.28-20.04z" stroke="#3a414a" fill="#edf5ff"/><use xlink:href="#v" transform="matrix(1,0,0,1,945,1485) translate(51.89814814814815 51.97916666666666)"/><path d="M540 1626a6 6 0 0 1 6-6h261.3a6 6 0 0 1 6 6v48a6 6 0 0 1-6 6H546a6 6 0 0 1-6-6z" fill="#fff" fill-opacity="0"/><use xlink:href="#w" transform="matrix(1,0,0,1,545,1625) translate(3.990740740740762 37.33333333333332)"/><use xlink:href="#x" transform="matrix(1,0,0,1,545,1625) translate(16.953703703703724 37.33333333333332)"/><use xlink:href="#y" transform="matrix(1,0,0,1,545,1625) translate(141.00925925925924 37.33333333333332)"/><path d="M1152.64 1492a5 5 0 0 1 5-5h210a5 5 0 0 1 5 5v96a5 5 0 0 1-5 5h-210a5 5 0 0 1-5-5z" stroke="#000" stroke-opacity="0" stroke-width="3" fill="#fff" fill-opacity="0"/><use xlink:href="#z" transform="matrix(1,0,0,1,1157.6435075467894,1492) translate(-15.277777777777743 32)"/><use xlink:href="#A" transform="matrix(1,0,0,1,1157.6435075467894,1492) translate(24.05555555555557 80)"/><path d="M1102.5 1540H1440l44.74.52 22.67-.73 15.8-1.2 12.17-1.42 9.92-1.6 8.37-1.7 7.24-1.8 6.4-1.86.7-.22 13.34-4.7 7.1-3.05 5.1-2.62 4.07-2.43 3.4-2.35 2.95-2.33 2.6-2.35 2.36-2.42 2.15-2.53 2-2.67 1.84-2.86 1.73-3.13 1.63-3.44 1.53-3.85 1.4-4.4 1.3-5.13.67-3.67" stroke="#3a414a" stroke-width="4" stroke-linejoin="round" fill="none"/><path d="M1102.55 1541.97h-2.05v-3.94h2.05z" stroke="#3a414a" stroke-width=".05" fill="#3a414a"/><path d="M1624.47 1459.9l3.48 14.6-9.24-.76z" stroke="#3a414a" stroke-width="4" fill="#3a414a"/><path d="M620 1486a6 6 0 0 1 6-6h148a6 6 0 0 1 6 6v114c-26.72-20.04-43.36-20.04-53.44-20.04-16 0-37.28 20.04-53.28 20.04-9.92 0-26.72 0-53.28-20.04z" stroke="#3a414a" fill="#edf5ff"/><use xlink:href="#B" transform="matrix(1,0,0,1,625,1485) translate(52.87037037037038 51.97916666666666)"/><path d="M1574.55 1365a5 5 0 0 1 5-5h90.88a5 5 0 0 1 5 5v59.12a5 5 0 0 1-5 5h-90.88a5 5 0 0 1-5-5z" stroke="#000" stroke-opacity="0" stroke-width="3" fill="#fff" fill-opacity="0"/><use xlink:href="#C" transform="matrix(1,0,0,1,1579.5512060059057,1365) translate(-27.833333333333286 38)"/><path d="M1280 1615a5 5 0 0 1 5-5h240a5 5 0 0 1 5 5v70a5 5 0 0 1-5 5h-240a5 5 0 0 1-5-5z" stroke="#000" stroke-opacity="0" stroke-width="3" fill="#fff" fill-opacity="0"/><use xlink:href="#D" transform="matrix(1,0,0,1,1285,1615) translate(-43.1388888888888 44.33333333333333)"/><path d="M1143.27 1642.9a4.62 4.62 0 0 1 6.53 0l17.98 18a4.62 4.62 0 0 1 0 6.53 4.62 4.62 0 0 1-6.53 0l-17.98-17.98a4.62 4.62 0 0 1 0-6.54z" stroke="#000" stroke-opacity="0" fill="#54c45e"/><path d="M1207.9 1620.98a4.8 4.8 0 0 1 0 6.78l-39.54 39.54a4.8 4.8 0 0 1-6.78 0 4.8 4.8 0 0 1 0-6.78l39.54-39.54a4.8 4.8 0 0 1 6.78 0z" stroke="#000" stroke-opacity="0" fill="#54c45e"/><path d="M140 1486a6 6 0 0 1 6-6h145.96a6 6 0 0 1 6 6v93a6 6 0 0 1-6 6H146a6 6 0 0 1-6-6z" fill="#fff" fill-opacity="0"/><use xlink:href="#E" transform="matrix(1,0,0,1,145,1485) translate(36.96296296296296 62.23958333333334)"/><path d="M458.98 1486a6 6 0 0 1 6-6h148a6 6 0 0 1 6 6v114c-26.72-20.04-43.36-20.04-53.44-20.04-16 0-37.28 20.04-53.28 20.04-9.92 0-26.72 0-53.28-20.04z" stroke="#3a414a" fill="#edf5ff"/><g><use xlink:href="#F" transform="matrix(1,0,0,1,463.9814814814814,1485) translate(51.018518518518526 51.97916666666666)"/></g><path d="M297.96 1486a6 6 0 0 1 6-6h148a6 6 0 0 1 6 6v114c-26.72-20.04-43.36-20.04-53.44-20.04-16 0-37.28 20.04-53.28 20.04-9.92 0-26.72 0-53.28-20.04z" stroke="#3a414a" fill="#edf5ff"/><g><use xlink:href="#G" transform="matrix(1,0,0,1,302.9629629629629,1485) translate(28.796296296296312 51.97916666666666)"/></g><path d="M169 1250c0 2.48-2 4.5-4.5 4.5s-4.5-2.02-4.5-4.5 2-4.5 4.5-4.5 4.5 2.02 4.5 4.5zm17.92 0c0 2.48-2 4.5-4.5 4.5-2.48 0-4.5-2.02-4.5-4.5s2.02-4.5 4.5-4.5c2.5 0 4.5 2.02 4.5 4.5zm17.93 0c0 2.48-2.02 4.5-4.5 4.5-2.5 0-4.5-2.02-4.5-4.5s2-4.5 4.5-4.5c2.48 0 4.5 2.02 4.5 4.5zm17.92 0c0 2.48-2.02 4.5-4.5 4.5-2.5 0-4.5-2.02-4.5-4.5s2-4.5 4.5-4.5c2.48 0 4.5 2.02 4.5 4.5zm17.92 0c0 2.48-2.02 4.5-4.5 4.5-2.5 0-4.5-2.02-4.5-4.5s2-4.5 4.5-4.5c2.48 0 4.5 2.02 4.5 4.5zm17.92 0c0 2.48-2.02 4.5-4.5 4.5-2.5 0-4.5-2.02-4.5-4.5s2-4.5 4.5-4.5c2.48 0 4.5 2.02 4.5 4.5zm17.92 0c0 2.48-2.02 4.5-4.5 4.5-2.5 0-4.5-2.02-4.5-4.5s2-4.5 4.5-4.5c2.48 0 4.5 2.02 4.5 4.5zm17.92 0c0 2.48-2 4.5-4.5 4.5-2.48 0-4.5-2.02-4.5-4.5s2.02-4.5 4.5-4.5c2.5 0 4.5 2.02 4.5 4.5zm17.93 0c0 2.48-2.03 4.5-4.5 4.5-2.5 0-4.5-2.02-4.5-4.5s2-4.5 4.5-4.5c2.47 0 4.5 2.02 4.5 4.5zm17.9 0c0 2.48-2 4.5-4.5 4.5-2.48 0-4.5-2.02-4.5-4.5s2.02-4.5 4.5-4.5c2.5 0 4.5 2.02 4.5 4.5zm17.93 0c0 2.48-2 4.5-4.5 4.5s-4.5-2.02-4.5-4.5 2-4.5 4.5-4.5 4.5 2.02 4.5 4.5zm17.92 0c0 2.48-2 4.5-4.5 4.5-2.48 0-4.5-2.02-4.5-4.5s2.02-4.5 4.5-4.5c2.5 0 4.5 2.02 4.5 4.5zm17.93 0c0 2.48-2.02 4.5-4.5 4.5-2.5 0-4.5-2.02-4.5-4.5s2-4.5 4.5-4.5c2.48 0 4.5 2.02 4.5 4.5zm17.92 0c0 2.48-2 4.5-4.5 4.5s-4.5-2.02-4.5-4.5 2-4.5 4.5-4.5 4.5 2.02 4.5 4.5zm17.92 0c0 2.48-2 4.5-4.5 4.5-2.48 0-4.5-2.02-4.5-4.5s2.02-4.5 4.5-4.5c2.5 0 4.5 2.02 4.5 4.5zm17.93 0c0 2.48-2.02 4.5-4.5 4.5-2.5 0-4.5-2.02-4.5-4.5s2-4.5 4.5-4.5c2.48 0 4.5 2.02 4.5 4.5zm17.92 0c0 2.48-2 4.5-4.5 4.5s-4.5-2.02-4.5-4.5 2-4.5 4.5-4.5 4.5 2.02 4.5 4.5zm17.92 0c0 2.48-2.02 4.5-4.5 4.5-2.5 0-4.5-2.02-4.5-4.5s2-4.5 4.5-4.5c2.48 0 4.5 2.02 4.5 4.5zm17.92 0c0 2.48-2.02 4.5-4.5 4.5-2.5 0-4.5-2.02-4.5-4.5s2-4.5 4.5-4.5c2.48 0 4.5 2.02 4.5 4.5zm17.92 0c0 2.48-2.02 4.5-4.5 4.5-2.5 0-4.5-2.02-4.5-4.5s2-4.5 4.5-4.5c2.48 0 4.5 2.02 4.5 4.5zm17.92 0c0 2.48-2 4.5-4.5 4.5-2.48 0-4.5-2.02-4.5-4.5s2.02-4.5 4.5-4.5c2.5 0 4.5 2.02 4.5 4.5zm17.92 0c0 2.48-2 4.5-4.5 4.5-2.48 0-4.5-2.02-4.5-4.5s2.02-4.5 4.5-4.5c2.5 0 4.5 2.02 4.5 4.5zm17.93 0c0 2.48-2 4.5-4.5 4.5-2.48 0-4.5-2.02-4.5-4.5s2.02-4.5 4.5-4.5c2.5 0 4.5 2.02 4.5 4.5zm17.93 0c0 2.48-2 4.5-4.5 4.5s-4.5-2.02-4.5-4.5 2-4.5 4.5-4.5 4.5 2.02 4.5 4.5zm17.92 0c0 2.48-2 4.5-4.5 4.5-2.48 0-4.5-2.02-4.5-4.5s2.02-4.5 4.5-4.5c2.5 0 4.5 2.02 4.5 4.5zm17.93 0c0 2.48-2.02 4.5-4.5 4.5-2.5 0-4.5-2.02-4.5-4.5s2-4.5 4.5-4.5c2.48 0 4.5 2.02 4.5 4.5zm17.92 0c0 2.48-2 4.5-4.5 4.5s-4.5-2.02-4.5-4.5 2-4.5 4.5-4.5 4.5 2.02 4.5 4.5zm17.92 0c0 2.48-2 4.5-4.5 4.5-2.48 0-4.5-2.02-4.5-4.5s2.02-4.5 4.5-4.5c2.5 0 4.5 2.02 4.5 4.5zm17.93 0c0 2.48-2.02 4.5-4.5 4.5-2.5 0-4.5-2.02-4.5-4.5s2-4.5 4.5-4.5c2.48 0 4.5 2.02 4.5 4.5zm17.92 0c0 2.48-2 4.5-4.5 4.5s-4.5-2.02-4.5-4.5 2-4.5 4.5-4.5 4.5 2.02 4.5 4.5zm17.92 0c0 2.48-2.02 4.5-4.5 4.5-2.5 0-4.5-2.02-4.5-4.5s2-4.5 4.5-4.5c2.48 0 4.5 2.02 4.5 4.5zm17.9 0c0 2.48-2 4.5-4.5 4.5-2.47 0-4.5-2.02-4.5-4.5s2.03-4.5 4.5-4.5c2.5 0 4.5 2.02 4.5 4.5zm17.94 0c0 2.48-2.02 4.5-4.5 4.5-2.5 0-4.5-2.02-4.5-4.5s2-4.5 4.5-4.5c2.48 0 4.5 2.02 4.5 4.5zm17.92 0c0 2.48-2 4.5-4.5 4.5-2.48 0-4.5-2.02-4.5-4.5s2.02-4.5 4.5-4.5c2.5 0 4.5 2.02 4.5 4.5zm17.92 0c0 2.48-2 4.5-4.5 4.5-2.48 0-4.5-2.02-4.5-4.5s2.02-4.5 4.5-4.5c2.5 0 4.5 2.02 4.5 4.5zm17.93 0c0 2.48-2 4.5-4.5 4.5-2.48 0-4.5-2.02-4.5-4.5s2.02-4.5 4.5-4.5c2.5 0 4.5 2.02 4.5 4.5zm17.93 0c0 2.48-2 4.5-4.5 4.5s-4.5-2.02-4.5-4.5 2-4.5 4.5-4.5 4.5 2.02 4.5 4.5zm17.92 0c0 2.48-2 4.5-4.5 4.5-2.48 0-4.5-2.02-4.5-4.5s2.02-4.5 4.5-4.5c2.5 0 4.5 2.02 4.5 4.5zm17.93 0c0 2.48-2.02 4.5-4.5 4.5-2.5 0-4.5-2.02-4.5-4.5s2-4.5 4.5-4.5c2.48 0 4.5 2.02 4.5 4.5zm17.92 0c0 2.48-2 4.5-4.5 4.5s-4.5-2.02-4.5-4.5 2-4.5 4.5-4.5 4.5 2.02 4.5 4.5zm17.92 0c0 2.48-2 4.5-4.5 4.5-2.48 0-4.5-2.02-4.5-4.5s2.02-4.5 4.5-4.5c2.5 0 4.5 2.02 4.5 4.5zm17.93 0c0 2.48-2.02 4.5-4.5 4.5-2.5 0-4.5-2.02-4.5-4.5s2-4.5 4.5-4.5c2.48 0 4.5 2.02 4.5 4.5zm17.92 0c0 2.48-2 4.5-4.5 4.5s-4.5-2.02-4.5-4.5 2-4.5 4.5-4.5 4.5 2.02 4.5 4.5zm17.92 0c0 2.48-2.02 4.5-4.5 4.5-2.5 0-4.5-2.02-4.5-4.5s2-4.5 4.5-4.5c2.48 0 4.5 2.02 4.5 4.5zm17.9 0c0 2.48-2 4.5-4.5 4.5-2.47 0-4.5-2.02-4.5-4.5s2.03-4.5 4.5-4.5c2.5 0 4.5 2.02 4.5 4.5zm17.94 0c0 2.48-2.02 4.5-4.5 4.5-2.5 0-4.5-2.02-4.5-4.5s2-4.5 4.5-4.5c2.48 0 4.5 2.02 4.5 4.5zm17.92 0c0 2.48-2 4.5-4.5 4.5-2.48 0-4.5-2.02-4.5-4.5s2.02-4.5 4.5-4.5c2.5 0 4.5 2.02 4.5 4.5zm17.92 0c0 2.48-2 4.5-4.5 4.5-2.48 0-4.5-2.02-4.5-4.5s2.02-4.5 4.5-4.5c2.5 0 4.5 2.02 4.5 4.5zm17.93 0c0 2.48-2 4.5-4.5 4.5-2.48 0-4.5-2.02-4.5-4.5s2.02-4.5 4.5-4.5c2.5 0 4.5 2.02 4.5 4.5zm17.93 0c0 2.48-2 4.5-4.5 4.5s-4.5-2.02-4.5-4.5 2-4.5 4.5-4.5 4.5 2.02 4.5 4.5zm17.92 0c0 2.48-2 4.5-4.5 4.5-2.48 0-4.5-2.02-4.5-4.5s2.02-4.5 4.5-4.5c2.5 0 4.5 2.02 4.5 4.5zm17.93 0c0 2.48-2.02 4.5-4.5 4.5-2.5 0-4.5-2.02-4.5-4.5s2-4.5 4.5-4.5c2.48 0 4.5 2.02 4.5 4.5zm17.92 0c0 2.48-2.02 4.5-4.5 4.5s-4.5-2.02-4.5-4.5 2.02-4.5 4.5-4.5 4.5 2.02 4.5 4.5zm17.92 0c0 2.48-2 4.5-4.5 4.5-2.48 0-4.5-2.02-4.5-4.5s2.02-4.5 4.5-4.5c2.5 0 4.5 2.02 4.5 4.5zm17.93 0c0 2.48-2.02 4.5-4.5 4.5-2.5 0-4.5-2.02-4.5-4.5s2-4.5 4.5-4.5c2.48 0 4.5 2.02 4.5 4.5zm17.92 0c0 2.48-2 4.5-4.5 4.5s-4.5-2.02-4.5-4.5 2-4.5 4.5-4.5 4.5 2.02 4.5 4.5zm17.92 0c0 2.48-2.02 4.5-4.5 4.5-2.5 0-4.5-2.02-4.5-4.5s2-4.5 4.5-4.5c2.48 0 4.5 2.02 4.5 4.5zm17.9 0c.02 2.48-2 4.5-4.48 4.5-2.5 0-4.5-2.02-4.5-4.5s2-4.5 4.5-4.5c2.48 0 4.5 2.02 4.5 4.5zm17.94 0c0 2.48-2.02 4.5-4.5 4.5-2.5 0-4.5-2.02-4.5-4.5s2-4.5 4.5-4.5c2.48 0 4.5 2.02 4.5 4.5zm17.92 0c0 2.48-2 4.5-4.5 4.5-2.48 0-4.5-2.02-4.5-4.5s2.02-4.5 4.5-4.5c2.5 0 4.5 2.02 4.5 4.5zm17.92 0c0 2.48-2 4.5-4.5 4.5-2.48 0-4.5-2.02-4.5-4.5s2.02-4.5 4.5-4.5c2.5 0 4.5 2.02 4.5 4.5zm17.93 0c0 2.48-2 4.5-4.5 4.5-2.48 0-4.5-2.02-4.5-4.5s2.02-4.5 4.5-4.5c2.5 0 4.5 2.02 4.5 4.5zm17.93 0c0 2.48-2 4.5-4.5 4.5s-4.5-2.02-4.5-4.5 2-4.5 4.5-4.5 4.5 2.02 4.5 4.5zm17.92 0c0 2.48-2 4.5-4.5 4.5-2.48 0-4.5-2.02-4.5-4.5s2.02-4.5 4.5-4.5c2.5 0 4.5 2.02 4.5 4.5zm17.93 0c0 2.48-2.02 4.5-4.5 4.5-2.5 0-4.5-2.02-4.5-4.5s2-4.5 4.5-4.5c2.48 0 4.5 2.02 4.5 4.5zm17.92 0c0 2.48-2.02 4.5-4.5 4.5s-4.5-2.02-4.5-4.5 2.02-4.5 4.5-4.5 4.5 2.02 4.5 4.5zm17.92 0c0 2.48-2 4.5-4.5 4.5-2.48 0-4.5-2.02-4.5-4.5s2.02-4.5 4.5-4.5c2.5 0 4.5 2.02 4.5 4.5zm17.93 0c0 2.48-2.02 4.5-4.5 4.5-2.5 0-4.5-2.02-4.5-4.5s2-4.5 4.5-4.5c2.48 0 4.5 2.02 4.5 4.5zm17.92 0c0 2.48-2 4.5-4.5 4.5s-4.5-2.02-4.5-4.5 2-4.5 4.5-4.5 4.5 2.02 4.5 4.5zm17.92 0c0 2.48-2.02 4.5-4.5 4.5-2.5 0-4.5-2.02-4.5-4.5s2-4.5 4.5-4.5c2.48 0 4.5 2.02 4.5 4.5zm17.9 0c.02 2.48-2 4.5-4.48 4.5-2.5 0-4.5-2.02-4.5-4.5s2-4.5 4.5-4.5c2.48 0 4.5 2.02 4.5 4.5zm17.94 0c0 2.48-2.02 4.5-4.5 4.5-2.5 0-4.5-2.02-4.5-4.5s2-4.5 4.5-4.5c2.48 0 4.5 2.02 4.5 4.5zm17.92 0c0 2.48-2 4.5-4.5 4.5-2.48 0-4.5-2.02-4.5-4.5s2.02-4.5 4.5-4.5c2.5 0 4.5 2.02 4.5 4.5zm17.92 0c0 2.48-2 4.5-4.5 4.5-2.48 0-4.5-2.02-4.5-4.5s2.02-4.5 4.5-4.5c2.5 0 4.5 2.02 4.5 4.5zm17.93 0c0 2.48-2 4.5-4.5 4.5-2.48 0-4.5-2.02-4.5-4.5s2.02-4.5 4.5-4.5c2.5 0 4.5 2.02 4.5 4.5zm17.93 0c0 2.48-2 4.5-4.5 4.5s-4.5-2.02-4.5-4.5 2-4.5 4.5-4.5 4.5 2.02 4.5 4.5zm17.92 0c0 2.48-2 4.5-4.5 4.5-2.48 0-4.5-2.02-4.5-4.5s2.02-4.5 4.5-4.5c2.5 0 4.5 2.02 4.5 4.5zm17.93 0c0 2.48-2.02 4.5-4.5 4.5-2.5 0-4.5-2.02-4.5-4.5s2-4.5 4.5-4.5c2.48 0 4.5 2.02 4.5 4.5zm17.92 0c0 2.48-2.02 4.5-4.5 4.5s-4.5-2.02-4.5-4.5 2.02-4.5 4.5-4.5 4.5 2.02 4.5 4.5zm17.92 0c0 2.48-2 4.5-4.5 4.5-2.48 0-4.5-2.02-4.5-4.5s2.02-4.5 4.5-4.5c2.5 0 4.5 2.02 4.5 4.5zm17.93 0c0 2.48-2.02 4.5-4.5 4.5-2.5 0-4.5-2.02-4.5-4.5s2-4.5 4.5-4.5c2.48 0 4.5 2.02 4.5 4.5zm17.92 0c0 2.48-2 4.5-4.5 4.5s-4.5-2.02-4.5-4.5 2-4.5 4.5-4.5 4.5 2.02 4.5 4.5zm17.92 0c0 2.48-2.02 4.5-4.5 4.5-2.5 0-4.5-2.02-4.5-4.5s2-4.5 4.5-4.5c2.48 0 4.5 2.02 4.5 4.5zm17.9 0c.02 2.48-2 4.5-4.48 4.5-2.5 0-4.5-2.02-4.5-4.5s2-4.5 4.5-4.5c2.48 0 4.5 2.02 4.5 4.5zm17.94 0c0 2.48-2.02 4.5-4.5 4.5-2.5 0-4.5-2.02-4.5-4.5s2-4.5 4.5-4.5c2.48 0 4.5 2.02 4.5 4.5zm17.92 0c0 2.48-2 4.5-4.5 4.5-2.48 0-4.5-2.02-4.5-4.5s2.02-4.5 4.5-4.5c2.5 0 4.5 2.02 4.5 4.5zm17.92 0c0 2.48-2 4.5-4.5 4.5-2.48 0-4.5-2.02-4.5-4.5s2.02-4.5 4.5-4.5c2.5 0 4.5 2.02 4.5 4.5zm17.93 0c0 2.48-2 4.5-4.5 4.5-2.48 0-4.5-2.02-4.5-4.5s2.02-4.5 4.5-4.5c2.5 0 4.5 2.02 4.5 4.5zm17.93 0c0 2.48-2 4.5-4.5 4.5s-4.5-2.02-4.5-4.5 2-4.5 4.5-4.5 4.5 2.02 4.5 4.5zm17.92 0c0 2.48-2 4.5-4.5 4.5-2.48 0-4.5-2.02-4.5-4.5s2.02-4.5 4.5-4.5c2.5 0 4.5 2.02 4.5 4.5zm17.93 0c0 2.48-2.02 4.5-4.5 4.5-2.5 0-4.5-2.02-4.5-4.5s2-4.5 4.5-4.5c2.48 0 4.5 2.02 4.5 4.5zm17.92 0c0 2.48-2.02 4.5-4.5 4.5s-4.5-2.02-4.5-4.5 2.02-4.5 4.5-4.5 4.5 2.02 4.5 4.5z" fill="#0c7cba"/><path d="M164.62 1250H160M1795.38 1250h4.62" stroke="#0c7cba" stroke-width="9" fill="none"/><path d="M800 840.33a5 5 0 0 1 5-5h285.26a5 5 0 0 1 5 5V915a5 5 0 0 1-5 5H805a5 5 0 0 1-5-5z" stroke="#000" stroke-opacity="0" stroke-width="3" fill="#fff" fill-opacity="0"/><g><use xlink:href="#H" transform="matrix(1,0,0,1,805,840.3333333333334) translate(22.63888888888893 46.708333333333314)"/></g><g><path d="M1032 995.48a6 6 0 0 1 6 6v145.97a6 6 0 0 1-6 6h-93a6 6 0 0 1-6-6v-145.97a6 6 0 0 1 6-6z" fill="#fff" fill-opacity="0"/></g><g><use xlink:href="#E" transform="matrix(6.123233995736766e-17,1,-1,6.123233995736766e-17,1033.0015137815885,1000.4832442675664) translate(36.96296296296296 62.23958333333334)"/></g><defs><path fill="#3a414a" d="M136-208V0H84v-208H4v-40h212v40h-80" id="I"/><path fill="#3a414a" d="M135-150c-39-12-60 13-60 57V0H25l-1-190h47c2 13-1 29 3 40 6-28 27-53 61-41v41" id="J"/><path fill="#3a414a" d="M133-34C117-15 103 5 69 4 32 3 11-16 11-54c-1-60 55-63 116-61 1-26-3-47-28-47-18 1-26 9-28 27l-52-2c7-38 36-58 82-57s74 22 75 68l1 82c-1 14 12 18 25 15v27c-30 8-71 5-69-32zm-48 3c29 0 43-24 42-57-32 0-66-3-65 30 0 17 8 27 23 27" id="K"/><path fill="#3a414a" d="M88-194c31-1 46 15 58 34l-1-101h50l1 261h-48c-2-10 0-23-3-31C134-8 116 4 84 4 32 4 16-41 15-95c0-56 19-97 73-99zm17 164c33 0 40-30 41-66 1-37-9-64-41-64s-38 30-39 65c0 43 13 65 39 65" id="L"/><path fill="#3a414a" d="M25-224v-37h50v37H25zM25 0v-190h50V0H25" id="M"/><path fill="#3a414a" d="M115-3C79 11 28 4 28-45v-112H4v-33h27l15-45h31v45h36v33H77v99c-1 23 16 31 38 25v30" id="N"/><path fill="#3a414a" d="M110-194c64 0 96 36 96 99 0 64-35 99-97 99-61 0-95-36-95-99 0-62 34-99 96-99zm-1 164c35 0 45-28 45-65 0-40-10-65-43-65-34 0-45 26-45 65 0 36 10 65 43 65" id="O"/><path fill="#3a414a" d="M135-194c87-1 58 113 63 194h-50c-7-57 23-157-34-157-59 0-34 97-39 157H25l-1-190h47c2 12-1 28 3 38 12-26 28-41 61-42" id="P"/><path fill="#3a414a" d="M25 0v-261h50V0H25" id="Q"/><g id="a"><use transform="matrix(0.12962962962962957,0,0,0.12962962962962957,0,0)" xlink:href="#I"/><use transform="matrix(0.12962962962962957,0,0,0.12962962962962957,25.796296296296283,0)" xlink:href="#J"/><use transform="matrix(0.12962962962962957,0,0,0.12962962962962957,43.94444444444442,0)" xlink:href="#K"/><use transform="matrix(0.12962962962962957,0,0,0.12962962962962957,69.87037037037034,0)" xlink:href="#L"/><use transform="matrix(0.12962962962962957,0,0,0.12962962962962957,98.25925925925921,0)" xlink:href="#M"/><use transform="matrix(0.12962962962962957,0,0,0.12962962962962957,111.22222222222217,0)" xlink:href="#N"/><use transform="matrix(0.12962962962962957,0,0,0.12962962962962957,126.6481481481481,0)" xlink:href="#M"/><use transform="matrix(0.12962962962962957,0,0,0.12962962962962957,139.61111111111106,0)" xlink:href="#O"/><use transform="matrix(0.12962962962962957,0,0,0.12962962962962957,167.99999999999994,0)" xlink:href="#P"/><use transform="matrix(0.12962962962962957,0,0,0.12962962962962957,196.38888888888883,0)" xlink:href="#K"/><use transform="matrix(0.12962962962962957,0,0,0.12962962962962957,222.31481481481475,0)" xlink:href="#Q"/></g><path fill="#3a414a" d="M182-130c37 4 62 22 62 59C244 23 116-4 24 0v-248c84 5 203-23 205 63 0 31-19 50-47 55zM76-148c40-3 101 13 101-30 0-44-60-28-101-31v61zm0 110c48-3 116 14 116-37 0-48-69-32-116-35v72" id="R"/><path fill="#3a414a" d="M76-208v77h127v40H76V0H24v-248h183v40H76" id="S"/><path fill="#3a414a" d="M169-182c-1-43-94-46-97-3 18 66 151 10 154 114 3 95-165 93-204 36-6-8-10-19-12-30l50-8c3 46 112 56 116 5-17-69-150-10-154-114-4-87 153-88 188-35 5 8 8 18 10 28" id="T"/><g id="b"><use transform="matrix(0.12345679012345674,0,0,0.12345679012345674,0,0)" xlink:href="#R"/><use transform="matrix(0.12345679012345674,0,0,0.12345679012345674,31.975308641975296,0)" xlink:href="#S"/><use transform="matrix(0.12345679012345674,0,0,0.12345679012345674,59.01234567901233,0)" xlink:href="#T"/></g><path fill="#3a414a" d="M140-251c80 0 125 45 125 126S219 4 139 4C58 4 15-44 15-125s44-126 125-126zm-1 214c52 0 73-35 73-88 0-50-21-86-72-86-52 0-73 35-73 86s22 88 72 88" id="U"/><path fill="#3a414a" d="M128 0H69L1-190h53L99-40l48-150h52" id="V"/><path fill="#3a414a" d="M185-48c-13 30-37 53-82 52C43 2 14-33 14-96s30-98 90-98c62 0 83 45 84 108H66c0 31 8 55 39 56 18 0 30-7 34-22zm-45-69c5-46-57-63-70-21-2 6-4 13-4 21h74" id="W"/><path fill="#3a414a" d="M123 10C108 53 80 86 19 72V37c35 8 53-11 59-39L3-190h52l48 148c12-52 28-100 44-148h51" id="X"/><g id="c"><use transform="matrix(0.12962962962962957,0,0,0.12962962962962957,0,0)" xlink:href="#U"/><use transform="matrix(0.12962962962962957,0,0,0.12962962962962957,36.296296296296276,0)" xlink:href="#V"/><use transform="matrix(0.12962962962962957,0,0,0.12962962962962957,62.222222222222186,0)" xlink:href="#W"/><use transform="matrix(0.12962962962962957,0,0,0.12962962962962957,88.1481481481481,0)" xlink:href="#J"/><use transform="matrix(0.12962962962962957,0,0,0.12962962962962957,106.29629629629623,0)" xlink:href="#Q"/><use transform="matrix(0.12962962962962957,0,0,0.12962962962962957,119.2592592592592,0)" xlink:href="#K"/><use transform="matrix(0.12962962962962957,0,0,0.12962962962962957,145.1851851851851,0)" xlink:href="#X"/></g><path fill="#3a414a" d="M24-248c93 1 206-16 204 79-1 75-69 88-152 82V0H24v-248zm52 121c47 0 100 7 100-41 0-47-54-39-100-39v80" id="Y"/><path fill="#3a414a" d="M240-174c0 40-23 61-54 70L253 0h-59l-57-94H76V0H24v-248c93 4 217-23 216 74zM76-134c48-2 112 12 112-38 0-48-66-32-112-35v73" id="Z"/><g id="d"><use transform="matrix(0.12345679012345674,0,0,0.12345679012345674,0,0)" xlink:href="#Y"/><use transform="matrix(0.12345679012345674,0,0,0.12345679012345674,29.62962962962962,0)" xlink:href="#Z"/></g><path fill="#e81313" d="M197-105C143-61 61-141 14-95v-38c53-45 135 36 183-10v38" id="aa"/><path fill="#e81313" d="M114-157C55-157 80-60 75 0H25v-261h50l-1 109c12-26 28-41 61-42 86-1 58 113 63 194h-50c-7-57 23-157-34-157" id="ab"/><path fill="#e81313" d="M110-194c64 0 96 36 96 99 0 64-35 99-97 99-61 0-95-36-95-99 0-62 34-99 96-99zm-1 164c35 0 45-28 45-65 0-40-10-65-43-65-34 0-45 26-45 65 0 36 10 65 43 65" id="ac"/><path fill="#e81313" d="M85 4C-2 5 27-109 22-190h50c7 57-23 150 33 157 60-5 35-97 40-157h50l1 190h-47c-2-12 1-28-3-38-12 25-28 42-61 42" id="ad"/><path fill="#e81313" d="M135-150c-39-12-60 13-60 57V0H25l-1-190h47c2 13-1 29 3 40 6-28 27-53 61-41v41" id="ae"/><path fill="#e81313" d="M137-138c1-29-70-34-71-4 15 46 118 7 119 86 1 83-164 76-172 9l43-7c4 19 20 25 44 25 33 8 57-30 24-41C81-84 22-81 20-136c-2-80 154-74 161-7" id="af"/><path fill="#e81313" d="M14-72v-43h91v43H14" id="ag"/><path fill="#e81313" d="M88-194c31-1 46 15 58 34l-1-101h50l1 261h-48c-2-10 0-23-3-31C134-8 116 4 84 4 32 4 16-41 15-95c0-56 19-97 73-99zm17 164c33 0 40-30 41-66 1-37-9-64-41-64s-38 30-39 65c0 43 13 65 39 65" id="ah"/><path fill="#e81313" d="M133-34C117-15 103 5 69 4 32 3 11-16 11-54c-1-60 55-63 116-61 1-26-3-47-28-47-18 1-26 9-28 27l-52-2c7-38 36-58 82-57s74 22 75 68l1 82c-1 14 12 18 25 15v27c-30 8-71 5-69-32zm-48 3c29 0 43-24 42-57-32 0-66-3-65 30 0 17 8 27 23 27" id="ai"/><path fill="#e81313" d="M123 10C108 53 80 86 19 72V37c35 8 53-11 59-39L3-190h52l48 148c12-52 28-100 44-148h51" id="aj"/><g id="e"><use transform="matrix(0.11111111111111109,0,0,0.11111111111111109,0,0)" xlink:href="#aa"/><use transform="matrix(0.11111111111111109,0,0,0.11111111111111109,23.33333333333333,0)" xlink:href="#ab"/><use transform="matrix(0.11111111111111109,0,0,0.11111111111111109,47.66666666666666,0)" xlink:href="#ac"/><use transform="matrix(0.11111111111111109,0,0,0.11111111111111109,71.99999999999999,0)" xlink:href="#ad"/><use transform="matrix(0.11111111111111109,0,0,0.11111111111111109,96.33333333333331,0)" xlink:href="#ae"/><use transform="matrix(0.11111111111111109,0,0,0.11111111111111109,111.88888888888887,0)" xlink:href="#af"/><use transform="matrix(0.11111111111111109,0,0,0.11111111111111109,134.1111111111111,0)" xlink:href="#ag"/><use transform="matrix(0.11111111111111109,0,0,0.11111111111111109,147.33333333333331,0)" xlink:href="#ah"/><use transform="matrix(0.11111111111111109,0,0,0.11111111111111109,171.66666666666663,0)" xlink:href="#ai"/><use transform="matrix(0.11111111111111109,0,0,0.11111111111111109,193.88888888888886,0)" xlink:href="#aj"/></g><path d="M135-194c53 0 70 44 70 98 0 56-19 98-73 100-31 1-45-17-59-34 3 33 2 69 2 105H25l-1-265h48c2 10 0 23 3 31 11-24 29-35 60-35zM114-30c33 0 39-31 40-66 0-38-9-64-40-64-56 0-55 130 0 130" id="ak"/><path d="M185-48c-13 30-37 53-82 52C43 2 14-33 14-96s30-98 90-98c62 0 83 45 84 108H66c0 31 8 55 39 56 18 0 30-7 34-22zm-45-69c5-46-57-63-70-21-2 6-4 13-4 21h74" id="al"/><path d="M135-150c-39-12-60 13-60 57V0H25l-1-190h47c2 13-1 29 3 40 6-28 27-53 61-41v41" id="am"/><g id="f"><use transform="matrix(0.11111111111111109,0,0,0.11111111111111109,0,0)" xlink:href="#ak"/><use transform="matrix(0.11111111111111109,0,0,0.11111111111111109,24.33333333333333,0)" xlink:href="#al"/><use transform="matrix(0.11111111111111109,0,0,0.11111111111111109,46.55555555555554,0)" xlink:href="#am"/></g><path fill="#e81313" d="M182-130c37 4 62 22 62 59C244 23 116-4 24 0v-248c84 5 203-23 205 63 0 31-19 50-47 55zM76-148c40-3 101 13 101-30 0-44-60-28-101-31v61zm0 110c48-3 116 14 116-37 0-48-69-32-116-35v72" id="an"/><path fill="#e81313" d="M25-224v-37h50v37H25zM25 0v-190h50V0H25" id="ao"/><path fill="#e81313" d="M115-3C79 11 28 4 28-45v-112H4v-33h27l15-45h31v45h36v33H77v99c-1 23 16 31 38 25v30" id="ap"/><path fill="#e81313" d="M185-48c-13 30-37 53-82 52C43 2 14-33 14-96s30-98 90-98c62 0 83 45 84 108H66c0 31 8 55 39 56 18 0 30-7 34-22zm-45-69c5-46-57-63-70-21-2 6-4 13-4 21h74" id="aq"/><path fill="#e81313" d="M220-157c-53 9-28 100-34 157h-49v-107c1-27-5-49-29-50C55-147 81-57 75 0H25l-1-190h47c2 12-1 28 3 38 10-53 101-56 108 0 13-22 24-43 59-42 82 1 51 116 57 194h-49v-107c-1-25-5-48-29-50" id="ar"/><g id="g"><use transform="matrix(0.11111111111111109,0,0,0.11111111111111109,0,0)" xlink:href="#an"/><use transform="matrix(0.11111111111111109,0,0,0.11111111111111109,28.77777777777777,0)" xlink:href="#ao"/><use transform="matrix(0.11111111111111109,0,0,0.11111111111111109,39.88888888888888,0)" xlink:href="#ap"/><use transform="matrix(0.11111111111111109,0,0,0.11111111111111109,53.1111111111111,0)" xlink:href="#af"/><use transform="matrix(0.11111111111111109,0,0,0.11111111111111109,75.33333333333331,0)" xlink:href="#ap"/><use transform="matrix(0.11111111111111109,0,0,0.11111111111111109,88.55555555555553,0)" xlink:href="#ae"/><use transform="matrix(0.11111111111111109,0,0,0.11111111111111109,104.11111111111109,0)" xlink:href="#aq"/><use transform="matrix(0.11111111111111109,0,0,0.11111111111111109,126.33333333333331,0)" xlink:href="#ai"/><use transform="matrix(0.11111111111111109,0,0,0.11111111111111109,148.55555555555551,0)" xlink:href="#ar"/></g><path d="M197-105C143-61 61-141 14-95v-38c53-45 135 36 183-10v38" id="as"/><path d="M114-157C55-157 80-60 75 0H25v-261h50l-1 109c12-26 28-41 61-42 86-1 58 113 63 194h-50c-7-57 23-157-34-157" id="at"/><path d="M110-194c64 0 96 36 96 99 0 64-35 99-97 99-61 0-95-36-95-99 0-62 34-99 96-99zm-1 164c35 0 45-28 45-65 0-40-10-65-43-65-34 0-45 26-45 65 0 36 10 65 43 65" id="au"/><path d="M85 4C-2 5 27-109 22-190h50c7 57-23 150 33 157 60-5 35-97 40-157h50l1 190h-47c-2-12 1-28-3-38-12 25-28 42-61 42" id="av"/><path d="M137-138c1-29-70-34-71-4 15 46 118 7 119 86 1 83-164 76-172 9l43-7c4 19 20 25 44 25 33 8 57-30 24-41C81-84 22-81 20-136c-2-80 154-74 161-7" id="aw"/><path d="M14-72v-43h91v43H14" id="ax"/><path d="M88-194c31-1 46 15 58 34l-1-101h50l1 261h-48c-2-10 0-23-3-31C134-8 116 4 84 4 32 4 16-41 15-95c0-56 19-97 73-99zm17 164c33 0 40-30 41-66 1-37-9-64-41-64s-38 30-39 65c0 43 13 65 39 65" id="ay"/><path d="M133-34C117-15 103 5 69 4 32 3 11-16 11-54c-1-60 55-63 116-61 1-26-3-47-28-47-18 1-26 9-28 27l-52-2c7-38 36-58 82-57s74 22 75 68l1 82c-1 14 12 18 25 15v27c-30 8-71 5-69-32zm-48 3c29 0 43-24 42-57-32 0-66-3-65 30 0 17 8 27 23 27" id="az"/><path d="M123 10C108 53 80 86 19 72V37c35 8 53-11 59-39L3-190h52l48 148c12-52 28-100 44-148h51" id="aA"/><g id="h"><use transform="matrix(0.11111111111111109,0,0,0.11111111111111109,0,0)" xlink:href="#as"/><use transform="matrix(0.11111111111111109,0,0,0.11111111111111109,23.33333333333333,0)" xlink:href="#at"/><use transform="matrix(0.11111111111111109,0,0,0.11111111111111109,47.66666666666666,0)" xlink:href="#au"/><use transform="matrix(0.11111111111111109,0,0,0.11111111111111109,71.99999999999999,0)" xlink:href="#av"/><use transform="matrix(0.11111111111111109,0,0,0.11111111111111109,96.33333333333331,0)" xlink:href="#am"/><use transform="matrix(0.11111111111111109,0,0,0.11111111111111109,111.88888888888887,0)" xlink:href="#aw"/><use transform="matrix(0.11111111111111109,0,0,0.11111111111111109,134.1111111111111,0)" xlink:href="#ax"/><use transform="matrix(0.11111111111111109,0,0,0.11111111111111109,147.33333333333331,0)" xlink:href="#ay"/><use transform="matrix(0.11111111111111109,0,0,0.11111111111111109,171.66666666666663,0)" xlink:href="#az"/><use transform="matrix(0.11111111111111109,0,0,0.11111111111111109,193.88888888888886,0)" xlink:href="#aA"/></g><path d="M67-93c0 74 22 123 53 168H70C40 30 18-18 18-93s22-123 52-168h50c-32 44-53 94-53 168" id="aB"/><path fill="#008a0e" d="M110-194c64 0 96 36 96 99 0 64-35 99-97 99-61 0-95-36-95-99 0-62 34-99 96-99zm-1 164c35 0 45-28 45-65 0-40-10-65-43-65-34 0-45 26-45 65 0 36 10 65 43 65" id="aC"/><path fill="#008a0e" d="M135-194c87-1 58 113 63 194h-50c-7-57 23-157-34-157-59 0-34 97-39 157H25l-1-190h47c2 12-1 28 3 38 12-26 28-41 61-42" id="aD"/><path fill="#008a0e" d="M190-63c-7 42-38 67-86 67-59 0-84-38-90-98-12-110 154-137 174-36l-49 2c-2-19-15-32-35-32-30 0-35 28-38 64-6 74 65 87 74 30" id="aE"/><path fill="#008a0e" d="M185-48c-13 30-37 53-82 52C43 2 14-33 14-96s30-98 90-98c62 0 83 45 84 108H66c0 31 8 55 39 56 18 0 30-7 34-22zm-45-69c5-46-57-63-70-21-2 6-4 13-4 21h74" id="aF"/><path d="M102-93c0 74-22 123-52 168H0C30 29 54-18 53-93c0-74-22-123-53-168h50c30 45 52 94 52 168" id="aG"/><g id="i"><use transform="matrix(0.11111111111111109,0,0,0.11111111111111109,0,0)" xlink:href="#aB"/><use transform="matrix(0.11111111111111109,0,0,0.11111111111111109,13.22222222222222,0)" xlink:href="#aC"/><use transform="matrix(0.11111111111111109,0,0,0.11111111111111109,37.55555555555555,0)" xlink:href="#aD"/><use transform="matrix(0.11111111111111109,0,0,0.11111111111111109,61.88888888888888,0)" xlink:href="#aE"/><use transform="matrix(0.11111111111111109,0,0,0.11111111111111109,84.1111111111111,0)" xlink:href="#aF"/><use transform="matrix(0.11111111111111109,0,0,0.11111111111111109,106.33333333333331,0)" xlink:href="#aG"/></g><path fill="#3a414a" d="M67-125c0 54 23 88 75 88 28 0 53-7 68-21v-34h-60v-39h108v91C232-14 192 4 140 4 58 4 20-42 15-125 8-236 126-280 215-234c19 10 29 26 37 47l-47 15c-11-23-29-39-63-39-53 1-75 33-75 86" id="aH"/><path fill="#3a414a" d="M135-194c53 0 70 44 70 98 0 56-19 98-73 100-31 1-45-17-59-34 3 33 2 69 2 105H25l-1-265h48c2 10 0 23 3 31 11-24 29-35 60-35zM114-30c33 0 39-31 40-66 0-38-9-64-40-64-56 0-55 130 0 130" id="aI"/><path fill="#3a414a" d="M114-157C55-157 80-60 75 0H25v-261h50l-1 109c12-26 28-41 61-42 86-1 58 113 63 194h-50c-7-57 23-157-34-157" id="aJ"/><path fill="#3a414a" d="M144 0l-44-69L55 0H2l70-98-66-92h53l41 62 40-62h54l-67 91 71 99h-54" id="aK"/><g id="j"><use transform="matrix(0.12345679012345674,0,0,0.12345679012345674,0,0)" xlink:href="#aH"/><use transform="matrix(0.12345679012345674,0,0,0.12345679012345674,34.567901234567884,0)" xlink:href="#J"/><use transform="matrix(0.12345679012345674,0,0,0.12345679012345674,51.851851851851826,0)" xlink:href="#K"/><use transform="matrix(0.12345679012345674,0,0,0.12345679012345674,76.54320987654317,0)" xlink:href="#aI"/><use transform="matrix(0.12345679012345674,0,0,0.12345679012345674,103.5802469135802,0)" xlink:href="#aJ"/><use transform="matrix(0.12345679012345674,0,0,0.12345679012345674,130.61728395061724,0)" xlink:href="#R"/><use transform="matrix(0.12345679012345674,0,0,0.12345679012345674,162.59259259259252,0)" xlink:href="#Q"/><use transform="matrix(0.12345679012345674,0,0,0.12345679012345674,174.9382716049382,0)" xlink:href="#O"/><use transform="matrix(0.12345679012345674,0,0,0.12345679012345674,201.97530864197523,0)" xlink:href="#aK"/></g><path fill="#008573" d="M67-125c0 53 21 87 73 88 37 1 54-22 65-47l45 17C233-25 199 4 140 4 58 4 20-42 15-125 8-235 124-281 211-232c18 10 29 29 36 50l-46 12c-8-25-30-41-62-41-52 0-71 34-72 86" id="aL"/><path fill="#008573" d="M110-194c64 0 96 36 96 99 0 64-35 99-97 99-61 0-95-36-95-99 0-62 34-99 96-99zm-1 164c35 0 45-28 45-65 0-40-10-65-43-65-34 0-45 26-45 65 0 36 10 65 43 65" id="aM"/><path fill="#008573" d="M135-194c87-1 58 113 63 194h-50c-7-57 23-157-34-157-59 0-34 97-39 157H25l-1-190h47c2 12-1 28 3 38 12-26 28-41 61-42" id="aN"/><path fill="#008573" d="M121-226c-27-7-43 5-38 36h38v33H83V0H34v-157H6v-33h28c-9-59 32-81 87-68v32" id="aO"/><path fill="#008573" d="M25-224v-37h50v37H25zM25 0v-190h50V0H25" id="aP"/><path fill="#008573" d="M195-6C206 82 75 100 31 46c-4-6-6-13-8-21l49-6c3 16 16 24 34 25 40 0 42-37 40-79-11 22-30 35-61 35-53 0-70-43-70-97 0-56 18-96 73-97 30 0 46 14 59 34l2-30h47zm-90-29c32 0 41-27 41-63 0-35-9-62-40-62-32 0-39 29-40 63 0 36 9 62 39 62" id="aQ"/><path fill="#008573" d="M85 4C-2 5 27-109 22-190h50c7 57-23 150 33 157 60-5 35-97 40-157h50l1 190h-47c-2-12 1-28-3-38-12 25-28 42-61 42" id="aR"/><path fill="#008573" d="M135-150c-39-12-60 13-60 57V0H25l-1-190h47c2 13-1 29 3 40 6-28 27-53 61-41v41" id="aS"/><path fill="#008573" d="M185-48c-13 30-37 53-82 52C43 2 14-33 14-96s30-98 90-98c62 0 83 45 84 108H66c0 31 8 55 39 56 18 0 30-7 34-22zm-45-69c5-46-57-63-70-21-2 6-4 13-4 21h74" id="aT"/><path fill="#008573" d="M4 7l51-268h42L46 7H4" id="aU"/><g id="k"><use transform="matrix(0.1296296296296296,0,0,0.1296296296296296,0,0)" xlink:href="#aL"/><use transform="matrix(0.1296296296296296,0,0,0.1296296296296296,33.57407407407406,0)" xlink:href="#aM"/><use transform="matrix(0.1296296296296296,0,0,0.1296296296296296,61.96296296296295,0)" xlink:href="#aN"/><use transform="matrix(0.1296296296296296,0,0,0.1296296296296296,90.35185185185183,0)" xlink:href="#aO"/><use transform="matrix(0.1296296296296296,0,0,0.1296296296296296,105.77777777777776,0)" xlink:href="#aP"/><use transform="matrix(0.1296296296296296,0,0,0.1296296296296296,118.74074074074072,0)" xlink:href="#aQ"/><use transform="matrix(0.1296296296296296,0,0,0.1296296296296296,147.1296296296296,0)" xlink:href="#aR"/><use transform="matrix(0.1296296296296296,0,0,0.1296296296296296,175.51851851851848,0)" xlink:href="#aS"/><use transform="matrix(0.1296296296296296,0,0,0.1296296296296296,193.6666666666666,0)" xlink:href="#aT"/><use transform="matrix(0.1296296296296296,0,0,0.1296296296296296,219.59259259259255,0)" xlink:href="#aU"/></g><path fill="#008573" d="M24 0v-248h52v208h133V0H24" id="aV"/><path fill="#008573" d="M133-34C117-15 103 5 69 4 32 3 11-16 11-54c-1-60 55-63 116-61 1-26-3-47-28-47-18 1-26 9-28 27l-52-2c7-38 36-58 82-57s74 22 75 68l1 82c-1 14 12 18 25 15v27c-30 8-71 5-69-32zm-48 3c29 0 43-24 42-57-32 0-66-3-65 30 0 17 8 27 23 27" id="aW"/><path fill="#008573" d="M88-194c31-1 46 15 58 34l-1-101h50l1 261h-48c-2-10 0-23-3-31C134-8 116 4 84 4 32 4 16-41 15-95c0-56 19-97 73-99zm17 164c33 0 40-30 41-66 1-37-9-64-41-64s-38 30-39 65c0 43 13 65 39 65" id="aX"/><g id="l"><use transform="matrix(0.1296296296296296,0,0,0.1296296296296296,0,0)" xlink:href="#aV"/><use transform="matrix(0.1296296296296296,0,0,0.1296296296296296,28.388888888888882,0)" xlink:href="#aM"/><use transform="matrix(0.1296296296296296,0,0,0.1296296296296296,56.777777777777764,0)" xlink:href="#aW"/><use transform="matrix(0.1296296296296296,0,0,0.1296296296296296,82.70370370370368,0)" xlink:href="#aX"/></g><path d="M190-63c-7 42-38 67-86 67-59 0-84-38-90-98-12-110 154-137 174-36l-49 2c-2-19-15-32-35-32-30 0-35 28-38 64-6 74 65 87 74 30" id="aY"/><path d="M135-194c87-1 58 113 63 194h-50c-7-57 23-157-34-157-59 0-34 97-39 157H25l-1-190h47c2 12-1 28 3 38 12-26 28-41 61-42" id="aZ"/><path d="M220-157c-53 9-28 100-34 157h-49v-107c1-27-5-49-29-50C55-147 81-57 75 0H25l-1-190h47c2 12-1 28 3 38 10-53 101-56 108 0 13-22 24-43 59-42 82 1 51 116 57 194h-49v-107c-1-25-5-48-29-50" id="ba"/><path d="M25-224v-37h50v37H25zM25 0v-190h50V0H25" id="bb"/><path d="M115-3C79 11 28 4 28-45v-112H4v-33h27l15-45h31v45h36v33H77v99c-1 23 16 31 38 25v30" id="bc"/><g id="m"><use transform="matrix(0.11111111111111108,0,0,0.11111111111111108,0,0)" xlink:href="#as"/><use transform="matrix(0.11111111111111108,0,0,0.11111111111111108,23.333333333333325,0)" xlink:href="#aw"/><use transform="matrix(0.11111111111111108,0,0,0.11111111111111108,45.55555555555554,0)" xlink:href="#al"/><use transform="matrix(0.11111111111111108,0,0,0.11111111111111108,67.77777777777776,0)" xlink:href="#aY"/><use transform="matrix(0.11111111111111108,0,0,0.11111111111111108,89.99999999999997,0)" xlink:href="#au"/><use transform="matrix(0.11111111111111108,0,0,0.11111111111111108,114.3333333333333,0)" xlink:href="#aZ"/><use transform="matrix(0.11111111111111108,0,0,0.11111111111111108,138.66666666666663,0)" xlink:href="#ay"/><use transform="matrix(0.11111111111111108,0,0,0.11111111111111108,162.99999999999994,0)" xlink:href="#aw"/><use transform="matrix(0.11111111111111108,0,0,0.11111111111111108,185.22222222222217,0)" xlink:href="#ax"/><use transform="matrix(0.11111111111111108,0,0,0.11111111111111108,198.4444444444444,0)" xlink:href="#ba"/><use transform="matrix(0.11111111111111108,0,0,0.11111111111111108,233.99999999999991,0)" xlink:href="#bb"/><use transform="matrix(0.11111111111111108,0,0,0.11111111111111108,245.11111111111103,0)" xlink:href="#aZ"/><use transform="matrix(0.11111111111111108,0,0,0.11111111111111108,269.4444444444444,0)" xlink:href="#av"/><use transform="matrix(0.11111111111111108,0,0,0.11111111111111108,293.7777777777777,0)" xlink:href="#bc"/><use transform="matrix(0.11111111111111108,0,0,0.11111111111111108,306.99999999999994,0)" xlink:href="#al"/></g><g id="n"><use transform="matrix(0.11111111111111108,0,0,0.11111111111111108,0,0)" xlink:href="#ak"/><use transform="matrix(0.11111111111111108,0,0,0.11111111111111108,24.333333333333325,0)" xlink:href="#al"/><use transform="matrix(0.11111111111111108,0,0,0.11111111111111108,46.55555555555554,0)" xlink:href="#am"/></g><g id="o"><use transform="matrix(0.11111111111111108,0,0,0.11111111111111108,0,0)" xlink:href="#an"/><use transform="matrix(0.11111111111111108,0,0,0.11111111111111108,28.777777777777768,0)" xlink:href="#ao"/><use transform="matrix(0.11111111111111108,0,0,0.11111111111111108,39.88888888888887,0)" xlink:href="#ap"/><use transform="matrix(0.11111111111111108,0,0,0.11111111111111108,53.111111111111086,0)" xlink:href="#af"/><use transform="matrix(0.11111111111111108,0,0,0.11111111111111108,75.3333333333333,0)" xlink:href="#ap"/><use transform="matrix(0.11111111111111108,0,0,0.11111111111111108,88.55555555555551,0)" xlink:href="#ae"/><use transform="matrix(0.11111111111111108,0,0,0.11111111111111108,104.11111111111106,0)" xlink:href="#aq"/><use transform="matrix(0.11111111111111108,0,0,0.11111111111111108,126.33333333333327,0)" xlink:href="#ai"/><use transform="matrix(0.11111111111111108,0,0,0.11111111111111108,148.5555555555555,0)" xlink:href="#ar"/></g><path fill="#1071e5" d="M67-125c0 53 21 87 73 88 37 1 54-22 65-47l45 17C233-25 199 4 140 4 58 4 20-42 15-125 8-235 124-281 211-232c18 10 29 29 36 50l-46 12c-8-25-30-41-62-41-52 0-71 34-72 86" id="bd"/><path fill="#1071e5" d="M110-194c64 0 96 36 96 99 0 64-35 99-97 99-61 0-95-36-95-99 0-62 34-99 96-99zm-1 164c35 0 45-28 45-65 0-40-10-65-43-65-34 0-45 26-45 65 0 36 10 65 43 65" id="be"/><path fill="#1071e5" d="M220-157c-53 9-28 100-34 157h-49v-107c1-27-5-49-29-50C55-147 81-57 75 0H25l-1-190h47c2 12-1 28 3 38 10-53 101-56 108 0 13-22 24-43 59-42 82 1 51 116 57 194h-49v-107c-1-25-5-48-29-50" id="bf"/><path fill="#1071e5" d="M135-194c53 0 70 44 70 98 0 56-19 98-73 100-31 1-45-17-59-34 3 33 2 69 2 105H25l-1-265h48c2 10 0 23 3 31 11-24 29-35 60-35zM114-30c33 0 39-31 40-66 0-38-9-64-40-64-56 0-55 130 0 130" id="bg"/><path fill="#1071e5" d="M25-224v-37h50v37H25zM25 0v-190h50V0H25" id="bh"/><path fill="#1071e5" d="M25 0v-261h50V0H25" id="bi"/><path fill="#1071e5" d="M185-48c-13 30-37 53-82 52C43 2 14-33 14-96s30-98 90-98c62 0 83 45 84 108H66c0 31 8 55 39 56 18 0 30-7 34-22zm-45-69c5-46-57-63-70-21-2 6-4 13-4 21h74" id="bj"/><path fill="#1071e5" d="M4 7l51-268h42L46 7H4" id="bk"/><g id="p"><use transform="matrix(0.1296296296296296,0,0,0.1296296296296296,0,0)" xlink:href="#bd"/><use transform="matrix(0.1296296296296296,0,0,0.1296296296296296,33.57407407407406,0)" xlink:href="#be"/><use transform="matrix(0.1296296296296296,0,0,0.1296296296296296,61.96296296296295,0)" xlink:href="#bf"/><use transform="matrix(0.1296296296296296,0,0,0.1296296296296296,103.44444444444441,0)" xlink:href="#bg"/><use transform="matrix(0.1296296296296296,0,0,0.1296296296296296,131.8333333333333,0)" xlink:href="#bh"/><use transform="matrix(0.1296296296296296,0,0,0.1296296296296296,144.79629629629625,0)" xlink:href="#bi"/><use transform="matrix(0.1296296296296296,0,0,0.1296296296296296,157.7592592592592,0)" xlink:href="#bj"/><use transform="matrix(0.1296296296296296,0,0,0.1296296296296296,183.68518518518513,0)" xlink:href="#bk"/></g><path fill="#1071e5" d="M169-182c-1-43-94-46-97-3 18 66 151 10 154 114 3 95-165 93-204 36-6-8-10-19-12-30l50-8c3 46 112 56 116 5-17-69-150-10-154-114-4-87 153-88 188-35 5 8 8 18 10 28" id="bl"/><path fill="#1071e5" d="M123 10C108 53 80 86 19 72V37c35 8 53-11 59-39L3-190h52l48 148c12-52 28-100 44-148h51" id="bm"/><path fill="#1071e5" d="M135-194c87-1 58 113 63 194h-50c-7-57 23-157-34-157-59 0-34 97-39 157H25l-1-190h47c2 12-1 28 3 38 12-26 28-41 61-42" id="bn"/><path fill="#1071e5" d="M115-3C79 11 28 4 28-45v-112H4v-33h27l15-45h31v45h36v33H77v99c-1 23 16 31 38 25v30" id="bo"/><path fill="#1071e5" d="M114-157C55-157 80-60 75 0H25v-261h50l-1 109c12-26 28-41 61-42 86-1 58 113 63 194h-50c-7-57 23-157-34-157" id="bp"/><path fill="#1071e5" d="M137-138c1-29-70-34-71-4 15 46 118 7 119 86 1 83-164 76-172 9l43-7c4 19 20 25 44 25 33 8 57-30 24-41C81-84 22-81 20-136c-2-80 154-74 161-7" id="bq"/><path fill="#1071e5" d="M12 0v-35l95-120H19v-35h142v35L67-36h103V0H12" id="br"/><g id="q"><use transform="matrix(0.1296296296296296,0,0,0.1296296296296296,0,0)" xlink:href="#bl"/><use transform="matrix(0.1296296296296296,0,0,0.1296296296296296,31.111111111111104,0)" xlink:href="#bm"/><use transform="matrix(0.1296296296296296,0,0,0.1296296296296296,57.037037037037024,0)" xlink:href="#bn"/><use transform="matrix(0.1296296296296296,0,0,0.1296296296296296,85.42592592592591,0)" xlink:href="#bo"/><use transform="matrix(0.1296296296296296,0,0,0.1296296296296296,100.85185185185183,0)" xlink:href="#bp"/><use transform="matrix(0.1296296296296296,0,0,0.1296296296296296,129.2407407407407,0)" xlink:href="#bj"/><use transform="matrix(0.1296296296296296,0,0,0.1296296296296296,155.16666666666663,0)" xlink:href="#bq"/><use transform="matrix(0.1296296296296296,0,0,0.1296296296296296,181.09259259259255,0)" xlink:href="#bh"/><use transform="matrix(0.1296296296296296,0,0,0.1296296296296296,194.05555555555551,0)" xlink:href="#br"/><use transform="matrix(0.1296296296296296,0,0,0.1296296296296296,217.38888888888886,0)" xlink:href="#bj"/></g><path d="M76-208v77h127v40H76V0H24v-248h183v40H76" id="bs"/><path d="M24-248c93 1 206-16 204 79-1 75-69 88-152 82V0H24v-248zm52 121c47 0 100 7 100-41 0-47-54-39-100-39v80" id="bt"/><path d="M67-125c0 54 23 88 75 88 28 0 53-7 68-21v-34h-60v-39h108v91C232-14 192 4 140 4 58 4 20-42 15-125 8-236 126-280 215-234c19 10 29 26 37 47l-47 15c-11-23-29-39-63-39-53 1-75 33-75 86" id="bu"/><path d="M199 0l-22-63H83L61 0H9l90-248h61L250 0h-51zm-33-102l-36-108c-10 38-24 72-36 108h72" id="bv"/><g id="r"><use transform="matrix(0.12345679012345673,0,0,0.12345679012345673,0,0)" xlink:href="#bs"/><use transform="matrix(0.12345679012345673,0,0,0.12345679012345673,27.037037037037024,0)" xlink:href="#bt"/><use transform="matrix(0.12345679012345673,0,0,0.12345679012345673,56.66666666666664,0)" xlink:href="#bu"/><use transform="matrix(0.12345679012345673,0,0,0.12345679012345673,91.23456790123453,0)" xlink:href="#bv"/></g><path d="M4 7l51-268h42L46 7H4" id="bw"/><g id="s"><use transform="matrix(0.1111111111111111,0,0,0.1111111111111111,0,0)" xlink:href="#as"/><use transform="matrix(0.1111111111111111,0,0,0.1111111111111111,23.333333333333332,0)" xlink:href="#aw"/><use transform="matrix(0.1111111111111111,0,0,0.1111111111111111,45.55555555555556,0)" xlink:href="#al"/><use transform="matrix(0.1111111111111111,0,0,0.1111111111111111,67.77777777777777,0)" xlink:href="#aY"/><use transform="matrix(0.1111111111111111,0,0,0.1111111111111111,90,0)" xlink:href="#au"/><use transform="matrix(0.1111111111111111,0,0,0.1111111111111111,114.33333333333333,0)" xlink:href="#aZ"/><use transform="matrix(0.1111111111111111,0,0,0.1111111111111111,138.66666666666666,0)" xlink:href="#ay"/><use transform="matrix(0.1111111111111111,0,0,0.1111111111111111,163,0)" xlink:href="#aw"/><use transform="matrix(0.1111111111111111,0,0,0.1111111111111111,185.22222222222223,0)" xlink:href="#ax"/><use transform="matrix(0.1111111111111111,0,0,0.1111111111111111,198.44444444444446,0)" xlink:href="#ba"/><use transform="matrix(0.1111111111111111,0,0,0.1111111111111111,234,0)" xlink:href="#bb"/><use transform="matrix(0.1111111111111111,0,0,0.1111111111111111,245.1111111111111,0)" xlink:href="#aZ"/><use transform="matrix(0.1111111111111111,0,0,0.1111111111111111,269.44444444444446,0)" xlink:href="#av"/><use transform="matrix(0.1111111111111111,0,0,0.1111111111111111,293.77777777777777,0)" xlink:href="#bc"/><use transform="matrix(0.1111111111111111,0,0,0.1111111111111111,307,0)" xlink:href="#al"/><use transform="matrix(0.1111111111111111,0,0,0.1111111111111111,329.22222222222223,0)" xlink:href="#bw"/></g><g id="t"><use transform="matrix(0.1111111111111111,0,0,0.1111111111111111,0,0)" xlink:href="#aC"/><use transform="matrix(0.1111111111111111,0,0,0.1111111111111111,24.333333333333332,0)" xlink:href="#aD"/><use transform="matrix(0.1111111111111111,0,0,0.1111111111111111,48.666666666666664,0)" xlink:href="#aE"/><use transform="matrix(0.1111111111111111,0,0,0.1111111111111111,70.88888888888889,0)" xlink:href="#aF"/></g><g id="u"><use transform="matrix(0.09259259259259256,0,0,0.09259259259259256,0,0)" xlink:href="#R"/><use transform="matrix(0.09259259259259256,0,0,0.09259259259259256,23.981481481481474,0)" xlink:href="#S"/><use transform="matrix(0.09259259259259256,0,0,0.09259259259259256,44.259259259259245,0)" xlink:href="#T"/></g><g id="v"><use transform="matrix(0.09259259259259256,0,0,0.09259259259259256,0,0)" xlink:href="#Y"/><use transform="matrix(0.09259259259259256,0,0,0.09259259259259256,22.222222222222214,0)" xlink:href="#Z"/></g><g id="x"><use transform="matrix(0.1296296296296296,0,0,0.1296296296296296,0,0)" xlink:href="#aV"/><use transform="matrix(0.1296296296296296,0,0,0.1296296296296296,28.388888888888882,0)" xlink:href="#aM"/><use transform="matrix(0.1296296296296296,0,0,0.1296296296296296,56.777777777777764,0)" xlink:href="#aW"/><use transform="matrix(0.1296296296296296,0,0,0.1296296296296296,82.70370370370368,0)" xlink:href="#aX"/></g><path fill="#008573" d="M230 0l2-204L168 0h-37L68-204 70 0H24v-248h70l56 185 57-185h69V0h-46" id="bx"/><path fill="#008573" d="M123 10C108 53 80 86 19 72V37c35 8 53-11 59-39L3-190h52l48 148c12-52 28-100 44-148h51" id="by"/><g id="y"><use transform="matrix(0.1296296296296296,0,0,0.1296296296296296,0,0)" xlink:href="#bx"/><use transform="matrix(0.1296296296296296,0,0,0.1296296296296296,38.759259259259245,0)" xlink:href="#aW"/><use transform="matrix(0.1296296296296296,0,0,0.1296296296296296,64.68518518518516,0)" xlink:href="#aN"/><use transform="matrix(0.1296296296296296,0,0,0.1296296296296296,93.07407407407405,0)" xlink:href="#by"/></g><path fill="#008a0e" d="M197-105C143-61 61-141 14-95v-38c53-45 135 36 183-10v38" id="bz"/><path fill="#008a0e" d="M133-34C117-15 103 5 69 4 32 3 11-16 11-54c-1-60 55-63 116-61 1-26-3-47-28-47-18 1-26 9-28 27l-52-2c7-38 36-58 82-57s74 22 75 68l1 82c-1 14 12 18 25 15v27c-30 8-71 5-69-32zm-48 3c29 0 43-24 42-57-32 0-66-3-65 30 0 17 8 27 23 27" id="bA"/><path fill="#008a0e" d="M14-72v-43h91v43H14" id="bB"/><path fill="#008a0e" d="M220-157c-53 9-28 100-34 157h-49v-107c1-27-5-49-29-50C55-147 81-57 75 0H25l-1-190h47c2 12-1 28 3 38 10-53 101-56 108 0 13-22 24-43 59-42 82 1 51 116 57 194h-49v-107c-1-25-5-48-29-50" id="bC"/><path fill="#008a0e" d="M25-224v-37h50v37H25zM25 0v-190h50V0H25" id="bD"/><path fill="#008a0e" d="M135-150c-39-12-60 13-60 57V0H25l-1-190h47c2 13-1 29 3 40 6-28 27-53 61-41v41" id="bE"/><g id="z"><use transform="matrix(0.11111111111111109,0,0,0.11111111111111109,0,0)" xlink:href="#bz"/><use transform="matrix(0.11111111111111109,0,0,0.11111111111111109,23.33333333333333,0)" xlink:href="#aD"/><use transform="matrix(0.11111111111111109,0,0,0.11111111111111109,47.66666666666666,0)" xlink:href="#bA"/><use transform="matrix(0.11111111111111109,0,0,0.11111111111111109,69.88888888888887,0)" xlink:href="#aD"/><use transform="matrix(0.11111111111111109,0,0,0.11111111111111109,94.2222222222222,0)" xlink:href="#aC"/><use transform="matrix(0.11111111111111109,0,0,0.11111111111111109,118.55555555555553,0)" xlink:href="#bB"/><use transform="matrix(0.11111111111111109,0,0,0.11111111111111109,131.77777777777774,0)" xlink:href="#bC"/><use transform="matrix(0.11111111111111109,0,0,0.11111111111111109,167.3333333333333,0)" xlink:href="#bD"/><use transform="matrix(0.11111111111111109,0,0,0.11111111111111109,178.4444444444444,0)" xlink:href="#aE"/><use transform="matrix(0.11111111111111109,0,0,0.11111111111111109,200.66666666666663,0)" xlink:href="#bE"/><use transform="matrix(0.11111111111111109,0,0,0.11111111111111109,216.22222222222217,0)" xlink:href="#aC"/></g><path fill="#008a0e" d="M137-138c1-29-70-34-71-4 15 46 118 7 119 86 1 83-164 76-172 9l43-7c4 19 20 25 44 25 33 8 57-30 24-41C81-84 22-81 20-136c-2-80 154-74 161-7" id="bF"/><path fill="#008a0e" d="M88-194c31-1 46 15 58 34l-1-101h50l1 261h-48c-2-10 0-23-3-31C134-8 116 4 84 4 32 4 16-41 15-95c0-56 19-97 73-99zm17 164c33 0 40-30 41-66 1-37-9-64-41-64s-38 30-39 65c0 43 13 65 39 65" id="bG"/><g id="A"><use transform="matrix(0.11111111111111109,0,0,0.11111111111111109,0,0)" xlink:href="#bF"/><use transform="matrix(0.11111111111111109,0,0,0.11111111111111109,22.222222222222218,0)" xlink:href="#aF"/><use transform="matrix(0.11111111111111109,0,0,0.11111111111111109,44.444444444444436,0)" xlink:href="#aE"/><use transform="matrix(0.11111111111111109,0,0,0.11111111111111109,66.66666666666666,0)" xlink:href="#aC"/><use transform="matrix(0.11111111111111109,0,0,0.11111111111111109,90.99999999999999,0)" xlink:href="#aD"/><use transform="matrix(0.11111111111111109,0,0,0.11111111111111109,115.33333333333331,0)" xlink:href="#bG"/><use transform="matrix(0.11111111111111109,0,0,0.11111111111111109,139.66666666666663,0)" xlink:href="#bF"/></g><path fill="#3a414a" d="M67-125c0 53 21 87 73 88 37 1 54-22 65-47l45 17C233-25 199 4 140 4 58 4 20-42 15-125 8-235 124-281 211-232c18 10 29 29 36 50l-46 12c-8-25-30-41-62-41-52 0-71 34-72 86" id="bH"/><g id="B"><use transform="matrix(0.09259259259259256,0,0,0.09259259259259256,0,0)" xlink:href="#I"/><use transform="matrix(0.09259259259259256,0,0,0.09259259259259256,20.27777777777777,0)" xlink:href="#bH"/></g><path fill="#008a0e" d="M140-251c80 0 125 45 125 126S219 4 139 4C58 4 15-44 15-125s44-126 125-126zm-1 214c52 0 73-35 73-88 0-50-21-86-72-86-52 0-73 35-73 86s22 88 72 88" id="bI"/><path fill="#008a0e" d="M128 0H69L1-190h53L99-40l48-150h52" id="bJ"/><path fill="#008a0e" d="M25 0v-261h50V0H25" id="bK"/><path fill="#008a0e" d="M123 10C108 53 80 86 19 72V37c35 8 53-11 59-39L3-190h52l48 148c12-52 28-100 44-148h51" id="bL"/><g id="C"><use transform="matrix(0.11111111111111105,0,0,0.11111111111111105,0,0)" xlink:href="#bI"/><use transform="matrix(0.11111111111111105,0,0,0.11111111111111105,31.111111111111093,0)" xlink:href="#bJ"/><use transform="matrix(0.11111111111111105,0,0,0.11111111111111105,53.3333333333333,0)" xlink:href="#aF"/><use transform="matrix(0.11111111111111105,0,0,0.11111111111111105,75.55555555555551,0)" xlink:href="#bE"/><use transform="matrix(0.11111111111111105,0,0,0.11111111111111105,91.11111111111106,0)" xlink:href="#bK"/><use transform="matrix(0.11111111111111105,0,0,0.11111111111111105,102.22222222222216,0)" xlink:href="#bA"/><use transform="matrix(0.11111111111111105,0,0,0.11111111111111105,124.44444444444437,0)" xlink:href="#bL"/></g><path fill="#1071e5" d="M24-248c93 1 206-16 204 79-1 75-69 88-152 82V0H24v-248zm52 121c47 0 100 7 100-41 0-47-54-39-100-39v80" id="bM"/><path fill="#1071e5" d="M135-150c-39-12-60 13-60 57V0H25l-1-190h47c2 13-1 29 3 40 6-28 27-53 61-41v41" id="bN"/><path fill="#1071e5" d="M195-6C206 82 75 100 31 46c-4-6-6-13-8-21l49-6c3 16 16 24 34 25 40 0 42-37 40-79-11 22-30 35-61 35-53 0-70-43-70-97 0-56 18-96 73-97 30 0 46 14 59 34l2-30h47zm-90-29c32 0 41-27 41-63 0-35-9-62-40-62-32 0-39 29-40 63 0 36 9 62 39 62" id="bO"/><path fill="#1071e5" d="M133-34C117-15 103 5 69 4 32 3 11-16 11-54c-1-60 55-63 116-61 1-26-3-47-28-47-18 1-26 9-28 27l-52-2c7-38 36-58 82-57s74 22 75 68l1 82c-1 14 12 18 25 15v27c-30 8-71 5-69-32zm-48 3c29 0 43-24 42-57-32 0-66-3-65 30 0 17 8 27 23 27" id="bP"/><path fill="#1071e5" d="M135-194c52 0 70 43 70 98 0 56-19 99-73 100-30 1-46-15-58-35L72 0H24l1-261h50v104c11-23 29-37 60-37zM114-30c31 0 40-27 40-66 0-37-7-63-39-63s-41 28-41 65c0 36 8 64 40 64" id="bQ"/><g id="D"><use transform="matrix(0.12962962962962957,0,0,0.12962962962962957,0,0)" xlink:href="#bM"/><use transform="matrix(0.12962962962962957,0,0,0.12962962962962957,31.111111111111097,0)" xlink:href="#bN"/><use transform="matrix(0.12962962962962957,0,0,0.12962962962962957,49.25925925925924,0)" xlink:href="#be"/><use transform="matrix(0.12962962962962957,0,0,0.12962962962962957,77.64814814814811,0)" xlink:href="#bO"/><use transform="matrix(0.12962962962962957,0,0,0.12962962962962957,106.03703703703698,0)" xlink:href="#bN"/><use transform="matrix(0.12962962962962957,0,0,0.12962962962962957,124.18518518518512,0)" xlink:href="#bP"/><use transform="matrix(0.12962962962962957,0,0,0.12962962962962957,150.11111111111103,0)" xlink:href="#bf"/><use transform="matrix(0.12962962962962957,0,0,0.12962962962962957,191.5925925925925,0)" xlink:href="#bf"/><use transform="matrix(0.12962962962962957,0,0,0.12962962962962957,233.07407407407396,0)" xlink:href="#bP"/><use transform="matrix(0.12962962962962957,0,0,0.12962962962962957,258.9999999999999,0)" xlink:href="#bQ"/><use transform="matrix(0.12962962962962957,0,0,0.12962962962962957,287.38888888888874,0)" xlink:href="#bi"/><use transform="matrix(0.12962962962962957,0,0,0.12962962962962957,300.35185185185173,0)" xlink:href="#bj"/></g><path fill="#3a414a" d="M24 0v-54h51V0H24" id="bR"/><g id="E"><use transform="matrix(0.1851851851851852,0,0,0.1851851851851852,0,0)" xlink:href="#bR"/><use transform="matrix(0.1851851851851852,0,0,0.1851851851851852,18.51851851851852,0)" xlink:href="#bR"/><use transform="matrix(0.1851851851851852,0,0,0.1851851851851852,37.03703703703704,0)" xlink:href="#bR"/><use transform="matrix(0.1851851851851852,0,0,0.1851851851851852,55.555555555555564,0)" xlink:href="#bR"/></g><g id="F"><use transform="matrix(0.09259259259259256,0,0,0.09259259259259256,0,0)" xlink:href="#bH"/><use transform="matrix(0.09259259259259256,0,0,0.09259259259259256,23.981481481481474,0)" xlink:href="#bH"/></g><path fill="#3a414a" d="M230 0l2-204L168 0h-37L68-204 70 0H24v-248h70l56 185 57-185h69V0h-46" id="bS"/><path fill="#3a414a" d="M147 0H94L2-248h55l64 206c17-72 42-137 63-206h54" id="bT"/><g id="G"><use transform="matrix(0.09259259259259256,0,0,0.09259259259259256,0,0)" xlink:href="#T"/><use transform="matrix(0.09259259259259256,0,0,0.09259259259259256,22.222222222222214,0)" xlink:href="#aI"/><use transform="matrix(0.09259259259259256,0,0,0.09259259259259256,42.499999999999986,0)" xlink:href="#bS"/><use transform="matrix(0.09259259259259256,0,0,0.09259259259259256,70.18518518518516,0)" xlink:href="#bT"/></g><g id="H"><use transform="matrix(0.12962962962962957,0,0,0.12962962962962957,0,0)" xlink:href="#an"/><use transform="matrix(0.12962962962962957,0,0,0.12962962962962957,33.574074074074055,0)" xlink:href="#ao"/><use transform="matrix(0.12962962962962957,0,0,0.12962962962962957,46.53703703703701,0)" xlink:href="#ap"/><use transform="matrix(0.12962962962962957,0,0,0.12962962962962957,61.962962962962926,0)" xlink:href="#af"/><use transform="matrix(0.12962962962962957,0,0,0.12962962962962957,87.88888888888884,0)" xlink:href="#ap"/><use transform="matrix(0.12962962962962957,0,0,0.12962962962962957,103.31481481481477,0)" xlink:href="#ae"/><use transform="matrix(0.12962962962962957,0,0,0.12962962962962957,121.4629629629629,0)" xlink:href="#aq"/><use transform="matrix(0.12962962962962957,0,0,0.12962962962962957,147.38888888888883,0)" xlink:href="#ai"/><use transform="matrix(0.12962962962962957,0,0,0.12962962962962957,173.31481481481475,0)" xlink:href="#ar"/><use transform="matrix(0.12962962962962957,0,0,0.12962962962962957,214.79629629629622,0)" xlink:href="#af"/></g></defs></g></svg>