<svg xmlns="http://www.w3.org/2000/svg" xmlns:xlink="http://www.w3.org/1999/xlink" xmlns:lucid="lucid" width="1411" height="1547"><g transform="translate(-563 -1409)" lucid:page-tab-id="PjGPT9Jnpzg7"><path d="M588.27 1568.16a5 5 0 0 1 5-5h1348.67a5 5 0 0 1 5 5v1355.17a5 5 0 0 1-5 5H593.27a5 5 0 0 1-5-5z" stroke="#979ea8" stroke-width="2" fill="#f7f4e4"/><path d="M618.27 1747.44a5 5 0 0 1 5-5h462.1a5 5 0 0 1 5 5v60.74a5 5 0 0 1-5 5h-462.1a5 5 0 0 1-5-5zM618.27 1829.44a5 5 0 0 1 5-5h462.1a5 5 0 0 1 5 5v60.73a5 5 0 0 1-5 5h-462.1a5 5 0 0 1-5-5zM618.27 1665.45a5 5 0 0 1 5-5h462.1a5 5 0 0 1 5 5v60.73a5 5 0 0 1-5 5h-462.1a5 5 0 0 1-5-5zM618.27 1583.45a5 5 0 0 1 5-5h462.1a5 5 0 0 1 5 5v60.74a5 5 0 0 1-5 5h-462.1a5 5 0 0 1-5-5z" stroke="#1071e5" stroke-width="2" fill="#edf5ff"/><path d="M633.5 1587.72a5 5 0 0 1 5-5H817a5 5 0 0 1 5 5v53.33a5 5 0 0 1-5 5H638.5a5 5 0 0 1-5-5z" stroke="#979ea8" stroke-width="2" fill="#ffbbb1"/><use xlink:href="#a" transform="matrix(1,0,0,1,638.4885127393854,1587.7181733313525) translate(12.197530864197532 31.638888888888893)"/><path d="M633.5 1669.15a5 5 0 0 1 5-5H817a5 5 0 0 1 5 5v53.33a5 5 0 0 1-5 5H638.5a5 5 0 0 1-5-5z" stroke="#979ea8" stroke-width="2" fill="#ffbbb1"/><use xlink:href="#a" transform="matrix(1,0,0,1,638.4885127393854,1669.1493953707263) translate(12.197530864197532 31.638888888888893)"/><path d="M618.27 1911.43a5 5 0 0 1 5-5h462.1a5 5 0 0 1 5 5v60.74a5 5 0 0 1-5 5h-462.1a5 5 0 0 1-5-5z" stroke="#1071e5" stroke-width="2" fill="#edf5ff"/><path d="M633.5 1919.68a5 5 0 0 1 5-5H817a5 5 0 0 1 5 5v44.25a5 5 0 0 1-5 5H638.5a5 5 0 0 1-5-5z" stroke="#979ea8" stroke-width="2" fill="#a7a6ff"/><use xlink:href="#b" transform="matrix(1,0,0,1,638.4885127393854,1919.6767239401454) translate(59.29629629629629 27.701388888888893)"/><path d="M633.5 1835.8a5 5 0 0 1 5-5H817a5 5 0 0 1 5 5v48a5 5 0 0 1-5 5H638.5a5 5 0 0 1-5-5z" stroke="#979ea8" stroke-width="2" fill="#fc9432"/><use xlink:href="#c" transform="matrix(1,0,0,1,638.4885127393854,1835.8069985620334) translate(-17.574074074074076 30.22222222222222)"/><path d="M904.28 1594.15a5 5 0 0 1 5-5h50.9a5 5 0 0 1 5 5v41.8a5 5 0 0 1-5 5h-50.9a5 5 0 0 1-5-5z" stroke="#979ea8" stroke-width="2" fill="#fff7a1"/><use xlink:href="#d" transform="matrix(1,0,0,1,909.2815425283625,1594.1485514079368) translate(2.351851851851883 29.29166666666663)"/><path d="M904.28 1676.14a5 5 0 0 1 5-5h50.9a5 5 0 0 1 5 5v41.8a5 5 0 0 1-5 5h-50.9a5 5 0 0 1-5-5z" stroke="#979ea8" stroke-width="2" fill="#fff7a1"/><use xlink:href="#e" transform="matrix(1,0,0,1,909.2815425283625,1676.144019670259) translate(2.351851851851883 29.29166666666663)"/><path d="M904.28 1758.14a5 5 0 0 1 5-5h50.9a5 5 0 0 1 5 5v41.8a5 5 0 0 1-5 5h-50.9a5 5 0 0 1-5-5z" stroke="#979ea8" stroke-width="2" fill="#fff7a1"/><use xlink:href="#f" transform="matrix(1,0,0,1,909.2815425283625,1758.1394879325792) translate(2.351851851851883 29.29166666666663)"/><path d="M633.5 1751.14a5 5 0 0 1 5-5H817a5 5 0 0 1 5 5v53.34a5 5 0 0 1-5 5H638.5a5 5 0 0 1-5-5z" stroke="#979ea8" stroke-width="2" fill="#ffbbb1"/><use xlink:href="#a" transform="matrix(1,0,0,1,638.4885127393854,1751.1448636330472) translate(12.197530864197532 31.638888888888893)"/><path d="M618.27 1993.43a5 5 0 0 1 5-5h462.1a5 5 0 0 1 5 5v60.74a5 5 0 0 1-5 5h-462.1a5 5 0 0 1-5-5z" stroke="#1071e5" stroke-width="2" fill="#edf5ff"/><path d="M633.5 2001.67a5 5 0 0 1 5-5H817a5 5 0 0 1 5 5v44.25a5 5 0 0 1-5 5H638.5a5 5 0 0 1-5-5z" stroke="#979ea8" stroke-width="2" fill="#ff8f8f"/><use xlink:href="#g" transform="matrix(1,0,0,1,638.4885127393854,2001.6721922024656) translate(1.7962962962963047 26.958333333333332)"/><use xlink:href="#h" transform="matrix(1,0,0,1,638.4885127393854,2001.6721922024656) translate(106.68518518518518 26.958333333333332)"/><path d="M994.33 1593.5a5 5 0 0 1 5-5h70.8a5 5 0 0 1 5 5v41.78a5 5 0 0 1-5 5h-70.8a5 5 0 0 1-5-5z" stroke="#979ea8" stroke-width="2" fill="#fff7a1"/><use xlink:href="#i" transform="matrix(1,0,0,1,999.3326601285407,1593.4859473723468) translate(-1.351851851851798 27.666666666666657)"/><path d="M994.33 1674.92a5 5 0 0 1 5-5h70.8a5 5 0 0 1 5 5v41.8a5 5 0 0 1-5 5h-70.8a5 5 0 0 1-5-5z" stroke="#979ea8" stroke-width="2" fill="#fff7a1"/><use xlink:href="#i" transform="matrix(1,0,0,1,999.3326601285412,1674.9171694117206) translate(-1.351851851851798 27.666666666666657)"/><path d="M994.33 1758.14a5 5 0 0 1 5-5h70.8a5 5 0 0 1 5 5v41.8a5 5 0 0 1-5 5h-70.8a5 5 0 0 1-5-5z" stroke="#979ea8" stroke-width="2" fill="#fff7a1"/><use xlink:href="#i" transform="matrix(1,0,0,1,999.3326601285407,1758.1394879325792) translate(-1.351851851851798 27.666666666666657)"/><path d="M994.33 1922.13a5 5 0 0 1 5-5h70.8a5 5 0 0 1 5 5v41.8a5 5 0 0 1-5 5h-70.8a5 5 0 0 1-5-5z" stroke="#979ea8" stroke-width="2" fill="#fff7a1"/><use xlink:href="#i" transform="matrix(1,0,0,1,999.3326601285407,1922.1304244572204) translate(-1.351851851851798 27.666666666666657)"/><path d="M824.5 1614.38h77.28" stroke="#3a414a" stroke-width="3" fill="none"/><path d="M824.52 1615.86H823v-2.95h1.52zM903.28 1615.86h-1.54v-2.95h1.54z" stroke="#3a414a" stroke-width=".05" fill="#3a414a"/><path d="M824.04 1694.75l78.18-78.64" stroke="#3a414a" stroke-width="3" fill="none"/><path d="M825.12 1695.77l-2.13 2.14v-4.18l.02-.04zM903.28 1617.14l-.04.04-2.1-2.08 2.14-2.14z" stroke="#3a414a" stroke-width=".05" fill="#3a414a"/><path d="M823.65 1776.47l78.97-160.08" stroke="#3a414a" stroke-width="3" fill="none"/><path d="M825 1777.08l-2 4.07v-5.05zM903.28 1616.76l-2-.98 2-4.07z" stroke="#3a414a" stroke-width=".05" fill="#3a414a"/><path d="M823.45 1858.38l79.36-241.9" stroke="#3a414a" stroke-width="3" fill="none"/><path d="M824.87 1858.8l-1.42 4.32-.46-.16v-4.77zM903.28 1611.9v4.77l-1.88-.62 1.42-4.3z" stroke="#3a414a" stroke-width=".05" fill="#3a414a"/><path d="M824.04 1776.75l3.36-3.37m4.46-4.5l6.7-6.74m4.47-4.5l6.7-6.73m4.47-4.5l6.7-6.73m4.47-4.5l6.7-6.73m4.47-4.5l6.7-6.74m4.47-4.5l6.7-6.73m4.47-4.5l3.35-3.36" stroke="#3a414a" stroke-width="3" fill="none"/><path d="M825.12 1777.76l-2.13 2.14v-4.18l.02-.04zM903.28 1699.13l-.04.04-2.1-2.08 2.14-2.15z" stroke="#3a414a" stroke-width=".05" fill="#3a414a"/><path d="M824.5 1695.82h4.62m6.2 0h9.26m6.2 0h9.26m6.2 0h9.26m6.18 0h9.28m6.18 0h4.64" stroke="#3a414a" stroke-width="3" fill="none"/><path d="M824.52 1697.3H823v-2.96h1.52zM903.28 1697.3h-1.54v-2.96h1.54z" stroke="#3a414a" stroke-width=".05" fill="#3a414a"/><path d="M823.65 1858.46l1.97-4m2.64-5.34l3.95-8m2.64-5.33l3.95-8.02m2.62-5.34l3.95-8m2.63-5.33l3.95-8m2.63-5.33l3.95-8m2.63-5.34l3.95-8m2.64-5.34l3.95-8.02m2.62-5.33l3.95-8m2.63-5.34l3.95-8m2.63-5.33l3.95-8m2.63-5.34l3.95-8m2.64-5.34l1.98-4" stroke="#3a414a" stroke-width="3" fill="none"/><path d="M825 1859.08l-2 4.06v-5.05zM903.28 1698.76l-2-1 2-4.05z" stroke="#3a414a" stroke-width=".05" fill="#3a414a"/><path d="M825.54 1858.74c0 .83-.67 1.5-1.5 1.5-.82 0-1.5-.67-1.5-1.5s.68-1.5 1.5-1.5c.83 0 1.5.67 1.5 1.5zm4.35-4.37c0 .83-.68 1.5-1.5 1.5-.84 0-1.5-.67-1.5-1.5 0-.82.66-1.5 1.5-1.5.82 0 1.5.68 1.5 1.5zm4.33-4.36c0 .83-.67 1.5-1.5 1.5s-1.5-.67-1.5-1.5c0-.82.67-1.5 1.5-1.5s1.5.68 1.5 1.5zm4.34-4.36c0 .82-.67 1.5-1.5 1.5-.82 0-1.5-.68-1.5-1.5 0-.83.68-1.5 1.5-1.5.83 0 1.5.67 1.5 1.5zm4.35-4.37c0 .83-.67 1.5-1.5 1.5s-1.5-.67-1.5-1.5.67-1.5 1.5-1.5 1.5.67 1.5 1.5zm4.34-4.37c0 .83-.67 1.5-1.5 1.5s-1.5-.67-1.5-1.5.67-1.5 1.5-1.5 1.5.67 1.5 1.5zm4.34-4.37c0 .83-.67 1.5-1.5 1.5-.82 0-1.5-.67-1.5-1.5s.68-1.5 1.5-1.5c.83 0 1.5.67 1.5 1.5zm4.35-4.37c0 .83-.67 1.5-1.5 1.5s-1.5-.67-1.5-1.5.67-1.5 1.5-1.5 1.5.67 1.5 1.5zm4.34-4.37c0 .82-.68 1.5-1.5 1.5-.84 0-1.5-.68-1.5-1.5 0-.84.66-1.5 1.5-1.5.82 0 1.5.66 1.5 1.5zm4.33-4.38c0 .83-.67 1.5-1.5 1.5-.82 0-1.5-.67-1.5-1.5s.68-1.5 1.5-1.5c.83 0 1.5.67 1.5 1.5zm4.35-4.37c0 .83-.67 1.5-1.5 1.5s-1.5-.67-1.5-1.5.67-1.5 1.5-1.5 1.5.67 1.5 1.5zm4.34-4.37c0 .83-.67 1.5-1.5 1.5s-1.5-.67-1.5-1.5c0-.82.67-1.5 1.5-1.5s1.5.68 1.5 1.5zm4.34-4.36c0 .82-.67 1.5-1.5 1.5-.82 0-1.5-.68-1.5-1.5 0-.83.68-1.5 1.5-1.5.83 0 1.5.67 1.5 1.5zm4.35-4.37c0 .83-.66 1.5-1.5 1.5-.82 0-1.5-.67-1.5-1.5s.68-1.5 1.5-1.5c.84 0 1.5.67 1.5 1.5zm4.35-4.37c0 .83-.67 1.5-1.5 1.5s-1.5-.67-1.5-1.5.67-1.5 1.5-1.5 1.5.67 1.5 1.5zm4.34-4.37c0 .84-.68 1.5-1.5 1.5-.83 0-1.5-.66-1.5-1.5 0-.82.67-1.5 1.5-1.5.82 0 1.5.68 1.5 1.5zm4.34-4.36c0 .83-.67 1.5-1.5 1.5s-1.5-.67-1.5-1.5.67-1.5 1.5-1.5 1.5.67 1.5 1.5zm4.34-4.37c0 .83-.67 1.5-1.5 1.5s-1.5-.67-1.5-1.5.67-1.5 1.5-1.5 1.5.67 1.5 1.5z" fill="#3a414a"/><path d="M825.12 1859.76l-2.13 2.14v-4.2l.02-.02zM903.28 1781.13l-.04.04-2.1-2.08 2.14-2.15z" stroke="#3a414a" stroke-width=".05" fill="#3a414a"/><path d="M826 1777.8c0 .84-.68 1.5-1.5 1.5-.84 0-1.5-.66-1.5-1.5 0-.82.66-1.5 1.5-1.5.82 0 1.5.68 1.5 1.5zm5.93 0c0 .84-.67 1.5-1.5 1.5s-1.5-.66-1.5-1.5c0-.82.67-1.5 1.5-1.5s1.5.68 1.5 1.5zm5.95 0c0 .84-.67 1.5-1.5 1.5s-1.5-.66-1.5-1.5c0-.82.67-1.5 1.5-1.5s1.5.68 1.5 1.5zm5.94 0c0 .84-.67 1.5-1.5 1.5s-1.5-.66-1.5-1.5c0-.82.67-1.5 1.5-1.5s1.5.68 1.5 1.5zm5.95 0c0 .84-.67 1.5-1.5 1.5s-1.5-.66-1.5-1.5c0-.82.67-1.5 1.5-1.5s1.5.68 1.5 1.5zm5.95 0c0 .84-.68 1.5-1.5 1.5-.83 0-1.5-.66-1.5-1.5 0-.82.67-1.5 1.5-1.5.82 0 1.5.68 1.5 1.5zm5.94 0c0 .84-.67 1.5-1.5 1.5s-1.5-.66-1.5-1.5c0-.82.67-1.5 1.5-1.5s1.5.68 1.5 1.5zm5.95 0c0 .84-.67 1.5-1.5 1.5-.82 0-1.5-.66-1.5-1.5 0-.82.68-1.5 1.5-1.5.83 0 1.5.68 1.5 1.5zm5.95 0c0 .84-.67 1.5-1.5 1.5s-1.5-.66-1.5-1.5c0-.82.67-1.5 1.5-1.5s1.5.68 1.5 1.5zm5.95 0c0 .84-.67 1.5-1.5 1.5s-1.5-.66-1.5-1.5c0-.82.67-1.5 1.5-1.5s1.5.68 1.5 1.5zm5.94 0c0 .84-.67 1.5-1.5 1.5-.82 0-1.5-.66-1.5-1.5 0-.82.68-1.5 1.5-1.5.83 0 1.5.68 1.5 1.5zm5.95 0c0 .84-.68 1.5-1.5 1.5-.84 0-1.5-.66-1.5-1.5 0-.82.66-1.5 1.5-1.5.82 0 1.5.68 1.5 1.5zm5.94 0c0 .84-.68 1.5-1.5 1.5-.83 0-1.5-.66-1.5-1.5 0-.82.67-1.5 1.5-1.5.82 0 1.5.68 1.5 1.5z" fill="#3a414a"/><path d="M824.52 1779.3H823v-2.96h1.52zM903.28 1779.3h-1.54v-2.96h1.54z" stroke="#3a414a" stroke-width=".05" fill="#3a414a"/><path d="M1085.36 2070.43a5 5 0 0 1 5 5v81.33a5 5 0 0 1-5 5h-462.1a5 5 0 0 1-5-5v-81.33a5 5 0 0 1 5-5z" stroke="#1071e5" stroke-width="2" fill="#edf5ff"/><path d="M632.48 2076.42a5 5 0 0 1 5-5h432.65a5 5 0 0 1 5 5v80a5 5 0 0 1-5 5H637.48a5 5 0 0 1-5-5z" stroke="#979ea8" stroke-width="2" fill="#ffdda6"/><use xlink:href="#j" transform="matrix(1,0,0,1,637.4814004442469,2076.417084454886) translate(8.259259259259409 29.166666666666643)"/><use xlink:href="#k" transform="matrix(1,0,0,1,637.4814004442469,2076.417084454886) translate(17.51851851851866 29.166666666666643)"/><use xlink:href="#l" transform="matrix(1,0,0,1,637.4814004442469,2076.417084454886) translate(130.38888888888894 29.166666666666643)"/><use xlink:href="#m" transform="matrix(1,0,0,1,637.4814004442469,2076.417084454886) translate(258.16666666666663 29.166666666666643)"/><use xlink:href="#n" transform="matrix(1,0,0,1,637.4814004442469,2076.417084454886) translate(140.75925925925932 69.1666666666666)"/><path d="M1103.54 1583.45a5 5 0 0 1 5-5h81.34a5 5 0 0 1 5 5v470.72a5 5 0 0 1-5 5h-81.34a5 5 0 0 1-5-5z" stroke="#1071e5" stroke-width="2" fill="#edf5ff"/><path d="M1109.54 2044.95a5 5 0 0 1-5-5v-445.8a5 5 0 0 1 5-5h80a5 5 0 0 1 5 5v445.8a5 5 0 0 1-5 5z" stroke="#979ea8" stroke-width="2" fill="#ff8f8f"/><use xlink:href="#o" transform="matrix(6.123233995736766e-17,-1,1,6.123233995736766e-17,1109.5353705797854,2039.9508620128986) translate(23.09259259259278 29.166666666666643)"/><use xlink:href="#k" transform="matrix(6.123233995736766e-17,-1,1,6.123233995736766e-17,1109.5353705797854,2039.9508620128986) translate(41.611111111111285 29.166666666666643)"/><use xlink:href="#l" transform="matrix(6.123233995736766e-17,-1,1,6.123233995736766e-17,1109.5353705797854,2039.9508620128986) translate(154.48148148148155 29.166666666666643)"/><use xlink:href="#p" transform="matrix(6.123233995736766e-17,-1,1,6.123233995736766e-17,1109.5353705797854,2039.9508620128986) translate(282.25925925925924 29.166666666666643)"/><use xlink:href="#n" transform="matrix(6.123233995736766e-17,-1,1,6.123233995736766e-17,1109.5353705797854,2039.9508620128986) translate(147.25925925925932 69.1666666666666)"/><path d="M609.93 2595.97a5 5 0 0 1 5-5h462.1a5 5 0 0 1 5 5v60.74a5 5 0 0 1-5 5h-462.1a5 5 0 0 1-5-5zM609.93 2677.97a5 5 0 0 1 5-5h462.1a5 5 0 0 1 5 5v60.73a5 5 0 0 1-5 5h-462.1a5 5 0 0 1-5-5zM609.93 2513.98a5 5 0 0 1 5-5h462.1a5 5 0 0 1 5 5v60.73a5 5 0 0 1-5 5h-462.1a5 5 0 0 1-5-5zM609.93 2431.98a5 5 0 0 1 5-5h462.1a5 5 0 0 1 5 5v60.74a5 5 0 0 1-5 5h-462.1a5 5 0 0 1-5-5z" stroke="#1071e5" stroke-width="2" fill="#edf5ff"/><path d="M625.15 2436.25a5 5 0 0 1 5-5h178.5a5 5 0 0 1 5 5v53.33a5 5 0 0 1-5 5h-178.5a5 5 0 0 1-5-5z" stroke="#979ea8" stroke-width="2" fill="#ffbbb1"/><use xlink:href="#a" transform="matrix(1,0,0,1,630.1483076209502,2436.2469134376224) translate(12.197530864197532 31.638888888888893)"/><path d="M625.15 2517.68a5 5 0 0 1 5-5h178.5a5 5 0 0 1 5 5V2571a5 5 0 0 1-5 5h-178.5a5 5 0 0 1-5-5z" stroke="#979ea8" stroke-width="2" fill="#ffbbb1"/><use xlink:href="#a" transform="matrix(1,0,0,1,630.1483076209502,2517.6781354769964) translate(12.197530864197532 31.638888888888893)"/><path d="M609.93 2759.96a5 5 0 0 1 5-5h462.1a5 5 0 0 1 5 5v60.74a5 5 0 0 1-5 5h-462.1a5 5 0 0 1-5-5z" stroke="#1071e5" stroke-width="2" fill="#edf5ff"/><path d="M625.15 2768.2a5 5 0 0 1 5-5h178.5a5 5 0 0 1 5 5v44.26a5 5 0 0 1-5 5h-178.5a5 5 0 0 1-5-5z" stroke="#979ea8" stroke-width="2" fill="#a7a6ff"/><use xlink:href="#b" transform="matrix(1,0,0,1,630.1483076209502,2768.205464046415) translate(59.29629629629629 27.701388888888893)"/><path d="M625.15 2684.34a5 5 0 0 1 5-5h178.5a5 5 0 0 1 5 5v48a5 5 0 0 1-5 5h-178.5a5 5 0 0 1-5-5z" stroke="#979ea8" stroke-width="2" fill="#fc9432"/><use xlink:href="#c" transform="matrix(1,0,0,1,630.1483076209502,2684.3357386683037) translate(-17.574074074074076 30.22222222222222)"/><path d="M895.94 2442.68a5 5 0 0 1 5-5h50.9a5 5 0 0 1 5 5v41.8a5 5 0 0 1-5 5h-50.9a5 5 0 0 1-5-5z" stroke="#979ea8" stroke-width="2" fill="#fff7a1"/><use xlink:href="#d" transform="matrix(1,0,0,1,900.9413374099267,2442.6772915142074) translate(2.351851851851883 29.29166666666663)"/><path d="M895.94 2524.67a5 5 0 0 1 5-5h50.9a5 5 0 0 1 5 5v41.8a5 5 0 0 1-5 5h-50.9a5 5 0 0 1-5-5z" stroke="#979ea8" stroke-width="2" fill="#fff7a1"/><use xlink:href="#e" transform="matrix(1,0,0,1,900.9413374099267,2524.6727597765293) translate(2.351851851851883 29.29166666666663)"/><path d="M895.94 2606.67a5 5 0 0 1 5-5h50.9a5 5 0 0 1 5 5v41.8a5 5 0 0 1-5 5h-50.9a5 5 0 0 1-5-5z" stroke="#979ea8" stroke-width="2" fill="#fff7a1"/><use xlink:href="#f" transform="matrix(1,0,0,1,900.9413374099267,2606.6682280388495) translate(2.351851851851883 29.29166666666663)"/><path d="M625.15 2599.67a5 5 0 0 1 5-5h178.5a5 5 0 0 1 5 5V2653a5 5 0 0 1-5 5h-178.5a5 5 0 0 1-5-5z" stroke="#979ea8" stroke-width="2" fill="#ffbbb1"/><use xlink:href="#a" transform="matrix(1,0,0,1,630.1483076209502,2599.6736037393166) translate(12.197530864197532 31.638888888888893)"/><path d="M609.93 2841.96a5 5 0 0 1 5-5h462.1a5 5 0 0 1 5 5v60.73a5 5 0 0 1-5 5h-462.1a5 5 0 0 1-5-5z" stroke="#1071e5" stroke-width="2" fill="#edf5ff"/><path d="M625.15 2850.2a5 5 0 0 1 5-5h178.5a5 5 0 0 1 5 5v44.25a5 5 0 0 1-5 5h-178.5a5 5 0 0 1-5-5z" stroke="#979ea8" stroke-width="2" fill="#ff8f8f"/><use xlink:href="#g" transform="matrix(1,0,0,1,630.1483076209502,2850.200932308735) translate(1.7962962962963047 26.958333333333332)"/><use xlink:href="#h" transform="matrix(1,0,0,1,630.1483076209502,2850.200932308735) translate(106.68518518518518 26.958333333333332)"/><path d="M986 2442a5 5 0 0 1 5-5h70.8a5 5 0 0 1 5 5v41.8a5 5 0 0 1-5 5H991a5 5 0 0 1-5-5z" stroke="#979ea8" stroke-width="2" fill="#fff7a1"/><use xlink:href="#i" transform="matrix(1,0,0,1,990.992455010105,2442.014687478617) translate(-1.351851851851798 27.666666666666657)"/><path d="M986 2523.45a5 5 0 0 1 5-5h70.8a5 5 0 0 1 5 5v41.8a5 5 0 0 1-5 5H991a5 5 0 0 1-5-5z" stroke="#979ea8" stroke-width="2" fill="#fff7a1"/><use xlink:href="#i" transform="matrix(1,0,0,1,990.9924550101059,2523.445909517991) translate(-1.351851851851798 27.666666666666657)"/><path d="M986 2606.67a5 5 0 0 1 5-5h70.8a5 5 0 0 1 5 5v41.8a5 5 0 0 1-5 5H991a5 5 0 0 1-5-5z" stroke="#979ea8" stroke-width="2" fill="#fff7a1"/><use xlink:href="#i" transform="matrix(1,0,0,1,990.992455010105,2606.6682280388495) translate(-1.351851851851798 27.666666666666657)"/><path d="M986 2770.66a5 5 0 0 1 5-5h70.8a5 5 0 0 1 5 5v41.8a5 5 0 0 1-5 5H991a5 5 0 0 1-5-5z" stroke="#979ea8" stroke-width="2" fill="#fff7a1"/><use xlink:href="#i" transform="matrix(1,0,0,1,990.992455010105,2770.6591645634917) translate(-1.351851851851798 27.666666666666657)"/><path d="M816.15 2462.9h77.3" stroke="#3a414a" stroke-width="3" fill="none"/><path d="M816.18 2464.4h-1.53v-2.96h1.53zM894.94 2464.4h-1.54v-2.96h1.54z" stroke="#3a414a" stroke-width=".05" fill="#3a414a"/><path d="M815.7 2543.28l78.18-78.64" stroke="#3a414a" stroke-width="3" fill="none"/><path d="M816.78 2544.3l-2.13 2.14v-4.2l.03-.03zM894.94 2465.67l-.04.04-2.1-2.07 2.14-2.15z" stroke="#3a414a" stroke-width=".05" fill="#3a414a"/><path d="M815.3 2625l78.98-160.08" stroke="#3a414a" stroke-width="3" fill="none"/><path d="M816.65 2625.6l-2 4.07v-5.05zM894.94 2465.3l-2-1 2-4.06z" stroke="#3a414a" stroke-width=".05" fill="#3a414a"/><path d="M815.1 2706.9l79.37-241.9" stroke="#3a414a" stroke-width="3" fill="none"/><path d="M816.53 2707.33l-1.42 4.32-.45-.16v-4.78zM894.94 2460.42v4.78l-1.88-.62 1.42-4.3z" stroke="#3a414a" stroke-width=".05" fill="#3a414a"/><path d="M815.7 2625.28l3.35-3.37m4.47-4.5l6.7-6.73m4.47-4.5l6.7-6.73m4.46-4.5l6.7-6.74m4.47-4.5l6.7-6.73m4.47-4.5l6.7-6.74m4.47-4.5l6.7-6.73m4.46-4.5l3.35-3.36" stroke="#3a414a" stroke-width="3" fill="none"/><path d="M816.78 2626.3l-2.13 2.13v-4.18l.03-.04zM894.94 2547.66l-.04.04-2.1-2.08 2.14-2.14z" stroke="#3a414a" stroke-width=".05" fill="#3a414a"/><path d="M816.15 2544.34h4.63m6.2 0h9.26m6.2 0h9.26m6.2 0h9.26m6.2 0h9.26m6.18 0h4.64" stroke="#3a414a" stroke-width="3" fill="none"/><path d="M816.18 2545.82h-1.53v-2.95h1.53zM894.94 2545.82h-1.54v-2.95h1.54z" stroke="#3a414a" stroke-width=".05" fill="#3a414a"/><path d="M815.3 2707l1.98-4m2.64-5.35l3.95-8m2.63-5.34l3.95-8m2.63-5.33l3.95-8m2.63-5.34l3.95-8m2.64-5.34l3.95-8m2.62-5.34l3.95-8m2.63-5.34l3.95-8m2.63-5.34l3.95-8m2.63-5.34l3.95-8m2.64-5.34l3.95-8m2.62-5.34l3.95-8m2.63-5.34l1.98-4" stroke="#3a414a" stroke-width="3" fill="none"/><path d="M816.65 2707.6l-2 4.07v-5.05zM894.94 2547.3l-2-1 2-4.06z" stroke="#3a414a" stroke-width=".05" fill="#3a414a"/><path d="M817.2 2707.27c0 .83-.67 1.5-1.5 1.5s-1.5-.67-1.5-1.5.67-1.5 1.5-1.5 1.5.67 1.5 1.5zm4.35-4.37c0 .83-.67 1.5-1.5 1.5s-1.5-.67-1.5-1.5.67-1.5 1.5-1.5 1.5.67 1.5 1.5zm4.34-4.37c0 .83-.68 1.5-1.5 1.5-.84 0-1.5-.67-1.5-1.5 0-.82.66-1.5 1.5-1.5.82 0 1.5.68 1.5 1.5zm4.33-4.37c0 .83-.67 1.5-1.5 1.5s-1.5-.67-1.5-1.5c0-.82.67-1.5 1.5-1.5s1.5.68 1.5 1.5zm4.35-4.36c0 .82-.67 1.5-1.5 1.5s-1.5-.68-1.5-1.5c0-.83.67-1.5 1.5-1.5s1.5.67 1.5 1.5zm4.34-4.37c0 .83-.67 1.5-1.5 1.5s-1.5-.67-1.5-1.5.67-1.5 1.5-1.5 1.5.67 1.5 1.5zm4.34-4.37c0 .83-.67 1.5-1.5 1.5s-1.5-.67-1.5-1.5.67-1.5 1.5-1.5 1.5.67 1.5 1.5zm4.35-4.37c0 .82-.66 1.5-1.5 1.5-.82 0-1.5-.68-1.5-1.5 0-.84.68-1.5 1.5-1.5.84 0 1.5.66 1.5 1.5zm4.35-4.38c0 .83-.67 1.5-1.5 1.5s-1.5-.67-1.5-1.5.67-1.5 1.5-1.5 1.5.67 1.5 1.5zm4.34-4.37c0 .83-.68 1.5-1.5 1.5-.83 0-1.5-.67-1.5-1.5s.67-1.5 1.5-1.5c.82 0 1.5.67 1.5 1.5zm4.34-4.37c0 .83-.67 1.5-1.5 1.5s-1.5-.67-1.5-1.5.67-1.5 1.5-1.5 1.5.67 1.5 1.5zm4.34-4.37c0 .84-.67 1.5-1.5 1.5s-1.5-.66-1.5-1.5c0-.8.67-1.5 1.5-1.5s1.5.7 1.5 1.5zm4.34-4.36c0 .83-.67 1.5-1.5 1.5s-1.5-.67-1.5-1.5c0-.82.67-1.5 1.5-1.5s1.5.68 1.5 1.5zm4.35-4.36c0 .82-.67 1.5-1.5 1.5s-1.5-.68-1.5-1.5c0-.83.67-1.5 1.5-1.5s1.5.67 1.5 1.5zm4.34-4.37c0 .84-.66 1.5-1.5 1.5-.82 0-1.5-.66-1.5-1.5 0-.82.68-1.5 1.5-1.5.84 0 1.5.68 1.5 1.5zm4.35-4.36c0 .83-.67 1.5-1.5 1.5s-1.5-.67-1.5-1.5.67-1.5 1.5-1.5 1.5.67 1.5 1.5zm4.35-4.37c0 .83-.67 1.5-1.5 1.5s-1.5-.67-1.5-1.5.67-1.5 1.5-1.5 1.5.67 1.5 1.5zm4.34-4.37c0 .83-.67 1.5-1.5 1.5s-1.5-.67-1.5-1.5.67-1.5 1.5-1.5 1.5.67 1.5 1.5zm4.34-4.37c0 .83-.67 1.5-1.5 1.5s-1.5-.67-1.5-1.5.67-1.5 1.5-1.5 1.5.67 1.5 1.5z" fill="#3a414a"/><path d="M816.78 2708.28l-2.13 2.15v-4.2l.03-.03zM894.94 2629.66l-.04.04-2.1-2.08 2.14-2.14z" stroke="#3a414a" stroke-width=".05" fill="#3a414a"/><path d="M817.65 2626.34c0 .83-.67 1.5-1.5 1.5s-1.5-.67-1.5-1.5.67-1.5 1.5-1.5 1.5.67 1.5 1.5zm5.94 0c0 .83-.68 1.5-1.5 1.5-.84 0-1.5-.67-1.5-1.5s.66-1.5 1.5-1.5c.82 0 1.5.67 1.5 1.5zm5.94 0c0 .83-.67 1.5-1.5 1.5s-1.5-.67-1.5-1.5.67-1.5 1.5-1.5 1.5.67 1.5 1.5zm5.94 0c0 .83-.67 1.5-1.5 1.5s-1.5-.67-1.5-1.5.67-1.5 1.5-1.5 1.5.67 1.5 1.5zm5.95 0c0 .83-.67 1.5-1.5 1.5s-1.5-.67-1.5-1.5.67-1.5 1.5-1.5 1.5.67 1.5 1.5zm5.95 0c0 .83-.68 1.5-1.5 1.5-.83 0-1.5-.67-1.5-1.5s.67-1.5 1.5-1.5c.82 0 1.5.67 1.5 1.5zm5.94 0c0 .83-.67 1.5-1.5 1.5s-1.5-.67-1.5-1.5.67-1.5 1.5-1.5 1.5.67 1.5 1.5zm5.95 0c0 .83-.67 1.5-1.5 1.5s-1.5-.67-1.5-1.5.67-1.5 1.5-1.5 1.5.67 1.5 1.5zm5.94 0c0 .83-.66 1.5-1.5 1.5-.82 0-1.5-.67-1.5-1.5s.68-1.5 1.5-1.5c.84 0 1.5.67 1.5 1.5zm5.96 0c0 .83-.67 1.5-1.5 1.5s-1.5-.67-1.5-1.5.67-1.5 1.5-1.5 1.5.67 1.5 1.5zm5.94 0c0 .83-.67 1.5-1.5 1.5-.82 0-1.5-.67-1.5-1.5s.68-1.5 1.5-1.5c.83 0 1.5.67 1.5 1.5zm5.95 0c0 .83-.67 1.5-1.5 1.5s-1.5-.67-1.5-1.5.67-1.5 1.5-1.5 1.5.67 1.5 1.5zm5.95 0c0 .83-.68 1.5-1.5 1.5-.83 0-1.5-.67-1.5-1.5s.67-1.5 1.5-1.5c.82 0 1.5.67 1.5 1.5z" fill="#3a414a"/><path d="M816.18 2627.8h-1.53v-2.94h1.53zM894.94 2627.8h-1.54v-2.94h1.54z" stroke="#3a414a" stroke-width=".05" fill="#3a414a"/><path d="M1079.73 2324.4a5 5 0 0 1 5 5v81.32a5 5 0 0 1-5 5H615.7a5 5 0 0 1-5-5v-81.33a5 5 0 0 1 5-5z" stroke="#1071e5" stroke-width="2" fill="#edf5ff"/><path d="M625.15 2330.38a5 5 0 0 1 5-5h431.64a5 5 0 0 1 5 5v80a5 5 0 0 1-5 5H630.14a5 5 0 0 1-5-5z" stroke="#979ea8" stroke-width="2" fill="#ff8f8f"/><use xlink:href="#j" transform="matrix(1,0,0,1,630.1483076209511,2330.3814153027524) translate(20.7222222222224 29.166666666666643)"/><use xlink:href="#k" transform="matrix(1,0,0,1,630.1483076209511,2330.3814153027524) translate(29.98148148148165 29.166666666666643)"/><use xlink:href="#l" transform="matrix(1,0,0,1,630.1483076209511,2330.3814153027524) translate(142.85185185185193 29.166666666666643)"/><use xlink:href="#p" transform="matrix(1,0,0,1,630.1483076209511,2330.3814153027524) translate(270.6296296296296 29.166666666666643)"/><use xlink:href="#n" transform="matrix(1,0,0,1,630.1483076209511,2330.3814153027524) translate(140.25925925925932 69.1666666666666)"/><path d="M1095.2 2431.98a5 5 0 0 1 5-5h81.34a5 5 0 0 1 5 5v470.7a5 5 0 0 1-5 5h-81.34a5 5 0 0 1-5-5z" stroke="#000" stroke-opacity="0" stroke-width="2" fill="#edf5ff"/><path d="M1101.2 2893.48a5 5 0 0 1-5-5v-445.8a5 5 0 0 1 5-5h80a5 5 0 0 1 5 5v445.8a5 5 0 0 1-5 5z" stroke="#979ea8" stroke-width="2" fill="#ffdda6"/><use xlink:href="#o" transform="matrix(6.123233995736766e-17,-1,1,6.123233995736766e-17,1101.1951654613506,2888.4796021191687) translate(23.09259259259278 29.166666666666643)"/><use xlink:href="#k" transform="matrix(6.123233995736766e-17,-1,1,6.123233995736766e-17,1101.1951654613506,2888.4796021191687) translate(41.611111111111285 29.166666666666643)"/><use xlink:href="#l" transform="matrix(6.123233995736766e-17,-1,1,6.123233995736766e-17,1101.1951654613506,2888.4796021191687) translate(154.48148148148155 29.166666666666643)"/><use xlink:href="#p" transform="matrix(6.123233995736766e-17,-1,1,6.123233995736766e-17,1101.1951654613506,2888.4796021191687) translate(282.25925925925924 29.166666666666643)"/><use xlink:href="#n" transform="matrix(6.123233995736766e-17,-1,1,6.123233995736766e-17,1101.1951654613506,2888.4796021191687) translate(147.25925925925932 69.1666666666666)"/><path d="M1459.25 1747.44a5 5 0 0 1 5-5h462.1a5 5 0 0 1 5 5v60.74a5 5 0 0 1-5 5h-462.1a5 5 0 0 1-5-5zM1459.25 1829.44a5 5 0 0 1 5-5h462.1a5 5 0 0 1 5 5v60.73a5 5 0 0 1-5 5h-462.1a5 5 0 0 1-5-5zM1459.25 1665.45a5 5 0 0 1 5-5h462.1a5 5 0 0 1 5 5v60.73a5 5 0 0 1-5 5h-462.1a5 5 0 0 1-5-5zM1459.25 1583.45a5 5 0 0 1 5-5h462.1a5 5 0 0 1 5 5v60.74a5 5 0 0 1-5 5h-462.1a5 5 0 0 1-5-5z" stroke="#1071e5" stroke-width="2" fill="#edf5ff"/><path d="M1474.47 1587.72a5 5 0 0 1 5-5h178.5a5 5 0 0 1 5 5v53.33a5 5 0 0 1-5 5h-178.5a5 5 0 0 1-5-5z" stroke="#979ea8" stroke-width="2" fill="#ffbbb1"/><use xlink:href="#a" transform="matrix(1,0,0,1,1479.4720964698167,1587.7181733313525) translate(12.197530864197532 31.638888888888893)"/><path d="M1474.47 1669.15a5 5 0 0 1 5-5h178.5a5 5 0 0 1 5 5v53.33a5 5 0 0 1-5 5h-178.5a5 5 0 0 1-5-5z" stroke="#979ea8" stroke-width="2" fill="#ffbbb1"/><use xlink:href="#a" transform="matrix(1,0,0,1,1479.4720964698167,1669.1493953707263) translate(12.197530864197532 31.638888888888893)"/><path d="M1459.25 1911.43a5 5 0 0 1 5-5h462.1a5 5 0 0 1 5 5v60.74a5 5 0 0 1-5 5h-462.1a5 5 0 0 1-5-5z" stroke="#1071e5" stroke-width="2" fill="#edf5ff"/><path d="M1474.47 1919.68a5 5 0 0 1 5-5h178.5a5 5 0 0 1 5 5v44.25a5 5 0 0 1-5 5h-178.5a5 5 0 0 1-5-5z" stroke="#979ea8" stroke-width="2" fill="#a7a6ff"/><use xlink:href="#b" transform="matrix(1,0,0,1,1479.4720964698167,1919.6767239401454) translate(59.29629629629629 27.701388888888893)"/><path d="M1474.47 1835.8a5 5 0 0 1 5-5h178.5a5 5 0 0 1 5 5v48a5 5 0 0 1-5 5h-178.5a5 5 0 0 1-5-5z" stroke="#979ea8" stroke-width="2" fill="#fc9432"/><use xlink:href="#c" transform="matrix(1,0,0,1,1479.4720964698167,1835.8069985620334) translate(-17.574074074074076 30.22222222222222)"/><path d="M1745.27 1594.15a5 5 0 0 1 5-5h50.88a5 5 0 0 1 5 5v41.8a5 5 0 0 1-5 5h-50.88a5 5 0 0 1-5-5z" stroke="#979ea8" stroke-width="2" fill="#fff7a1"/><use xlink:href="#q" transform="matrix(1,0,0,1,1750.2651262587924,1594.1485514079368) translate(3.895061728395092 27.513888888888857)"/><path d="M1745.27 1676.14a5 5 0 0 1 5-5h50.88a5 5 0 0 1 5 5v41.8a5 5 0 0 1-5 5h-50.88a5 5 0 0 1-5-5z" stroke="#979ea8" stroke-width="2" fill="#fff7a1"/><use xlink:href="#r" transform="matrix(1,0,0,1,1750.2651262587924,1676.144019670259) translate(3.895061728395092 27.513888888888857)"/><path d="M1745.27 1758.14a5 5 0 0 1 5-5h50.88a5 5 0 0 1 5 5v41.8a5 5 0 0 1-5 5h-50.88a5 5 0 0 1-5-5z" stroke="#979ea8" stroke-width="2" fill="#fff7a1"/><use xlink:href="#s" transform="matrix(1,0,0,1,1750.2651262587924,1758.1394879325792) translate(3.895061728395092 27.513888888888857)"/><path d="M1474.47 1751.14a5 5 0 0 1 5-5h178.5a5 5 0 0 1 5 5v53.34a5 5 0 0 1-5 5h-178.5a5 5 0 0 1-5-5z" stroke="#979ea8" stroke-width="2" fill="#ffbbb1"/><use xlink:href="#a" transform="matrix(1,0,0,1,1479.4720964698167,1751.1448636330472) translate(12.197530864197532 31.638888888888893)"/><path d="M1459.25 1993.43a5 5 0 0 1 5-5h462.1a5 5 0 0 1 5 5v60.74a5 5 0 0 1-5 5h-462.1a5 5 0 0 1-5-5z" stroke="#1071e5" stroke-width="2" fill="#edf5ff"/><path d="M1474.47 2001.67a5 5 0 0 1 5-5h178.5a5 5 0 0 1 5 5v44.25a5 5 0 0 1-5 5h-178.5a5 5 0 0 1-5-5z" stroke="#979ea8" stroke-width="2" fill="#ff8f8f"/><use xlink:href="#g" transform="matrix(1,0,0,1,1479.4720964698167,2001.6721922024656) translate(1.7962962962963047 26.958333333333332)"/><use xlink:href="#h" transform="matrix(1,0,0,1,1479.4720964698167,2001.6721922024656) translate(106.68518518518518 26.958333333333332)"/><path d="M1835.32 1593.5a5 5 0 0 1 5-5h70.8a5 5 0 0 1 5 5v41.78a5 5 0 0 1-5 5h-70.8a5 5 0 0 1-5-5z" stroke="#979ea8" stroke-width="2" fill="#fff7a1"/><use xlink:href="#t" transform="matrix(1,0,0,1,1840.3162438589707,1593.4859473723468) translate(1.1049382716049791 27.513888888888857)"/><path d="M1835.32 1674.92a5 5 0 0 1 5-5h70.8a5 5 0 0 1 5 5v41.8a5 5 0 0 1-5 5h-70.8a5 5 0 0 1-5-5z" stroke="#979ea8" stroke-width="2" fill="#fff7a1"/><use xlink:href="#t" transform="matrix(1,0,0,1,1840.316243858972,1674.9171694117206) translate(1.1049382716049791 27.513888888888857)"/><path d="M1835.32 1758.14a5 5 0 0 1 5-5h70.8a5 5 0 0 1 5 5v41.8a5 5 0 0 1-5 5h-70.8a5 5 0 0 1-5-5z" stroke="#979ea8" stroke-width="2" fill="#fff7a1"/><use xlink:href="#t" transform="matrix(1,0,0,1,1840.3162438589707,1758.1394879325792) translate(1.1049382716049791 27.513888888888857)"/><path d="M1835.32 1922.13a5 5 0 0 1 5-5h70.8a5 5 0 0 1 5 5v41.8a5 5 0 0 1-5 5h-70.8a5 5 0 0 1-5-5z" stroke="#979ea8" stroke-width="2" fill="#fff7a1"/><use xlink:href="#t" transform="matrix(1,0,0,1,1840.3162438589707,1922.1304244572204) translate(1.1049382716049791 27.513888888888857)"/><path d="M1665.47 1614.38h77.3" stroke="#3a414a" stroke-width="3" fill="none"/><path d="M1665.5 1615.86h-1.53v-2.95h1.54zM1744.27 1615.86h-1.54v-2.95h1.54z" stroke="#3a414a" stroke-width=".05" fill="#3a414a"/><path d="M1665.03 1694.75l78.18-78.64" stroke="#3a414a" stroke-width="3" fill="none"/><path d="M1666.1 1695.77l-2.13 2.14v-4.18l.04-.04zM1744.27 1617.14l-.04.04-2.1-2.08 2.13-2.14z" stroke="#3a414a" stroke-width=".05" fill="#3a414a"/><path d="M1664.63 1776.47l78.97-160.08" stroke="#3a414a" stroke-width="3" fill="none"/><path d="M1665.97 1777.08l-2 4.07v-5.05zM1744.27 1616.76l-2-.98 2-4.07z" stroke="#3a414a" stroke-width=".05" fill="#3a414a"/><path d="M1664.44 1858.38l79.36-241.9" stroke="#3a414a" stroke-width="3" fill="none"/><path d="M1665.85 1858.8l-1.4 4.32-.48-.16v-4.77zM1744.27 1611.9v4.77l-1.9-.62 1.43-4.3z" stroke="#3a414a" stroke-width=".05" fill="#3a414a"/><path d="M1665.03 1776.75l3.35-3.37m4.47-4.5l6.7-6.74m4.46-4.5l6.7-6.73m4.48-4.5l6.7-6.73m4.47-4.5l6.7-6.73m4.47-4.5l6.7-6.74m4.47-4.5l6.7-6.73m4.46-4.5l3.35-3.36" stroke="#3a414a" stroke-width="3" fill="none"/><path d="M1666.1 1777.76l-2.13 2.14v-4.18l.04-.04zM1744.27 1699.13l-.04.04-2.1-2.08 2.13-2.15z" stroke="#3a414a" stroke-width=".05" fill="#3a414a"/><path d="M1665.47 1695.82h4.64m6.2 0h9.27m6.18 0h9.28m6.18 0h9.28m6.2 0h9.26m6.2 0h4.63" stroke="#3a414a" stroke-width="3" fill="none"/><path d="M1665.5 1697.3h-1.53v-2.96h1.54zM1744.27 1697.3h-1.54v-2.96h1.54z" stroke="#3a414a" stroke-width=".05" fill="#3a414a"/><path d="M1664.63 1858.46l1.98-4m2.64-5.34l3.95-8m2.62-5.33l3.95-8.02m2.63-5.34l3.95-8m2.63-5.33l3.95-8m2.63-5.33l3.95-8m2.64-5.34l3.95-8m2.62-5.34l3.95-8.02m2.63-5.33l3.95-8m2.63-5.34l3.95-8m2.64-5.33l3.94-8m2.65-5.34l3.94-8m2.63-5.34l1.97-4" stroke="#3a414a" stroke-width="3" fill="none"/><path d="M1665.97 1859.08l-2 4.06v-5.05zM1744.27 1698.76l-2-1 2-4.05z" stroke="#3a414a" stroke-width=".05" fill="#3a414a"/><path d="M1666.53 1858.74c0 .83-.67 1.5-1.5 1.5s-1.5-.67-1.5-1.5.67-1.5 1.5-1.5 1.5.67 1.5 1.5zm4.34-4.37c0 .83-.67 1.5-1.5 1.5s-1.5-.67-1.5-1.5c0-.82.67-1.5 1.5-1.5s1.5.68 1.5 1.5zm4.34-4.36c0 .83-.66 1.5-1.5 1.5-.8 0-1.5-.67-1.5-1.5 0-.82.7-1.5 1.5-1.5.84 0 1.5.68 1.5 1.5zm4.36-4.36c0 .82-.67 1.5-1.5 1.5s-1.5-.68-1.5-1.5c0-.83.67-1.5 1.5-1.5s1.5.67 1.5 1.5zm4.34-4.37c0 .83-.67 1.5-1.5 1.5s-1.5-.67-1.5-1.5.67-1.5 1.5-1.5 1.5.67 1.5 1.5zm4.34-4.37c0 .83-.67 1.5-1.5 1.5-.82 0-1.5-.67-1.5-1.5s.68-1.5 1.5-1.5c.83 0 1.5.67 1.5 1.5zm4.35-4.37c0 .83-.68 1.5-1.5 1.5-.84 0-1.5-.67-1.5-1.5s.66-1.5 1.5-1.5c.82 0 1.5.67 1.5 1.5zm4.33-4.37c0 .83-.67 1.5-1.5 1.5s-1.5-.67-1.5-1.5.67-1.5 1.5-1.5 1.5.67 1.5 1.5zm4.34-4.37c0 .82-.67 1.5-1.5 1.5-.82 0-1.5-.68-1.5-1.5 0-.84.68-1.5 1.5-1.5.83 0 1.5.66 1.5 1.5zm4.35-4.38c0 .83-.67 1.5-1.5 1.5s-1.5-.67-1.5-1.5.67-1.5 1.5-1.5 1.5.67 1.5 1.5zm4.34-4.37c0 .83-.67 1.5-1.5 1.5s-1.5-.67-1.5-1.5.67-1.5 1.5-1.5 1.5.67 1.5 1.5zm4.34-4.37c0 .83-.67 1.5-1.5 1.5-.82 0-1.5-.67-1.5-1.5 0-.82.68-1.5 1.5-1.5.83 0 1.5.68 1.5 1.5zm4.35-4.36c0 .82-.67 1.5-1.5 1.5s-1.5-.68-1.5-1.5c0-.83.67-1.5 1.5-1.5s1.5.67 1.5 1.5zm4.34-4.37c0 .83-.68 1.5-1.5 1.5-.84 0-1.5-.67-1.5-1.5s.66-1.5 1.5-1.5c.82 0 1.5.67 1.5 1.5zm4.33-4.37c0 .83-.67 1.5-1.5 1.5-.82 0-1.5-.67-1.5-1.5s.68-1.5 1.5-1.5c.83 0 1.5.67 1.5 1.5zm4.35-4.37c0 .84-.67 1.5-1.5 1.5s-1.5-.66-1.5-1.5c0-.82.67-1.5 1.5-1.5s1.5.68 1.5 1.5zm4.34-4.36c0 .83-.67 1.5-1.5 1.5s-1.5-.67-1.5-1.5.67-1.5 1.5-1.5 1.5.67 1.5 1.5zm4.34-4.37c0 .83-.67 1.5-1.5 1.5-.82 0-1.5-.67-1.5-1.5s.68-1.5 1.5-1.5c.83 0 1.5.67 1.5 1.5z" fill="#3a414a"/><path d="M1666.1 1859.76l-2.13 2.14v-4.2l.04-.02zM1744.27 1781.13l-.04.04-2.1-2.08 2.13-2.15z" stroke="#3a414a" stroke-width=".05" fill="#3a414a"/><path d="M1666.97 1777.8c0 .84-.67 1.5-1.5 1.5s-1.5-.66-1.5-1.5c0-.82.67-1.5 1.5-1.5s1.5.68 1.5 1.5zm5.95 0c0 .84-.68 1.5-1.5 1.5-.83 0-1.5-.66-1.5-1.5 0-.82.67-1.5 1.5-1.5.82 0 1.5.68 1.5 1.5zm5.94 0c0 .84-.67 1.5-1.5 1.5s-1.5-.66-1.5-1.5c0-.82.67-1.5 1.5-1.5s1.5.68 1.5 1.5zm5.95 0c0 .84-.66 1.5-1.5 1.5-.82 0-1.5-.66-1.5-1.5 0-.82.68-1.5 1.5-1.5.84 0 1.5.68 1.5 1.5zm5.95 0c0 .84-.67 1.5-1.5 1.5s-1.5-.66-1.5-1.5c0-.82.67-1.5 1.5-1.5s1.5.68 1.5 1.5zm5.95 0c0 .84-.67 1.5-1.5 1.5s-1.5-.66-1.5-1.5c0-.82.67-1.5 1.5-1.5s1.5.68 1.5 1.5zm5.94 0c0 .84-.67 1.5-1.5 1.5-.82 0-1.5-.66-1.5-1.5 0-.82.68-1.5 1.5-1.5.83 0 1.5.68 1.5 1.5zm5.95 0c0 .84-.68 1.5-1.5 1.5-.84 0-1.5-.66-1.5-1.5 0-.82.66-1.5 1.5-1.5.82 0 1.5.68 1.5 1.5zm5.94 0c0 .84-.67 1.5-1.5 1.5s-1.5-.66-1.5-1.5c0-.82.67-1.5 1.5-1.5s1.5.68 1.5 1.5zm5.94 0c0 .84-.67 1.5-1.5 1.5s-1.5-.66-1.5-1.5c0-.82.67-1.5 1.5-1.5s1.5.68 1.5 1.5zm5.95 0c0 .84-.67 1.5-1.5 1.5s-1.5-.66-1.5-1.5c0-.82.67-1.5 1.5-1.5s1.5.68 1.5 1.5zm5.94 0c0 .84-.67 1.5-1.5 1.5-.82 0-1.5-.66-1.5-1.5 0-.82.68-1.5 1.5-1.5.83 0 1.5.68 1.5 1.5zm5.95 0c0 .84-.67 1.5-1.5 1.5s-1.5-.66-1.5-1.5c0-.82.67-1.5 1.5-1.5s1.5.68 1.5 1.5zm5.95 0c0 .84-.68 1.5-1.5 1.5-.83 0-1.5-.66-1.5-1.5 0-.82.67-1.5 1.5-1.5.82 0 1.5.68 1.5 1.5z" fill="#3a414a"/><path d="M1665.5 1779.3h-1.53v-2.96h1.54zM1744.27 1779.3h-1.54v-2.96h1.54z" stroke="#3a414a" stroke-width=".05" fill="#3a414a"/><path d="M1354.73 1583.45a5 5 0 0 1 5-5h81.33a5 5 0 0 1 5 5v470.72a5 5 0 0 1-5 5h-81.33a5 5 0 0 1-5-5z" stroke="#1071e5" stroke-width="2" fill="#edf5ff"/><path d="M1360.72 2044.95a5 5 0 0 1-5-5v-445.8a5 5 0 0 1 5-5h80a5 5 0 0 1 5 5v445.8a5 5 0 0 1-5 5z" stroke="#979ea8" stroke-width="2" fill="#ffdda6"/><use xlink:href="#j" transform="matrix(6.123233995736766e-17,-1,1,6.123233995736766e-17,1360.7215121365518,2039.9508620128977) translate(14.759259259259409 29.166666666666643)"/><use xlink:href="#k" transform="matrix(6.123233995736766e-17,-1,1,6.123233995736766e-17,1360.7215121365518,2039.9508620128977) translate(24.01851851851866 29.166666666666643)"/><use xlink:href="#l" transform="matrix(6.123233995736766e-17,-1,1,6.123233995736766e-17,1360.7215121365518,2039.9508620128977) translate(136.88888888888894 29.166666666666643)"/><use xlink:href="#m" transform="matrix(6.123233995736766e-17,-1,1,6.123233995736766e-17,1360.7215121365518,2039.9508620128977) translate(264.66666666666663 29.166666666666643)"/><use xlink:href="#n" transform="matrix(6.123233995736766e-17,-1,1,6.123233995736766e-17,1360.7215121365518,2039.9508620128977) translate(147.25925925925932 69.1666666666666)"/><path d="M1923.94 2070.43a5 5 0 0 1 5 5v81.33a5 5 0 0 1-5 5h-459.7a5 5 0 0 1-5-5v-81.33a5 5 0 0 1 5-5z" stroke="#1071e5" stroke-width="2" fill="#edf5ff"/><path d="M1471.1 2076.42a5 5 0 0 1 5-5h435.02a5 5 0 0 1 5 5v80a5 5 0 0 1-5 5H1476.1a5 5 0 0 1-5-5z" stroke="#979ea8" stroke-width="2" fill="#ff8f8f"/><use xlink:href="#o" transform="matrix(1,0,0,1,1476.1002915664471,2076.417084454887) translate(18.09259259259278 29.166666666666643)"/><use xlink:href="#k" transform="matrix(1,0,0,1,1476.1002915664471,2076.417084454887) translate(36.611111111111285 29.166666666666643)"/><use xlink:href="#l" transform="matrix(1,0,0,1,1476.1002915664471,2076.417084454887) translate(149.48148148148155 29.166666666666643)"/><use xlink:href="#p" transform="matrix(1,0,0,1,1476.1002915664471,2076.417084454887) translate(277.25925925925924 29.166666666666643)"/><use xlink:href="#n" transform="matrix(1,0,0,1,1476.1002915664471,2076.417084454887) translate(142.25925925925932 69.1666666666666)"/><path d="M1451.86 2595.97a5 5 0 0 1 5-5h462.1a5 5 0 0 1 5 5v60.74a5 5 0 0 1-5 5h-462.1a5 5 0 0 1-5-5zM1451.86 2677.97a5 5 0 0 1 5-5h462.1a5 5 0 0 1 5 5v60.73a5 5 0 0 1-5 5h-462.1a5 5 0 0 1-5-5zM1451.86 2513.98a5 5 0 0 1 5-5h462.1a5 5 0 0 1 5 5v60.73a5 5 0 0 1-5 5h-462.1a5 5 0 0 1-5-5zM1451.86 2431.98a5 5 0 0 1 5-5h462.1a5 5 0 0 1 5 5v60.74a5 5 0 0 1-5 5h-462.1a5 5 0 0 1-5-5z" stroke="#1071e5" stroke-width="2" fill="#edf5ff"/><path d="M1467.08 2436.25a5 5 0 0 1 5-5h178.5a5 5 0 0 1 5 5v53.33a5 5 0 0 1-5 5h-178.5a5 5 0 0 1-5-5z" stroke="#979ea8" stroke-width="2" fill="#ffbbb1"/><use xlink:href="#a" transform="matrix(1,0,0,1,1472.0794466108132,2436.2469134376215) translate(12.197530864197532 31.638888888888893)"/><path d="M1467.08 2517.68a5 5 0 0 1 5-5h178.5a5 5 0 0 1 5 5V2571a5 5 0 0 1-5 5h-178.5a5 5 0 0 1-5-5z" stroke="#979ea8" stroke-width="2" fill="#ffbbb1"/><use xlink:href="#a" transform="matrix(1,0,0,1,1472.0794466108132,2517.6781354769955) translate(12.197530864197532 31.638888888888893)"/><path d="M1451.86 2759.96a5 5 0 0 1 5-5h462.1a5 5 0 0 1 5 5v60.74a5 5 0 0 1-5 5h-462.1a5 5 0 0 1-5-5z" stroke="#1071e5" stroke-width="2" fill="#edf5ff"/><path d="M1467.08 2768.2a5 5 0 0 1 5-5h178.5a5 5 0 0 1 5 5v44.26a5 5 0 0 1-5 5h-178.5a5 5 0 0 1-5-5z" stroke="#979ea8" stroke-width="2" fill="#a7a6ff"/><use xlink:href="#b" transform="matrix(1,0,0,1,1472.0794466108132,2768.205464046414) translate(59.29629629629629 27.701388888888893)"/><path d="M1467.08 2684.34a5 5 0 0 1 5-5h178.5a5 5 0 0 1 5 5v48a5 5 0 0 1-5 5h-178.5a5 5 0 0 1-5-5z" stroke="#979ea8" stroke-width="2" fill="#fc9432"/><use xlink:href="#c" transform="matrix(1,0,0,1,1472.0794466108132,2684.335738668303) translate(-17.574074074074076 30.22222222222222)"/><path d="M1737.87 2442.68a5 5 0 0 1 5-5h50.9a5 5 0 0 1 5 5v41.8a5 5 0 0 1-5 5h-50.9a5 5 0 0 1-5-5z" stroke="#979ea8" stroke-width="2" fill="#fff7a1"/><use xlink:href="#d" transform="matrix(1,0,0,1,1742.8724763997898,2442.6772915142064) translate(2.351851851851883 29.29166666666663)"/><path d="M1737.87 2524.67a5 5 0 0 1 5-5h50.9a5 5 0 0 1 5 5v41.8a5 5 0 0 1-5 5h-50.9a5 5 0 0 1-5-5z" stroke="#979ea8" stroke-width="2" fill="#fff7a1"/><use xlink:href="#e" transform="matrix(1,0,0,1,1742.8724763997898,2524.6727597765284) translate(2.351851851851883 29.29166666666663)"/><path d="M1737.87 2606.67a5 5 0 0 1 5-5h50.9a5 5 0 0 1 5 5v41.8a5 5 0 0 1-5 5h-50.9a5 5 0 0 1-5-5z" stroke="#979ea8" stroke-width="2" fill="#fff7a1"/><use xlink:href="#f" transform="matrix(1,0,0,1,1742.8724763997898,2606.6682280388486) translate(2.351851851851883 29.29166666666663)"/><path d="M1467.08 2599.67a5 5 0 0 1 5-5h178.5a5 5 0 0 1 5 5V2653a5 5 0 0 1-5 5h-178.5a5 5 0 0 1-5-5z" stroke="#979ea8" stroke-width="2" fill="#ffbbb1"/><use xlink:href="#a" transform="matrix(1,0,0,1,1472.0794466108132,2599.6736037393157) translate(12.197530864197532 31.638888888888893)"/><path d="M1451.86 2841.96a5 5 0 0 1 5-5h462.1a5 5 0 0 1 5 5v60.73a5 5 0 0 1-5 5h-462.1a5 5 0 0 1-5-5z" stroke="#1071e5" stroke-width="2" fill="#edf5ff"/><path d="M1467.08 2850.2a5 5 0 0 1 5-5h178.5a5 5 0 0 1 5 5v44.25a5 5 0 0 1-5 5h-178.5a5 5 0 0 1-5-5z" stroke="#979ea8" stroke-width="2" fill="#ff8f8f"/><use xlink:href="#g" transform="matrix(1,0,0,1,1472.0794466108132,2850.200932308734) translate(1.7962962962963047 26.958333333333332)"/><use xlink:href="#h" transform="matrix(1,0,0,1,1472.0794466108132,2850.200932308734) translate(106.68518518518518 26.958333333333332)"/><path d="M1827.92 2442a5 5 0 0 1 5-5h70.8a5 5 0 0 1 5 5v41.8a5 5 0 0 1-5 5h-70.8a5 5 0 0 1-5-5z" stroke="#979ea8" stroke-width="2" fill="#fff7a1"/><use xlink:href="#i" transform="matrix(1,0,0,1,1832.923593999968,2442.014687478616) translate(-1.351851851851798 27.666666666666657)"/><path d="M1827.92 2523.45a5 5 0 0 1 5-5h70.8a5 5 0 0 1 5 5v41.8a5 5 0 0 1-5 5h-70.8a5 5 0 0 1-5-5z" stroke="#979ea8" stroke-width="2" fill="#fff7a1"/><use xlink:href="#i" transform="matrix(1,0,0,1,1832.9235939999676,2523.44590951799) translate(-1.351851851851798 27.666666666666657)"/><path d="M1827.92 2606.67a5 5 0 0 1 5-5h70.8a5 5 0 0 1 5 5v41.8a5 5 0 0 1-5 5h-70.8a5 5 0 0 1-5-5z" stroke="#979ea8" stroke-width="2" fill="#fff7a1"/><use xlink:href="#i" transform="matrix(1,0,0,1,1832.923593999968,2606.6682280388486) translate(-1.351851851851798 27.666666666666657)"/><path d="M1827.92 2770.66a5 5 0 0 1 5-5h70.8a5 5 0 0 1 5 5v41.8a5 5 0 0 1-5 5h-70.8a5 5 0 0 1-5-5z" stroke="#979ea8" stroke-width="2" fill="#fff7a1"/><use xlink:href="#i" transform="matrix(1,0,0,1,1832.923593999968,2770.65916456349) translate(-1.351851851851798 27.666666666666657)"/><path d="M1658.08 2462.9h77.3" stroke="#3a414a" stroke-width="3" fill="none"/><path d="M1658.12 2464.4h-1.54v-2.96h1.54zM1736.87 2464.4h-1.54v-2.96h1.54z" stroke="#3a414a" stroke-width=".05" fill="#3a414a"/><path d="M1657.63 2543.28l78.18-78.64" stroke="#3a414a" stroke-width="3" fill="none"/><path d="M1658.7 2544.3l-2.12 2.14v-4.2l.04-.03zM1736.87 2465.67l-.04.04-2.1-2.07 2.14-2.15z" stroke="#3a414a" stroke-width=".05" fill="#3a414a"/><path d="M1657.24 2625l78.97-160.08" stroke="#3a414a" stroke-width="3" fill="none"/><path d="M1658.58 2625.6l-2 4.07v-5.05zM1736.87 2465.3l-2-1 2-4.06z" stroke="#3a414a" stroke-width=".05" fill="#3a414a"/><path d="M1657.05 2706.9l79.36-241.9" stroke="#3a414a" stroke-width="3" fill="none"/><path d="M1658.46 2707.33l-1.42 4.32-.46-.16v-4.78zM1736.87 2460.42v4.78l-1.88-.62 1.4-4.3z" stroke="#3a414a" stroke-width=".05" fill="#3a414a"/><path d="M1657.63 2625.28l3.35-3.37m4.47-4.5l6.7-6.73m4.47-4.5l6.7-6.73m4.47-4.5l6.7-6.74m4.46-4.5l6.7-6.73m4.47-4.5l6.7-6.74m4.47-4.5l6.7-6.73m4.46-4.5l3.36-3.36" stroke="#3a414a" stroke-width="3" fill="none"/><path d="M1658.7 2626.3l-2.12 2.13v-4.18l.04-.04zM1736.87 2547.66l-.04.04-2.1-2.08 2.14-2.14z" stroke="#3a414a" stroke-width=".05" fill="#3a414a"/><path d="M1658.08 2544.34h4.63m6.2 0h9.27m6.2 0h9.26m6.2 0h9.26m6.18 0h9.27m6.18 0h4.64" stroke="#3a414a" stroke-width="3" fill="none"/><path d="M1658.12 2545.82h-1.54v-2.95h1.54zM1736.87 2545.82h-1.54v-2.95h1.54z" stroke="#3a414a" stroke-width=".05" fill="#3a414a"/><path d="M1657.24 2707l1.97-4m2.65-5.35l3.95-8m2.63-5.34l3.95-8m2.63-5.33l3.96-8m2.63-5.34l3.94-8m2.63-5.34l3.95-8m2.63-5.34l3.95-8m2.63-5.34l3.95-8m2.63-5.34l3.96-8m2.63-5.34l3.94-8m2.63-5.34l3.95-8m2.63-5.34l3.95-8m2.63-5.34l1.98-4" stroke="#3a414a" stroke-width="3" fill="none"/><path d="M1658.58 2707.6l-2 4.07v-5.05zM1736.87 2547.3l-2-1 2-4.06z" stroke="#3a414a" stroke-width=".05" fill="#3a414a"/><path d="M1659.13 2707.27c0 .83-.67 1.5-1.5 1.5-.82 0-1.5-.67-1.5-1.5s.68-1.5 1.5-1.5c.83 0 1.5.67 1.5 1.5zm4.35-4.37c0 .83-.67 1.5-1.5 1.5s-1.5-.67-1.5-1.5.67-1.5 1.5-1.5 1.5.67 1.5 1.5zm4.34-4.37c0 .83-.67 1.5-1.5 1.5s-1.5-.67-1.5-1.5c0-.82.67-1.5 1.5-1.5s1.5.68 1.5 1.5zm4.35-4.37c0 .83-.68 1.5-1.5 1.5-.83 0-1.5-.67-1.5-1.5 0-.82.67-1.5 1.5-1.5.82 0 1.5.68 1.5 1.5zm4.34-4.36c0 .82-.66 1.5-1.5 1.5-.82 0-1.5-.68-1.5-1.5 0-.83.68-1.5 1.5-1.5.84 0 1.5.67 1.5 1.5zm4.35-4.37c0 .83-.67 1.5-1.5 1.5s-1.5-.67-1.5-1.5.67-1.5 1.5-1.5 1.5.67 1.5 1.5zm4.35-4.37c0 .83-.68 1.5-1.5 1.5-.83 0-1.5-.67-1.5-1.5s.67-1.5 1.5-1.5c.82 0 1.5.67 1.5 1.5zm4.34-4.37c0 .82-.67 1.5-1.5 1.5s-1.5-.68-1.5-1.5c0-.84.67-1.5 1.5-1.5s1.5.66 1.5 1.5zm4.34-4.38c0 .83-.67 1.5-1.5 1.5s-1.5-.67-1.5-1.5.67-1.5 1.5-1.5 1.5.67 1.5 1.5zm4.34-4.37c0 .83-.67 1.5-1.5 1.5-.82 0-1.5-.67-1.5-1.5s.68-1.5 1.5-1.5c.83 0 1.5.67 1.5 1.5zm4.35-4.37c0 .83-.67 1.5-1.5 1.5s-1.5-.67-1.5-1.5.67-1.5 1.5-1.5 1.5.67 1.5 1.5zm4.34-4.37c0 .84-.66 1.5-1.5 1.5-.82 0-1.5-.66-1.5-1.5 0-.8.68-1.5 1.5-1.5.84 0 1.5.7 1.5 1.5zm4.36-4.36c0 .83-.68 1.5-1.5 1.5-.83 0-1.5-.67-1.5-1.5 0-.82.67-1.5 1.5-1.5.82 0 1.5.68 1.5 1.5zm4.34-4.36c0 .82-.67 1.5-1.5 1.5s-1.5-.68-1.5-1.5c0-.83.67-1.5 1.5-1.5s1.5.67 1.5 1.5zm4.34-4.37c0 .84-.67 1.5-1.5 1.5s-1.5-.66-1.5-1.5c0-.82.67-1.5 1.5-1.5s1.5.68 1.5 1.5zm4.35-4.36c0 .83-.7 1.5-1.5 1.5-.84 0-1.5-.67-1.5-1.5s.66-1.5 1.5-1.5c.8 0 1.5.67 1.5 1.5zm4.33-4.37c0 .83-.67 1.5-1.5 1.5s-1.5-.67-1.5-1.5.67-1.5 1.5-1.5 1.5.67 1.5 1.5zm4.34-4.37c0 .83-.67 1.5-1.5 1.5s-1.5-.67-1.5-1.5.67-1.5 1.5-1.5 1.5.67 1.5 1.5z" fill="#3a414a"/><path d="M1658.7 2708.28l-2.12 2.15v-4.2l.04-.03zM1736.87 2629.66l-.04.04-2.1-2.08 2.14-2.14z" stroke="#3a414a" stroke-width=".05" fill="#3a414a"/><path d="M1659.58 2626.34c0 .83-.67 1.5-1.5 1.5s-1.5-.67-1.5-1.5.67-1.5 1.5-1.5 1.5.67 1.5 1.5zm5.94 0c0 .83-.67 1.5-1.5 1.5s-1.5-.67-1.5-1.5.67-1.5 1.5-1.5 1.5.67 1.5 1.5zm5.95 0c0 .83-.67 1.5-1.5 1.5s-1.5-.67-1.5-1.5.67-1.5 1.5-1.5 1.5.67 1.5 1.5zm5.94 0c0 .83-.66 1.5-1.5 1.5-.8 0-1.5-.67-1.5-1.5s.7-1.5 1.5-1.5c.84 0 1.5.67 1.5 1.5zm5.96 0c0 .83-.67 1.5-1.5 1.5s-1.5-.67-1.5-1.5.67-1.5 1.5-1.5 1.5.67 1.5 1.5zm5.95 0c0 .83-.66 1.5-1.5 1.5-.82 0-1.5-.67-1.5-1.5s.68-1.5 1.5-1.5c.84 0 1.5.67 1.5 1.5zm5.95 0c0 .83-.67 1.5-1.5 1.5s-1.5-.67-1.5-1.5.67-1.5 1.5-1.5 1.5.67 1.5 1.5zm5.95 0c0 .83-.67 1.5-1.5 1.5s-1.5-.67-1.5-1.5.67-1.5 1.5-1.5 1.5.67 1.5 1.5zm5.94 0c0 .83-.67 1.5-1.5 1.5s-1.5-.67-1.5-1.5.67-1.5 1.5-1.5 1.5.67 1.5 1.5zm5.95 0c0 .83-.68 1.5-1.5 1.5-.84 0-1.5-.67-1.5-1.5s.66-1.5 1.5-1.5c.82 0 1.5.67 1.5 1.5zm5.94 0c0 .83-.68 1.5-1.5 1.5-.83 0-1.5-.67-1.5-1.5s.67-1.5 1.5-1.5c.82 0 1.5.67 1.5 1.5zm5.94 0c0 .83-.67 1.5-1.5 1.5s-1.5-.67-1.5-1.5.67-1.5 1.5-1.5 1.5.67 1.5 1.5zm5.95 0c0 .83-.67 1.5-1.5 1.5s-1.5-.67-1.5-1.5.67-1.5 1.5-1.5 1.5.67 1.5 1.5zm5.94 0c0 .83-.67 1.5-1.5 1.5s-1.5-.67-1.5-1.5.67-1.5 1.5-1.5 1.5.67 1.5 1.5z" fill="#3a414a"/><path d="M1658.12 2627.8h-1.54v-2.94h1.54zM1736.87 2627.8h-1.54v-2.94h1.54z" stroke="#3a414a" stroke-width=".05" fill="#3a414a"/><path d="M1918.95 2324.4a5 5 0 0 1 5 5v81.32a5 5 0 0 1-5 5h-461.88a5 5 0 0 1-5-5v-81.33a5 5 0 0 1 5-5z" stroke="#1071e5" stroke-width="2" fill="#edf5ff"/><path d="M1467.08 2330.38a5 5 0 0 1 5-5h431.64a5 5 0 0 1 5 5v80a5 5 0 0 1-5 5h-431.64a5 5 0 0 1-5-5z" stroke="#979ea8" stroke-width="2" fill="#ffdda6"/><use xlink:href="#j" transform="matrix(1,0,0,1,1472.0794466108136,2330.3814153027524) translate(7.759259259259409 29.166666666666643)"/><use xlink:href="#k" transform="matrix(1,0,0,1,1472.0794466108136,2330.3814153027524) translate(17.01851851851866 29.166666666666643)"/><use xlink:href="#l" transform="matrix(1,0,0,1,1472.0794466108136,2330.3814153027524) translate(129.88888888888894 29.166666666666643)"/><use xlink:href="#m" transform="matrix(1,0,0,1,1472.0794466108136,2330.3814153027524) translate(257.66666666666663 29.166666666666643)"/><use xlink:href="#n" transform="matrix(1,0,0,1,1472.0794466108136,2330.3814153027524) translate(140.25925925925932 69.1666666666666)"/><path d="M1354.73 2431.98a5 5 0 0 1 5-5h81.33a5 5 0 0 1 5 5v470.7a5 5 0 0 1-5 5h-81.33a5 5 0 0 1-5-5z" stroke="#000" stroke-opacity="0" stroke-width="2" fill="#edf5ff"/><path d="M1360.72 2893.48a5 5 0 0 1-5-5v-445.8a5 5 0 0 1 5-5h80a5 5 0 0 1 5 5v445.8a5 5 0 0 1-5 5z" stroke="#979ea8" stroke-width="2" fill="#ff8f8f"/><use xlink:href="#o" transform="matrix(6.123233995736766e-17,-1,1,6.123233995736766e-17,1360.7215121365518,2888.479602119168) translate(23.09259259259278 29.166666666666643)"/><use xlink:href="#k" transform="matrix(6.123233995736766e-17,-1,1,6.123233995736766e-17,1360.7215121365518,2888.479602119168) translate(41.611111111111285 29.166666666666643)"/><use xlink:href="#l" transform="matrix(6.123233995736766e-17,-1,1,6.123233995736766e-17,1360.7215121365518,2888.479602119168) translate(154.48148148148155 29.166666666666643)"/><use xlink:href="#p" transform="matrix(6.123233995736766e-17,-1,1,6.123233995736766e-17,1360.7215121365518,2888.479602119168) translate(282.25925925925924 29.166666666666643)"/><use xlink:href="#n" transform="matrix(6.123233995736766e-17,-1,1,6.123233995736766e-17,1360.7215121365518,2888.479602119168) translate(147.25925925925932 69.1666666666666)"/><path d="M1946.94 2245.75h-3m-4 0h-6m-4 0h-5.98m-4 0h-6m-4 0H1904m-4 0h-6m-4 0H1884m-4 0h-6m-4 0h-5.98m-4 0h-6m-4 0h-5.98m-4 0h-6m-4 0h-5.98m-4 0h-6m-4 0h-5.98m-4 0h-6m-4 0h-5.98m-4 0h-6m-4 0h-5.98m-4 0h-6m-4 0h-5.98m-4 0h-6m-4 0h-5.98m-4 0h-6m-4 0h-6m-3.98 0h-6m-4 0h-6m-3.98 0h-6m-4 0h-6m-3.98 0h-6m-4 0h-6m-3.98 0h-6m-4 0h-6m-3.98 0h-6m-4 0h-6m-3.98 0h-6m-4 0h-6m-3.98 0h-6m-4 0h-6m-3.98 0h-6m-4 0h-6m-3.98 0h-6m-4 0h-6m-3.98 0h-6m-4 0h-6m-3.98 0h-6m-4 0h-6m-4 0h-5.98m-4 0h-6m-4 0h-5.98m-4 0h-6m-4 0h-5.98m-4 0h-6m-4 0h-5.98m-4 0h-6m-4 0h-5.98m-4 0h-6m-4 0h-5.98m-4 0h-6m-4 0h-5.98m-4 0h-6m-4 0h-5.98m-4 0h-6m-4 0h-5.98m-4 0h-6m-4 0h-5.98m-4 0h-6m-4 0h-5.98m-4 0h-6m-4 0h-5.98m-4 0h-6m-4 0h-5.98m-4 0h-6m-4 0h-5.98m-4 0h-6m-4 0h-6m-3.98 0h-6m-4 0h-6m-3.98 0h-6m-4 0h-6m-3.98 0h-6m-4 0h-6m-3.98 0h-6m-4 0h-6m-3.98 0h-6m-4 0h-6m-3.98 0h-6m-4 0h-6m-3.98 0h-6m-4 0h-6m-3.98 0h-6m-4 0h-6m-3.98 0h-6m-4 0h-6m-3.98 0h-6m-4 0h-6m-4 0h-5.98m-4 0h-6m-4 0h-5.98m-4 0h-6m-4 0h-5.98m-4 0h-6m-4 0h-5.98m-4 0h-6m-4 0h-5.98m-4 0h-6m-4 0H885m-4 0h-6m-4 0H865m-4 0h-6m-4 0h-5.98m-4 0h-6m-4 0h-5.98m-4 0h-6m-4 0h-5.98m-4 0h-6m-4 0h-5.98m-4 0h-6m-4 0h-5.98m-4 0h-6m-4 0h-5.98m-4 0h-6m-4 0h-5.98m-4 0h-6m-4 0h-5.98m-4 0h-6m-4 0h-6m-3.98 0h-6m-4 0h-5.98m-4 0h-6m-4 0h-6m-3.98 0h-6m-4 0h-6m-3.98 0h-6m-4 0h-6m-3.98 0h-6m-4 0h-3" stroke="#979ea8" stroke-width="2" fill="none"/><path d="M1947.94 2246.72h-1.03v-1.95h1.04zM588.3 2246.72h-1.03v-1.95h1.03z" stroke="#979ea8" stroke-width=".05" fill="#979ea8"/><path d="M1267.6 2928.33v-3m0-3.98v-5.97m0-4v-5.97m0-3.98v-5.97m0-4v-5.97m0-4v-5.96m0-4v-5.97m0-4v-5.96m0-4v-5.98m0-3.98v-5.98m0-4v-5.97m0-4v-5.97m0-4v-5.97m0-3.98v-5.98m0-4v-5.97m0-3.98v-5.98m0-4v-5.97m0-3.98v-5.98m0-4v-5.97m0-3.98v-6m0-3.98v-5.97m0-4v-5.97m0-4v-5.96m0-4v-5.97m0-4v-5.96m0-4v-5.98m0-3.98v-5.98m0-4v-5.97m0-4v-5.97m0-4v-5.97m0-3.98v-5.98m0-4v-5.97m0-3.98v-5.98m0-4v-5.97m0-3.98v-5.98m0-4v-5.97m0-3.98v-6m0-3.98v-5.97m0-4v-5.97m0-4v-5.96m0-4v-5.97m0-4v-5.96m0-4v-5.98m0-4v-5.96m0-4v-5.97m0-4v-5.97m0-4v-5.97m0-3.98V2457m0-4v-5.97m0-3.98v-5.98m0-4v-5.97m0-3.98v-5.98m0-4v-5.97m0-3.98v-6m0-3.98v-5.97m0-4v-5.97m0-4v-5.97m0-3.97v-5.98m0-4v-5.96m0-4v-5.98m0-4v-5.96m0-4v-5.97m0-4v-5.97m0-4v-5.97m0-3.98v-5.98m0-4v-5.97m0-3.98v-5.98m0-4v-5.97m0-3.98v-5.98m0-4v-5.97m0-3.98v-6m0-3.98v-5.98m0-3.98v-5.98m0-4v-5.97m0-3.97v-5.98m0-4V2178m0-4v-5.98m0-4v-5.96m0-4v-5.97m0-4v-5.97m0-4v-5.97m0-3.98v-5.98m0-4v-5.97m0-3.98v-5.98m0-4v-5.97m0-3.98v-5.98m0-4v-5.97m0-3.98v-6m0-3.98v-5.98m0-3.98v-5.98m0-4v-5.96m0-4v-5.97m0-4v-5.96m0-4v-5.98m0-3.98v-5.98m0-4v-5.97m0-4v-5.97m0-4v-5.97m0-3.98v-5.98m0-4v-5.97m0-3.98v-5.98m0-4v-5.97m0-3.98v-5.98m0-4v-5.97m0-3.98v-6m0-3.98v-5.98m0-3.98v-5.98m0-4v-5.97m0-3.97v-5.98m0-4v-5.97m0-3.98v-5.98m0-4v-5.96m0-4v-5.97m0-4v-5.97m0-4v-5.97m0-3.98v-5.98m0-4v-5.97m0-3.98v-5.98m0-4v-5.97m0-3.98v-5.98m0-4v-5.97m0-3.98v-6m0-3.98v-5.98m0-3.98v-5.98m0-4v-5.97m0-3.97v-5.98m0-4v-5.96m0-4v-5.98m0-4v-5.96m0-4v-5.97m0-4v-5.97m0-4v-5.97m0-4V1610m0-4v-5.97m0-3.98v-5.98m0-4v-5.97m0-3.98v-5.98m0-4v-2.98" stroke="#979ea8" stroke-width="2" fill="none"/><path d="M1268.58 2929.33h-1.95v-1.03h1.95zM1268.58 1563.2h-1.95v-1.04h1.95z" stroke="#979ea8" stroke-width=".05" fill="#979ea8"/><path d="M1103.54 2129.25a5 5 0 0 1 5-5h325.48a5 5 0 0 1 5 5v250a5 5 0 0 1-5 5h-325.48a5 5 0 0 1-5-5z" stroke="#979ea8" stroke-width="2" fill="#c1e4f7"/><use xlink:href="#u" transform="matrix(1,0,0,1,1108.5439346717262,2129.2500131914594) translate(0.7283950617284631 89.44444444444446)"/><use xlink:href="#v" transform="matrix(1,0,0,1,1108.5439346717262,2129.2500131914594) translate(10.604938271605002 89.44444444444446)"/><use xlink:href="#w" transform="matrix(1,0,0,1,1108.5439346717262,2129.2500131914594) translate(197.1728395061728 89.44444444444446)"/><use xlink:href="#x" transform="matrix(1,0,0,1,1108.5439346717262,2129.2500131914594) translate(-5.790123456790042 132.11111111111111)"/><use xlink:href="#y" transform="matrix(1,0,0,1,1108.5439346717262,2129.2500131914594) translate(82.2098765432099 174.77777777777777)"/><path d="M1709.68 2173.02a6 6 0 0 1 6 6v94.6a6 6 0 0 0 6 6h9.6a2.3 2.3 0 0 1 1.53 4l-34.25 30.84a6.67 6.67 0 0 1-8.9 0l-34.27-30.83a2.3 2.3 0 0 1 1.54-4h9.6a6 6 0 0 0 6-6v-94.6a6 6 0 0 1 6-6zM835.96 2313.12a6 6 0 0 1-6-6l-.03-94.6a6 6 0 0 0-6-6h-9.6a2.3 2.3 0 0 1-1.53-4l34.24-30.84a6.67 6.67 0 0 1 8.92 0l34.27 30.8a2.3 2.3 0 0 1-1.54 4.02h-9.6a6 6 0 0 0-6 6l.03 94.6a6 6 0 0 1-6 6zM1201.9 1803.22a6 6 0 0 1 6-6h94.6a6 6 0 0 0 6-6v-9.6a2.3 2.3 0 0 1 4.03-1.53l30.83 34.25a6.67 6.67 0 0 1 0 8.92l-30.83 34.25a2.3 2.3 0 0 1-4.02-1.54v-9.58a6 6 0 0 0-6-6h-94.6a6 6 0 0 1-6-6z" stroke="#000" stroke-opacity="0" stroke-width="3" fill="#ff8f8f"/><g><path d="M1340.33 2683.15a6 6 0 0 1-6 6h-94.6a6 6 0 0 0-6 6v9.6a2.3 2.3 0 0 1-4 1.53l-30.84-34.26a6.67 6.67 0 0 1 0-8.92l30.82-34.25a2.3 2.3 0 0 1 4 1.54v9.58a6 6 0 0 0 6 6h94.6a6 6 0 0 1 6 6z" stroke="#000" stroke-opacity="0" stroke-width="3" fill="#ff8f8f"/></g><path d="M938.16 1858.8c0 16.58-13.43 30-30 30s-30-13.42-30-30c0-16.56 13.43-30 30-30s30 13.44 30 30z" stroke="#000" stroke-width="2" fill="#fff"/><g><use xlink:href="#z" transform="matrix(1,0,0,1,883.1595727670315,1833.8069985620334) translate(7.222222222222221 42.66666666666667)"/></g><path d="M1734.12 1614.38c0 16.57-13.43 30-30 30s-30-13.43-30-30c0-16.56 13.43-30 30-30s30 13.44 30 30z" stroke="#000" stroke-width="2" fill="#fff"/><g><use xlink:href="#A" transform="matrix(1,0,0,1,1679.1175976973732,1589.3848399980193) translate(7.222222222222221 42.66666666666667)"/></g><path d="M1734.12 1697.48c0 16.57-13.43 30-30 30s-30-13.43-30-30 13.43-30 30-30 30 13.43 30 30z" stroke="#000" stroke-width="2" fill="#fff"/><g><use xlink:href="#A" transform="matrix(1,0,0,1,1679.1175976973732,1672.48272870406) translate(7.222222222222221 42.66666666666667)"/></g><path d="M883.8 2464.58c0 16.57-13.42 30-30 30-16.56 0-30-13.43-30-30s13.44-30 30-30c16.58 0 30 13.43 30 30z" stroke="#000" stroke-width="2" fill="#fff"/><g><use xlink:href="#B" transform="matrix(1,0,0,1,828.8074779505714,2439.5802467709555) translate(5.814814814814813 42.66666666666667)"/></g><path d="M1771.75 2709.34c0 16.56-13.43 30-30 30s-30-13.44-30-30c0-16.57 13.43-30 30-30s30 13.43 30 30z" stroke="#000" stroke-width="2" fill="#fff"/><g><use xlink:href="#C" transform="matrix(1,0,0,1,1716.7505066384592,2684.335738668303) translate(5.814814814814813 42.66666666666667)"/></g><path d="M938.16 1943.03c0 16.57-13.43 30-30 30s-30-13.43-30-30 13.43-30 30-30 30 13.43 30 30z" stroke="#000" stroke-width="2" fill="#fff"/><g><use xlink:href="#D" transform="matrix(1,0,0,1,883.1595727670319,1918.029317082893) translate(7.222222222222221 42.66666666666667)"/></g><path d="M1734.12 1779.48c0 16.57-13.43 30-30 30s-30-13.43-30-30 13.43-30 30-30 30 13.43 30 30z" stroke="#000" stroke-width="2" fill="#fff"/><g><use xlink:href="#E" transform="matrix(1,0,0,1,1679.1175976973736,1754.4781969663802) translate(8.777777777777775 42.66666666666667)"/></g><path d="M1779.14 1858.8c0 16.58-13.43 30-30 30s-30-13.42-30-30c0-16.56 13.43-30 30-30s30 13.44 30 30z" stroke="#000" stroke-width="2" fill="#fff"/><g><use xlink:href="#F" transform="matrix(1,0,0,1,1724.1431564974628,1833.8069985620334) translate(4.259259259259256 42.66666666666667)"/></g><path d="M1726.72 2463.58c0 16.57-13.43 30-30 30-16.56 0-30-13.43-30-30s13.44-30 30-30c16.57 0 30 13.43 30 30z" stroke="#000" stroke-width="2" fill="#fff"/><g><use xlink:href="#G" transform="matrix(1,0,0,1,1671.72494783837,2438.57618413988) translate(5.814814814814813 42.66666666666667)"/></g><path d="M1726.72 2544.34c0 16.57-13.43 30-30 30-16.56 0-30-13.43-30-30 0-16.56 13.44-30 30-30 16.57 0 30 13.44 30 30z" stroke="#000" stroke-width="2" fill="#fff"/><g><use xlink:href="#G" transform="matrix(1,0,0,1,1671.72494783837,2519.3448021436634) translate(5.814814814814813 42.66666666666667)"/></g><path d="M1726.72 2624.67c0 16.57-13.43 30-30 30-16.56 0-30-13.43-30-30s13.44-30 30-30c16.57 0 30 13.43 30 30z" stroke="#000" stroke-width="2" fill="#fff"/><g><use xlink:href="#G" transform="matrix(1,0,0,1,1671.72494783837,2599.6736037393166) translate(5.814814814814813 42.66666666666667)"/></g><path d="M1898.32 2461.25c0 16.57-13.43 30-30 30-16.56 0-30-13.43-30-30s13.44-30 30-30c16.57 0 30 13.43 30 30z" stroke="#000" stroke-width="2" fill="#fff"/><g><use xlink:href="#H" transform="matrix(1,0,0,1,1843.3240416641456,2436.2469134376224) translate(17.59759259259259 45.79166666666667)"/></g><path d="M929.82 2709.34c0 16.56-13.43 30-30 30s-30-13.44-30-30c0-16.57 13.43-30 30-30s30 13.43 30 30z" stroke="#000" stroke-width="2" fill="#fff"/><g><use xlink:href="#I" transform="matrix(1,0,0,1,874.8193676485967,2684.335738668303) translate(11.666666666666664 42.66666666666667)"/></g><path d="M1064.36 1779.48c0 16.57-13.43 30-30 30s-30-13.43-30-30 13.43-30 30-30 30 13.43 30 30z" stroke="#000" stroke-width="2" fill="#fff"/><g><use xlink:href="#J" transform="matrix(1,0,0,1,1009.356618942209,1754.4781969663802) translate(7.222222222222221 42.66666666666667)"/></g><path d="M1779.14 2023.8c0 16.57-13.43 30-30 30s-30-13.43-30-30 13.43-30 30-30 30 13.43 30 30z" stroke="#000" stroke-width="2" fill="#fff"/><g><use xlink:href="#K" transform="matrix(1,0,0,1,1724.1431564974628,1998.797935086676) translate(10.185185185185183 42.66666666666667)"/></g><path d="M1771.75 2872.33c0 16.57-13.43 30-30 30s-30-13.43-30-30 13.43-30 30-30 30 13.43 30 30z" stroke="#000" stroke-width="2" fill="#fff"/><g><use xlink:href="#K" transform="matrix(1,0,0,1,1716.7505066384592,2847.326675192946) translate(10.185185185185183 42.66666666666667)"/></g><path d="M884.8 2544.34c0 16.57-13.44 30-30 30-16.57 0-30-13.43-30-30 0-16.56 13.43-30 30-30 16.56 0 30 13.44 30 30z" stroke="#000" stroke-width="2" fill="#fff"/><g><use xlink:href="#K" transform="matrix(1,0,0,1,829.7938088485075,2519.3448021436634) translate(10.185185185185183 42.66666666666667)"/></g><path d="M884.8 2626.34c0 16.57-13.44 30-30 30-16.57 0-30-13.43-30-30s13.43-30 30-30c16.56 0 30 13.43 30 30z" stroke="#000" stroke-width="2" fill="#fff"/><g><use xlink:href="#K" transform="matrix(1,0,0,1,829.7938088485075,2601.3402704059818) translate(10.185185185185183 42.66666666666667)"/></g><path d="M589.1 1427.17a5 5 0 0 1 5-5h1344.54a5 5 0 0 1 5 5v128a5 5 0 0 1-5 5H594.1a5 5 0 0 1-5-5z" stroke="#000" stroke-opacity="0" stroke-width="2" fill="#fff" fill-opacity="0"/><g><use xlink:href="#L" transform="matrix(1,0,0,1,594.1031438013656,1427.166693049585) translate(349.96913580246917 82.22222222222221)"/></g><defs><path d="M233-177c-1 41-23 64-60 70L243 0h-38l-65-103H63V0H30v-248c88 3 205-21 203 71zM63-129c60-2 137 13 137-47 0-61-80-42-137-45v92" id="M"/><path d="M100-194c63 0 86 42 84 106H49c0 40 14 67 53 68 26 1 43-12 49-29l28 8c-11 28-37 45-77 45C44 4 14-33 15-96c1-61 26-98 85-98zm52 81c6-60-76-77-97-28-3 7-6 17-6 28h103" id="N"/><path d="M141-36C126-15 110 5 73 4 37 3 15-17 15-53c-1-64 63-63 125-63 3-35-9-54-41-54-24 1-41 7-42 31l-33-3c5-37 33-52 76-52 45 0 72 20 72 64v82c-1 20 7 32 28 27v20c-31 9-61-2-59-35zM48-53c0 20 12 33 32 33 41-3 63-29 60-74-43 2-92-5-92 41" id="O"/><path d="M85-194c31 0 48 13 60 33l-1-100h32l1 261h-30c-2-10 0-23-3-31C134-8 116 4 85 4 32 4 16-35 15-94c0-66 23-100 70-100zm9 24c-40 0-46 34-46 75 0 40 6 74 45 74 42 0 51-32 51-76 0-42-9-74-50-73" id="P"/><path d="M0 4l72-265h28L28 4H0" id="Q"/><path d="M266 0h-40l-56-210L115 0H75L2-248h35L96-30l15-64 43-154h32l59 218 59-218h35" id="R"/><path d="M114-163C36-179 61-72 57 0H25l-1-190h30c1 12-1 29 2 39 6-27 23-49 58-41v29" id="S"/><path d="M24-231v-30h32v30H24zM24 0v-190h32V0H24" id="T"/><path d="M59-47c-2 24 18 29 38 22v24C64 9 27 4 27-40v-127H5v-23h24l9-43h21v43h35v23H59v120" id="U"/><g id="a"><use transform="matrix(0.08641975308641976,0,0,0.08641975308641976,0,0)" xlink:href="#M"/><use transform="matrix(0.08641975308641976,0,0,0.08641975308641976,22.38271604938272,0)" xlink:href="#N"/><use transform="matrix(0.08641975308641976,0,0,0.08641975308641976,39.66666666666667,0)" xlink:href="#O"/><use transform="matrix(0.08641975308641976,0,0,0.08641975308641976,56.95061728395062,0)" xlink:href="#P"/><use transform="matrix(0.08641975308641976,0,0,0.08641975308641976,74.23456790123457,0)" xlink:href="#Q"/><use transform="matrix(0.08641975308641976,0,0,0.08641975308641976,82.87654320987654,0)" xlink:href="#R"/><use transform="matrix(0.08641975308641976,0,0,0.08641975308641976,111.5679012345679,0)" xlink:href="#S"/><use transform="matrix(0.08641975308641976,0,0,0.08641975308641976,121.85185185185185,0)" xlink:href="#T"/><use transform="matrix(0.08641975308641976,0,0,0.08641975308641976,128.679012345679,0)" xlink:href="#U"/><use transform="matrix(0.08641975308641976,0,0,0.08641975308641976,137.320987654321,0)" xlink:href="#N"/></g><path d="M205 0l-28-72H64L36 0H1l101-248h38L239 0h-34zm-38-99l-47-123c-12 45-31 82-46 123h93" id="V"/><path d="M30 0v-248h33v221h125V0H30" id="W"/><path d="M232-93c-1 65-40 97-104 97C67 4 28-28 28-90v-158h33c8 89-33 224 67 224 102 0 64-133 71-224h33v155" id="X"/><g id="b"><use transform="matrix(0.08641975308641976,0,0,0.08641975308641976,0,0)" xlink:href="#V"/><use transform="matrix(0.08641975308641976,0,0,0.08641975308641976,20.740740740740744,0)" xlink:href="#W"/><use transform="matrix(0.08641975308641976,0,0,0.08641975308641976,38.0246913580247,0)" xlink:href="#X"/></g><path d="M212-179c-10-28-35-45-73-45-59 0-87 40-87 99 0 60 29 101 89 101 43 0 62-24 78-52l27 14C228-24 195 4 139 4 59 4 22-46 18-125c-6-104 99-153 187-111 19 9 31 26 39 46" id="Y"/><path d="M185-189c-5-48-123-54-124 2 14 75 158 14 163 119 3 78-121 87-175 55-17-10-28-26-33-46l33-7c5 56 141 63 141-1 0-78-155-14-162-118-5-82 145-84 179-34 5 7 8 16 11 25" id="Z"/><path d="M145-31C134-9 116 4 85 4 32 4 16-35 15-94c0-59 17-99 70-100 32-1 48 14 60 33 0-11-1-24 2-32h30l-1 268h-32zM93-21c41 0 51-33 51-76s-8-73-50-73c-40 0-46 35-46 75s5 74 45 74" id="aa"/><path d="M84 4C-5 8 30-112 23-190h32v120c0 31 7 50 39 49 72-2 45-101 50-169h31l1 190h-30c-1-10 1-25-2-33-11 22-28 36-60 37" id="ab"/><path d="M117-194c89-4 53 116 60 194h-32v-121c0-31-8-49-39-48C34-167 62-67 57 0H25l-1-190h30c1 10-1 24 2 32 11-22 29-35 61-36" id="ac"/><path d="M96-169c-40 0-48 33-48 73s9 75 48 75c24 0 41-14 43-38l32 2c-6 37-31 61-74 61-59 0-76-41-82-99-10-93 101-131 147-64 4 7 5 14 7 22l-32 3c-4-21-16-35-41-35" id="ad"/><g id="c"><use transform="matrix(0.08641975308641976,0,0,0.08641975308641976,0,0)" xlink:href="#Y"/><use transform="matrix(0.08641975308641976,0,0,0.08641975308641976,22.38271604938272,0)" xlink:href="#Z"/><use transform="matrix(0.08641975308641976,0,0,0.08641975308641976,43.12345679012346,0)" xlink:href="#M"/><use transform="matrix(0.08641975308641976,0,0,0.08641975308641976,65.50617283950618,0)" xlink:href="#Q"/><use transform="matrix(0.08641975308641976,0,0,0.08641975308641976,74.14814814814815,0)" xlink:href="#Z"/><use transform="matrix(0.08641975308641976,0,0,0.08641975308641976,94.8888888888889,0)" xlink:href="#N"/><use transform="matrix(0.08641975308641976,0,0,0.08641975308641976,112.17283950617285,0)" xlink:href="#aa"/><use transform="matrix(0.08641975308641976,0,0,0.08641975308641976,129.4567901234568,0)" xlink:href="#ab"/><use transform="matrix(0.08641975308641976,0,0,0.08641975308641976,146.74074074074076,0)" xlink:href="#N"/><use transform="matrix(0.08641975308641976,0,0,0.08641975308641976,164.0246913580247,0)" xlink:href="#ac"/><use transform="matrix(0.08641975308641976,0,0,0.08641975308641976,181.30864197530866,0)" xlink:href="#ad"/><use transform="matrix(0.08641975308641976,0,0,0.08641975308641976,196.86419753086423,0)" xlink:href="#N"/></g><path d="M155-56V0h-30v-56H8v-25l114-167h33v167h35v25h-35zm-30-156c-27 46-58 90-88 131h88v-131" id="ae"/><path d="M33-154v-36h34v36H33zM33 0v-36h34V0H33" id="af"/><path d="M27 0v-27h64v-190l-56 39v-29l58-41h29v221h61V0H27" id="ag"/><g id="d"><use transform="matrix(0.09259259259259246,0,0,0.09259259259259246,0,0)" xlink:href="#ae"/><use transform="matrix(0.09259259259259246,0,0,0.09259259259259246,18.518518518518494,0)" xlink:href="#af"/><use transform="matrix(0.09259259259259246,0,0,0.09259259259259246,27.777777777777743,0)" xlink:href="#ag"/></g><path d="M126-127c33 6 58 20 58 59 0 88-139 92-164 29-3-8-5-16-6-25l32-3c6 27 21 44 54 44 32 0 52-15 52-46 0-38-36-46-79-43v-28c39 1 72-4 72-42 0-27-17-43-46-43-28 0-47 15-49 41l-32-3c6-42 35-63 81-64 48-1 79 21 79 65 0 36-21 52-52 59" id="ah"/><g id="e"><use transform="matrix(0.09259259259259246,0,0,0.09259259259259246,0,0)" xlink:href="#ah"/><use transform="matrix(0.09259259259259246,0,0,0.09259259259259246,18.518518518518494,0)" xlink:href="#af"/><use transform="matrix(0.09259259259259246,0,0,0.09259259259259246,27.777777777777743,0)" xlink:href="#ag"/></g><path d="M101-251c82-7 93 87 43 132L82-64C71-53 59-42 53-27h129V0H18c2-99 128-94 128-182 0-28-16-43-45-43s-46 15-49 41l-32-3c6-41 34-60 81-64" id="ai"/><g id="f"><use transform="matrix(0.09259259259259246,0,0,0.09259259259259246,0,0)" xlink:href="#ai"/><use transform="matrix(0.09259259259259246,0,0,0.09259259259259246,18.518518518518494,0)" xlink:href="#af"/><use transform="matrix(0.09259259259259246,0,0,0.09259259259259246,27.777777777777743,0)" xlink:href="#ag"/></g><path d="M63-220v92h138v28H63V0H30v-248h175v28H63" id="aj"/><path d="M100-194c62-1 85 37 85 99 1 63-27 99-86 99S16-35 15-95c0-66 28-99 85-99zM99-20c44 1 53-31 53-75 0-43-8-75-51-75s-53 32-53 75 10 74 51 75" id="ak"/><path d="M206 0h-36l-40-164L89 0H53L-1-190h32L70-26l43-164h34l41 164 42-164h31" id="al"/><g id="g"><use transform="matrix(0.07407407407407407,0,0,0.07407407407407407,0,0)" xlink:href="#aj"/><use transform="matrix(0.07407407407407407,0,0,0.07407407407407407,16.22222222222222,0)" xlink:href="#ak"/><use transform="matrix(0.07407407407407407,0,0,0.07407407407407407,31.037037037037035,0)" xlink:href="#S"/><use transform="matrix(0.07407407407407407,0,0,0.07407407407407407,39.85185185185185,0)" xlink:href="#al"/><use transform="matrix(0.07407407407407407,0,0,0.07407407407407407,59.03703703703703,0)" xlink:href="#O"/><use transform="matrix(0.07407407407407407,0,0,0.07407407407407407,73.85185185185185,0)" xlink:href="#S"/><use transform="matrix(0.07407407407407407,0,0,0.07407407407407407,82.66666666666666,0)" xlink:href="#P"/></g><path d="M160-131c35 5 61 23 61 61C221 17 115-2 30 0v-248c76 3 177-17 177 60 0 33-19 50-47 57zm-97-11c50-1 110 9 110-42 0-47-63-36-110-37v79zm0 115c55-2 124 14 124-45 0-56-70-42-124-44v89" id="am"/><path d="M101-234c-31-9-42 10-38 44h38v23H63V0H32v-167H5v-23h27c-7-52 17-82 69-68v24" id="an"/><g id="h"><use transform="matrix(0.07407407407407407,0,0,0.07407407407407407,0,0)" xlink:href="#am"/><use transform="matrix(0.07407407407407407,0,0,0.07407407407407407,17.77777777777778,0)" xlink:href="#ab"/><use transform="matrix(0.07407407407407407,0,0,0.07407407407407407,32.592592592592595,0)" xlink:href="#an"/><use transform="matrix(0.07407407407407407,0,0,0.07407407407407407,39.48148148148148,0)" xlink:href="#an"/><use transform="matrix(0.07407407407407407,0,0,0.07407407407407407,46.888888888888886,0)" xlink:href="#N"/><use transform="matrix(0.07407407407407407,0,0,0.07407407407407407,61.703703703703695,0)" xlink:href="#S"/></g><path d="M24 0v-261h32V0H24" id="ao"/><g id="i"><use transform="matrix(0.09259259259259246,0,0,0.09259259259259246,0,0)" xlink:href="#aj"/><use transform="matrix(0.09259259259259246,0,0,0.09259259259259246,20.27777777777775,0)" xlink:href="#T"/><use transform="matrix(0.09259259259259246,0,0,0.09259259259259246,27.592592592592553,0)" xlink:href="#ao"/><use transform="matrix(0.09259259259259246,0,0,0.09259259259259246,34.907407407407355,0)" xlink:href="#U"/><use transform="matrix(0.09259259259259246,0,0,0.09259259259259246,44.1666666666666,0)" xlink:href="#N"/><use transform="matrix(0.09259259259259246,0,0,0.09259259259259246,62.685185185185084,0)" xlink:href="#S"/></g><path d="M30 0v-248h187v28H63v79h144v27H63v87h162V0H30" id="ap"/><path d="M177-190C167-65 218 103 67 71c-23-6-38-20-44-43l32-5c15 47 100 32 89-28v-30C133-14 115 1 83 1 29 1 15-40 15-95c0-56 16-97 71-98 29-1 48 16 59 35 1-10 0-23 2-32h30zM94-22c36 0 50-32 50-73 0-42-14-75-50-75-39 0-46 34-46 75s6 73 46 73" id="aq"/><g id="k"><use transform="matrix(0.0925925925925925,0,0,0.0925925925925925,0,0)" xlink:href="#ap"/><use transform="matrix(0.0925925925925925,0,0,0.0925925925925925,22.2222222222222,0)" xlink:href="#ac"/><use transform="matrix(0.0925925925925925,0,0,0.0925925925925925,40.740740740740705,0)" xlink:href="#aq"/><use transform="matrix(0.0925925925925925,0,0,0.0925925925925925,59.25925925925921,0)" xlink:href="#T"/><use transform="matrix(0.0925925925925925,0,0,0.0925925925925925,66.57407407407402,0)" xlink:href="#ac"/><use transform="matrix(0.0925925925925925,0,0,0.0925925925925925,85.09259259259252,0)" xlink:href="#N"/></g><path d="M30-248c87 1 191-15 191 75 0 78-77 80-158 76V0H30v-248zm33 125c57 0 124 11 124-50 0-59-68-47-124-48v98" id="ar"/><path d="M143 0L79-87 56-68V0H24v-261h32v163l83-92h37l-77 82L181 0h-38" id="as"/><path d="M135-143c-3-34-86-38-87 0 15 53 115 12 119 90S17 21 10-45l28-5c4 36 97 45 98 0-10-56-113-15-118-90-4-57 82-63 122-42 12 7 21 19 24 35" id="at"/><g id="l"><use transform="matrix(0.0925925925925925,0,0,0.0925925925925925,0,0)" xlink:href="#ar"/><use transform="matrix(0.0925925925925925,0,0,0.0925925925925925,22.2222222222222,0)" xlink:href="#O"/><use transform="matrix(0.0925925925925925,0,0,0.0925925925925925,40.740740740740705,0)" xlink:href="#ad"/><use transform="matrix(0.0925925925925925,0,0,0.0925925925925925,57.407407407407355,0)" xlink:href="#as"/><use transform="matrix(0.0925925925925925,0,0,0.0925925925925925,74.074074074074,0)" xlink:href="#N"/><use transform="matrix(0.0925925925925925,0,0,0.0925925925925925,92.59259259259251,0)" xlink:href="#U"/><use transform="matrix(0.0925925925925925,0,0,0.0925925925925925,101.85185185185175,0)" xlink:href="#at"/></g><path d="M115-194c55 1 70 41 70 98S169 2 115 4C84 4 66-9 55-30l1 105H24l-1-265h31l2 30c10-21 28-34 59-34zm-8 174c40 0 45-34 45-75s-6-73-45-74c-42 0-51 32-51 76 0 43 10 73 51 73" id="au"/><g id="m"><use transform="matrix(0.0925925925925925,0,0,0.0925925925925925,0,0)" xlink:href="#M"/><use transform="matrix(0.0925925925925925,0,0,0.0925925925925925,23.98148148148146,0)" xlink:href="#N"/><use transform="matrix(0.0925925925925925,0,0,0.0925925925925925,42.49999999999996,0)" xlink:href="#at"/><use transform="matrix(0.0925925925925925,0,0,0.0925925925925925,59.16666666666661,0)" xlink:href="#au"/><use transform="matrix(0.0925925925925925,0,0,0.0925925925925925,77.6851851851851,0)" xlink:href="#ak"/><use transform="matrix(0.0925925925925925,0,0,0.0925925925925925,96.20370370370361,0)" xlink:href="#ac"/><use transform="matrix(0.0925925925925925,0,0,0.0925925925925925,114.72222222222211,0)" xlink:href="#at"/><use transform="matrix(0.0925925925925925,0,0,0.0925925925925925,131.38888888888877,0)" xlink:href="#N"/><use transform="matrix(0.0925925925925925,0,0,0.0925925925925925,149.90740740740728,0)" xlink:href="#at"/></g><path d="M115-194c53 0 69 39 70 98 0 66-23 100-70 100C84 3 66-7 56-30L54 0H23l1-261h32v101c10-23 28-34 59-34zm-8 174c40 0 45-34 45-75 0-40-5-75-45-74-42 0-51 32-51 76 0 43 10 73 51 73" id="av"/><g id="n"><use transform="matrix(0.0925925925925925,0,0,0.0925925925925925,0,0)" xlink:href="#V"/><use transform="matrix(0.0925925925925925,0,0,0.0925925925925925,22.2222222222222,0)" xlink:href="#S"/><use transform="matrix(0.0925925925925925,0,0,0.0925925925925925,33.240740740740705,0)" xlink:href="#av"/><use transform="matrix(0.0925925925925925,0,0,0.0925925925925925,51.75925925925921,0)" xlink:href="#T"/><use transform="matrix(0.0925925925925925,0,0,0.0925925925925925,59.07407407407402,0)" xlink:href="#U"/><use transform="matrix(0.0925925925925925,0,0,0.0925925925925925,68.33333333333327,0)" xlink:href="#S"/><use transform="matrix(0.0925925925925925,0,0,0.0925925925925925,79.35185185185178,0)" xlink:href="#O"/><use transform="matrix(0.0925925925925925,0,0,0.0925925925925925,97.87037037037028,0)" xlink:href="#U"/><use transform="matrix(0.0925925925925925,0,0,0.0925925925925925,107.12962962962953,0)" xlink:href="#T"/><use transform="matrix(0.0925925925925925,0,0,0.0925925925925925,114.44444444444433,0)" xlink:href="#ak"/><use transform="matrix(0.0925925925925925,0,0,0.0925925925925925,132.96296296296285,0)" xlink:href="#ac"/></g><g id="p"><use transform="matrix(0.0925925925925925,0,0,0.0925925925925925,0,0)" xlink:href="#M"/><use transform="matrix(0.0925925925925925,0,0,0.0925925925925925,23.98148148148146,0)" xlink:href="#N"/><use transform="matrix(0.0925925925925925,0,0,0.0925925925925925,42.49999999999996,0)" xlink:href="#aa"/><use transform="matrix(0.0925925925925925,0,0,0.0925925925925925,61.01851851851846,0)" xlink:href="#ab"/><use transform="matrix(0.0925925925925925,0,0,0.0925925925925925,79.53703703703697,0)" xlink:href="#N"/><use transform="matrix(0.0925925925925925,0,0,0.0925925925925925,98.05555555555546,0)" xlink:href="#at"/><use transform="matrix(0.0925925925925925,0,0,0.0925925925925925,114.72222222222211,0)" xlink:href="#U"/><use transform="matrix(0.0925925925925925,0,0,0.0925925925925925,123.98148148148137,0)" xlink:href="#at"/></g><g id="q"><use transform="matrix(0.08641975308641964,0,0,0.08641975308641964,0,0)" xlink:href="#ae"/><use transform="matrix(0.08641975308641964,0,0,0.08641975308641964,17.283950617283928,0)" xlink:href="#af"/><use transform="matrix(0.08641975308641964,0,0,0.08641975308641964,25.925925925925892,0)" xlink:href="#ag"/></g><g id="r"><use transform="matrix(0.08641975308641964,0,0,0.08641975308641964,0,0)" xlink:href="#ah"/><use transform="matrix(0.08641975308641964,0,0,0.08641975308641964,17.283950617283928,0)" xlink:href="#af"/><use transform="matrix(0.08641975308641964,0,0,0.08641975308641964,25.925925925925892,0)" xlink:href="#ag"/></g><g id="s"><use transform="matrix(0.08641975308641964,0,0,0.08641975308641964,0,0)" xlink:href="#ai"/><use transform="matrix(0.08641975308641964,0,0,0.08641975308641964,17.283950617283928,0)" xlink:href="#af"/><use transform="matrix(0.08641975308641964,0,0,0.08641975308641964,25.925925925925892,0)" xlink:href="#ag"/></g><g id="t"><use transform="matrix(0.08641975308641964,0,0,0.08641975308641964,0,0)" xlink:href="#aj"/><use transform="matrix(0.08641975308641964,0,0,0.08641975308641964,18.9259259259259,0)" xlink:href="#T"/><use transform="matrix(0.08641975308641964,0,0,0.08641975308641964,25.753086419753053,0)" xlink:href="#ao"/><use transform="matrix(0.08641975308641964,0,0,0.08641975308641964,32.580246913580204,0)" xlink:href="#U"/><use transform="matrix(0.08641975308641964,0,0,0.08641975308641964,41.22222222222217,0)" xlink:href="#N"/><use transform="matrix(0.08641975308641964,0,0,0.08641975308641964,58.50617283950611,0)" xlink:href="#S"/></g><g id="v"><use transform="matrix(0.0987654320987654,0,0,0.0987654320987654,0,0)" xlink:href="#M"/><use transform="matrix(0.0987654320987654,0,0,0.0987654320987654,25.58024691358024,0)" xlink:href="#N"/><use transform="matrix(0.0987654320987654,0,0,0.0987654320987654,45.333333333333314,0)" xlink:href="#O"/><use transform="matrix(0.0987654320987654,0,0,0.0987654320987654,65.08641975308639,0)" xlink:href="#P"/><use transform="matrix(0.0987654320987654,0,0,0.0987654320987654,84.83950617283946,0)" xlink:href="#Q"/><use transform="matrix(0.0987654320987654,0,0,0.0987654320987654,94.71604938271601,0)" xlink:href="#R"/><use transform="matrix(0.0987654320987654,0,0,0.0987654320987654,127.50617283950614,0)" xlink:href="#S"/><use transform="matrix(0.0987654320987654,0,0,0.0987654320987654,139.2592592592592,0)" xlink:href="#T"/><use transform="matrix(0.0987654320987654,0,0,0.0987654320987654,147.06172839506166,0)" xlink:href="#U"/><use transform="matrix(0.0987654320987654,0,0,0.0987654320987654,156.9382716049382,0)" xlink:href="#N"/></g><path d="M240 0l2-218c-23 76-54 145-80 218h-23L58-218 59 0H30v-248h44l77 211c21-75 51-140 76-211h43V0h-30" id="aw"/><path d="M210-169c-67 3-38 105-44 169h-31v-121c0-29-5-50-35-48C34-165 62-65 56 0H25l-1-190h30c1 10-1 24 2 32 10-44 99-50 107 0 11-21 27-35 58-36 85-2 47 119 55 194h-31v-121c0-29-5-49-35-48" id="ax"/><path d="M179-190L93 31C79 59 56 82 12 73V49c39 6 53-20 64-50L1-190h34L92-34l54-156h33" id="ay"/><g id="w"><use transform="matrix(0.0987654320987654,0,0,0.0987654320987654,0,0)" xlink:href="#aw"/><use transform="matrix(0.0987654320987654,0,0,0.0987654320987654,29.530864197530853,0)" xlink:href="#N"/><use transform="matrix(0.0987654320987654,0,0,0.0987654320987654,49.283950617283935,0)" xlink:href="#ax"/><use transform="matrix(0.0987654320987654,0,0,0.0987654320987654,78.81481481481478,0)" xlink:href="#ak"/><use transform="matrix(0.0987654320987654,0,0,0.0987654320987654,98.56790123456786,0)" xlink:href="#S"/><use transform="matrix(0.0987654320987654,0,0,0.0987654320987654,110.32098765432093,0)" xlink:href="#ay"/></g><g id="x"><use transform="matrix(0.0987654320987654,0,0,0.0987654320987654,0,0)" xlink:href="#M"/><use transform="matrix(0.0987654320987654,0,0,0.0987654320987654,25.58024691358024,0)" xlink:href="#N"/><use transform="matrix(0.0987654320987654,0,0,0.0987654320987654,45.333333333333314,0)" xlink:href="#aa"/><use transform="matrix(0.0987654320987654,0,0,0.0987654320987654,65.08641975308639,0)" xlink:href="#ab"/><use transform="matrix(0.0987654320987654,0,0,0.0987654320987654,84.83950617283946,0)" xlink:href="#N"/><use transform="matrix(0.0987654320987654,0,0,0.0987654320987654,104.59259259259254,0)" xlink:href="#at"/><use transform="matrix(0.0987654320987654,0,0,0.0987654320987654,122.37037037037031,0)" xlink:href="#U"/><use transform="matrix(0.0987654320987654,0,0,0.0987654320987654,132.24691358024685,0)" xlink:href="#at"/><use transform="matrix(0.0987654320987654,0,0,0.0987654320987654,150.02469135802463,0)" xlink:href="#Q"/><use transform="matrix(0.0987654320987654,0,0,0.0987654320987654,159.90123456790116,0)" xlink:href="#M"/><use transform="matrix(0.0987654320987654,0,0,0.0987654320987654,185.4814814814814,0)" xlink:href="#N"/><use transform="matrix(0.0987654320987654,0,0,0.0987654320987654,205.2345679012345,0)" xlink:href="#at"/><use transform="matrix(0.0987654320987654,0,0,0.0987654320987654,223.01234567901227,0)" xlink:href="#au"/><use transform="matrix(0.0987654320987654,0,0,0.0987654320987654,242.76543209876536,0)" xlink:href="#ak"/><use transform="matrix(0.0987654320987654,0,0,0.0987654320987654,262.5185185185184,0)" xlink:href="#ac"/><use transform="matrix(0.0987654320987654,0,0,0.0987654320987654,282.2716049382715,0)" xlink:href="#at"/><use transform="matrix(0.0987654320987654,0,0,0.0987654320987654,300.04938271604925,0)" xlink:href="#N"/><use transform="matrix(0.0987654320987654,0,0,0.0987654320987654,319.8024691358023,0)" xlink:href="#at"/></g><g id="y"><use transform="matrix(0.0987654320987654,0,0,0.0987654320987654,0,0)" xlink:href="#V"/><use transform="matrix(0.0987654320987654,0,0,0.0987654320987654,23.703703703703695,0)" xlink:href="#S"/><use transform="matrix(0.0987654320987654,0,0,0.0987654320987654,35.45679012345678,0)" xlink:href="#av"/><use transform="matrix(0.0987654320987654,0,0,0.0987654320987654,55.20987654320986,0)" xlink:href="#T"/><use transform="matrix(0.0987654320987654,0,0,0.0987654320987654,63.01234567901233,0)" xlink:href="#U"/><use transform="matrix(0.0987654320987654,0,0,0.0987654320987654,72.88888888888887,0)" xlink:href="#S"/><use transform="matrix(0.0987654320987654,0,0,0.0987654320987654,84.64197530864195,0)" xlink:href="#O"/><use transform="matrix(0.0987654320987654,0,0,0.0987654320987654,104.39506172839502,0)" xlink:href="#U"/><use transform="matrix(0.0987654320987654,0,0,0.0987654320987654,114.27160493827157,0)" xlink:href="#T"/><use transform="matrix(0.0987654320987654,0,0,0.0987654320987654,122.07407407407403,0)" xlink:href="#ak"/><use transform="matrix(0.0987654320987654,0,0,0.0987654320987654,141.8271604938271,0)" xlink:href="#ac"/></g><path fill="#ba23f6" d="M205 0l-28-72H64L36 0H1l101-248h38L239 0h-34zm-38-99l-47-123c-12 45-31 82-46 123h93" id="az"/><use transform="matrix(0.14814814814814817,0,0,0.14814814814814817,0,0)" xlink:href="#az" id="z"/><path fill="#c92d39" d="M160-131c35 5 61 23 61 61C221 17 115-2 30 0v-248c76 3 177-17 177 60 0 33-19 50-47 57zm-97-11c50-1 110 9 110-42 0-47-63-36-110-37v79zm0 115c55-2 124 14 124-45 0-56-70-42-124-44v89" id="aA"/><use transform="matrix(0.14814814814814817,0,0,0.14814814814814817,0,0)" xlink:href="#aA" id="A"/><path fill="#19967d" d="M30-248c118-7 216 8 213 122C240-48 200 0 122 0H30v-248zM63-27c89 8 146-16 146-99s-60-101-146-95v194" id="aB"/><use transform="matrix(0.14814814814814817,0,0,0.14814814814814817,0,0)" xlink:href="#aB" id="B"/><path fill="#fcc438" d="M212-179c-10-28-35-45-73-45-59 0-87 40-87 99 0 60 29 101 89 101 43 0 62-24 78-52l27 14C228-24 195 4 139 4 59 4 22-46 18-125c-6-104 99-153 187-111 19 9 31 26 39 46" id="aC"/><use transform="matrix(0.14814814814814817,0,0,0.14814814814814817,0,0)" xlink:href="#aC" id="C"/><path fill="#0c7cba" d="M30 0v-248h187v28H63v79h144v27H63v87h162V0H30" id="aD"/><use transform="matrix(0.14814814814814817,0,0,0.14814814814814817,0,0)" xlink:href="#aD" id="D"/><path fill="#de5f85" d="M63-220v92h138v28H63V0H30v-248h175v28H63" id="aE"/><use transform="matrix(0.14814814814814817,0,0,0.14814814814814817,0,0)" xlink:href="#aE" id="E"/><path fill="#ba23f6" d="M143 4C61 4 22-44 18-125c-5-107 100-154 193-111 17 8 29 25 37 43l-32 9c-13-25-37-40-76-40-61 0-88 39-88 99 0 61 29 100 91 101 35 0 62-11 79-27v-45h-74v-28h105v86C228-13 192 4 143 4" id="aF"/><use transform="matrix(0.14814814814814817,0,0,0.14814814814814817,0,0)" xlink:href="#aF" id="F"/><path fill="#c92d39" d="M197 0v-115H63V0H30v-248h33v105h134v-105h34V0h-34" id="aG"/><use transform="matrix(0.14814814814814817,0,0,0.14814814814814817,0,0)" xlink:href="#aG" id="G"/><path fill="#fcc438" d="M33 0v-248h34V0H33" id="aH"/><use transform="matrix(0.14814814814814817,0,0,0.14814814814814817,0,0)" xlink:href="#aH" id="H"/><path fill="#19967d" d="M153-248C145-148 188 4 80 4 36 3 13-21 6-62l32-5c4 25 16 42 43 43 27 0 39-20 39-49v-147H72v-28h81" id="aI"/><use transform="matrix(0.14814814814814817,0,0,0.14814814814814817,0,0)" xlink:href="#aI" id="I"/><path fill="#0c7cba" d="M194 0L95-120 63-95V0H30v-248h33v124l119-124h40L117-140 236 0h-42" id="aJ"/><use transform="matrix(0.14814814814814817,0,0,0.14814814814814817,0,0)" xlink:href="#aJ" id="J"/><path fill="#de5f85" d="M30 0v-248h33v221h125V0H30" id="aK"/><use transform="matrix(0.14814814814814817,0,0,0.14814814814814817,0,0)" xlink:href="#aK" id="K"/><path d="M143 4C61 4 22-44 18-125c-5-107 100-154 193-111 17 8 29 25 37 43l-32 9c-13-25-37-40-76-40-61 0-88 39-88 99 0 61 29 100 91 101 35 0 62-11 79-27v-45h-74v-28h105v86C228-13 192 4 143 4" id="aL"/><path d="M106-169C34-169 62-67 57 0H25v-261h32l-1 103c12-21 28-36 61-36 89 0 53 116 60 194h-32v-121c2-32-8-49-39-48" id="aM"/><path d="M141 0L90-78 38 0H4l68-98-65-92h35l48 74 47-74h35l-64 92 68 98h-35" id="aN"/><path d="M33 0v-38h34V0H33" id="aO"/><g id="L"><use transform="matrix(0.27160493827160487,0,0,0.27160493827160487,0,0)" xlink:href="#aL"/><use transform="matrix(0.27160493827160487,0,0,0.27160493827160487,76.04938271604937,0)" xlink:href="#S"/><use transform="matrix(0.27160493827160487,0,0,0.27160493827160487,108.37037037037035,0)" xlink:href="#O"/><use transform="matrix(0.27160493827160487,0,0,0.27160493827160487,162.69135802469134,0)" xlink:href="#au"/><use transform="matrix(0.27160493827160487,0,0,0.27160493827160487,217.0123456790123,0)" xlink:href="#aM"/><use transform="matrix(0.27160493827160487,0,0,0.27160493827160487,271.33333333333326,0)" xlink:href="#am"/><use transform="matrix(0.27160493827160487,0,0,0.27160493827160487,336.5185185185184,0)" xlink:href="#ao"/><use transform="matrix(0.27160493827160487,0,0,0.27160493827160487,357.9753086419752,0)" xlink:href="#ak"/><use transform="matrix(0.27160493827160487,0,0,0.27160493827160487,412.29629629629613,0)" xlink:href="#aN"/><use transform="matrix(0.27160493827160487,0,0,0.27160493827160487,461.185185185185,0)" xlink:href="#aO"/><use transform="matrix(0.27160493827160487,0,0,0.27160493827160487,488.3456790123455,0)" xlink:href="#aj"/><use transform="matrix(0.27160493827160487,0,0,0.27160493827160487,547.827160493827,0)" xlink:href="#ab"/><use transform="matrix(0.27160493827160487,0,0,0.27160493827160487,602.148148148148,0)" xlink:href="#ao"/><use transform="matrix(0.27160493827160487,0,0,0.27160493827160487,623.6049382716049,0)" xlink:href="#ao"/></g></defs></g></svg>