<svg xmlns="http://www.w3.org/2000/svg" xmlns:xlink="http://www.w3.org/1999/xlink" xmlns:lucid="lucid" width="1421" height="1753"><g transform="translate(-768 -1641)" lucid:page-tab-id="LyvOqOvMj.Dx"><path d="M720 1645a5 5 0 0 1 5-5h1530a5 5 0 0 1 5 5v146.7a5 5 0 0 1-5 5H725a5 5 0 0 1-5-5z" stroke="#000" stroke-opacity="0" stroke-width="2" fill="#fff" fill-opacity="0"/><use xlink:href="#a" transform="matrix(1,0,0,1,725,1645) translate(193.0246913580262 89.48611111111093)"/><use xlink:href="#b" transform="matrix(1,0,0,1,725,1645) translate(848.3333333333331 89.48611111111093)"/><path d="M802.87 1922.05a5 5 0 0 1 5-5h1348.67a5 5 0 0 1 5 5V3277.2a5 5 0 0 1-5 5H807.87a5 5 0 0 1-5-5z" stroke="#979ea8" stroke-width="2" fill="#f7f4e4"/><path d="M832.87 2101.33a5 5 0 0 1 5-5h462.08a5 5 0 0 1 5 5v60.73a5 5 0 0 1-5 5H837.88a5 5 0 0 1-5-5zM832.87 2183.32a5 5 0 0 1 5-5h462.08a5 5 0 0 1 5 5v60.74a5 5 0 0 1-5 5H837.88a5 5 0 0 1-5-5zM832.87 2019.33a5 5 0 0 1 5-5h462.08a5 5 0 0 1 5 5v60.74a5 5 0 0 1-5 5H837.88a5 5 0 0 1-5-5zM832.87 1937.34a5 5 0 0 1 5-5h462.08a5 5 0 0 1 5 5v60.73a5 5 0 0 1-5 5H837.88a5 5 0 0 1-5-5zM832.87 2265.32a5 5 0 0 1 5-5h462.08a5 5 0 0 1 5 5v60.73a5 5 0 0 1-5 5H837.88a5 5 0 0 1-5-5zM832.87 2347.3a5 5 0 0 1 5-5h462.08a5 5 0 0 1 5 5v60.75a5 5 0 0 1-5 5H837.88a5 5 0 0 1-5-5z" stroke="#1071e5" stroke-width="2" fill="#edf5ff"/><path d="M1299.96 2424.3a5 5 0 0 1 5 5v81.34a5 5 0 0 1-5 5h-462.1a5 5 0 0 1-5-5v-81.33a5 5 0 0 1 5-5z" stroke="#000" stroke-opacity="0" stroke-width="2" fill="#ffdda6"/><path d="M1318.14 1937.34a5 5 0 0 1 5-5h81.33a5 5 0 0 1 5 5v470.7a5 5 0 0 1-5 5h-81.33a5 5 0 0 1-5-5z" stroke="#000" stroke-opacity="0" stroke-width="2" fill="#fff3d9"/><path d="M824.53 2949.86a5 5 0 0 1 5-5h462.1a5 5 0 0 1 4.98 5l.02 60.73a5 5 0 0 1-5 5H829.5a5 5 0 0 1-5-5zM824.53 3031.85a5 5 0 0 1 5-5h462.1a5 5 0 0 1 4.98 5l.02 60.74a5 5 0 0 1-5 5H829.5a5 5 0 0 1-5-5zM824.53 2867.86a5 5 0 0 1 5-5h462.1a5 5 0 0 1 4.98 5l.02 60.74a5 5 0 0 1-5 5H829.5a5 5 0 0 1-5-5zM824.53 2785.86a5 5 0 0 1 5-5h462.1a5 5 0 0 1 4.98 5l.02 60.74a5 5 0 0 1-5 5H829.5a5 5 0 0 1-5-5zM824.53 3113.85a5 5 0 0 1 5-5h462.1a5 5 0 0 1 4.98 5l.02 60.73a5 5 0 0 1-5 5H829.5a5 5 0 0 1-5-5zM824.53 3195.84a5 5 0 0 1 5-5h462.1a5 5 0 0 1 4.98 5l.02 60.74a5 5 0 0 1-5 5H829.5a5 5 0 0 1-5-5z" stroke="#1071e5" stroke-width="2" fill="#edf5ff"/><path d="M1294.33 2678.27a5 5 0 0 1 5 5v81.34a5 5 0 0 1-5 5H830.3a5 5 0 0 1-5-5v-81.33a5 5 0 0 1 5-5z" stroke="#000" stroke-opacity="0" stroke-width="2" fill="#ffdda6"/><path d="M1309.8 2785.86a5 5 0 0 1 5-5h81.34a5 5 0 0 1 5 5v470.72a5 5 0 0 1-5 5h-81.34a5 5 0 0 1-5-5z" stroke="#000" stroke-opacity="0" stroke-width="2" fill="#fff3d9"/><path d="M1673.85 2101.33a5 5 0 0 1 5-5h462.1a5 5 0 0 1 5 5v60.73a5 5 0 0 1-5 5h-462.1a5 5 0 0 1-5-5zM1673.85 2183.32a5 5 0 0 1 5-5h462.1a5 5 0 0 1 5 5v60.74a5 5 0 0 1-5 5h-462.1a5 5 0 0 1-5-5zM1673.85 2019.33a5 5 0 0 1 5-5h462.1a5 5 0 0 1 5 5v60.74a5 5 0 0 1-5 5h-462.1a5 5 0 0 1-5-5zM1673.85 1937.34a5 5 0 0 1 5-5h462.1a5 5 0 0 1 5 5v60.73a5 5 0 0 1-5 5h-462.1a5 5 0 0 1-5-5zM1673.85 2265.32a5 5 0 0 1 5-5h462.1a5 5 0 0 1 5 5v60.73a5 5 0 0 1-5 5h-462.1a5 5 0 0 1-5-5zM1673.85 2347.3a5 5 0 0 1 5-5h462.1a5 5 0 0 1 5 5v60.75a5 5 0 0 1-5 5h-462.1a5 5 0 0 1-5-5z" stroke="#1071e5" stroke-width="2" fill="#edf5ff"/><path d="M1569.33 1937.34a5 5 0 0 1 5-5h81.33a5 5 0 0 1 5 5v470.7a5 5 0 0 1-5 5h-81.33a5 5 0 0 1-5-5z" stroke="#000" stroke-opacity="0" stroke-width="2" fill="#fff3d9"/><path d="M2138.54 2424.3a5 5 0 0 1 5 5v81.34a5 5 0 0 1-5 5h-459.7a5 5 0 0 1-5-5v-81.33a5 5 0 0 1 5-5z" stroke="#000" stroke-opacity="0" stroke-width="2" fill="#ffdda6"/><path d="M1666.46 2949.86a5 5 0 0 1 5-5h462.1a5 5 0 0 1 5 5v60.73a5 5 0 0 1-5 5h-462.1a5 5 0 0 1-5-5zM1666.46 3031.85a5 5 0 0 1 5-5h462.1a5 5 0 0 1 5 5v60.74a5 5 0 0 1-5 5h-462.1a5 5 0 0 1-5-5zM1666.46 2867.86a5 5 0 0 1 5-5h462.1a5 5 0 0 1 5 5v60.74a5 5 0 0 1-5 5h-462.1a5 5 0 0 1-5-5zM1666.46 2785.86a5 5 0 0 1 5-5h462.1a5 5 0 0 1 5 5v60.74a5 5 0 0 1-5 5h-462.1a5 5 0 0 1-5-5zM1666.46 3113.85a5 5 0 0 1 5-5h462.1a5 5 0 0 1 5 5v60.73a5 5 0 0 1-5 5h-462.1a5 5 0 0 1-5-5zM1666.46 3195.84a5 5 0 0 1 5-5h462.1a5 5 0 0 1 5 5v60.74a5 5 0 0 1-5 5h-462.1a5 5 0 0 1-5-5z" stroke="#1071e5" stroke-width="2" fill="#edf5ff"/><path d="M2133.55 2678.27a5 5 0 0 1 5 5v81.33a5 5 0 0 1-5 5h-461.88a5 5 0 0 1-5-5v-81.33a5 5 0 0 1 5-5z" stroke="#000" stroke-opacity="0" stroke-width="2" fill="#ffdda6"/><path d="M1569.33 2785.86a5 5 0 0 1 5-5h81.33a5 5 0 0 1 5 5v470.72a5 5 0 0 1-5 5h-81.33a5 5 0 0 1-5-5z" stroke="#000" stroke-opacity="0" stroke-width="2" fill="#fff3d9"/><path d="M2161.54 2599.63h-3m-4 0h-6m-4 0h-5.98m-4 0h-6m-4 0h-5.98m-4 0h-6m-4 0h-5.98m-4 0h-6m-4 0h-5.98m-4 0h-6m-4 0h-5.98m-4 0h-6m-4 0h-5.98m-4 0h-6m-4 0h-5.98m-4 0h-6m-4 0h-5.98m-4 0h-6m-4 0h-5.98m-4 0h-6m-4 0h-5.98m-4 0h-6m-4 0h-5.98m-4 0h-6m-4 0h-5.98m-4 0h-6m-4 0h-5.98m-4 0h-6m-4 0h-6m-3.98 0h-6m-4 0h-6m-3.98 0h-6m-4 0h-6m-3.98 0h-6m-4 0h-6m-3.98 0h-6m-4 0h-6m-3.98 0h-6m-4 0h-6m-3.98 0h-6m-4 0h-6m-3.98 0h-6m-4 0h-6m-3.98 0h-6m-4 0h-6m-4 0H1709m-4 0h-6m-4 0H1689m-4 0h-6m-4 0h-5.98m-4 0h-6m-4 0h-5.98m-4 0h-6m-4 0h-5.98m-4 0h-6m-4 0h-5.98m-4 0h-6m-4 0h-5.98m-4 0h-6m-4 0h-5.98m-4 0h-6m-4 0h-5.98m-4 0h-6m-4 0h-5.98m-4 0h-6m-4 0h-5.98m-4 0h-6m-4 0h-5.98m-4 0h-6m-4 0h-5.98m-4 0h-6m-4 0h-5.98m-4 0h-6m-4 0h-5.98m-4 0h-6m-4 0h-5.98m-4 0h-6m-4 0h-5.98m-4 0h-6m-4 0h-6m-3.98 0h-6m-4 0h-6m-3.98 0h-6m-4 0h-6m-3.98 0h-6m-4 0h-6m-3.98 0h-6m-4 0h-6m-3.98 0h-6m-4 0h-6m-3.98 0h-6m-4 0h-6m-3.98 0h-6m-4 0h-6m-3.98 0h-6m-4 0h-6m-4 0h-5.98m-4 0h-6m-4 0h-5.98m-4 0h-6m-4 0h-5.98m-4 0h-6m-4 0h-5.98m-4 0h-6m-4 0h-5.98m-4 0h-6m-4 0h-5.98m-4 0h-6m-4 0h-5.98m-4 0h-6m-4 0h-5.98m-4 0h-6m-4 0h-5.98m-4 0h-6m-4 0h-5.98m-4 0h-6m-4 0h-5.98m-4 0h-6m-4 0h-5.98m-4 0h-6m-4 0h-5.98m-4 0h-6m-4 0h-5.98m-4 0h-6m-4 0h-5.98m-4 0h-6m-4 0h-6m-3.98 0h-6m-4 0h-6m-3.98 0h-6m-4 0h-6m-3.98 0h-6m-4 0h-6m-3.98 0h-6m-4 0h-6m-3.98 0h-6m-4 0h-3" stroke="#979ea8" stroke-width="2" fill="none"/><path d="M2162.54 2600.6h-1.03v-1.95h1.04zM802.9 2600.6h-1.03v-1.95h1.03z" stroke="#979ea8" stroke-width=".05" fill="#979ea8"/><path d="M1482.2 3282.2v-2.98m0-3.98v-5.98m0-4v-5.97m0-4v-5.97m0-4v-5.97m0-3.98v-5.98m0-4v-5.97m0-3.98v-5.98m0-4v-5.96m0-3.98v-5.98m0-4v-5.96m0-4v-5.97m0-3.97v-5.98m0-4v-5.97m0-3.98v-5.98m0-4v-5.97m0-3.98v-5.98m0-4v-5.98m0-3.98v-5.98m0-4v-5.97m0-4v-5.97m0-4v-5.97m0-3.98V3060m0-4v-5.97m0-3.98v-5.98m0-4v-5.97m0-3.98v-5.98m0-3.98v-5.98m0-4v-5.97m0-3.97v-5.98m0-4v-5.97m0-3.98v-5.98m0-4v-5.97m0-3.98v-5.98m0-4v-5.98m0-3.98v-5.98m0-4v-5.97m0-4v-5.97m0-4v-5.97m0-3.98v-5.98m0-4v-5.97m0-3.98v-5.98m0-4v-5.97m0-3.98v-5.98m0-4v-5.96m0-4v-5.97m0-3.98v-5.97m0-4v-5.97m0-4v-5.96m0-4v-5.97m0-3.98V2781m0-4v-5.98m0-3.98v-5.98m0-4v-5.97m0-4v-5.97m0-4v-5.97m0-3.98v-5.98m0-4v-5.97m0-3.98v-5.98m0-4v-5.97m0-3.98v-5.98m0-4v-5.97m0-3.98v-6m0-3.97v-5.98m0-4v-5.97m0-4v-5.96m0-4v-5.97m0-3.98v-5.98m0-4v-5.98m0-3.98v-5.98m0-4v-5.97m0-4v-5.97m0-4v-5.97m0-3.98v-5.98m0-4v-5.97m0-3.98v-5.98m0-4v-5.97m0-3.98v-5.98m0-4v-5.97m0-3.98v-6m0-3.98v-5.97m0-4v-5.97m0-4v-5.96m0-4v-5.97m0-3.98v-5.98m0-4v-5.98m0-3.98v-5.98m0-4v-5.97m0-4v-5.97m0-4v-5.97m0-3.98v-5.98m0-4v-5.97m0-3.98v-5.98m0-4v-5.97m0-3.98v-5.98m0-4v-5.97m0-3.98v-6m0-3.98v-5.97m0-4v-5.97m0-3.98v-5.98m0-4v-5.97m0-4v-5.96m0-4v-5.98m0-3.98v-5.98m0-4v-5.97m0-4v-5.97m0-4v-5.97m0-3.98V2213m0-4v-5.97m0-3.98v-5.98m0-4v-5.97m0-3.98v-5.98m0-4v-5.96m0-4v-5.97m0-3.98v-5.97m0-4v-5.97m0-4v-5.96m0-4v-5.97m0-4v-5.96m0-4v-5.98m0-3.98v-5.98m0-4v-5.97m0-4v-5.97m0-4v-5.97m0-3.98v-5.98m0-4v-5.97m0-3.98v-5.98m0-4v-5.97m0-3.98v-5.98m0-4v-5.97m0-3.98v-6m0-3.98v-5.97m0-4v-5.97m0-4v-5.97m0-3.97v-5.98m0-4V1934m0-4v-5.98m0-3.98v-3" stroke="#979ea8" stroke-width="2" fill="none"/><path d="M1483.18 3283.2h-1.95v-1h1.95zM1483.18 1917.07h-1.95v-1.02h1.95z" stroke="#979ea8" stroke-width=".05" fill="#979ea8"/><path d="M1333.37 2485.36a5 5 0 0 1 5-5h285.2a5 5 0 0 1 5 5V2695a5 5 0 0 1-5 5h-285.2a5 5 0 0 1-5-5z" stroke="#979ea8" stroke-width="2" fill="#c1e4f7"/><use xlink:href="#c" transform="matrix(1,0,0,1,1338.365671618139,2485.35683750583) translate(1.0123456790124123 73.8888888888889)"/><use xlink:href="#d" transform="matrix(1,0,0,1,1338.365671618139,2485.35683750583) translate(9.654320987654383 73.8888888888889)"/><use xlink:href="#e" transform="matrix(1,0,0,1,1338.365671618139,2485.35683750583) translate(172.90123456790124 73.8888888888889)"/><use xlink:href="#f" transform="matrix(1,0,0,1,1338.365671618139,2485.35683750583) translate(-4.691358024691311 111.22222222222223)"/><use xlink:href="#g" transform="matrix(1,0,0,1,1338.365671618139,2485.35683750583) translate(72.30864197530867 148.55555555555554)"/><path d="M844.54 1969.57h525.9M844.67 1969.57h-5.13M1352.5 1979.76l17.22-10.2-17.2-10.17" stroke="#e81313" stroke-width="10" fill="none"/><path d="M844.54 2049.57h525.9M844.67 2049.57h-5.13M1352.5 2059.76l17.22-10.2-17.2-10.17" stroke="#008573" stroke-width="10" fill="none"/><path d="M844.54 2129.57h525.9M844.67 2129.57h-5.13M1352.5 2139.76l17.22-10.2-17.2-10.17" stroke="#e81313" stroke-width="10" fill="none"/><path d="M844.54 2209.57h525.9M844.67 2209.57h-5.13M1352.5 2219.76l17.22-10.2-17.2-10.17" stroke="#008573" stroke-width="10" fill="none"/><path d="M844.54 2289.57h525.9M844.67 2289.57h-5.13M1352.5 2299.76l17.22-10.2-17.2-10.17" stroke="#e81313" stroke-width="10" fill="none"/><path d="M844.54 2369.57h525.9M844.67 2369.57h-5.13M1352.5 2379.76l17.22-10.2-17.2-10.17" stroke="#008573" stroke-width="10" fill="none"/><path d="M839.54 2364.57v-390M839.54 2364.45v5.12M839.54 1974.7v-5.13" stroke="#980000" stroke-width="10" fill="none"/><path d="M1384.55 2364.57c0 2.77-2.24 5-5 5-2.77 0-5-2.23-5-5 0-2.76 2.23-5 5-5 2.76 0 5 2.24 5 5zm0-19.5c0 2.77-2.24 5-5 5-2.77 0-5-2.23-5-5 0-2.76 2.23-5 5-5 2.76 0 5 2.24 5 5zm0-19.5c0 2.77-2.24 5-5 5-2.77 0-5-2.23-5-5 0-2.76 2.23-5 5-5 2.76 0 5 2.24 5 5zm0-19.5c0 2.77-2.24 5-5 5-2.77 0-5-2.23-5-5 0-2.76 2.23-5 5-5 2.76 0 5 2.24 5 5zm0-19.5c0 2.77-2.24 5-5 5-2.77 0-5-2.23-5-5 0-2.76 2.23-5 5-5 2.76 0 5 2.24 5 5zm0-19.5c0 2.77-2.24 5-5 5-2.77 0-5-2.23-5-5 0-2.76 2.23-5 5-5 2.76 0 5 2.24 5 5zm0-19.5c0 2.77-2.24 5-5 5-2.77 0-5-2.23-5-5 0-2.76 2.23-5 5-5 2.76 0 5 2.24 5 5zm0-19.5c0 2.77-2.24 5-5 5-2.77 0-5-2.23-5-5 0-2.76 2.23-5 5-5 2.76 0 5 2.24 5 5zm0-19.5c0 2.77-2.24 5-5 5-2.77 0-5-2.23-5-5 0-2.76 2.23-5 5-5 2.76 0 5 2.24 5 5zm0-19.5c0 2.77-2.24 5-5 5-2.77 0-5-2.23-5-5 0-2.76 2.23-5 5-5 2.76 0 5 2.24 5 5zm0-19.5c0 2.77-2.24 5-5 5-2.77 0-5-2.23-5-5 0-2.76 2.23-5 5-5 2.76 0 5 2.24 5 5zm0-19.5c0 2.77-2.24 5-5 5-2.77 0-5-2.23-5-5 0-2.76 2.23-5 5-5 2.76 0 5 2.24 5 5zm0-19.5c0 2.77-2.24 5-5 5-2.77 0-5-2.23-5-5 0-2.76 2.23-5 5-5 2.76 0 5 2.24 5 5zm0-19.5c0 2.77-2.24 5-5 5-2.77 0-5-2.23-5-5 0-2.76 2.23-5 5-5 2.76 0 5 2.24 5 5zm0-19.5c0 2.77-2.24 5-5 5-2.77 0-5-2.23-5-5 0-2.76 2.23-5 5-5 2.76 0 5 2.24 5 5zm0-19.5c0 2.77-2.24 5-5 5-2.77 0-5-2.23-5-5 0-2.76 2.23-5 5-5 2.76 0 5 2.24 5 5zm0-19.5c0 2.77-2.24 5-5 5-2.77 0-5-2.23-5-5 0-2.76 2.23-5 5-5 2.76 0 5 2.24 5 5zm0-19.5c0 2.77-2.24 5-5 5-2.77 0-5-2.23-5-5 0-2.76 2.23-5 5-5 2.76 0 5 2.24 5 5zm0-19.5c0 2.77-2.24 5-5 5-2.77 0-5-2.23-5-5 0-2.76 2.23-5 5-5 2.76 0 5 2.24 5 5zm0-19.5c0 2.77-2.24 5-5 5-2.77 0-5-2.23-5-5 0-2.76 2.23-5 5-5 2.76 0 5 2.24 5 5z" fill="#980000"/><path d="M1379.55 2364.45v5.12M1379.55 1974.7v-5.13M1406.82 2159.57h66.73a16 16 0 0 1 16 16v276.27" stroke="#980000" stroke-width="10" fill="none"/><path d="M1406.82 2179.57h62.73v272.27M1406.58 2159.4l-17.2 10.17 17.2 10.18" stroke="#980000" stroke-width="10" fill="none"/><path d="M1479.55 2478.36l-12.73-21.52h25.45z" stroke="#980000" stroke-width="10" fill="#fff"/><path d="M1602.15 1970.02h525.9M1620.1 1959.84l-17.22 10.18 17.2 10.18M2127.93 1970.02h5.13" stroke="#e81313" stroke-width="10" fill="none"/><path d="M1602.15 2050.02h525.9M1620.1 2039.84l-17.22 10.18 17.2 10.18M2127.93 2050.02h5.13" stroke="#008573" stroke-width="10" fill="none"/><path d="M1602.15 2130.02h525.9M1620.1 2119.84l-17.22 10.18 17.2 10.18M2127.93 2130.02h5.13" stroke="#e81313" stroke-width="10" fill="none"/><path d="M1602.15 2210.02h525.9M1620.1 2199.84l-17.22 10.18 17.2 10.18M2127.93 2210.02h5.13" stroke="#008573" stroke-width="10" fill="none"/><path d="M1602.15 2290.02h525.9M1620.1 2279.84l-17.22 10.18 17.2 10.18M2127.93 2290.02h5.13" stroke="#e81313" stroke-width="10" fill="none"/><path d="M1602.15 2370.02h525.9M1620.1 2359.84l-17.22 10.18 17.2 10.18M2127.93 2370.02h5.13" stroke="#008573" stroke-width="10" fill="none"/><path d="M1598.06 2365.02c0 2.76-2.24 5-5 5-2.77 0-5-2.24-5-5s2.23-5 5-5c2.76 0 5 2.24 5 5zm0-19.5c0 2.76-2.24 5-5 5-2.77 0-5-2.24-5-5s2.23-5 5-5c2.76 0 5 2.24 5 5zm0-19.5c0 2.76-2.24 5-5 5-2.77 0-5-2.24-5-5s2.23-5 5-5c2.76 0 5 2.24 5 5zm0-19.5c0 2.76-2.24 5-5 5-2.77 0-5-2.24-5-5s2.23-5 5-5c2.76 0 5 2.24 5 5zm0-19.5c0 2.76-2.24 5-5 5-2.77 0-5-2.24-5-5s2.23-5 5-5c2.76 0 5 2.24 5 5zm0-19.5c0 2.76-2.24 5-5 5-2.77 0-5-2.24-5-5s2.23-5 5-5c2.76 0 5 2.24 5 5zm0-19.5c0 2.76-2.24 5-5 5-2.77 0-5-2.24-5-5s2.23-5 5-5c2.76 0 5 2.24 5 5zm0-19.5c0 2.76-2.24 5-5 5-2.77 0-5-2.24-5-5s2.23-5 5-5c2.76 0 5 2.24 5 5zm0-19.5c0 2.76-2.24 5-5 5-2.77 0-5-2.24-5-5s2.23-5 5-5c2.76 0 5 2.24 5 5zm0-19.5c0 2.76-2.24 5-5 5-2.77 0-5-2.24-5-5s2.23-5 5-5c2.76 0 5 2.24 5 5zm0-19.5c0 2.76-2.24 5-5 5-2.77 0-5-2.24-5-5s2.23-5 5-5c2.76 0 5 2.24 5 5zm0-19.5c0 2.76-2.24 5-5 5-2.77 0-5-2.24-5-5s2.23-5 5-5c2.76 0 5 2.24 5 5zm0-19.5c0 2.76-2.24 5-5 5-2.77 0-5-2.24-5-5s2.23-5 5-5c2.76 0 5 2.24 5 5zm0-19.5c0 2.76-2.24 5-5 5-2.77 0-5-2.24-5-5s2.23-5 5-5c2.76 0 5 2.24 5 5zm0-19.5c0 2.76-2.24 5-5 5-2.77 0-5-2.24-5-5s2.23-5 5-5c2.76 0 5 2.24 5 5zm0-19.5c0 2.76-2.24 5-5 5-2.77 0-5-2.24-5-5s2.23-5 5-5c2.76 0 5 2.24 5 5zm0-19.5c0 2.76-2.24 5-5 5-2.77 0-5-2.24-5-5s2.23-5 5-5c2.76 0 5 2.24 5 5zm0-19.5c0 2.76-2.24 5-5 5-2.77 0-5-2.24-5-5s2.23-5 5-5c2.76 0 5 2.24 5 5zm0-19.5c0 2.76-2.24 5-5 5-2.77 0-5-2.24-5-5s2.23-5 5-5c2.76 0 5 2.24 5 5zm0-19.5c0 2.76-2.24 5-5 5-2.77 0-5-2.24-5-5s2.23-5 5-5c2.76 0 5 2.24 5 5zm0-19.5c0 2.76-2.24 5-5 5-2.77 0-5-2.24-5-5s2.23-5 5-5c2.76 0 5 2.24 5 5z" fill="#980000"/><path d="M1593.06 2364.9v5.12M1593.06 1975.14v-5.12M1469.55 2451.84v-275.82a16 16 0 0 1 16-16h80.5" stroke="#980000" stroke-width="10" fill="none"/><path d="M1489.55 2451.84v-271.82h63.5v.25h12.73" stroke="#980000" stroke-width="10" fill="none"/><path d="M1479.55 2478.36l-12.73-21.52h25.45z" stroke="#980000" stroke-width="10" fill="#fff"/><path d="M1566.02 2180.45l17.2-10.18-17.2-10.18M2133.06 2365.02v-390M2133.06 2364.9v5.12M2133.06 1975.14v-5.12" stroke="#980000" stroke-width="10" fill="none"/><path d="M844.54 2814.13h525.9M844.67 2814.13h-5.13M1352.5 2824.3l17.22-10.17-17.2-10.18" stroke="#e81313" stroke-width="10" fill="none"/><path d="M844.54 2894.13h525.9M844.67 2894.13h-5.13M1352.5 2904.3l17.22-10.17-17.2-10.18" stroke="#008573" stroke-width="10" fill="none"/><path d="M844.54 2974.13h525.9M844.67 2974.13h-5.13M1352.5 2984.3l17.22-10.17-17.2-10.18" stroke="#e81313" stroke-width="10" fill="none"/><path d="M844.54 3054.13h525.9M844.67 3054.13h-5.13M1352.5 3064.3l17.22-10.17-17.2-10.18" stroke="#008573" stroke-width="10" fill="none"/><path d="M844.54 3134.13h525.9M844.67 3134.13h-5.13M1352.5 3144.3l17.22-10.17-17.2-10.18" stroke="#e81313" stroke-width="10" fill="none"/><path d="M844.54 3214.13h525.9M844.67 3214.13h-5.13M1352.5 3224.3l17.22-10.17-17.2-10.18" stroke="#008573" stroke-width="10" fill="none"/><path d="M839.54 3209.13v-390M839.54 3209v5.13M839.54 2819.26v-5.13" stroke="#980000" stroke-width="10" fill="none"/><path d="M1384.55 3209.13c0 2.76-2.24 5-5 5-2.77 0-5-2.24-5-5s2.23-5 5-5c2.76 0 5 2.24 5 5zm0-19.5c0 2.76-2.24 5-5 5-2.77 0-5-2.24-5-5s2.23-5 5-5c2.76 0 5 2.24 5 5zm0-19.5c0 2.76-2.24 5-5 5-2.77 0-5-2.24-5-5s2.23-5 5-5c2.76 0 5 2.24 5 5zm0-19.5c0 2.76-2.24 5-5 5-2.77 0-5-2.24-5-5s2.23-5 5-5c2.76 0 5 2.24 5 5zm0-19.5c0 2.76-2.24 5-5 5-2.77 0-5-2.24-5-5s2.23-5 5-5c2.76 0 5 2.24 5 5zm0-19.5c0 2.76-2.24 5-5 5-2.77 0-5-2.24-5-5s2.23-5 5-5c2.76 0 5 2.24 5 5zm0-19.5c0 2.76-2.24 5-5 5-2.77 0-5-2.24-5-5s2.23-5 5-5c2.76 0 5 2.24 5 5zm0-19.5c0 2.76-2.24 5-5 5-2.77 0-5-2.24-5-5s2.23-5 5-5c2.76 0 5 2.24 5 5zm0-19.5c0 2.76-2.24 5-5 5-2.77 0-5-2.24-5-5s2.23-5 5-5c2.76 0 5 2.24 5 5zm0-19.5c0 2.76-2.24 5-5 5-2.77 0-5-2.24-5-5s2.23-5 5-5c2.76 0 5 2.24 5 5zm0-19.5c0 2.76-2.24 5-5 5-2.77 0-5-2.24-5-5s2.23-5 5-5c2.76 0 5 2.24 5 5zm0-19.5c0 2.76-2.24 5-5 5-2.77 0-5-2.24-5-5s2.23-5 5-5c2.76 0 5 2.24 5 5zm0-19.5c0 2.76-2.24 5-5 5-2.77 0-5-2.24-5-5s2.23-5 5-5c2.76 0 5 2.24 5 5zm0-19.5c0 2.76-2.24 5-5 5-2.77 0-5-2.24-5-5s2.23-5 5-5c2.76 0 5 2.24 5 5zm0-19.5c0 2.76-2.24 5-5 5-2.77 0-5-2.24-5-5s2.23-5 5-5c2.76 0 5 2.24 5 5zm0-19.5c0 2.76-2.24 5-5 5-2.77 0-5-2.24-5-5s2.23-5 5-5c2.76 0 5 2.24 5 5zm0-19.5c0 2.76-2.24 5-5 5-2.77 0-5-2.24-5-5s2.23-5 5-5c2.76 0 5 2.24 5 5zm0-19.5c0 2.76-2.24 5-5 5-2.77 0-5-2.24-5-5s2.23-5 5-5c2.76 0 5 2.24 5 5zm0-19.5c0 2.76-2.24 5-5 5-2.77 0-5-2.24-5-5s2.23-5 5-5c2.76 0 5 2.24 5 5zm0-19.5c0 2.76-2.24 5-5 5-2.77 0-5-2.24-5-5s2.23-5 5-5c2.76 0 5 2.24 5 5z" fill="#980000"/><path d="M1379.55 3209v5.13M1379.55 2819.26v-5.13M1404.74 3002.05h64.8v-277.53" stroke="#980000" stroke-width="10" fill="none"/><path d="M1406.82 3024.13h12.73v-2.08h54a16 16 0 0 0 16-16v-281.53M1406.58 3003.95l-17.2 10.18 17.2 10.18" stroke="#980000" stroke-width="10" fill="none"/><path d="M1479.55 2698l12.72 21.52h-25.45z" stroke="#980000" stroke-width="10" fill="#fff"/><path d="M1602.15 2811.8h525.9M1620.1 2801.62l-17.22 10.18 17.2 10.18M2127.93 2811.8h5.13" stroke="#e81313" stroke-width="10" fill="none"/><path d="M1602.15 2891.8h525.9M1620.1 2881.62l-17.22 10.18 17.2 10.18M2127.93 2891.8h5.13" stroke="#008573" stroke-width="10" fill="none"/><path d="M1602.15 2971.8h525.9M1620.1 2961.62l-17.22 10.18 17.2 10.18M2127.93 2971.8h5.13" stroke="#e81313" stroke-width="10" fill="none"/><path d="M1602.15 3051.8h525.9M1620.1 3041.62l-17.22 10.18 17.2 10.18M2127.93 3051.8h5.13" stroke="#008573" stroke-width="10" fill="none"/><path d="M1602.15 3131.8h525.9M1620.1 3121.62l-17.22 10.18 17.2 10.18M2127.93 3131.8h5.13" stroke="#e81313" stroke-width="10" fill="none"/><path d="M1602.15 3211.8h525.9M1620.1 3201.62l-17.22 10.18 17.2 10.18M2127.93 3211.8h5.13" stroke="#008573" stroke-width="10" fill="none"/><path d="M1598.06 3206.8c0 2.76-2.24 5-5 5-2.77 0-5-2.24-5-5s2.23-5 5-5c2.76 0 5 2.24 5 5zm0-19.5c0 2.76-2.24 5-5 5-2.77 0-5-2.24-5-5s2.23-5 5-5c2.76 0 5 2.24 5 5zm0-19.5c0 2.76-2.24 5-5 5-2.77 0-5-2.24-5-5s2.23-5 5-5c2.76 0 5 2.24 5 5zm0-19.5c0 2.76-2.24 5-5 5-2.77 0-5-2.24-5-5s2.23-5 5-5c2.76 0 5 2.24 5 5zm0-19.5c0 2.76-2.24 5-5 5-2.77 0-5-2.24-5-5s2.23-5 5-5c2.76 0 5 2.24 5 5zm0-19.5c0 2.76-2.24 5-5 5-2.77 0-5-2.24-5-5s2.23-5 5-5c2.76 0 5 2.24 5 5zm0-19.5c0 2.76-2.24 5-5 5-2.77 0-5-2.24-5-5s2.23-5 5-5c2.76 0 5 2.24 5 5zm0-19.5c0 2.76-2.24 5-5 5-2.77 0-5-2.24-5-5s2.23-5 5-5c2.76 0 5 2.24 5 5zm0-19.5c0 2.76-2.24 5-5 5-2.77 0-5-2.24-5-5s2.23-5 5-5c2.76 0 5 2.24 5 5zm0-19.5c0 2.76-2.24 5-5 5-2.77 0-5-2.24-5-5s2.23-5 5-5c2.76 0 5 2.24 5 5zm0-19.5c0 2.76-2.24 5-5 5-2.77 0-5-2.24-5-5s2.23-5 5-5c2.76 0 5 2.24 5 5zm0-19.5c0 2.76-2.24 5-5 5-2.77 0-5-2.24-5-5s2.23-5 5-5c2.76 0 5 2.24 5 5zm0-19.5c0 2.76-2.24 5-5 5-2.77 0-5-2.24-5-5s2.23-5 5-5c2.76 0 5 2.24 5 5zm0-19.5c0 2.76-2.24 5-5 5-2.77 0-5-2.24-5-5s2.23-5 5-5c2.76 0 5 2.24 5 5zm0-19.5c0 2.76-2.24 5-5 5-2.77 0-5-2.24-5-5s2.23-5 5-5c2.76 0 5 2.24 5 5zm0-19.5c0 2.76-2.24 5-5 5-2.77 0-5-2.24-5-5s2.23-5 5-5c2.76 0 5 2.24 5 5zm0-19.5c0 2.76-2.24 5-5 5-2.77 0-5-2.24-5-5s2.23-5 5-5c2.76 0 5 2.24 5 5zm0-19.5c0 2.76-2.24 5-5 5-2.77 0-5-2.24-5-5s2.23-5 5-5c2.76 0 5 2.24 5 5zm0-19.5c0 2.76-2.24 5-5 5-2.77 0-5-2.24-5-5s2.23-5 5-5c2.76 0 5 2.24 5 5zm0-19.5c0 2.76-2.24 5-5 5-2.77 0-5-2.24-5-5s2.23-5 5-5c2.76 0 5 2.24 5 5z" fill="#980000"/><path d="M1593.06 3206.67v5.13M1593.06 2816.93v-5.13M1489.55 2724.52v277.53h76.23" stroke="#980000" stroke-width="10" fill="none"/><path d="M1469.55 2724.52v281.53a16 16 0 0 0 16 16h80.23" stroke="#980000" stroke-width="10" fill="none"/><path d="M1479.55 2698l12.72 21.52h-25.45z" stroke="#980000" stroke-width="10" fill="#fff"/><path d="M1566.02 3022.24l17.2-10.2-17.2-10.17M2133.06 3206.8v-390M2133.06 3206.67v5.13M2133.06 2816.93v-5.13M937.97 2589.63h374.1M937.97 2609.63h374.1" stroke="#980000" stroke-width="10" fill="none"/><path d="M911.46 2599.63l21.5-12.73v25.45z" stroke="#980000" stroke-width="10" fill="#fff"/><path d="M1312.3 2609.8l17.22-10.17-17.2-10.18" stroke="#980000" stroke-width="10" fill="none"/><path d="M817.34 2670.36a5 5 0 0 1-5-5v-136.8a5 5 0 0 1 5-5H884a5 5 0 0 1 5 5v136.8a5 5 0 0 1-5 5z" stroke="#6f7681" stroke-width="2" fill="#dedeff"/><use xlink:href="#h" transform="matrix(6.123233995736766e-17,-1,1,6.123233995736766e-17,817.3357423485568,2665.36283433594) translate(36.277777777777786 42.468749999999986)"/><path d="M882.32 2168.87v-70.9M872.14 2151.3l10.18 17.2 10.18-17.2M892.5 2115.54l-10.18-17.2-10.18 17.2" stroke="#e81313" stroke-width="5" fill="none"/><path d="M1002.32 2168.87v-70.9M992.14 2151.3l10.18 17.2 10.18-17.2M1012.5 2115.54l-10.18-17.2-10.18 17.2" stroke="#008573" stroke-width="5" fill="none"/><path d="M1122.32 2168.87v-70.9M1112.14 2151.3l10.18 17.2 10.18-17.2M1132.5 2115.54l-10.18-17.2-10.18 17.2" stroke="#e81313" stroke-width="5" fill="none"/><path d="M1242.32 2168.87v-70.9M1232.14 2151.3l10.18 17.2 10.18-17.2M1252.5 2115.54l-10.18-17.2-10.18 17.2" stroke="#008573" stroke-width="5" fill="none"/><path d="M882.32 2003.16v-70.9M872.14 1985.58l10.18 17.2 10.18-17.2M892.5 1949.83l-10.18-17.2-10.18 17.2" stroke="#e81313" stroke-width="5" fill="none"/><path d="M1002.32 2003.16v-70.9M992.14 1985.58l10.18 17.2 10.18-17.2M1012.5 1949.83l-10.18-17.2-10.18 17.2" stroke="#008573" stroke-width="5" fill="none"/><path d="M1122.32 2003.16v-70.9M1112.14 1985.58l10.18 17.2 10.18-17.2M1132.5 1949.83l-10.18-17.2-10.18 17.2" stroke="#e81313" stroke-width="5" fill="none"/><path d="M1242.32 2003.16v-70.9M1232.14 1985.58l10.18 17.2 10.18-17.2M1252.5 1949.83l-10.18-17.2-10.18 17.2M882.32 2086.87v-70.9M872.14 2069.3l10.18 17.2 10.18-17.2M892.5 2033.55l-10.18-17.22-10.18 17.22" stroke="#008573" stroke-width="5" fill="none"/><path d="M1002.32 2086.87v-70.9M992.14 2069.3l10.18 17.2 10.18-17.2M1012.5 2033.55l-10.18-17.22-10.18 17.22" stroke="#e81313" stroke-width="5" fill="none"/><path d="M1122.32 2086.87v-70.9M1112.14 2069.3l10.18 17.2 10.18-17.2M1132.5 2033.55l-10.18-17.22-10.18 17.22" stroke="#008573" stroke-width="5" fill="none"/><path d="M1242.32 2086.87v-70.9M1232.14 2069.3l10.18 17.2 10.18-17.2M1252.5 2033.55l-10.18-17.22-10.18 17.22" stroke="#e81313" stroke-width="5" fill="none"/><path d="M882.32 2248.87v-70.9M872.14 2231.3l10.18 17.2 10.18-17.2M892.5 2195.54l-10.18-17.2-10.18 17.2" stroke="#008573" stroke-width="5" fill="none"/><path d="M1002.32 2248.87v-70.9M992.14 2231.3l10.18 17.2 10.18-17.2M1012.5 2195.54l-10.18-17.2-10.18 17.2" stroke="#e81313" stroke-width="5" fill="none"/><path d="M1122.32 2248.87v-70.9M1112.14 2231.3l10.18 17.2 10.18-17.2M1132.5 2195.54l-10.18-17.2-10.18 17.2" stroke="#008573" stroke-width="5" fill="none"/><path d="M1242.32 2248.87v-70.9M1232.14 2231.3l10.18 17.2 10.18-17.2M1252.5 2195.54l-10.18-17.2-10.18 17.2M882.32 2338.82v-70.9M872.14 2321.24l10.18 17.2 10.18-17.2M892.5 2285.5l-10.18-17.22-10.18 17.2" stroke="#e81313" stroke-width="5" fill="none"/><path d="M1002.32 2338.82v-70.9M992.14 2321.24l10.18 17.2 10.18-17.2M1012.5 2285.5l-10.18-17.22-10.18 17.2" stroke="#008573" stroke-width="5" fill="none"/><path d="M1122.32 2338.82v-70.9M1112.14 2321.24l10.18 17.2 10.18-17.2M1132.5 2285.5l-10.18-17.22-10.18 17.2" stroke="#e81313" stroke-width="5" fill="none"/><path d="M1242.32 2338.82v-70.9M1232.14 2321.24l10.18 17.2 10.18-17.2M1252.5 2285.5l-10.18-17.22-10.18 17.2M882.32 2418.82v-70.9M872.14 2401.24l10.18 17.2 10.18-17.2M892.5 2365.5l-10.18-17.22-10.18 17.2" stroke="#008573" stroke-width="5" fill="none"/><path d="M1002.32 2418.82v-70.9M992.14 2401.24l10.18 17.2 10.18-17.2M1012.5 2365.5l-10.18-17.22-10.18 17.2" stroke="#e81313" stroke-width="5" fill="none"/><path d="M1122.32 2418.82v-70.9M1112.14 2401.24l10.18 17.2 10.18-17.2M1132.5 2365.5l-10.18-17.22-10.18 17.2" stroke="#008573" stroke-width="5" fill="none"/><path d="M1242.32 2418.82v-70.9M1232.14 2401.24l10.18 17.2 10.18-17.2M1252.5 2365.5l-10.18-17.22-10.18 17.2M1729.9 2156.2v-70.9M1719.7 2138.63l10.2 17.2 10.17-17.2M1740.08 2102.88l-10.2-17.22-10.17 17.22" stroke="#e81313" stroke-width="5" fill="none"/><path d="M1849.9 2156.2v-70.9M1839.7 2138.63l10.2 17.2 10.17-17.2M1860.08 2102.88l-10.2-17.22-10.17 17.22" stroke="#008573" stroke-width="5" fill="none"/><path d="M1969.9 2156.2v-70.9M1959.7 2138.63l10.2 17.2 10.17-17.2M1980.08 2102.88l-10.2-17.22-10.17 17.22" stroke="#e81313" stroke-width="5" fill="none"/><path d="M2089.9 2156.2v-70.9M2079.7 2138.63l10.2 17.2 10.17-17.2M2100.07 2102.88l-10.18-17.22-10.2 17.22M1729.9 2236.2v-70.9M1719.7 2218.63l10.2 17.2 10.17-17.2M1740.08 2182.88l-10.2-17.22-10.17 17.22" stroke="#008573" stroke-width="5" fill="none"/><path d="M1849.9 2236.2v-70.9M1839.7 2218.63l10.2 17.2 10.17-17.2M1860.08 2182.88l-10.2-17.22-10.17 17.22" stroke="#e81313" stroke-width="5" fill="none"/><path d="M1969.9 2236.2v-70.9M1959.7 2218.63l10.2 17.2 10.17-17.2M1980.08 2182.88l-10.2-17.22-10.17 17.22" stroke="#008573" stroke-width="5" fill="none"/><path d="M2089.9 2236.2v-70.9M2079.7 2218.63l10.2 17.2 10.17-17.2M2100.07 2182.88l-10.18-17.22-10.2 17.22M1729.9 2326.16v-70.9M1719.7 2308.57l10.2 17.22 10.17-17.23M1740.08 2272.83l-10.2-17.22-10.17 17.23" stroke="#e81313" stroke-width="5" fill="none"/><path d="M1849.9 2326.16v-70.9M1839.7 2308.57l10.2 17.22 10.17-17.23M1860.08 2272.83l-10.2-17.22-10.17 17.23" stroke="#008573" stroke-width="5" fill="none"/><path d="M1969.9 2326.16v-70.9M1959.7 2308.57l10.2 17.22 10.17-17.23M1980.08 2272.83l-10.2-17.22-10.17 17.23" stroke="#e81313" stroke-width="5" fill="none"/><path d="M2089.9 2326.16v-70.9M2079.7 2308.57l10.2 17.22 10.17-17.23M2100.07 2272.83l-10.18-17.22-10.2 17.23M1729.9 2406.16v-70.9M1719.7 2388.57l10.2 17.22 10.17-17.23M1740.08 2352.83l-10.2-17.22-10.17 17.23" stroke="#008573" stroke-width="5" fill="none"/><path d="M1849.9 2406.16v-70.9M1839.7 2388.57l10.2 17.22 10.17-17.23M1860.08 2352.83l-10.2-17.22-10.17 17.23" stroke="#e81313" stroke-width="5" fill="none"/><path d="M1969.9 2406.16v-70.9M1959.7 2388.57l10.2 17.22 10.17-17.23M1980.08 2352.83l-10.2-17.22-10.17 17.23" stroke="#008573" stroke-width="5" fill="none"/><path d="M2089.9 2406.16v-70.9M2079.7 2388.57l10.2 17.22 10.17-17.23M2100.07 2352.83l-10.18-17.22-10.2 17.23M899.54 3007.08v-70.9M889.36 2989.5l10.18 17.22 10.2-17.22M909.73 2953.75l-10.2-17.2-10.17 17.2" stroke="#e81313" stroke-width="5" fill="none"/><path d="M1019.54 3007.08v-70.9M1009.36 2989.5l10.18 17.22 10.2-17.22M1029.73 2953.75l-10.2-17.2-10.17 17.2" stroke="#008573" stroke-width="5" fill="none"/><path d="M1139.55 3007.08v-70.9M1129.36 2989.5l10.2 17.22 10.17-17.22M1149.73 2953.75l-10.18-17.2-10.2 17.2" stroke="#e81313" stroke-width="5" fill="none"/><path d="M1259.55 3007.08v-70.9M1249.36 2989.5l10.2 17.22 10.17-17.22M1269.73 2953.75l-10.18-17.2-10.2 17.2M899.54 3087.08v-70.9M889.36 3069.5l10.18 17.22 10.2-17.22M909.73 3033.75l-10.2-17.2-10.17 17.2" stroke="#008573" stroke-width="5" fill="none"/><path d="M1019.54 3087.08v-70.9M1009.36 3069.5l10.18 17.22 10.2-17.22M1029.73 3033.75l-10.2-17.2-10.17 17.2" stroke="#e81313" stroke-width="5" fill="none"/><path d="M1139.55 3087.08v-70.9M1129.36 3069.5l10.2 17.22 10.17-17.22M1149.73 3033.75l-10.18-17.2-10.2 17.2" stroke="#008573" stroke-width="5" fill="none"/><path d="M1259.55 3087.08v-70.9M1249.36 3069.5l10.2 17.22 10.17-17.22M1269.73 3033.75l-10.18-17.2-10.2 17.2M899.54 3177.03v-70.9M889.36 3159.45l10.18 17.22 10.2-17.22M909.73 3123.7l-10.2-17.2-10.17 17.2" stroke="#e81313" stroke-width="5" fill="none"/><path d="M1019.54 3177.03v-70.9M1009.36 3159.45l10.18 17.22 10.2-17.22M1029.73 3123.7l-10.2-17.2-10.17 17.2" stroke="#008573" stroke-width="5" fill="none"/><path d="M1139.55 3177.03v-70.9M1129.36 3159.45l10.2 17.22 10.17-17.22M1149.73 3123.7l-10.18-17.2-10.2 17.2" stroke="#e81313" stroke-width="5" fill="none"/><path d="M1259.55 3177.03v-70.9M1249.36 3159.45l10.2 17.22 10.17-17.22M1269.73 3123.7l-10.18-17.2-10.2 17.2M899.54 3257.03v-70.9M889.36 3239.45l10.18 17.22 10.2-17.22M909.73 3203.7l-10.2-17.2-10.17 17.2" stroke="#008573" stroke-width="5" fill="none"/><path d="M1019.54 3257.03v-70.9M1009.36 3239.45l10.18 17.22 10.2-17.22M1029.73 3203.7l-10.2-17.2-10.17 17.2" stroke="#e81313" stroke-width="5" fill="none"/><path d="M1139.55 3257.03v-70.9M1129.36 3239.45l10.2 17.22 10.17-17.22M1149.73 3203.7l-10.18-17.2-10.2 17.2" stroke="#008573" stroke-width="5" fill="none"/><path d="M1259.55 3257.03v-70.9M1249.36 3239.45l10.2 17.22 10.17-17.22M1269.73 3203.7l-10.18-17.2-10.2 17.2M1719.55 3004.73v-70.9M1709.36 2987.15l10.2 17.22 10.17-17.22M1729.73 2951.4l-10.18-17.2-10.2 17.2" stroke="#e81313" stroke-width="5" fill="none"/><path d="M1839.55 3004.73v-70.9M1829.36 2987.15l10.2 17.22 10.17-17.22M1849.73 2951.4l-10.18-17.2-10.2 17.2" stroke="#008573" stroke-width="5" fill="none"/><path d="M1959.55 3004.73v-70.9M1949.36 2987.15l10.2 17.22 10.17-17.22M1969.73 2951.4l-10.18-17.2-10.2 17.2" stroke="#e81313" stroke-width="5" fill="none"/><path d="M2079.55 3004.73v-70.9M2069.36 2987.15l10.18 17.22 10.2-17.22M2089.73 2951.4l-10.18-17.2-10.2 17.2M1719.55 3084.73v-70.9M1709.36 3067.15l10.2 17.22 10.17-17.22M1729.73 3031.4l-10.18-17.2-10.2 17.2" stroke="#008573" stroke-width="5" fill="none"/><path d="M1839.55 3084.73v-70.9M1829.36 3067.15l10.2 17.22 10.17-17.22M1849.73 3031.4l-10.18-17.2-10.2 17.2" stroke="#e81313" stroke-width="5" fill="none"/><path d="M1959.55 3084.73v-70.9M1949.36 3067.15l10.2 17.22 10.17-17.22M1969.73 3031.4l-10.18-17.2-10.2 17.2" stroke="#008573" stroke-width="5" fill="none"/><path d="M2079.55 3084.73v-70.9M2069.36 3067.15l10.18 17.22 10.2-17.22M2089.73 3031.4l-10.18-17.2-10.2 17.2M1719.55 3174.68v-70.9M1709.36 3157.1l10.2 17.22 10.17-17.22M1729.73 3121.36l-10.18-17.22-10.2 17.22" stroke="#e81313" stroke-width="5" fill="none"/><path d="M1839.55 3174.68v-70.9M1829.36 3157.1l10.2 17.22 10.17-17.22M1849.73 3121.36l-10.18-17.22-10.2 17.22" stroke="#008573" stroke-width="5" fill="none"/><path d="M1959.55 3174.68v-70.9M1949.36 3157.1l10.2 17.22 10.17-17.22M1969.73 3121.36l-10.18-17.22-10.2 17.22" stroke="#e81313" stroke-width="5" fill="none"/><path d="M2079.55 3174.68v-70.9M2069.36 3157.1l10.18 17.22 10.2-17.22M2089.73 3121.36l-10.18-17.22-10.2 17.22M1719.55 3254.68v-70.9M1709.36 3237.1l10.2 17.22 10.17-17.22M1729.73 3201.36l-10.18-17.22-10.2 17.22" stroke="#008573" stroke-width="5" fill="none"/><path d="M1839.55 3254.68v-70.9M1829.36 3237.1l10.2 17.22 10.17-17.22M1849.73 3201.36l-10.18-17.22-10.2 17.22" stroke="#e81313" stroke-width="5" fill="none"/><path d="M1959.55 3254.68v-70.9M1949.36 3237.1l10.2 17.22 10.17-17.22M1969.73 3201.36l-10.18-17.22-10.2 17.22" stroke="#008573" stroke-width="5" fill="none"/><path d="M2079.55 3254.68v-70.9M2069.36 3237.1l10.18 17.22 10.2-17.22M2089.73 3201.36l-10.18-17.22-10.2 17.22M899.54 2850.4v-70.9M889.36 2832.82l10.18 17.22 10.2-17.22M909.73 2797.07l-10.2-17.2-10.17 17.2" stroke="#e81313" stroke-width="5" fill="none"/><path d="M1019.54 2850.4v-70.9M1009.36 2832.82l10.18 17.22 10.2-17.22M1029.73 2797.07l-10.2-17.2-10.17 17.2" stroke="#008573" stroke-width="5" fill="none"/><path d="M1139.55 2850.4v-70.9M1129.36 2832.82l10.2 17.22 10.17-17.22M1149.73 2797.07l-10.18-17.2-10.2 17.2" stroke="#e81313" stroke-width="5" fill="none"/><path d="M1259.55 2850.4v-70.9M1249.36 2832.82l10.2 17.22 10.17-17.22M1269.73 2797.07l-10.18-17.2-10.2 17.2M899.54 2930.4v-70.9M889.36 2912.82l10.18 17.22 10.2-17.22M909.73 2877.07l-10.2-17.2-10.17 17.2" stroke="#008573" stroke-width="5" fill="none"/><path d="M1019.54 2930.4v-70.9M1009.36 2912.82l10.18 17.22 10.2-17.22M1029.73 2877.07l-10.2-17.2-10.17 17.2" stroke="#e81313" stroke-width="5" fill="none"/><path d="M1139.55 2930.4v-70.9M1129.36 2912.82l10.2 17.22 10.17-17.22M1149.73 2877.07l-10.18-17.2-10.2 17.2" stroke="#008573" stroke-width="5" fill="none"/><path d="M1259.55 2930.4v-70.9M1249.36 2912.82l10.2 17.22 10.17-17.22M1269.73 2877.07l-10.18-17.2-10.2 17.2M1719.55 2850.4v-70.9M1709.36 2832.82l10.2 17.22 10.17-17.22M1729.73 2797.07l-10.18-17.2-10.2 17.2" stroke="#e81313" stroke-width="5" fill="none"/><path d="M1839.55 2850.4v-70.9M1829.36 2832.82l10.2 17.22 10.17-17.22M1849.73 2797.07l-10.18-17.2-10.2 17.2" stroke="#008573" stroke-width="5" fill="none"/><path d="M1959.55 2850.4v-70.9M1949.36 2832.82l10.2 17.22 10.17-17.22M1969.73 2797.07l-10.18-17.2-10.2 17.2" stroke="#e81313" stroke-width="5" fill="none"/><path d="M2079.55 2850.4v-70.9M2069.36 2832.82l10.18 17.22 10.2-17.22M2089.73 2797.07l-10.18-17.2-10.2 17.2M1719.55 2930.4v-70.9M1709.36 2912.82l10.2 17.22 10.17-17.22M1729.73 2877.07l-10.18-17.2-10.2 17.2" stroke="#008573" stroke-width="5" fill="none"/><path d="M1839.55 2930.4v-70.9M1829.36 2912.82l10.2 17.22 10.17-17.22M1849.73 2877.07l-10.18-17.2-10.2 17.2" stroke="#e81313" stroke-width="5" fill="none"/><path d="M1959.55 2930.4v-70.9M1949.36 2912.82l10.2 17.22 10.17-17.22M1969.73 2877.07l-10.18-17.2-10.2 17.2" stroke="#008573" stroke-width="5" fill="none"/><path d="M2079.55 2930.4v-70.9M2069.36 2912.82l10.18 17.22 10.2-17.22M2089.73 2877.07l-10.18-17.2-10.2 17.2M1729.9 2005.75v-70.9M1719.7 1988.17l10.2 17.2 10.17-17.2M1740.08 1952.42l-10.2-17.2-10.17 17.2" stroke="#e81313" stroke-width="5" fill="none"/><path d="M1849.9 2005.75v-70.9M1839.7 1988.17l10.2 17.2 10.17-17.2M1860.08 1952.42l-10.2-17.2-10.17 17.2" stroke="#008573" stroke-width="5" fill="none"/><path d="M1969.9 2005.75v-70.9M1959.7 1988.17l10.2 17.2 10.17-17.2M1980.08 1952.42l-10.2-17.2-10.17 17.2" stroke="#e81313" stroke-width="5" fill="none"/><path d="M2089.9 2005.75v-70.9M2079.7 1988.17l10.2 17.2 10.17-17.2M2100.07 1952.42l-10.18-17.2-10.2 17.2M1729.9 2085.75v-70.9M1719.7 2068.17l10.2 17.2 10.17-17.2M1740.08 2032.42l-10.2-17.2-10.17 17.2" stroke="#008573" stroke-width="5" fill="none"/><path d="M1849.9 2085.75v-70.9M1839.7 2068.17l10.2 17.2 10.17-17.2M1860.08 2032.42l-10.2-17.2-10.17 17.2" stroke="#e81313" stroke-width="5" fill="none"/><path d="M1969.9 2085.75v-70.9M1959.7 2068.17l10.2 17.2 10.17-17.2M1980.08 2032.42l-10.2-17.2-10.17 17.2" stroke="#008573" stroke-width="5" fill="none"/><path d="M2089.9 2085.75v-70.9M2079.7 2068.17l10.2 17.2 10.17-17.2M2100.07 2032.42l-10.18-17.2-10.2 17.2" stroke="#e81313" stroke-width="5" fill="none"/><path d="M1612.34 1781.3a5 5 0 0 1 5-5h510a5 5 0 0 1 5 5v130a5 5 0 0 1-5 5h-510a5 5 0 0 1-5-5z" stroke="#000" stroke-opacity="0" stroke-width="2" fill="#fff" fill-opacity="0"/><use xlink:href="#i" transform="matrix(1,0,0,1,1617.3357423485568,1781.307544818812) translate(97.83333333333331 80.25)"/><use xlink:href="#j" transform="matrix(1,0,0,1,1617.3357423485568,1781.307544818812) translate(368.72222222222223 80.25)"/><path d="M1592.34 3261.8a5 5 0 0 1 5-5h510a5 5 0 0 1 5 5v150a5 5 0 0 1-5 5h-510a5 5 0 0 1-5-5z" stroke="#000" stroke-opacity="0" stroke-width="2" fill="#fff" fill-opacity="0"/><g><use xlink:href="#k" transform="matrix(1,0,0,1,1597.3357423485568,3261.8022359101315) translate(97.83333333333331 92.125)"/><use xlink:href="#l" transform="matrix(1,0,0,1,1597.3357423485568,3261.8022359101315) translate(368.72222222222223 92.125)"/></g><path d="M852.34 1773.52a5 5 0 0 1 5-5h510a5 5 0 0 1 5 5v150a5 5 0 0 1-5 5h-510a5 5 0 0 1-5-5z" stroke="#000" stroke-opacity="0" stroke-width="2" fill="#fff" fill-opacity="0"/><g><use xlink:href="#m" transform="matrix(1,0,0,1,857.3357423485568,1773.5189892995925) translate(97.83333333333331 92.125)"/><use xlink:href="#n" transform="matrix(1,0,0,1,857.3357423485568,1773.5189892995925) translate(368.72222222222223 92.125)"/></g><path d="M852.34 3270.3a5 5 0 0 1 5-5h510a5 5 0 0 1 5 5v150a5 5 0 0 1-5 5h-510a5 5 0 0 1-5-5z" stroke="#000" stroke-opacity="0" stroke-width="2" fill="#fff" fill-opacity="0"/><g><use xlink:href="#o" transform="matrix(1,0,0,1,857.3357423485568,3270.297153809805) translate(97.83333333333331 92.125)"/><use xlink:href="#p" transform="matrix(1,0,0,1,857.3357423485568,3270.297153809805) translate(368.72222222222223 92.125)"/></g><defs><path d="M240 0l2-218c-23 76-54 145-80 218h-23L58-218 59 0H30v-248h44l77 211c21-75 51-140 76-211h43V0h-30" id="q"/><path d="M100-194c63 0 86 42 84 106H49c0 40 14 67 53 68 26 1 43-12 49-29l28 8c-11 28-37 45-77 45C44 4 14-33 15-96c1-61 26-98 85-98zm52 81c6-60-76-77-97-28-3 7-6 17-6 28h103" id="r"/><path d="M210-169c-67 3-38 105-44 169h-31v-121c0-29-5-50-35-48C34-165 62-65 56 0H25l-1-190h30c1 10-1 24 2 32 10-44 99-50 107 0 11-21 27-35 58-36 85-2 47 119 55 194h-31v-121c0-29-5-49-35-48" id="s"/><path d="M100-194c62-1 85 37 85 99 1 63-27 99-86 99S16-35 15-95c0-66 28-99 85-99zM99-20c44 1 53-31 53-75 0-43-8-75-51-75s-53 32-53 75 10 74 51 75" id="t"/><path d="M114-163C36-179 61-72 57 0H25l-1-190h30c1 12-1 29 2 39 6-27 23-49 58-41v29" id="u"/><path d="M179-190L93 31C79 59 56 82 12 73V49c39 6 53-20 64-50L1-190h34L92-34l54-156h33" id="v"/><path d="M0 4l72-265h28L28 4H0" id="w"/><path d="M212-179c-10-28-35-45-73-45-59 0-87 40-87 99 0 60 29 101 89 101 43 0 62-24 78-52l27 14C228-24 195 4 139 4 59 4 22-46 18-125c-6-104 99-153 187-111 19 9 31 26 39 46" id="x"/><path d="M117-194c89-4 53 116 60 194h-32v-121c0-31-8-49-39-48C34-167 62-67 57 0H25l-1-190h30c1 10-1 24 2 32 11-22 29-35 61-36" id="y"/><path d="M59-47c-2 24 18 29 38 22v24C64 9 27 4 27-40v-127H5v-23h24l9-43h21v43h35v23H59v120" id="z"/><path d="M24 0v-261h32V0H24" id="A"/><g id="a"><use transform="matrix(0.24691358024691293,0,0,0.24691358024691293,0,0)" xlink:href="#q"/><use transform="matrix(0.24691358024691293,0,0,0.24691358024691293,73.82716049382697,0)" xlink:href="#r"/><use transform="matrix(0.24691358024691293,0,0,0.24691358024691293,123.20987654320956,0)" xlink:href="#s"/><use transform="matrix(0.24691358024691293,0,0,0.24691358024691293,197.03703703703653,0)" xlink:href="#t"/><use transform="matrix(0.24691358024691293,0,0,0.24691358024691293,246.41975308641912,0)" xlink:href="#u"/><use transform="matrix(0.24691358024691293,0,0,0.24691358024691293,275.80246913580174,0)" xlink:href="#v"/><use transform="matrix(0.24691358024691293,0,0,0.24691358024691293,320.2469135802461,0)" xlink:href="#w"/><use transform="matrix(0.24691358024691293,0,0,0.24691358024691293,344.93827160493737,0)" xlink:href="#x"/><use transform="matrix(0.24691358024691293,0,0,0.24691358024691293,408.88888888888783,0)" xlink:href="#t"/><use transform="matrix(0.24691358024691293,0,0,0.24691358024691293,458.2716049382704,0)" xlink:href="#y"/><use transform="matrix(0.24691358024691293,0,0,0.24691358024691293,507.65432098765297,0)" xlink:href="#z"/><use transform="matrix(0.24691358024691293,0,0,0.24691358024691293,532.3456790123442,0)" xlink:href="#u"/><use transform="matrix(0.24691358024691293,0,0,0.24691358024691293,561.7283950617269,0)" xlink:href="#t"/><use transform="matrix(0.24691358024691293,0,0,0.24691358024691293,611.1111111111095,0)" xlink:href="#A"/></g><path d="M33 0v-248h34V0H33" id="B"/><path d="M96-169c-40 0-48 33-48 73s9 75 48 75c24 0 41-14 43-38l32 2c-6 37-31 61-74 61-59 0-76-41-82-99-10-93 101-131 147-64 4 7 5 14 7 22l-32 3c-4-21-16-35-41-35" id="C"/><g id="b"><use transform="matrix(0.24691358024691293,0,0,0.24691358024691293,0,0)" xlink:href="#B"/><use transform="matrix(0.24691358024691293,0,0,0.24691358024691293,24.691358024691294,0)" xlink:href="#y"/><use transform="matrix(0.24691358024691293,0,0,0.24691358024691293,74.07407407407388,0)" xlink:href="#z"/><use transform="matrix(0.24691358024691293,0,0,0.24691358024691293,98.76543209876517,0)" xlink:href="#r"/><use transform="matrix(0.24691358024691293,0,0,0.24691358024691293,148.14814814814775,0)" xlink:href="#u"/><use transform="matrix(0.24691358024691293,0,0,0.24691358024691293,177.53086419753038,0)" xlink:href="#C"/><use transform="matrix(0.24691358024691293,0,0,0.24691358024691293,221.97530864197472,0)" xlink:href="#t"/><use transform="matrix(0.24691358024691293,0,0,0.24691358024691293,271.3580246913573,0)" xlink:href="#y"/><use transform="matrix(0.24691358024691293,0,0,0.24691358024691293,320.74074074073985,0)" xlink:href="#y"/><use transform="matrix(0.24691358024691293,0,0,0.24691358024691293,370.1234567901224,0)" xlink:href="#r"/><use transform="matrix(0.24691358024691293,0,0,0.24691358024691293,419.506172839505,0)" xlink:href="#C"/><use transform="matrix(0.24691358024691293,0,0,0.24691358024691293,463.9506172839493,0)" xlink:href="#z"/></g><path d="M233-177c-1 41-23 64-60 70L243 0h-38l-65-103H63V0H30v-248c88 3 205-21 203 71zM63-129c60-2 137 13 137-47 0-61-80-42-137-45v92" id="D"/><path d="M141-36C126-15 110 5 73 4 37 3 15-17 15-53c-1-64 63-63 125-63 3-35-9-54-41-54-24 1-41 7-42 31l-33-3c5-37 33-52 76-52 45 0 72 20 72 64v82c-1 20 7 32 28 27v20c-31 9-61-2-59-35zM48-53c0 20 12 33 32 33 41-3 63-29 60-74-43 2-92-5-92 41" id="E"/><path d="M85-194c31 0 48 13 60 33l-1-100h32l1 261h-30c-2-10 0-23-3-31C134-8 116 4 85 4 32 4 16-35 15-94c0-66 23-100 70-100zm9 24c-40 0-46 34-46 75 0 40 6 74 45 74 42 0 51-32 51-76 0-42-9-74-50-73" id="F"/><path d="M266 0h-40l-56-210L115 0H75L2-248h35L96-30l15-64 43-154h32l59 218 59-218h35" id="G"/><path d="M24-231v-30h32v30H24zM24 0v-190h32V0H24" id="H"/><g id="d"><use transform="matrix(0.0864197530864197,0,0,0.0864197530864197,0,0)" xlink:href="#D"/><use transform="matrix(0.0864197530864197,0,0,0.0864197530864197,22.382716049382704,0)" xlink:href="#r"/><use transform="matrix(0.0864197530864197,0,0,0.0864197530864197,39.66666666666664,0)" xlink:href="#E"/><use transform="matrix(0.0864197530864197,0,0,0.0864197530864197,56.950617283950585,0)" xlink:href="#F"/><use transform="matrix(0.0864197530864197,0,0,0.0864197530864197,74.23456790123453,0)" xlink:href="#w"/><use transform="matrix(0.0864197530864197,0,0,0.0864197530864197,82.8765432098765,0)" xlink:href="#G"/><use transform="matrix(0.0864197530864197,0,0,0.0864197530864197,111.56790123456784,0)" xlink:href="#u"/><use transform="matrix(0.0864197530864197,0,0,0.0864197530864197,121.85185185185179,0)" xlink:href="#H"/><use transform="matrix(0.0864197530864197,0,0,0.0864197530864197,128.67901234567896,0)" xlink:href="#z"/><use transform="matrix(0.0864197530864197,0,0,0.0864197530864197,137.32098765432093,0)" xlink:href="#r"/></g><g id="e"><use transform="matrix(0.0864197530864197,0,0,0.0864197530864197,0,0)" xlink:href="#q"/><use transform="matrix(0.0864197530864197,0,0,0.0864197530864197,25.839506172839492,0)" xlink:href="#r"/><use transform="matrix(0.0864197530864197,0,0,0.0864197530864197,43.123456790123434,0)" xlink:href="#s"/><use transform="matrix(0.0864197530864197,0,0,0.0864197530864197,68.96296296296293,0)" xlink:href="#t"/><use transform="matrix(0.0864197530864197,0,0,0.0864197530864197,86.24691358024688,0)" xlink:href="#u"/><use transform="matrix(0.0864197530864197,0,0,0.0864197530864197,96.53086419753083,0)" xlink:href="#v"/></g><path d="M145-31C134-9 116 4 85 4 32 4 16-35 15-94c0-59 17-99 70-100 32-1 48 14 60 33 0-11-1-24 2-32h30l-1 268h-32zM93-21c41 0 51-33 51-76s-8-73-50-73c-40 0-46 35-46 75s5 74 45 74" id="I"/><path d="M84 4C-5 8 30-112 23-190h32v120c0 31 7 50 39 49 72-2 45-101 50-169h31l1 190h-30c-1-10 1-25-2-33-11 22-28 36-60 37" id="J"/><path d="M135-143c-3-34-86-38-87 0 15 53 115 12 119 90S17 21 10-45l28-5c4 36 97 45 98 0-10-56-113-15-118-90-4-57 82-63 122-42 12 7 21 19 24 35" id="K"/><path d="M115-194c55 1 70 41 70 98S169 2 115 4C84 4 66-9 55-30l1 105H24l-1-265h31l2 30c10-21 28-34 59-34zm-8 174c40 0 45-34 45-75s-6-73-45-74c-42 0-51 32-51 76 0 43 10 73 51 73" id="L"/><g id="f"><use transform="matrix(0.0864197530864197,0,0,0.0864197530864197,0,0)" xlink:href="#D"/><use transform="matrix(0.0864197530864197,0,0,0.0864197530864197,22.382716049382704,0)" xlink:href="#r"/><use transform="matrix(0.0864197530864197,0,0,0.0864197530864197,39.66666666666664,0)" xlink:href="#I"/><use transform="matrix(0.0864197530864197,0,0,0.0864197530864197,56.950617283950585,0)" xlink:href="#J"/><use transform="matrix(0.0864197530864197,0,0,0.0864197530864197,74.23456790123453,0)" xlink:href="#r"/><use transform="matrix(0.0864197530864197,0,0,0.0864197530864197,91.51851851851848,0)" xlink:href="#K"/><use transform="matrix(0.0864197530864197,0,0,0.0864197530864197,107.07407407407402,0)" xlink:href="#z"/><use transform="matrix(0.0864197530864197,0,0,0.0864197530864197,115.716049382716,0)" xlink:href="#K"/><use transform="matrix(0.0864197530864197,0,0,0.0864197530864197,131.27160493827154,0)" xlink:href="#w"/><use transform="matrix(0.0864197530864197,0,0,0.0864197530864197,139.9135802469135,0)" xlink:href="#D"/><use transform="matrix(0.0864197530864197,0,0,0.0864197530864197,162.29629629629622,0)" xlink:href="#r"/><use transform="matrix(0.0864197530864197,0,0,0.0864197530864197,179.58024691358014,0)" xlink:href="#K"/><use transform="matrix(0.0864197530864197,0,0,0.0864197530864197,195.1358024691357,0)" xlink:href="#L"/><use transform="matrix(0.0864197530864197,0,0,0.0864197530864197,212.4197530864197,0)" xlink:href="#t"/><use transform="matrix(0.0864197530864197,0,0,0.0864197530864197,229.7037037037036,0)" xlink:href="#y"/><use transform="matrix(0.0864197530864197,0,0,0.0864197530864197,246.98765432098756,0)" xlink:href="#K"/><use transform="matrix(0.0864197530864197,0,0,0.0864197530864197,262.54320987654313,0)" xlink:href="#r"/><use transform="matrix(0.0864197530864197,0,0,0.0864197530864197,279.8271604938271,0)" xlink:href="#K"/></g><path d="M205 0l-28-72H64L36 0H1l101-248h38L239 0h-34zm-38-99l-47-123c-12 45-31 82-46 123h93" id="M"/><path d="M115-194c53 0 69 39 70 98 0 66-23 100-70 100C84 3 66-7 56-30L54 0H23l1-261h32v101c10-23 28-34 59-34zm-8 174c40 0 45-34 45-75 0-40-5-75-45-74-42 0-51 32-51 76 0 43 10 73 51 73" id="N"/><g id="g"><use transform="matrix(0.0864197530864197,0,0,0.0864197530864197,0,0)" xlink:href="#M"/><use transform="matrix(0.0864197530864197,0,0,0.0864197530864197,20.74074074074073,0)" xlink:href="#u"/><use transform="matrix(0.0864197530864197,0,0,0.0864197530864197,31.024691358024675,0)" xlink:href="#N"/><use transform="matrix(0.0864197530864197,0,0,0.0864197530864197,48.30864197530862,0)" xlink:href="#H"/><use transform="matrix(0.0864197530864197,0,0,0.0864197530864197,55.135802469135776,0)" xlink:href="#z"/><use transform="matrix(0.0864197530864197,0,0,0.0864197530864197,63.77777777777774,0)" xlink:href="#u"/><use transform="matrix(0.0864197530864197,0,0,0.0864197530864197,74.06172839506169,0)" xlink:href="#E"/><use transform="matrix(0.0864197530864197,0,0,0.0864197530864197,91.34567901234566,0)" xlink:href="#z"/><use transform="matrix(0.0864197530864197,0,0,0.0864197530864197,99.98765432098762,0)" xlink:href="#H"/><use transform="matrix(0.0864197530864197,0,0,0.0864197530864197,106.81481481481475,0)" xlink:href="#t"/><use transform="matrix(0.0864197530864197,0,0,0.0864197530864197,124.0987654320987,0)" xlink:href="#y"/></g><path d="M195 0l-74-108L45 0H8l94-129-87-119h37l69 98 67-98h37l-84 118L233 0h-38" id="O"/><g id="h"><use transform="matrix(0.11111111111111108,0,0,0.11111111111111108,0,0)" xlink:href="#M"/><use transform="matrix(0.11111111111111108,0,0,0.11111111111111108,26.666666666666657,0)" xlink:href="#O"/><use transform="matrix(0.11111111111111108,0,0,0.11111111111111108,53.333333333333314,0)" xlink:href="#B"/></g><path fill="#008573" d="M160-131c35 5 61 23 61 61C221 17 115-2 30 0v-248c76 3 177-17 177 60 0 33-19 50-47 57zm-97-11c50-1 110 9 110-42 0-47-63-36-110-37v79zm0 115c55-2 124 14 124-45 0-56-70-42-124-44v89" id="P"/><path fill="#008573" d="M84 4C-5 8 30-112 23-190h32v120c0 31 7 50 39 49 72-2 45-101 50-169h31l1 190h-30c-1-10 1-25-2-33-11 22-28 36-60 37" id="Q"/><path fill="#008573" d="M117-194c89-4 53 116 60 194h-32v-121c0-31-8-49-39-48C34-167 62-67 57 0H25l-1-190h30c1 10-1 24 2 32 11-22 29-35 61-36" id="R"/><path fill="#008573" d="M85-194c31 0 48 13 60 33l-1-100h32l1 261h-30c-2-10 0-23-3-31C134-8 116 4 85 4 32 4 16-35 15-94c0-66 23-100 70-100zm9 24c-40 0-46 34-46 75 0 40 6 74 45 74 42 0 51-32 51-76 0-42-9-74-50-73" id="S"/><path fill="#008573" d="M24 0v-261h32V0H24" id="T"/><path fill="#008573" d="M100-194c63 0 86 42 84 106H49c0 40 14 67 53 68 26 1 43-12 49-29l28 8c-11 28-37 45-77 45C44 4 14-33 15-96c1-61 26-98 85-98zm52 81c6-60-76-77-97-28-3 7-6 17-6 28h103" id="U"/><g id="i"><use transform="matrix(0.2222222222222222,0,0,0.2222222222222222,0,0)" xlink:href="#P"/><use transform="matrix(0.2222222222222222,0,0,0.2222222222222222,53.33333333333333,0)" xlink:href="#Q"/><use transform="matrix(0.2222222222222222,0,0,0.2222222222222222,97.77777777777777,0)" xlink:href="#R"/><use transform="matrix(0.2222222222222222,0,0,0.2222222222222222,142.22222222222223,0)" xlink:href="#S"/><use transform="matrix(0.2222222222222222,0,0,0.2222222222222222,186.66666666666669,0)" xlink:href="#T"/><use transform="matrix(0.2222222222222222,0,0,0.2222222222222222,204.22222222222223,0)" xlink:href="#U"/></g><path fill="#008573" d="M27 0v-27h64v-190l-56 39v-29l58-41h29v221h61V0H27" id="V"/><use transform="matrix(0.2222222222222222,0,0,0.2222222222222222,0,0)" xlink:href="#V" id="j"/><path fill="#1071e5" d="M160-131c35 5 61 23 61 61C221 17 115-2 30 0v-248c76 3 177-17 177 60 0 33-19 50-47 57zm-97-11c50-1 110 9 110-42 0-47-63-36-110-37v79zm0 115c55-2 124 14 124-45 0-56-70-42-124-44v89" id="W"/><path fill="#1071e5" d="M84 4C-5 8 30-112 23-190h32v120c0 31 7 50 39 49 72-2 45-101 50-169h31l1 190h-30c-1-10 1-25-2-33-11 22-28 36-60 37" id="X"/><path fill="#1071e5" d="M117-194c89-4 53 116 60 194h-32v-121c0-31-8-49-39-48C34-167 62-67 57 0H25l-1-190h30c1 10-1 24 2 32 11-22 29-35 61-36" id="Y"/><path fill="#1071e5" d="M85-194c31 0 48 13 60 33l-1-100h32l1 261h-30c-2-10 0-23-3-31C134-8 116 4 85 4 32 4 16-35 15-94c0-66 23-100 70-100zm9 24c-40 0-46 34-46 75 0 40 6 74 45 74 42 0 51-32 51-76 0-42-9-74-50-73" id="Z"/><path fill="#1071e5" d="M24 0v-261h32V0H24" id="aa"/><path fill="#1071e5" d="M100-194c63 0 86 42 84 106H49c0 40 14 67 53 68 26 1 43-12 49-29l28 8c-11 28-37 45-77 45C44 4 14-33 15-96c1-61 26-98 85-98zm52 81c6-60-76-77-97-28-3 7-6 17-6 28h103" id="ab"/><g id="k"><use transform="matrix(0.2222222222222222,0,0,0.2222222222222222,0,0)" xlink:href="#W"/><use transform="matrix(0.2222222222222222,0,0,0.2222222222222222,53.33333333333333,0)" xlink:href="#X"/><use transform="matrix(0.2222222222222222,0,0,0.2222222222222222,97.77777777777777,0)" xlink:href="#Y"/><use transform="matrix(0.2222222222222222,0,0,0.2222222222222222,142.22222222222223,0)" xlink:href="#Z"/><use transform="matrix(0.2222222222222222,0,0,0.2222222222222222,186.66666666666669,0)" xlink:href="#aa"/><use transform="matrix(0.2222222222222222,0,0,0.2222222222222222,204.22222222222223,0)" xlink:href="#ab"/></g><path fill="#1071e5" d="M101-251c82-7 93 87 43 132L82-64C71-53 59-42 53-27h129V0H18c2-99 128-94 128-182 0-28-16-43-45-43s-46 15-49 41l-32-3c6-41 34-60 81-64" id="ac"/><use transform="matrix(0.2222222222222222,0,0,0.2222222222222222,0,0)" xlink:href="#ac" id="l"/><path fill="#0c7cba" d="M160-131c35 5 61 23 61 61C221 17 115-2 30 0v-248c76 3 177-17 177 60 0 33-19 50-47 57zm-97-11c50-1 110 9 110-42 0-47-63-36-110-37v79zm0 115c55-2 124 14 124-45 0-56-70-42-124-44v89" id="ad"/><path fill="#0c7cba" d="M84 4C-5 8 30-112 23-190h32v120c0 31 7 50 39 49 72-2 45-101 50-169h31l1 190h-30c-1-10 1-25-2-33-11 22-28 36-60 37" id="ae"/><path fill="#0c7cba" d="M117-194c89-4 53 116 60 194h-32v-121c0-31-8-49-39-48C34-167 62-67 57 0H25l-1-190h30c1 10-1 24 2 32 11-22 29-35 61-36" id="af"/><path fill="#0c7cba" d="M85-194c31 0 48 13 60 33l-1-100h32l1 261h-30c-2-10 0-23-3-31C134-8 116 4 85 4 32 4 16-35 15-94c0-66 23-100 70-100zm9 24c-40 0-46 34-46 75 0 40 6 74 45 74 42 0 51-32 51-76 0-42-9-74-50-73" id="ag"/><path fill="#0c7cba" d="M24 0v-261h32V0H24" id="ah"/><path fill="#0c7cba" d="M100-194c63 0 86 42 84 106H49c0 40 14 67 53 68 26 1 43-12 49-29l28 8c-11 28-37 45-77 45C44 4 14-33 15-96c1-61 26-98 85-98zm52 81c6-60-76-77-97-28-3 7-6 17-6 28h103" id="ai"/><g id="m"><use transform="matrix(0.2222222222222222,0,0,0.2222222222222222,0,0)" xlink:href="#ad"/><use transform="matrix(0.2222222222222222,0,0,0.2222222222222222,53.33333333333333,0)" xlink:href="#ae"/><use transform="matrix(0.2222222222222222,0,0,0.2222222222222222,97.77777777777777,0)" xlink:href="#af"/><use transform="matrix(0.2222222222222222,0,0,0.2222222222222222,142.22222222222223,0)" xlink:href="#ag"/><use transform="matrix(0.2222222222222222,0,0,0.2222222222222222,186.66666666666669,0)" xlink:href="#ah"/><use transform="matrix(0.2222222222222222,0,0,0.2222222222222222,204.22222222222223,0)" xlink:href="#ai"/></g><path fill="#0c7cba" d="M101-251c68 0 85 55 85 127S166 4 100 4C33 4 14-52 14-124c0-73 17-127 87-127zm-1 229c47 0 54-49 54-102s-4-102-53-102c-51 0-55 48-55 102 0 53 5 102 54 102" id="aj"/><use transform="matrix(0.2222222222222222,0,0,0.2222222222222222,0,0)" xlink:href="#aj" id="n"/><path fill="#fe7070" d="M160-131c35 5 61 23 61 61C221 17 115-2 30 0v-248c76 3 177-17 177 60 0 33-19 50-47 57zm-97-11c50-1 110 9 110-42 0-47-63-36-110-37v79zm0 115c55-2 124 14 124-45 0-56-70-42-124-44v89" id="ak"/><path fill="#fe7070" d="M84 4C-5 8 30-112 23-190h32v120c0 31 7 50 39 49 72-2 45-101 50-169h31l1 190h-30c-1-10 1-25-2-33-11 22-28 36-60 37" id="al"/><path fill="#fe7070" d="M117-194c89-4 53 116 60 194h-32v-121c0-31-8-49-39-48C34-167 62-67 57 0H25l-1-190h30c1 10-1 24 2 32 11-22 29-35 61-36" id="am"/><path fill="#fe7070" d="M85-194c31 0 48 13 60 33l-1-100h32l1 261h-30c-2-10 0-23-3-31C134-8 116 4 85 4 32 4 16-35 15-94c0-66 23-100 70-100zm9 24c-40 0-46 34-46 75 0 40 6 74 45 74 42 0 51-32 51-76 0-42-9-74-50-73" id="an"/><path fill="#fe7070" d="M24 0v-261h32V0H24" id="ao"/><path fill="#fe7070" d="M100-194c63 0 86 42 84 106H49c0 40 14 67 53 68 26 1 43-12 49-29l28 8c-11 28-37 45-77 45C44 4 14-33 15-96c1-61 26-98 85-98zm52 81c6-60-76-77-97-28-3 7-6 17-6 28h103" id="ap"/><g id="o"><use transform="matrix(0.2222222222222222,0,0,0.2222222222222222,0,0)" xlink:href="#ak"/><use transform="matrix(0.2222222222222222,0,0,0.2222222222222222,53.33333333333333,0)" xlink:href="#al"/><use transform="matrix(0.2222222222222222,0,0,0.2222222222222222,97.77777777777777,0)" xlink:href="#am"/><use transform="matrix(0.2222222222222222,0,0,0.2222222222222222,142.22222222222223,0)" xlink:href="#an"/><use transform="matrix(0.2222222222222222,0,0,0.2222222222222222,186.66666666666669,0)" xlink:href="#ao"/><use transform="matrix(0.2222222222222222,0,0,0.2222222222222222,204.22222222222223,0)" xlink:href="#ap"/></g><path fill="#fe7070" d="M126-127c33 6 58 20 58 59 0 88-139 92-164 29-3-8-5-16-6-25l32-3c6 27 21 44 54 44 32 0 52-15 52-46 0-38-36-46-79-43v-28c39 1 72-4 72-42 0-27-17-43-46-43-28 0-47 15-49 41l-32-3c6-42 35-63 81-64 48-1 79 21 79 65 0 36-21 52-52 59" id="aq"/><use transform="matrix(0.2222222222222222,0,0,0.2222222222222222,0,0)" xlink:href="#aq" id="p"/></defs></g></svg>